%TF.GenerationSoftware,KiCad,Pcbnew,(5.1.12)-1*%
%TF.CreationDate,2022-08-10T21:51:47-07:00*%
%TF.ProjectId,JBX16_UARTCard,4a425831-365f-4554-9152-54436172642e,rev?*%
%TF.SameCoordinates,Original*%
%TF.FileFunction,Legend,Bot*%
%TF.FilePolarity,Positive*%
%FSLAX46Y46*%
G04 Gerber Fmt 4.6, Leading zero omitted, Abs format (unit mm)*
G04 Created by KiCad (PCBNEW (5.1.12)-1) date 2022-08-10 21:51:47*
%MOMM*%
%LPD*%
G01*
G04 APERTURE LIST*
%ADD10C,0.120000*%
%ADD11C,0.150000*%
G04 APERTURE END LIST*
D10*
%TO.C,U6*%
X142957700Y-95032520D02*
X151587700Y-95032520D01*
X142957700Y-94914425D02*
X151587700Y-94914425D01*
X142957700Y-94796330D02*
X151587700Y-94796330D01*
X142957700Y-94678235D02*
X151587700Y-94678235D01*
X142957700Y-94560140D02*
X151587700Y-94560140D01*
X142957700Y-94442045D02*
X151587700Y-94442045D01*
X142957700Y-94323950D02*
X151587700Y-94323950D01*
X142957700Y-94205855D02*
X151587700Y-94205855D01*
X142957700Y-94087760D02*
X151587700Y-94087760D01*
X142957700Y-93969665D02*
X151587700Y-93969665D01*
X142957700Y-93851570D02*
X151587700Y-93851570D01*
X142957700Y-93733475D02*
X151587700Y-93733475D01*
X142957700Y-93615380D02*
X151587700Y-93615380D01*
X142957700Y-93497285D02*
X151587700Y-93497285D01*
X142957700Y-93379190D02*
X151587700Y-93379190D01*
X142957700Y-93261095D02*
X151587700Y-93261095D01*
X142957700Y-93143000D02*
X151587700Y-93143000D01*
X142957700Y-93024905D02*
X151587700Y-93024905D01*
X142957700Y-92906810D02*
X151587700Y-92906810D01*
X142957700Y-92788715D02*
X151587700Y-92788715D01*
X142957700Y-92670620D02*
X151587700Y-92670620D01*
X151587700Y-94182520D02*
X151937700Y-94182520D01*
X151587700Y-93462520D02*
X151937700Y-93462520D01*
X151587700Y-91642520D02*
X151997700Y-91642520D01*
X151587700Y-90922520D02*
X151997700Y-90922520D01*
X151587700Y-89102520D02*
X151997700Y-89102520D01*
X151587700Y-88382520D02*
X151997700Y-88382520D01*
X151587700Y-86562520D02*
X151997700Y-86562520D01*
X151587700Y-85842520D02*
X151997700Y-85842520D01*
X151587700Y-84022520D02*
X151997700Y-84022520D01*
X151587700Y-83302520D02*
X151997700Y-83302520D01*
X151587700Y-81482520D02*
X151997700Y-81482520D01*
X151587700Y-80762520D02*
X151997700Y-80762520D01*
X142957700Y-92552520D02*
X151587700Y-92552520D01*
X142957700Y-90012520D02*
X151587700Y-90012520D01*
X142957700Y-87472520D02*
X151587700Y-87472520D01*
X142957700Y-84932520D02*
X151587700Y-84932520D01*
X142957700Y-82392520D02*
X151587700Y-82392520D01*
X142957700Y-95152520D02*
X151587700Y-95152520D01*
X151587700Y-95152520D02*
X151587700Y-79792520D01*
X142957700Y-79792520D02*
X151587700Y-79792520D01*
X142957700Y-95152520D02*
X142957700Y-79792520D01*
X137426700Y-79852520D02*
X181876700Y-79852520D01*
X181876700Y-79852520D02*
X181876700Y-95092520D01*
X181876700Y-95092520D02*
X137426700Y-95092520D01*
X137426700Y-95092520D02*
X137426700Y-79852520D01*
D11*
X149429604Y-96044900D02*
X149429604Y-96854424D01*
X149381985Y-96949662D01*
X149334366Y-96997281D01*
X149239128Y-97044900D01*
X149048652Y-97044900D01*
X148953414Y-96997281D01*
X148905795Y-96949662D01*
X148858176Y-96854424D01*
X148858176Y-96044900D01*
X147953414Y-96044900D02*
X148143890Y-96044900D01*
X148239128Y-96092520D01*
X148286747Y-96140139D01*
X148381985Y-96282996D01*
X148429604Y-96473472D01*
X148429604Y-96854424D01*
X148381985Y-96949662D01*
X148334366Y-96997281D01*
X148239128Y-97044900D01*
X148048652Y-97044900D01*
X147953414Y-96997281D01*
X147905795Y-96949662D01*
X147858176Y-96854424D01*
X147858176Y-96616329D01*
X147905795Y-96521091D01*
X147953414Y-96473472D01*
X148048652Y-96425853D01*
X148239128Y-96425853D01*
X148334366Y-96473472D01*
X148381985Y-96521091D01*
X148429604Y-96616329D01*
%TD*%
M02*
