M48
; DRILL file {KiCad (5.1.12)-1} date 08/10/22 21:55:16
; FORMAT={-:-/ absolute / metric / decimal}
; #@! TF.CreationDate,2022-08-10T21:55:16-07:00
; #@! TF.GenerationSoftware,Kicad,Pcbnew,(5.1.12)-1
; #@! TF.FileFunction,Plated,1,2,PTH
FMAT,2
METRIC
T1C0.300
T2C0.700
T3C0.750
T4C0.800
T5C1.000
%
G90
G05
T1
X84.204Y-117.704
X84.204Y-128.168
X86.215Y-128.659
X87.638Y-124.735
X88.136Y-126.697
X88.138Y-92.304
X88.627Y-99.952
X88.627Y-108.788
X94.343Y-87.224
X94.345Y-124.244
X94.833Y-89.766
X94.838Y-125.225
X95.326Y-123.263
X95.326Y-92.301
X95.816Y-94.841
X95.816Y-132.583
X96.36Y-97.384
X96.363Y-132.092
X96.901Y-99.924
X96.902Y-131.602
X97.445Y-102.461
X97.446Y-131.111
X97.983Y-105.001
X97.984Y-130.621
X98.552Y-130.13
X98.555Y-107.551
X99.09Y-110.081
X99.094Y-129.64
X99.664Y-129.149
X99.665Y-112.624
X103.154Y-103.01
X103.154Y-117.706
X103.645Y-103.612
X103.645Y-108.298
X103.645Y-109.731
X103.645Y-113.754
X104.135Y-105.547
X104.137Y-115.164
X104.626Y-106.286
X104.626Y-111.531
X105.448Y-126.697
X107.005Y-108.788
X107.007Y-119.885
X107.493Y-102.1
X107.498Y-131.111
X107.988Y-126.206
X108.598Y-104.645
X108.598Y-131.602
X109.248Y-125.716
X109.743Y-132.583
X113.761Y-126.697
X114.374Y-125.225
X114.841Y-83.635
X114.958Y-132.092
X115.608Y-124.735
X116.099Y-126.206
X116.585Y-130.621
X117.143Y-130.13
X118.831Y-129.64
X119.373Y-129.149
X119.87Y-93.596
X120.688Y-124.244
X121.34Y-125.716
X121.747Y-108.788
X121.971Y-123.754
X123.005Y-99.517
X123.891Y-108.298
X126.548Y-128.659
X128.093Y-127.187
X129.106Y-128.168
X129.319Y-99.023
X133.944Y-123.263
X134.445Y-102.133
X134.447Y-127.187
X135.004Y-104.681
X135.004Y-127.678
X135.494Y-107.218
X135.494Y-124.244
X135.842Y-95.766
X135.842Y-103.393
X136.338Y-124.735
X138.201Y-93.777
X138.202Y-102.818
X140.395Y-129.64
X141.294Y-130.621
X142.723Y-95.275
X142.933Y-131.602
X143.099Y-106.614
X143.835Y-132.583
X144.213Y-96.256
X144.343Y-128.659
X144.704Y-100.508
X145.974Y-100.004
X146.375Y-128.168
X148.013Y-123.263
X148.915Y-132.092
X150.554Y-131.111
X151.168Y-127.187
X151.701Y-108.298
X151.701Y-114.838
X151.82Y-100.004
X151.822Y-103.042
X151.83Y-130.13
X152.395Y-124.735
X152.463Y-127.678
X153.088Y-129.149
X153.708Y-128.168
X154.246Y-100.985
X154.757Y-101.6
X154.762Y-96.256
X154.958Y-128.659
X155.293Y-90.635
X155.633Y-102.09
X156.248Y-129.149
X156.875Y-100.495
X157.48Y-95.275
X157.493Y-100.004
X157.518Y-129.64
X158.521Y-99.514
X158.791Y-130.13
X159.012Y-93.444
X159.012Y-94.353
X159.012Y-95.275
X159.502Y-111.92
X159.502Y-113.188
X159.669Y-91.572
X159.993Y-111.122
X159.993Y-113.835
X160.08Y-130.621
X160.429Y-123.754
X160.483Y-106.311
X160.483Y-110.322
X160.741Y-91.585
X160.974Y-103.039
X160.974Y-107.922
X161.221Y-84.501
X161.328Y-131.111
X161.464Y-103.679
X161.464Y-105.607
X161.481Y-94.765
X161.844Y-128.659
X161.955Y-106.527
X162.333Y-127.187
X162.443Y-105.072
X162.527Y-91.625
X162.53Y-95.766
X162.576Y-131.602
X162.936Y-127.678
X162.936Y-107.124
X163.182Y-88.478
X163.426Y-108.722
X163.426Y-124.244
X163.815Y-93.886
X163.827Y-84.501
X163.876Y-132.092
X165.108Y-91.783
X165.108Y-99.002
X165.146Y-132.583
X165.509Y-123.263
X165.791Y-84.513
X165.791Y-92.161
X166.344Y-99.959
X166.345Y-111.92
X166.835Y-87.75
X166.835Y-100.495
X166.835Y-111.122
X167.046Y-118.6
X167.046Y-129.64
X167.257Y-115.122
X167.305Y-87.185
X167.326Y-101.598
X167.326Y-110.322
X167.706Y-80.833
X167.816Y-100.976
X167.816Y-109.522
X167.846Y-118.595
X167.847Y-130.621
X168.307Y-102.097
X168.307Y-107.122
X168.646Y-118.595
X168.646Y-131.602
X169.149Y-115.125
X169.423Y-132.583
X169.446Y-118.575
X169.951Y-89.586
X170.246Y-106.418
X170.249Y-128.168
X170.495Y-84.176
X171.846Y-118.621
X171.846Y-123.263
X172.646Y-132.092
X172.646Y-118.638
X173.446Y-131.111
X173.446Y-118.626
X174.247Y-118.6
X174.248Y-130.13
X175.046Y-129.149
X175.047Y-118.61
X175.657Y-82.186
X175.767Y-90.986
X175.781Y-107.922
X175.783Y-124.735
X178.495Y-126.697
X178.501Y-107.122
T2
X129.2Y-84.244
X132.624Y-107.198
X132.624Y-112.278
X134.28Y-84.244
X135.857Y-88.565
X135.857Y-93.645
T3
X130.231Y-96.215
X130.266Y-89.827
X131.501Y-94.945
X131.536Y-88.557
X132.771Y-96.215
X132.806Y-89.827
T4
X83.495Y-87.219
X83.495Y-89.719
X86.215Y-87.224
X86.215Y-89.764
X86.215Y-92.304
X86.215Y-94.844
X86.215Y-97.384
X86.215Y-99.924
X86.215Y-102.464
X86.215Y-105.004
X86.215Y-107.544
X86.215Y-110.084
X86.215Y-112.624
X86.215Y-115.164
X86.215Y-117.704
X86.215Y-120.244
X101.455Y-87.224
X101.455Y-89.764
X101.455Y-92.304
X101.455Y-94.844
X101.455Y-97.384
X101.455Y-99.924
X101.455Y-102.464
X101.455Y-105.004
X101.455Y-107.544
X101.455Y-110.084
X101.455Y-112.624
X101.455Y-115.164
X101.455Y-117.704
X101.455Y-120.244
X108.803Y-81.656
X108.806Y-85.565
X108.806Y-85.565
X108.806Y-93.185
X108.806Y-93.185
X110.305Y-104.647
X110.305Y-107.187
X110.305Y-109.727
X110.305Y-112.267
X110.305Y-114.807
X110.305Y-117.347
X111.303Y-81.656
X112.845Y-102.107
X112.845Y-104.647
X112.845Y-107.187
X112.845Y-109.727
X112.845Y-112.267
X112.845Y-114.807
X112.845Y-117.347
X112.845Y-119.887
X115.385Y-102.107
X115.385Y-104.647
X115.385Y-117.347
X115.385Y-119.887
X116.426Y-85.565
X116.426Y-93.185
X117.925Y-102.107
X117.925Y-104.647
X117.925Y-117.347
X117.925Y-119.887
X120.465Y-102.107
X120.465Y-104.647
X120.465Y-117.347
X120.465Y-119.887
X120.47Y-97.541
X122.97Y-97.541
X123.005Y-102.107
X123.005Y-104.647
X123.005Y-117.347
X123.005Y-119.887
X124.046Y-85.565
X124.046Y-93.185
X125.545Y-102.107
X125.545Y-104.647
X125.545Y-107.187
X125.545Y-109.727
X125.545Y-112.267
X125.545Y-114.807
X125.545Y-117.347
X125.545Y-119.887
X128.085Y-104.647
X128.085Y-107.187
X128.085Y-109.727
X128.085Y-112.267
X128.085Y-114.807
X128.085Y-117.347
X137.853Y-104.68
X137.853Y-107.22
X137.853Y-109.76
X137.853Y-112.3
X137.853Y-114.84
X137.853Y-117.38
X140.393Y-102.14
X140.393Y-104.68
X140.393Y-107.22
X140.393Y-109.76
X140.393Y-112.3
X140.393Y-114.84
X140.393Y-117.38
X140.393Y-119.92
X142.933Y-102.14
X142.933Y-104.68
X142.933Y-117.38
X142.933Y-119.92
X145.473Y-102.14
X145.473Y-104.68
X145.473Y-117.38
X145.473Y-119.92
X147.881Y-97.559
X148.013Y-102.14
X148.013Y-104.68
X148.013Y-117.38
X148.013Y-119.92
X150.381Y-97.559
X150.553Y-102.14
X150.553Y-104.68
X150.553Y-117.38
X150.553Y-119.92
X153.093Y-102.14
X153.093Y-104.68
X153.093Y-107.22
X153.093Y-109.76
X153.093Y-112.3
X153.093Y-114.84
X153.093Y-117.38
X153.093Y-119.92
X155.633Y-104.68
X155.633Y-107.22
X155.633Y-109.76
X155.633Y-112.3
X155.633Y-114.84
X155.633Y-117.38
X170.307Y-100.421
X170.307Y-102.921
X172.552Y-102.926
X175.052Y-102.926
T5
X90.208Y-134.569
X90.208Y-137.109
X92.748Y-134.569
X92.748Y-137.109
X95.288Y-134.569
X95.288Y-137.109
X97.828Y-134.569
X97.828Y-137.109
X100.368Y-134.569
X100.368Y-137.109
X102.908Y-134.569
X102.908Y-137.109
X105.448Y-134.569
X105.448Y-137.109
X107.988Y-134.569
X107.988Y-137.109
X110.528Y-134.569
X110.528Y-137.109
X113.068Y-134.569
X113.068Y-137.109
X115.608Y-134.569
X115.608Y-137.109
X118.148Y-134.569
X118.148Y-137.109
X120.688Y-134.569
X120.688Y-137.109
X123.228Y-134.569
X123.228Y-137.109
X125.768Y-134.569
X125.768Y-137.109
X128.308Y-134.569
X128.308Y-137.109
X130.848Y-134.569
X130.848Y-137.109
X133.388Y-134.569
X133.388Y-137.109
X135.928Y-134.569
X135.928Y-137.109
X138.468Y-134.569
X138.468Y-137.109
X141.008Y-134.569
X141.008Y-137.109
X143.548Y-134.569
X143.548Y-137.109
X145.974Y-81.128
X145.974Y-83.668
X145.974Y-86.208
X145.974Y-88.748
X145.974Y-91.288
X145.974Y-93.828
X146.088Y-134.569
X146.088Y-137.109
X148.628Y-134.569
X148.628Y-137.109
X151.168Y-134.569
X151.168Y-137.109
X153.048Y-81.123
X153.048Y-83.663
X153.048Y-86.203
X153.048Y-88.743
X153.048Y-91.283
X153.048Y-93.823
X153.708Y-134.569
X153.708Y-137.109
X156.248Y-134.569
X156.248Y-137.109
X158.788Y-134.569
X158.788Y-137.109
X160.429Y-121.267
X161.328Y-134.569
X161.328Y-137.109
X163.868Y-134.569
X163.868Y-137.109
X165.509Y-121.267
X166.408Y-134.569
X166.408Y-137.109
X168.948Y-134.569
X168.948Y-137.109
X171.488Y-134.569
X171.488Y-137.109
X174.028Y-134.569
X174.028Y-137.109
X176.568Y-134.569
X176.568Y-137.109
X179.108Y-134.569
X179.108Y-137.109
T0
M30
