%TF.GenerationSoftware,KiCad,Pcbnew,(5.1.12)-1*%
%TF.CreationDate,2022-08-10T21:54:59-07:00*%
%TF.ProjectId,JBX16_UARTCard,4a425831-365f-4554-9152-54436172642e,rev?*%
%TF.SameCoordinates,Original*%
%TF.FileFunction,Soldermask,Top*%
%TF.FilePolarity,Negative*%
%FSLAX46Y46*%
G04 Gerber Fmt 4.6, Leading zero omitted, Abs format (unit mm)*
G04 Created by KiCad (PCBNEW (5.1.12)-1) date 2022-08-10 21:54:59*
%MOMM*%
%LPD*%
G01*
G04 APERTURE LIST*
%ADD10O,1.700000X1.700000*%
%ADD11R,1.700000X1.700000*%
%ADD12O,1.400000X1.400000*%
%ADD13C,1.400000*%
%ADD14R,1.300000X1.300000*%
%ADD15C,1.300000*%
%ADD16C,1.600000*%
%ADD17O,2.000000X2.000000*%
%ADD18R,2.000000X2.000000*%
%ADD19O,1.600000X1.600000*%
%ADD20R,1.600000X1.600000*%
%ADD21C,0.900000*%
%ADD22R,2.500000X0.500000*%
%ADD23R,2.500000X2.000000*%
%ADD24C,1.422400*%
%ADD25R,1.422400X1.422400*%
%ADD26R,3.500000X2.000000*%
%ADD27R,0.450000X1.750000*%
%ADD28R,0.520000X1.500000*%
%ADD29R,1.500000X0.520000*%
G04 APERTURE END LIST*
D10*
%TO.C,J3*%
X145973800Y-93827600D03*
X145973800Y-91287600D03*
X145973800Y-88747600D03*
X145973800Y-86207600D03*
X145973800Y-83667600D03*
D11*
X145973800Y-81127600D03*
%TD*%
D12*
%TO.C,R3*%
X134279640Y-84244180D03*
D13*
X129199640Y-84244180D03*
%TD*%
D12*
%TO.C,R2*%
X135856980Y-93644720D03*
D13*
X135856980Y-88564720D03*
%TD*%
D14*
%TO.C,Q2*%
X130266440Y-89827100D03*
D15*
X132806440Y-89827100D03*
X131536440Y-88557100D03*
%TD*%
%TO.C,C9*%
G36*
G01*
X165663760Y-81050140D02*
X165663760Y-80575140D01*
G75*
G02*
X165901260Y-80337640I237500J0D01*
G01*
X166501260Y-80337640D01*
G75*
G02*
X166738760Y-80575140I0J-237500D01*
G01*
X166738760Y-81050140D01*
G75*
G02*
X166501260Y-81287640I-237500J0D01*
G01*
X165901260Y-81287640D01*
G75*
G02*
X165663760Y-81050140I0J237500D01*
G01*
G37*
G36*
G01*
X163938760Y-81050140D02*
X163938760Y-80575140D01*
G75*
G02*
X164176260Y-80337640I237500J0D01*
G01*
X164776260Y-80337640D01*
G75*
G02*
X165013760Y-80575140I0J-237500D01*
G01*
X165013760Y-81050140D01*
G75*
G02*
X164776260Y-81287640I-237500J0D01*
G01*
X164176260Y-81287640D01*
G75*
G02*
X163938760Y-81050140I0J237500D01*
G01*
G37*
%TD*%
%TO.C,C8*%
G36*
G01*
X162864680Y-92942420D02*
X162864680Y-92467420D01*
G75*
G02*
X163102180Y-92229920I237500J0D01*
G01*
X163702180Y-92229920D01*
G75*
G02*
X163939680Y-92467420I0J-237500D01*
G01*
X163939680Y-92942420D01*
G75*
G02*
X163702180Y-93179920I-237500J0D01*
G01*
X163102180Y-93179920D01*
G75*
G02*
X162864680Y-92942420I0J237500D01*
G01*
G37*
G36*
G01*
X161139680Y-92942420D02*
X161139680Y-92467420D01*
G75*
G02*
X161377180Y-92229920I237500J0D01*
G01*
X161977180Y-92229920D01*
G75*
G02*
X162214680Y-92467420I0J-237500D01*
G01*
X162214680Y-92942420D01*
G75*
G02*
X161977180Y-93179920I-237500J0D01*
G01*
X161377180Y-93179920D01*
G75*
G02*
X161139680Y-92942420I0J237500D01*
G01*
G37*
%TD*%
%TO.C,C7*%
G36*
G01*
X113492160Y-85418940D02*
X113492160Y-84943940D01*
G75*
G02*
X113729660Y-84706440I237500J0D01*
G01*
X114329660Y-84706440D01*
G75*
G02*
X114567160Y-84943940I0J-237500D01*
G01*
X114567160Y-85418940D01*
G75*
G02*
X114329660Y-85656440I-237500J0D01*
G01*
X113729660Y-85656440D01*
G75*
G02*
X113492160Y-85418940I0J237500D01*
G01*
G37*
G36*
G01*
X111767160Y-85418940D02*
X111767160Y-84943940D01*
G75*
G02*
X112004660Y-84706440I237500J0D01*
G01*
X112604660Y-84706440D01*
G75*
G02*
X112842160Y-84943940I0J-237500D01*
G01*
X112842160Y-85418940D01*
G75*
G02*
X112604660Y-85656440I-237500J0D01*
G01*
X112004660Y-85656440D01*
G75*
G02*
X111767160Y-85418940I0J237500D01*
G01*
G37*
%TD*%
D16*
%TO.C,C3*%
X170307000Y-100420800D03*
X170307000Y-102920800D03*
%TD*%
D17*
%TO.C,D1*%
X160428940Y-121267220D03*
D18*
X165508940Y-121267220D03*
%TD*%
D19*
%TO.C,U5*%
X101455220Y-87223600D03*
X86215220Y-120243600D03*
X101455220Y-89763600D03*
X86215220Y-117703600D03*
X101455220Y-92303600D03*
X86215220Y-115163600D03*
X101455220Y-94843600D03*
X86215220Y-112623600D03*
X101455220Y-97383600D03*
X86215220Y-110083600D03*
X101455220Y-99923600D03*
X86215220Y-107543600D03*
X101455220Y-102463600D03*
X86215220Y-105003600D03*
X101455220Y-105003600D03*
X86215220Y-102463600D03*
X101455220Y-107543600D03*
X86215220Y-99923600D03*
X101455220Y-110083600D03*
X86215220Y-97383600D03*
X101455220Y-112623600D03*
X86215220Y-94843600D03*
X101455220Y-115163600D03*
X86215220Y-92303600D03*
X101455220Y-117703600D03*
X86215220Y-89763600D03*
X101455220Y-120243600D03*
D20*
X86215220Y-87223600D03*
%TD*%
D10*
%TO.C,U6*%
X153047700Y-81122520D03*
X153047700Y-83662520D03*
X153047700Y-86202520D03*
X153047700Y-88742520D03*
X153047700Y-91282520D03*
D11*
X153047700Y-93822520D03*
%TD*%
D10*
%TO.C,J2*%
X90208300Y-137109200D03*
X90208300Y-134569200D03*
X92748300Y-137109200D03*
X92748300Y-134569200D03*
X95288300Y-137109200D03*
X95288300Y-134569200D03*
X97828300Y-137109200D03*
X97828300Y-134569200D03*
X100368300Y-137109200D03*
X100368300Y-134569200D03*
X102908300Y-137109200D03*
X102908300Y-134569200D03*
X105448300Y-137109200D03*
X105448300Y-134569200D03*
X107988300Y-137109200D03*
X107988300Y-134569200D03*
X110528300Y-137109200D03*
X110528300Y-134569200D03*
X113068300Y-137109200D03*
X113068300Y-134569200D03*
X115608300Y-137109200D03*
X115608300Y-134569200D03*
X118148300Y-137109200D03*
X118148300Y-134569200D03*
X120688300Y-137109200D03*
X120688300Y-134569200D03*
X123228300Y-137109200D03*
X123228300Y-134569200D03*
X125768300Y-137109200D03*
X125768300Y-134569200D03*
X128308300Y-137109200D03*
X128308300Y-134569200D03*
X130848300Y-137109200D03*
X130848300Y-134569200D03*
X133388300Y-137109200D03*
X133388300Y-134569200D03*
X135928300Y-137109200D03*
X135928300Y-134569200D03*
X138468300Y-137109200D03*
X138468300Y-134569200D03*
X141008300Y-137109200D03*
X141008300Y-134569200D03*
X143548300Y-137109200D03*
X143548300Y-134569200D03*
X146088300Y-137109200D03*
X146088300Y-134569200D03*
X148628300Y-137109200D03*
X148628300Y-134569200D03*
X151168300Y-137109200D03*
X151168300Y-134569200D03*
X153708300Y-137109200D03*
X153708300Y-134569200D03*
X156248300Y-137109200D03*
X156248300Y-134569200D03*
X158788300Y-137109200D03*
X158788300Y-134569200D03*
X161328300Y-137109200D03*
X161328300Y-134569200D03*
X163868300Y-137109200D03*
X163868300Y-134569200D03*
X166408300Y-137109200D03*
X166408300Y-134569200D03*
X168948300Y-137109200D03*
X168948300Y-134569200D03*
X171488300Y-137109200D03*
X171488300Y-134569200D03*
X174028300Y-137109200D03*
X174028300Y-134569200D03*
X176568300Y-137109200D03*
X176568300Y-134569200D03*
D11*
X179108300Y-137109200D03*
D10*
X179108300Y-134569200D03*
%TD*%
D21*
%TO.C,J1*%
X175562260Y-84386060D03*
X175562260Y-88786060D03*
D22*
X172962260Y-84986060D03*
X172962260Y-85786060D03*
X172962260Y-86586060D03*
X172962260Y-87386060D03*
X172962260Y-88186060D03*
D23*
X172962260Y-82186060D03*
X172962260Y-90986060D03*
X178462260Y-82186060D03*
X178462260Y-90986060D03*
%TD*%
D24*
%TO.C,U4*%
X128084580Y-104646940D03*
X128084580Y-107186940D03*
X128084580Y-109726940D03*
X128084580Y-112266940D03*
X128084580Y-114806940D03*
X125544580Y-102106940D03*
X125544580Y-107186940D03*
X125544580Y-109726940D03*
X125544580Y-112266940D03*
X125544580Y-114806940D03*
X125544580Y-117346940D03*
X125544580Y-119886940D03*
X123004580Y-119886940D03*
X120464580Y-119886940D03*
X117924580Y-119886940D03*
X115384580Y-119886940D03*
X112844580Y-119886940D03*
X128084580Y-117346940D03*
X123004580Y-117346940D03*
X120464580Y-117346940D03*
X117924580Y-117346940D03*
X115384580Y-117346940D03*
X112844580Y-117346940D03*
X110304580Y-117346940D03*
X110304580Y-114806940D03*
X110304580Y-112266940D03*
X110304580Y-109726940D03*
X110304580Y-107186940D03*
X110304580Y-104646940D03*
X112844580Y-114806940D03*
X112844580Y-112266940D03*
X112844580Y-109726940D03*
X112844580Y-107186940D03*
X112844580Y-104646940D03*
X123004580Y-102106940D03*
X120464580Y-102106940D03*
X112844580Y-102106940D03*
X115384580Y-102106940D03*
X117924580Y-102106940D03*
X125544580Y-104646940D03*
X123004580Y-104646940D03*
X115384580Y-104646940D03*
X117924580Y-104646940D03*
D25*
X120464580Y-104646940D03*
%TD*%
D12*
%TO.C,R1*%
X132623560Y-112278160D03*
D13*
X132623560Y-107198160D03*
%TD*%
D14*
%TO.C,Q1*%
X130230880Y-96215200D03*
D15*
X132770880Y-96215200D03*
X131500880Y-94945200D03*
%TD*%
D16*
%TO.C,C6*%
X83494880Y-87218520D03*
X83494880Y-89718520D03*
%TD*%
%TO.C,C5*%
X122969660Y-97541080D03*
X120469660Y-97541080D03*
%TD*%
%TO.C,C4*%
X175051720Y-102925880D03*
X172551720Y-102925880D03*
%TD*%
%TO.C,C2*%
X111303440Y-81655920D03*
X108803440Y-81655920D03*
%TD*%
%TO.C,C1*%
X150381340Y-97558860D03*
X147881340Y-97558860D03*
%TD*%
D26*
%TO.C,X3*%
X113342280Y-87406480D03*
X119842280Y-87406480D03*
X119842280Y-91606480D03*
X113342280Y-91606480D03*
%TD*%
D16*
%TO.C,X2*%
X124045980Y-93184980D03*
X124045980Y-85564980D03*
X108805980Y-85564980D03*
D20*
X108805980Y-93184980D03*
%TD*%
D16*
%TO.C,X1*%
X116425980Y-93184980D03*
X116425980Y-85564980D03*
X108805980Y-85564980D03*
D20*
X108805980Y-93184980D03*
%TD*%
D27*
%TO.C,U3*%
X159277340Y-82881920D03*
X159927340Y-82881920D03*
X160577340Y-82881920D03*
X161227340Y-82881920D03*
X161877340Y-82881920D03*
X162527340Y-82881920D03*
X163177340Y-82881920D03*
X163827340Y-82881920D03*
X164477340Y-82881920D03*
X165127340Y-82881920D03*
X165777340Y-82881920D03*
X166427340Y-82881920D03*
X167077340Y-82881920D03*
X167727340Y-82881920D03*
X167727340Y-90081920D03*
X167077340Y-90081920D03*
X166427340Y-90081920D03*
X165777340Y-90081920D03*
X165127340Y-90081920D03*
X164477340Y-90081920D03*
X163827340Y-90081920D03*
X163177340Y-90081920D03*
X162527340Y-90081920D03*
X161877340Y-90081920D03*
X161227340Y-90081920D03*
X160577340Y-90081920D03*
X159927340Y-90081920D03*
X159277340Y-90081920D03*
%TD*%
D28*
%TO.C,U2*%
X167046140Y-105072460D03*
X167846140Y-105072460D03*
X168646140Y-105072460D03*
X169446140Y-105072460D03*
X170246140Y-105072460D03*
X171046140Y-105072460D03*
X171846140Y-105072460D03*
X172646140Y-105072460D03*
X173446140Y-105072460D03*
X174246140Y-105072460D03*
X175046140Y-105072460D03*
D29*
X177096140Y-107122460D03*
X177096140Y-107922460D03*
X177096140Y-108722460D03*
X177096140Y-109522460D03*
X177096140Y-110322460D03*
X177096140Y-111122460D03*
X177096140Y-111922460D03*
X177096140Y-112722460D03*
X177096140Y-113522460D03*
X177096140Y-114322460D03*
X177096140Y-115122460D03*
D28*
X175046140Y-117172460D03*
X174246140Y-117172460D03*
X173446140Y-117172460D03*
X172646140Y-117172460D03*
X171846140Y-117172460D03*
X171046140Y-117172460D03*
X170246140Y-117172460D03*
X169446140Y-117172460D03*
X168646140Y-117172460D03*
X167846140Y-117172460D03*
X167046140Y-117172460D03*
D29*
X164996140Y-115122460D03*
X164996140Y-114322460D03*
X164996140Y-113522460D03*
X164996140Y-112722460D03*
X164996140Y-111922460D03*
X164996140Y-111122460D03*
X164996140Y-110322460D03*
X164996140Y-109522460D03*
X164996140Y-108722460D03*
X164996140Y-107922460D03*
X164996140Y-107122460D03*
%TD*%
D24*
%TO.C,U1*%
X155633420Y-104679960D03*
X155633420Y-107219960D03*
X155633420Y-109759960D03*
X155633420Y-112299960D03*
X155633420Y-114839960D03*
X153093420Y-102139960D03*
X153093420Y-107219960D03*
X153093420Y-109759960D03*
X153093420Y-112299960D03*
X153093420Y-114839960D03*
X153093420Y-117379960D03*
X153093420Y-119919960D03*
X150553420Y-119919960D03*
X148013420Y-119919960D03*
X145473420Y-119919960D03*
X142933420Y-119919960D03*
X140393420Y-119919960D03*
X155633420Y-117379960D03*
X150553420Y-117379960D03*
X148013420Y-117379960D03*
X145473420Y-117379960D03*
X142933420Y-117379960D03*
X140393420Y-117379960D03*
X137853420Y-117379960D03*
X137853420Y-114839960D03*
X137853420Y-112299960D03*
X137853420Y-109759960D03*
X137853420Y-107219960D03*
X137853420Y-104679960D03*
X140393420Y-114839960D03*
X140393420Y-112299960D03*
X140393420Y-109759960D03*
X140393420Y-107219960D03*
X140393420Y-104679960D03*
X150553420Y-102139960D03*
X148013420Y-102139960D03*
X140393420Y-102139960D03*
X142933420Y-102139960D03*
X145473420Y-102139960D03*
X153093420Y-104679960D03*
X150553420Y-104679960D03*
X142933420Y-104679960D03*
X145473420Y-104679960D03*
D25*
X148013420Y-104679960D03*
%TD*%
M02*
