%FSLAX45Y45*%
G04 Gerber Fmt 4.5, Leading zero omitted, Abs format (unit mm)*
G04 Created by KiCad (PCBNEW (5.1.12)-1) date 2022-08-10 21:55:40*
%MOMM*%
%LPD*%
G01*
G04 APERTURE LIST*
%TA.AperFunction,Profile*%
%ADD10C,0.050000*%
%TD*%
%ADD11C,0.200000*%
%ADD12C,0.300000*%
G04 APERTURE END LIST*
D10*
X18164830Y-7723690D02*
X18164830Y-14123690D01*
X8164830Y-14123690D02*
X18164830Y-14123690D01*
X8164830Y-7723690D02*
X8164830Y-14123690D01*
X8164830Y-7723690D02*
X18164830Y-7723690D01*
D11*
X17511226Y-8393606D02*
X17601226Y-8483606D01*
X17601226Y-8393606D02*
X17511226Y-8483606D01*
X17511226Y-8833606D02*
X17601226Y-8923606D01*
X17601226Y-8833606D02*
X17511226Y-8923606D01*
D12*
X8448758Y-14591904D02*
X8448758Y-14291904D01*
X8520187Y-14291904D01*
X8563044Y-14306190D01*
X8591616Y-14334761D01*
X8605901Y-14363333D01*
X8620187Y-14420476D01*
X8620187Y-14463333D01*
X8605901Y-14520476D01*
X8591616Y-14549047D01*
X8563044Y-14577619D01*
X8520187Y-14591904D01*
X8448758Y-14591904D01*
X8748758Y-14591904D02*
X8748758Y-14391904D01*
X8748758Y-14449047D02*
X8763044Y-14420476D01*
X8777330Y-14406190D01*
X8805901Y-14391904D01*
X8834473Y-14391904D01*
X8934473Y-14591904D02*
X8934473Y-14391904D01*
X8934473Y-14291904D02*
X8920187Y-14306190D01*
X8934473Y-14320476D01*
X8948758Y-14306190D01*
X8934473Y-14291904D01*
X8934473Y-14320476D01*
X9120187Y-14591904D02*
X9091616Y-14577619D01*
X9077330Y-14549047D01*
X9077330Y-14291904D01*
X9277330Y-14591904D02*
X9248758Y-14577619D01*
X9234473Y-14549047D01*
X9234473Y-14291904D01*
X9620187Y-14591904D02*
X9620187Y-14291904D01*
X9720187Y-14506190D01*
X9820187Y-14291904D01*
X9820187Y-14591904D01*
X10091616Y-14591904D02*
X10091616Y-14434761D01*
X10077330Y-14406190D01*
X10048758Y-14391904D01*
X9991616Y-14391904D01*
X9963044Y-14406190D01*
X10091616Y-14577619D02*
X10063044Y-14591904D01*
X9991616Y-14591904D01*
X9963044Y-14577619D01*
X9948758Y-14549047D01*
X9948758Y-14520476D01*
X9963044Y-14491904D01*
X9991616Y-14477619D01*
X10063044Y-14477619D01*
X10091616Y-14463333D01*
X10234473Y-14391904D02*
X10234473Y-14691904D01*
X10234473Y-14406190D02*
X10263044Y-14391904D01*
X10320187Y-14391904D01*
X10348758Y-14406190D01*
X10363044Y-14420476D01*
X10377330Y-14449047D01*
X10377330Y-14534761D01*
X10363044Y-14563333D01*
X10348758Y-14577619D01*
X10320187Y-14591904D01*
X10263044Y-14591904D01*
X10234473Y-14577619D01*
X10505901Y-14563333D02*
X10520187Y-14577619D01*
X10505901Y-14591904D01*
X10491616Y-14577619D01*
X10505901Y-14563333D01*
X10505901Y-14591904D01*
X10505901Y-14406190D02*
X10520187Y-14420476D01*
X10505901Y-14434761D01*
X10491616Y-14420476D01*
X10505901Y-14406190D01*
X10505901Y-14434761D01*
X8072330Y-15041190D02*
X8162330Y-15131190D01*
X8162330Y-15041190D02*
X8072330Y-15131190D01*
X8505901Y-14921904D02*
X8534473Y-14921904D01*
X8563044Y-14936190D01*
X8577330Y-14950476D01*
X8591616Y-14979047D01*
X8605901Y-15036190D01*
X8605901Y-15107619D01*
X8591616Y-15164761D01*
X8577330Y-15193333D01*
X8563044Y-15207619D01*
X8534473Y-15221904D01*
X8505901Y-15221904D01*
X8477330Y-15207619D01*
X8463044Y-15193333D01*
X8448758Y-15164761D01*
X8434473Y-15107619D01*
X8434473Y-15036190D01*
X8448758Y-14979047D01*
X8463044Y-14950476D01*
X8477330Y-14936190D01*
X8505901Y-14921904D01*
X8734473Y-15193333D02*
X8748758Y-15207619D01*
X8734473Y-15221904D01*
X8720187Y-15207619D01*
X8734473Y-15193333D01*
X8734473Y-15221904D01*
X8891616Y-15221904D02*
X8948758Y-15221904D01*
X8977330Y-15207619D01*
X8991616Y-15193333D01*
X9020187Y-15150476D01*
X9034473Y-15093333D01*
X9034473Y-14979047D01*
X9020187Y-14950476D01*
X9005901Y-14936190D01*
X8977330Y-14921904D01*
X8920187Y-14921904D01*
X8891616Y-14936190D01*
X8877330Y-14950476D01*
X8863044Y-14979047D01*
X8863044Y-15050476D01*
X8877330Y-15079047D01*
X8891616Y-15093333D01*
X8920187Y-15107619D01*
X8977330Y-15107619D01*
X9005901Y-15093333D01*
X9020187Y-15079047D01*
X9034473Y-15050476D01*
X9220187Y-14921904D02*
X9248758Y-14921904D01*
X9277330Y-14936190D01*
X9291616Y-14950476D01*
X9305901Y-14979047D01*
X9320187Y-15036190D01*
X9320187Y-15107619D01*
X9305901Y-15164761D01*
X9291616Y-15193333D01*
X9277330Y-15207619D01*
X9248758Y-15221904D01*
X9220187Y-15221904D01*
X9191616Y-15207619D01*
X9177330Y-15193333D01*
X9163044Y-15164761D01*
X9148758Y-15107619D01*
X9148758Y-15036190D01*
X9163044Y-14979047D01*
X9177330Y-14950476D01*
X9191616Y-14936190D01*
X9220187Y-14921904D01*
X9505901Y-14921904D02*
X9534473Y-14921904D01*
X9563044Y-14936190D01*
X9577330Y-14950476D01*
X9591616Y-14979047D01*
X9605901Y-15036190D01*
X9605901Y-15107619D01*
X9591616Y-15164761D01*
X9577330Y-15193333D01*
X9563044Y-15207619D01*
X9534473Y-15221904D01*
X9505901Y-15221904D01*
X9477330Y-15207619D01*
X9463044Y-15193333D01*
X9448758Y-15164761D01*
X9434473Y-15107619D01*
X9434473Y-15036190D01*
X9448758Y-14979047D01*
X9463044Y-14950476D01*
X9477330Y-14936190D01*
X9505901Y-14921904D01*
X9734473Y-15221904D02*
X9734473Y-15021904D01*
X9734473Y-15050476D02*
X9748758Y-15036190D01*
X9777330Y-15021904D01*
X9820187Y-15021904D01*
X9848758Y-15036190D01*
X9863044Y-15064761D01*
X9863044Y-15221904D01*
X9863044Y-15064761D02*
X9877330Y-15036190D01*
X9905901Y-15021904D01*
X9948758Y-15021904D01*
X9977330Y-15036190D01*
X9991616Y-15064761D01*
X9991616Y-15221904D01*
X10134473Y-15221904D02*
X10134473Y-15021904D01*
X10134473Y-15050476D02*
X10148758Y-15036190D01*
X10177330Y-15021904D01*
X10220187Y-15021904D01*
X10248758Y-15036190D01*
X10263044Y-15064761D01*
X10263044Y-15221904D01*
X10263044Y-15064761D02*
X10277330Y-15036190D01*
X10305901Y-15021904D01*
X10348758Y-15021904D01*
X10377330Y-15036190D01*
X10391616Y-15064761D01*
X10391616Y-15221904D01*
X10977330Y-14907619D02*
X10720187Y-15293333D01*
X11363044Y-14921904D02*
X11391616Y-14921904D01*
X11420187Y-14936190D01*
X11434473Y-14950476D01*
X11448758Y-14979047D01*
X11463044Y-15036190D01*
X11463044Y-15107619D01*
X11448758Y-15164761D01*
X11434473Y-15193333D01*
X11420187Y-15207619D01*
X11391616Y-15221904D01*
X11363044Y-15221904D01*
X11334473Y-15207619D01*
X11320187Y-15193333D01*
X11305901Y-15164761D01*
X11291616Y-15107619D01*
X11291616Y-15036190D01*
X11305901Y-14979047D01*
X11320187Y-14950476D01*
X11334473Y-14936190D01*
X11363044Y-14921904D01*
X11591616Y-15193333D02*
X11605901Y-15207619D01*
X11591616Y-15221904D01*
X11577330Y-15207619D01*
X11591616Y-15193333D01*
X11591616Y-15221904D01*
X11791616Y-14921904D02*
X11820187Y-14921904D01*
X11848758Y-14936190D01*
X11863044Y-14950476D01*
X11877330Y-14979047D01*
X11891616Y-15036190D01*
X11891616Y-15107619D01*
X11877330Y-15164761D01*
X11863044Y-15193333D01*
X11848758Y-15207619D01*
X11820187Y-15221904D01*
X11791616Y-15221904D01*
X11763044Y-15207619D01*
X11748758Y-15193333D01*
X11734473Y-15164761D01*
X11720187Y-15107619D01*
X11720187Y-15036190D01*
X11734473Y-14979047D01*
X11748758Y-14950476D01*
X11763044Y-14936190D01*
X11791616Y-14921904D01*
X11991616Y-14921904D02*
X12177330Y-14921904D01*
X12077330Y-15036190D01*
X12120187Y-15036190D01*
X12148758Y-15050476D01*
X12163044Y-15064761D01*
X12177330Y-15093333D01*
X12177330Y-15164761D01*
X12163044Y-15193333D01*
X12148758Y-15207619D01*
X12120187Y-15221904D01*
X12034473Y-15221904D01*
X12005901Y-15207619D01*
X11991616Y-15193333D01*
X12448758Y-14921904D02*
X12305901Y-14921904D01*
X12291616Y-15064761D01*
X12305901Y-15050476D01*
X12334473Y-15036190D01*
X12405901Y-15036190D01*
X12434473Y-15050476D01*
X12448758Y-15064761D01*
X12463044Y-15093333D01*
X12463044Y-15164761D01*
X12448758Y-15193333D01*
X12434473Y-15207619D01*
X12405901Y-15221904D01*
X12334473Y-15221904D01*
X12305901Y-15207619D01*
X12291616Y-15193333D01*
X12720187Y-15021904D02*
X12720187Y-15221904D01*
X12648758Y-14907619D02*
X12577330Y-15121904D01*
X12763044Y-15121904D01*
X12863044Y-14921904D02*
X12863044Y-14979047D01*
X12977330Y-14921904D02*
X12977330Y-14979047D01*
X13420187Y-15336190D02*
X13405901Y-15321904D01*
X13377330Y-15279047D01*
X13363044Y-15250476D01*
X13348758Y-15207619D01*
X13334473Y-15136190D01*
X13334473Y-15079047D01*
X13348758Y-15007619D01*
X13363044Y-14964761D01*
X13377330Y-14936190D01*
X13405901Y-14893333D01*
X13420187Y-14879047D01*
X13520187Y-14950476D02*
X13534473Y-14936190D01*
X13563044Y-14921904D01*
X13634473Y-14921904D01*
X13663044Y-14936190D01*
X13677330Y-14950476D01*
X13691616Y-14979047D01*
X13691616Y-15007619D01*
X13677330Y-15050476D01*
X13505901Y-15221904D01*
X13691616Y-15221904D01*
X14048758Y-15221904D02*
X14048758Y-14921904D01*
X14177330Y-15221904D02*
X14177330Y-15064761D01*
X14163044Y-15036190D01*
X14134473Y-15021904D01*
X14091616Y-15021904D01*
X14063044Y-15036190D01*
X14048758Y-15050476D01*
X14363044Y-15221904D02*
X14334473Y-15207619D01*
X14320187Y-15193333D01*
X14305901Y-15164761D01*
X14305901Y-15079047D01*
X14320187Y-15050476D01*
X14334473Y-15036190D01*
X14363044Y-15021904D01*
X14405901Y-15021904D01*
X14434473Y-15036190D01*
X14448758Y-15050476D01*
X14463044Y-15079047D01*
X14463044Y-15164761D01*
X14448758Y-15193333D01*
X14434473Y-15207619D01*
X14405901Y-15221904D01*
X14363044Y-15221904D01*
X14634473Y-15221904D02*
X14605901Y-15207619D01*
X14591616Y-15179047D01*
X14591616Y-14921904D01*
X14863044Y-15207619D02*
X14834473Y-15221904D01*
X14777330Y-15221904D01*
X14748758Y-15207619D01*
X14734473Y-15179047D01*
X14734473Y-15064761D01*
X14748758Y-15036190D01*
X14777330Y-15021904D01*
X14834473Y-15021904D01*
X14863044Y-15036190D01*
X14877330Y-15064761D01*
X14877330Y-15093333D01*
X14734473Y-15121904D01*
X14991616Y-15207619D02*
X15020187Y-15221904D01*
X15077330Y-15221904D01*
X15105901Y-15207619D01*
X15120187Y-15179047D01*
X15120187Y-15164761D01*
X15105901Y-15136190D01*
X15077330Y-15121904D01*
X15034473Y-15121904D01*
X15005901Y-15107619D01*
X14991616Y-15079047D01*
X14991616Y-15064761D01*
X15005901Y-15036190D01*
X15034473Y-15021904D01*
X15077330Y-15021904D01*
X15105901Y-15036190D01*
X15220187Y-15336190D02*
X15234473Y-15321904D01*
X15263044Y-15279047D01*
X15277330Y-15250476D01*
X15291616Y-15207619D01*
X15305901Y-15136190D01*
X15305901Y-15079047D01*
X15291616Y-15007619D01*
X15277330Y-14964761D01*
X15263044Y-14936190D01*
X15234473Y-14893333D01*
X15220187Y-14879047D01*
X15763044Y-15336190D02*
X15748758Y-15321904D01*
X15720187Y-15279047D01*
X15705901Y-15250476D01*
X15691616Y-15207619D01*
X15677330Y-15136190D01*
X15677330Y-15079047D01*
X15691616Y-15007619D01*
X15705901Y-14964761D01*
X15720187Y-14936190D01*
X15748758Y-14893333D01*
X15763044Y-14879047D01*
X15877330Y-15021904D02*
X15877330Y-15221904D01*
X15877330Y-15050476D02*
X15891616Y-15036190D01*
X15920187Y-15021904D01*
X15963044Y-15021904D01*
X15991616Y-15036190D01*
X16005901Y-15064761D01*
X16005901Y-15221904D01*
X16191616Y-15221904D02*
X16163044Y-15207619D01*
X16148758Y-15193333D01*
X16134473Y-15164761D01*
X16134473Y-15079047D01*
X16148758Y-15050476D01*
X16163044Y-15036190D01*
X16191616Y-15021904D01*
X16234473Y-15021904D01*
X16263044Y-15036190D01*
X16277330Y-15050476D01*
X16291616Y-15079047D01*
X16291616Y-15164761D01*
X16277330Y-15193333D01*
X16263044Y-15207619D01*
X16234473Y-15221904D01*
X16191616Y-15221904D01*
X16377330Y-15021904D02*
X16491616Y-15021904D01*
X16420187Y-14921904D02*
X16420187Y-15179047D01*
X16434473Y-15207619D01*
X16463044Y-15221904D01*
X16491616Y-15221904D01*
X16820187Y-15021904D02*
X16820187Y-15321904D01*
X16820187Y-15036190D02*
X16848758Y-15021904D01*
X16905901Y-15021904D01*
X16934473Y-15036190D01*
X16948758Y-15050476D01*
X16963044Y-15079047D01*
X16963044Y-15164761D01*
X16948758Y-15193333D01*
X16934473Y-15207619D01*
X16905901Y-15221904D01*
X16848758Y-15221904D01*
X16820187Y-15207619D01*
X17134473Y-15221904D02*
X17105901Y-15207619D01*
X17091616Y-15179047D01*
X17091616Y-14921904D01*
X17377330Y-15221904D02*
X17377330Y-15064761D01*
X17363044Y-15036190D01*
X17334473Y-15021904D01*
X17277330Y-15021904D01*
X17248758Y-15036190D01*
X17377330Y-15207619D02*
X17348758Y-15221904D01*
X17277330Y-15221904D01*
X17248758Y-15207619D01*
X17234473Y-15179047D01*
X17234473Y-15150476D01*
X17248758Y-15121904D01*
X17277330Y-15107619D01*
X17348758Y-15107619D01*
X17377330Y-15093333D01*
X17477330Y-15021904D02*
X17591616Y-15021904D01*
X17520187Y-14921904D02*
X17520187Y-15179047D01*
X17534473Y-15207619D01*
X17563044Y-15221904D01*
X17591616Y-15221904D01*
X17805901Y-15207619D02*
X17777330Y-15221904D01*
X17720187Y-15221904D01*
X17691616Y-15207619D01*
X17677330Y-15179047D01*
X17677330Y-15064761D01*
X17691616Y-15036190D01*
X17720187Y-15021904D01*
X17777330Y-15021904D01*
X17805901Y-15036190D01*
X17820187Y-15064761D01*
X17820187Y-15093333D01*
X17677330Y-15121904D01*
X18077330Y-15221904D02*
X18077330Y-14921904D01*
X18077330Y-15207619D02*
X18048758Y-15221904D01*
X17991616Y-15221904D01*
X17963044Y-15207619D01*
X17948758Y-15193333D01*
X17934473Y-15164761D01*
X17934473Y-15079047D01*
X17948758Y-15050476D01*
X17963044Y-15036190D01*
X17991616Y-15021904D01*
X18048758Y-15021904D01*
X18077330Y-15036190D01*
X18191616Y-15336190D02*
X18205901Y-15321904D01*
X18234473Y-15279047D01*
X18248758Y-15250476D01*
X18263044Y-15207619D01*
X18277330Y-15136190D01*
X18277330Y-15079047D01*
X18263044Y-15007619D01*
X18248758Y-14964761D01*
X18234473Y-14936190D01*
X18205901Y-14893333D01*
X18191616Y-14879047D01*
M02*
