%FSLAX45Y45*%
G04 Gerber Fmt 4.5, Leading zero omitted, Abs format (unit mm)*
G04 Created by KiCad (PCBNEW (5.1.12)-1) date 2022-08-10 21:55:40*
%MOMM*%
%LPD*%
G01*
G04 APERTURE LIST*
%TA.AperFunction,Profile*%
%ADD10C,0.050000*%
%TD*%
%ADD11C,0.200000*%
%ADD12C,0.300000*%
G04 APERTURE END LIST*
D10*
X18164830Y-7723690D02*
X18164830Y-14123690D01*
X8164830Y-14123690D02*
X18164830Y-14123690D01*
X8164830Y-7723690D02*
X8164830Y-14123690D01*
X8164830Y-7723690D02*
X18164830Y-7723690D01*
D11*
X8405354Y-11755360D02*
X8435354Y-11785360D01*
X8435354Y-11755360D02*
X8405354Y-11785360D01*
X8405354Y-12801840D02*
X8435354Y-12831840D01*
X8435354Y-12801840D02*
X8405354Y-12831840D01*
X8606492Y-12850892D02*
X8636492Y-12880892D01*
X8636492Y-12850892D02*
X8606492Y-12880892D01*
X8748820Y-12458490D02*
X8778820Y-12488490D01*
X8778820Y-12458490D02*
X8748820Y-12488490D01*
X8798630Y-12654690D02*
X8828630Y-12684690D01*
X8828630Y-12654690D02*
X8798630Y-12684690D01*
X8798800Y-9215360D02*
X8828800Y-9245360D01*
X8828800Y-9215360D02*
X8798800Y-9245360D01*
X8847680Y-9980154D02*
X8877680Y-10010154D01*
X8877680Y-9980154D02*
X8847680Y-10010154D01*
X8847680Y-10863820D02*
X8877680Y-10893820D01*
X8877680Y-10863820D02*
X8847680Y-10893820D01*
X9419322Y-8707360D02*
X9449322Y-8737360D01*
X9449322Y-8707360D02*
X9419322Y-8737360D01*
X9419492Y-12409440D02*
X9449492Y-12439440D01*
X9449492Y-12409440D02*
X9419492Y-12439440D01*
X9468344Y-8961614D02*
X9498344Y-8991614D01*
X9498344Y-8961614D02*
X9468344Y-8991614D01*
X9468766Y-12507540D02*
X9498766Y-12537540D01*
X9498766Y-12507540D02*
X9468766Y-12537540D01*
X9517592Y-12311340D02*
X9547592Y-12341340D01*
X9547592Y-12311340D02*
X9517592Y-12341340D01*
X9517620Y-9215106D02*
X9547620Y-9245106D01*
X9547620Y-9215106D02*
X9517620Y-9245106D01*
X9566642Y-9469106D02*
X9596642Y-9499106D01*
X9596642Y-9469106D02*
X9566642Y-9499106D01*
X9566642Y-13243292D02*
X9596642Y-13273292D01*
X9596642Y-13243292D02*
X9566642Y-13273292D01*
X9620998Y-9723360D02*
X9650998Y-9753360D01*
X9650998Y-9723360D02*
X9620998Y-9753360D01*
X9621280Y-13194242D02*
X9651280Y-13224242D01*
X9651280Y-13194242D02*
X9621280Y-13224242D01*
X9675100Y-9977360D02*
X9705100Y-10007360D01*
X9705100Y-9977360D02*
X9675100Y-10007360D01*
X9675156Y-13145192D02*
X9705156Y-13175192D01*
X9705156Y-13145192D02*
X9675156Y-13175192D01*
X9729456Y-10231106D02*
X9759456Y-10261106D01*
X9759456Y-10231106D02*
X9729456Y-10261106D01*
X9729626Y-13096142D02*
X9759626Y-13126142D01*
X9759626Y-13096142D02*
X9729626Y-13126142D01*
X9783304Y-10485106D02*
X9813304Y-10515106D01*
X9813304Y-10485106D02*
X9783304Y-10515106D01*
X9783416Y-13047092D02*
X9813416Y-13077092D01*
X9813416Y-13047092D02*
X9783416Y-13077092D01*
X9840200Y-12998042D02*
X9870200Y-13028042D01*
X9870200Y-12998042D02*
X9840200Y-13028042D01*
X9840454Y-10740122D02*
X9870454Y-10770122D01*
X9870454Y-10740122D02*
X9840454Y-10770122D01*
X9894048Y-10993106D02*
X9924048Y-11023106D01*
X9924048Y-10993106D02*
X9894048Y-11023106D01*
X9894430Y-12948992D02*
X9924430Y-12978992D01*
X9924430Y-12948992D02*
X9894430Y-12978992D01*
X9951394Y-12899942D02*
X9981394Y-12929942D01*
X9981394Y-12899942D02*
X9951394Y-12929942D01*
X9951452Y-11247360D02*
X9981452Y-11277360D01*
X9981452Y-11247360D02*
X9951452Y-11277360D01*
X10300448Y-10285970D02*
X10330448Y-10315970D01*
X10330448Y-10285970D02*
X10300448Y-10315970D01*
X10300448Y-11755614D02*
X10330448Y-11785614D01*
X10330448Y-11755614D02*
X10300448Y-11785614D01*
X10349498Y-10346236D02*
X10379498Y-10376236D01*
X10379498Y-10346236D02*
X10349498Y-10376236D01*
X10349498Y-10814770D02*
X10379498Y-10844770D01*
X10379498Y-10814770D02*
X10349498Y-10844770D01*
X10349498Y-10958054D02*
X10379498Y-10988054D01*
X10379498Y-10958054D02*
X10349498Y-10988054D01*
X10349498Y-11360390D02*
X10379498Y-11390390D01*
X10379498Y-11360390D02*
X10349498Y-11390390D01*
X10398548Y-10539716D02*
X10428548Y-10569716D01*
X10428548Y-10539716D02*
X10398548Y-10569716D01*
X10398746Y-11501360D02*
X10428746Y-11531360D01*
X10428746Y-11501360D02*
X10398746Y-11531360D01*
X10447598Y-10613630D02*
X10477598Y-10643630D01*
X10477598Y-10613630D02*
X10447598Y-10643630D01*
X10447598Y-11138140D02*
X10477598Y-11168140D01*
X10477598Y-11138140D02*
X10447598Y-11168140D01*
X10529810Y-12654690D02*
X10559810Y-12684690D01*
X10559810Y-12654690D02*
X10529810Y-12684690D01*
X10685512Y-10863820D02*
X10715512Y-10893820D01*
X10715512Y-10863820D02*
X10685512Y-10893820D01*
X10685710Y-11973546D02*
X10715710Y-12003546D01*
X10715710Y-11973546D02*
X10685710Y-12003546D01*
X10734280Y-10195038D02*
X10764280Y-10225038D01*
X10764280Y-10195038D02*
X10734280Y-10225038D01*
X10734780Y-13096142D02*
X10764780Y-13126142D01*
X10764780Y-13096142D02*
X10734780Y-13126142D01*
X10783810Y-12605640D02*
X10813810Y-12635640D01*
X10813810Y-12605640D02*
X10783810Y-12635640D01*
X10844770Y-10449546D02*
X10874770Y-10479546D01*
X10874770Y-10449546D02*
X10844770Y-10479546D01*
X10844826Y-13145192D02*
X10874826Y-13175192D01*
X10874826Y-13145192D02*
X10844826Y-13175192D01*
X10909794Y-12556590D02*
X10939794Y-12586590D01*
X10939794Y-12556590D02*
X10909794Y-12586590D01*
X10959324Y-13243292D02*
X10989324Y-13273292D01*
X10989324Y-13243292D02*
X10959324Y-13273292D01*
X11361068Y-12654690D02*
X11391068Y-12684690D01*
X11391068Y-12654690D02*
X11361068Y-12684690D01*
X11422366Y-12507540D02*
X11452366Y-12537540D01*
X11452366Y-12507540D02*
X11422366Y-12537540D01*
X11469102Y-8348458D02*
X11499102Y-8378458D01*
X11499102Y-8348458D02*
X11469102Y-8378458D01*
X11480786Y-13194242D02*
X11510786Y-13224242D01*
X11510786Y-13194242D02*
X11480786Y-13224242D01*
X11545810Y-12458490D02*
X11575810Y-12488490D01*
X11575810Y-12458490D02*
X11545810Y-12488490D01*
X11594880Y-12605640D02*
X11624880Y-12635640D01*
X11624880Y-12605640D02*
X11594880Y-12635640D01*
X11643488Y-13047092D02*
X11673488Y-13077092D01*
X11673488Y-13047092D02*
X11643488Y-13077092D01*
X11699340Y-12998042D02*
X11729340Y-13028042D01*
X11729340Y-12998042D02*
X11699340Y-13028042D01*
X11868050Y-12948992D02*
X11898050Y-12978992D01*
X11898050Y-12948992D02*
X11868050Y-12978992D01*
X11922296Y-12899942D02*
X11952296Y-12929942D01*
X11952296Y-12899942D02*
X11922296Y-12929942D01*
X11972022Y-9344646D02*
X12002022Y-9374646D01*
X12002022Y-9344646D02*
X11972022Y-9374646D01*
X12053810Y-12409440D02*
X12083810Y-12439440D01*
X12083810Y-12409440D02*
X12053810Y-12439440D01*
X12118974Y-12556590D02*
X12148974Y-12586590D01*
X12148974Y-12556590D02*
X12118974Y-12586590D01*
X12159728Y-10863820D02*
X12189728Y-10893820D01*
X12189728Y-10863820D02*
X12159728Y-10893820D01*
X12182080Y-12360390D02*
X12212080Y-12390390D01*
X12212080Y-12360390D02*
X12182080Y-12390390D01*
X12285458Y-9936720D02*
X12315458Y-9966720D01*
X12315458Y-9936720D02*
X12285458Y-9966720D01*
X12374104Y-10814770D02*
X12404104Y-10844770D01*
X12404104Y-10814770D02*
X12374104Y-10844770D01*
X12639758Y-12850892D02*
X12669758Y-12880892D01*
X12669758Y-12850892D02*
X12639758Y-12880892D01*
X12794276Y-12703740D02*
X12824276Y-12733740D01*
X12824276Y-12703740D02*
X12794276Y-12733740D01*
X12895566Y-12801840D02*
X12925566Y-12831840D01*
X12925566Y-12801840D02*
X12895566Y-12831840D01*
X12916902Y-9887332D02*
X12946902Y-9917332D01*
X12946902Y-9887332D02*
X12916902Y-9917332D01*
X13379410Y-12311340D02*
X13409410Y-12341340D01*
X13409410Y-12311340D02*
X13379410Y-12341340D01*
X13429474Y-10198340D02*
X13459474Y-10228340D01*
X13459474Y-10198340D02*
X13429474Y-10228340D01*
X13429672Y-12703740D02*
X13459672Y-12733740D01*
X13459672Y-12703740D02*
X13429672Y-12733740D01*
X13485354Y-10453102D02*
X13515354Y-10483102D01*
X13515354Y-10453102D02*
X13485354Y-10483102D01*
X13485382Y-12752790D02*
X13515382Y-12782790D01*
X13515382Y-12752790D02*
X13485382Y-12782790D01*
X13534376Y-10706848D02*
X13564376Y-10736848D01*
X13564376Y-10706848D02*
X13534376Y-10736848D01*
X13534406Y-12409440D02*
X13564406Y-12439440D01*
X13564406Y-12409440D02*
X13534406Y-12439440D01*
X13569174Y-9561562D02*
X13599174Y-9591562D01*
X13599174Y-9561562D02*
X13569174Y-9591562D01*
X13569174Y-10324324D02*
X13599174Y-10354324D01*
X13599174Y-10324324D02*
X13569174Y-10354324D01*
X13618762Y-12458490D02*
X13648762Y-12488490D01*
X13648762Y-12458490D02*
X13618762Y-12488490D01*
X13805140Y-9362680D02*
X13835140Y-9392680D01*
X13835140Y-9362680D02*
X13805140Y-9392680D01*
X13805246Y-10266814D02*
X13835246Y-10296814D01*
X13835246Y-10266814D02*
X13805246Y-10296814D01*
X14024510Y-12948992D02*
X14054510Y-12978992D01*
X14054510Y-12948992D02*
X14024510Y-12978992D01*
X14114370Y-13047092D02*
X14144370Y-13077092D01*
X14144370Y-13047092D02*
X14114370Y-13077092D01*
X14257260Y-9512512D02*
X14287260Y-9542512D01*
X14287260Y-9512512D02*
X14257260Y-9542512D01*
X14278286Y-13145192D02*
X14308286Y-13175192D01*
X14308286Y-13145192D02*
X14278286Y-13175192D01*
X14294852Y-10646396D02*
X14324852Y-10676396D01*
X14324852Y-10646396D02*
X14294852Y-10676396D01*
X14368512Y-13243292D02*
X14398512Y-13273292D01*
X14398512Y-13243292D02*
X14368512Y-13273292D01*
X14406330Y-9610612D02*
X14436330Y-9640612D01*
X14436330Y-9610612D02*
X14406330Y-9640612D01*
X14419282Y-12850892D02*
X14449282Y-12880892D01*
X14449282Y-12850892D02*
X14419282Y-12880892D01*
X14455380Y-10035780D02*
X14485380Y-10065780D01*
X14485380Y-10035780D02*
X14455380Y-10065780D01*
X14582380Y-9985432D02*
X14612380Y-10015432D01*
X14612380Y-9985432D02*
X14582380Y-10015432D01*
X14622512Y-12801840D02*
X14652512Y-12831840D01*
X14652512Y-12801840D02*
X14622512Y-12831840D01*
X14786342Y-12311340D02*
X14816342Y-12341340D01*
X14816342Y-12311340D02*
X14786342Y-12341340D01*
X14876540Y-13194242D02*
X14906540Y-13224242D01*
X14906540Y-13194242D02*
X14876540Y-13224242D01*
X15040426Y-13096142D02*
X15070426Y-13126142D01*
X15070426Y-13096142D02*
X15040426Y-13126142D01*
X15101810Y-12703740D02*
X15131810Y-12733740D01*
X15131810Y-12703740D02*
X15101810Y-12733740D01*
X15155122Y-10814770D02*
X15185122Y-10844770D01*
X15185122Y-10814770D02*
X15155122Y-10844770D01*
X15155122Y-11468848D02*
X15185122Y-11498848D01*
X15185122Y-11468848D02*
X15155122Y-11498848D01*
X15167032Y-9985432D02*
X15197032Y-10015432D01*
X15197032Y-9985432D02*
X15167032Y-10015432D01*
X15167194Y-10289166D02*
X15197194Y-10319166D01*
X15197194Y-10289166D02*
X15167194Y-10319166D01*
X15167990Y-12998042D02*
X15197990Y-13028042D01*
X15197990Y-12998042D02*
X15167990Y-13028042D01*
X15224550Y-12458490D02*
X15254550Y-12488490D01*
X15254550Y-12458490D02*
X15224550Y-12488490D01*
X15231350Y-12752790D02*
X15261350Y-12782790D01*
X15261350Y-12752790D02*
X15231350Y-12782790D01*
X15293776Y-12899942D02*
X15323776Y-12929942D01*
X15323776Y-12899942D02*
X15293776Y-12929942D01*
X15355810Y-12801840D02*
X15385810Y-12831840D01*
X15385810Y-12801840D02*
X15355810Y-12831840D01*
X15409629Y-10083532D02*
X15439629Y-10113532D01*
X15439629Y-10083532D02*
X15409629Y-10113532D01*
X15460740Y-10145000D02*
X15490740Y-10175000D01*
X15490740Y-10145000D02*
X15460740Y-10175000D01*
X15461220Y-9610612D02*
X15491220Y-9640612D01*
X15491220Y-9610612D02*
X15461220Y-9640612D01*
X15480778Y-12850892D02*
X15510778Y-12880892D01*
X15510778Y-12850892D02*
X15480778Y-12880892D01*
X15514306Y-9048482D02*
X15544306Y-9078482D01*
X15544306Y-9048482D02*
X15514306Y-9078482D01*
X15548342Y-10194050D02*
X15578342Y-10224050D01*
X15578342Y-10194050D02*
X15548342Y-10224050D01*
X15609810Y-12899942D02*
X15639810Y-12929942D01*
X15639810Y-12899942D02*
X15609810Y-12929942D01*
X15672458Y-10034482D02*
X15702458Y-10064482D01*
X15702458Y-10034482D02*
X15672458Y-10064482D01*
X15733000Y-9512512D02*
X15763000Y-9542512D01*
X15763000Y-9512512D02*
X15733000Y-9542512D01*
X15734290Y-9985432D02*
X15764290Y-10015432D01*
X15764290Y-9985432D02*
X15734290Y-10015432D01*
X15736810Y-12948992D02*
X15766810Y-12978992D01*
X15766810Y-12948992D02*
X15736810Y-12978992D01*
X15837140Y-9936382D02*
X15867140Y-9966382D01*
X15867140Y-9936382D02*
X15837140Y-9966382D01*
X15864064Y-12998042D02*
X15894064Y-13028042D01*
X15894064Y-12998042D02*
X15864064Y-13028042D01*
X15886190Y-9329406D02*
X15916190Y-9359406D01*
X15916190Y-9329406D02*
X15886190Y-9359406D01*
X15886190Y-9420338D02*
X15916190Y-9450338D01*
X15916190Y-9420338D02*
X15886190Y-9450338D01*
X15886190Y-9512512D02*
X15916190Y-9542512D01*
X15916190Y-9512512D02*
X15886190Y-9542512D01*
X15935214Y-11177002D02*
X15965214Y-11207002D01*
X15965214Y-11177002D02*
X15935214Y-11207002D01*
X15935214Y-11303778D02*
X15965214Y-11333778D01*
X15965214Y-11303778D02*
X15935214Y-11333778D01*
X15951948Y-9142208D02*
X15981948Y-9172208D01*
X15981948Y-9142208D02*
X15951948Y-9172208D01*
X15984264Y-11097246D02*
X16014264Y-11127246D01*
X16014264Y-11097246D02*
X15984264Y-11127246D01*
X15984264Y-11368518D02*
X16014264Y-11398518D01*
X16014264Y-11368518D02*
X15984264Y-11398518D01*
X15992984Y-13047092D02*
X16022984Y-13077092D01*
X16022984Y-13047092D02*
X15992984Y-13077092D01*
X16027896Y-12360390D02*
X16057896Y-12390390D01*
X16057896Y-12360390D02*
X16027896Y-12390390D01*
X16033314Y-10616084D02*
X16063314Y-10646084D01*
X16063314Y-10616084D02*
X16033314Y-10646084D01*
X16033314Y-11017236D02*
X16063314Y-11047236D01*
X16063314Y-11017236D02*
X16033314Y-11047236D01*
X16059136Y-9143478D02*
X16089136Y-9173478D01*
X16089136Y-9143478D02*
X16059136Y-9173478D01*
X16082364Y-10288878D02*
X16112364Y-10318878D01*
X16112364Y-10288878D02*
X16082364Y-10318878D01*
X16082364Y-10777206D02*
X16112364Y-10807206D01*
X16112364Y-10777206D02*
X16082364Y-10807206D01*
X16107142Y-8435072D02*
X16137142Y-8465072D01*
X16137142Y-8435072D02*
X16107142Y-8465072D01*
X16117810Y-13096142D02*
X16147810Y-13126142D01*
X16147810Y-13096142D02*
X16117810Y-13126142D01*
X16131414Y-10352914D02*
X16161414Y-10382914D01*
X16161414Y-10352914D02*
X16131414Y-10382914D01*
X16131414Y-10545700D02*
X16161414Y-10575700D01*
X16161414Y-10545700D02*
X16131414Y-10575700D01*
X16133050Y-9461486D02*
X16163050Y-9491486D01*
X16163050Y-9461486D02*
X16133050Y-9491486D01*
X16169402Y-12850892D02*
X16199402Y-12880892D01*
X16199402Y-12850892D02*
X16169402Y-12880892D01*
X16180464Y-10637676D02*
X16210464Y-10667676D01*
X16210464Y-10637676D02*
X16180464Y-10667676D01*
X16218338Y-12703740D02*
X16248338Y-12733740D01*
X16248338Y-12703740D02*
X16218338Y-12733740D01*
X16229316Y-10492218D02*
X16259316Y-10522218D01*
X16259316Y-10492218D02*
X16229316Y-10522218D01*
X16237734Y-9147506D02*
X16267734Y-9177506D01*
X16267734Y-9147506D02*
X16237734Y-9177506D01*
X16237952Y-9561562D02*
X16267952Y-9591562D01*
X16267952Y-9561562D02*
X16237952Y-9591562D01*
X16242580Y-13145192D02*
X16272580Y-13175192D01*
X16272580Y-13145192D02*
X16242580Y-13175192D01*
X16278564Y-12752790D02*
X16308564Y-12782790D01*
X16308564Y-12752790D02*
X16278564Y-12782790D01*
X16278592Y-10697450D02*
X16308592Y-10727450D01*
X16308592Y-10697450D02*
X16278592Y-10727450D01*
X16303230Y-8832836D02*
X16333230Y-8862836D01*
X16333230Y-8832836D02*
X16303230Y-8862836D01*
X16327614Y-10857216D02*
X16357614Y-10887216D01*
X16357614Y-10857216D02*
X16327614Y-10887216D01*
X16327644Y-12409440D02*
X16357644Y-12439440D01*
X16357644Y-12409440D02*
X16327644Y-12439440D01*
X16366476Y-9373602D02*
X16396476Y-9403602D01*
X16396476Y-9373602D02*
X16366476Y-9403602D01*
X16367746Y-8435072D02*
X16397746Y-8465072D01*
X16397746Y-8435072D02*
X16367746Y-8465072D01*
X16372572Y-13194242D02*
X16402572Y-13224242D01*
X16402572Y-13194242D02*
X16372572Y-13224242D01*
X16495762Y-9163290D02*
X16525762Y-9193290D01*
X16525762Y-9163290D02*
X16495762Y-9193290D01*
X16495762Y-9885158D02*
X16525762Y-9915158D01*
X16525762Y-9885158D02*
X16495762Y-9915158D01*
X16499572Y-13243292D02*
X16529572Y-13273292D01*
X16529572Y-13243292D02*
X16499572Y-13273292D01*
X16535894Y-12311340D02*
X16565894Y-12341340D01*
X16565894Y-12311340D02*
X16535894Y-12341340D01*
X16564088Y-8436342D02*
X16594088Y-8466342D01*
X16594088Y-8436342D02*
X16564088Y-8466342D01*
X16564088Y-9201136D02*
X16594088Y-9231136D01*
X16594088Y-9201136D02*
X16564088Y-9231136D01*
X16619413Y-9980865D02*
X16649413Y-10010865D01*
X16649413Y-9980865D02*
X16619413Y-10010865D01*
X16619460Y-11177002D02*
X16649460Y-11207002D01*
X16649460Y-11177002D02*
X16619460Y-11207002D01*
X16668510Y-8760036D02*
X16698510Y-8790036D01*
X16698510Y-8760036D02*
X16668510Y-8790036D01*
X16668510Y-10034482D02*
X16698510Y-10064482D01*
X16698510Y-10034482D02*
X16668510Y-10064482D01*
X16668510Y-11097246D02*
X16698510Y-11127246D01*
X16698510Y-11097246D02*
X16668510Y-11127246D01*
X16689564Y-11845022D02*
X16719564Y-11875022D01*
X16719564Y-11845022D02*
X16689564Y-11875022D01*
X16689650Y-12948992D02*
X16719650Y-12978992D01*
X16719650Y-12948992D02*
X16689650Y-12978992D01*
X16710696Y-11497246D02*
X16740696Y-11527246D01*
X16740696Y-11497246D02*
X16710696Y-11527246D01*
X16715472Y-8703550D02*
X16745472Y-8733550D01*
X16745472Y-8703550D02*
X16715472Y-8733550D01*
X16717560Y-10144802D02*
X16747560Y-10174802D01*
X16747560Y-10144802D02*
X16717560Y-10174802D01*
X16717560Y-11017236D02*
X16747560Y-11047236D01*
X16747560Y-11017236D02*
X16717560Y-11047236D01*
X16755604Y-8068296D02*
X16785604Y-8098296D01*
X16785604Y-8068296D02*
X16755604Y-8098296D01*
X16766610Y-10082600D02*
X16796610Y-10112600D01*
X16796610Y-10082600D02*
X16766610Y-10112600D01*
X16766610Y-10937226D02*
X16796610Y-10967226D01*
X16796610Y-10937226D02*
X16766610Y-10967226D01*
X16769574Y-11844514D02*
X16799574Y-11874514D01*
X16799574Y-11844514D02*
X16769574Y-11874514D01*
X16769686Y-13047092D02*
X16799686Y-13077092D01*
X16799686Y-13047092D02*
X16769686Y-13077092D01*
X16815660Y-10194672D02*
X16845660Y-10224672D01*
X16845660Y-10194672D02*
X16815660Y-10224672D01*
X16815660Y-10697196D02*
X16845660Y-10727196D01*
X16845660Y-10697196D02*
X16815660Y-10727196D01*
X16849584Y-11844514D02*
X16879584Y-11874514D01*
X16879584Y-11844514D02*
X16849584Y-11874514D01*
X16849640Y-13145192D02*
X16879640Y-13175192D01*
X16879640Y-13145192D02*
X16849640Y-13175192D01*
X16899876Y-11497550D02*
X16929876Y-11527550D01*
X16929876Y-11497550D02*
X16899876Y-11527550D01*
X16927308Y-13243292D02*
X16957308Y-13273292D01*
X16957308Y-13243292D02*
X16927308Y-13273292D01*
X16929594Y-11842482D02*
X16959594Y-11872482D01*
X16959594Y-11842482D02*
X16929594Y-11872482D01*
X16980140Y-8943580D02*
X17010140Y-8973580D01*
X17010140Y-8943580D02*
X16980140Y-8973580D01*
X17009604Y-10626838D02*
X17039604Y-10656838D01*
X17039604Y-10626838D02*
X17009604Y-10656838D01*
X17009858Y-12801840D02*
X17039858Y-12831840D01*
X17039858Y-12801840D02*
X17009858Y-12831840D01*
X17034496Y-8402560D02*
X17064496Y-8432560D01*
X17064496Y-8402560D02*
X17034496Y-8432560D01*
X17169624Y-11847054D02*
X17199624Y-11877054D01*
X17199624Y-11847054D02*
X17169624Y-11877054D01*
X17169650Y-12311340D02*
X17199650Y-12341340D01*
X17199650Y-12311340D02*
X17169650Y-12341340D01*
X17249606Y-13194242D02*
X17279606Y-13224242D01*
X17279606Y-13194242D02*
X17249606Y-13224242D01*
X17249634Y-11848832D02*
X17279634Y-11878832D01*
X17279634Y-11848832D02*
X17249634Y-11878832D01*
X17329560Y-13096142D02*
X17359560Y-13126142D01*
X17359560Y-13096142D02*
X17329560Y-13126142D01*
X17329644Y-11847562D02*
X17359644Y-11877562D01*
X17359644Y-11847562D02*
X17329644Y-11877562D01*
X17409654Y-11845022D02*
X17439654Y-11875022D01*
X17439654Y-11845022D02*
X17409654Y-11875022D01*
X17409768Y-12998042D02*
X17439768Y-13028042D01*
X17439768Y-12998042D02*
X17409768Y-13028042D01*
X17489606Y-12899942D02*
X17519606Y-12929942D01*
X17519606Y-12899942D02*
X17489606Y-12929942D01*
X17489664Y-11846038D02*
X17519664Y-11876038D01*
X17519664Y-11846038D02*
X17489664Y-11876038D01*
X17550696Y-8203606D02*
X17580696Y-8233606D01*
X17580696Y-8203606D02*
X17550696Y-8233606D01*
X17561728Y-9083606D02*
X17591728Y-9113606D01*
X17591728Y-9083606D02*
X17561728Y-9113606D01*
X17563070Y-10777206D02*
X17593070Y-10807206D01*
X17593070Y-10777206D02*
X17563070Y-10807206D01*
X17563266Y-12458490D02*
X17593266Y-12488490D01*
X17593266Y-12458490D02*
X17563266Y-12488490D01*
X17834512Y-12654690D02*
X17864512Y-12684690D01*
X17864512Y-12654690D02*
X17834512Y-12684690D01*
X17835104Y-10697196D02*
X17865104Y-10727196D01*
X17865104Y-10697196D02*
X17835104Y-10727196D01*
X12954964Y-8424418D02*
G75*
G03*
X12954964Y-8424418I-35000J0D01*
G01*
X13297356Y-10719816D02*
G75*
G03*
X13297356Y-10719816I-35000J0D01*
G01*
X13297356Y-11227816D02*
G75*
G03*
X13297356Y-11227816I-35000J0D01*
G01*
X13462964Y-8424418D02*
G75*
G03*
X13462964Y-8424418I-35000J0D01*
G01*
X13620698Y-8856472D02*
G75*
G03*
X13620698Y-8856472I-35000J0D01*
G01*
X13620698Y-9364472D02*
G75*
G03*
X13620698Y-9364472I-35000J0D01*
G01*
X13023088Y-9584020D02*
X13023088Y-9659020D01*
X12985588Y-9621520D02*
X13060588Y-9621520D01*
X13026644Y-8945210D02*
X13026644Y-9020210D01*
X12989144Y-8982710D02*
X13064144Y-8982710D01*
X13150088Y-9457020D02*
X13150088Y-9532020D01*
X13112588Y-9494520D02*
X13187588Y-9494520D01*
X13153644Y-8818210D02*
X13153644Y-8893210D01*
X13116144Y-8855710D02*
X13191144Y-8855710D01*
X13277088Y-9584020D02*
X13277088Y-9659020D01*
X13239588Y-9621520D02*
X13314588Y-9621520D01*
X13280644Y-8945210D02*
X13280644Y-9020210D01*
X13243144Y-8982710D02*
X13318144Y-8982710D01*
X8377772Y-8750137D02*
X8377772Y-8693568D01*
X8321203Y-8693568D01*
X8321203Y-8750137D01*
X8377772Y-8750137D01*
X8377772Y-9000137D02*
X8377772Y-8943568D01*
X8321203Y-8943568D01*
X8321203Y-9000137D01*
X8377772Y-9000137D01*
X8649807Y-8750645D02*
X8649807Y-8694076D01*
X8593238Y-8694076D01*
X8593238Y-8750645D01*
X8649807Y-8750645D01*
X8649807Y-9004645D02*
X8649807Y-8948076D01*
X8593238Y-8948076D01*
X8593238Y-9004645D01*
X8649807Y-9004645D01*
X8649807Y-9258645D02*
X8649807Y-9202076D01*
X8593238Y-9202076D01*
X8593238Y-9258645D01*
X8649807Y-9258645D01*
X8649807Y-9512645D02*
X8649807Y-9456076D01*
X8593238Y-9456076D01*
X8593238Y-9512645D01*
X8649807Y-9512645D01*
X8649807Y-9766645D02*
X8649807Y-9710076D01*
X8593238Y-9710076D01*
X8593238Y-9766645D01*
X8649807Y-9766645D01*
X8649807Y-10020645D02*
X8649807Y-9964076D01*
X8593238Y-9964076D01*
X8593238Y-10020645D01*
X8649807Y-10020645D01*
X8649807Y-10274645D02*
X8649807Y-10218076D01*
X8593238Y-10218076D01*
X8593238Y-10274645D01*
X8649807Y-10274645D01*
X8649807Y-10528645D02*
X8649807Y-10472076D01*
X8593238Y-10472076D01*
X8593238Y-10528645D01*
X8649807Y-10528645D01*
X8649807Y-10782645D02*
X8649807Y-10726076D01*
X8593238Y-10726076D01*
X8593238Y-10782645D01*
X8649807Y-10782645D01*
X8649807Y-11036645D02*
X8649807Y-10980076D01*
X8593238Y-10980076D01*
X8593238Y-11036645D01*
X8649807Y-11036645D01*
X8649807Y-11290644D02*
X8649807Y-11234075D01*
X8593238Y-11234075D01*
X8593238Y-11290644D01*
X8649807Y-11290644D01*
X8649807Y-11544644D02*
X8649807Y-11488075D01*
X8593238Y-11488075D01*
X8593238Y-11544644D01*
X8649807Y-11544644D01*
X8649807Y-11798644D02*
X8649807Y-11742075D01*
X8593238Y-11742075D01*
X8593238Y-11798644D01*
X8649807Y-11798644D01*
X8649807Y-12052644D02*
X8649807Y-11996075D01*
X8593238Y-11996075D01*
X8593238Y-12052644D01*
X8649807Y-12052644D01*
X10173807Y-8750645D02*
X10173807Y-8694076D01*
X10117238Y-8694076D01*
X10117238Y-8750645D01*
X10173807Y-8750645D01*
X10173807Y-9004645D02*
X10173807Y-8948076D01*
X10117238Y-8948076D01*
X10117238Y-9004645D01*
X10173807Y-9004645D01*
X10173807Y-9258645D02*
X10173807Y-9202076D01*
X10117238Y-9202076D01*
X10117238Y-9258645D01*
X10173807Y-9258645D01*
X10173807Y-9512645D02*
X10173807Y-9456076D01*
X10117238Y-9456076D01*
X10117238Y-9512645D01*
X10173807Y-9512645D01*
X10173807Y-9766645D02*
X10173807Y-9710076D01*
X10117238Y-9710076D01*
X10117238Y-9766645D01*
X10173807Y-9766645D01*
X10173807Y-10020645D02*
X10173807Y-9964076D01*
X10117238Y-9964076D01*
X10117238Y-10020645D01*
X10173807Y-10020645D01*
X10173807Y-10274645D02*
X10173807Y-10218076D01*
X10117238Y-10218076D01*
X10117238Y-10274645D01*
X10173807Y-10274645D01*
X10173807Y-10528645D02*
X10173807Y-10472076D01*
X10117238Y-10472076D01*
X10117238Y-10528645D01*
X10173807Y-10528645D01*
X10173807Y-10782645D02*
X10173807Y-10726076D01*
X10117238Y-10726076D01*
X10117238Y-10782645D01*
X10173807Y-10782645D01*
X10173807Y-11036645D02*
X10173807Y-10980076D01*
X10117238Y-10980076D01*
X10117238Y-11036645D01*
X10173807Y-11036645D01*
X10173807Y-11290644D02*
X10173807Y-11234075D01*
X10117238Y-11234075D01*
X10117238Y-11290644D01*
X10173807Y-11290644D01*
X10173807Y-11544644D02*
X10173807Y-11488075D01*
X10117238Y-11488075D01*
X10117238Y-11544644D01*
X10173807Y-11544644D01*
X10173807Y-11798644D02*
X10173807Y-11742075D01*
X10117238Y-11742075D01*
X10117238Y-11798644D01*
X10173807Y-11798644D01*
X10173807Y-12052644D02*
X10173807Y-11996075D01*
X10117238Y-11996075D01*
X10117238Y-12052644D01*
X10173807Y-12052644D01*
X10908629Y-8193876D02*
X10908629Y-8137307D01*
X10852060Y-8137307D01*
X10852060Y-8193876D01*
X10908629Y-8193876D01*
X10908883Y-8584783D02*
X10908883Y-8528214D01*
X10852314Y-8528214D01*
X10852314Y-8584783D01*
X10908883Y-8584783D01*
X10908883Y-8584783D02*
X10908883Y-8528214D01*
X10852314Y-8528214D01*
X10852314Y-8584783D01*
X10908883Y-8584783D01*
X10908883Y-9346783D02*
X10908883Y-9290214D01*
X10852314Y-9290214D01*
X10852314Y-9346783D01*
X10908883Y-9346783D01*
X10908883Y-9346783D02*
X10908883Y-9290214D01*
X10852314Y-9290214D01*
X10852314Y-9346783D01*
X10908883Y-9346783D01*
X11058743Y-10492979D02*
X11058743Y-10436410D01*
X11002174Y-10436410D01*
X11002174Y-10492979D01*
X11058743Y-10492979D01*
X11058743Y-10746979D02*
X11058743Y-10690410D01*
X11002174Y-10690410D01*
X11002174Y-10746979D01*
X11058743Y-10746979D01*
X11058743Y-11000979D02*
X11058743Y-10944410D01*
X11002174Y-10944410D01*
X11002174Y-11000979D01*
X11058743Y-11000979D01*
X11058743Y-11254978D02*
X11058743Y-11198409D01*
X11002174Y-11198409D01*
X11002174Y-11254978D01*
X11058743Y-11254978D01*
X11058743Y-11508978D02*
X11058743Y-11452409D01*
X11002174Y-11452409D01*
X11002174Y-11508978D01*
X11058743Y-11508978D01*
X11058743Y-11762978D02*
X11058743Y-11706409D01*
X11002174Y-11706409D01*
X11002174Y-11762978D01*
X11058743Y-11762978D01*
X11158629Y-8193876D02*
X11158629Y-8137307D01*
X11102060Y-8137307D01*
X11102060Y-8193876D01*
X11158629Y-8193876D01*
X11312742Y-10238979D02*
X11312742Y-10182410D01*
X11256173Y-10182410D01*
X11256173Y-10238979D01*
X11312742Y-10238979D01*
X11312742Y-10492979D02*
X11312742Y-10436410D01*
X11256173Y-10436410D01*
X11256173Y-10492979D01*
X11312742Y-10492979D01*
X11312742Y-10746979D02*
X11312742Y-10690410D01*
X11256173Y-10690410D01*
X11256173Y-10746979D01*
X11312742Y-10746979D01*
X11312742Y-11000979D02*
X11312742Y-10944410D01*
X11256173Y-10944410D01*
X11256173Y-11000979D01*
X11312742Y-11000979D01*
X11312742Y-11254978D02*
X11312742Y-11198409D01*
X11256173Y-11198409D01*
X11256173Y-11254978D01*
X11312742Y-11254978D01*
X11312742Y-11508978D02*
X11312742Y-11452409D01*
X11256173Y-11452409D01*
X11256173Y-11508978D01*
X11312742Y-11508978D01*
X11312742Y-11762978D02*
X11312742Y-11706409D01*
X11256173Y-11706409D01*
X11256173Y-11762978D01*
X11312742Y-11762978D01*
X11312742Y-12016978D02*
X11312742Y-11960409D01*
X11256173Y-11960409D01*
X11256173Y-12016978D01*
X11312742Y-12016978D01*
X11566742Y-10238979D02*
X11566742Y-10182410D01*
X11510173Y-10182410D01*
X11510173Y-10238979D01*
X11566742Y-10238979D01*
X11566742Y-10492979D02*
X11566742Y-10436410D01*
X11510173Y-10436410D01*
X11510173Y-10492979D01*
X11566742Y-10492979D01*
X11566742Y-11762978D02*
X11566742Y-11706409D01*
X11510173Y-11706409D01*
X11510173Y-11762978D01*
X11566742Y-11762978D01*
X11566742Y-12016978D02*
X11566742Y-11960409D01*
X11510173Y-11960409D01*
X11510173Y-12016978D01*
X11566742Y-12016978D01*
X11670882Y-8584783D02*
X11670882Y-8528214D01*
X11614313Y-8528214D01*
X11614313Y-8584783D01*
X11670882Y-8584783D01*
X11670882Y-9346783D02*
X11670882Y-9290214D01*
X11614313Y-9290214D01*
X11614313Y-9346783D01*
X11670882Y-9346783D01*
X11820742Y-10238979D02*
X11820742Y-10182410D01*
X11764173Y-10182410D01*
X11764173Y-10238979D01*
X11820742Y-10238979D01*
X11820742Y-10492979D02*
X11820742Y-10436410D01*
X11764173Y-10436410D01*
X11764173Y-10492979D01*
X11820742Y-10492979D01*
X11820742Y-11762978D02*
X11820742Y-11706409D01*
X11764173Y-11706409D01*
X11764173Y-11762978D01*
X11820742Y-11762978D01*
X11820742Y-12016978D02*
X11820742Y-11960409D01*
X11764173Y-11960409D01*
X11764173Y-12016978D01*
X11820742Y-12016978D01*
X12074742Y-10238979D02*
X12074742Y-10182410D01*
X12018173Y-10182410D01*
X12018173Y-10238979D01*
X12074742Y-10238979D01*
X12074742Y-10492979D02*
X12074742Y-10436410D01*
X12018173Y-10436410D01*
X12018173Y-10492979D01*
X12074742Y-10492979D01*
X12074742Y-11762978D02*
X12074742Y-11706409D01*
X12018173Y-11706409D01*
X12018173Y-11762978D01*
X12074742Y-11762978D01*
X12074742Y-12016978D02*
X12074742Y-11960409D01*
X12018173Y-11960409D01*
X12018173Y-12016978D01*
X12074742Y-12016978D01*
X12075250Y-9782393D02*
X12075250Y-9725824D01*
X12018681Y-9725824D01*
X12018681Y-9782393D01*
X12075250Y-9782393D01*
X12325250Y-9782393D02*
X12325250Y-9725824D01*
X12268681Y-9725824D01*
X12268681Y-9782393D01*
X12325250Y-9782393D01*
X12328742Y-10238979D02*
X12328742Y-10182410D01*
X12272173Y-10182410D01*
X12272173Y-10238979D01*
X12328742Y-10238979D01*
X12328742Y-10492979D02*
X12328742Y-10436410D01*
X12272173Y-10436410D01*
X12272173Y-10492979D01*
X12328742Y-10492979D01*
X12328742Y-11762978D02*
X12328742Y-11706409D01*
X12272173Y-11706409D01*
X12272173Y-11762978D01*
X12328742Y-11762978D01*
X12328742Y-12016978D02*
X12328742Y-11960409D01*
X12272173Y-11960409D01*
X12272173Y-12016978D01*
X12328742Y-12016978D01*
X12432882Y-8584783D02*
X12432882Y-8528214D01*
X12376313Y-8528214D01*
X12376313Y-8584783D01*
X12432882Y-8584783D01*
X12432882Y-9346783D02*
X12432882Y-9290214D01*
X12376313Y-9290214D01*
X12376313Y-9346783D01*
X12432882Y-9346783D01*
X12582742Y-10238979D02*
X12582742Y-10182410D01*
X12526173Y-10182410D01*
X12526173Y-10238979D01*
X12582742Y-10238979D01*
X12582742Y-10492979D02*
X12582742Y-10436410D01*
X12526173Y-10436410D01*
X12526173Y-10492979D01*
X12582742Y-10492979D01*
X12582742Y-10746979D02*
X12582742Y-10690410D01*
X12526173Y-10690410D01*
X12526173Y-10746979D01*
X12582742Y-10746979D01*
X12582742Y-11000979D02*
X12582742Y-10944410D01*
X12526173Y-10944410D01*
X12526173Y-11000979D01*
X12582742Y-11000979D01*
X12582742Y-11254978D02*
X12582742Y-11198409D01*
X12526173Y-11198409D01*
X12526173Y-11254978D01*
X12582742Y-11254978D01*
X12582742Y-11508978D02*
X12582742Y-11452409D01*
X12526173Y-11452409D01*
X12526173Y-11508978D01*
X12582742Y-11508978D01*
X12582742Y-11762978D02*
X12582742Y-11706409D01*
X12526173Y-11706409D01*
X12526173Y-11762978D01*
X12582742Y-11762978D01*
X12582742Y-12016978D02*
X12582742Y-11960409D01*
X12526173Y-11960409D01*
X12526173Y-12016978D01*
X12582742Y-12016978D01*
X12836742Y-10492979D02*
X12836742Y-10436410D01*
X12780173Y-10436410D01*
X12780173Y-10492979D01*
X12836742Y-10492979D01*
X12836742Y-10746979D02*
X12836742Y-10690410D01*
X12780173Y-10690410D01*
X12780173Y-10746979D01*
X12836742Y-10746979D01*
X12836742Y-11000979D02*
X12836742Y-10944410D01*
X12780173Y-10944410D01*
X12780173Y-11000979D01*
X12836742Y-11000979D01*
X12836742Y-11254978D02*
X12836742Y-11198409D01*
X12780173Y-11198409D01*
X12780173Y-11254978D01*
X12836742Y-11254978D01*
X12836742Y-11508978D02*
X12836742Y-11452409D01*
X12780173Y-11452409D01*
X12780173Y-11508978D01*
X12836742Y-11508978D01*
X12836742Y-11762978D02*
X12836742Y-11706409D01*
X12780173Y-11706409D01*
X12780173Y-11762978D01*
X12836742Y-11762978D01*
X13813626Y-10496281D02*
X13813626Y-10439712D01*
X13757057Y-10439712D01*
X13757057Y-10496281D01*
X13813626Y-10496281D01*
X13813626Y-10750281D02*
X13813626Y-10693712D01*
X13757057Y-10693712D01*
X13757057Y-10750281D01*
X13813626Y-10750281D01*
X13813626Y-11004281D02*
X13813626Y-10947712D01*
X13757057Y-10947712D01*
X13757057Y-11004281D01*
X13813626Y-11004281D01*
X13813626Y-11258280D02*
X13813626Y-11201711D01*
X13757057Y-11201711D01*
X13757057Y-11258280D01*
X13813626Y-11258280D01*
X13813626Y-11512280D02*
X13813626Y-11455711D01*
X13757057Y-11455711D01*
X13757057Y-11512280D01*
X13813626Y-11512280D01*
X13813626Y-11766280D02*
X13813626Y-11709711D01*
X13757057Y-11709711D01*
X13757057Y-11766280D01*
X13813626Y-11766280D01*
X14067626Y-10242281D02*
X14067626Y-10185712D01*
X14011057Y-10185712D01*
X14011057Y-10242281D01*
X14067626Y-10242281D01*
X14067626Y-10496281D02*
X14067626Y-10439712D01*
X14011057Y-10439712D01*
X14011057Y-10496281D01*
X14067626Y-10496281D01*
X14067626Y-10750281D02*
X14067626Y-10693712D01*
X14011057Y-10693712D01*
X14011057Y-10750281D01*
X14067626Y-10750281D01*
X14067626Y-11004281D02*
X14067626Y-10947712D01*
X14011057Y-10947712D01*
X14011057Y-11004281D01*
X14067626Y-11004281D01*
X14067626Y-11258280D02*
X14067626Y-11201711D01*
X14011057Y-11201711D01*
X14011057Y-11258280D01*
X14067626Y-11258280D01*
X14067626Y-11512280D02*
X14067626Y-11455711D01*
X14011057Y-11455711D01*
X14011057Y-11512280D01*
X14067626Y-11512280D01*
X14067626Y-11766280D02*
X14067626Y-11709711D01*
X14011057Y-11709711D01*
X14011057Y-11766280D01*
X14067626Y-11766280D01*
X14067626Y-12020280D02*
X14067626Y-11963711D01*
X14011057Y-11963711D01*
X14011057Y-12020280D01*
X14067626Y-12020280D01*
X14321626Y-10242281D02*
X14321626Y-10185712D01*
X14265057Y-10185712D01*
X14265057Y-10242281D01*
X14321626Y-10242281D01*
X14321626Y-10496281D02*
X14321626Y-10439712D01*
X14265057Y-10439712D01*
X14265057Y-10496281D01*
X14321626Y-10496281D01*
X14321626Y-11766280D02*
X14321626Y-11709711D01*
X14265057Y-11709711D01*
X14265057Y-11766280D01*
X14321626Y-11766280D01*
X14321626Y-12020280D02*
X14321626Y-11963711D01*
X14265057Y-11963711D01*
X14265057Y-12020280D01*
X14321626Y-12020280D01*
X14575626Y-10242281D02*
X14575626Y-10185712D01*
X14519057Y-10185712D01*
X14519057Y-10242281D01*
X14575626Y-10242281D01*
X14575626Y-10496281D02*
X14575626Y-10439712D01*
X14519057Y-10439712D01*
X14519057Y-10496281D01*
X14575626Y-10496281D01*
X14575626Y-11766280D02*
X14575626Y-11709711D01*
X14519057Y-11709711D01*
X14519057Y-11766280D01*
X14575626Y-11766280D01*
X14575626Y-12020280D02*
X14575626Y-11963711D01*
X14519057Y-11963711D01*
X14519057Y-12020280D01*
X14575626Y-12020280D01*
X14816418Y-9784171D02*
X14816418Y-9727602D01*
X14759849Y-9727602D01*
X14759849Y-9784171D01*
X14816418Y-9784171D01*
X14829626Y-10242281D02*
X14829626Y-10185712D01*
X14773057Y-10185712D01*
X14773057Y-10242281D01*
X14829626Y-10242281D01*
X14829626Y-10496281D02*
X14829626Y-10439712D01*
X14773057Y-10439712D01*
X14773057Y-10496281D01*
X14829626Y-10496281D01*
X14829626Y-11766280D02*
X14829626Y-11709711D01*
X14773057Y-11709711D01*
X14773057Y-11766280D01*
X14829626Y-11766280D01*
X14829626Y-12020280D02*
X14829626Y-11963711D01*
X14773057Y-11963711D01*
X14773057Y-12020280D01*
X14829626Y-12020280D01*
X15066418Y-9784171D02*
X15066418Y-9727602D01*
X15009849Y-9727602D01*
X15009849Y-9784171D01*
X15066418Y-9784171D01*
X15083626Y-10242281D02*
X15083626Y-10185712D01*
X15027057Y-10185712D01*
X15027057Y-10242281D01*
X15083626Y-10242281D01*
X15083626Y-10496281D02*
X15083626Y-10439712D01*
X15027057Y-10439712D01*
X15027057Y-10496281D01*
X15083626Y-10496281D01*
X15083626Y-11766280D02*
X15083626Y-11709711D01*
X15027057Y-11709711D01*
X15027057Y-11766280D01*
X15083626Y-11766280D01*
X15083626Y-12020280D02*
X15083626Y-11963711D01*
X15027057Y-11963711D01*
X15027057Y-12020280D01*
X15083626Y-12020280D01*
X15337626Y-10242281D02*
X15337626Y-10185712D01*
X15281057Y-10185712D01*
X15281057Y-10242281D01*
X15337626Y-10242281D01*
X15337626Y-10496281D02*
X15337626Y-10439712D01*
X15281057Y-10439712D01*
X15281057Y-10496281D01*
X15337626Y-10496281D01*
X15337626Y-10750281D02*
X15337626Y-10693712D01*
X15281057Y-10693712D01*
X15281057Y-10750281D01*
X15337626Y-10750281D01*
X15337626Y-11004281D02*
X15337626Y-10947712D01*
X15281057Y-10947712D01*
X15281057Y-11004281D01*
X15337626Y-11004281D01*
X15337626Y-11258280D02*
X15337626Y-11201711D01*
X15281057Y-11201711D01*
X15281057Y-11258280D01*
X15337626Y-11258280D01*
X15337626Y-11512280D02*
X15337626Y-11455711D01*
X15281057Y-11455711D01*
X15281057Y-11512280D01*
X15337626Y-11512280D01*
X15337626Y-11766280D02*
X15337626Y-11709711D01*
X15281057Y-11709711D01*
X15281057Y-11766280D01*
X15337626Y-11766280D01*
X15337626Y-12020280D02*
X15337626Y-11963711D01*
X15281057Y-11963711D01*
X15281057Y-12020280D01*
X15337626Y-12020280D01*
X15591626Y-10496281D02*
X15591626Y-10439712D01*
X15535057Y-10439712D01*
X15535057Y-10496281D01*
X15591626Y-10496281D01*
X15591626Y-10750281D02*
X15591626Y-10693712D01*
X15535057Y-10693712D01*
X15535057Y-10750281D01*
X15591626Y-10750281D01*
X15591626Y-11004281D02*
X15591626Y-10947712D01*
X15535057Y-10947712D01*
X15535057Y-11004281D01*
X15591626Y-11004281D01*
X15591626Y-11258280D02*
X15591626Y-11201711D01*
X15535057Y-11201711D01*
X15535057Y-11258280D01*
X15591626Y-11258280D01*
X15591626Y-11512280D02*
X15591626Y-11455711D01*
X15535057Y-11455711D01*
X15535057Y-11512280D01*
X15591626Y-11512280D01*
X15591626Y-11766280D02*
X15591626Y-11709711D01*
X15535057Y-11709711D01*
X15535057Y-11766280D01*
X15591626Y-11766280D01*
X17058985Y-10070365D02*
X17058985Y-10013796D01*
X17002416Y-10013796D01*
X17002416Y-10070365D01*
X17058985Y-10070365D01*
X17058985Y-10320365D02*
X17058985Y-10263796D01*
X17002416Y-10263796D01*
X17002416Y-10320365D01*
X17058985Y-10320365D01*
X17283457Y-10320873D02*
X17283457Y-10264304D01*
X17226888Y-10264304D01*
X17226888Y-10320873D01*
X17283457Y-10320873D01*
X17533457Y-10320873D02*
X17533457Y-10264304D01*
X17476888Y-10264304D01*
X17476888Y-10320873D01*
X17533457Y-10320873D01*
X9020830Y-13506920D02*
X9070830Y-13456920D01*
X9020830Y-13406920D01*
X8970830Y-13456920D01*
X9020830Y-13506920D01*
X9020830Y-13760920D02*
X9070830Y-13710920D01*
X9020830Y-13660920D01*
X8970830Y-13710920D01*
X9020830Y-13760920D01*
X9274830Y-13506920D02*
X9324830Y-13456920D01*
X9274830Y-13406920D01*
X9224830Y-13456920D01*
X9274830Y-13506920D01*
X9274830Y-13760920D02*
X9324830Y-13710920D01*
X9274830Y-13660920D01*
X9224830Y-13710920D01*
X9274830Y-13760920D01*
X9528830Y-13506920D02*
X9578830Y-13456920D01*
X9528830Y-13406920D01*
X9478830Y-13456920D01*
X9528830Y-13506920D01*
X9528830Y-13760920D02*
X9578830Y-13710920D01*
X9528830Y-13660920D01*
X9478830Y-13710920D01*
X9528830Y-13760920D01*
X9782830Y-13506920D02*
X9832830Y-13456920D01*
X9782830Y-13406920D01*
X9732830Y-13456920D01*
X9782830Y-13506920D01*
X9782830Y-13760920D02*
X9832830Y-13710920D01*
X9782830Y-13660920D01*
X9732830Y-13710920D01*
X9782830Y-13760920D01*
X10036830Y-13506920D02*
X10086830Y-13456920D01*
X10036830Y-13406920D01*
X9986830Y-13456920D01*
X10036830Y-13506920D01*
X10036830Y-13760920D02*
X10086830Y-13710920D01*
X10036830Y-13660920D01*
X9986830Y-13710920D01*
X10036830Y-13760920D01*
X10290830Y-13506920D02*
X10340830Y-13456920D01*
X10290830Y-13406920D01*
X10240830Y-13456920D01*
X10290830Y-13506920D01*
X10290830Y-13760920D02*
X10340830Y-13710920D01*
X10290830Y-13660920D01*
X10240830Y-13710920D01*
X10290830Y-13760920D01*
X10544830Y-13506920D02*
X10594830Y-13456920D01*
X10544830Y-13406920D01*
X10494830Y-13456920D01*
X10544830Y-13506920D01*
X10544830Y-13760920D02*
X10594830Y-13710920D01*
X10544830Y-13660920D01*
X10494830Y-13710920D01*
X10544830Y-13760920D01*
X10798830Y-13506920D02*
X10848830Y-13456920D01*
X10798830Y-13406920D01*
X10748830Y-13456920D01*
X10798830Y-13506920D01*
X10798830Y-13760920D02*
X10848830Y-13710920D01*
X10798830Y-13660920D01*
X10748830Y-13710920D01*
X10798830Y-13760920D01*
X11052830Y-13506920D02*
X11102830Y-13456920D01*
X11052830Y-13406920D01*
X11002830Y-13456920D01*
X11052830Y-13506920D01*
X11052830Y-13760920D02*
X11102830Y-13710920D01*
X11052830Y-13660920D01*
X11002830Y-13710920D01*
X11052830Y-13760920D01*
X11306830Y-13506920D02*
X11356830Y-13456920D01*
X11306830Y-13406920D01*
X11256830Y-13456920D01*
X11306830Y-13506920D01*
X11306830Y-13760920D02*
X11356830Y-13710920D01*
X11306830Y-13660920D01*
X11256830Y-13710920D01*
X11306830Y-13760920D01*
X11560830Y-13506920D02*
X11610830Y-13456920D01*
X11560830Y-13406920D01*
X11510830Y-13456920D01*
X11560830Y-13506920D01*
X11560830Y-13760920D02*
X11610830Y-13710920D01*
X11560830Y-13660920D01*
X11510830Y-13710920D01*
X11560830Y-13760920D01*
X11814830Y-13506920D02*
X11864830Y-13456920D01*
X11814830Y-13406920D01*
X11764830Y-13456920D01*
X11814830Y-13506920D01*
X11814830Y-13760920D02*
X11864830Y-13710920D01*
X11814830Y-13660920D01*
X11764830Y-13710920D01*
X11814830Y-13760920D01*
X12068830Y-13506920D02*
X12118830Y-13456920D01*
X12068830Y-13406920D01*
X12018830Y-13456920D01*
X12068830Y-13506920D01*
X12068830Y-13760920D02*
X12118830Y-13710920D01*
X12068830Y-13660920D01*
X12018830Y-13710920D01*
X12068830Y-13760920D01*
X12322830Y-13506920D02*
X12372830Y-13456920D01*
X12322830Y-13406920D01*
X12272830Y-13456920D01*
X12322830Y-13506920D01*
X12322830Y-13760920D02*
X12372830Y-13710920D01*
X12322830Y-13660920D01*
X12272830Y-13710920D01*
X12322830Y-13760920D01*
X12576830Y-13506920D02*
X12626830Y-13456920D01*
X12576830Y-13406920D01*
X12526830Y-13456920D01*
X12576830Y-13506920D01*
X12576830Y-13760920D02*
X12626830Y-13710920D01*
X12576830Y-13660920D01*
X12526830Y-13710920D01*
X12576830Y-13760920D01*
X12830830Y-13506920D02*
X12880830Y-13456920D01*
X12830830Y-13406920D01*
X12780830Y-13456920D01*
X12830830Y-13506920D01*
X12830830Y-13760920D02*
X12880830Y-13710920D01*
X12830830Y-13660920D01*
X12780830Y-13710920D01*
X12830830Y-13760920D01*
X13084830Y-13506920D02*
X13134830Y-13456920D01*
X13084830Y-13406920D01*
X13034830Y-13456920D01*
X13084830Y-13506920D01*
X13084830Y-13760920D02*
X13134830Y-13710920D01*
X13084830Y-13660920D01*
X13034830Y-13710920D01*
X13084830Y-13760920D01*
X13338830Y-13506920D02*
X13388830Y-13456920D01*
X13338830Y-13406920D01*
X13288830Y-13456920D01*
X13338830Y-13506920D01*
X13338830Y-13760920D02*
X13388830Y-13710920D01*
X13338830Y-13660920D01*
X13288830Y-13710920D01*
X13338830Y-13760920D01*
X13592830Y-13506920D02*
X13642830Y-13456920D01*
X13592830Y-13406920D01*
X13542830Y-13456920D01*
X13592830Y-13506920D01*
X13592830Y-13760920D02*
X13642830Y-13710920D01*
X13592830Y-13660920D01*
X13542830Y-13710920D01*
X13592830Y-13760920D01*
X13846830Y-13506920D02*
X13896830Y-13456920D01*
X13846830Y-13406920D01*
X13796830Y-13456920D01*
X13846830Y-13506920D01*
X13846830Y-13760920D02*
X13896830Y-13710920D01*
X13846830Y-13660920D01*
X13796830Y-13710920D01*
X13846830Y-13760920D01*
X14100830Y-13506920D02*
X14150830Y-13456920D01*
X14100830Y-13406920D01*
X14050830Y-13456920D01*
X14100830Y-13506920D01*
X14100830Y-13760920D02*
X14150830Y-13710920D01*
X14100830Y-13660920D01*
X14050830Y-13710920D01*
X14100830Y-13760920D01*
X14354830Y-13506920D02*
X14404830Y-13456920D01*
X14354830Y-13406920D01*
X14304830Y-13456920D01*
X14354830Y-13506920D01*
X14354830Y-13760920D02*
X14404830Y-13710920D01*
X14354830Y-13660920D01*
X14304830Y-13710920D01*
X14354830Y-13760920D01*
X14597380Y-8162760D02*
X14647380Y-8112760D01*
X14597380Y-8062760D01*
X14547380Y-8112760D01*
X14597380Y-8162760D01*
X14597380Y-8416760D02*
X14647380Y-8366760D01*
X14597380Y-8316760D01*
X14547380Y-8366760D01*
X14597380Y-8416760D01*
X14597380Y-8670760D02*
X14647380Y-8620760D01*
X14597380Y-8570760D01*
X14547380Y-8620760D01*
X14597380Y-8670760D01*
X14597380Y-8924760D02*
X14647380Y-8874760D01*
X14597380Y-8824760D01*
X14547380Y-8874760D01*
X14597380Y-8924760D01*
X14597380Y-9178760D02*
X14647380Y-9128760D01*
X14597380Y-9078760D01*
X14547380Y-9128760D01*
X14597380Y-9178760D01*
X14597380Y-9432760D02*
X14647380Y-9382760D01*
X14597380Y-9332760D01*
X14547380Y-9382760D01*
X14597380Y-9432760D01*
X14608830Y-13506920D02*
X14658830Y-13456920D01*
X14608830Y-13406920D01*
X14558830Y-13456920D01*
X14608830Y-13506920D01*
X14608830Y-13760920D02*
X14658830Y-13710920D01*
X14608830Y-13660920D01*
X14558830Y-13710920D01*
X14608830Y-13760920D01*
X14862830Y-13506920D02*
X14912830Y-13456920D01*
X14862830Y-13406920D01*
X14812830Y-13456920D01*
X14862830Y-13506920D01*
X14862830Y-13760920D02*
X14912830Y-13710920D01*
X14862830Y-13660920D01*
X14812830Y-13710920D01*
X14862830Y-13760920D01*
X15116830Y-13506920D02*
X15166830Y-13456920D01*
X15116830Y-13406920D01*
X15066830Y-13456920D01*
X15116830Y-13506920D01*
X15116830Y-13760920D02*
X15166830Y-13710920D01*
X15116830Y-13660920D01*
X15066830Y-13710920D01*
X15116830Y-13760920D01*
X15304770Y-8162252D02*
X15354770Y-8112252D01*
X15304770Y-8062252D01*
X15254770Y-8112252D01*
X15304770Y-8162252D01*
X15304770Y-8416252D02*
X15354770Y-8366252D01*
X15304770Y-8316252D01*
X15254770Y-8366252D01*
X15304770Y-8416252D01*
X15304770Y-8670252D02*
X15354770Y-8620252D01*
X15304770Y-8570252D01*
X15254770Y-8620252D01*
X15304770Y-8670252D01*
X15304770Y-8924252D02*
X15354770Y-8874252D01*
X15304770Y-8824252D01*
X15254770Y-8874252D01*
X15304770Y-8924252D01*
X15304770Y-9178252D02*
X15354770Y-9128252D01*
X15304770Y-9078252D01*
X15254770Y-9128252D01*
X15304770Y-9178252D01*
X15304770Y-9432252D02*
X15354770Y-9382252D01*
X15304770Y-9332252D01*
X15254770Y-9382252D01*
X15304770Y-9432252D01*
X15370830Y-13506920D02*
X15420830Y-13456920D01*
X15370830Y-13406920D01*
X15320830Y-13456920D01*
X15370830Y-13506920D01*
X15370830Y-13760920D02*
X15420830Y-13710920D01*
X15370830Y-13660920D01*
X15320830Y-13710920D01*
X15370830Y-13760920D01*
X15624830Y-13506920D02*
X15674830Y-13456920D01*
X15624830Y-13406920D01*
X15574830Y-13456920D01*
X15624830Y-13506920D01*
X15624830Y-13760920D02*
X15674830Y-13710920D01*
X15624830Y-13660920D01*
X15574830Y-13710920D01*
X15624830Y-13760920D01*
X15878830Y-13506920D02*
X15928830Y-13456920D01*
X15878830Y-13406920D01*
X15828830Y-13456920D01*
X15878830Y-13506920D01*
X15878830Y-13760920D02*
X15928830Y-13710920D01*
X15878830Y-13660920D01*
X15828830Y-13710920D01*
X15878830Y-13760920D01*
X16042894Y-12176722D02*
X16092894Y-12126722D01*
X16042894Y-12076722D01*
X15992894Y-12126722D01*
X16042894Y-12176722D01*
X16132830Y-13506920D02*
X16182830Y-13456920D01*
X16132830Y-13406920D01*
X16082830Y-13456920D01*
X16132830Y-13506920D01*
X16132830Y-13760920D02*
X16182830Y-13710920D01*
X16132830Y-13660920D01*
X16082830Y-13710920D01*
X16132830Y-13760920D01*
X16386830Y-13506920D02*
X16436830Y-13456920D01*
X16386830Y-13406920D01*
X16336830Y-13456920D01*
X16386830Y-13506920D01*
X16386830Y-13760920D02*
X16436830Y-13710920D01*
X16386830Y-13660920D01*
X16336830Y-13710920D01*
X16386830Y-13760920D01*
X16550894Y-12176722D02*
X16600894Y-12126722D01*
X16550894Y-12076722D01*
X16500894Y-12126722D01*
X16550894Y-12176722D01*
X16640830Y-13506920D02*
X16690830Y-13456920D01*
X16640830Y-13406920D01*
X16590830Y-13456920D01*
X16640830Y-13506920D01*
X16640830Y-13760920D02*
X16690830Y-13710920D01*
X16640830Y-13660920D01*
X16590830Y-13710920D01*
X16640830Y-13760920D01*
X16894830Y-13506920D02*
X16944830Y-13456920D01*
X16894830Y-13406920D01*
X16844830Y-13456920D01*
X16894830Y-13506920D01*
X16894830Y-13760920D02*
X16944830Y-13710920D01*
X16894830Y-13660920D01*
X16844830Y-13710920D01*
X16894830Y-13760920D01*
X17148830Y-13506920D02*
X17198830Y-13456920D01*
X17148830Y-13406920D01*
X17098830Y-13456920D01*
X17148830Y-13506920D01*
X17148830Y-13760920D02*
X17198830Y-13710920D01*
X17148830Y-13660920D01*
X17098830Y-13710920D01*
X17148830Y-13760920D01*
X17402830Y-13506920D02*
X17452830Y-13456920D01*
X17402830Y-13406920D01*
X17352830Y-13456920D01*
X17402830Y-13506920D01*
X17402830Y-13760920D02*
X17452830Y-13710920D01*
X17402830Y-13660920D01*
X17352830Y-13710920D01*
X17402830Y-13760920D01*
X17656830Y-13506920D02*
X17706830Y-13456920D01*
X17656830Y-13406920D01*
X17606830Y-13456920D01*
X17656830Y-13506920D01*
X17656830Y-13760920D02*
X17706830Y-13710920D01*
X17656830Y-13660920D01*
X17606830Y-13710920D01*
X17656830Y-13760920D01*
X17910830Y-13506920D02*
X17960830Y-13456920D01*
X17910830Y-13406920D01*
X17860830Y-13456920D01*
X17910830Y-13506920D01*
X17910830Y-13760920D02*
X17960830Y-13710920D01*
X17910830Y-13660920D01*
X17860830Y-13710920D01*
X17910830Y-13760920D01*
D12*
X8448758Y-14591904D02*
X8448758Y-14291904D01*
X8520187Y-14291904D01*
X8563044Y-14306190D01*
X8591616Y-14334761D01*
X8605901Y-14363333D01*
X8620187Y-14420476D01*
X8620187Y-14463333D01*
X8605901Y-14520476D01*
X8591616Y-14549047D01*
X8563044Y-14577619D01*
X8520187Y-14591904D01*
X8448758Y-14591904D01*
X8748758Y-14591904D02*
X8748758Y-14391904D01*
X8748758Y-14449047D02*
X8763044Y-14420476D01*
X8777330Y-14406190D01*
X8805901Y-14391904D01*
X8834473Y-14391904D01*
X8934473Y-14591904D02*
X8934473Y-14391904D01*
X8934473Y-14291904D02*
X8920187Y-14306190D01*
X8934473Y-14320476D01*
X8948758Y-14306190D01*
X8934473Y-14291904D01*
X8934473Y-14320476D01*
X9120187Y-14591904D02*
X9091616Y-14577619D01*
X9077330Y-14549047D01*
X9077330Y-14291904D01*
X9277330Y-14591904D02*
X9248758Y-14577619D01*
X9234473Y-14549047D01*
X9234473Y-14291904D01*
X9620187Y-14591904D02*
X9620187Y-14291904D01*
X9720187Y-14506190D01*
X9820187Y-14291904D01*
X9820187Y-14591904D01*
X10091616Y-14591904D02*
X10091616Y-14434761D01*
X10077330Y-14406190D01*
X10048758Y-14391904D01*
X9991616Y-14391904D01*
X9963044Y-14406190D01*
X10091616Y-14577619D02*
X10063044Y-14591904D01*
X9991616Y-14591904D01*
X9963044Y-14577619D01*
X9948758Y-14549047D01*
X9948758Y-14520476D01*
X9963044Y-14491904D01*
X9991616Y-14477619D01*
X10063044Y-14477619D01*
X10091616Y-14463333D01*
X10234473Y-14391904D02*
X10234473Y-14691904D01*
X10234473Y-14406190D02*
X10263044Y-14391904D01*
X10320187Y-14391904D01*
X10348758Y-14406190D01*
X10363044Y-14420476D01*
X10377330Y-14449047D01*
X10377330Y-14534761D01*
X10363044Y-14563333D01*
X10348758Y-14577619D01*
X10320187Y-14591904D01*
X10263044Y-14591904D01*
X10234473Y-14577619D01*
X10505901Y-14563333D02*
X10520187Y-14577619D01*
X10505901Y-14591904D01*
X10491616Y-14577619D01*
X10505901Y-14563333D01*
X10505901Y-14591904D01*
X10505901Y-14406190D02*
X10520187Y-14420476D01*
X10505901Y-14434761D01*
X10491616Y-14420476D01*
X10505901Y-14406190D01*
X10505901Y-14434761D01*
X8132330Y-15071190D02*
X8162330Y-15101190D01*
X8162330Y-15071190D02*
X8132330Y-15101190D01*
X8505901Y-14921904D02*
X8534473Y-14921904D01*
X8563044Y-14936190D01*
X8577330Y-14950476D01*
X8591616Y-14979047D01*
X8605901Y-15036190D01*
X8605901Y-15107619D01*
X8591616Y-15164761D01*
X8577330Y-15193333D01*
X8563044Y-15207619D01*
X8534473Y-15221904D01*
X8505901Y-15221904D01*
X8477330Y-15207619D01*
X8463044Y-15193333D01*
X8448758Y-15164761D01*
X8434473Y-15107619D01*
X8434473Y-15036190D01*
X8448758Y-14979047D01*
X8463044Y-14950476D01*
X8477330Y-14936190D01*
X8505901Y-14921904D01*
X8734473Y-15193333D02*
X8748758Y-15207619D01*
X8734473Y-15221904D01*
X8720187Y-15207619D01*
X8734473Y-15193333D01*
X8734473Y-15221904D01*
X8848758Y-14921904D02*
X9034473Y-14921904D01*
X8934473Y-15036190D01*
X8977330Y-15036190D01*
X9005901Y-15050476D01*
X9020187Y-15064761D01*
X9034473Y-15093333D01*
X9034473Y-15164761D01*
X9020187Y-15193333D01*
X9005901Y-15207619D01*
X8977330Y-15221904D01*
X8891616Y-15221904D01*
X8863044Y-15207619D01*
X8848758Y-15193333D01*
X9220187Y-14921904D02*
X9248758Y-14921904D01*
X9277330Y-14936190D01*
X9291616Y-14950476D01*
X9305901Y-14979047D01*
X9320187Y-15036190D01*
X9320187Y-15107619D01*
X9305901Y-15164761D01*
X9291616Y-15193333D01*
X9277330Y-15207619D01*
X9248758Y-15221904D01*
X9220187Y-15221904D01*
X9191616Y-15207619D01*
X9177330Y-15193333D01*
X9163044Y-15164761D01*
X9148758Y-15107619D01*
X9148758Y-15036190D01*
X9163044Y-14979047D01*
X9177330Y-14950476D01*
X9191616Y-14936190D01*
X9220187Y-14921904D01*
X9505901Y-14921904D02*
X9534473Y-14921904D01*
X9563044Y-14936190D01*
X9577330Y-14950476D01*
X9591616Y-14979047D01*
X9605901Y-15036190D01*
X9605901Y-15107619D01*
X9591616Y-15164761D01*
X9577330Y-15193333D01*
X9563044Y-15207619D01*
X9534473Y-15221904D01*
X9505901Y-15221904D01*
X9477330Y-15207619D01*
X9463044Y-15193333D01*
X9448758Y-15164761D01*
X9434473Y-15107619D01*
X9434473Y-15036190D01*
X9448758Y-14979047D01*
X9463044Y-14950476D01*
X9477330Y-14936190D01*
X9505901Y-14921904D01*
X9734473Y-15221904D02*
X9734473Y-15021904D01*
X9734473Y-15050476D02*
X9748758Y-15036190D01*
X9777330Y-15021904D01*
X9820187Y-15021904D01*
X9848758Y-15036190D01*
X9863044Y-15064761D01*
X9863044Y-15221904D01*
X9863044Y-15064761D02*
X9877330Y-15036190D01*
X9905901Y-15021904D01*
X9948758Y-15021904D01*
X9977330Y-15036190D01*
X9991616Y-15064761D01*
X9991616Y-15221904D01*
X10134473Y-15221904D02*
X10134473Y-15021904D01*
X10134473Y-15050476D02*
X10148758Y-15036190D01*
X10177330Y-15021904D01*
X10220187Y-15021904D01*
X10248758Y-15036190D01*
X10263044Y-15064761D01*
X10263044Y-15221904D01*
X10263044Y-15064761D02*
X10277330Y-15036190D01*
X10305901Y-15021904D01*
X10348758Y-15021904D01*
X10377330Y-15036190D01*
X10391616Y-15064761D01*
X10391616Y-15221904D01*
X10977330Y-14907619D02*
X10720187Y-15293333D01*
X11363044Y-14921904D02*
X11391616Y-14921904D01*
X11420187Y-14936190D01*
X11434473Y-14950476D01*
X11448758Y-14979047D01*
X11463044Y-15036190D01*
X11463044Y-15107619D01*
X11448758Y-15164761D01*
X11434473Y-15193333D01*
X11420187Y-15207619D01*
X11391616Y-15221904D01*
X11363044Y-15221904D01*
X11334473Y-15207619D01*
X11320187Y-15193333D01*
X11305901Y-15164761D01*
X11291616Y-15107619D01*
X11291616Y-15036190D01*
X11305901Y-14979047D01*
X11320187Y-14950476D01*
X11334473Y-14936190D01*
X11363044Y-14921904D01*
X11591616Y-15193333D02*
X11605901Y-15207619D01*
X11591616Y-15221904D01*
X11577330Y-15207619D01*
X11591616Y-15193333D01*
X11591616Y-15221904D01*
X11791616Y-14921904D02*
X11820187Y-14921904D01*
X11848758Y-14936190D01*
X11863044Y-14950476D01*
X11877330Y-14979047D01*
X11891616Y-15036190D01*
X11891616Y-15107619D01*
X11877330Y-15164761D01*
X11863044Y-15193333D01*
X11848758Y-15207619D01*
X11820187Y-15221904D01*
X11791616Y-15221904D01*
X11763044Y-15207619D01*
X11748758Y-15193333D01*
X11734473Y-15164761D01*
X11720187Y-15107619D01*
X11720187Y-15036190D01*
X11734473Y-14979047D01*
X11748758Y-14950476D01*
X11763044Y-14936190D01*
X11791616Y-14921904D01*
X12177330Y-15221904D02*
X12005901Y-15221904D01*
X12091616Y-15221904D02*
X12091616Y-14921904D01*
X12063044Y-14964761D01*
X12034473Y-14993333D01*
X12005901Y-15007619D01*
X12463044Y-15221904D02*
X12291616Y-15221904D01*
X12377330Y-15221904D02*
X12377330Y-14921904D01*
X12348758Y-14964761D01*
X12320187Y-14993333D01*
X12291616Y-15007619D01*
X12634473Y-15050476D02*
X12605901Y-15036190D01*
X12591616Y-15021904D01*
X12577330Y-14993333D01*
X12577330Y-14979047D01*
X12591616Y-14950476D01*
X12605901Y-14936190D01*
X12634473Y-14921904D01*
X12691616Y-14921904D01*
X12720187Y-14936190D01*
X12734473Y-14950476D01*
X12748758Y-14979047D01*
X12748758Y-14993333D01*
X12734473Y-15021904D01*
X12720187Y-15036190D01*
X12691616Y-15050476D01*
X12634473Y-15050476D01*
X12605901Y-15064761D01*
X12591616Y-15079047D01*
X12577330Y-15107619D01*
X12577330Y-15164761D01*
X12591616Y-15193333D01*
X12605901Y-15207619D01*
X12634473Y-15221904D01*
X12691616Y-15221904D01*
X12720187Y-15207619D01*
X12734473Y-15193333D01*
X12748758Y-15164761D01*
X12748758Y-15107619D01*
X12734473Y-15079047D01*
X12720187Y-15064761D01*
X12691616Y-15050476D01*
X12863044Y-14921904D02*
X12863044Y-14979047D01*
X12977330Y-14921904D02*
X12977330Y-14979047D01*
X13420187Y-15336190D02*
X13405901Y-15321904D01*
X13377330Y-15279047D01*
X13363044Y-15250476D01*
X13348758Y-15207619D01*
X13334473Y-15136190D01*
X13334473Y-15079047D01*
X13348758Y-15007619D01*
X13363044Y-14964761D01*
X13377330Y-14936190D01*
X13405901Y-14893333D01*
X13420187Y-14879047D01*
X13520187Y-14950476D02*
X13534473Y-14936190D01*
X13563044Y-14921904D01*
X13634473Y-14921904D01*
X13663044Y-14936190D01*
X13677330Y-14950476D01*
X13691616Y-14979047D01*
X13691616Y-15007619D01*
X13677330Y-15050476D01*
X13505901Y-15221904D01*
X13691616Y-15221904D01*
X13877330Y-14921904D02*
X13905901Y-14921904D01*
X13934473Y-14936190D01*
X13948758Y-14950476D01*
X13963044Y-14979047D01*
X13977330Y-15036190D01*
X13977330Y-15107619D01*
X13963044Y-15164761D01*
X13948758Y-15193333D01*
X13934473Y-15207619D01*
X13905901Y-15221904D01*
X13877330Y-15221904D01*
X13848758Y-15207619D01*
X13834473Y-15193333D01*
X13820187Y-15164761D01*
X13805901Y-15107619D01*
X13805901Y-15036190D01*
X13820187Y-14979047D01*
X13834473Y-14950476D01*
X13848758Y-14936190D01*
X13877330Y-14921904D01*
X14234473Y-15021904D02*
X14234473Y-15221904D01*
X14163044Y-14907619D02*
X14091616Y-15121904D01*
X14277330Y-15121904D01*
X14620187Y-15221904D02*
X14620187Y-14921904D01*
X14748758Y-15221904D02*
X14748758Y-15064761D01*
X14734473Y-15036190D01*
X14705901Y-15021904D01*
X14663044Y-15021904D01*
X14634473Y-15036190D01*
X14620187Y-15050476D01*
X14934473Y-15221904D02*
X14905901Y-15207619D01*
X14891616Y-15193333D01*
X14877330Y-15164761D01*
X14877330Y-15079047D01*
X14891616Y-15050476D01*
X14905901Y-15036190D01*
X14934473Y-15021904D01*
X14977330Y-15021904D01*
X15005901Y-15036190D01*
X15020187Y-15050476D01*
X15034473Y-15079047D01*
X15034473Y-15164761D01*
X15020187Y-15193333D01*
X15005901Y-15207619D01*
X14977330Y-15221904D01*
X14934473Y-15221904D01*
X15205901Y-15221904D02*
X15177330Y-15207619D01*
X15163044Y-15179047D01*
X15163044Y-14921904D01*
X15434473Y-15207619D02*
X15405901Y-15221904D01*
X15348758Y-15221904D01*
X15320187Y-15207619D01*
X15305901Y-15179047D01*
X15305901Y-15064761D01*
X15320187Y-15036190D01*
X15348758Y-15021904D01*
X15405901Y-15021904D01*
X15434473Y-15036190D01*
X15448758Y-15064761D01*
X15448758Y-15093333D01*
X15305901Y-15121904D01*
X15563044Y-15207619D02*
X15591616Y-15221904D01*
X15648758Y-15221904D01*
X15677330Y-15207619D01*
X15691616Y-15179047D01*
X15691616Y-15164761D01*
X15677330Y-15136190D01*
X15648758Y-15121904D01*
X15605901Y-15121904D01*
X15577330Y-15107619D01*
X15563044Y-15079047D01*
X15563044Y-15064761D01*
X15577330Y-15036190D01*
X15605901Y-15021904D01*
X15648758Y-15021904D01*
X15677330Y-15036190D01*
X15791616Y-15336190D02*
X15805901Y-15321904D01*
X15834473Y-15279047D01*
X15848758Y-15250476D01*
X15863044Y-15207619D01*
X15877330Y-15136190D01*
X15877330Y-15079047D01*
X15863044Y-15007619D01*
X15848758Y-14964761D01*
X15834473Y-14936190D01*
X15805901Y-14893333D01*
X15791616Y-14879047D01*
X8162330Y-15482190D02*
G75*
G03*
X8162330Y-15482190I-35000J0D01*
G01*
X8505901Y-15317904D02*
X8534473Y-15317904D01*
X8563044Y-15332190D01*
X8577330Y-15346476D01*
X8591616Y-15375047D01*
X8605901Y-15432190D01*
X8605901Y-15503619D01*
X8591616Y-15560761D01*
X8577330Y-15589333D01*
X8563044Y-15603619D01*
X8534473Y-15617904D01*
X8505901Y-15617904D01*
X8477330Y-15603619D01*
X8463044Y-15589333D01*
X8448758Y-15560761D01*
X8434473Y-15503619D01*
X8434473Y-15432190D01*
X8448758Y-15375047D01*
X8463044Y-15346476D01*
X8477330Y-15332190D01*
X8505901Y-15317904D01*
X8734473Y-15589333D02*
X8748758Y-15603619D01*
X8734473Y-15617904D01*
X8720187Y-15603619D01*
X8734473Y-15589333D01*
X8734473Y-15617904D01*
X8848758Y-15317904D02*
X9048758Y-15317904D01*
X8920187Y-15617904D01*
X9220187Y-15317904D02*
X9248758Y-15317904D01*
X9277330Y-15332190D01*
X9291616Y-15346476D01*
X9305901Y-15375047D01*
X9320187Y-15432190D01*
X9320187Y-15503619D01*
X9305901Y-15560761D01*
X9291616Y-15589333D01*
X9277330Y-15603619D01*
X9248758Y-15617904D01*
X9220187Y-15617904D01*
X9191616Y-15603619D01*
X9177330Y-15589333D01*
X9163044Y-15560761D01*
X9148758Y-15503619D01*
X9148758Y-15432190D01*
X9163044Y-15375047D01*
X9177330Y-15346476D01*
X9191616Y-15332190D01*
X9220187Y-15317904D01*
X9505901Y-15317904D02*
X9534473Y-15317904D01*
X9563044Y-15332190D01*
X9577330Y-15346476D01*
X9591616Y-15375047D01*
X9605901Y-15432190D01*
X9605901Y-15503619D01*
X9591616Y-15560761D01*
X9577330Y-15589333D01*
X9563044Y-15603619D01*
X9534473Y-15617904D01*
X9505901Y-15617904D01*
X9477330Y-15603619D01*
X9463044Y-15589333D01*
X9448758Y-15560761D01*
X9434473Y-15503619D01*
X9434473Y-15432190D01*
X9448758Y-15375047D01*
X9463044Y-15346476D01*
X9477330Y-15332190D01*
X9505901Y-15317904D01*
X9734473Y-15617904D02*
X9734473Y-15417904D01*
X9734473Y-15446476D02*
X9748758Y-15432190D01*
X9777330Y-15417904D01*
X9820187Y-15417904D01*
X9848758Y-15432190D01*
X9863044Y-15460761D01*
X9863044Y-15617904D01*
X9863044Y-15460761D02*
X9877330Y-15432190D01*
X9905901Y-15417904D01*
X9948758Y-15417904D01*
X9977330Y-15432190D01*
X9991616Y-15460761D01*
X9991616Y-15617904D01*
X10134473Y-15617904D02*
X10134473Y-15417904D01*
X10134473Y-15446476D02*
X10148758Y-15432190D01*
X10177330Y-15417904D01*
X10220187Y-15417904D01*
X10248758Y-15432190D01*
X10263044Y-15460761D01*
X10263044Y-15617904D01*
X10263044Y-15460761D02*
X10277330Y-15432190D01*
X10305901Y-15417904D01*
X10348758Y-15417904D01*
X10377330Y-15432190D01*
X10391616Y-15460761D01*
X10391616Y-15617904D01*
X10977330Y-15303619D02*
X10720187Y-15689333D01*
X11363044Y-15317904D02*
X11391616Y-15317904D01*
X11420187Y-15332190D01*
X11434473Y-15346476D01*
X11448758Y-15375047D01*
X11463044Y-15432190D01*
X11463044Y-15503619D01*
X11448758Y-15560761D01*
X11434473Y-15589333D01*
X11420187Y-15603619D01*
X11391616Y-15617904D01*
X11363044Y-15617904D01*
X11334473Y-15603619D01*
X11320187Y-15589333D01*
X11305901Y-15560761D01*
X11291616Y-15503619D01*
X11291616Y-15432190D01*
X11305901Y-15375047D01*
X11320187Y-15346476D01*
X11334473Y-15332190D01*
X11363044Y-15317904D01*
X11591616Y-15589333D02*
X11605901Y-15603619D01*
X11591616Y-15617904D01*
X11577330Y-15603619D01*
X11591616Y-15589333D01*
X11591616Y-15617904D01*
X11791616Y-15317904D02*
X11820187Y-15317904D01*
X11848758Y-15332190D01*
X11863044Y-15346476D01*
X11877330Y-15375047D01*
X11891616Y-15432190D01*
X11891616Y-15503619D01*
X11877330Y-15560761D01*
X11863044Y-15589333D01*
X11848758Y-15603619D01*
X11820187Y-15617904D01*
X11791616Y-15617904D01*
X11763044Y-15603619D01*
X11748758Y-15589333D01*
X11734473Y-15560761D01*
X11720187Y-15503619D01*
X11720187Y-15432190D01*
X11734473Y-15375047D01*
X11748758Y-15346476D01*
X11763044Y-15332190D01*
X11791616Y-15317904D01*
X12005901Y-15346476D02*
X12020187Y-15332190D01*
X12048758Y-15317904D01*
X12120187Y-15317904D01*
X12148758Y-15332190D01*
X12163044Y-15346476D01*
X12177330Y-15375047D01*
X12177330Y-15403619D01*
X12163044Y-15446476D01*
X11991616Y-15617904D01*
X12177330Y-15617904D01*
X12277330Y-15317904D02*
X12477330Y-15317904D01*
X12348758Y-15617904D01*
X12720187Y-15317904D02*
X12663044Y-15317904D01*
X12634473Y-15332190D01*
X12620187Y-15346476D01*
X12591616Y-15389333D01*
X12577330Y-15446476D01*
X12577330Y-15560761D01*
X12591616Y-15589333D01*
X12605901Y-15603619D01*
X12634473Y-15617904D01*
X12691616Y-15617904D01*
X12720187Y-15603619D01*
X12734473Y-15589333D01*
X12748758Y-15560761D01*
X12748758Y-15489333D01*
X12734473Y-15460761D01*
X12720187Y-15446476D01*
X12691616Y-15432190D01*
X12634473Y-15432190D01*
X12605901Y-15446476D01*
X12591616Y-15460761D01*
X12577330Y-15489333D01*
X12863044Y-15317904D02*
X12863044Y-15375047D01*
X12977330Y-15317904D02*
X12977330Y-15375047D01*
X13420187Y-15732190D02*
X13405901Y-15717904D01*
X13377330Y-15675047D01*
X13363044Y-15646476D01*
X13348758Y-15603619D01*
X13334473Y-15532190D01*
X13334473Y-15475047D01*
X13348758Y-15403619D01*
X13363044Y-15360761D01*
X13377330Y-15332190D01*
X13405901Y-15289333D01*
X13420187Y-15275047D01*
X13663044Y-15317904D02*
X13605901Y-15317904D01*
X13577330Y-15332190D01*
X13563044Y-15346476D01*
X13534473Y-15389333D01*
X13520187Y-15446476D01*
X13520187Y-15560761D01*
X13534473Y-15589333D01*
X13548758Y-15603619D01*
X13577330Y-15617904D01*
X13634473Y-15617904D01*
X13663044Y-15603619D01*
X13677330Y-15589333D01*
X13691616Y-15560761D01*
X13691616Y-15489333D01*
X13677330Y-15460761D01*
X13663044Y-15446476D01*
X13634473Y-15432190D01*
X13577330Y-15432190D01*
X13548758Y-15446476D01*
X13534473Y-15460761D01*
X13520187Y-15489333D01*
X14048758Y-15617904D02*
X14048758Y-15317904D01*
X14177330Y-15617904D02*
X14177330Y-15460761D01*
X14163044Y-15432190D01*
X14134473Y-15417904D01*
X14091616Y-15417904D01*
X14063044Y-15432190D01*
X14048758Y-15446476D01*
X14363044Y-15617904D02*
X14334473Y-15603619D01*
X14320187Y-15589333D01*
X14305901Y-15560761D01*
X14305901Y-15475047D01*
X14320187Y-15446476D01*
X14334473Y-15432190D01*
X14363044Y-15417904D01*
X14405901Y-15417904D01*
X14434473Y-15432190D01*
X14448758Y-15446476D01*
X14463044Y-15475047D01*
X14463044Y-15560761D01*
X14448758Y-15589333D01*
X14434473Y-15603619D01*
X14405901Y-15617904D01*
X14363044Y-15617904D01*
X14634473Y-15617904D02*
X14605901Y-15603619D01*
X14591616Y-15575047D01*
X14591616Y-15317904D01*
X14863044Y-15603619D02*
X14834473Y-15617904D01*
X14777330Y-15617904D01*
X14748758Y-15603619D01*
X14734473Y-15575047D01*
X14734473Y-15460761D01*
X14748758Y-15432190D01*
X14777330Y-15417904D01*
X14834473Y-15417904D01*
X14863044Y-15432190D01*
X14877330Y-15460761D01*
X14877330Y-15489333D01*
X14734473Y-15517904D01*
X14991616Y-15603619D02*
X15020187Y-15617904D01*
X15077330Y-15617904D01*
X15105901Y-15603619D01*
X15120187Y-15575047D01*
X15120187Y-15560761D01*
X15105901Y-15532190D01*
X15077330Y-15517904D01*
X15034473Y-15517904D01*
X15005901Y-15503619D01*
X14991616Y-15475047D01*
X14991616Y-15460761D01*
X15005901Y-15432190D01*
X15034473Y-15417904D01*
X15077330Y-15417904D01*
X15105901Y-15432190D01*
X15220187Y-15732190D02*
X15234473Y-15717904D01*
X15263044Y-15675047D01*
X15277330Y-15646476D01*
X15291616Y-15603619D01*
X15305901Y-15532190D01*
X15305901Y-15475047D01*
X15291616Y-15403619D01*
X15277330Y-15360761D01*
X15263044Y-15332190D01*
X15234473Y-15289333D01*
X15220187Y-15275047D01*
X8124830Y-15840690D02*
X8124830Y-15915690D01*
X8087330Y-15878190D02*
X8162330Y-15878190D01*
X8505901Y-15713904D02*
X8534473Y-15713904D01*
X8563044Y-15728190D01*
X8577330Y-15742476D01*
X8591616Y-15771047D01*
X8605901Y-15828190D01*
X8605901Y-15899619D01*
X8591616Y-15956761D01*
X8577330Y-15985333D01*
X8563044Y-15999619D01*
X8534473Y-16013904D01*
X8505901Y-16013904D01*
X8477330Y-15999619D01*
X8463044Y-15985333D01*
X8448758Y-15956761D01*
X8434473Y-15899619D01*
X8434473Y-15828190D01*
X8448758Y-15771047D01*
X8463044Y-15742476D01*
X8477330Y-15728190D01*
X8505901Y-15713904D01*
X8734473Y-15985333D02*
X8748758Y-15999619D01*
X8734473Y-16013904D01*
X8720187Y-15999619D01*
X8734473Y-15985333D01*
X8734473Y-16013904D01*
X8848758Y-15713904D02*
X9048758Y-15713904D01*
X8920187Y-16013904D01*
X9305901Y-15713904D02*
X9163044Y-15713904D01*
X9148758Y-15856761D01*
X9163044Y-15842476D01*
X9191616Y-15828190D01*
X9263044Y-15828190D01*
X9291616Y-15842476D01*
X9305901Y-15856761D01*
X9320187Y-15885333D01*
X9320187Y-15956761D01*
X9305901Y-15985333D01*
X9291616Y-15999619D01*
X9263044Y-16013904D01*
X9191616Y-16013904D01*
X9163044Y-15999619D01*
X9148758Y-15985333D01*
X9505901Y-15713904D02*
X9534473Y-15713904D01*
X9563044Y-15728190D01*
X9577330Y-15742476D01*
X9591616Y-15771047D01*
X9605901Y-15828190D01*
X9605901Y-15899619D01*
X9591616Y-15956761D01*
X9577330Y-15985333D01*
X9563044Y-15999619D01*
X9534473Y-16013904D01*
X9505901Y-16013904D01*
X9477330Y-15999619D01*
X9463044Y-15985333D01*
X9448758Y-15956761D01*
X9434473Y-15899619D01*
X9434473Y-15828190D01*
X9448758Y-15771047D01*
X9463044Y-15742476D01*
X9477330Y-15728190D01*
X9505901Y-15713904D01*
X9734473Y-16013904D02*
X9734473Y-15813904D01*
X9734473Y-15842476D02*
X9748758Y-15828190D01*
X9777330Y-15813904D01*
X9820187Y-15813904D01*
X9848758Y-15828190D01*
X9863044Y-15856761D01*
X9863044Y-16013904D01*
X9863044Y-15856761D02*
X9877330Y-15828190D01*
X9905901Y-15813904D01*
X9948758Y-15813904D01*
X9977330Y-15828190D01*
X9991616Y-15856761D01*
X9991616Y-16013904D01*
X10134473Y-16013904D02*
X10134473Y-15813904D01*
X10134473Y-15842476D02*
X10148758Y-15828190D01*
X10177330Y-15813904D01*
X10220187Y-15813904D01*
X10248758Y-15828190D01*
X10263044Y-15856761D01*
X10263044Y-16013904D01*
X10263044Y-15856761D02*
X10277330Y-15828190D01*
X10305901Y-15813904D01*
X10348758Y-15813904D01*
X10377330Y-15828190D01*
X10391616Y-15856761D01*
X10391616Y-16013904D01*
X10977330Y-15699619D02*
X10720187Y-16085333D01*
X11363044Y-15713904D02*
X11391616Y-15713904D01*
X11420187Y-15728190D01*
X11434473Y-15742476D01*
X11448758Y-15771047D01*
X11463044Y-15828190D01*
X11463044Y-15899619D01*
X11448758Y-15956761D01*
X11434473Y-15985333D01*
X11420187Y-15999619D01*
X11391616Y-16013904D01*
X11363044Y-16013904D01*
X11334473Y-15999619D01*
X11320187Y-15985333D01*
X11305901Y-15956761D01*
X11291616Y-15899619D01*
X11291616Y-15828190D01*
X11305901Y-15771047D01*
X11320187Y-15742476D01*
X11334473Y-15728190D01*
X11363044Y-15713904D01*
X11591616Y-15985333D02*
X11605901Y-15999619D01*
X11591616Y-16013904D01*
X11577330Y-15999619D01*
X11591616Y-15985333D01*
X11591616Y-16013904D01*
X11791616Y-15713904D02*
X11820187Y-15713904D01*
X11848758Y-15728190D01*
X11863044Y-15742476D01*
X11877330Y-15771047D01*
X11891616Y-15828190D01*
X11891616Y-15899619D01*
X11877330Y-15956761D01*
X11863044Y-15985333D01*
X11848758Y-15999619D01*
X11820187Y-16013904D01*
X11791616Y-16013904D01*
X11763044Y-15999619D01*
X11748758Y-15985333D01*
X11734473Y-15956761D01*
X11720187Y-15899619D01*
X11720187Y-15828190D01*
X11734473Y-15771047D01*
X11748758Y-15742476D01*
X11763044Y-15728190D01*
X11791616Y-15713904D01*
X12005901Y-15742476D02*
X12020187Y-15728190D01*
X12048758Y-15713904D01*
X12120187Y-15713904D01*
X12148758Y-15728190D01*
X12163044Y-15742476D01*
X12177330Y-15771047D01*
X12177330Y-15799619D01*
X12163044Y-15842476D01*
X11991616Y-16013904D01*
X12177330Y-16013904D01*
X12320187Y-16013904D02*
X12377330Y-16013904D01*
X12405901Y-15999619D01*
X12420187Y-15985333D01*
X12448758Y-15942476D01*
X12463044Y-15885333D01*
X12463044Y-15771047D01*
X12448758Y-15742476D01*
X12434473Y-15728190D01*
X12405901Y-15713904D01*
X12348758Y-15713904D01*
X12320187Y-15728190D01*
X12305901Y-15742476D01*
X12291616Y-15771047D01*
X12291616Y-15842476D01*
X12305901Y-15871047D01*
X12320187Y-15885333D01*
X12348758Y-15899619D01*
X12405901Y-15899619D01*
X12434473Y-15885333D01*
X12448758Y-15871047D01*
X12463044Y-15842476D01*
X12734473Y-15713904D02*
X12591616Y-15713904D01*
X12577330Y-15856761D01*
X12591616Y-15842476D01*
X12620187Y-15828190D01*
X12691616Y-15828190D01*
X12720187Y-15842476D01*
X12734473Y-15856761D01*
X12748758Y-15885333D01*
X12748758Y-15956761D01*
X12734473Y-15985333D01*
X12720187Y-15999619D01*
X12691616Y-16013904D01*
X12620187Y-16013904D01*
X12591616Y-15999619D01*
X12577330Y-15985333D01*
X12863044Y-15713904D02*
X12863044Y-15771047D01*
X12977330Y-15713904D02*
X12977330Y-15771047D01*
X13420187Y-16128190D02*
X13405901Y-16113904D01*
X13377330Y-16071047D01*
X13363044Y-16042476D01*
X13348758Y-15999619D01*
X13334473Y-15928190D01*
X13334473Y-15871047D01*
X13348758Y-15799619D01*
X13363044Y-15756761D01*
X13377330Y-15728190D01*
X13405901Y-15685333D01*
X13420187Y-15671047D01*
X13663044Y-15713904D02*
X13605901Y-15713904D01*
X13577330Y-15728190D01*
X13563044Y-15742476D01*
X13534473Y-15785333D01*
X13520187Y-15842476D01*
X13520187Y-15956761D01*
X13534473Y-15985333D01*
X13548758Y-15999619D01*
X13577330Y-16013904D01*
X13634473Y-16013904D01*
X13663044Y-15999619D01*
X13677330Y-15985333D01*
X13691616Y-15956761D01*
X13691616Y-15885333D01*
X13677330Y-15856761D01*
X13663044Y-15842476D01*
X13634473Y-15828190D01*
X13577330Y-15828190D01*
X13548758Y-15842476D01*
X13534473Y-15856761D01*
X13520187Y-15885333D01*
X14048758Y-16013904D02*
X14048758Y-15713904D01*
X14177330Y-16013904D02*
X14177330Y-15856761D01*
X14163044Y-15828190D01*
X14134473Y-15813904D01*
X14091616Y-15813904D01*
X14063044Y-15828190D01*
X14048758Y-15842476D01*
X14363044Y-16013904D02*
X14334473Y-15999619D01*
X14320187Y-15985333D01*
X14305901Y-15956761D01*
X14305901Y-15871047D01*
X14320187Y-15842476D01*
X14334473Y-15828190D01*
X14363044Y-15813904D01*
X14405901Y-15813904D01*
X14434473Y-15828190D01*
X14448758Y-15842476D01*
X14463044Y-15871047D01*
X14463044Y-15956761D01*
X14448758Y-15985333D01*
X14434473Y-15999619D01*
X14405901Y-16013904D01*
X14363044Y-16013904D01*
X14634473Y-16013904D02*
X14605901Y-15999619D01*
X14591616Y-15971047D01*
X14591616Y-15713904D01*
X14863044Y-15999619D02*
X14834473Y-16013904D01*
X14777330Y-16013904D01*
X14748758Y-15999619D01*
X14734473Y-15971047D01*
X14734473Y-15856761D01*
X14748758Y-15828190D01*
X14777330Y-15813904D01*
X14834473Y-15813904D01*
X14863044Y-15828190D01*
X14877330Y-15856761D01*
X14877330Y-15885333D01*
X14734473Y-15913904D01*
X14991616Y-15999619D02*
X15020187Y-16013904D01*
X15077330Y-16013904D01*
X15105901Y-15999619D01*
X15120187Y-15971047D01*
X15120187Y-15956761D01*
X15105901Y-15928190D01*
X15077330Y-15913904D01*
X15034473Y-15913904D01*
X15005901Y-15899619D01*
X14991616Y-15871047D01*
X14991616Y-15856761D01*
X15005901Y-15828190D01*
X15034473Y-15813904D01*
X15077330Y-15813904D01*
X15105901Y-15828190D01*
X15220187Y-16128190D02*
X15234473Y-16113904D01*
X15263044Y-16071047D01*
X15277330Y-16042476D01*
X15291616Y-15999619D01*
X15305901Y-15928190D01*
X15305901Y-15871047D01*
X15291616Y-15799619D01*
X15277330Y-15756761D01*
X15263044Y-15728190D01*
X15234473Y-15685333D01*
X15220187Y-15671047D01*
X8150614Y-16302475D02*
X8150614Y-16245906D01*
X8094045Y-16245906D01*
X8094045Y-16302475D01*
X8150614Y-16302475D01*
X8505901Y-16109904D02*
X8534473Y-16109904D01*
X8563044Y-16124190D01*
X8577330Y-16138476D01*
X8591616Y-16167047D01*
X8605901Y-16224190D01*
X8605901Y-16295619D01*
X8591616Y-16352761D01*
X8577330Y-16381333D01*
X8563044Y-16395619D01*
X8534473Y-16409904D01*
X8505901Y-16409904D01*
X8477330Y-16395619D01*
X8463044Y-16381333D01*
X8448758Y-16352761D01*
X8434473Y-16295619D01*
X8434473Y-16224190D01*
X8448758Y-16167047D01*
X8463044Y-16138476D01*
X8477330Y-16124190D01*
X8505901Y-16109904D01*
X8734473Y-16381333D02*
X8748758Y-16395619D01*
X8734473Y-16409904D01*
X8720187Y-16395619D01*
X8734473Y-16381333D01*
X8734473Y-16409904D01*
X8920187Y-16238476D02*
X8891616Y-16224190D01*
X8877330Y-16209904D01*
X8863044Y-16181333D01*
X8863044Y-16167047D01*
X8877330Y-16138476D01*
X8891616Y-16124190D01*
X8920187Y-16109904D01*
X8977330Y-16109904D01*
X9005901Y-16124190D01*
X9020187Y-16138476D01*
X9034473Y-16167047D01*
X9034473Y-16181333D01*
X9020187Y-16209904D01*
X9005901Y-16224190D01*
X8977330Y-16238476D01*
X8920187Y-16238476D01*
X8891616Y-16252761D01*
X8877330Y-16267047D01*
X8863044Y-16295619D01*
X8863044Y-16352761D01*
X8877330Y-16381333D01*
X8891616Y-16395619D01*
X8920187Y-16409904D01*
X8977330Y-16409904D01*
X9005901Y-16395619D01*
X9020187Y-16381333D01*
X9034473Y-16352761D01*
X9034473Y-16295619D01*
X9020187Y-16267047D01*
X9005901Y-16252761D01*
X8977330Y-16238476D01*
X9220187Y-16109904D02*
X9248758Y-16109904D01*
X9277330Y-16124190D01*
X9291616Y-16138476D01*
X9305901Y-16167047D01*
X9320187Y-16224190D01*
X9320187Y-16295619D01*
X9305901Y-16352761D01*
X9291616Y-16381333D01*
X9277330Y-16395619D01*
X9248758Y-16409904D01*
X9220187Y-16409904D01*
X9191616Y-16395619D01*
X9177330Y-16381333D01*
X9163044Y-16352761D01*
X9148758Y-16295619D01*
X9148758Y-16224190D01*
X9163044Y-16167047D01*
X9177330Y-16138476D01*
X9191616Y-16124190D01*
X9220187Y-16109904D01*
X9505901Y-16109904D02*
X9534473Y-16109904D01*
X9563044Y-16124190D01*
X9577330Y-16138476D01*
X9591616Y-16167047D01*
X9605901Y-16224190D01*
X9605901Y-16295619D01*
X9591616Y-16352761D01*
X9577330Y-16381333D01*
X9563044Y-16395619D01*
X9534473Y-16409904D01*
X9505901Y-16409904D01*
X9477330Y-16395619D01*
X9463044Y-16381333D01*
X9448758Y-16352761D01*
X9434473Y-16295619D01*
X9434473Y-16224190D01*
X9448758Y-16167047D01*
X9463044Y-16138476D01*
X9477330Y-16124190D01*
X9505901Y-16109904D01*
X9734473Y-16409904D02*
X9734473Y-16209904D01*
X9734473Y-16238476D02*
X9748758Y-16224190D01*
X9777330Y-16209904D01*
X9820187Y-16209904D01*
X9848758Y-16224190D01*
X9863044Y-16252761D01*
X9863044Y-16409904D01*
X9863044Y-16252761D02*
X9877330Y-16224190D01*
X9905901Y-16209904D01*
X9948758Y-16209904D01*
X9977330Y-16224190D01*
X9991616Y-16252761D01*
X9991616Y-16409904D01*
X10134473Y-16409904D02*
X10134473Y-16209904D01*
X10134473Y-16238476D02*
X10148758Y-16224190D01*
X10177330Y-16209904D01*
X10220187Y-16209904D01*
X10248758Y-16224190D01*
X10263044Y-16252761D01*
X10263044Y-16409904D01*
X10263044Y-16252761D02*
X10277330Y-16224190D01*
X10305901Y-16209904D01*
X10348758Y-16209904D01*
X10377330Y-16224190D01*
X10391616Y-16252761D01*
X10391616Y-16409904D01*
X10977330Y-16095619D02*
X10720187Y-16481333D01*
X11363044Y-16109904D02*
X11391616Y-16109904D01*
X11420187Y-16124190D01*
X11434473Y-16138476D01*
X11448758Y-16167047D01*
X11463044Y-16224190D01*
X11463044Y-16295619D01*
X11448758Y-16352761D01*
X11434473Y-16381333D01*
X11420187Y-16395619D01*
X11391616Y-16409904D01*
X11363044Y-16409904D01*
X11334473Y-16395619D01*
X11320187Y-16381333D01*
X11305901Y-16352761D01*
X11291616Y-16295619D01*
X11291616Y-16224190D01*
X11305901Y-16167047D01*
X11320187Y-16138476D01*
X11334473Y-16124190D01*
X11363044Y-16109904D01*
X11591616Y-16381333D02*
X11605901Y-16395619D01*
X11591616Y-16409904D01*
X11577330Y-16395619D01*
X11591616Y-16381333D01*
X11591616Y-16409904D01*
X11791616Y-16109904D02*
X11820187Y-16109904D01*
X11848758Y-16124190D01*
X11863044Y-16138476D01*
X11877330Y-16167047D01*
X11891616Y-16224190D01*
X11891616Y-16295619D01*
X11877330Y-16352761D01*
X11863044Y-16381333D01*
X11848758Y-16395619D01*
X11820187Y-16409904D01*
X11791616Y-16409904D01*
X11763044Y-16395619D01*
X11748758Y-16381333D01*
X11734473Y-16352761D01*
X11720187Y-16295619D01*
X11720187Y-16224190D01*
X11734473Y-16167047D01*
X11748758Y-16138476D01*
X11763044Y-16124190D01*
X11791616Y-16109904D01*
X11991616Y-16109904D02*
X12177330Y-16109904D01*
X12077330Y-16224190D01*
X12120187Y-16224190D01*
X12148758Y-16238476D01*
X12163044Y-16252761D01*
X12177330Y-16281333D01*
X12177330Y-16352761D01*
X12163044Y-16381333D01*
X12148758Y-16395619D01*
X12120187Y-16409904D01*
X12034473Y-16409904D01*
X12005901Y-16395619D01*
X11991616Y-16381333D01*
X12463044Y-16409904D02*
X12291616Y-16409904D01*
X12377330Y-16409904D02*
X12377330Y-16109904D01*
X12348758Y-16152761D01*
X12320187Y-16181333D01*
X12291616Y-16195619D01*
X12734473Y-16109904D02*
X12591616Y-16109904D01*
X12577330Y-16252761D01*
X12591616Y-16238476D01*
X12620187Y-16224190D01*
X12691616Y-16224190D01*
X12720187Y-16238476D01*
X12734473Y-16252761D01*
X12748758Y-16281333D01*
X12748758Y-16352761D01*
X12734473Y-16381333D01*
X12720187Y-16395619D01*
X12691616Y-16409904D01*
X12620187Y-16409904D01*
X12591616Y-16395619D01*
X12577330Y-16381333D01*
X12863044Y-16109904D02*
X12863044Y-16167047D01*
X12977330Y-16109904D02*
X12977330Y-16167047D01*
X13420187Y-16524190D02*
X13405901Y-16509904D01*
X13377330Y-16467047D01*
X13363044Y-16438476D01*
X13348758Y-16395619D01*
X13334473Y-16324190D01*
X13334473Y-16267047D01*
X13348758Y-16195619D01*
X13363044Y-16152761D01*
X13377330Y-16124190D01*
X13405901Y-16081333D01*
X13420187Y-16067047D01*
X13691616Y-16409904D02*
X13520187Y-16409904D01*
X13605901Y-16409904D02*
X13605901Y-16109904D01*
X13577330Y-16152761D01*
X13548758Y-16181333D01*
X13520187Y-16195619D01*
X13791616Y-16109904D02*
X13977330Y-16109904D01*
X13877330Y-16224190D01*
X13920187Y-16224190D01*
X13948758Y-16238476D01*
X13963044Y-16252761D01*
X13977330Y-16281333D01*
X13977330Y-16352761D01*
X13963044Y-16381333D01*
X13948758Y-16395619D01*
X13920187Y-16409904D01*
X13834473Y-16409904D01*
X13805901Y-16395619D01*
X13791616Y-16381333D01*
X14234473Y-16109904D02*
X14177330Y-16109904D01*
X14148758Y-16124190D01*
X14134473Y-16138476D01*
X14105901Y-16181333D01*
X14091616Y-16238476D01*
X14091616Y-16352761D01*
X14105901Y-16381333D01*
X14120187Y-16395619D01*
X14148758Y-16409904D01*
X14205901Y-16409904D01*
X14234473Y-16395619D01*
X14248758Y-16381333D01*
X14263044Y-16352761D01*
X14263044Y-16281333D01*
X14248758Y-16252761D01*
X14234473Y-16238476D01*
X14205901Y-16224190D01*
X14148758Y-16224190D01*
X14120187Y-16238476D01*
X14105901Y-16252761D01*
X14091616Y-16281333D01*
X14620187Y-16409904D02*
X14620187Y-16109904D01*
X14748758Y-16409904D02*
X14748758Y-16252761D01*
X14734473Y-16224190D01*
X14705901Y-16209904D01*
X14663044Y-16209904D01*
X14634473Y-16224190D01*
X14620187Y-16238476D01*
X14934473Y-16409904D02*
X14905901Y-16395619D01*
X14891616Y-16381333D01*
X14877330Y-16352761D01*
X14877330Y-16267047D01*
X14891616Y-16238476D01*
X14905901Y-16224190D01*
X14934473Y-16209904D01*
X14977330Y-16209904D01*
X15005901Y-16224190D01*
X15020187Y-16238476D01*
X15034473Y-16267047D01*
X15034473Y-16352761D01*
X15020187Y-16381333D01*
X15005901Y-16395619D01*
X14977330Y-16409904D01*
X14934473Y-16409904D01*
X15205901Y-16409904D02*
X15177330Y-16395619D01*
X15163044Y-16367047D01*
X15163044Y-16109904D01*
X15434473Y-16395619D02*
X15405901Y-16409904D01*
X15348758Y-16409904D01*
X15320187Y-16395619D01*
X15305901Y-16367047D01*
X15305901Y-16252761D01*
X15320187Y-16224190D01*
X15348758Y-16209904D01*
X15405901Y-16209904D01*
X15434473Y-16224190D01*
X15448758Y-16252761D01*
X15448758Y-16281333D01*
X15305901Y-16309904D01*
X15563044Y-16395619D02*
X15591616Y-16409904D01*
X15648758Y-16409904D01*
X15677330Y-16395619D01*
X15691616Y-16367047D01*
X15691616Y-16352761D01*
X15677330Y-16324190D01*
X15648758Y-16309904D01*
X15605901Y-16309904D01*
X15577330Y-16295619D01*
X15563044Y-16267047D01*
X15563044Y-16252761D01*
X15577330Y-16224190D01*
X15605901Y-16209904D01*
X15648758Y-16209904D01*
X15677330Y-16224190D01*
X15791616Y-16524190D02*
X15805901Y-16509904D01*
X15834473Y-16467047D01*
X15848758Y-16438476D01*
X15863044Y-16395619D01*
X15877330Y-16324190D01*
X15877330Y-16267047D01*
X15863044Y-16195619D01*
X15848758Y-16152761D01*
X15834473Y-16124190D01*
X15805901Y-16081333D01*
X15791616Y-16067047D01*
X8112330Y-16720190D02*
X8162330Y-16670190D01*
X8112330Y-16620190D01*
X8062330Y-16670190D01*
X8112330Y-16720190D01*
X8605901Y-16805904D02*
X8434473Y-16805904D01*
X8520187Y-16805904D02*
X8520187Y-16505904D01*
X8491616Y-16548761D01*
X8463044Y-16577333D01*
X8434473Y-16591619D01*
X8734473Y-16777333D02*
X8748758Y-16791619D01*
X8734473Y-16805904D01*
X8720187Y-16791619D01*
X8734473Y-16777333D01*
X8734473Y-16805904D01*
X8934473Y-16505904D02*
X8963044Y-16505904D01*
X8991616Y-16520190D01*
X9005901Y-16534476D01*
X9020187Y-16563047D01*
X9034473Y-16620190D01*
X9034473Y-16691619D01*
X9020187Y-16748761D01*
X9005901Y-16777333D01*
X8991616Y-16791619D01*
X8963044Y-16805904D01*
X8934473Y-16805904D01*
X8905901Y-16791619D01*
X8891616Y-16777333D01*
X8877330Y-16748761D01*
X8863044Y-16691619D01*
X8863044Y-16620190D01*
X8877330Y-16563047D01*
X8891616Y-16534476D01*
X8905901Y-16520190D01*
X8934473Y-16505904D01*
X9220187Y-16505904D02*
X9248758Y-16505904D01*
X9277330Y-16520190D01*
X9291616Y-16534476D01*
X9305901Y-16563047D01*
X9320187Y-16620190D01*
X9320187Y-16691619D01*
X9305901Y-16748761D01*
X9291616Y-16777333D01*
X9277330Y-16791619D01*
X9248758Y-16805904D01*
X9220187Y-16805904D01*
X9191616Y-16791619D01*
X9177330Y-16777333D01*
X9163044Y-16748761D01*
X9148758Y-16691619D01*
X9148758Y-16620190D01*
X9163044Y-16563047D01*
X9177330Y-16534476D01*
X9191616Y-16520190D01*
X9220187Y-16505904D01*
X9505901Y-16505904D02*
X9534473Y-16505904D01*
X9563044Y-16520190D01*
X9577330Y-16534476D01*
X9591616Y-16563047D01*
X9605901Y-16620190D01*
X9605901Y-16691619D01*
X9591616Y-16748761D01*
X9577330Y-16777333D01*
X9563044Y-16791619D01*
X9534473Y-16805904D01*
X9505901Y-16805904D01*
X9477330Y-16791619D01*
X9463044Y-16777333D01*
X9448758Y-16748761D01*
X9434473Y-16691619D01*
X9434473Y-16620190D01*
X9448758Y-16563047D01*
X9463044Y-16534476D01*
X9477330Y-16520190D01*
X9505901Y-16505904D01*
X9734473Y-16805904D02*
X9734473Y-16605904D01*
X9734473Y-16634476D02*
X9748758Y-16620190D01*
X9777330Y-16605904D01*
X9820187Y-16605904D01*
X9848758Y-16620190D01*
X9863044Y-16648761D01*
X9863044Y-16805904D01*
X9863044Y-16648761D02*
X9877330Y-16620190D01*
X9905901Y-16605904D01*
X9948758Y-16605904D01*
X9977330Y-16620190D01*
X9991616Y-16648761D01*
X9991616Y-16805904D01*
X10134473Y-16805904D02*
X10134473Y-16605904D01*
X10134473Y-16634476D02*
X10148758Y-16620190D01*
X10177330Y-16605904D01*
X10220187Y-16605904D01*
X10248758Y-16620190D01*
X10263044Y-16648761D01*
X10263044Y-16805904D01*
X10263044Y-16648761D02*
X10277330Y-16620190D01*
X10305901Y-16605904D01*
X10348758Y-16605904D01*
X10377330Y-16620190D01*
X10391616Y-16648761D01*
X10391616Y-16805904D01*
X10977330Y-16491619D02*
X10720187Y-16877333D01*
X11363044Y-16505904D02*
X11391616Y-16505904D01*
X11420187Y-16520190D01*
X11434473Y-16534476D01*
X11448758Y-16563047D01*
X11463044Y-16620190D01*
X11463044Y-16691619D01*
X11448758Y-16748761D01*
X11434473Y-16777333D01*
X11420187Y-16791619D01*
X11391616Y-16805904D01*
X11363044Y-16805904D01*
X11334473Y-16791619D01*
X11320187Y-16777333D01*
X11305901Y-16748761D01*
X11291616Y-16691619D01*
X11291616Y-16620190D01*
X11305901Y-16563047D01*
X11320187Y-16534476D01*
X11334473Y-16520190D01*
X11363044Y-16505904D01*
X11591616Y-16777333D02*
X11605901Y-16791619D01*
X11591616Y-16805904D01*
X11577330Y-16791619D01*
X11591616Y-16777333D01*
X11591616Y-16805904D01*
X11791616Y-16505904D02*
X11820187Y-16505904D01*
X11848758Y-16520190D01*
X11863044Y-16534476D01*
X11877330Y-16563047D01*
X11891616Y-16620190D01*
X11891616Y-16691619D01*
X11877330Y-16748761D01*
X11863044Y-16777333D01*
X11848758Y-16791619D01*
X11820187Y-16805904D01*
X11791616Y-16805904D01*
X11763044Y-16791619D01*
X11748758Y-16777333D01*
X11734473Y-16748761D01*
X11720187Y-16691619D01*
X11720187Y-16620190D01*
X11734473Y-16563047D01*
X11748758Y-16534476D01*
X11763044Y-16520190D01*
X11791616Y-16505904D01*
X11991616Y-16505904D02*
X12177330Y-16505904D01*
X12077330Y-16620190D01*
X12120187Y-16620190D01*
X12148758Y-16634476D01*
X12163044Y-16648761D01*
X12177330Y-16677333D01*
X12177330Y-16748761D01*
X12163044Y-16777333D01*
X12148758Y-16791619D01*
X12120187Y-16805904D01*
X12034473Y-16805904D01*
X12005901Y-16791619D01*
X11991616Y-16777333D01*
X12320187Y-16805904D02*
X12377330Y-16805904D01*
X12405901Y-16791619D01*
X12420187Y-16777333D01*
X12448758Y-16734476D01*
X12463044Y-16677333D01*
X12463044Y-16563047D01*
X12448758Y-16534476D01*
X12434473Y-16520190D01*
X12405901Y-16505904D01*
X12348758Y-16505904D01*
X12320187Y-16520190D01*
X12305901Y-16534476D01*
X12291616Y-16563047D01*
X12291616Y-16634476D01*
X12305901Y-16663047D01*
X12320187Y-16677333D01*
X12348758Y-16691619D01*
X12405901Y-16691619D01*
X12434473Y-16677333D01*
X12448758Y-16663047D01*
X12463044Y-16634476D01*
X12720187Y-16605904D02*
X12720187Y-16805904D01*
X12648758Y-16491619D02*
X12577330Y-16705904D01*
X12763044Y-16705904D01*
X12863044Y-16505904D02*
X12863044Y-16563047D01*
X12977330Y-16505904D02*
X12977330Y-16563047D01*
X13420187Y-16920190D02*
X13405901Y-16905904D01*
X13377330Y-16863047D01*
X13363044Y-16834476D01*
X13348758Y-16791619D01*
X13334473Y-16720190D01*
X13334473Y-16663047D01*
X13348758Y-16591619D01*
X13363044Y-16548761D01*
X13377330Y-16520190D01*
X13405901Y-16477333D01*
X13420187Y-16463047D01*
X13577330Y-16634476D02*
X13548758Y-16620190D01*
X13534473Y-16605904D01*
X13520187Y-16577333D01*
X13520187Y-16563047D01*
X13534473Y-16534476D01*
X13548758Y-16520190D01*
X13577330Y-16505904D01*
X13634473Y-16505904D01*
X13663044Y-16520190D01*
X13677330Y-16534476D01*
X13691616Y-16563047D01*
X13691616Y-16577333D01*
X13677330Y-16605904D01*
X13663044Y-16620190D01*
X13634473Y-16634476D01*
X13577330Y-16634476D01*
X13548758Y-16648761D01*
X13534473Y-16663047D01*
X13520187Y-16691619D01*
X13520187Y-16748761D01*
X13534473Y-16777333D01*
X13548758Y-16791619D01*
X13577330Y-16805904D01*
X13634473Y-16805904D01*
X13663044Y-16791619D01*
X13677330Y-16777333D01*
X13691616Y-16748761D01*
X13691616Y-16691619D01*
X13677330Y-16663047D01*
X13663044Y-16648761D01*
X13634473Y-16634476D01*
X13948758Y-16505904D02*
X13891616Y-16505904D01*
X13863044Y-16520190D01*
X13848758Y-16534476D01*
X13820187Y-16577333D01*
X13805901Y-16634476D01*
X13805901Y-16748761D01*
X13820187Y-16777333D01*
X13834473Y-16791619D01*
X13863044Y-16805904D01*
X13920187Y-16805904D01*
X13948758Y-16791619D01*
X13963044Y-16777333D01*
X13977330Y-16748761D01*
X13977330Y-16677333D01*
X13963044Y-16648761D01*
X13948758Y-16634476D01*
X13920187Y-16620190D01*
X13863044Y-16620190D01*
X13834473Y-16634476D01*
X13820187Y-16648761D01*
X13805901Y-16677333D01*
X14334473Y-16805904D02*
X14334473Y-16505904D01*
X14463044Y-16805904D02*
X14463044Y-16648761D01*
X14448758Y-16620190D01*
X14420187Y-16605904D01*
X14377330Y-16605904D01*
X14348758Y-16620190D01*
X14334473Y-16634476D01*
X14648758Y-16805904D02*
X14620187Y-16791619D01*
X14605901Y-16777333D01*
X14591616Y-16748761D01*
X14591616Y-16663047D01*
X14605901Y-16634476D01*
X14620187Y-16620190D01*
X14648758Y-16605904D01*
X14691616Y-16605904D01*
X14720187Y-16620190D01*
X14734473Y-16634476D01*
X14748758Y-16663047D01*
X14748758Y-16748761D01*
X14734473Y-16777333D01*
X14720187Y-16791619D01*
X14691616Y-16805904D01*
X14648758Y-16805904D01*
X14920187Y-16805904D02*
X14891616Y-16791619D01*
X14877330Y-16763047D01*
X14877330Y-16505904D01*
X15148758Y-16791619D02*
X15120187Y-16805904D01*
X15063044Y-16805904D01*
X15034473Y-16791619D01*
X15020187Y-16763047D01*
X15020187Y-16648761D01*
X15034473Y-16620190D01*
X15063044Y-16605904D01*
X15120187Y-16605904D01*
X15148758Y-16620190D01*
X15163044Y-16648761D01*
X15163044Y-16677333D01*
X15020187Y-16705904D01*
X15277330Y-16791619D02*
X15305901Y-16805904D01*
X15363044Y-16805904D01*
X15391616Y-16791619D01*
X15405901Y-16763047D01*
X15405901Y-16748761D01*
X15391616Y-16720190D01*
X15363044Y-16705904D01*
X15320187Y-16705904D01*
X15291616Y-16691619D01*
X15277330Y-16663047D01*
X15277330Y-16648761D01*
X15291616Y-16620190D01*
X15320187Y-16605904D01*
X15363044Y-16605904D01*
X15391616Y-16620190D01*
X15505901Y-16920190D02*
X15520187Y-16905904D01*
X15548758Y-16863047D01*
X15563044Y-16834476D01*
X15577330Y-16791619D01*
X15591616Y-16720190D01*
X15591616Y-16663047D01*
X15577330Y-16591619D01*
X15563044Y-16548761D01*
X15548758Y-16520190D01*
X15520187Y-16477333D01*
X15505901Y-16463047D01*
M02*
