%TF.GenerationSoftware,KiCad,Pcbnew,(5.1.12)-1*%
%TF.CreationDate,2022-08-10T21:54:59-07:00*%
%TF.ProjectId,JBX16_UARTCard,4a425831-365f-4554-9152-54436172642e,rev?*%
%TF.SameCoordinates,Original*%
%TF.FileFunction,Paste,Top*%
%TF.FilePolarity,Positive*%
%FSLAX46Y46*%
G04 Gerber Fmt 4.6, Leading zero omitted, Abs format (unit mm)*
G04 Created by KiCad (PCBNEW (5.1.12)-1) date 2022-08-10 21:54:59*
%MOMM*%
%LPD*%
G01*
G04 APERTURE LIST*
%ADD10R,2.500000X0.500000*%
%ADD11R,2.500000X2.000000*%
%ADD12R,3.500000X2.000000*%
%ADD13R,0.450000X1.750000*%
%ADD14R,0.520000X1.500000*%
%ADD15R,1.500000X0.520000*%
G04 APERTURE END LIST*
%TO.C,C9*%
G36*
G01*
X165663760Y-81050140D02*
X165663760Y-80575140D01*
G75*
G02*
X165901260Y-80337640I237500J0D01*
G01*
X166501260Y-80337640D01*
G75*
G02*
X166738760Y-80575140I0J-237500D01*
G01*
X166738760Y-81050140D01*
G75*
G02*
X166501260Y-81287640I-237500J0D01*
G01*
X165901260Y-81287640D01*
G75*
G02*
X165663760Y-81050140I0J237500D01*
G01*
G37*
G36*
G01*
X163938760Y-81050140D02*
X163938760Y-80575140D01*
G75*
G02*
X164176260Y-80337640I237500J0D01*
G01*
X164776260Y-80337640D01*
G75*
G02*
X165013760Y-80575140I0J-237500D01*
G01*
X165013760Y-81050140D01*
G75*
G02*
X164776260Y-81287640I-237500J0D01*
G01*
X164176260Y-81287640D01*
G75*
G02*
X163938760Y-81050140I0J237500D01*
G01*
G37*
%TD*%
%TO.C,C8*%
G36*
G01*
X162864680Y-92942420D02*
X162864680Y-92467420D01*
G75*
G02*
X163102180Y-92229920I237500J0D01*
G01*
X163702180Y-92229920D01*
G75*
G02*
X163939680Y-92467420I0J-237500D01*
G01*
X163939680Y-92942420D01*
G75*
G02*
X163702180Y-93179920I-237500J0D01*
G01*
X163102180Y-93179920D01*
G75*
G02*
X162864680Y-92942420I0J237500D01*
G01*
G37*
G36*
G01*
X161139680Y-92942420D02*
X161139680Y-92467420D01*
G75*
G02*
X161377180Y-92229920I237500J0D01*
G01*
X161977180Y-92229920D01*
G75*
G02*
X162214680Y-92467420I0J-237500D01*
G01*
X162214680Y-92942420D01*
G75*
G02*
X161977180Y-93179920I-237500J0D01*
G01*
X161377180Y-93179920D01*
G75*
G02*
X161139680Y-92942420I0J237500D01*
G01*
G37*
%TD*%
%TO.C,C7*%
G36*
G01*
X113492160Y-85418940D02*
X113492160Y-84943940D01*
G75*
G02*
X113729660Y-84706440I237500J0D01*
G01*
X114329660Y-84706440D01*
G75*
G02*
X114567160Y-84943940I0J-237500D01*
G01*
X114567160Y-85418940D01*
G75*
G02*
X114329660Y-85656440I-237500J0D01*
G01*
X113729660Y-85656440D01*
G75*
G02*
X113492160Y-85418940I0J237500D01*
G01*
G37*
G36*
G01*
X111767160Y-85418940D02*
X111767160Y-84943940D01*
G75*
G02*
X112004660Y-84706440I237500J0D01*
G01*
X112604660Y-84706440D01*
G75*
G02*
X112842160Y-84943940I0J-237500D01*
G01*
X112842160Y-85418940D01*
G75*
G02*
X112604660Y-85656440I-237500J0D01*
G01*
X112004660Y-85656440D01*
G75*
G02*
X111767160Y-85418940I0J237500D01*
G01*
G37*
%TD*%
D10*
%TO.C,J1*%
X172962260Y-84986060D03*
X172962260Y-85786060D03*
X172962260Y-86586060D03*
X172962260Y-87386060D03*
X172962260Y-88186060D03*
D11*
X172962260Y-82186060D03*
X172962260Y-90986060D03*
X178462260Y-82186060D03*
X178462260Y-90986060D03*
%TD*%
D12*
%TO.C,X3*%
X113342280Y-87406480D03*
X119842280Y-87406480D03*
X119842280Y-91606480D03*
X113342280Y-91606480D03*
%TD*%
D13*
%TO.C,U3*%
X159277340Y-82881920D03*
X159927340Y-82881920D03*
X160577340Y-82881920D03*
X161227340Y-82881920D03*
X161877340Y-82881920D03*
X162527340Y-82881920D03*
X163177340Y-82881920D03*
X163827340Y-82881920D03*
X164477340Y-82881920D03*
X165127340Y-82881920D03*
X165777340Y-82881920D03*
X166427340Y-82881920D03*
X167077340Y-82881920D03*
X167727340Y-82881920D03*
X167727340Y-90081920D03*
X167077340Y-90081920D03*
X166427340Y-90081920D03*
X165777340Y-90081920D03*
X165127340Y-90081920D03*
X164477340Y-90081920D03*
X163827340Y-90081920D03*
X163177340Y-90081920D03*
X162527340Y-90081920D03*
X161877340Y-90081920D03*
X161227340Y-90081920D03*
X160577340Y-90081920D03*
X159927340Y-90081920D03*
X159277340Y-90081920D03*
%TD*%
D14*
%TO.C,U2*%
X167046140Y-105072460D03*
X167846140Y-105072460D03*
X168646140Y-105072460D03*
X169446140Y-105072460D03*
X170246140Y-105072460D03*
X171046140Y-105072460D03*
X171846140Y-105072460D03*
X172646140Y-105072460D03*
X173446140Y-105072460D03*
X174246140Y-105072460D03*
X175046140Y-105072460D03*
D15*
X177096140Y-107122460D03*
X177096140Y-107922460D03*
X177096140Y-108722460D03*
X177096140Y-109522460D03*
X177096140Y-110322460D03*
X177096140Y-111122460D03*
X177096140Y-111922460D03*
X177096140Y-112722460D03*
X177096140Y-113522460D03*
X177096140Y-114322460D03*
X177096140Y-115122460D03*
D14*
X175046140Y-117172460D03*
X174246140Y-117172460D03*
X173446140Y-117172460D03*
X172646140Y-117172460D03*
X171846140Y-117172460D03*
X171046140Y-117172460D03*
X170246140Y-117172460D03*
X169446140Y-117172460D03*
X168646140Y-117172460D03*
X167846140Y-117172460D03*
X167046140Y-117172460D03*
D15*
X164996140Y-115122460D03*
X164996140Y-114322460D03*
X164996140Y-113522460D03*
X164996140Y-112722460D03*
X164996140Y-111922460D03*
X164996140Y-111122460D03*
X164996140Y-110322460D03*
X164996140Y-109522460D03*
X164996140Y-108722460D03*
X164996140Y-107922460D03*
X164996140Y-107122460D03*
%TD*%
M02*
