G04 #@! TF.GenerationSoftware,KiCad,Pcbnew,(5.1.12)-1*
G04 #@! TF.CreationDate,2022-08-10T22:17:10-07:00*
G04 #@! TF.ProjectId,jbVeraHDMI,6a625665-7261-4484-944d-492e6b696361,rev?*
G04 #@! TF.SameCoordinates,Original*
G04 #@! TF.FileFunction,Paste,Top*
G04 #@! TF.FilePolarity,Positive*
%FSLAX46Y46*%
G04 Gerber Fmt 4.6, Leading zero omitted, Abs format (unit mm)*
G04 Created by KiCad (PCBNEW (5.1.12)-1) date 2022-08-10 22:17:10*
%MOMM*%
%LPD*%
G01*
G04 APERTURE LIST*
%ADD10R,1.560000X0.650000*%
%ADD11R,0.550000X1.500000*%
%ADD12R,1.500000X0.550000*%
%ADD13R,1.500000X0.450000*%
%ADD14R,3.200000X3.200000*%
%ADD15R,1.500000X0.300000*%
%ADD16R,0.300000X1.500000*%
%ADD17R,1.500000X1.600000*%
%ADD18R,3.600000X1.500000*%
G04 APERTURE END LIST*
G36*
G01*
X147742900Y-115690100D02*
X148217900Y-115690100D01*
G75*
G02*
X148455400Y-115927600I0J-237500D01*
G01*
X148455400Y-116502600D01*
G75*
G02*
X148217900Y-116740100I-237500J0D01*
G01*
X147742900Y-116740100D01*
G75*
G02*
X147505400Y-116502600I0J237500D01*
G01*
X147505400Y-115927600D01*
G75*
G02*
X147742900Y-115690100I237500J0D01*
G01*
G37*
G36*
G01*
X147742900Y-113940100D02*
X148217900Y-113940100D01*
G75*
G02*
X148455400Y-114177600I0J-237500D01*
G01*
X148455400Y-114752600D01*
G75*
G02*
X148217900Y-114990100I-237500J0D01*
G01*
X147742900Y-114990100D01*
G75*
G02*
X147505400Y-114752600I0J237500D01*
G01*
X147505400Y-114177600D01*
G75*
G02*
X147742900Y-113940100I237500J0D01*
G01*
G37*
G36*
G01*
X146053800Y-115680000D02*
X146528800Y-115680000D01*
G75*
G02*
X146766300Y-115917500I0J-237500D01*
G01*
X146766300Y-116492500D01*
G75*
G02*
X146528800Y-116730000I-237500J0D01*
G01*
X146053800Y-116730000D01*
G75*
G02*
X145816300Y-116492500I0J237500D01*
G01*
X145816300Y-115917500D01*
G75*
G02*
X146053800Y-115680000I237500J0D01*
G01*
G37*
G36*
G01*
X146053800Y-113930000D02*
X146528800Y-113930000D01*
G75*
G02*
X146766300Y-114167500I0J-237500D01*
G01*
X146766300Y-114742500D01*
G75*
G02*
X146528800Y-114980000I-237500J0D01*
G01*
X146053800Y-114980000D01*
G75*
G02*
X145816300Y-114742500I0J237500D01*
G01*
X145816300Y-114167500D01*
G75*
G02*
X146053800Y-113930000I237500J0D01*
G01*
G37*
D10*
X138891000Y-152669200D03*
X138891000Y-154569200D03*
X136191000Y-154569200D03*
X136191000Y-153619200D03*
X136191000Y-152669200D03*
D11*
X136296900Y-135879600D03*
X137096900Y-135879600D03*
X137896900Y-135879600D03*
X138696900Y-135879600D03*
X139496900Y-135879600D03*
X140296900Y-135879600D03*
X141096900Y-135879600D03*
X141896900Y-135879600D03*
X142696900Y-135879600D03*
X143496900Y-135879600D03*
X144296900Y-135879600D03*
D12*
X145996900Y-137579600D03*
X145996900Y-138379600D03*
X145996900Y-139179600D03*
X145996900Y-139979600D03*
X145996900Y-140779600D03*
X145996900Y-141579600D03*
X145996900Y-142379600D03*
X145996900Y-143179600D03*
X145996900Y-143979600D03*
X145996900Y-144779600D03*
X145996900Y-145579600D03*
D11*
X144296900Y-147279600D03*
X143496900Y-147279600D03*
X142696900Y-147279600D03*
X141896900Y-147279600D03*
X141096900Y-147279600D03*
X140296900Y-147279600D03*
X139496900Y-147279600D03*
X138696900Y-147279600D03*
X137896900Y-147279600D03*
X137096900Y-147279600D03*
X136296900Y-147279600D03*
D12*
X134596900Y-145579600D03*
X134596900Y-144779600D03*
X134596900Y-143979600D03*
X134596900Y-143179600D03*
X134596900Y-142379600D03*
X134596900Y-141579600D03*
X134596900Y-140779600D03*
X134596900Y-139979600D03*
X134596900Y-139179600D03*
X134596900Y-138379600D03*
X134596900Y-137579600D03*
D13*
X139671000Y-77116100D03*
X139671000Y-76466100D03*
X139671000Y-75816100D03*
X139671000Y-75166100D03*
X139671000Y-74516100D03*
X139671000Y-73866100D03*
X139671000Y-73216100D03*
X139671000Y-72566100D03*
X145571000Y-72566100D03*
X145571000Y-73216100D03*
X145571000Y-73866100D03*
X145571000Y-74516100D03*
X145571000Y-75166100D03*
X145571000Y-75816100D03*
X145571000Y-76466100D03*
X145571000Y-77116100D03*
G36*
G01*
X137205900Y-77199500D02*
X137205900Y-76724500D01*
G75*
G02*
X137443400Y-76487000I237500J0D01*
G01*
X137943400Y-76487000D01*
G75*
G02*
X138180900Y-76724500I0J-237500D01*
G01*
X138180900Y-77199500D01*
G75*
G02*
X137943400Y-77437000I-237500J0D01*
G01*
X137443400Y-77437000D01*
G75*
G02*
X137205900Y-77199500I0J237500D01*
G01*
G37*
G36*
G01*
X135380900Y-77199500D02*
X135380900Y-76724500D01*
G75*
G02*
X135618400Y-76487000I237500J0D01*
G01*
X136118400Y-76487000D01*
G75*
G02*
X136355900Y-76724500I0J-237500D01*
G01*
X136355900Y-77199500D01*
G75*
G02*
X136118400Y-77437000I-237500J0D01*
G01*
X135618400Y-77437000D01*
G75*
G02*
X135380900Y-77199500I0J237500D01*
G01*
G37*
G36*
G01*
X146058700Y-78375500D02*
X146058700Y-78850500D01*
G75*
G02*
X145821200Y-79088000I-237500J0D01*
G01*
X145321200Y-79088000D01*
G75*
G02*
X145083700Y-78850500I0J237500D01*
G01*
X145083700Y-78375500D01*
G75*
G02*
X145321200Y-78138000I237500J0D01*
G01*
X145821200Y-78138000D01*
G75*
G02*
X146058700Y-78375500I0J-237500D01*
G01*
G37*
G36*
G01*
X147883700Y-78375500D02*
X147883700Y-78850500D01*
G75*
G02*
X147646200Y-79088000I-237500J0D01*
G01*
X147146200Y-79088000D01*
G75*
G02*
X146908700Y-78850500I0J237500D01*
G01*
X146908700Y-78375500D01*
G75*
G02*
X147146200Y-78138000I237500J0D01*
G01*
X147646200Y-78138000D01*
G75*
G02*
X147883700Y-78375500I0J-237500D01*
G01*
G37*
G36*
G01*
X147400000Y-75063400D02*
X147875000Y-75063400D01*
G75*
G02*
X148112500Y-75300900I0J-237500D01*
G01*
X148112500Y-75900900D01*
G75*
G02*
X147875000Y-76138400I-237500J0D01*
G01*
X147400000Y-76138400D01*
G75*
G02*
X147162500Y-75900900I0J237500D01*
G01*
X147162500Y-75300900D01*
G75*
G02*
X147400000Y-75063400I237500J0D01*
G01*
G37*
G36*
G01*
X147400000Y-73338400D02*
X147875000Y-73338400D01*
G75*
G02*
X148112500Y-73575900I0J-237500D01*
G01*
X148112500Y-74175900D01*
G75*
G02*
X147875000Y-74413400I-237500J0D01*
G01*
X147400000Y-74413400D01*
G75*
G02*
X147162500Y-74175900I0J237500D01*
G01*
X147162500Y-73575900D01*
G75*
G02*
X147400000Y-73338400I237500J0D01*
G01*
G37*
G36*
G01*
X136455100Y-75200500D02*
X136455100Y-75675500D01*
G75*
G02*
X136217600Y-75913000I-237500J0D01*
G01*
X135617600Y-75913000D01*
G75*
G02*
X135380100Y-75675500I0J237500D01*
G01*
X135380100Y-75200500D01*
G75*
G02*
X135617600Y-74963000I237500J0D01*
G01*
X136217600Y-74963000D01*
G75*
G02*
X136455100Y-75200500I0J-237500D01*
G01*
G37*
G36*
G01*
X138180100Y-75200500D02*
X138180100Y-75675500D01*
G75*
G02*
X137942600Y-75913000I-237500J0D01*
G01*
X137342600Y-75913000D01*
G75*
G02*
X137105100Y-75675500I0J237500D01*
G01*
X137105100Y-75200500D01*
G75*
G02*
X137342600Y-74963000I237500J0D01*
G01*
X137942600Y-74963000D01*
G75*
G02*
X138180100Y-75200500I0J-237500D01*
G01*
G37*
G36*
G01*
X143793200Y-79853500D02*
X144268200Y-79853500D01*
G75*
G02*
X144505700Y-80091000I0J-237500D01*
G01*
X144505700Y-80691000D01*
G75*
G02*
X144268200Y-80928500I-237500J0D01*
G01*
X143793200Y-80928500D01*
G75*
G02*
X143555700Y-80691000I0J237500D01*
G01*
X143555700Y-80091000D01*
G75*
G02*
X143793200Y-79853500I237500J0D01*
G01*
G37*
G36*
G01*
X143793200Y-78128500D02*
X144268200Y-78128500D01*
G75*
G02*
X144505700Y-78366000I0J-237500D01*
G01*
X144505700Y-78966000D01*
G75*
G02*
X144268200Y-79203500I-237500J0D01*
G01*
X143793200Y-79203500D01*
G75*
G02*
X143555700Y-78966000I0J237500D01*
G01*
X143555700Y-78366000D01*
G75*
G02*
X143793200Y-78128500I237500J0D01*
G01*
G37*
G36*
G01*
X136429700Y-73663800D02*
X136429700Y-74138800D01*
G75*
G02*
X136192200Y-74376300I-237500J0D01*
G01*
X135592200Y-74376300D01*
G75*
G02*
X135354700Y-74138800I0J237500D01*
G01*
X135354700Y-73663800D01*
G75*
G02*
X135592200Y-73426300I237500J0D01*
G01*
X136192200Y-73426300D01*
G75*
G02*
X136429700Y-73663800I0J-237500D01*
G01*
G37*
G36*
G01*
X138154700Y-73663800D02*
X138154700Y-74138800D01*
G75*
G02*
X137917200Y-74376300I-237500J0D01*
G01*
X137317200Y-74376300D01*
G75*
G02*
X137079700Y-74138800I0J237500D01*
G01*
X137079700Y-73663800D01*
G75*
G02*
X137317200Y-73426300I237500J0D01*
G01*
X137917200Y-73426300D01*
G75*
G02*
X138154700Y-73663800I0J-237500D01*
G01*
G37*
G36*
G01*
X137105100Y-78723500D02*
X137105100Y-78248500D01*
G75*
G02*
X137342600Y-78011000I237500J0D01*
G01*
X137942600Y-78011000D01*
G75*
G02*
X138180100Y-78248500I0J-237500D01*
G01*
X138180100Y-78723500D01*
G75*
G02*
X137942600Y-78961000I-237500J0D01*
G01*
X137342600Y-78961000D01*
G75*
G02*
X137105100Y-78723500I0J237500D01*
G01*
G37*
G36*
G01*
X135380100Y-78723500D02*
X135380100Y-78248500D01*
G75*
G02*
X135617600Y-78011000I237500J0D01*
G01*
X136217600Y-78011000D01*
G75*
G02*
X136455100Y-78248500I0J-237500D01*
G01*
X136455100Y-78723500D01*
G75*
G02*
X136217600Y-78961000I-237500J0D01*
G01*
X135617600Y-78961000D01*
G75*
G02*
X135380100Y-78723500I0J237500D01*
G01*
G37*
G36*
G01*
X141204900Y-78375500D02*
X141204900Y-78850500D01*
G75*
G02*
X140967400Y-79088000I-237500J0D01*
G01*
X140367400Y-79088000D01*
G75*
G02*
X140129900Y-78850500I0J237500D01*
G01*
X140129900Y-78375500D01*
G75*
G02*
X140367400Y-78138000I237500J0D01*
G01*
X140967400Y-78138000D01*
G75*
G02*
X141204900Y-78375500I0J-237500D01*
G01*
G37*
G36*
G01*
X142929900Y-78375500D02*
X142929900Y-78850500D01*
G75*
G02*
X142692400Y-79088000I-237500J0D01*
G01*
X142092400Y-79088000D01*
G75*
G02*
X141854900Y-78850500I0J237500D01*
G01*
X141854900Y-78375500D01*
G75*
G02*
X142092400Y-78138000I237500J0D01*
G01*
X142692400Y-78138000D01*
G75*
G02*
X142929900Y-78375500I0J-237500D01*
G01*
G37*
G36*
G01*
X146156800Y-79912200D02*
X146156800Y-80387200D01*
G75*
G02*
X145919300Y-80624700I-237500J0D01*
G01*
X145319300Y-80624700D01*
G75*
G02*
X145081800Y-80387200I0J237500D01*
G01*
X145081800Y-79912200D01*
G75*
G02*
X145319300Y-79674700I237500J0D01*
G01*
X145919300Y-79674700D01*
G75*
G02*
X146156800Y-79912200I0J-237500D01*
G01*
G37*
G36*
G01*
X147881800Y-79912200D02*
X147881800Y-80387200D01*
G75*
G02*
X147644300Y-80624700I-237500J0D01*
G01*
X147044300Y-80624700D01*
G75*
G02*
X146806800Y-80387200I0J237500D01*
G01*
X146806800Y-79912200D01*
G75*
G02*
X147044300Y-79674700I237500J0D01*
G01*
X147644300Y-79674700D01*
G75*
G02*
X147881800Y-79912200I0J-237500D01*
G01*
G37*
G36*
G01*
X133435100Y-101795400D02*
X132960100Y-101795400D01*
G75*
G02*
X132722600Y-101557900I0J237500D01*
G01*
X132722600Y-101057900D01*
G75*
G02*
X132960100Y-100820400I237500J0D01*
G01*
X133435100Y-100820400D01*
G75*
G02*
X133672600Y-101057900I0J-237500D01*
G01*
X133672600Y-101557900D01*
G75*
G02*
X133435100Y-101795400I-237500J0D01*
G01*
G37*
G36*
G01*
X133435100Y-103620400D02*
X132960100Y-103620400D01*
G75*
G02*
X132722600Y-103382900I0J237500D01*
G01*
X132722600Y-102882900D01*
G75*
G02*
X132960100Y-102645400I237500J0D01*
G01*
X133435100Y-102645400D01*
G75*
G02*
X133672600Y-102882900I0J-237500D01*
G01*
X133672600Y-103382900D01*
G75*
G02*
X133435100Y-103620400I-237500J0D01*
G01*
G37*
G36*
G01*
X144734100Y-100308400D02*
X144734100Y-100783400D01*
G75*
G02*
X144496600Y-101020900I-237500J0D01*
G01*
X143996600Y-101020900D01*
G75*
G02*
X143759100Y-100783400I0J237500D01*
G01*
X143759100Y-100308400D01*
G75*
G02*
X143996600Y-100070900I237500J0D01*
G01*
X144496600Y-100070900D01*
G75*
G02*
X144734100Y-100308400I0J-237500D01*
G01*
G37*
G36*
G01*
X146559100Y-100308400D02*
X146559100Y-100783400D01*
G75*
G02*
X146321600Y-101020900I-237500J0D01*
G01*
X145821600Y-101020900D01*
G75*
G02*
X145584100Y-100783400I0J237500D01*
G01*
X145584100Y-100308400D01*
G75*
G02*
X145821600Y-100070900I237500J0D01*
G01*
X146321600Y-100070900D01*
G75*
G02*
X146559100Y-100308400I0J-237500D01*
G01*
G37*
G36*
G01*
X135048000Y-101898400D02*
X134573000Y-101898400D01*
G75*
G02*
X134335500Y-101660900I0J237500D01*
G01*
X134335500Y-101060900D01*
G75*
G02*
X134573000Y-100823400I237500J0D01*
G01*
X135048000Y-100823400D01*
G75*
G02*
X135285500Y-101060900I0J-237500D01*
G01*
X135285500Y-101660900D01*
G75*
G02*
X135048000Y-101898400I-237500J0D01*
G01*
G37*
G36*
G01*
X135048000Y-103623400D02*
X134573000Y-103623400D01*
G75*
G02*
X134335500Y-103385900I0J237500D01*
G01*
X134335500Y-102785900D01*
G75*
G02*
X134573000Y-102548400I237500J0D01*
G01*
X135048000Y-102548400D01*
G75*
G02*
X135285500Y-102785900I0J-237500D01*
G01*
X135285500Y-103385900D01*
G75*
G02*
X135048000Y-103623400I-237500J0D01*
G01*
G37*
G36*
G01*
X137571600Y-104537500D02*
X137571600Y-105012500D01*
G75*
G02*
X137334100Y-105250000I-237500J0D01*
G01*
X136734100Y-105250000D01*
G75*
G02*
X136496600Y-105012500I0J237500D01*
G01*
X136496600Y-104537500D01*
G75*
G02*
X136734100Y-104300000I237500J0D01*
G01*
X137334100Y-104300000D01*
G75*
G02*
X137571600Y-104537500I0J-237500D01*
G01*
G37*
G36*
G01*
X139296600Y-104537500D02*
X139296600Y-105012500D01*
G75*
G02*
X139059100Y-105250000I-237500J0D01*
G01*
X138459100Y-105250000D01*
G75*
G02*
X138221600Y-105012500I0J237500D01*
G01*
X138221600Y-104537500D01*
G75*
G02*
X138459100Y-104300000I237500J0D01*
G01*
X139059100Y-104300000D01*
G75*
G02*
X139296600Y-104537500I0J-237500D01*
G01*
G37*
G36*
G01*
X132961800Y-149852400D02*
X132961800Y-148902400D01*
G75*
G02*
X133211800Y-148652400I250000J0D01*
G01*
X133886800Y-148652400D01*
G75*
G02*
X134136800Y-148902400I0J-250000D01*
G01*
X134136800Y-149852400D01*
G75*
G02*
X133886800Y-150102400I-250000J0D01*
G01*
X133211800Y-150102400D01*
G75*
G02*
X132961800Y-149852400I0J250000D01*
G01*
G37*
G36*
G01*
X130886800Y-149852400D02*
X130886800Y-148902400D01*
G75*
G02*
X131136800Y-148652400I250000J0D01*
G01*
X131811800Y-148652400D01*
G75*
G02*
X132061800Y-148902400I0J-250000D01*
G01*
X132061800Y-149852400D01*
G75*
G02*
X131811800Y-150102400I-250000J0D01*
G01*
X131136800Y-150102400D01*
G75*
G02*
X130886800Y-149852400I0J250000D01*
G01*
G37*
G36*
G01*
X140699300Y-150765500D02*
X140699300Y-151240500D01*
G75*
G02*
X140461800Y-151478000I-237500J0D01*
G01*
X139961800Y-151478000D01*
G75*
G02*
X139724300Y-151240500I0J237500D01*
G01*
X139724300Y-150765500D01*
G75*
G02*
X139961800Y-150528000I237500J0D01*
G01*
X140461800Y-150528000D01*
G75*
G02*
X140699300Y-150765500I0J-237500D01*
G01*
G37*
G36*
G01*
X142524300Y-150765500D02*
X142524300Y-151240500D01*
G75*
G02*
X142286800Y-151478000I-237500J0D01*
G01*
X141786800Y-151478000D01*
G75*
G02*
X141549300Y-151240500I0J237500D01*
G01*
X141549300Y-150765500D01*
G75*
G02*
X141786800Y-150528000I237500J0D01*
G01*
X142286800Y-150528000D01*
G75*
G02*
X142524300Y-150765500I0J-237500D01*
G01*
G37*
G36*
G01*
X139937300Y-86325700D02*
X139937300Y-86800700D01*
G75*
G02*
X139699800Y-87038200I-237500J0D01*
G01*
X139199800Y-87038200D01*
G75*
G02*
X138962300Y-86800700I0J237500D01*
G01*
X138962300Y-86325700D01*
G75*
G02*
X139199800Y-86088200I237500J0D01*
G01*
X139699800Y-86088200D01*
G75*
G02*
X139937300Y-86325700I0J-237500D01*
G01*
G37*
G36*
G01*
X141762300Y-86325700D02*
X141762300Y-86800700D01*
G75*
G02*
X141524800Y-87038200I-237500J0D01*
G01*
X141024800Y-87038200D01*
G75*
G02*
X140787300Y-86800700I0J237500D01*
G01*
X140787300Y-86325700D01*
G75*
G02*
X141024800Y-86088200I237500J0D01*
G01*
X141524800Y-86088200D01*
G75*
G02*
X141762300Y-86325700I0J-237500D01*
G01*
G37*
G36*
G01*
X132355600Y-129583000D02*
X131880600Y-129583000D01*
G75*
G02*
X131643100Y-129345500I0J237500D01*
G01*
X131643100Y-128845500D01*
G75*
G02*
X131880600Y-128608000I237500J0D01*
G01*
X132355600Y-128608000D01*
G75*
G02*
X132593100Y-128845500I0J-237500D01*
G01*
X132593100Y-129345500D01*
G75*
G02*
X132355600Y-129583000I-237500J0D01*
G01*
G37*
G36*
G01*
X132355600Y-131408000D02*
X131880600Y-131408000D01*
G75*
G02*
X131643100Y-131170500I0J237500D01*
G01*
X131643100Y-130670500D01*
G75*
G02*
X131880600Y-130433000I237500J0D01*
G01*
X132355600Y-130433000D01*
G75*
G02*
X132593100Y-130670500I0J-237500D01*
G01*
X132593100Y-131170500D01*
G75*
G02*
X132355600Y-131408000I-237500J0D01*
G01*
G37*
D14*
X142309600Y-127222000D03*
X142309600Y-123222000D03*
X138309600Y-123222000D03*
X138309600Y-127222000D03*
D15*
X134609600Y-128972000D03*
X134609600Y-128472000D03*
X134609600Y-127972000D03*
X134609600Y-127472000D03*
X134609600Y-126972000D03*
X134609600Y-126472000D03*
X134609600Y-125972000D03*
X134609600Y-125472000D03*
X134609600Y-124972000D03*
X134609600Y-124472000D03*
X134609600Y-123972000D03*
X134609600Y-123472000D03*
X134609600Y-122972000D03*
X134609600Y-122472000D03*
X134609600Y-121972000D03*
X134609600Y-121472000D03*
D16*
X136559600Y-119522000D03*
X137059600Y-119522000D03*
X137559600Y-119522000D03*
X138059600Y-119522000D03*
X138559600Y-119522000D03*
X139059600Y-119522000D03*
X139559600Y-119522000D03*
X140059600Y-119522000D03*
X140559600Y-119522000D03*
X141059600Y-119522000D03*
X141559600Y-119522000D03*
X142059600Y-119522000D03*
X142559600Y-119522000D03*
X143059600Y-119522000D03*
X143559600Y-119522000D03*
X144059600Y-119522000D03*
D15*
X146009600Y-121472000D03*
X146009600Y-121972000D03*
X146009600Y-122472000D03*
X146009600Y-122972000D03*
X146009600Y-123472000D03*
X146009600Y-123972000D03*
X146009600Y-124472000D03*
X146009600Y-124972000D03*
X146009600Y-125472000D03*
X146009600Y-125972000D03*
X146009600Y-126472000D03*
X146009600Y-126972000D03*
X146009600Y-127472000D03*
X146009600Y-127972000D03*
X146009600Y-128472000D03*
X146009600Y-128972000D03*
D16*
X144059600Y-130922000D03*
X143559600Y-130922000D03*
X143059600Y-130922000D03*
X142559600Y-130922000D03*
X142059600Y-130922000D03*
X141559600Y-130922000D03*
X141059600Y-130922000D03*
X140559600Y-130922000D03*
X140059600Y-130922000D03*
X139559600Y-130922000D03*
X139059600Y-130922000D03*
X138559600Y-130922000D03*
X138059600Y-130922000D03*
X137559600Y-130922000D03*
X137059600Y-130922000D03*
X136559600Y-130922000D03*
G36*
G01*
X144484100Y-153653300D02*
X144009100Y-153653300D01*
G75*
G02*
X143771600Y-153415800I0J237500D01*
G01*
X143771600Y-152915800D01*
G75*
G02*
X144009100Y-152678300I237500J0D01*
G01*
X144484100Y-152678300D01*
G75*
G02*
X144721600Y-152915800I0J-237500D01*
G01*
X144721600Y-153415800D01*
G75*
G02*
X144484100Y-153653300I-237500J0D01*
G01*
G37*
G36*
G01*
X144484100Y-155478300D02*
X144009100Y-155478300D01*
G75*
G02*
X143771600Y-155240800I0J237500D01*
G01*
X143771600Y-154740800D01*
G75*
G02*
X144009100Y-154503300I237500J0D01*
G01*
X144484100Y-154503300D01*
G75*
G02*
X144721600Y-154740800I0J-237500D01*
G01*
X144721600Y-155240800D01*
G75*
G02*
X144484100Y-155478300I-237500J0D01*
G01*
G37*
G36*
G01*
X144009100Y-151175900D02*
X144484100Y-151175900D01*
G75*
G02*
X144721600Y-151413400I0J-237500D01*
G01*
X144721600Y-151913400D01*
G75*
G02*
X144484100Y-152150900I-237500J0D01*
G01*
X144009100Y-152150900D01*
G75*
G02*
X143771600Y-151913400I0J237500D01*
G01*
X143771600Y-151413400D01*
G75*
G02*
X144009100Y-151175900I237500J0D01*
G01*
G37*
G36*
G01*
X144009100Y-149350900D02*
X144484100Y-149350900D01*
G75*
G02*
X144721600Y-149588400I0J-237500D01*
G01*
X144721600Y-150088400D01*
G75*
G02*
X144484100Y-150325900I-237500J0D01*
G01*
X144009100Y-150325900D01*
G75*
G02*
X143771600Y-150088400I0J237500D01*
G01*
X143771600Y-149588400D01*
G75*
G02*
X144009100Y-149350900I237500J0D01*
G01*
G37*
G36*
G01*
X148085800Y-141956500D02*
X148560800Y-141956500D01*
G75*
G02*
X148798300Y-142194000I0J-237500D01*
G01*
X148798300Y-142794000D01*
G75*
G02*
X148560800Y-143031500I-237500J0D01*
G01*
X148085800Y-143031500D01*
G75*
G02*
X147848300Y-142794000I0J237500D01*
G01*
X147848300Y-142194000D01*
G75*
G02*
X148085800Y-141956500I237500J0D01*
G01*
G37*
G36*
G01*
X148085800Y-140231500D02*
X148560800Y-140231500D01*
G75*
G02*
X148798300Y-140469000I0J-237500D01*
G01*
X148798300Y-141069000D01*
G75*
G02*
X148560800Y-141306500I-237500J0D01*
G01*
X148085800Y-141306500D01*
G75*
G02*
X147848300Y-141069000I0J237500D01*
G01*
X147848300Y-140469000D01*
G75*
G02*
X148085800Y-140231500I237500J0D01*
G01*
G37*
G36*
G01*
X139884200Y-134070100D02*
X139884200Y-133595100D01*
G75*
G02*
X140121700Y-133357600I237500J0D01*
G01*
X140721700Y-133357600D01*
G75*
G02*
X140959200Y-133595100I0J-237500D01*
G01*
X140959200Y-134070100D01*
G75*
G02*
X140721700Y-134307600I-237500J0D01*
G01*
X140121700Y-134307600D01*
G75*
G02*
X139884200Y-134070100I0J237500D01*
G01*
G37*
G36*
G01*
X138159200Y-134070100D02*
X138159200Y-133595100D01*
G75*
G02*
X138396700Y-133357600I237500J0D01*
G01*
X138996700Y-133357600D01*
G75*
G02*
X139234200Y-133595100I0J-237500D01*
G01*
X139234200Y-134070100D01*
G75*
G02*
X138996700Y-134307600I-237500J0D01*
G01*
X138396700Y-134307600D01*
G75*
G02*
X138159200Y-134070100I0J237500D01*
G01*
G37*
G36*
G01*
X132584200Y-142792400D02*
X132109200Y-142792400D01*
G75*
G02*
X131871700Y-142554900I0J237500D01*
G01*
X131871700Y-141954900D01*
G75*
G02*
X132109200Y-141717400I237500J0D01*
G01*
X132584200Y-141717400D01*
G75*
G02*
X132821700Y-141954900I0J-237500D01*
G01*
X132821700Y-142554900D01*
G75*
G02*
X132584200Y-142792400I-237500J0D01*
G01*
G37*
G36*
G01*
X132584200Y-144517400D02*
X132109200Y-144517400D01*
G75*
G02*
X131871700Y-144279900I0J237500D01*
G01*
X131871700Y-143679900D01*
G75*
G02*
X132109200Y-143442400I237500J0D01*
G01*
X132584200Y-143442400D01*
G75*
G02*
X132821700Y-143679900I0J-237500D01*
G01*
X132821700Y-144279900D01*
G75*
G02*
X132584200Y-144517400I-237500J0D01*
G01*
G37*
G36*
G01*
X141473900Y-149538700D02*
X141473900Y-149063700D01*
G75*
G02*
X141711400Y-148826200I237500J0D01*
G01*
X142311400Y-148826200D01*
G75*
G02*
X142548900Y-149063700I0J-237500D01*
G01*
X142548900Y-149538700D01*
G75*
G02*
X142311400Y-149776200I-237500J0D01*
G01*
X141711400Y-149776200D01*
G75*
G02*
X141473900Y-149538700I0J237500D01*
G01*
G37*
G36*
G01*
X139748900Y-149538700D02*
X139748900Y-149063700D01*
G75*
G02*
X139986400Y-148826200I237500J0D01*
G01*
X140586400Y-148826200D01*
G75*
G02*
X140823900Y-149063700I0J-237500D01*
G01*
X140823900Y-149538700D01*
G75*
G02*
X140586400Y-149776200I-237500J0D01*
G01*
X139986400Y-149776200D01*
G75*
G02*
X139748900Y-149538700I0J237500D01*
G01*
G37*
G36*
G01*
X143277300Y-133524000D02*
X143277300Y-133049000D01*
G75*
G02*
X143514800Y-132811500I237500J0D01*
G01*
X144114800Y-132811500D01*
G75*
G02*
X144352300Y-133049000I0J-237500D01*
G01*
X144352300Y-133524000D01*
G75*
G02*
X144114800Y-133761500I-237500J0D01*
G01*
X143514800Y-133761500D01*
G75*
G02*
X143277300Y-133524000I0J237500D01*
G01*
G37*
G36*
G01*
X141552300Y-133524000D02*
X141552300Y-133049000D01*
G75*
G02*
X141789800Y-132811500I237500J0D01*
G01*
X142389800Y-132811500D01*
G75*
G02*
X142627300Y-133049000I0J-237500D01*
G01*
X142627300Y-133524000D01*
G75*
G02*
X142389800Y-133761500I-237500J0D01*
G01*
X141789800Y-133761500D01*
G75*
G02*
X141552300Y-133524000I0J237500D01*
G01*
G37*
G36*
G01*
X135309900Y-133557000D02*
X135309900Y-134032000D01*
G75*
G02*
X135072400Y-134269500I-237500J0D01*
G01*
X134472400Y-134269500D01*
G75*
G02*
X134234900Y-134032000I0J237500D01*
G01*
X134234900Y-133557000D01*
G75*
G02*
X134472400Y-133319500I237500J0D01*
G01*
X135072400Y-133319500D01*
G75*
G02*
X135309900Y-133557000I0J-237500D01*
G01*
G37*
G36*
G01*
X137034900Y-133557000D02*
X137034900Y-134032000D01*
G75*
G02*
X136797400Y-134269500I-237500J0D01*
G01*
X136197400Y-134269500D01*
G75*
G02*
X135959900Y-134032000I0J237500D01*
G01*
X135959900Y-133557000D01*
G75*
G02*
X136197400Y-133319500I237500J0D01*
G01*
X136797400Y-133319500D01*
G75*
G02*
X137034900Y-133557000I0J-237500D01*
G01*
G37*
G36*
G01*
X131880600Y-134321600D02*
X132355600Y-134321600D01*
G75*
G02*
X132593100Y-134559100I0J-237500D01*
G01*
X132593100Y-135159100D01*
G75*
G02*
X132355600Y-135396600I-237500J0D01*
G01*
X131880600Y-135396600D01*
G75*
G02*
X131643100Y-135159100I0J237500D01*
G01*
X131643100Y-134559100D01*
G75*
G02*
X131880600Y-134321600I237500J0D01*
G01*
G37*
G36*
G01*
X131880600Y-132596600D02*
X132355600Y-132596600D01*
G75*
G02*
X132593100Y-132834100I0J-237500D01*
G01*
X132593100Y-133434100D01*
G75*
G02*
X132355600Y-133671600I-237500J0D01*
G01*
X131880600Y-133671600D01*
G75*
G02*
X131643100Y-133434100I0J237500D01*
G01*
X131643100Y-132834100D01*
G75*
G02*
X131880600Y-132596600I237500J0D01*
G01*
G37*
G36*
G01*
X132123600Y-105864950D02*
X132123600Y-106377450D01*
G75*
G02*
X131904850Y-106596200I-218750J0D01*
G01*
X131467350Y-106596200D01*
G75*
G02*
X131248600Y-106377450I0J218750D01*
G01*
X131248600Y-105864950D01*
G75*
G02*
X131467350Y-105646200I218750J0D01*
G01*
X131904850Y-105646200D01*
G75*
G02*
X132123600Y-105864950I0J-218750D01*
G01*
G37*
G36*
G01*
X133698600Y-105864950D02*
X133698600Y-106377450D01*
G75*
G02*
X133479850Y-106596200I-218750J0D01*
G01*
X133042350Y-106596200D01*
G75*
G02*
X132823600Y-106377450I0J218750D01*
G01*
X132823600Y-105864950D01*
G75*
G02*
X133042350Y-105646200I218750J0D01*
G01*
X133479850Y-105646200D01*
G75*
G02*
X133698600Y-105864950I0J-218750D01*
G01*
G37*
D17*
X133718300Y-108445300D03*
X133718300Y-110985300D03*
X131518300Y-110985300D03*
X131518300Y-108445300D03*
G36*
G01*
X137958700Y-102935900D02*
X137958700Y-103235900D01*
G75*
G02*
X137808700Y-103385900I-150000J0D01*
G01*
X136158700Y-103385900D01*
G75*
G02*
X136008700Y-103235900I0J150000D01*
G01*
X136008700Y-102935900D01*
G75*
G02*
X136158700Y-102785900I150000J0D01*
G01*
X137808700Y-102785900D01*
G75*
G02*
X137958700Y-102935900I0J-150000D01*
G01*
G37*
G36*
G01*
X137958700Y-101665900D02*
X137958700Y-101965900D01*
G75*
G02*
X137808700Y-102115900I-150000J0D01*
G01*
X136158700Y-102115900D01*
G75*
G02*
X136008700Y-101965900I0J150000D01*
G01*
X136008700Y-101665900D01*
G75*
G02*
X136158700Y-101515900I150000J0D01*
G01*
X137808700Y-101515900D01*
G75*
G02*
X137958700Y-101665900I0J-150000D01*
G01*
G37*
G36*
G01*
X137958700Y-100395900D02*
X137958700Y-100695900D01*
G75*
G02*
X137808700Y-100845900I-150000J0D01*
G01*
X136158700Y-100845900D01*
G75*
G02*
X136008700Y-100695900I0J150000D01*
G01*
X136008700Y-100395900D01*
G75*
G02*
X136158700Y-100245900I150000J0D01*
G01*
X137808700Y-100245900D01*
G75*
G02*
X137958700Y-100395900I0J-150000D01*
G01*
G37*
G36*
G01*
X137958700Y-99125900D02*
X137958700Y-99425900D01*
G75*
G02*
X137808700Y-99575900I-150000J0D01*
G01*
X136158700Y-99575900D01*
G75*
G02*
X136008700Y-99425900I0J150000D01*
G01*
X136008700Y-99125900D01*
G75*
G02*
X136158700Y-98975900I150000J0D01*
G01*
X137808700Y-98975900D01*
G75*
G02*
X137958700Y-99125900I0J-150000D01*
G01*
G37*
G36*
G01*
X142908700Y-99125900D02*
X142908700Y-99425900D01*
G75*
G02*
X142758700Y-99575900I-150000J0D01*
G01*
X141108700Y-99575900D01*
G75*
G02*
X140958700Y-99425900I0J150000D01*
G01*
X140958700Y-99125900D01*
G75*
G02*
X141108700Y-98975900I150000J0D01*
G01*
X142758700Y-98975900D01*
G75*
G02*
X142908700Y-99125900I0J-150000D01*
G01*
G37*
G36*
G01*
X142908700Y-100395900D02*
X142908700Y-100695900D01*
G75*
G02*
X142758700Y-100845900I-150000J0D01*
G01*
X141108700Y-100845900D01*
G75*
G02*
X140958700Y-100695900I0J150000D01*
G01*
X140958700Y-100395900D01*
G75*
G02*
X141108700Y-100245900I150000J0D01*
G01*
X142758700Y-100245900D01*
G75*
G02*
X142908700Y-100395900I0J-150000D01*
G01*
G37*
G36*
G01*
X142908700Y-101665900D02*
X142908700Y-101965900D01*
G75*
G02*
X142758700Y-102115900I-150000J0D01*
G01*
X141108700Y-102115900D01*
G75*
G02*
X140958700Y-101965900I0J150000D01*
G01*
X140958700Y-101665900D01*
G75*
G02*
X141108700Y-101515900I150000J0D01*
G01*
X142758700Y-101515900D01*
G75*
G02*
X142908700Y-101665900I0J-150000D01*
G01*
G37*
G36*
G01*
X142908700Y-102935900D02*
X142908700Y-103235900D01*
G75*
G02*
X142758700Y-103385900I-150000J0D01*
G01*
X141108700Y-103385900D01*
G75*
G02*
X140958700Y-103235900I0J150000D01*
G01*
X140958700Y-102935900D01*
G75*
G02*
X141108700Y-102785900I150000J0D01*
G01*
X142758700Y-102785900D01*
G75*
G02*
X142908700Y-102935900I0J-150000D01*
G01*
G37*
G36*
G01*
X136993900Y-113974600D02*
X136318900Y-113974600D01*
G75*
G02*
X136256400Y-113912100I0J62500D01*
G01*
X136256400Y-113787100D01*
G75*
G02*
X136318900Y-113724600I62500J0D01*
G01*
X136993900Y-113724600D01*
G75*
G02*
X137056400Y-113787100I0J-62500D01*
G01*
X137056400Y-113912100D01*
G75*
G02*
X136993900Y-113974600I-62500J0D01*
G01*
G37*
G36*
G01*
X136993900Y-113474600D02*
X136318900Y-113474600D01*
G75*
G02*
X136256400Y-113412100I0J62500D01*
G01*
X136256400Y-113287100D01*
G75*
G02*
X136318900Y-113224600I62500J0D01*
G01*
X136993900Y-113224600D01*
G75*
G02*
X137056400Y-113287100I0J-62500D01*
G01*
X137056400Y-113412100D01*
G75*
G02*
X136993900Y-113474600I-62500J0D01*
G01*
G37*
G36*
G01*
X136993900Y-112974600D02*
X136318900Y-112974600D01*
G75*
G02*
X136256400Y-112912100I0J62500D01*
G01*
X136256400Y-112787100D01*
G75*
G02*
X136318900Y-112724600I62500J0D01*
G01*
X136993900Y-112724600D01*
G75*
G02*
X137056400Y-112787100I0J-62500D01*
G01*
X137056400Y-112912100D01*
G75*
G02*
X136993900Y-112974600I-62500J0D01*
G01*
G37*
G36*
G01*
X136993900Y-112474600D02*
X136318900Y-112474600D01*
G75*
G02*
X136256400Y-112412100I0J62500D01*
G01*
X136256400Y-112287100D01*
G75*
G02*
X136318900Y-112224600I62500J0D01*
G01*
X136993900Y-112224600D01*
G75*
G02*
X137056400Y-112287100I0J-62500D01*
G01*
X137056400Y-112412100D01*
G75*
G02*
X136993900Y-112474600I-62500J0D01*
G01*
G37*
G36*
G01*
X136993900Y-111974600D02*
X136318900Y-111974600D01*
G75*
G02*
X136256400Y-111912100I0J62500D01*
G01*
X136256400Y-111787100D01*
G75*
G02*
X136318900Y-111724600I62500J0D01*
G01*
X136993900Y-111724600D01*
G75*
G02*
X137056400Y-111787100I0J-62500D01*
G01*
X137056400Y-111912100D01*
G75*
G02*
X136993900Y-111974600I-62500J0D01*
G01*
G37*
G36*
G01*
X136993900Y-111474600D02*
X136318900Y-111474600D01*
G75*
G02*
X136256400Y-111412100I0J62500D01*
G01*
X136256400Y-111287100D01*
G75*
G02*
X136318900Y-111224600I62500J0D01*
G01*
X136993900Y-111224600D01*
G75*
G02*
X137056400Y-111287100I0J-62500D01*
G01*
X137056400Y-111412100D01*
G75*
G02*
X136993900Y-111474600I-62500J0D01*
G01*
G37*
G36*
G01*
X136993900Y-110974600D02*
X136318900Y-110974600D01*
G75*
G02*
X136256400Y-110912100I0J62500D01*
G01*
X136256400Y-110787100D01*
G75*
G02*
X136318900Y-110724600I62500J0D01*
G01*
X136993900Y-110724600D01*
G75*
G02*
X137056400Y-110787100I0J-62500D01*
G01*
X137056400Y-110912100D01*
G75*
G02*
X136993900Y-110974600I-62500J0D01*
G01*
G37*
G36*
G01*
X136993900Y-110474600D02*
X136318900Y-110474600D01*
G75*
G02*
X136256400Y-110412100I0J62500D01*
G01*
X136256400Y-110287100D01*
G75*
G02*
X136318900Y-110224600I62500J0D01*
G01*
X136993900Y-110224600D01*
G75*
G02*
X137056400Y-110287100I0J-62500D01*
G01*
X137056400Y-110412100D01*
G75*
G02*
X136993900Y-110474600I-62500J0D01*
G01*
G37*
G36*
G01*
X136993900Y-109974600D02*
X136318900Y-109974600D01*
G75*
G02*
X136256400Y-109912100I0J62500D01*
G01*
X136256400Y-109787100D01*
G75*
G02*
X136318900Y-109724600I62500J0D01*
G01*
X136993900Y-109724600D01*
G75*
G02*
X137056400Y-109787100I0J-62500D01*
G01*
X137056400Y-109912100D01*
G75*
G02*
X136993900Y-109974600I-62500J0D01*
G01*
G37*
G36*
G01*
X136993900Y-109474600D02*
X136318900Y-109474600D01*
G75*
G02*
X136256400Y-109412100I0J62500D01*
G01*
X136256400Y-109287100D01*
G75*
G02*
X136318900Y-109224600I62500J0D01*
G01*
X136993900Y-109224600D01*
G75*
G02*
X137056400Y-109287100I0J-62500D01*
G01*
X137056400Y-109412100D01*
G75*
G02*
X136993900Y-109474600I-62500J0D01*
G01*
G37*
G36*
G01*
X136993900Y-108974600D02*
X136318900Y-108974600D01*
G75*
G02*
X136256400Y-108912100I0J62500D01*
G01*
X136256400Y-108787100D01*
G75*
G02*
X136318900Y-108724600I62500J0D01*
G01*
X136993900Y-108724600D01*
G75*
G02*
X137056400Y-108787100I0J-62500D01*
G01*
X137056400Y-108912100D01*
G75*
G02*
X136993900Y-108974600I-62500J0D01*
G01*
G37*
G36*
G01*
X136993900Y-108474600D02*
X136318900Y-108474600D01*
G75*
G02*
X136256400Y-108412100I0J62500D01*
G01*
X136256400Y-108287100D01*
G75*
G02*
X136318900Y-108224600I62500J0D01*
G01*
X136993900Y-108224600D01*
G75*
G02*
X137056400Y-108287100I0J-62500D01*
G01*
X137056400Y-108412100D01*
G75*
G02*
X136993900Y-108474600I-62500J0D01*
G01*
G37*
G36*
G01*
X137418900Y-108049600D02*
X137293900Y-108049600D01*
G75*
G02*
X137231400Y-107987100I0J62500D01*
G01*
X137231400Y-107312100D01*
G75*
G02*
X137293900Y-107249600I62500J0D01*
G01*
X137418900Y-107249600D01*
G75*
G02*
X137481400Y-107312100I0J-62500D01*
G01*
X137481400Y-107987100D01*
G75*
G02*
X137418900Y-108049600I-62500J0D01*
G01*
G37*
G36*
G01*
X137918900Y-108049600D02*
X137793900Y-108049600D01*
G75*
G02*
X137731400Y-107987100I0J62500D01*
G01*
X137731400Y-107312100D01*
G75*
G02*
X137793900Y-107249600I62500J0D01*
G01*
X137918900Y-107249600D01*
G75*
G02*
X137981400Y-107312100I0J-62500D01*
G01*
X137981400Y-107987100D01*
G75*
G02*
X137918900Y-108049600I-62500J0D01*
G01*
G37*
G36*
G01*
X138418900Y-108049600D02*
X138293900Y-108049600D01*
G75*
G02*
X138231400Y-107987100I0J62500D01*
G01*
X138231400Y-107312100D01*
G75*
G02*
X138293900Y-107249600I62500J0D01*
G01*
X138418900Y-107249600D01*
G75*
G02*
X138481400Y-107312100I0J-62500D01*
G01*
X138481400Y-107987100D01*
G75*
G02*
X138418900Y-108049600I-62500J0D01*
G01*
G37*
G36*
G01*
X138918900Y-108049600D02*
X138793900Y-108049600D01*
G75*
G02*
X138731400Y-107987100I0J62500D01*
G01*
X138731400Y-107312100D01*
G75*
G02*
X138793900Y-107249600I62500J0D01*
G01*
X138918900Y-107249600D01*
G75*
G02*
X138981400Y-107312100I0J-62500D01*
G01*
X138981400Y-107987100D01*
G75*
G02*
X138918900Y-108049600I-62500J0D01*
G01*
G37*
G36*
G01*
X139418900Y-108049600D02*
X139293900Y-108049600D01*
G75*
G02*
X139231400Y-107987100I0J62500D01*
G01*
X139231400Y-107312100D01*
G75*
G02*
X139293900Y-107249600I62500J0D01*
G01*
X139418900Y-107249600D01*
G75*
G02*
X139481400Y-107312100I0J-62500D01*
G01*
X139481400Y-107987100D01*
G75*
G02*
X139418900Y-108049600I-62500J0D01*
G01*
G37*
G36*
G01*
X139918900Y-108049600D02*
X139793900Y-108049600D01*
G75*
G02*
X139731400Y-107987100I0J62500D01*
G01*
X139731400Y-107312100D01*
G75*
G02*
X139793900Y-107249600I62500J0D01*
G01*
X139918900Y-107249600D01*
G75*
G02*
X139981400Y-107312100I0J-62500D01*
G01*
X139981400Y-107987100D01*
G75*
G02*
X139918900Y-108049600I-62500J0D01*
G01*
G37*
G36*
G01*
X140418900Y-108049600D02*
X140293900Y-108049600D01*
G75*
G02*
X140231400Y-107987100I0J62500D01*
G01*
X140231400Y-107312100D01*
G75*
G02*
X140293900Y-107249600I62500J0D01*
G01*
X140418900Y-107249600D01*
G75*
G02*
X140481400Y-107312100I0J-62500D01*
G01*
X140481400Y-107987100D01*
G75*
G02*
X140418900Y-108049600I-62500J0D01*
G01*
G37*
G36*
G01*
X140918900Y-108049600D02*
X140793900Y-108049600D01*
G75*
G02*
X140731400Y-107987100I0J62500D01*
G01*
X140731400Y-107312100D01*
G75*
G02*
X140793900Y-107249600I62500J0D01*
G01*
X140918900Y-107249600D01*
G75*
G02*
X140981400Y-107312100I0J-62500D01*
G01*
X140981400Y-107987100D01*
G75*
G02*
X140918900Y-108049600I-62500J0D01*
G01*
G37*
G36*
G01*
X141418900Y-108049600D02*
X141293900Y-108049600D01*
G75*
G02*
X141231400Y-107987100I0J62500D01*
G01*
X141231400Y-107312100D01*
G75*
G02*
X141293900Y-107249600I62500J0D01*
G01*
X141418900Y-107249600D01*
G75*
G02*
X141481400Y-107312100I0J-62500D01*
G01*
X141481400Y-107987100D01*
G75*
G02*
X141418900Y-108049600I-62500J0D01*
G01*
G37*
G36*
G01*
X141918900Y-108049600D02*
X141793900Y-108049600D01*
G75*
G02*
X141731400Y-107987100I0J62500D01*
G01*
X141731400Y-107312100D01*
G75*
G02*
X141793900Y-107249600I62500J0D01*
G01*
X141918900Y-107249600D01*
G75*
G02*
X141981400Y-107312100I0J-62500D01*
G01*
X141981400Y-107987100D01*
G75*
G02*
X141918900Y-108049600I-62500J0D01*
G01*
G37*
G36*
G01*
X142418900Y-108049600D02*
X142293900Y-108049600D01*
G75*
G02*
X142231400Y-107987100I0J62500D01*
G01*
X142231400Y-107312100D01*
G75*
G02*
X142293900Y-107249600I62500J0D01*
G01*
X142418900Y-107249600D01*
G75*
G02*
X142481400Y-107312100I0J-62500D01*
G01*
X142481400Y-107987100D01*
G75*
G02*
X142418900Y-108049600I-62500J0D01*
G01*
G37*
G36*
G01*
X142918900Y-108049600D02*
X142793900Y-108049600D01*
G75*
G02*
X142731400Y-107987100I0J62500D01*
G01*
X142731400Y-107312100D01*
G75*
G02*
X142793900Y-107249600I62500J0D01*
G01*
X142918900Y-107249600D01*
G75*
G02*
X142981400Y-107312100I0J-62500D01*
G01*
X142981400Y-107987100D01*
G75*
G02*
X142918900Y-108049600I-62500J0D01*
G01*
G37*
G36*
G01*
X143893900Y-108474600D02*
X143218900Y-108474600D01*
G75*
G02*
X143156400Y-108412100I0J62500D01*
G01*
X143156400Y-108287100D01*
G75*
G02*
X143218900Y-108224600I62500J0D01*
G01*
X143893900Y-108224600D01*
G75*
G02*
X143956400Y-108287100I0J-62500D01*
G01*
X143956400Y-108412100D01*
G75*
G02*
X143893900Y-108474600I-62500J0D01*
G01*
G37*
G36*
G01*
X143893900Y-108974600D02*
X143218900Y-108974600D01*
G75*
G02*
X143156400Y-108912100I0J62500D01*
G01*
X143156400Y-108787100D01*
G75*
G02*
X143218900Y-108724600I62500J0D01*
G01*
X143893900Y-108724600D01*
G75*
G02*
X143956400Y-108787100I0J-62500D01*
G01*
X143956400Y-108912100D01*
G75*
G02*
X143893900Y-108974600I-62500J0D01*
G01*
G37*
G36*
G01*
X143893900Y-109474600D02*
X143218900Y-109474600D01*
G75*
G02*
X143156400Y-109412100I0J62500D01*
G01*
X143156400Y-109287100D01*
G75*
G02*
X143218900Y-109224600I62500J0D01*
G01*
X143893900Y-109224600D01*
G75*
G02*
X143956400Y-109287100I0J-62500D01*
G01*
X143956400Y-109412100D01*
G75*
G02*
X143893900Y-109474600I-62500J0D01*
G01*
G37*
G36*
G01*
X143893900Y-109974600D02*
X143218900Y-109974600D01*
G75*
G02*
X143156400Y-109912100I0J62500D01*
G01*
X143156400Y-109787100D01*
G75*
G02*
X143218900Y-109724600I62500J0D01*
G01*
X143893900Y-109724600D01*
G75*
G02*
X143956400Y-109787100I0J-62500D01*
G01*
X143956400Y-109912100D01*
G75*
G02*
X143893900Y-109974600I-62500J0D01*
G01*
G37*
G36*
G01*
X143893900Y-110474600D02*
X143218900Y-110474600D01*
G75*
G02*
X143156400Y-110412100I0J62500D01*
G01*
X143156400Y-110287100D01*
G75*
G02*
X143218900Y-110224600I62500J0D01*
G01*
X143893900Y-110224600D01*
G75*
G02*
X143956400Y-110287100I0J-62500D01*
G01*
X143956400Y-110412100D01*
G75*
G02*
X143893900Y-110474600I-62500J0D01*
G01*
G37*
G36*
G01*
X143893900Y-110974600D02*
X143218900Y-110974600D01*
G75*
G02*
X143156400Y-110912100I0J62500D01*
G01*
X143156400Y-110787100D01*
G75*
G02*
X143218900Y-110724600I62500J0D01*
G01*
X143893900Y-110724600D01*
G75*
G02*
X143956400Y-110787100I0J-62500D01*
G01*
X143956400Y-110912100D01*
G75*
G02*
X143893900Y-110974600I-62500J0D01*
G01*
G37*
G36*
G01*
X143893900Y-111474600D02*
X143218900Y-111474600D01*
G75*
G02*
X143156400Y-111412100I0J62500D01*
G01*
X143156400Y-111287100D01*
G75*
G02*
X143218900Y-111224600I62500J0D01*
G01*
X143893900Y-111224600D01*
G75*
G02*
X143956400Y-111287100I0J-62500D01*
G01*
X143956400Y-111412100D01*
G75*
G02*
X143893900Y-111474600I-62500J0D01*
G01*
G37*
G36*
G01*
X143893900Y-111974600D02*
X143218900Y-111974600D01*
G75*
G02*
X143156400Y-111912100I0J62500D01*
G01*
X143156400Y-111787100D01*
G75*
G02*
X143218900Y-111724600I62500J0D01*
G01*
X143893900Y-111724600D01*
G75*
G02*
X143956400Y-111787100I0J-62500D01*
G01*
X143956400Y-111912100D01*
G75*
G02*
X143893900Y-111974600I-62500J0D01*
G01*
G37*
G36*
G01*
X143893900Y-112474600D02*
X143218900Y-112474600D01*
G75*
G02*
X143156400Y-112412100I0J62500D01*
G01*
X143156400Y-112287100D01*
G75*
G02*
X143218900Y-112224600I62500J0D01*
G01*
X143893900Y-112224600D01*
G75*
G02*
X143956400Y-112287100I0J-62500D01*
G01*
X143956400Y-112412100D01*
G75*
G02*
X143893900Y-112474600I-62500J0D01*
G01*
G37*
G36*
G01*
X143893900Y-112974600D02*
X143218900Y-112974600D01*
G75*
G02*
X143156400Y-112912100I0J62500D01*
G01*
X143156400Y-112787100D01*
G75*
G02*
X143218900Y-112724600I62500J0D01*
G01*
X143893900Y-112724600D01*
G75*
G02*
X143956400Y-112787100I0J-62500D01*
G01*
X143956400Y-112912100D01*
G75*
G02*
X143893900Y-112974600I-62500J0D01*
G01*
G37*
G36*
G01*
X143893900Y-113474600D02*
X143218900Y-113474600D01*
G75*
G02*
X143156400Y-113412100I0J62500D01*
G01*
X143156400Y-113287100D01*
G75*
G02*
X143218900Y-113224600I62500J0D01*
G01*
X143893900Y-113224600D01*
G75*
G02*
X143956400Y-113287100I0J-62500D01*
G01*
X143956400Y-113412100D01*
G75*
G02*
X143893900Y-113474600I-62500J0D01*
G01*
G37*
G36*
G01*
X143893900Y-113974600D02*
X143218900Y-113974600D01*
G75*
G02*
X143156400Y-113912100I0J62500D01*
G01*
X143156400Y-113787100D01*
G75*
G02*
X143218900Y-113724600I62500J0D01*
G01*
X143893900Y-113724600D01*
G75*
G02*
X143956400Y-113787100I0J-62500D01*
G01*
X143956400Y-113912100D01*
G75*
G02*
X143893900Y-113974600I-62500J0D01*
G01*
G37*
G36*
G01*
X142918900Y-114949600D02*
X142793900Y-114949600D01*
G75*
G02*
X142731400Y-114887100I0J62500D01*
G01*
X142731400Y-114212100D01*
G75*
G02*
X142793900Y-114149600I62500J0D01*
G01*
X142918900Y-114149600D01*
G75*
G02*
X142981400Y-114212100I0J-62500D01*
G01*
X142981400Y-114887100D01*
G75*
G02*
X142918900Y-114949600I-62500J0D01*
G01*
G37*
G36*
G01*
X142418900Y-114949600D02*
X142293900Y-114949600D01*
G75*
G02*
X142231400Y-114887100I0J62500D01*
G01*
X142231400Y-114212100D01*
G75*
G02*
X142293900Y-114149600I62500J0D01*
G01*
X142418900Y-114149600D01*
G75*
G02*
X142481400Y-114212100I0J-62500D01*
G01*
X142481400Y-114887100D01*
G75*
G02*
X142418900Y-114949600I-62500J0D01*
G01*
G37*
G36*
G01*
X141918900Y-114949600D02*
X141793900Y-114949600D01*
G75*
G02*
X141731400Y-114887100I0J62500D01*
G01*
X141731400Y-114212100D01*
G75*
G02*
X141793900Y-114149600I62500J0D01*
G01*
X141918900Y-114149600D01*
G75*
G02*
X141981400Y-114212100I0J-62500D01*
G01*
X141981400Y-114887100D01*
G75*
G02*
X141918900Y-114949600I-62500J0D01*
G01*
G37*
G36*
G01*
X141418900Y-114949600D02*
X141293900Y-114949600D01*
G75*
G02*
X141231400Y-114887100I0J62500D01*
G01*
X141231400Y-114212100D01*
G75*
G02*
X141293900Y-114149600I62500J0D01*
G01*
X141418900Y-114149600D01*
G75*
G02*
X141481400Y-114212100I0J-62500D01*
G01*
X141481400Y-114887100D01*
G75*
G02*
X141418900Y-114949600I-62500J0D01*
G01*
G37*
G36*
G01*
X140918900Y-114949600D02*
X140793900Y-114949600D01*
G75*
G02*
X140731400Y-114887100I0J62500D01*
G01*
X140731400Y-114212100D01*
G75*
G02*
X140793900Y-114149600I62500J0D01*
G01*
X140918900Y-114149600D01*
G75*
G02*
X140981400Y-114212100I0J-62500D01*
G01*
X140981400Y-114887100D01*
G75*
G02*
X140918900Y-114949600I-62500J0D01*
G01*
G37*
G36*
G01*
X140418900Y-114949600D02*
X140293900Y-114949600D01*
G75*
G02*
X140231400Y-114887100I0J62500D01*
G01*
X140231400Y-114212100D01*
G75*
G02*
X140293900Y-114149600I62500J0D01*
G01*
X140418900Y-114149600D01*
G75*
G02*
X140481400Y-114212100I0J-62500D01*
G01*
X140481400Y-114887100D01*
G75*
G02*
X140418900Y-114949600I-62500J0D01*
G01*
G37*
G36*
G01*
X139918900Y-114949600D02*
X139793900Y-114949600D01*
G75*
G02*
X139731400Y-114887100I0J62500D01*
G01*
X139731400Y-114212100D01*
G75*
G02*
X139793900Y-114149600I62500J0D01*
G01*
X139918900Y-114149600D01*
G75*
G02*
X139981400Y-114212100I0J-62500D01*
G01*
X139981400Y-114887100D01*
G75*
G02*
X139918900Y-114949600I-62500J0D01*
G01*
G37*
G36*
G01*
X139418900Y-114949600D02*
X139293900Y-114949600D01*
G75*
G02*
X139231400Y-114887100I0J62500D01*
G01*
X139231400Y-114212100D01*
G75*
G02*
X139293900Y-114149600I62500J0D01*
G01*
X139418900Y-114149600D01*
G75*
G02*
X139481400Y-114212100I0J-62500D01*
G01*
X139481400Y-114887100D01*
G75*
G02*
X139418900Y-114949600I-62500J0D01*
G01*
G37*
G36*
G01*
X138918900Y-114949600D02*
X138793900Y-114949600D01*
G75*
G02*
X138731400Y-114887100I0J62500D01*
G01*
X138731400Y-114212100D01*
G75*
G02*
X138793900Y-114149600I62500J0D01*
G01*
X138918900Y-114149600D01*
G75*
G02*
X138981400Y-114212100I0J-62500D01*
G01*
X138981400Y-114887100D01*
G75*
G02*
X138918900Y-114949600I-62500J0D01*
G01*
G37*
G36*
G01*
X138418900Y-114949600D02*
X138293900Y-114949600D01*
G75*
G02*
X138231400Y-114887100I0J62500D01*
G01*
X138231400Y-114212100D01*
G75*
G02*
X138293900Y-114149600I62500J0D01*
G01*
X138418900Y-114149600D01*
G75*
G02*
X138481400Y-114212100I0J-62500D01*
G01*
X138481400Y-114887100D01*
G75*
G02*
X138418900Y-114949600I-62500J0D01*
G01*
G37*
G36*
G01*
X137918900Y-114949600D02*
X137793900Y-114949600D01*
G75*
G02*
X137731400Y-114887100I0J62500D01*
G01*
X137731400Y-114212100D01*
G75*
G02*
X137793900Y-114149600I62500J0D01*
G01*
X137918900Y-114149600D01*
G75*
G02*
X137981400Y-114212100I0J-62500D01*
G01*
X137981400Y-114887100D01*
G75*
G02*
X137918900Y-114949600I-62500J0D01*
G01*
G37*
G36*
G01*
X137418900Y-114949600D02*
X137293900Y-114949600D01*
G75*
G02*
X137231400Y-114887100I0J62500D01*
G01*
X137231400Y-114212100D01*
G75*
G02*
X137293900Y-114149600I62500J0D01*
G01*
X137418900Y-114149600D01*
G75*
G02*
X137481400Y-114212100I0J-62500D01*
G01*
X137481400Y-114887100D01*
G75*
G02*
X137418900Y-114949600I-62500J0D01*
G01*
G37*
G36*
G01*
X142371400Y-109654600D02*
X141801400Y-109654600D01*
G75*
G02*
X141551400Y-109404600I0J250000D01*
G01*
X141551400Y-108834600D01*
G75*
G02*
X141801400Y-108584600I250000J0D01*
G01*
X142371400Y-108584600D01*
G75*
G02*
X142621400Y-108834600I0J-250000D01*
G01*
X142621400Y-109404600D01*
G75*
G02*
X142371400Y-109654600I-250000J0D01*
G01*
G37*
G36*
G01*
X141051400Y-109654600D02*
X140481400Y-109654600D01*
G75*
G02*
X140231400Y-109404600I0J250000D01*
G01*
X140231400Y-108834600D01*
G75*
G02*
X140481400Y-108584600I250000J0D01*
G01*
X141051400Y-108584600D01*
G75*
G02*
X141301400Y-108834600I0J-250000D01*
G01*
X141301400Y-109404600D01*
G75*
G02*
X141051400Y-109654600I-250000J0D01*
G01*
G37*
G36*
G01*
X139731400Y-109654600D02*
X139161400Y-109654600D01*
G75*
G02*
X138911400Y-109404600I0J250000D01*
G01*
X138911400Y-108834600D01*
G75*
G02*
X139161400Y-108584600I250000J0D01*
G01*
X139731400Y-108584600D01*
G75*
G02*
X139981400Y-108834600I0J-250000D01*
G01*
X139981400Y-109404600D01*
G75*
G02*
X139731400Y-109654600I-250000J0D01*
G01*
G37*
G36*
G01*
X138411400Y-109654600D02*
X137841400Y-109654600D01*
G75*
G02*
X137591400Y-109404600I0J250000D01*
G01*
X137591400Y-108834600D01*
G75*
G02*
X137841400Y-108584600I250000J0D01*
G01*
X138411400Y-108584600D01*
G75*
G02*
X138661400Y-108834600I0J-250000D01*
G01*
X138661400Y-109404600D01*
G75*
G02*
X138411400Y-109654600I-250000J0D01*
G01*
G37*
G36*
G01*
X142371400Y-110974600D02*
X141801400Y-110974600D01*
G75*
G02*
X141551400Y-110724600I0J250000D01*
G01*
X141551400Y-110154600D01*
G75*
G02*
X141801400Y-109904600I250000J0D01*
G01*
X142371400Y-109904600D01*
G75*
G02*
X142621400Y-110154600I0J-250000D01*
G01*
X142621400Y-110724600D01*
G75*
G02*
X142371400Y-110974600I-250000J0D01*
G01*
G37*
G36*
G01*
X141051400Y-110974600D02*
X140481400Y-110974600D01*
G75*
G02*
X140231400Y-110724600I0J250000D01*
G01*
X140231400Y-110154600D01*
G75*
G02*
X140481400Y-109904600I250000J0D01*
G01*
X141051400Y-109904600D01*
G75*
G02*
X141301400Y-110154600I0J-250000D01*
G01*
X141301400Y-110724600D01*
G75*
G02*
X141051400Y-110974600I-250000J0D01*
G01*
G37*
G36*
G01*
X139731400Y-110974600D02*
X139161400Y-110974600D01*
G75*
G02*
X138911400Y-110724600I0J250000D01*
G01*
X138911400Y-110154600D01*
G75*
G02*
X139161400Y-109904600I250000J0D01*
G01*
X139731400Y-109904600D01*
G75*
G02*
X139981400Y-110154600I0J-250000D01*
G01*
X139981400Y-110724600D01*
G75*
G02*
X139731400Y-110974600I-250000J0D01*
G01*
G37*
G36*
G01*
X138411400Y-110974600D02*
X137841400Y-110974600D01*
G75*
G02*
X137591400Y-110724600I0J250000D01*
G01*
X137591400Y-110154600D01*
G75*
G02*
X137841400Y-109904600I250000J0D01*
G01*
X138411400Y-109904600D01*
G75*
G02*
X138661400Y-110154600I0J-250000D01*
G01*
X138661400Y-110724600D01*
G75*
G02*
X138411400Y-110974600I-250000J0D01*
G01*
G37*
G36*
G01*
X142371400Y-112294600D02*
X141801400Y-112294600D01*
G75*
G02*
X141551400Y-112044600I0J250000D01*
G01*
X141551400Y-111474600D01*
G75*
G02*
X141801400Y-111224600I250000J0D01*
G01*
X142371400Y-111224600D01*
G75*
G02*
X142621400Y-111474600I0J-250000D01*
G01*
X142621400Y-112044600D01*
G75*
G02*
X142371400Y-112294600I-250000J0D01*
G01*
G37*
G36*
G01*
X141051400Y-112294600D02*
X140481400Y-112294600D01*
G75*
G02*
X140231400Y-112044600I0J250000D01*
G01*
X140231400Y-111474600D01*
G75*
G02*
X140481400Y-111224600I250000J0D01*
G01*
X141051400Y-111224600D01*
G75*
G02*
X141301400Y-111474600I0J-250000D01*
G01*
X141301400Y-112044600D01*
G75*
G02*
X141051400Y-112294600I-250000J0D01*
G01*
G37*
G36*
G01*
X139731400Y-112294600D02*
X139161400Y-112294600D01*
G75*
G02*
X138911400Y-112044600I0J250000D01*
G01*
X138911400Y-111474600D01*
G75*
G02*
X139161400Y-111224600I250000J0D01*
G01*
X139731400Y-111224600D01*
G75*
G02*
X139981400Y-111474600I0J-250000D01*
G01*
X139981400Y-112044600D01*
G75*
G02*
X139731400Y-112294600I-250000J0D01*
G01*
G37*
G36*
G01*
X138411400Y-112294600D02*
X137841400Y-112294600D01*
G75*
G02*
X137591400Y-112044600I0J250000D01*
G01*
X137591400Y-111474600D01*
G75*
G02*
X137841400Y-111224600I250000J0D01*
G01*
X138411400Y-111224600D01*
G75*
G02*
X138661400Y-111474600I0J-250000D01*
G01*
X138661400Y-112044600D01*
G75*
G02*
X138411400Y-112294600I-250000J0D01*
G01*
G37*
G36*
G01*
X142371400Y-113614600D02*
X141801400Y-113614600D01*
G75*
G02*
X141551400Y-113364600I0J250000D01*
G01*
X141551400Y-112794600D01*
G75*
G02*
X141801400Y-112544600I250000J0D01*
G01*
X142371400Y-112544600D01*
G75*
G02*
X142621400Y-112794600I0J-250000D01*
G01*
X142621400Y-113364600D01*
G75*
G02*
X142371400Y-113614600I-250000J0D01*
G01*
G37*
G36*
G01*
X141051400Y-113614600D02*
X140481400Y-113614600D01*
G75*
G02*
X140231400Y-113364600I0J250000D01*
G01*
X140231400Y-112794600D01*
G75*
G02*
X140481400Y-112544600I250000J0D01*
G01*
X141051400Y-112544600D01*
G75*
G02*
X141301400Y-112794600I0J-250000D01*
G01*
X141301400Y-113364600D01*
G75*
G02*
X141051400Y-113614600I-250000J0D01*
G01*
G37*
G36*
G01*
X139731400Y-113614600D02*
X139161400Y-113614600D01*
G75*
G02*
X138911400Y-113364600I0J250000D01*
G01*
X138911400Y-112794600D01*
G75*
G02*
X139161400Y-112544600I250000J0D01*
G01*
X139731400Y-112544600D01*
G75*
G02*
X139981400Y-112794600I0J-250000D01*
G01*
X139981400Y-113364600D01*
G75*
G02*
X139731400Y-113614600I-250000J0D01*
G01*
G37*
G36*
G01*
X138411400Y-113614600D02*
X137841400Y-113614600D01*
G75*
G02*
X137591400Y-113364600I0J250000D01*
G01*
X137591400Y-112794600D01*
G75*
G02*
X137841400Y-112544600I250000J0D01*
G01*
X138411400Y-112544600D01*
G75*
G02*
X138661400Y-112794600I0J-250000D01*
G01*
X138661400Y-113364600D01*
G75*
G02*
X138411400Y-113614600I-250000J0D01*
G01*
G37*
D18*
X132689600Y-151534400D03*
X132689600Y-154584400D03*
G36*
G01*
X141451650Y-153171500D02*
X140539150Y-153171500D01*
G75*
G02*
X140295400Y-152927750I0J243750D01*
G01*
X140295400Y-152440250D01*
G75*
G02*
X140539150Y-152196500I243750J0D01*
G01*
X141451650Y-152196500D01*
G75*
G02*
X141695400Y-152440250I0J-243750D01*
G01*
X141695400Y-152927750D01*
G75*
G02*
X141451650Y-153171500I-243750J0D01*
G01*
G37*
G36*
G01*
X141451650Y-155046500D02*
X140539150Y-155046500D01*
G75*
G02*
X140295400Y-154802750I0J243750D01*
G01*
X140295400Y-154315250D01*
G75*
G02*
X140539150Y-154071500I243750J0D01*
G01*
X141451650Y-154071500D01*
G75*
G02*
X141695400Y-154315250I0J-243750D01*
G01*
X141695400Y-154802750D01*
G75*
G02*
X141451650Y-155046500I-243750J0D01*
G01*
G37*
M02*
