G04 #@! TF.GenerationSoftware,KiCad,Pcbnew,(5.1.12)-1*
G04 #@! TF.CreationDate,2022-08-10T22:17:10-07:00*
G04 #@! TF.ProjectId,jbVeraHDMI,6a625665-7261-4484-944d-492e6b696361,rev?*
G04 #@! TF.SameCoordinates,Original*
G04 #@! TF.FileFunction,Paste,Bot*
G04 #@! TF.FilePolarity,Positive*
%FSLAX46Y46*%
G04 Gerber Fmt 4.6, Leading zero omitted, Abs format (unit mm)*
G04 Created by KiCad (PCBNEW (5.1.12)-1) date 2022-08-10 22:17:10*
%MOMM*%
%LPD*%
G01*
G04 APERTURE LIST*
%ADD10R,1.450000X0.450000*%
G04 APERTURE END LIST*
G36*
G01*
X147704800Y-115692100D02*
X148179800Y-115692100D01*
G75*
G02*
X148417300Y-115929600I0J-237500D01*
G01*
X148417300Y-116429600D01*
G75*
G02*
X148179800Y-116667100I-237500J0D01*
G01*
X147704800Y-116667100D01*
G75*
G02*
X147467300Y-116429600I0J237500D01*
G01*
X147467300Y-115929600D01*
G75*
G02*
X147704800Y-115692100I237500J0D01*
G01*
G37*
G36*
G01*
X147704800Y-113867100D02*
X148179800Y-113867100D01*
G75*
G02*
X148417300Y-114104600I0J-237500D01*
G01*
X148417300Y-114604600D01*
G75*
G02*
X148179800Y-114842100I-237500J0D01*
G01*
X147704800Y-114842100D01*
G75*
G02*
X147467300Y-114604600I0J237500D01*
G01*
X147467300Y-114104600D01*
G75*
G02*
X147704800Y-113867100I237500J0D01*
G01*
G37*
G36*
G01*
X146066500Y-115715600D02*
X146541500Y-115715600D01*
G75*
G02*
X146779000Y-115953100I0J-237500D01*
G01*
X146779000Y-116453100D01*
G75*
G02*
X146541500Y-116690600I-237500J0D01*
G01*
X146066500Y-116690600D01*
G75*
G02*
X145829000Y-116453100I0J237500D01*
G01*
X145829000Y-115953100D01*
G75*
G02*
X146066500Y-115715600I237500J0D01*
G01*
G37*
G36*
G01*
X146066500Y-113890600D02*
X146541500Y-113890600D01*
G75*
G02*
X146779000Y-114128100I0J-237500D01*
G01*
X146779000Y-114628100D01*
G75*
G02*
X146541500Y-114865600I-237500J0D01*
G01*
X146066500Y-114865600D01*
G75*
G02*
X145829000Y-114628100I0J237500D01*
G01*
X145829000Y-114128100D01*
G75*
G02*
X146066500Y-113890600I237500J0D01*
G01*
G37*
G36*
G01*
X132635000Y-97845700D02*
X132160000Y-97845700D01*
G75*
G02*
X131922500Y-97608200I0J237500D01*
G01*
X131922500Y-97108200D01*
G75*
G02*
X132160000Y-96870700I237500J0D01*
G01*
X132635000Y-96870700D01*
G75*
G02*
X132872500Y-97108200I0J-237500D01*
G01*
X132872500Y-97608200D01*
G75*
G02*
X132635000Y-97845700I-237500J0D01*
G01*
G37*
G36*
G01*
X132635000Y-99670700D02*
X132160000Y-99670700D01*
G75*
G02*
X131922500Y-99433200I0J237500D01*
G01*
X131922500Y-98933200D01*
G75*
G02*
X132160000Y-98695700I237500J0D01*
G01*
X132635000Y-98695700D01*
G75*
G02*
X132872500Y-98933200I0J-237500D01*
G01*
X132872500Y-99433200D01*
G75*
G02*
X132635000Y-99670700I-237500J0D01*
G01*
G37*
G36*
G01*
X143391600Y-88540600D02*
X143391600Y-88065600D01*
G75*
G02*
X143629100Y-87828100I237500J0D01*
G01*
X144229100Y-87828100D01*
G75*
G02*
X144466600Y-88065600I0J-237500D01*
G01*
X144466600Y-88540600D01*
G75*
G02*
X144229100Y-88778100I-237500J0D01*
G01*
X143629100Y-88778100D01*
G75*
G02*
X143391600Y-88540600I0J237500D01*
G01*
G37*
G36*
G01*
X141666600Y-88540600D02*
X141666600Y-88065600D01*
G75*
G02*
X141904100Y-87828100I237500J0D01*
G01*
X142504100Y-87828100D01*
G75*
G02*
X142741600Y-88065600I0J-237500D01*
G01*
X142741600Y-88540600D01*
G75*
G02*
X142504100Y-88778100I-237500J0D01*
G01*
X141904100Y-88778100D01*
G75*
G02*
X141666600Y-88540600I0J237500D01*
G01*
G37*
G36*
G01*
X132134400Y-89844900D02*
X132134400Y-90044900D01*
G75*
G02*
X132034400Y-90144900I-100000J0D01*
G01*
X130759400Y-90144900D01*
G75*
G02*
X130659400Y-90044900I0J100000D01*
G01*
X130659400Y-89844900D01*
G75*
G02*
X130759400Y-89744900I100000J0D01*
G01*
X132034400Y-89744900D01*
G75*
G02*
X132134400Y-89844900I0J-100000D01*
G01*
G37*
G36*
G01*
X132134400Y-90494900D02*
X132134400Y-90694900D01*
G75*
G02*
X132034400Y-90794900I-100000J0D01*
G01*
X130759400Y-90794900D01*
G75*
G02*
X130659400Y-90694900I0J100000D01*
G01*
X130659400Y-90494900D01*
G75*
G02*
X130759400Y-90394900I100000J0D01*
G01*
X132034400Y-90394900D01*
G75*
G02*
X132134400Y-90494900I0J-100000D01*
G01*
G37*
G36*
G01*
X132134400Y-91144900D02*
X132134400Y-91344900D01*
G75*
G02*
X132034400Y-91444900I-100000J0D01*
G01*
X130759400Y-91444900D01*
G75*
G02*
X130659400Y-91344900I0J100000D01*
G01*
X130659400Y-91144900D01*
G75*
G02*
X130759400Y-91044900I100000J0D01*
G01*
X132034400Y-91044900D01*
G75*
G02*
X132134400Y-91144900I0J-100000D01*
G01*
G37*
G36*
G01*
X132134400Y-91794900D02*
X132134400Y-91994900D01*
G75*
G02*
X132034400Y-92094900I-100000J0D01*
G01*
X130759400Y-92094900D01*
G75*
G02*
X130659400Y-91994900I0J100000D01*
G01*
X130659400Y-91794900D01*
G75*
G02*
X130759400Y-91694900I100000J0D01*
G01*
X132034400Y-91694900D01*
G75*
G02*
X132134400Y-91794900I0J-100000D01*
G01*
G37*
G36*
G01*
X132134400Y-92444900D02*
X132134400Y-92644900D01*
G75*
G02*
X132034400Y-92744900I-100000J0D01*
G01*
X130759400Y-92744900D01*
G75*
G02*
X130659400Y-92644900I0J100000D01*
G01*
X130659400Y-92444900D01*
G75*
G02*
X130759400Y-92344900I100000J0D01*
G01*
X132034400Y-92344900D01*
G75*
G02*
X132134400Y-92444900I0J-100000D01*
G01*
G37*
G36*
G01*
X132134400Y-93094900D02*
X132134400Y-93294900D01*
G75*
G02*
X132034400Y-93394900I-100000J0D01*
G01*
X130759400Y-93394900D01*
G75*
G02*
X130659400Y-93294900I0J100000D01*
G01*
X130659400Y-93094900D01*
G75*
G02*
X130759400Y-92994900I100000J0D01*
G01*
X132034400Y-92994900D01*
G75*
G02*
X132134400Y-93094900I0J-100000D01*
G01*
G37*
G36*
G01*
X132134400Y-93744900D02*
X132134400Y-93944900D01*
G75*
G02*
X132034400Y-94044900I-100000J0D01*
G01*
X130759400Y-94044900D01*
G75*
G02*
X130659400Y-93944900I0J100000D01*
G01*
X130659400Y-93744900D01*
G75*
G02*
X130759400Y-93644900I100000J0D01*
G01*
X132034400Y-93644900D01*
G75*
G02*
X132134400Y-93744900I0J-100000D01*
G01*
G37*
G36*
G01*
X137859400Y-93744900D02*
X137859400Y-93944900D01*
G75*
G02*
X137759400Y-94044900I-100000J0D01*
G01*
X136484400Y-94044900D01*
G75*
G02*
X136384400Y-93944900I0J100000D01*
G01*
X136384400Y-93744900D01*
G75*
G02*
X136484400Y-93644900I100000J0D01*
G01*
X137759400Y-93644900D01*
G75*
G02*
X137859400Y-93744900I0J-100000D01*
G01*
G37*
G36*
G01*
X137859400Y-93094900D02*
X137859400Y-93294900D01*
G75*
G02*
X137759400Y-93394900I-100000J0D01*
G01*
X136484400Y-93394900D01*
G75*
G02*
X136384400Y-93294900I0J100000D01*
G01*
X136384400Y-93094900D01*
G75*
G02*
X136484400Y-92994900I100000J0D01*
G01*
X137759400Y-92994900D01*
G75*
G02*
X137859400Y-93094900I0J-100000D01*
G01*
G37*
G36*
G01*
X137859400Y-92444900D02*
X137859400Y-92644900D01*
G75*
G02*
X137759400Y-92744900I-100000J0D01*
G01*
X136484400Y-92744900D01*
G75*
G02*
X136384400Y-92644900I0J100000D01*
G01*
X136384400Y-92444900D01*
G75*
G02*
X136484400Y-92344900I100000J0D01*
G01*
X137759400Y-92344900D01*
G75*
G02*
X137859400Y-92444900I0J-100000D01*
G01*
G37*
G36*
G01*
X137859400Y-91794900D02*
X137859400Y-91994900D01*
G75*
G02*
X137759400Y-92094900I-100000J0D01*
G01*
X136484400Y-92094900D01*
G75*
G02*
X136384400Y-91994900I0J100000D01*
G01*
X136384400Y-91794900D01*
G75*
G02*
X136484400Y-91694900I100000J0D01*
G01*
X137759400Y-91694900D01*
G75*
G02*
X137859400Y-91794900I0J-100000D01*
G01*
G37*
G36*
G01*
X137859400Y-91144900D02*
X137859400Y-91344900D01*
G75*
G02*
X137759400Y-91444900I-100000J0D01*
G01*
X136484400Y-91444900D01*
G75*
G02*
X136384400Y-91344900I0J100000D01*
G01*
X136384400Y-91144900D01*
G75*
G02*
X136484400Y-91044900I100000J0D01*
G01*
X137759400Y-91044900D01*
G75*
G02*
X137859400Y-91144900I0J-100000D01*
G01*
G37*
G36*
G01*
X137859400Y-90494900D02*
X137859400Y-90694900D01*
G75*
G02*
X137759400Y-90794900I-100000J0D01*
G01*
X136484400Y-90794900D01*
G75*
G02*
X136384400Y-90694900I0J100000D01*
G01*
X136384400Y-90494900D01*
G75*
G02*
X136484400Y-90394900I100000J0D01*
G01*
X137759400Y-90394900D01*
G75*
G02*
X137859400Y-90494900I0J-100000D01*
G01*
G37*
G36*
G01*
X137859400Y-89844900D02*
X137859400Y-90044900D01*
G75*
G02*
X137759400Y-90144900I-100000J0D01*
G01*
X136484400Y-90144900D01*
G75*
G02*
X136384400Y-90044900I0J100000D01*
G01*
X136384400Y-89844900D01*
G75*
G02*
X136484400Y-89744900I100000J0D01*
G01*
X137759400Y-89744900D01*
G75*
G02*
X137859400Y-89844900I0J-100000D01*
G01*
G37*
G36*
G01*
X132401020Y-88583780D02*
X132401020Y-88108780D01*
G75*
G02*
X132638520Y-87871280I237500J0D01*
G01*
X133238520Y-87871280D01*
G75*
G02*
X133476020Y-88108780I0J-237500D01*
G01*
X133476020Y-88583780D01*
G75*
G02*
X133238520Y-88821280I-237500J0D01*
G01*
X132638520Y-88821280D01*
G75*
G02*
X132401020Y-88583780I0J237500D01*
G01*
G37*
G36*
G01*
X130676020Y-88583780D02*
X130676020Y-88108780D01*
G75*
G02*
X130913520Y-87871280I237500J0D01*
G01*
X131513520Y-87871280D01*
G75*
G02*
X131751020Y-88108780I0J-237500D01*
G01*
X131751020Y-88583780D01*
G75*
G02*
X131513520Y-88821280I-237500J0D01*
G01*
X130913520Y-88821280D01*
G75*
G02*
X130676020Y-88583780I0J237500D01*
G01*
G37*
G36*
G01*
X148013400Y-77295200D02*
X148963400Y-77295200D01*
G75*
G02*
X149213400Y-77545200I0J-250000D01*
G01*
X149213400Y-78045200D01*
G75*
G02*
X148963400Y-78295200I-250000J0D01*
G01*
X148013400Y-78295200D01*
G75*
G02*
X147763400Y-78045200I0J250000D01*
G01*
X147763400Y-77545200D01*
G75*
G02*
X148013400Y-77295200I250000J0D01*
G01*
G37*
G36*
G01*
X148013400Y-75395200D02*
X148963400Y-75395200D01*
G75*
G02*
X149213400Y-75645200I0J-250000D01*
G01*
X149213400Y-76145200D01*
G75*
G02*
X148963400Y-76395200I-250000J0D01*
G01*
X148013400Y-76395200D01*
G75*
G02*
X147763400Y-76145200I0J250000D01*
G01*
X147763400Y-75645200D01*
G75*
G02*
X148013400Y-75395200I250000J0D01*
G01*
G37*
G36*
G01*
X142167600Y-109162900D02*
X142642600Y-109162900D01*
G75*
G02*
X142880100Y-109400400I0J-237500D01*
G01*
X142880100Y-110000400D01*
G75*
G02*
X142642600Y-110237900I-237500J0D01*
G01*
X142167600Y-110237900D01*
G75*
G02*
X141930100Y-110000400I0J237500D01*
G01*
X141930100Y-109400400D01*
G75*
G02*
X142167600Y-109162900I237500J0D01*
G01*
G37*
G36*
G01*
X142167600Y-107437900D02*
X142642600Y-107437900D01*
G75*
G02*
X142880100Y-107675400I0J-237500D01*
G01*
X142880100Y-108275400D01*
G75*
G02*
X142642600Y-108512900I-237500J0D01*
G01*
X142167600Y-108512900D01*
G75*
G02*
X141930100Y-108275400I0J237500D01*
G01*
X141930100Y-107675400D01*
G75*
G02*
X142167600Y-107437900I237500J0D01*
G01*
G37*
G36*
G01*
X140643600Y-109164000D02*
X141118600Y-109164000D01*
G75*
G02*
X141356100Y-109401500I0J-237500D01*
G01*
X141356100Y-110001500D01*
G75*
G02*
X141118600Y-110239000I-237500J0D01*
G01*
X140643600Y-110239000D01*
G75*
G02*
X140406100Y-110001500I0J237500D01*
G01*
X140406100Y-109401500D01*
G75*
G02*
X140643600Y-109164000I237500J0D01*
G01*
G37*
G36*
G01*
X140643600Y-107439000D02*
X141118600Y-107439000D01*
G75*
G02*
X141356100Y-107676500I0J-237500D01*
G01*
X141356100Y-108276500D01*
G75*
G02*
X141118600Y-108514000I-237500J0D01*
G01*
X140643600Y-108514000D01*
G75*
G02*
X140406100Y-108276500I0J237500D01*
G01*
X140406100Y-107676500D01*
G75*
G02*
X140643600Y-107439000I237500J0D01*
G01*
G37*
G36*
G01*
X137595600Y-109162900D02*
X138070600Y-109162900D01*
G75*
G02*
X138308100Y-109400400I0J-237500D01*
G01*
X138308100Y-110000400D01*
G75*
G02*
X138070600Y-110237900I-237500J0D01*
G01*
X137595600Y-110237900D01*
G75*
G02*
X137358100Y-110000400I0J237500D01*
G01*
X137358100Y-109400400D01*
G75*
G02*
X137595600Y-109162900I237500J0D01*
G01*
G37*
G36*
G01*
X137595600Y-107437900D02*
X138070600Y-107437900D01*
G75*
G02*
X138308100Y-107675400I0J-237500D01*
G01*
X138308100Y-108275400D01*
G75*
G02*
X138070600Y-108512900I-237500J0D01*
G01*
X137595600Y-108512900D01*
G75*
G02*
X137358100Y-108275400I0J237500D01*
G01*
X137358100Y-107675400D01*
G75*
G02*
X137595600Y-107437900I237500J0D01*
G01*
G37*
G36*
G01*
X139119600Y-109165100D02*
X139594600Y-109165100D01*
G75*
G02*
X139832100Y-109402600I0J-237500D01*
G01*
X139832100Y-110002600D01*
G75*
G02*
X139594600Y-110240100I-237500J0D01*
G01*
X139119600Y-110240100D01*
G75*
G02*
X138882100Y-110002600I0J237500D01*
G01*
X138882100Y-109402600D01*
G75*
G02*
X139119600Y-109165100I237500J0D01*
G01*
G37*
G36*
G01*
X139119600Y-107440100D02*
X139594600Y-107440100D01*
G75*
G02*
X139832100Y-107677600I0J-237500D01*
G01*
X139832100Y-108277600D01*
G75*
G02*
X139594600Y-108515100I-237500J0D01*
G01*
X139119600Y-108515100D01*
G75*
G02*
X138882100Y-108277600I0J237500D01*
G01*
X138882100Y-107677600D01*
G75*
G02*
X139119600Y-107440100I237500J0D01*
G01*
G37*
G36*
G01*
X145129300Y-108149400D02*
X145129300Y-107674400D01*
G75*
G02*
X145366800Y-107436900I237500J0D01*
G01*
X145966800Y-107436900D01*
G75*
G02*
X146204300Y-107674400I0J-237500D01*
G01*
X146204300Y-108149400D01*
G75*
G02*
X145966800Y-108386900I-237500J0D01*
G01*
X145366800Y-108386900D01*
G75*
G02*
X145129300Y-108149400I0J237500D01*
G01*
G37*
G36*
G01*
X143404300Y-108149400D02*
X143404300Y-107674400D01*
G75*
G02*
X143641800Y-107436900I237500J0D01*
G01*
X144241800Y-107436900D01*
G75*
G02*
X144479300Y-107674400I0J-237500D01*
G01*
X144479300Y-108149400D01*
G75*
G02*
X144241800Y-108386900I-237500J0D01*
G01*
X143641800Y-108386900D01*
G75*
G02*
X143404300Y-108149400I0J237500D01*
G01*
G37*
G36*
G01*
X145131500Y-109648000D02*
X145131500Y-109173000D01*
G75*
G02*
X145369000Y-108935500I237500J0D01*
G01*
X145969000Y-108935500D01*
G75*
G02*
X146206500Y-109173000I0J-237500D01*
G01*
X146206500Y-109648000D01*
G75*
G02*
X145969000Y-109885500I-237500J0D01*
G01*
X145369000Y-109885500D01*
G75*
G02*
X145131500Y-109648000I0J237500D01*
G01*
G37*
G36*
G01*
X143406500Y-109648000D02*
X143406500Y-109173000D01*
G75*
G02*
X143644000Y-108935500I237500J0D01*
G01*
X144244000Y-108935500D01*
G75*
G02*
X144481500Y-109173000I0J-237500D01*
G01*
X144481500Y-109648000D01*
G75*
G02*
X144244000Y-109885500I-237500J0D01*
G01*
X143644000Y-109885500D01*
G75*
G02*
X143406500Y-109648000I0J237500D01*
G01*
G37*
G36*
G01*
X141039900Y-118741200D02*
X141039900Y-118266200D01*
G75*
G02*
X141277400Y-118028700I237500J0D01*
G01*
X141877400Y-118028700D01*
G75*
G02*
X142114900Y-118266200I0J-237500D01*
G01*
X142114900Y-118741200D01*
G75*
G02*
X141877400Y-118978700I-237500J0D01*
G01*
X141277400Y-118978700D01*
G75*
G02*
X141039900Y-118741200I0J237500D01*
G01*
G37*
G36*
G01*
X139314900Y-118741200D02*
X139314900Y-118266200D01*
G75*
G02*
X139552400Y-118028700I237500J0D01*
G01*
X140152400Y-118028700D01*
G75*
G02*
X140389900Y-118266200I0J-237500D01*
G01*
X140389900Y-118741200D01*
G75*
G02*
X140152400Y-118978700I-237500J0D01*
G01*
X139552400Y-118978700D01*
G75*
G02*
X139314900Y-118741200I0J237500D01*
G01*
G37*
G36*
G01*
X141041000Y-117217200D02*
X141041000Y-116742200D01*
G75*
G02*
X141278500Y-116504700I237500J0D01*
G01*
X141878500Y-116504700D01*
G75*
G02*
X142116000Y-116742200I0J-237500D01*
G01*
X142116000Y-117217200D01*
G75*
G02*
X141878500Y-117454700I-237500J0D01*
G01*
X141278500Y-117454700D01*
G75*
G02*
X141041000Y-117217200I0J237500D01*
G01*
G37*
G36*
G01*
X139316000Y-117217200D02*
X139316000Y-116742200D01*
G75*
G02*
X139553500Y-116504700I237500J0D01*
G01*
X140153500Y-116504700D01*
G75*
G02*
X140391000Y-116742200I0J-237500D01*
G01*
X140391000Y-117217200D01*
G75*
G02*
X140153500Y-117454700I-237500J0D01*
G01*
X139553500Y-117454700D01*
G75*
G02*
X139316000Y-117217200I0J237500D01*
G01*
G37*
G36*
G01*
X137585500Y-118728500D02*
X137585500Y-118253500D01*
G75*
G02*
X137823000Y-118016000I237500J0D01*
G01*
X138423000Y-118016000D01*
G75*
G02*
X138660500Y-118253500I0J-237500D01*
G01*
X138660500Y-118728500D01*
G75*
G02*
X138423000Y-118966000I-237500J0D01*
G01*
X137823000Y-118966000D01*
G75*
G02*
X137585500Y-118728500I0J237500D01*
G01*
G37*
G36*
G01*
X135860500Y-118728500D02*
X135860500Y-118253500D01*
G75*
G02*
X136098000Y-118016000I237500J0D01*
G01*
X136698000Y-118016000D01*
G75*
G02*
X136935500Y-118253500I0J-237500D01*
G01*
X136935500Y-118728500D01*
G75*
G02*
X136698000Y-118966000I-237500J0D01*
G01*
X136098000Y-118966000D01*
G75*
G02*
X135860500Y-118728500I0J237500D01*
G01*
G37*
G36*
G01*
X137585500Y-117204500D02*
X137585500Y-116729500D01*
G75*
G02*
X137823000Y-116492000I237500J0D01*
G01*
X138423000Y-116492000D01*
G75*
G02*
X138660500Y-116729500I0J-237500D01*
G01*
X138660500Y-117204500D01*
G75*
G02*
X138423000Y-117442000I-237500J0D01*
G01*
X137823000Y-117442000D01*
G75*
G02*
X137585500Y-117204500I0J237500D01*
G01*
G37*
G36*
G01*
X135860500Y-117204500D02*
X135860500Y-116729500D01*
G75*
G02*
X136098000Y-116492000I237500J0D01*
G01*
X136698000Y-116492000D01*
G75*
G02*
X136935500Y-116729500I0J-237500D01*
G01*
X136935500Y-117204500D01*
G75*
G02*
X136698000Y-117442000I-237500J0D01*
G01*
X136098000Y-117442000D01*
G75*
G02*
X135860500Y-117204500I0J237500D01*
G01*
G37*
G36*
G01*
X136016180Y-88118940D02*
X136016180Y-88593940D01*
G75*
G02*
X135778680Y-88831440I-237500J0D01*
G01*
X135278680Y-88831440D01*
G75*
G02*
X135041180Y-88593940I0J237500D01*
G01*
X135041180Y-88118940D01*
G75*
G02*
X135278680Y-87881440I237500J0D01*
G01*
X135778680Y-87881440D01*
G75*
G02*
X136016180Y-88118940I0J-237500D01*
G01*
G37*
G36*
G01*
X137841180Y-88118940D02*
X137841180Y-88593940D01*
G75*
G02*
X137603680Y-88831440I-237500J0D01*
G01*
X137103680Y-88831440D01*
G75*
G02*
X136866180Y-88593940I0J237500D01*
G01*
X136866180Y-88118940D01*
G75*
G02*
X137103680Y-87881440I237500J0D01*
G01*
X137603680Y-87881440D01*
G75*
G02*
X137841180Y-88118940I0J-237500D01*
G01*
G37*
G36*
G01*
X145740300Y-120658900D02*
X145740300Y-120183900D01*
G75*
G02*
X145977800Y-119946400I237500J0D01*
G01*
X146477800Y-119946400D01*
G75*
G02*
X146715300Y-120183900I0J-237500D01*
G01*
X146715300Y-120658900D01*
G75*
G02*
X146477800Y-120896400I-237500J0D01*
G01*
X145977800Y-120896400D01*
G75*
G02*
X145740300Y-120658900I0J237500D01*
G01*
G37*
G36*
G01*
X143915300Y-120658900D02*
X143915300Y-120183900D01*
G75*
G02*
X144152800Y-119946400I237500J0D01*
G01*
X144652800Y-119946400D01*
G75*
G02*
X144890300Y-120183900I0J-237500D01*
G01*
X144890300Y-120658900D01*
G75*
G02*
X144652800Y-120896400I-237500J0D01*
G01*
X144152800Y-120896400D01*
G75*
G02*
X143915300Y-120658900I0J237500D01*
G01*
G37*
G36*
G01*
X147184700Y-128402400D02*
X147734700Y-128402400D01*
G75*
G02*
X147934700Y-128602400I0J-200000D01*
G01*
X147934700Y-129002400D01*
G75*
G02*
X147734700Y-129202400I-200000J0D01*
G01*
X147184700Y-129202400D01*
G75*
G02*
X146984700Y-129002400I0J200000D01*
G01*
X146984700Y-128602400D01*
G75*
G02*
X147184700Y-128402400I200000J0D01*
G01*
G37*
G36*
G01*
X147184700Y-126752400D02*
X147734700Y-126752400D01*
G75*
G02*
X147934700Y-126952400I0J-200000D01*
G01*
X147934700Y-127352400D01*
G75*
G02*
X147734700Y-127552400I-200000J0D01*
G01*
X147184700Y-127552400D01*
G75*
G02*
X146984700Y-127352400I0J200000D01*
G01*
X146984700Y-126952400D01*
G75*
G02*
X147184700Y-126752400I200000J0D01*
G01*
G37*
G36*
G01*
X145906000Y-98091600D02*
X145756000Y-98091600D01*
G75*
G02*
X145681000Y-98016600I0J75000D01*
G01*
X145681000Y-96691600D01*
G75*
G02*
X145756000Y-96616600I75000J0D01*
G01*
X145906000Y-96616600D01*
G75*
G02*
X145981000Y-96691600I0J-75000D01*
G01*
X145981000Y-98016600D01*
G75*
G02*
X145906000Y-98091600I-75000J0D01*
G01*
G37*
G36*
G01*
X145406000Y-98091600D02*
X145256000Y-98091600D01*
G75*
G02*
X145181000Y-98016600I0J75000D01*
G01*
X145181000Y-96691600D01*
G75*
G02*
X145256000Y-96616600I75000J0D01*
G01*
X145406000Y-96616600D01*
G75*
G02*
X145481000Y-96691600I0J-75000D01*
G01*
X145481000Y-98016600D01*
G75*
G02*
X145406000Y-98091600I-75000J0D01*
G01*
G37*
G36*
G01*
X144906000Y-98091600D02*
X144756000Y-98091600D01*
G75*
G02*
X144681000Y-98016600I0J75000D01*
G01*
X144681000Y-96691600D01*
G75*
G02*
X144756000Y-96616600I75000J0D01*
G01*
X144906000Y-96616600D01*
G75*
G02*
X144981000Y-96691600I0J-75000D01*
G01*
X144981000Y-98016600D01*
G75*
G02*
X144906000Y-98091600I-75000J0D01*
G01*
G37*
G36*
G01*
X144406000Y-98091600D02*
X144256000Y-98091600D01*
G75*
G02*
X144181000Y-98016600I0J75000D01*
G01*
X144181000Y-96691600D01*
G75*
G02*
X144256000Y-96616600I75000J0D01*
G01*
X144406000Y-96616600D01*
G75*
G02*
X144481000Y-96691600I0J-75000D01*
G01*
X144481000Y-98016600D01*
G75*
G02*
X144406000Y-98091600I-75000J0D01*
G01*
G37*
G36*
G01*
X143906000Y-98091600D02*
X143756000Y-98091600D01*
G75*
G02*
X143681000Y-98016600I0J75000D01*
G01*
X143681000Y-96691600D01*
G75*
G02*
X143756000Y-96616600I75000J0D01*
G01*
X143906000Y-96616600D01*
G75*
G02*
X143981000Y-96691600I0J-75000D01*
G01*
X143981000Y-98016600D01*
G75*
G02*
X143906000Y-98091600I-75000J0D01*
G01*
G37*
G36*
G01*
X143406000Y-98091600D02*
X143256000Y-98091600D01*
G75*
G02*
X143181000Y-98016600I0J75000D01*
G01*
X143181000Y-96691600D01*
G75*
G02*
X143256000Y-96616600I75000J0D01*
G01*
X143406000Y-96616600D01*
G75*
G02*
X143481000Y-96691600I0J-75000D01*
G01*
X143481000Y-98016600D01*
G75*
G02*
X143406000Y-98091600I-75000J0D01*
G01*
G37*
G36*
G01*
X142906000Y-98091600D02*
X142756000Y-98091600D01*
G75*
G02*
X142681000Y-98016600I0J75000D01*
G01*
X142681000Y-96691600D01*
G75*
G02*
X142756000Y-96616600I75000J0D01*
G01*
X142906000Y-96616600D01*
G75*
G02*
X142981000Y-96691600I0J-75000D01*
G01*
X142981000Y-98016600D01*
G75*
G02*
X142906000Y-98091600I-75000J0D01*
G01*
G37*
G36*
G01*
X142406000Y-98091600D02*
X142256000Y-98091600D01*
G75*
G02*
X142181000Y-98016600I0J75000D01*
G01*
X142181000Y-96691600D01*
G75*
G02*
X142256000Y-96616600I75000J0D01*
G01*
X142406000Y-96616600D01*
G75*
G02*
X142481000Y-96691600I0J-75000D01*
G01*
X142481000Y-98016600D01*
G75*
G02*
X142406000Y-98091600I-75000J0D01*
G01*
G37*
G36*
G01*
X141906000Y-98091600D02*
X141756000Y-98091600D01*
G75*
G02*
X141681000Y-98016600I0J75000D01*
G01*
X141681000Y-96691600D01*
G75*
G02*
X141756000Y-96616600I75000J0D01*
G01*
X141906000Y-96616600D01*
G75*
G02*
X141981000Y-96691600I0J-75000D01*
G01*
X141981000Y-98016600D01*
G75*
G02*
X141906000Y-98091600I-75000J0D01*
G01*
G37*
G36*
G01*
X141406000Y-98091600D02*
X141256000Y-98091600D01*
G75*
G02*
X141181000Y-98016600I0J75000D01*
G01*
X141181000Y-96691600D01*
G75*
G02*
X141256000Y-96616600I75000J0D01*
G01*
X141406000Y-96616600D01*
G75*
G02*
X141481000Y-96691600I0J-75000D01*
G01*
X141481000Y-98016600D01*
G75*
G02*
X141406000Y-98091600I-75000J0D01*
G01*
G37*
G36*
G01*
X140906000Y-98091600D02*
X140756000Y-98091600D01*
G75*
G02*
X140681000Y-98016600I0J75000D01*
G01*
X140681000Y-96691600D01*
G75*
G02*
X140756000Y-96616600I75000J0D01*
G01*
X140906000Y-96616600D01*
G75*
G02*
X140981000Y-96691600I0J-75000D01*
G01*
X140981000Y-98016600D01*
G75*
G02*
X140906000Y-98091600I-75000J0D01*
G01*
G37*
G36*
G01*
X140406000Y-98091600D02*
X140256000Y-98091600D01*
G75*
G02*
X140181000Y-98016600I0J75000D01*
G01*
X140181000Y-96691600D01*
G75*
G02*
X140256000Y-96616600I75000J0D01*
G01*
X140406000Y-96616600D01*
G75*
G02*
X140481000Y-96691600I0J-75000D01*
G01*
X140481000Y-98016600D01*
G75*
G02*
X140406000Y-98091600I-75000J0D01*
G01*
G37*
G36*
G01*
X139906000Y-98091600D02*
X139756000Y-98091600D01*
G75*
G02*
X139681000Y-98016600I0J75000D01*
G01*
X139681000Y-96691600D01*
G75*
G02*
X139756000Y-96616600I75000J0D01*
G01*
X139906000Y-96616600D01*
G75*
G02*
X139981000Y-96691600I0J-75000D01*
G01*
X139981000Y-98016600D01*
G75*
G02*
X139906000Y-98091600I-75000J0D01*
G01*
G37*
G36*
G01*
X139406000Y-98091600D02*
X139256000Y-98091600D01*
G75*
G02*
X139181000Y-98016600I0J75000D01*
G01*
X139181000Y-96691600D01*
G75*
G02*
X139256000Y-96616600I75000J0D01*
G01*
X139406000Y-96616600D01*
G75*
G02*
X139481000Y-96691600I0J-75000D01*
G01*
X139481000Y-98016600D01*
G75*
G02*
X139406000Y-98091600I-75000J0D01*
G01*
G37*
G36*
G01*
X138906000Y-98091600D02*
X138756000Y-98091600D01*
G75*
G02*
X138681000Y-98016600I0J75000D01*
G01*
X138681000Y-96691600D01*
G75*
G02*
X138756000Y-96616600I75000J0D01*
G01*
X138906000Y-96616600D01*
G75*
G02*
X138981000Y-96691600I0J-75000D01*
G01*
X138981000Y-98016600D01*
G75*
G02*
X138906000Y-98091600I-75000J0D01*
G01*
G37*
G36*
G01*
X138406000Y-98091600D02*
X138256000Y-98091600D01*
G75*
G02*
X138181000Y-98016600I0J75000D01*
G01*
X138181000Y-96691600D01*
G75*
G02*
X138256000Y-96616600I75000J0D01*
G01*
X138406000Y-96616600D01*
G75*
G02*
X138481000Y-96691600I0J-75000D01*
G01*
X138481000Y-98016600D01*
G75*
G02*
X138406000Y-98091600I-75000J0D01*
G01*
G37*
G36*
G01*
X137906000Y-98091600D02*
X137756000Y-98091600D01*
G75*
G02*
X137681000Y-98016600I0J75000D01*
G01*
X137681000Y-96691600D01*
G75*
G02*
X137756000Y-96616600I75000J0D01*
G01*
X137906000Y-96616600D01*
G75*
G02*
X137981000Y-96691600I0J-75000D01*
G01*
X137981000Y-98016600D01*
G75*
G02*
X137906000Y-98091600I-75000J0D01*
G01*
G37*
G36*
G01*
X137406000Y-98091600D02*
X137256000Y-98091600D01*
G75*
G02*
X137181000Y-98016600I0J75000D01*
G01*
X137181000Y-96691600D01*
G75*
G02*
X137256000Y-96616600I75000J0D01*
G01*
X137406000Y-96616600D01*
G75*
G02*
X137481000Y-96691600I0J-75000D01*
G01*
X137481000Y-98016600D01*
G75*
G02*
X137406000Y-98091600I-75000J0D01*
G01*
G37*
G36*
G01*
X136906000Y-98091600D02*
X136756000Y-98091600D01*
G75*
G02*
X136681000Y-98016600I0J75000D01*
G01*
X136681000Y-96691600D01*
G75*
G02*
X136756000Y-96616600I75000J0D01*
G01*
X136906000Y-96616600D01*
G75*
G02*
X136981000Y-96691600I0J-75000D01*
G01*
X136981000Y-98016600D01*
G75*
G02*
X136906000Y-98091600I-75000J0D01*
G01*
G37*
G36*
G01*
X136406000Y-98091600D02*
X136256000Y-98091600D01*
G75*
G02*
X136181000Y-98016600I0J75000D01*
G01*
X136181000Y-96691600D01*
G75*
G02*
X136256000Y-96616600I75000J0D01*
G01*
X136406000Y-96616600D01*
G75*
G02*
X136481000Y-96691600I0J-75000D01*
G01*
X136481000Y-98016600D01*
G75*
G02*
X136406000Y-98091600I-75000J0D01*
G01*
G37*
G36*
G01*
X135906000Y-98091600D02*
X135756000Y-98091600D01*
G75*
G02*
X135681000Y-98016600I0J75000D01*
G01*
X135681000Y-96691600D01*
G75*
G02*
X135756000Y-96616600I75000J0D01*
G01*
X135906000Y-96616600D01*
G75*
G02*
X135981000Y-96691600I0J-75000D01*
G01*
X135981000Y-98016600D01*
G75*
G02*
X135906000Y-98091600I-75000J0D01*
G01*
G37*
G36*
G01*
X135406000Y-98091600D02*
X135256000Y-98091600D01*
G75*
G02*
X135181000Y-98016600I0J75000D01*
G01*
X135181000Y-96691600D01*
G75*
G02*
X135256000Y-96616600I75000J0D01*
G01*
X135406000Y-96616600D01*
G75*
G02*
X135481000Y-96691600I0J-75000D01*
G01*
X135481000Y-98016600D01*
G75*
G02*
X135406000Y-98091600I-75000J0D01*
G01*
G37*
G36*
G01*
X134906000Y-98091600D02*
X134756000Y-98091600D01*
G75*
G02*
X134681000Y-98016600I0J75000D01*
G01*
X134681000Y-96691600D01*
G75*
G02*
X134756000Y-96616600I75000J0D01*
G01*
X134906000Y-96616600D01*
G75*
G02*
X134981000Y-96691600I0J-75000D01*
G01*
X134981000Y-98016600D01*
G75*
G02*
X134906000Y-98091600I-75000J0D01*
G01*
G37*
G36*
G01*
X134406000Y-98091600D02*
X134256000Y-98091600D01*
G75*
G02*
X134181000Y-98016600I0J75000D01*
G01*
X134181000Y-96691600D01*
G75*
G02*
X134256000Y-96616600I75000J0D01*
G01*
X134406000Y-96616600D01*
G75*
G02*
X134481000Y-96691600I0J-75000D01*
G01*
X134481000Y-98016600D01*
G75*
G02*
X134406000Y-98091600I-75000J0D01*
G01*
G37*
G36*
G01*
X134406000Y-105516600D02*
X134256000Y-105516600D01*
G75*
G02*
X134181000Y-105441600I0J75000D01*
G01*
X134181000Y-104116600D01*
G75*
G02*
X134256000Y-104041600I75000J0D01*
G01*
X134406000Y-104041600D01*
G75*
G02*
X134481000Y-104116600I0J-75000D01*
G01*
X134481000Y-105441600D01*
G75*
G02*
X134406000Y-105516600I-75000J0D01*
G01*
G37*
G36*
G01*
X134906000Y-105516600D02*
X134756000Y-105516600D01*
G75*
G02*
X134681000Y-105441600I0J75000D01*
G01*
X134681000Y-104116600D01*
G75*
G02*
X134756000Y-104041600I75000J0D01*
G01*
X134906000Y-104041600D01*
G75*
G02*
X134981000Y-104116600I0J-75000D01*
G01*
X134981000Y-105441600D01*
G75*
G02*
X134906000Y-105516600I-75000J0D01*
G01*
G37*
G36*
G01*
X135406000Y-105516600D02*
X135256000Y-105516600D01*
G75*
G02*
X135181000Y-105441600I0J75000D01*
G01*
X135181000Y-104116600D01*
G75*
G02*
X135256000Y-104041600I75000J0D01*
G01*
X135406000Y-104041600D01*
G75*
G02*
X135481000Y-104116600I0J-75000D01*
G01*
X135481000Y-105441600D01*
G75*
G02*
X135406000Y-105516600I-75000J0D01*
G01*
G37*
G36*
G01*
X135906000Y-105516600D02*
X135756000Y-105516600D01*
G75*
G02*
X135681000Y-105441600I0J75000D01*
G01*
X135681000Y-104116600D01*
G75*
G02*
X135756000Y-104041600I75000J0D01*
G01*
X135906000Y-104041600D01*
G75*
G02*
X135981000Y-104116600I0J-75000D01*
G01*
X135981000Y-105441600D01*
G75*
G02*
X135906000Y-105516600I-75000J0D01*
G01*
G37*
G36*
G01*
X136406000Y-105516600D02*
X136256000Y-105516600D01*
G75*
G02*
X136181000Y-105441600I0J75000D01*
G01*
X136181000Y-104116600D01*
G75*
G02*
X136256000Y-104041600I75000J0D01*
G01*
X136406000Y-104041600D01*
G75*
G02*
X136481000Y-104116600I0J-75000D01*
G01*
X136481000Y-105441600D01*
G75*
G02*
X136406000Y-105516600I-75000J0D01*
G01*
G37*
G36*
G01*
X136906000Y-105516600D02*
X136756000Y-105516600D01*
G75*
G02*
X136681000Y-105441600I0J75000D01*
G01*
X136681000Y-104116600D01*
G75*
G02*
X136756000Y-104041600I75000J0D01*
G01*
X136906000Y-104041600D01*
G75*
G02*
X136981000Y-104116600I0J-75000D01*
G01*
X136981000Y-105441600D01*
G75*
G02*
X136906000Y-105516600I-75000J0D01*
G01*
G37*
G36*
G01*
X137406000Y-105516600D02*
X137256000Y-105516600D01*
G75*
G02*
X137181000Y-105441600I0J75000D01*
G01*
X137181000Y-104116600D01*
G75*
G02*
X137256000Y-104041600I75000J0D01*
G01*
X137406000Y-104041600D01*
G75*
G02*
X137481000Y-104116600I0J-75000D01*
G01*
X137481000Y-105441600D01*
G75*
G02*
X137406000Y-105516600I-75000J0D01*
G01*
G37*
G36*
G01*
X137906000Y-105516600D02*
X137756000Y-105516600D01*
G75*
G02*
X137681000Y-105441600I0J75000D01*
G01*
X137681000Y-104116600D01*
G75*
G02*
X137756000Y-104041600I75000J0D01*
G01*
X137906000Y-104041600D01*
G75*
G02*
X137981000Y-104116600I0J-75000D01*
G01*
X137981000Y-105441600D01*
G75*
G02*
X137906000Y-105516600I-75000J0D01*
G01*
G37*
G36*
G01*
X138406000Y-105516600D02*
X138256000Y-105516600D01*
G75*
G02*
X138181000Y-105441600I0J75000D01*
G01*
X138181000Y-104116600D01*
G75*
G02*
X138256000Y-104041600I75000J0D01*
G01*
X138406000Y-104041600D01*
G75*
G02*
X138481000Y-104116600I0J-75000D01*
G01*
X138481000Y-105441600D01*
G75*
G02*
X138406000Y-105516600I-75000J0D01*
G01*
G37*
G36*
G01*
X138906000Y-105516600D02*
X138756000Y-105516600D01*
G75*
G02*
X138681000Y-105441600I0J75000D01*
G01*
X138681000Y-104116600D01*
G75*
G02*
X138756000Y-104041600I75000J0D01*
G01*
X138906000Y-104041600D01*
G75*
G02*
X138981000Y-104116600I0J-75000D01*
G01*
X138981000Y-105441600D01*
G75*
G02*
X138906000Y-105516600I-75000J0D01*
G01*
G37*
G36*
G01*
X139406000Y-105516600D02*
X139256000Y-105516600D01*
G75*
G02*
X139181000Y-105441600I0J75000D01*
G01*
X139181000Y-104116600D01*
G75*
G02*
X139256000Y-104041600I75000J0D01*
G01*
X139406000Y-104041600D01*
G75*
G02*
X139481000Y-104116600I0J-75000D01*
G01*
X139481000Y-105441600D01*
G75*
G02*
X139406000Y-105516600I-75000J0D01*
G01*
G37*
G36*
G01*
X139906000Y-105516600D02*
X139756000Y-105516600D01*
G75*
G02*
X139681000Y-105441600I0J75000D01*
G01*
X139681000Y-104116600D01*
G75*
G02*
X139756000Y-104041600I75000J0D01*
G01*
X139906000Y-104041600D01*
G75*
G02*
X139981000Y-104116600I0J-75000D01*
G01*
X139981000Y-105441600D01*
G75*
G02*
X139906000Y-105516600I-75000J0D01*
G01*
G37*
G36*
G01*
X140406000Y-105516600D02*
X140256000Y-105516600D01*
G75*
G02*
X140181000Y-105441600I0J75000D01*
G01*
X140181000Y-104116600D01*
G75*
G02*
X140256000Y-104041600I75000J0D01*
G01*
X140406000Y-104041600D01*
G75*
G02*
X140481000Y-104116600I0J-75000D01*
G01*
X140481000Y-105441600D01*
G75*
G02*
X140406000Y-105516600I-75000J0D01*
G01*
G37*
G36*
G01*
X140906000Y-105516600D02*
X140756000Y-105516600D01*
G75*
G02*
X140681000Y-105441600I0J75000D01*
G01*
X140681000Y-104116600D01*
G75*
G02*
X140756000Y-104041600I75000J0D01*
G01*
X140906000Y-104041600D01*
G75*
G02*
X140981000Y-104116600I0J-75000D01*
G01*
X140981000Y-105441600D01*
G75*
G02*
X140906000Y-105516600I-75000J0D01*
G01*
G37*
G36*
G01*
X141406000Y-105516600D02*
X141256000Y-105516600D01*
G75*
G02*
X141181000Y-105441600I0J75000D01*
G01*
X141181000Y-104116600D01*
G75*
G02*
X141256000Y-104041600I75000J0D01*
G01*
X141406000Y-104041600D01*
G75*
G02*
X141481000Y-104116600I0J-75000D01*
G01*
X141481000Y-105441600D01*
G75*
G02*
X141406000Y-105516600I-75000J0D01*
G01*
G37*
G36*
G01*
X141906000Y-105516600D02*
X141756000Y-105516600D01*
G75*
G02*
X141681000Y-105441600I0J75000D01*
G01*
X141681000Y-104116600D01*
G75*
G02*
X141756000Y-104041600I75000J0D01*
G01*
X141906000Y-104041600D01*
G75*
G02*
X141981000Y-104116600I0J-75000D01*
G01*
X141981000Y-105441600D01*
G75*
G02*
X141906000Y-105516600I-75000J0D01*
G01*
G37*
G36*
G01*
X142406000Y-105516600D02*
X142256000Y-105516600D01*
G75*
G02*
X142181000Y-105441600I0J75000D01*
G01*
X142181000Y-104116600D01*
G75*
G02*
X142256000Y-104041600I75000J0D01*
G01*
X142406000Y-104041600D01*
G75*
G02*
X142481000Y-104116600I0J-75000D01*
G01*
X142481000Y-105441600D01*
G75*
G02*
X142406000Y-105516600I-75000J0D01*
G01*
G37*
G36*
G01*
X142906000Y-105516600D02*
X142756000Y-105516600D01*
G75*
G02*
X142681000Y-105441600I0J75000D01*
G01*
X142681000Y-104116600D01*
G75*
G02*
X142756000Y-104041600I75000J0D01*
G01*
X142906000Y-104041600D01*
G75*
G02*
X142981000Y-104116600I0J-75000D01*
G01*
X142981000Y-105441600D01*
G75*
G02*
X142906000Y-105516600I-75000J0D01*
G01*
G37*
G36*
G01*
X143406000Y-105516600D02*
X143256000Y-105516600D01*
G75*
G02*
X143181000Y-105441600I0J75000D01*
G01*
X143181000Y-104116600D01*
G75*
G02*
X143256000Y-104041600I75000J0D01*
G01*
X143406000Y-104041600D01*
G75*
G02*
X143481000Y-104116600I0J-75000D01*
G01*
X143481000Y-105441600D01*
G75*
G02*
X143406000Y-105516600I-75000J0D01*
G01*
G37*
G36*
G01*
X143906000Y-105516600D02*
X143756000Y-105516600D01*
G75*
G02*
X143681000Y-105441600I0J75000D01*
G01*
X143681000Y-104116600D01*
G75*
G02*
X143756000Y-104041600I75000J0D01*
G01*
X143906000Y-104041600D01*
G75*
G02*
X143981000Y-104116600I0J-75000D01*
G01*
X143981000Y-105441600D01*
G75*
G02*
X143906000Y-105516600I-75000J0D01*
G01*
G37*
G36*
G01*
X144406000Y-105516600D02*
X144256000Y-105516600D01*
G75*
G02*
X144181000Y-105441600I0J75000D01*
G01*
X144181000Y-104116600D01*
G75*
G02*
X144256000Y-104041600I75000J0D01*
G01*
X144406000Y-104041600D01*
G75*
G02*
X144481000Y-104116600I0J-75000D01*
G01*
X144481000Y-105441600D01*
G75*
G02*
X144406000Y-105516600I-75000J0D01*
G01*
G37*
G36*
G01*
X144906000Y-105516600D02*
X144756000Y-105516600D01*
G75*
G02*
X144681000Y-105441600I0J75000D01*
G01*
X144681000Y-104116600D01*
G75*
G02*
X144756000Y-104041600I75000J0D01*
G01*
X144906000Y-104041600D01*
G75*
G02*
X144981000Y-104116600I0J-75000D01*
G01*
X144981000Y-105441600D01*
G75*
G02*
X144906000Y-105516600I-75000J0D01*
G01*
G37*
G36*
G01*
X145406000Y-105516600D02*
X145256000Y-105516600D01*
G75*
G02*
X145181000Y-105441600I0J75000D01*
G01*
X145181000Y-104116600D01*
G75*
G02*
X145256000Y-104041600I75000J0D01*
G01*
X145406000Y-104041600D01*
G75*
G02*
X145481000Y-104116600I0J-75000D01*
G01*
X145481000Y-105441600D01*
G75*
G02*
X145406000Y-105516600I-75000J0D01*
G01*
G37*
G36*
G01*
X145906000Y-105516600D02*
X145756000Y-105516600D01*
G75*
G02*
X145681000Y-105441600I0J75000D01*
G01*
X145681000Y-104116600D01*
G75*
G02*
X145756000Y-104041600I75000J0D01*
G01*
X145906000Y-104041600D01*
G75*
G02*
X145981000Y-104116600I0J-75000D01*
G01*
X145981000Y-105441600D01*
G75*
G02*
X145906000Y-105516600I-75000J0D01*
G01*
G37*
D10*
X140458400Y-89985300D03*
X140458400Y-90635300D03*
X140458400Y-91285300D03*
X140458400Y-91935300D03*
X140458400Y-92585300D03*
X140458400Y-93235300D03*
X140458400Y-93885300D03*
X146358400Y-93885300D03*
X146358400Y-93235300D03*
X146358400Y-92585300D03*
X146358400Y-91935300D03*
X146358400Y-91285300D03*
X146358400Y-90635300D03*
X146358400Y-89985300D03*
G36*
G01*
X148143250Y-91497800D02*
X148655750Y-91497800D01*
G75*
G02*
X148874500Y-91716550I0J-218750D01*
G01*
X148874500Y-92154050D01*
G75*
G02*
X148655750Y-92372800I-218750J0D01*
G01*
X148143250Y-92372800D01*
G75*
G02*
X147924500Y-92154050I0J218750D01*
G01*
X147924500Y-91716550D01*
G75*
G02*
X148143250Y-91497800I218750J0D01*
G01*
G37*
G36*
G01*
X148143250Y-89922800D02*
X148655750Y-89922800D01*
G75*
G02*
X148874500Y-90141550I0J-218750D01*
G01*
X148874500Y-90579050D01*
G75*
G02*
X148655750Y-90797800I-218750J0D01*
G01*
X148143250Y-90797800D01*
G75*
G02*
X147924500Y-90579050I0J218750D01*
G01*
X147924500Y-90141550D01*
G75*
G02*
X148143250Y-89922800I218750J0D01*
G01*
G37*
M02*
