M48
; DRILL file {KiCad (5.1.12)-1} date 08/10/22 22:17:12
; FORMAT={-:-/ absolute / metric / decimal}
; #@! TF.CreationDate,2022-08-10T22:17:12-07:00
; #@! TF.GenerationSoftware,Kicad,Pcbnew,(5.1.12)-1
; #@! TF.FileFunction,Plated,1,4,PTH
FMAT,2
METRIC
T1C0.250
T2C0.400
T3C0.650
T4C1.000
%
G90
G05
T1
X130.897Y-95.299
X131.267Y-147.117
X131.394Y-124.181
X131.483Y-126.886
X131.864Y-103.784
X131.889Y-101.702
X132.55Y-104.343
X132.715Y-89.929
X132.766Y-93.429
X132.791Y-91.479
X133.134Y-125.082
X133.452Y-86.208
X133.655Y-113.17
X133.747Y-90.602
X133.769Y-135.014
X133.782Y-99.619
X134.163Y-113.843
X134.328Y-117.589
X134.696Y-106.439
X134.81Y-99.276
X134.836Y-113.627
X135.041Y-89.775
X135.42Y-110.96
X135.433Y-90.78
X135.471Y-110.338
X135.506Y-106.08
X135.534Y-109.753
X135.538Y-95.453
X135.56Y-109.106
X135.683Y-108.535
X135.727Y-111.448
X135.792Y-143.967
X135.928Y-91.897
X135.953Y-92.545
X136.013Y-90.157
X136.538Y-114.986
X136.633Y-143.715
X136.665Y-132.423
X136.677Y-145.517
X136.703Y-144.903
X136.715Y-107.201
X136.736Y-144.283
X136.855Y-126.39
X137.122Y-115.583
X137.211Y-106.667
X137.35Y-132.398
X137.389Y-87.249
X137.958Y-137.536
X138.024Y-106.46
X138.087Y-145.478
X138.092Y-132.458
X138.161Y-143.241
X138.557Y-95.872
X138.633Y-92.405
X138.668Y-132.5
X138.684Y-106.502
X138.748Y-112.319
X138.808Y-143.035
X138.811Y-103.099
X138.862Y-145.466
X139.129Y-138.112
X139.192Y-151.003
X139.268Y-103.416
X139.268Y-132.512
X139.421Y-106.413
X139.433Y-115.735
X139.473Y-142.762
X139.497Y-95.631
X139.548Y-145.542
X140.005Y-145.936
X140.017Y-128.753
X140.119Y-106.324
X140.246Y-133.751
X140.335Y-115.481
X140.348Y-102.311
X140.373Y-132.448
X140.462Y-89.154
X140.473Y-142.531
X140.718Y-106.234
X140.754Y-112.56
X140.854Y-106.795
X140.894Y-96.046
X140.912Y-115.467
X140.995Y-74.498
X141.072Y-76.441
X141.097Y-72.619
X141.237Y-138.443
X141.337Y-73.446
X141.469Y-142.324
X141.478Y-140.665
X141.491Y-127.343
X141.707Y-111.392
X141.749Y-106.139
X141.846Y-92.57
X142.126Y-90.868
X142.354Y-106.743
X142.458Y-145.732
X142.469Y-86.563
X142.799Y-92.596
X142.824Y-106.401
X142.918Y-146.121
X142.985Y-120.752
X143.027Y-154.965
X143.314Y-73.622
X143.32Y-106.705
X143.589Y-145.987
X143.713Y-137.503
X143.825Y-106.299
X143.882Y-107.912
X143.954Y-72.746
X144.043Y-102.845
X144.183Y-140.255
X144.247Y-73.876
X144.259Y-141.135
X144.348Y-138.062
X144.367Y-113.011
X144.367Y-112.424
X144.371Y-113.592
X144.401Y-106.326
X144.602Y-148.717
X144.716Y-90.818
X144.729Y-123.943
X144.755Y-122.949
X144.786Y-108.613
X144.79Y-126.389
X144.793Y-126.98
X144.805Y-125.501
X144.945Y-93.256
X144.978Y-106.345
X145.097Y-115.113
X145.288Y-92.608
X145.478Y-106.058
X146.545Y-117.564
X147.269Y-106.058
X147.358Y-100.8
X147.397Y-138.024
X147.422Y-122.428
X147.422Y-127.965
X147.447Y-125.451
X147.511Y-124.168
X147.739Y-102.933
X148.113Y-122.359
X148.113Y-126.015
X148.129Y-105.677
X148.238Y-134.391
X148.272Y-93.345
X148.387Y-117.462
X148.412Y-89.116
X148.45Y-103.645
X148.666Y-104.521
X149.045Y-105.377
X149.217Y-106.012
X149.225Y-113.805
T2
X130.848Y-130.34
T3
X133.121Y-84.15
X134.391Y-84.15
X135.661Y-84.15
X136.931Y-84.15
X138.201Y-84.15
X139.471Y-84.15
X140.741Y-84.15
X142.011Y-84.15
X146.644Y-149.489
X146.644Y-150.759
X146.644Y-152.029
X146.644Y-153.299
X146.644Y-154.569
X147.914Y-149.489
X147.914Y-150.759
X147.914Y-152.029
X147.914Y-153.299
X147.914Y-154.569
X147.937Y-85.11
X147.937Y-86.38
T4
X128.507Y-73.419
X128.507Y-75.959
X128.507Y-78.499
X128.507Y-81.039
X128.507Y-83.579
X128.507Y-86.119
X128.507Y-88.659
X128.507Y-91.199
X128.507Y-93.739
X128.507Y-96.279
X128.507Y-98.819
X128.507Y-101.359
X128.507Y-103.899
X128.507Y-106.439
X128.507Y-108.979
X128.507Y-111.519
X128.507Y-114.059
X128.507Y-116.599
X128.507Y-119.139
X128.507Y-121.679
X128.507Y-124.219
X128.507Y-126.759
X128.507Y-129.299
X128.507Y-131.839
X128.507Y-134.379
X128.507Y-136.919
X128.507Y-139.459
X128.507Y-141.999
X128.507Y-144.539
X128.507Y-147.079
X128.507Y-149.619
X128.507Y-152.159
X151.367Y-73.419
X151.367Y-75.959
X151.367Y-78.499
X151.367Y-81.039
X151.367Y-83.579
X151.367Y-86.119
X151.367Y-88.659
X151.367Y-91.199
X151.367Y-93.739
X151.367Y-96.279
X151.367Y-98.819
X151.367Y-101.359
X151.367Y-103.899
X151.367Y-106.439
X151.367Y-108.979
X151.367Y-111.519
X151.367Y-114.059
X151.367Y-116.599
X151.367Y-119.139
X151.367Y-121.679
X151.367Y-124.219
X151.367Y-126.759
X151.367Y-129.299
X151.367Y-131.839
X151.367Y-134.379
X151.367Y-136.919
X151.367Y-139.459
X151.367Y-141.999
X151.367Y-144.539
X151.367Y-147.079
X151.367Y-149.619
X151.367Y-152.159
T0
M30
