G04 #@! TF.GenerationSoftware,KiCad,Pcbnew,(5.1.12)-1*
G04 #@! TF.CreationDate,2022-05-19T15:12:52-07:00*
G04 #@! TF.ProjectId,vera-module-rev4,76657261-2d6d-46f6-9475-6c652d726576,rev?*
G04 #@! TF.SameCoordinates,Original*
G04 #@! TF.FileFunction,Legend,Bot*
G04 #@! TF.FilePolarity,Positive*
%FSLAX46Y46*%
G04 Gerber Fmt 4.6, Leading zero omitted, Abs format (unit mm)*
G04 Created by KiCad (PCBNEW (5.1.12)-1) date 2022-05-19 15:12:52*
%MOMM*%
%LPD*%
G01*
G04 APERTURE LIST*
%ADD10C,0.120000*%
%ADD11C,0.150000*%
%ADD12C,0.100000*%
%ADD13O,1.802000X1.802000*%
G04 APERTURE END LIST*
D10*
X132920000Y-98525424D02*
X132920000Y-98015976D01*
X131875000Y-98525424D02*
X131875000Y-98015976D01*
X142920333Y-88813100D02*
X143212867Y-88813100D01*
X142920333Y-87793100D02*
X143212867Y-87793100D01*
X134259400Y-94504900D02*
X132059400Y-94504900D01*
X134259400Y-94504900D02*
X136459400Y-94504900D01*
X134259400Y-89284900D02*
X132059400Y-89284900D01*
X134259400Y-89284900D02*
X137859400Y-89284900D01*
X131726200Y-73455624D02*
X131726200Y-72946176D01*
X130681200Y-73455624D02*
X130681200Y-72946176D01*
X149226800Y-83833424D02*
X149226800Y-83323976D01*
X148181800Y-83833424D02*
X148181800Y-83323976D01*
X130681200Y-81076076D02*
X130681200Y-81585524D01*
X131726200Y-81076076D02*
X131726200Y-81585524D01*
X148181800Y-79374276D02*
X148181800Y-79883724D01*
X149226800Y-79374276D02*
X149226800Y-79883724D01*
X149226800Y-75311724D02*
X149226800Y-74802276D01*
X148181800Y-75311724D02*
X148181800Y-74802276D01*
X131726200Y-77265624D02*
X131726200Y-76756176D01*
X130681200Y-77265624D02*
X130681200Y-76756176D01*
X133166733Y-88800400D02*
X133459267Y-88800400D01*
X133166733Y-87780400D02*
X133459267Y-87780400D01*
X132434052Y-139981000D02*
X131911548Y-139981000D01*
X132434052Y-141451000D02*
X131911548Y-141451000D01*
X131713700Y-85896667D02*
X131713700Y-85604133D01*
X130693700Y-85896667D02*
X130693700Y-85604133D01*
X132510624Y-147877000D02*
X132001176Y-147877000D01*
X132510624Y-148922000D02*
X132001176Y-148922000D01*
X132502452Y-145873800D02*
X131979948Y-145873800D01*
X132502452Y-147343800D02*
X131979948Y-147343800D01*
X147372600Y-113092324D02*
X147372600Y-112582876D01*
X146327600Y-113092324D02*
X146327600Y-112582876D01*
X148258000Y-112599376D02*
X148258000Y-113108824D01*
X149303000Y-112599376D02*
X149303000Y-113108824D01*
X145861300Y-113092324D02*
X145861300Y-112582876D01*
X144816300Y-113092324D02*
X144816300Y-112582876D01*
X141895100Y-108691633D02*
X141895100Y-108984167D01*
X142915100Y-108691633D02*
X142915100Y-108984167D01*
X140371100Y-108692733D02*
X140371100Y-108985267D01*
X141391100Y-108692733D02*
X141391100Y-108985267D01*
X137323100Y-108691633D02*
X137323100Y-108984167D01*
X138343100Y-108691633D02*
X138343100Y-108984167D01*
X138847100Y-108693833D02*
X138847100Y-108986367D01*
X139867100Y-108693833D02*
X139867100Y-108986367D01*
X144658033Y-108421900D02*
X144950567Y-108421900D01*
X144658033Y-107401900D02*
X144950567Y-107401900D01*
X144660233Y-109920500D02*
X144952767Y-109920500D01*
X144660233Y-108900500D02*
X144952767Y-108900500D01*
X140568633Y-119013700D02*
X140861167Y-119013700D01*
X140568633Y-117993700D02*
X140861167Y-117993700D01*
X140569733Y-117489700D02*
X140862267Y-117489700D01*
X140569733Y-116469700D02*
X140862267Y-116469700D01*
X137114233Y-119001000D02*
X137406767Y-119001000D01*
X137114233Y-117981000D02*
X137406767Y-117981000D01*
X137114233Y-117477000D02*
X137406767Y-117477000D01*
X137114233Y-116457000D02*
X137406767Y-116457000D01*
X145060576Y-120943900D02*
X145570024Y-120943900D01*
X145060576Y-119898900D02*
X145570024Y-119898900D01*
X141999400Y-120691400D02*
X139199400Y-120691400D01*
X139199400Y-120691400D02*
X139199400Y-122691400D01*
X139199400Y-122691400D02*
X141999400Y-122691400D01*
X141999400Y-122691400D02*
X141999400Y-120691400D01*
X147982200Y-127740142D02*
X147982200Y-128214658D01*
X146937200Y-127740142D02*
X146937200Y-128214658D01*
X136388600Y-132963700D02*
X136388600Y-137063700D01*
X136388600Y-137063700D02*
X138388600Y-137063700D01*
X138388600Y-137063700D02*
X138388600Y-132963700D01*
X138388600Y-132963700D02*
X136388600Y-132963700D01*
X138588600Y-133713700D02*
X138888600Y-133413700D01*
X138888600Y-133413700D02*
X138888600Y-134013700D01*
X138588600Y-133713700D02*
X138888600Y-134013700D01*
X139233400Y-132963700D02*
X139233400Y-137063700D01*
X139233400Y-137063700D02*
X141233400Y-137063700D01*
X141233400Y-137063700D02*
X141233400Y-132963700D01*
X141233400Y-132963700D02*
X139233400Y-132963700D01*
X141433400Y-133713700D02*
X141733400Y-133413700D01*
X141733400Y-133413700D02*
X141733400Y-134013700D01*
X141433400Y-133713700D02*
X141733400Y-134013700D01*
X142078200Y-132968300D02*
X142078200Y-137068300D01*
X142078200Y-137068300D02*
X144078200Y-137068300D01*
X144078200Y-137068300D02*
X144078200Y-132968300D01*
X144078200Y-132968300D02*
X142078200Y-132968300D01*
X144278200Y-133718300D02*
X144578200Y-133418300D01*
X144578200Y-133418300D02*
X144578200Y-134018300D01*
X144278200Y-133718300D02*
X144578200Y-134018300D01*
X133721000Y-101066600D02*
X133721000Y-97906600D01*
X133721000Y-97906600D02*
X133921000Y-97906600D01*
X133721000Y-101066600D02*
X133721000Y-104226600D01*
X133721000Y-104226600D02*
X133921000Y-104226600D01*
X146441000Y-101066600D02*
X146441000Y-97906600D01*
X146441000Y-97906600D02*
X146241000Y-97906600D01*
X146441000Y-101066600D02*
X146441000Y-104226600D01*
X146441000Y-104226600D02*
X146241000Y-104226600D01*
X146241000Y-104226600D02*
X146241000Y-105516600D01*
X142933600Y-70151800D02*
X142423600Y-70501800D01*
X145443600Y-70351800D02*
X145703600Y-70351800D01*
X145243600Y-70151800D02*
X145443600Y-70351800D01*
X135843600Y-70151800D02*
X136053600Y-70351800D01*
X136053600Y-70501800D02*
X136053600Y-70351800D01*
X136053600Y-70501800D02*
X142423600Y-70501800D01*
X132953600Y-75111800D02*
X132953600Y-73311800D01*
X132953600Y-81111800D02*
X132953600Y-76411800D01*
X133983600Y-70151800D02*
X133783600Y-70351800D01*
X133983600Y-70151800D02*
X135843600Y-70151800D01*
X145243600Y-70151800D02*
X142933600Y-70151800D01*
X132953600Y-86421800D02*
X132953600Y-82811800D01*
X133403600Y-86421800D02*
X132953600Y-86421800D01*
X146923600Y-86421800D02*
X146923600Y-72411800D01*
X145003600Y-86421800D02*
X146923600Y-86421800D01*
X152697300Y-153488700D02*
X150037300Y-153488700D01*
X152697300Y-74688700D02*
X152697300Y-153488700D01*
X150037300Y-74688700D02*
X150037300Y-153488700D01*
X152697300Y-74688700D02*
X150037300Y-74688700D01*
X152697300Y-73418700D02*
X152697300Y-72088700D01*
X152697300Y-72088700D02*
X151367300Y-72088700D01*
X129837300Y-153488700D02*
X127177300Y-153488700D01*
X129837300Y-74688700D02*
X129837300Y-153488700D01*
X127177300Y-74688700D02*
X127177300Y-153488700D01*
X129837300Y-74688700D02*
X127177300Y-74688700D01*
X129837300Y-73418700D02*
X129837300Y-72088700D01*
X129837300Y-72088700D02*
X128507300Y-72088700D01*
X130558900Y-144567300D02*
X130558900Y-142767300D01*
X133778900Y-142767300D02*
X133778900Y-145217300D01*
D11*
X145733400Y-89310300D02*
X145733400Y-89435300D01*
X141083400Y-89310300D02*
X141083400Y-89535300D01*
X141083400Y-94560300D02*
X141083400Y-94335300D01*
X145733400Y-94560300D02*
X145733400Y-94335300D01*
X145733400Y-89310300D02*
X141083400Y-89310300D01*
X145733400Y-94560300D02*
X141083400Y-94560300D01*
X145733400Y-89435300D02*
X147083400Y-89435300D01*
D10*
X147889500Y-90985021D02*
X147889500Y-91310579D01*
X148909500Y-90985021D02*
X148909500Y-91310579D01*
X148795000Y-119454600D02*
X147770000Y-119454600D01*
X148795000Y-119454600D02*
X148795000Y-118429600D01*
X148795000Y-114684600D02*
X148795000Y-115709600D01*
X148795000Y-114684600D02*
X147770000Y-114684600D01*
X144575000Y-114684600D02*
X145600000Y-114684600D01*
X144575000Y-119454600D02*
X145600000Y-119454600D01*
X144575000Y-114684600D02*
X144575000Y-115709600D01*
X144575000Y-119454600D02*
X144575000Y-118429600D01*
D12*
X131514804Y-97593214D02*
X131133852Y-97326547D01*
X131514804Y-97136071D02*
X130714804Y-97136071D01*
X130714804Y-97440833D01*
X130752900Y-97517023D01*
X130790995Y-97555119D01*
X130867185Y-97593214D01*
X130981471Y-97593214D01*
X131057661Y-97555119D01*
X131095757Y-97517023D01*
X131133852Y-97440833D01*
X131133852Y-97136071D01*
X131514804Y-98355119D02*
X131514804Y-97897976D01*
X131514804Y-98126547D02*
X130714804Y-98126547D01*
X130829090Y-98050357D01*
X130905280Y-97974166D01*
X130943376Y-97897976D01*
X130790995Y-98659880D02*
X130752900Y-98697976D01*
X130714804Y-98774166D01*
X130714804Y-98964642D01*
X130752900Y-99040833D01*
X130790995Y-99078928D01*
X130867185Y-99117023D01*
X130943376Y-99117023D01*
X131057661Y-99078928D01*
X131514804Y-98621785D01*
X131514804Y-99117023D01*
X145675333Y-88665014D02*
X145713428Y-88703109D01*
X145827714Y-88741204D01*
X145903904Y-88741204D01*
X146018190Y-88703109D01*
X146094380Y-88626919D01*
X146132476Y-88550728D01*
X146170571Y-88398347D01*
X146170571Y-88284061D01*
X146132476Y-88131680D01*
X146094380Y-88055490D01*
X146018190Y-87979300D01*
X145903904Y-87941204D01*
X145827714Y-87941204D01*
X145713428Y-87979300D01*
X145675333Y-88017395D01*
X144913428Y-88741204D02*
X145370571Y-88741204D01*
X145142000Y-88741204D02*
X145142000Y-87941204D01*
X145218190Y-88055490D01*
X145294380Y-88131680D01*
X145370571Y-88169776D01*
X135268923Y-87956804D02*
X135268923Y-88604423D01*
X135230828Y-88680614D01*
X135192733Y-88718709D01*
X135116542Y-88756804D01*
X134964161Y-88756804D01*
X134887971Y-88718709D01*
X134849876Y-88680614D01*
X134811780Y-88604423D01*
X134811780Y-87956804D01*
X134087971Y-88223471D02*
X134087971Y-88756804D01*
X134278447Y-87918709D02*
X134468923Y-88490138D01*
X133973685Y-88490138D01*
X131591004Y-70554866D02*
X131210052Y-70288200D01*
X131591004Y-70097723D02*
X130791004Y-70097723D01*
X130791004Y-70402485D01*
X130829100Y-70478676D01*
X130867195Y-70516771D01*
X130943385Y-70554866D01*
X131057671Y-70554866D01*
X131133861Y-70516771D01*
X131171957Y-70478676D01*
X131210052Y-70402485D01*
X131210052Y-70097723D01*
X131591004Y-70935819D02*
X131591004Y-71088200D01*
X131552909Y-71164390D01*
X131514814Y-71202485D01*
X131400528Y-71278676D01*
X131248147Y-71316771D01*
X130943385Y-71316771D01*
X130867195Y-71278676D01*
X130829100Y-71240580D01*
X130791004Y-71164390D01*
X130791004Y-71012009D01*
X130829100Y-70935819D01*
X130867195Y-70897723D01*
X130943385Y-70859628D01*
X131133861Y-70859628D01*
X131210052Y-70897723D01*
X131248147Y-70935819D01*
X131286242Y-71012009D01*
X131286242Y-71164390D01*
X131248147Y-71240580D01*
X131210052Y-71278676D01*
X131133861Y-71316771D01*
X147123195Y-83661233D02*
X147504147Y-83927900D01*
X147123195Y-84118376D02*
X147923195Y-84118376D01*
X147923195Y-83813614D01*
X147885100Y-83737423D01*
X147847004Y-83699328D01*
X147770814Y-83661233D01*
X147656528Y-83661233D01*
X147580338Y-83699328D01*
X147542242Y-83737423D01*
X147504147Y-83813614D01*
X147504147Y-84118376D01*
X147580338Y-83204090D02*
X147618433Y-83280280D01*
X147656528Y-83318376D01*
X147732719Y-83356471D01*
X147770814Y-83356471D01*
X147847004Y-83318376D01*
X147885100Y-83280280D01*
X147923195Y-83204090D01*
X147923195Y-83051709D01*
X147885100Y-82975519D01*
X147847004Y-82937423D01*
X147770814Y-82899328D01*
X147732719Y-82899328D01*
X147656528Y-82937423D01*
X147618433Y-82975519D01*
X147580338Y-83051709D01*
X147580338Y-83204090D01*
X147542242Y-83280280D01*
X147504147Y-83318376D01*
X147427957Y-83356471D01*
X147275576Y-83356471D01*
X147199385Y-83318376D01*
X147161290Y-83280280D01*
X147123195Y-83204090D01*
X147123195Y-83051709D01*
X147161290Y-82975519D01*
X147199385Y-82937423D01*
X147275576Y-82899328D01*
X147427957Y-82899328D01*
X147504147Y-82937423D01*
X147542242Y-82975519D01*
X147580338Y-83051709D01*
X132810204Y-80295766D02*
X132429252Y-80029100D01*
X132810204Y-79838623D02*
X132010204Y-79838623D01*
X132010204Y-80143385D01*
X132048300Y-80219576D01*
X132086395Y-80257671D01*
X132162585Y-80295766D01*
X132276871Y-80295766D01*
X132353061Y-80257671D01*
X132391157Y-80219576D01*
X132429252Y-80143385D01*
X132429252Y-79838623D01*
X132010204Y-80562433D02*
X132010204Y-81095766D01*
X132810204Y-80752909D01*
X148012104Y-79482966D02*
X147631152Y-79216300D01*
X148012104Y-79025823D02*
X147212104Y-79025823D01*
X147212104Y-79330585D01*
X147250200Y-79406776D01*
X147288295Y-79444871D01*
X147364485Y-79482966D01*
X147478771Y-79482966D01*
X147554961Y-79444871D01*
X147593057Y-79406776D01*
X147631152Y-79330585D01*
X147631152Y-79025823D01*
X147212104Y-80168680D02*
X147212104Y-80016300D01*
X147250200Y-79940109D01*
X147288295Y-79902014D01*
X147402580Y-79825823D01*
X147554961Y-79787728D01*
X147859723Y-79787728D01*
X147935914Y-79825823D01*
X147974009Y-79863919D01*
X148012104Y-79940109D01*
X148012104Y-80092490D01*
X147974009Y-80168680D01*
X147935914Y-80206776D01*
X147859723Y-80244871D01*
X147669247Y-80244871D01*
X147593057Y-80206776D01*
X147554961Y-80168680D01*
X147516866Y-80092490D01*
X147516866Y-79940109D01*
X147554961Y-79863919D01*
X147593057Y-79825823D01*
X147669247Y-79787728D01*
X149015404Y-72510666D02*
X148634452Y-72244000D01*
X149015404Y-72053523D02*
X148215404Y-72053523D01*
X148215404Y-72358285D01*
X148253500Y-72434476D01*
X148291595Y-72472571D01*
X148367785Y-72510666D01*
X148482071Y-72510666D01*
X148558261Y-72472571D01*
X148596357Y-72434476D01*
X148634452Y-72358285D01*
X148634452Y-72053523D01*
X148215404Y-73234476D02*
X148215404Y-72853523D01*
X148596357Y-72815428D01*
X148558261Y-72853523D01*
X148520166Y-72929714D01*
X148520166Y-73120190D01*
X148558261Y-73196380D01*
X148596357Y-73234476D01*
X148672547Y-73272571D01*
X148863023Y-73272571D01*
X148939214Y-73234476D01*
X148977309Y-73196380D01*
X149015404Y-73120190D01*
X149015404Y-72929714D01*
X148977309Y-72853523D01*
X148939214Y-72815428D01*
X132759404Y-77095366D02*
X132378452Y-76828700D01*
X132759404Y-76638223D02*
X131959404Y-76638223D01*
X131959404Y-76942985D01*
X131997500Y-77019176D01*
X132035595Y-77057271D01*
X132111785Y-77095366D01*
X132226071Y-77095366D01*
X132302261Y-77057271D01*
X132340357Y-77019176D01*
X132378452Y-76942985D01*
X132378452Y-76638223D01*
X132226071Y-77781080D02*
X132759404Y-77781080D01*
X131921309Y-77590604D02*
X132492738Y-77400128D01*
X132492738Y-77895366D01*
X136975785Y-88665014D02*
X137013880Y-88703109D01*
X137128166Y-88741204D01*
X137204357Y-88741204D01*
X137318642Y-88703109D01*
X137394833Y-88626919D01*
X137432928Y-88550728D01*
X137471023Y-88398347D01*
X137471023Y-88284061D01*
X137432928Y-88131680D01*
X137394833Y-88055490D01*
X137318642Y-87979300D01*
X137204357Y-87941204D01*
X137128166Y-87941204D01*
X137013880Y-87979300D01*
X136975785Y-88017395D01*
X136671023Y-88017395D02*
X136632928Y-87979300D01*
X136556738Y-87941204D01*
X136366261Y-87941204D01*
X136290071Y-87979300D01*
X136251976Y-88017395D01*
X136213880Y-88093585D01*
X136213880Y-88169776D01*
X136251976Y-88284061D01*
X136709119Y-88741204D01*
X136213880Y-88741204D01*
X135947214Y-87941204D02*
X135413880Y-87941204D01*
X135756738Y-88741204D01*
D11*
X132815657Y-139393142D02*
X132863276Y-139440761D01*
X133006133Y-139488380D01*
X133101371Y-139488380D01*
X133244228Y-139440761D01*
X133339466Y-139345523D01*
X133387085Y-139250285D01*
X133434704Y-139059809D01*
X133434704Y-138916952D01*
X133387085Y-138726476D01*
X133339466Y-138631238D01*
X133244228Y-138536000D01*
X133101371Y-138488380D01*
X133006133Y-138488380D01*
X132863276Y-138536000D01*
X132815657Y-138583619D01*
X132434704Y-138583619D02*
X132387085Y-138536000D01*
X132291847Y-138488380D01*
X132053752Y-138488380D01*
X131958514Y-138536000D01*
X131910895Y-138583619D01*
X131863276Y-138678857D01*
X131863276Y-138774095D01*
X131910895Y-138916952D01*
X132482323Y-139488380D01*
X131863276Y-139488380D01*
X131006133Y-138488380D02*
X131196609Y-138488380D01*
X131291847Y-138536000D01*
X131339466Y-138583619D01*
X131434704Y-138726476D01*
X131482323Y-138916952D01*
X131482323Y-139297904D01*
X131434704Y-139393142D01*
X131387085Y-139440761D01*
X131291847Y-139488380D01*
X131101371Y-139488380D01*
X131006133Y-139440761D01*
X130958514Y-139393142D01*
X130910895Y-139297904D01*
X130910895Y-139059809D01*
X130958514Y-138964571D01*
X131006133Y-138916952D01*
X131101371Y-138869333D01*
X131291847Y-138869333D01*
X131387085Y-138916952D01*
X131434704Y-138964571D01*
X131482323Y-139059809D01*
X131197314Y-88144366D02*
X131235409Y-88106271D01*
X131273504Y-87991985D01*
X131273504Y-87915795D01*
X131235409Y-87801509D01*
X131159219Y-87725319D01*
X131083028Y-87687223D01*
X130930647Y-87649128D01*
X130816361Y-87649128D01*
X130663980Y-87687223D01*
X130587790Y-87725319D01*
X130511600Y-87801509D01*
X130473504Y-87915795D01*
X130473504Y-87991985D01*
X130511600Y-88106271D01*
X130549695Y-88144366D01*
X130549695Y-88449128D02*
X130511600Y-88487223D01*
X130473504Y-88563414D01*
X130473504Y-88753890D01*
X130511600Y-88830080D01*
X130549695Y-88868176D01*
X130625885Y-88906271D01*
X130702076Y-88906271D01*
X130816361Y-88868176D01*
X131273504Y-88411033D01*
X131273504Y-88906271D01*
D12*
X135731185Y-148786804D02*
X135997852Y-148405852D01*
X136188328Y-148786804D02*
X136188328Y-147986804D01*
X135883566Y-147986804D01*
X135807376Y-148024900D01*
X135769280Y-148062995D01*
X135731185Y-148139185D01*
X135731185Y-148253471D01*
X135769280Y-148329661D01*
X135807376Y-148367757D01*
X135883566Y-148405852D01*
X136188328Y-148405852D01*
X134969280Y-148786804D02*
X135426423Y-148786804D01*
X135197852Y-148786804D02*
X135197852Y-147986804D01*
X135274042Y-148101090D01*
X135350233Y-148177280D01*
X135426423Y-148215376D01*
X134512138Y-148329661D02*
X134588328Y-148291566D01*
X134626423Y-148253471D01*
X134664519Y-148177280D01*
X134664519Y-148139185D01*
X134626423Y-148062995D01*
X134588328Y-148024900D01*
X134512138Y-147986804D01*
X134359757Y-147986804D01*
X134283566Y-148024900D01*
X134245471Y-148062995D01*
X134207376Y-148139185D01*
X134207376Y-148177280D01*
X134245471Y-148253471D01*
X134283566Y-148291566D01*
X134359757Y-148329661D01*
X134512138Y-148329661D01*
X134588328Y-148367757D01*
X134626423Y-148405852D01*
X134664519Y-148482042D01*
X134664519Y-148634423D01*
X134626423Y-148710614D01*
X134588328Y-148748709D01*
X134512138Y-148786804D01*
X134359757Y-148786804D01*
X134283566Y-148748709D01*
X134245471Y-148710614D01*
X134207376Y-148634423D01*
X134207376Y-148482042D01*
X134245471Y-148405852D01*
X134283566Y-148367757D01*
X134359757Y-148329661D01*
X135794685Y-147021514D02*
X135832780Y-147059609D01*
X135947066Y-147097704D01*
X136023257Y-147097704D01*
X136137542Y-147059609D01*
X136213733Y-146983419D01*
X136251828Y-146907228D01*
X136289923Y-146754847D01*
X136289923Y-146640561D01*
X136251828Y-146488180D01*
X136213733Y-146411990D01*
X136137542Y-146335800D01*
X136023257Y-146297704D01*
X135947066Y-146297704D01*
X135832780Y-146335800D01*
X135794685Y-146373895D01*
X135489923Y-146373895D02*
X135451828Y-146335800D01*
X135375638Y-146297704D01*
X135185161Y-146297704D01*
X135108971Y-146335800D01*
X135070876Y-146373895D01*
X135032780Y-146450085D01*
X135032780Y-146526276D01*
X135070876Y-146640561D01*
X135528019Y-147097704D01*
X135032780Y-147097704D01*
X134308971Y-146297704D02*
X134689923Y-146297704D01*
X134728019Y-146678657D01*
X134689923Y-146640561D01*
X134613733Y-146602466D01*
X134423257Y-146602466D01*
X134347066Y-146640561D01*
X134308971Y-146678657D01*
X134270876Y-146754847D01*
X134270876Y-146945323D01*
X134308971Y-147021514D01*
X134347066Y-147059609D01*
X134423257Y-147097704D01*
X134613733Y-147097704D01*
X134689923Y-147059609D01*
X134728019Y-147021514D01*
X147326285Y-111055104D02*
X147592952Y-110674152D01*
X147783428Y-111055104D02*
X147783428Y-110255104D01*
X147478666Y-110255104D01*
X147402476Y-110293200D01*
X147364380Y-110331295D01*
X147326285Y-110407485D01*
X147326285Y-110521771D01*
X147364380Y-110597961D01*
X147402476Y-110636057D01*
X147478666Y-110674152D01*
X147783428Y-110674152D01*
X147021523Y-110331295D02*
X146983428Y-110293200D01*
X146907238Y-110255104D01*
X146716761Y-110255104D01*
X146640571Y-110293200D01*
X146602476Y-110331295D01*
X146564380Y-110407485D01*
X146564380Y-110483676D01*
X146602476Y-110597961D01*
X147059619Y-111055104D01*
X146564380Y-111055104D01*
X146069142Y-110255104D02*
X145992952Y-110255104D01*
X145916761Y-110293200D01*
X145878666Y-110331295D01*
X145840571Y-110407485D01*
X145802476Y-110559866D01*
X145802476Y-110750342D01*
X145840571Y-110902723D01*
X145878666Y-110978914D01*
X145916761Y-111017009D01*
X145992952Y-111055104D01*
X146069142Y-111055104D01*
X146145333Y-111017009D01*
X146183428Y-110978914D01*
X146221523Y-110902723D01*
X146259619Y-110750342D01*
X146259619Y-110559866D01*
X146221523Y-110407485D01*
X146183428Y-110331295D01*
X146145333Y-110293200D01*
X146069142Y-110255104D01*
D11*
X149256704Y-109455014D02*
X148875752Y-109188347D01*
X149256704Y-108997871D02*
X148456704Y-108997871D01*
X148456704Y-109302633D01*
X148494800Y-109378823D01*
X148532895Y-109416919D01*
X148609085Y-109455014D01*
X148723371Y-109455014D01*
X148799561Y-109416919D01*
X148837657Y-109378823D01*
X148875752Y-109302633D01*
X148875752Y-108997871D01*
X149256704Y-110216919D02*
X149256704Y-109759776D01*
X149256704Y-109988347D02*
X148456704Y-109988347D01*
X148570990Y-109912157D01*
X148647180Y-109835966D01*
X148685276Y-109759776D01*
X149256704Y-110597871D02*
X149256704Y-110750252D01*
X149218609Y-110826442D01*
X149180514Y-110864538D01*
X149066228Y-110940728D01*
X148913847Y-110978823D01*
X148609085Y-110978823D01*
X148532895Y-110940728D01*
X148494800Y-110902633D01*
X148456704Y-110826442D01*
X148456704Y-110674061D01*
X148494800Y-110597871D01*
X148532895Y-110559776D01*
X148609085Y-110521680D01*
X148799561Y-110521680D01*
X148875752Y-110559776D01*
X148913847Y-110597871D01*
X148951942Y-110674061D01*
X148951942Y-110826442D01*
X148913847Y-110902633D01*
X148875752Y-110940728D01*
X148799561Y-110978823D01*
D12*
X144472790Y-112543471D02*
X144234695Y-112376804D01*
X144472790Y-112257757D02*
X143972790Y-112257757D01*
X143972790Y-112448233D01*
X143996600Y-112495852D01*
X144020409Y-112519661D01*
X144068028Y-112543471D01*
X144139457Y-112543471D01*
X144187076Y-112519661D01*
X144210885Y-112495852D01*
X144234695Y-112448233D01*
X144234695Y-112257757D01*
X144472790Y-113019661D02*
X144472790Y-112733947D01*
X144472790Y-112876804D02*
X143972790Y-112876804D01*
X144044219Y-112829185D01*
X144091838Y-112781566D01*
X144115647Y-112733947D01*
X143972790Y-113186328D02*
X143972790Y-113519661D01*
X144472790Y-113305376D01*
X142754314Y-111093314D02*
X142792409Y-111055219D01*
X142830504Y-110940933D01*
X142830504Y-110864742D01*
X142792409Y-110750457D01*
X142716219Y-110674266D01*
X142640028Y-110636171D01*
X142487647Y-110598076D01*
X142373361Y-110598076D01*
X142220980Y-110636171D01*
X142144790Y-110674266D01*
X142068600Y-110750457D01*
X142030504Y-110864742D01*
X142030504Y-110940933D01*
X142068600Y-111055219D01*
X142106695Y-111093314D01*
X142830504Y-111855219D02*
X142830504Y-111398076D01*
X142830504Y-111626647D02*
X142030504Y-111626647D01*
X142144790Y-111550457D01*
X142220980Y-111474266D01*
X142259076Y-111398076D01*
X142106695Y-112159980D02*
X142068600Y-112198076D01*
X142030504Y-112274266D01*
X142030504Y-112464742D01*
X142068600Y-112540933D01*
X142106695Y-112579028D01*
X142182885Y-112617123D01*
X142259076Y-112617123D01*
X142373361Y-112579028D01*
X142830504Y-112121885D01*
X142830504Y-112617123D01*
X141268414Y-111080614D02*
X141306509Y-111042519D01*
X141344604Y-110928233D01*
X141344604Y-110852042D01*
X141306509Y-110737757D01*
X141230319Y-110661566D01*
X141154128Y-110623471D01*
X141001747Y-110585376D01*
X140887461Y-110585376D01*
X140735080Y-110623471D01*
X140658890Y-110661566D01*
X140582700Y-110737757D01*
X140544604Y-110852042D01*
X140544604Y-110928233D01*
X140582700Y-111042519D01*
X140620795Y-111080614D01*
X141344604Y-111842519D02*
X141344604Y-111385376D01*
X141344604Y-111613947D02*
X140544604Y-111613947D01*
X140658890Y-111537757D01*
X140735080Y-111461566D01*
X140773176Y-111385376D01*
X140544604Y-112337757D02*
X140544604Y-112413947D01*
X140582700Y-112490138D01*
X140620795Y-112528233D01*
X140696985Y-112566328D01*
X140849366Y-112604423D01*
X141039842Y-112604423D01*
X141192223Y-112566328D01*
X141268414Y-112528233D01*
X141306509Y-112490138D01*
X141344604Y-112413947D01*
X141344604Y-112337757D01*
X141306509Y-112261566D01*
X141268414Y-112223471D01*
X141192223Y-112185376D01*
X141039842Y-112147280D01*
X140849366Y-112147280D01*
X140696985Y-112185376D01*
X140620795Y-112223471D01*
X140582700Y-112261566D01*
X140544604Y-112337757D01*
D11*
X138118814Y-111105966D02*
X138156909Y-111067871D01*
X138195004Y-110953585D01*
X138195004Y-110877395D01*
X138156909Y-110763109D01*
X138080719Y-110686919D01*
X138004528Y-110648823D01*
X137852147Y-110610728D01*
X137737861Y-110610728D01*
X137585480Y-110648823D01*
X137509290Y-110686919D01*
X137433100Y-110763109D01*
X137395004Y-110877395D01*
X137395004Y-110953585D01*
X137433100Y-111067871D01*
X137471195Y-111105966D01*
X137737861Y-111563109D02*
X137699766Y-111486919D01*
X137661671Y-111448823D01*
X137585480Y-111410728D01*
X137547385Y-111410728D01*
X137471195Y-111448823D01*
X137433100Y-111486919D01*
X137395004Y-111563109D01*
X137395004Y-111715490D01*
X137433100Y-111791680D01*
X137471195Y-111829776D01*
X137547385Y-111867871D01*
X137585480Y-111867871D01*
X137661671Y-111829776D01*
X137699766Y-111791680D01*
X137737861Y-111715490D01*
X137737861Y-111563109D01*
X137775957Y-111486919D01*
X137814052Y-111448823D01*
X137890242Y-111410728D01*
X138042623Y-111410728D01*
X138118814Y-111448823D01*
X138156909Y-111486919D01*
X138195004Y-111563109D01*
X138195004Y-111715490D01*
X138156909Y-111791680D01*
X138118814Y-111829776D01*
X138042623Y-111867871D01*
X137890242Y-111867871D01*
X137814052Y-111829776D01*
X137775957Y-111791680D01*
X137737861Y-111715490D01*
X139731714Y-111105966D02*
X139769809Y-111067871D01*
X139807904Y-110953585D01*
X139807904Y-110877395D01*
X139769809Y-110763109D01*
X139693619Y-110686919D01*
X139617428Y-110648823D01*
X139465047Y-110610728D01*
X139350761Y-110610728D01*
X139198380Y-110648823D01*
X139122190Y-110686919D01*
X139046000Y-110763109D01*
X139007904Y-110877395D01*
X139007904Y-110953585D01*
X139046000Y-111067871D01*
X139084095Y-111105966D01*
X139007904Y-111791680D02*
X139007904Y-111639300D01*
X139046000Y-111563109D01*
X139084095Y-111525014D01*
X139198380Y-111448823D01*
X139350761Y-111410728D01*
X139655523Y-111410728D01*
X139731714Y-111448823D01*
X139769809Y-111486919D01*
X139807904Y-111563109D01*
X139807904Y-111715490D01*
X139769809Y-111791680D01*
X139731714Y-111829776D01*
X139655523Y-111867871D01*
X139465047Y-111867871D01*
X139388857Y-111829776D01*
X139350761Y-111791680D01*
X139312666Y-111715490D01*
X139312666Y-111563109D01*
X139350761Y-111486919D01*
X139388857Y-111448823D01*
X139465047Y-111410728D01*
D12*
X147389833Y-108286514D02*
X147427928Y-108324609D01*
X147542214Y-108362704D01*
X147618404Y-108362704D01*
X147732690Y-108324609D01*
X147808880Y-108248419D01*
X147846976Y-108172228D01*
X147885071Y-108019847D01*
X147885071Y-107905561D01*
X147846976Y-107753180D01*
X147808880Y-107676990D01*
X147732690Y-107600800D01*
X147618404Y-107562704D01*
X147542214Y-107562704D01*
X147427928Y-107600800D01*
X147389833Y-107638895D01*
X146666023Y-107562704D02*
X147046976Y-107562704D01*
X147085071Y-107943657D01*
X147046976Y-107905561D01*
X146970785Y-107867466D01*
X146780309Y-107867466D01*
X146704119Y-107905561D01*
X146666023Y-107943657D01*
X146627928Y-108019847D01*
X146627928Y-108210323D01*
X146666023Y-108286514D01*
X146704119Y-108324609D01*
X146780309Y-108362704D01*
X146970785Y-108362704D01*
X147046976Y-108324609D01*
X147085071Y-108286514D01*
X147339033Y-109708914D02*
X147377128Y-109747009D01*
X147491414Y-109785104D01*
X147567604Y-109785104D01*
X147681890Y-109747009D01*
X147758080Y-109670819D01*
X147796176Y-109594628D01*
X147834271Y-109442247D01*
X147834271Y-109327961D01*
X147796176Y-109175580D01*
X147758080Y-109099390D01*
X147681890Y-109023200D01*
X147567604Y-108985104D01*
X147491414Y-108985104D01*
X147377128Y-109023200D01*
X147339033Y-109061295D01*
X146653319Y-109251771D02*
X146653319Y-109785104D01*
X146843795Y-108947009D02*
X147034271Y-109518438D01*
X146539033Y-109518438D01*
X144011585Y-118725914D02*
X144049680Y-118764009D01*
X144163966Y-118802104D01*
X144240157Y-118802104D01*
X144354442Y-118764009D01*
X144430633Y-118687819D01*
X144468728Y-118611628D01*
X144506823Y-118459247D01*
X144506823Y-118344961D01*
X144468728Y-118192580D01*
X144430633Y-118116390D01*
X144354442Y-118040200D01*
X144240157Y-118002104D01*
X144163966Y-118002104D01*
X144049680Y-118040200D01*
X144011585Y-118078295D01*
X143249680Y-118802104D02*
X143706823Y-118802104D01*
X143478252Y-118802104D02*
X143478252Y-118002104D01*
X143554442Y-118116390D01*
X143630633Y-118192580D01*
X143706823Y-118230676D01*
X142487776Y-118802104D02*
X142944919Y-118802104D01*
X142716347Y-118802104D02*
X142716347Y-118002104D01*
X142792538Y-118116390D01*
X142868728Y-118192580D01*
X142944919Y-118230676D01*
X143300433Y-117341614D02*
X143338528Y-117379709D01*
X143452814Y-117417804D01*
X143529004Y-117417804D01*
X143643290Y-117379709D01*
X143719480Y-117303519D01*
X143757576Y-117227328D01*
X143795671Y-117074947D01*
X143795671Y-116960661D01*
X143757576Y-116808280D01*
X143719480Y-116732090D01*
X143643290Y-116655900D01*
X143529004Y-116617804D01*
X143452814Y-116617804D01*
X143338528Y-116655900D01*
X143300433Y-116693995D01*
X142919480Y-117417804D02*
X142767100Y-117417804D01*
X142690909Y-117379709D01*
X142652814Y-117341614D01*
X142576623Y-117227328D01*
X142538528Y-117074947D01*
X142538528Y-116770185D01*
X142576623Y-116693995D01*
X142614719Y-116655900D01*
X142690909Y-116617804D01*
X142843290Y-116617804D01*
X142919480Y-116655900D01*
X142957576Y-116693995D01*
X142995671Y-116770185D01*
X142995671Y-116960661D01*
X142957576Y-117036852D01*
X142919480Y-117074947D01*
X142843290Y-117113042D01*
X142690909Y-117113042D01*
X142614719Y-117074947D01*
X142576623Y-117036852D01*
X142538528Y-116960661D01*
X134943833Y-118814814D02*
X134981928Y-118852909D01*
X135096214Y-118891004D01*
X135172404Y-118891004D01*
X135286690Y-118852909D01*
X135362880Y-118776719D01*
X135400976Y-118700528D01*
X135439071Y-118548147D01*
X135439071Y-118433861D01*
X135400976Y-118281480D01*
X135362880Y-118205290D01*
X135286690Y-118129100D01*
X135172404Y-118091004D01*
X135096214Y-118091004D01*
X134981928Y-118129100D01*
X134943833Y-118167195D01*
X134677166Y-118091004D02*
X134143833Y-118091004D01*
X134486690Y-118891004D01*
X134981933Y-117252714D02*
X135020028Y-117290809D01*
X135134314Y-117328904D01*
X135210504Y-117328904D01*
X135324790Y-117290809D01*
X135400980Y-117214619D01*
X135439076Y-117138428D01*
X135477171Y-116986047D01*
X135477171Y-116871761D01*
X135439076Y-116719380D01*
X135400980Y-116643190D01*
X135324790Y-116567000D01*
X135210504Y-116528904D01*
X135134314Y-116528904D01*
X135020028Y-116567000D01*
X134981933Y-116605095D01*
X134715266Y-116528904D02*
X134220028Y-116528904D01*
X134486695Y-116833666D01*
X134372409Y-116833666D01*
X134296219Y-116871761D01*
X134258123Y-116909857D01*
X134220028Y-116986047D01*
X134220028Y-117176523D01*
X134258123Y-117252714D01*
X134296219Y-117290809D01*
X134372409Y-117328904D01*
X134600980Y-117328904D01*
X134677171Y-117290809D01*
X134715266Y-117252714D01*
X148608985Y-120846804D02*
X148875652Y-120465852D01*
X149066128Y-120846804D02*
X149066128Y-120046804D01*
X148761366Y-120046804D01*
X148685176Y-120084900D01*
X148647080Y-120122995D01*
X148608985Y-120199185D01*
X148608985Y-120313471D01*
X148647080Y-120389661D01*
X148685176Y-120427757D01*
X148761366Y-120465852D01*
X149066128Y-120465852D01*
X148304223Y-120122995D02*
X148266128Y-120084900D01*
X148189938Y-120046804D01*
X147999461Y-120046804D01*
X147923271Y-120084900D01*
X147885176Y-120122995D01*
X147847080Y-120199185D01*
X147847080Y-120275376D01*
X147885176Y-120389661D01*
X148342319Y-120846804D01*
X147847080Y-120846804D01*
X147085176Y-120846804D02*
X147542319Y-120846804D01*
X147313747Y-120846804D02*
X147313747Y-120046804D01*
X147389938Y-120161090D01*
X147466128Y-120237280D01*
X147542319Y-120275376D01*
X143986166Y-121278704D02*
X143986166Y-121850133D01*
X144024261Y-121964419D01*
X144100452Y-122040609D01*
X144214738Y-122078704D01*
X144290928Y-122078704D01*
X143605214Y-122078704D02*
X143605214Y-121278704D01*
X143300452Y-121278704D01*
X143224261Y-121316800D01*
X143186166Y-121354895D01*
X143148071Y-121431085D01*
X143148071Y-121545371D01*
X143186166Y-121621561D01*
X143224261Y-121659657D01*
X143300452Y-121697752D01*
X143605214Y-121697752D01*
X142462357Y-121545371D02*
X142462357Y-122078704D01*
X142652833Y-121240609D02*
X142843309Y-121812038D01*
X142348071Y-121812038D01*
X147821604Y-124706714D02*
X147440652Y-124440047D01*
X147821604Y-124249571D02*
X147021604Y-124249571D01*
X147021604Y-124554333D01*
X147059700Y-124630523D01*
X147097795Y-124668619D01*
X147173985Y-124706714D01*
X147288271Y-124706714D01*
X147364461Y-124668619D01*
X147402557Y-124630523D01*
X147440652Y-124554333D01*
X147440652Y-124249571D01*
X147097795Y-125011476D02*
X147059700Y-125049571D01*
X147021604Y-125125761D01*
X147021604Y-125316238D01*
X147059700Y-125392428D01*
X147097795Y-125430523D01*
X147173985Y-125468619D01*
X147250176Y-125468619D01*
X147364461Y-125430523D01*
X147821604Y-124973380D01*
X147821604Y-125468619D01*
X147097795Y-125773380D02*
X147059700Y-125811476D01*
X147021604Y-125887666D01*
X147021604Y-126078142D01*
X147059700Y-126154333D01*
X147097795Y-126192428D01*
X147173985Y-126230523D01*
X147250176Y-126230523D01*
X147364461Y-126192428D01*
X147821604Y-125735285D01*
X147821604Y-126230523D01*
X137014004Y-130964233D02*
X137585433Y-130964233D01*
X137699719Y-130926138D01*
X137775909Y-130849947D01*
X137814004Y-130735661D01*
X137814004Y-130659471D01*
X137814004Y-131345185D02*
X137014004Y-131345185D01*
X137014004Y-131649947D01*
X137052100Y-131726138D01*
X137090195Y-131764233D01*
X137166385Y-131802328D01*
X137280671Y-131802328D01*
X137356861Y-131764233D01*
X137394957Y-131726138D01*
X137433052Y-131649947D01*
X137433052Y-131345185D01*
X137014004Y-132526138D02*
X137014004Y-132145185D01*
X137394957Y-132107090D01*
X137356861Y-132145185D01*
X137318766Y-132221376D01*
X137318766Y-132411852D01*
X137356861Y-132488042D01*
X137394957Y-132526138D01*
X137471147Y-132564233D01*
X137661623Y-132564233D01*
X137737814Y-132526138D01*
X137775909Y-132488042D01*
X137814004Y-132411852D01*
X137814004Y-132221376D01*
X137775909Y-132145185D01*
X137737814Y-132107090D01*
X139858804Y-130968833D02*
X140430233Y-130968833D01*
X140544519Y-130930738D01*
X140620709Y-130854547D01*
X140658804Y-130740261D01*
X140658804Y-130664071D01*
X140658804Y-131349785D02*
X139858804Y-131349785D01*
X139858804Y-131654547D01*
X139896900Y-131730738D01*
X139934995Y-131768833D01*
X140011185Y-131806928D01*
X140125471Y-131806928D01*
X140201661Y-131768833D01*
X140239757Y-131730738D01*
X140277852Y-131654547D01*
X140277852Y-131349785D01*
X139858804Y-132073595D02*
X139858804Y-132568833D01*
X140163566Y-132302166D01*
X140163566Y-132416452D01*
X140201661Y-132492642D01*
X140239757Y-132530738D01*
X140315947Y-132568833D01*
X140506423Y-132568833D01*
X140582614Y-132530738D01*
X140620709Y-132492642D01*
X140658804Y-132416452D01*
X140658804Y-132187880D01*
X140620709Y-132111690D01*
X140582614Y-132073595D01*
X142627404Y-130778333D02*
X143198833Y-130778333D01*
X143313119Y-130740238D01*
X143389309Y-130664047D01*
X143427404Y-130549761D01*
X143427404Y-130473571D01*
X143427404Y-131159285D02*
X142627404Y-131159285D01*
X142627404Y-131464047D01*
X142665500Y-131540238D01*
X142703595Y-131578333D01*
X142779785Y-131616428D01*
X142894071Y-131616428D01*
X142970261Y-131578333D01*
X143008357Y-131540238D01*
X143046452Y-131464047D01*
X143046452Y-131159285D01*
X142703595Y-131921190D02*
X142665500Y-131959285D01*
X142627404Y-132035476D01*
X142627404Y-132225952D01*
X142665500Y-132302142D01*
X142703595Y-132340238D01*
X142779785Y-132378333D01*
X142855976Y-132378333D01*
X142970261Y-132340238D01*
X143427404Y-131883095D01*
X143427404Y-132378333D01*
D11*
X146733380Y-99828504D02*
X147542904Y-99828504D01*
X147638142Y-99876123D01*
X147685761Y-99923742D01*
X147733380Y-100018980D01*
X147733380Y-100209457D01*
X147685761Y-100304695D01*
X147638142Y-100352314D01*
X147542904Y-100399933D01*
X146733380Y-100399933D01*
X147733380Y-101399933D02*
X147733380Y-100828504D01*
X147733380Y-101114219D02*
X146733380Y-101114219D01*
X146876238Y-101018980D01*
X146971476Y-100923742D01*
X147019095Y-100828504D01*
X146828619Y-101780885D02*
X146781000Y-101828504D01*
X146733380Y-101923742D01*
X146733380Y-102161838D01*
X146781000Y-102257076D01*
X146828619Y-102304695D01*
X146923857Y-102352314D01*
X147019095Y-102352314D01*
X147161952Y-102304695D01*
X147733380Y-101733266D01*
X147733380Y-102352314D01*
X140579433Y-87895180D02*
X140579433Y-88609466D01*
X140627052Y-88752323D01*
X140722290Y-88847561D01*
X140865147Y-88895180D01*
X140960385Y-88895180D01*
X139674671Y-87895180D02*
X139865147Y-87895180D01*
X139960385Y-87942800D01*
X140008004Y-87990419D01*
X140103242Y-88133276D01*
X140150861Y-88323752D01*
X140150861Y-88704704D01*
X140103242Y-88799942D01*
X140055623Y-88847561D01*
X139960385Y-88895180D01*
X139769909Y-88895180D01*
X139674671Y-88847561D01*
X139627052Y-88799942D01*
X139579433Y-88704704D01*
X139579433Y-88466609D01*
X139627052Y-88371371D01*
X139674671Y-88323752D01*
X139769909Y-88276133D01*
X139960385Y-88276133D01*
X140055623Y-88323752D01*
X140103242Y-88371371D01*
X140150861Y-88466609D01*
X151700633Y-70541080D02*
X151700633Y-71255366D01*
X151748252Y-71398223D01*
X151843490Y-71493461D01*
X151986347Y-71541080D01*
X152081585Y-71541080D01*
X150748252Y-70541080D02*
X151224442Y-70541080D01*
X151272061Y-71017271D01*
X151224442Y-70969652D01*
X151129204Y-70922033D01*
X150891109Y-70922033D01*
X150795871Y-70969652D01*
X150748252Y-71017271D01*
X150700633Y-71112509D01*
X150700633Y-71350604D01*
X150748252Y-71445842D01*
X150795871Y-71493461D01*
X150891109Y-71541080D01*
X151129204Y-71541080D01*
X151224442Y-71493461D01*
X151272061Y-71445842D01*
X128840633Y-70541080D02*
X128840633Y-71255366D01*
X128888252Y-71398223D01*
X128983490Y-71493461D01*
X129126347Y-71541080D01*
X129221585Y-71541080D01*
X127935871Y-70874414D02*
X127935871Y-71541080D01*
X128173966Y-70493461D02*
X128412061Y-71207747D01*
X127793014Y-71207747D01*
D12*
X134169204Y-142595723D02*
X134816823Y-142595723D01*
X134893014Y-142633819D01*
X134931109Y-142671914D01*
X134969204Y-142748104D01*
X134969204Y-142900485D01*
X134931109Y-142976676D01*
X134893014Y-143014771D01*
X134816823Y-143052866D01*
X134169204Y-143052866D01*
X134969204Y-143852866D02*
X134969204Y-143395723D01*
X134969204Y-143624295D02*
X134169204Y-143624295D01*
X134283490Y-143548104D01*
X134359680Y-143471914D01*
X134397776Y-143395723D01*
X134169204Y-144348104D02*
X134169204Y-144424295D01*
X134207300Y-144500485D01*
X134245395Y-144538580D01*
X134321585Y-144576676D01*
X134473966Y-144614771D01*
X134664442Y-144614771D01*
X134816823Y-144576676D01*
X134893014Y-144538580D01*
X134931109Y-144500485D01*
X134969204Y-144424295D01*
X134969204Y-144348104D01*
X134931109Y-144271914D01*
X134893014Y-144233819D01*
X134816823Y-144195723D01*
X134664442Y-144157628D01*
X134473966Y-144157628D01*
X134321585Y-144195723D01*
X134245395Y-144233819D01*
X134207300Y-144271914D01*
X134169204Y-144348104D01*
X144567923Y-88137204D02*
X144567923Y-88784823D01*
X144529828Y-88861014D01*
X144491733Y-88899109D01*
X144415542Y-88937204D01*
X144263161Y-88937204D01*
X144186971Y-88899109D01*
X144148876Y-88861014D01*
X144110780Y-88784823D01*
X144110780Y-88137204D01*
X143767923Y-88213395D02*
X143729828Y-88175300D01*
X143653638Y-88137204D01*
X143463161Y-88137204D01*
X143386971Y-88175300D01*
X143348876Y-88213395D01*
X143310780Y-88289585D01*
X143310780Y-88365776D01*
X143348876Y-88480061D01*
X143806019Y-88937204D01*
X143310780Y-88937204D01*
X150011404Y-91014466D02*
X149630452Y-90747800D01*
X150011404Y-90557323D02*
X149211404Y-90557323D01*
X149211404Y-90862085D01*
X149249500Y-90938276D01*
X149287595Y-90976371D01*
X149363785Y-91014466D01*
X149478071Y-91014466D01*
X149554261Y-90976371D01*
X149592357Y-90938276D01*
X149630452Y-90862085D01*
X149630452Y-90557323D01*
X149211404Y-91281133D02*
X149211404Y-91776371D01*
X149516166Y-91509704D01*
X149516166Y-91623990D01*
X149554261Y-91700180D01*
X149592357Y-91738276D01*
X149668547Y-91776371D01*
X149859023Y-91776371D01*
X149935214Y-91738276D01*
X149973309Y-91700180D01*
X150011404Y-91623990D01*
X150011404Y-91395419D01*
X149973309Y-91319228D01*
X149935214Y-91281133D01*
X143897333Y-115449304D02*
X144278285Y-115449304D01*
X144278285Y-114649304D01*
X143211619Y-115449304D02*
X143668761Y-115449304D01*
X143440190Y-115449304D02*
X143440190Y-114649304D01*
X143516380Y-114763590D01*
X143592571Y-114839780D01*
X143668761Y-114877876D01*
%LPC*%
G36*
G01*
X123990800Y-95630100D02*
X123990800Y-93930100D01*
G75*
G02*
X124041800Y-93879100I51000J0D01*
G01*
X125741800Y-93879100D01*
G75*
G02*
X125792800Y-93930100I0J-51000D01*
G01*
X125792800Y-95630100D01*
G75*
G02*
X125741800Y-95681100I-51000J0D01*
G01*
X124041800Y-95681100D01*
G75*
G02*
X123990800Y-95630100I0J51000D01*
G01*
G37*
G36*
G01*
X132660500Y-97896700D02*
X132134500Y-97896700D01*
G75*
G02*
X131871500Y-97633700I0J263000D01*
G01*
X131871500Y-97082700D01*
G75*
G02*
X132134500Y-96819700I263000J0D01*
G01*
X132660500Y-96819700D01*
G75*
G02*
X132923500Y-97082700I0J-263000D01*
G01*
X132923500Y-97633700D01*
G75*
G02*
X132660500Y-97896700I-263000J0D01*
G01*
G37*
G36*
G01*
X132660500Y-99721700D02*
X132134500Y-99721700D01*
G75*
G02*
X131871500Y-99458700I0J263000D01*
G01*
X131871500Y-98907700D01*
G75*
G02*
X132134500Y-98644700I263000J0D01*
G01*
X132660500Y-98644700D01*
G75*
G02*
X132923500Y-98907700I0J-263000D01*
G01*
X132923500Y-99458700D01*
G75*
G02*
X132660500Y-99721700I-263000J0D01*
G01*
G37*
G36*
G01*
X143340600Y-88566100D02*
X143340600Y-88040100D01*
G75*
G02*
X143603600Y-87777100I263000J0D01*
G01*
X144254600Y-87777100D01*
G75*
G02*
X144517600Y-88040100I0J-263000D01*
G01*
X144517600Y-88566100D01*
G75*
G02*
X144254600Y-88829100I-263000J0D01*
G01*
X143603600Y-88829100D01*
G75*
G02*
X143340600Y-88566100I0J263000D01*
G01*
G37*
G36*
G01*
X141615600Y-88566100D02*
X141615600Y-88040100D01*
G75*
G02*
X141878600Y-87777100I263000J0D01*
G01*
X142529600Y-87777100D01*
G75*
G02*
X142792600Y-88040100I0J-263000D01*
G01*
X142792600Y-88566100D01*
G75*
G02*
X142529600Y-88829100I-263000J0D01*
G01*
X141878600Y-88829100D01*
G75*
G02*
X141615600Y-88566100I0J263000D01*
G01*
G37*
G36*
G01*
X132185400Y-89819400D02*
X132185400Y-90070400D01*
G75*
G02*
X132059900Y-90195900I-125500J0D01*
G01*
X130733900Y-90195900D01*
G75*
G02*
X130608400Y-90070400I0J125500D01*
G01*
X130608400Y-89819400D01*
G75*
G02*
X130733900Y-89693900I125500J0D01*
G01*
X132059900Y-89693900D01*
G75*
G02*
X132185400Y-89819400I0J-125500D01*
G01*
G37*
G36*
G01*
X132185400Y-90469400D02*
X132185400Y-90720400D01*
G75*
G02*
X132059900Y-90845900I-125500J0D01*
G01*
X130733900Y-90845900D01*
G75*
G02*
X130608400Y-90720400I0J125500D01*
G01*
X130608400Y-90469400D01*
G75*
G02*
X130733900Y-90343900I125500J0D01*
G01*
X132059900Y-90343900D01*
G75*
G02*
X132185400Y-90469400I0J-125500D01*
G01*
G37*
G36*
G01*
X132185400Y-91119400D02*
X132185400Y-91370400D01*
G75*
G02*
X132059900Y-91495900I-125500J0D01*
G01*
X130733900Y-91495900D01*
G75*
G02*
X130608400Y-91370400I0J125500D01*
G01*
X130608400Y-91119400D01*
G75*
G02*
X130733900Y-90993900I125500J0D01*
G01*
X132059900Y-90993900D01*
G75*
G02*
X132185400Y-91119400I0J-125500D01*
G01*
G37*
G36*
G01*
X132185400Y-91769400D02*
X132185400Y-92020400D01*
G75*
G02*
X132059900Y-92145900I-125500J0D01*
G01*
X130733900Y-92145900D01*
G75*
G02*
X130608400Y-92020400I0J125500D01*
G01*
X130608400Y-91769400D01*
G75*
G02*
X130733900Y-91643900I125500J0D01*
G01*
X132059900Y-91643900D01*
G75*
G02*
X132185400Y-91769400I0J-125500D01*
G01*
G37*
G36*
G01*
X132185400Y-92419400D02*
X132185400Y-92670400D01*
G75*
G02*
X132059900Y-92795900I-125500J0D01*
G01*
X130733900Y-92795900D01*
G75*
G02*
X130608400Y-92670400I0J125500D01*
G01*
X130608400Y-92419400D01*
G75*
G02*
X130733900Y-92293900I125500J0D01*
G01*
X132059900Y-92293900D01*
G75*
G02*
X132185400Y-92419400I0J-125500D01*
G01*
G37*
G36*
G01*
X132185400Y-93069400D02*
X132185400Y-93320400D01*
G75*
G02*
X132059900Y-93445900I-125500J0D01*
G01*
X130733900Y-93445900D01*
G75*
G02*
X130608400Y-93320400I0J125500D01*
G01*
X130608400Y-93069400D01*
G75*
G02*
X130733900Y-92943900I125500J0D01*
G01*
X132059900Y-92943900D01*
G75*
G02*
X132185400Y-93069400I0J-125500D01*
G01*
G37*
G36*
G01*
X132185400Y-93719400D02*
X132185400Y-93970400D01*
G75*
G02*
X132059900Y-94095900I-125500J0D01*
G01*
X130733900Y-94095900D01*
G75*
G02*
X130608400Y-93970400I0J125500D01*
G01*
X130608400Y-93719400D01*
G75*
G02*
X130733900Y-93593900I125500J0D01*
G01*
X132059900Y-93593900D01*
G75*
G02*
X132185400Y-93719400I0J-125500D01*
G01*
G37*
G36*
G01*
X137910400Y-93719400D02*
X137910400Y-93970400D01*
G75*
G02*
X137784900Y-94095900I-125500J0D01*
G01*
X136458900Y-94095900D01*
G75*
G02*
X136333400Y-93970400I0J125500D01*
G01*
X136333400Y-93719400D01*
G75*
G02*
X136458900Y-93593900I125500J0D01*
G01*
X137784900Y-93593900D01*
G75*
G02*
X137910400Y-93719400I0J-125500D01*
G01*
G37*
G36*
G01*
X137910400Y-93069400D02*
X137910400Y-93320400D01*
G75*
G02*
X137784900Y-93445900I-125500J0D01*
G01*
X136458900Y-93445900D01*
G75*
G02*
X136333400Y-93320400I0J125500D01*
G01*
X136333400Y-93069400D01*
G75*
G02*
X136458900Y-92943900I125500J0D01*
G01*
X137784900Y-92943900D01*
G75*
G02*
X137910400Y-93069400I0J-125500D01*
G01*
G37*
G36*
G01*
X137910400Y-92419400D02*
X137910400Y-92670400D01*
G75*
G02*
X137784900Y-92795900I-125500J0D01*
G01*
X136458900Y-92795900D01*
G75*
G02*
X136333400Y-92670400I0J125500D01*
G01*
X136333400Y-92419400D01*
G75*
G02*
X136458900Y-92293900I125500J0D01*
G01*
X137784900Y-92293900D01*
G75*
G02*
X137910400Y-92419400I0J-125500D01*
G01*
G37*
G36*
G01*
X137910400Y-91769400D02*
X137910400Y-92020400D01*
G75*
G02*
X137784900Y-92145900I-125500J0D01*
G01*
X136458900Y-92145900D01*
G75*
G02*
X136333400Y-92020400I0J125500D01*
G01*
X136333400Y-91769400D01*
G75*
G02*
X136458900Y-91643900I125500J0D01*
G01*
X137784900Y-91643900D01*
G75*
G02*
X137910400Y-91769400I0J-125500D01*
G01*
G37*
G36*
G01*
X137910400Y-91119400D02*
X137910400Y-91370400D01*
G75*
G02*
X137784900Y-91495900I-125500J0D01*
G01*
X136458900Y-91495900D01*
G75*
G02*
X136333400Y-91370400I0J125500D01*
G01*
X136333400Y-91119400D01*
G75*
G02*
X136458900Y-90993900I125500J0D01*
G01*
X137784900Y-90993900D01*
G75*
G02*
X137910400Y-91119400I0J-125500D01*
G01*
G37*
G36*
G01*
X137910400Y-90469400D02*
X137910400Y-90720400D01*
G75*
G02*
X137784900Y-90845900I-125500J0D01*
G01*
X136458900Y-90845900D01*
G75*
G02*
X136333400Y-90720400I0J125500D01*
G01*
X136333400Y-90469400D01*
G75*
G02*
X136458900Y-90343900I125500J0D01*
G01*
X137784900Y-90343900D01*
G75*
G02*
X137910400Y-90469400I0J-125500D01*
G01*
G37*
G36*
G01*
X137910400Y-89819400D02*
X137910400Y-90070400D01*
G75*
G02*
X137784900Y-90195900I-125500J0D01*
G01*
X136458900Y-90195900D01*
G75*
G02*
X136333400Y-90070400I0J125500D01*
G01*
X136333400Y-89819400D01*
G75*
G02*
X136458900Y-89693900I125500J0D01*
G01*
X137784900Y-89693900D01*
G75*
G02*
X137910400Y-89819400I0J-125500D01*
G01*
G37*
G36*
G01*
X131466700Y-72826900D02*
X130940700Y-72826900D01*
G75*
G02*
X130677700Y-72563900I0J263000D01*
G01*
X130677700Y-72012900D01*
G75*
G02*
X130940700Y-71749900I263000J0D01*
G01*
X131466700Y-71749900D01*
G75*
G02*
X131729700Y-72012900I0J-263000D01*
G01*
X131729700Y-72563900D01*
G75*
G02*
X131466700Y-72826900I-263000J0D01*
G01*
G37*
G36*
G01*
X131466700Y-74651900D02*
X130940700Y-74651900D01*
G75*
G02*
X130677700Y-74388900I0J263000D01*
G01*
X130677700Y-73837900D01*
G75*
G02*
X130940700Y-73574900I263000J0D01*
G01*
X131466700Y-73574900D01*
G75*
G02*
X131729700Y-73837900I0J-263000D01*
G01*
X131729700Y-74388900D01*
G75*
G02*
X131466700Y-74651900I-263000J0D01*
G01*
G37*
G36*
G01*
X148967300Y-83204700D02*
X148441300Y-83204700D01*
G75*
G02*
X148178300Y-82941700I0J263000D01*
G01*
X148178300Y-82390700D01*
G75*
G02*
X148441300Y-82127700I263000J0D01*
G01*
X148967300Y-82127700D01*
G75*
G02*
X149230300Y-82390700I0J-263000D01*
G01*
X149230300Y-82941700D01*
G75*
G02*
X148967300Y-83204700I-263000J0D01*
G01*
G37*
G36*
G01*
X148967300Y-85029700D02*
X148441300Y-85029700D01*
G75*
G02*
X148178300Y-84766700I0J263000D01*
G01*
X148178300Y-84215700D01*
G75*
G02*
X148441300Y-83952700I263000J0D01*
G01*
X148967300Y-83952700D01*
G75*
G02*
X149230300Y-84215700I0J-263000D01*
G01*
X149230300Y-84766700D01*
G75*
G02*
X148967300Y-85029700I-263000J0D01*
G01*
G37*
G36*
G01*
X130940700Y-81704800D02*
X131466700Y-81704800D01*
G75*
G02*
X131729700Y-81967800I0J-263000D01*
G01*
X131729700Y-82518800D01*
G75*
G02*
X131466700Y-82781800I-263000J0D01*
G01*
X130940700Y-82781800D01*
G75*
G02*
X130677700Y-82518800I0J263000D01*
G01*
X130677700Y-81967800D01*
G75*
G02*
X130940700Y-81704800I263000J0D01*
G01*
G37*
G36*
G01*
X130940700Y-79879800D02*
X131466700Y-79879800D01*
G75*
G02*
X131729700Y-80142800I0J-263000D01*
G01*
X131729700Y-80693800D01*
G75*
G02*
X131466700Y-80956800I-263000J0D01*
G01*
X130940700Y-80956800D01*
G75*
G02*
X130677700Y-80693800I0J263000D01*
G01*
X130677700Y-80142800D01*
G75*
G02*
X130940700Y-79879800I263000J0D01*
G01*
G37*
G36*
G01*
X148441300Y-80003000D02*
X148967300Y-80003000D01*
G75*
G02*
X149230300Y-80266000I0J-263000D01*
G01*
X149230300Y-80817000D01*
G75*
G02*
X148967300Y-81080000I-263000J0D01*
G01*
X148441300Y-81080000D01*
G75*
G02*
X148178300Y-80817000I0J263000D01*
G01*
X148178300Y-80266000D01*
G75*
G02*
X148441300Y-80003000I263000J0D01*
G01*
G37*
G36*
G01*
X148441300Y-78178000D02*
X148967300Y-78178000D01*
G75*
G02*
X149230300Y-78441000I0J-263000D01*
G01*
X149230300Y-78992000D01*
G75*
G02*
X148967300Y-79255000I-263000J0D01*
G01*
X148441300Y-79255000D01*
G75*
G02*
X148178300Y-78992000I0J263000D01*
G01*
X148178300Y-78441000D01*
G75*
G02*
X148441300Y-78178000I263000J0D01*
G01*
G37*
G36*
G01*
X148967300Y-74683000D02*
X148441300Y-74683000D01*
G75*
G02*
X148178300Y-74420000I0J263000D01*
G01*
X148178300Y-73869000D01*
G75*
G02*
X148441300Y-73606000I263000J0D01*
G01*
X148967300Y-73606000D01*
G75*
G02*
X149230300Y-73869000I0J-263000D01*
G01*
X149230300Y-74420000D01*
G75*
G02*
X148967300Y-74683000I-263000J0D01*
G01*
G37*
G36*
G01*
X148967300Y-76508000D02*
X148441300Y-76508000D01*
G75*
G02*
X148178300Y-76245000I0J263000D01*
G01*
X148178300Y-75694000D01*
G75*
G02*
X148441300Y-75431000I263000J0D01*
G01*
X148967300Y-75431000D01*
G75*
G02*
X149230300Y-75694000I0J-263000D01*
G01*
X149230300Y-76245000D01*
G75*
G02*
X148967300Y-76508000I-263000J0D01*
G01*
G37*
G36*
G01*
X131466700Y-76636900D02*
X130940700Y-76636900D01*
G75*
G02*
X130677700Y-76373900I0J263000D01*
G01*
X130677700Y-75822900D01*
G75*
G02*
X130940700Y-75559900I263000J0D01*
G01*
X131466700Y-75559900D01*
G75*
G02*
X131729700Y-75822900I0J-263000D01*
G01*
X131729700Y-76373900D01*
G75*
G02*
X131466700Y-76636900I-263000J0D01*
G01*
G37*
G36*
G01*
X131466700Y-78461900D02*
X130940700Y-78461900D01*
G75*
G02*
X130677700Y-78198900I0J263000D01*
G01*
X130677700Y-77647900D01*
G75*
G02*
X130940700Y-77384900I263000J0D01*
G01*
X131466700Y-77384900D01*
G75*
G02*
X131729700Y-77647900I0J-263000D01*
G01*
X131729700Y-78198900D01*
G75*
G02*
X131466700Y-78461900I-263000J0D01*
G01*
G37*
G36*
G01*
X133587000Y-88553400D02*
X133587000Y-88027400D01*
G75*
G02*
X133850000Y-87764400I263000J0D01*
G01*
X134501000Y-87764400D01*
G75*
G02*
X134764000Y-88027400I0J-263000D01*
G01*
X134764000Y-88553400D01*
G75*
G02*
X134501000Y-88816400I-263000J0D01*
G01*
X133850000Y-88816400D01*
G75*
G02*
X133587000Y-88553400I0J263000D01*
G01*
G37*
G36*
G01*
X131862000Y-88553400D02*
X131862000Y-88027400D01*
G75*
G02*
X132125000Y-87764400I263000J0D01*
G01*
X132776000Y-87764400D01*
G75*
G02*
X133039000Y-88027400I0J-263000D01*
G01*
X133039000Y-88553400D01*
G75*
G02*
X132776000Y-88816400I-263000J0D01*
G01*
X132125000Y-88816400D01*
G75*
G02*
X131862000Y-88553400I0J263000D01*
G01*
G37*
G36*
G01*
X131773800Y-140215500D02*
X131773800Y-141216500D01*
G75*
G02*
X131498300Y-141492000I-275500J0D01*
G01*
X130947300Y-141492000D01*
G75*
G02*
X130671800Y-141216500I0J275500D01*
G01*
X130671800Y-140215500D01*
G75*
G02*
X130947300Y-139940000I275500J0D01*
G01*
X131498300Y-139940000D01*
G75*
G02*
X131773800Y-140215500I0J-275500D01*
G01*
G37*
G36*
G01*
X133673800Y-140215500D02*
X133673800Y-141216500D01*
G75*
G02*
X133398300Y-141492000I-275500J0D01*
G01*
X132847300Y-141492000D01*
G75*
G02*
X132571800Y-141216500I0J275500D01*
G01*
X132571800Y-140215500D01*
G75*
G02*
X132847300Y-139940000I275500J0D01*
G01*
X133398300Y-139940000D01*
G75*
G02*
X133673800Y-140215500I0J-275500D01*
G01*
G37*
G36*
G01*
X131466700Y-85476400D02*
X130940700Y-85476400D01*
G75*
G02*
X130677700Y-85213400I0J263000D01*
G01*
X130677700Y-84562400D01*
G75*
G02*
X130940700Y-84299400I263000J0D01*
G01*
X131466700Y-84299400D01*
G75*
G02*
X131729700Y-84562400I0J-263000D01*
G01*
X131729700Y-85213400D01*
G75*
G02*
X131466700Y-85476400I-263000J0D01*
G01*
G37*
G36*
G01*
X131466700Y-87201400D02*
X130940700Y-87201400D01*
G75*
G02*
X130677700Y-86938400I0J263000D01*
G01*
X130677700Y-86287400D01*
G75*
G02*
X130940700Y-86024400I263000J0D01*
G01*
X131466700Y-86024400D01*
G75*
G02*
X131729700Y-86287400I0J-263000D01*
G01*
X131729700Y-86938400D01*
G75*
G02*
X131466700Y-87201400I-263000J0D01*
G01*
G37*
G36*
G01*
X131881900Y-148136500D02*
X131881900Y-148662500D01*
G75*
G02*
X131618900Y-148925500I-263000J0D01*
G01*
X131067900Y-148925500D01*
G75*
G02*
X130804900Y-148662500I0J263000D01*
G01*
X130804900Y-148136500D01*
G75*
G02*
X131067900Y-147873500I263000J0D01*
G01*
X131618900Y-147873500D01*
G75*
G02*
X131881900Y-148136500I0J-263000D01*
G01*
G37*
G36*
G01*
X133706900Y-148136500D02*
X133706900Y-148662500D01*
G75*
G02*
X133443900Y-148925500I-263000J0D01*
G01*
X132892900Y-148925500D01*
G75*
G02*
X132629900Y-148662500I0J263000D01*
G01*
X132629900Y-148136500D01*
G75*
G02*
X132892900Y-147873500I263000J0D01*
G01*
X133443900Y-147873500D01*
G75*
G02*
X133706900Y-148136500I0J-263000D01*
G01*
G37*
G36*
G01*
X131842200Y-146104502D02*
X131842200Y-147113098D01*
G75*
G02*
X131570498Y-147384800I-271702J0D01*
G01*
X130836902Y-147384800D01*
G75*
G02*
X130565200Y-147113098I0J271702D01*
G01*
X130565200Y-146104502D01*
G75*
G02*
X130836902Y-145832800I271702J0D01*
G01*
X131570498Y-145832800D01*
G75*
G02*
X131842200Y-146104502I0J-271702D01*
G01*
G37*
G36*
G01*
X133917200Y-146104502D02*
X133917200Y-147113098D01*
G75*
G02*
X133645498Y-147384800I-271702J0D01*
G01*
X132911902Y-147384800D01*
G75*
G02*
X132640200Y-147113098I0J271702D01*
G01*
X132640200Y-146104502D01*
G75*
G02*
X132911902Y-145832800I271702J0D01*
G01*
X133645498Y-145832800D01*
G75*
G02*
X133917200Y-146104502I0J-271702D01*
G01*
G37*
G36*
G01*
X147113100Y-112463600D02*
X146587100Y-112463600D01*
G75*
G02*
X146324100Y-112200600I0J263000D01*
G01*
X146324100Y-111649600D01*
G75*
G02*
X146587100Y-111386600I263000J0D01*
G01*
X147113100Y-111386600D01*
G75*
G02*
X147376100Y-111649600I0J-263000D01*
G01*
X147376100Y-112200600D01*
G75*
G02*
X147113100Y-112463600I-263000J0D01*
G01*
G37*
G36*
G01*
X147113100Y-114288600D02*
X146587100Y-114288600D01*
G75*
G02*
X146324100Y-114025600I0J263000D01*
G01*
X146324100Y-113474600D01*
G75*
G02*
X146587100Y-113211600I263000J0D01*
G01*
X147113100Y-113211600D01*
G75*
G02*
X147376100Y-113474600I0J-263000D01*
G01*
X147376100Y-114025600D01*
G75*
G02*
X147113100Y-114288600I-263000J0D01*
G01*
G37*
G36*
G01*
X148517500Y-113228100D02*
X149043500Y-113228100D01*
G75*
G02*
X149306500Y-113491100I0J-263000D01*
G01*
X149306500Y-114042100D01*
G75*
G02*
X149043500Y-114305100I-263000J0D01*
G01*
X148517500Y-114305100D01*
G75*
G02*
X148254500Y-114042100I0J263000D01*
G01*
X148254500Y-113491100D01*
G75*
G02*
X148517500Y-113228100I263000J0D01*
G01*
G37*
G36*
G01*
X148517500Y-111403100D02*
X149043500Y-111403100D01*
G75*
G02*
X149306500Y-111666100I0J-263000D01*
G01*
X149306500Y-112217100D01*
G75*
G02*
X149043500Y-112480100I-263000J0D01*
G01*
X148517500Y-112480100D01*
G75*
G02*
X148254500Y-112217100I0J263000D01*
G01*
X148254500Y-111666100D01*
G75*
G02*
X148517500Y-111403100I263000J0D01*
G01*
G37*
G36*
G01*
X145601800Y-112463600D02*
X145075800Y-112463600D01*
G75*
G02*
X144812800Y-112200600I0J263000D01*
G01*
X144812800Y-111649600D01*
G75*
G02*
X145075800Y-111386600I263000J0D01*
G01*
X145601800Y-111386600D01*
G75*
G02*
X145864800Y-111649600I0J-263000D01*
G01*
X145864800Y-112200600D01*
G75*
G02*
X145601800Y-112463600I-263000J0D01*
G01*
G37*
G36*
G01*
X145601800Y-114288600D02*
X145075800Y-114288600D01*
G75*
G02*
X144812800Y-114025600I0J263000D01*
G01*
X144812800Y-113474600D01*
G75*
G02*
X145075800Y-113211600I263000J0D01*
G01*
X145601800Y-113211600D01*
G75*
G02*
X145864800Y-113474600I0J-263000D01*
G01*
X145864800Y-114025600D01*
G75*
G02*
X145601800Y-114288600I-263000J0D01*
G01*
G37*
G36*
G01*
X142142100Y-109111900D02*
X142668100Y-109111900D01*
G75*
G02*
X142931100Y-109374900I0J-263000D01*
G01*
X142931100Y-110025900D01*
G75*
G02*
X142668100Y-110288900I-263000J0D01*
G01*
X142142100Y-110288900D01*
G75*
G02*
X141879100Y-110025900I0J263000D01*
G01*
X141879100Y-109374900D01*
G75*
G02*
X142142100Y-109111900I263000J0D01*
G01*
G37*
G36*
G01*
X142142100Y-107386900D02*
X142668100Y-107386900D01*
G75*
G02*
X142931100Y-107649900I0J-263000D01*
G01*
X142931100Y-108300900D01*
G75*
G02*
X142668100Y-108563900I-263000J0D01*
G01*
X142142100Y-108563900D01*
G75*
G02*
X141879100Y-108300900I0J263000D01*
G01*
X141879100Y-107649900D01*
G75*
G02*
X142142100Y-107386900I263000J0D01*
G01*
G37*
G36*
G01*
X140618100Y-109113000D02*
X141144100Y-109113000D01*
G75*
G02*
X141407100Y-109376000I0J-263000D01*
G01*
X141407100Y-110027000D01*
G75*
G02*
X141144100Y-110290000I-263000J0D01*
G01*
X140618100Y-110290000D01*
G75*
G02*
X140355100Y-110027000I0J263000D01*
G01*
X140355100Y-109376000D01*
G75*
G02*
X140618100Y-109113000I263000J0D01*
G01*
G37*
G36*
G01*
X140618100Y-107388000D02*
X141144100Y-107388000D01*
G75*
G02*
X141407100Y-107651000I0J-263000D01*
G01*
X141407100Y-108302000D01*
G75*
G02*
X141144100Y-108565000I-263000J0D01*
G01*
X140618100Y-108565000D01*
G75*
G02*
X140355100Y-108302000I0J263000D01*
G01*
X140355100Y-107651000D01*
G75*
G02*
X140618100Y-107388000I263000J0D01*
G01*
G37*
G36*
G01*
X137570100Y-109111900D02*
X138096100Y-109111900D01*
G75*
G02*
X138359100Y-109374900I0J-263000D01*
G01*
X138359100Y-110025900D01*
G75*
G02*
X138096100Y-110288900I-263000J0D01*
G01*
X137570100Y-110288900D01*
G75*
G02*
X137307100Y-110025900I0J263000D01*
G01*
X137307100Y-109374900D01*
G75*
G02*
X137570100Y-109111900I263000J0D01*
G01*
G37*
G36*
G01*
X137570100Y-107386900D02*
X138096100Y-107386900D01*
G75*
G02*
X138359100Y-107649900I0J-263000D01*
G01*
X138359100Y-108300900D01*
G75*
G02*
X138096100Y-108563900I-263000J0D01*
G01*
X137570100Y-108563900D01*
G75*
G02*
X137307100Y-108300900I0J263000D01*
G01*
X137307100Y-107649900D01*
G75*
G02*
X137570100Y-107386900I263000J0D01*
G01*
G37*
G36*
G01*
X139094100Y-109114100D02*
X139620100Y-109114100D01*
G75*
G02*
X139883100Y-109377100I0J-263000D01*
G01*
X139883100Y-110028100D01*
G75*
G02*
X139620100Y-110291100I-263000J0D01*
G01*
X139094100Y-110291100D01*
G75*
G02*
X138831100Y-110028100I0J263000D01*
G01*
X138831100Y-109377100D01*
G75*
G02*
X139094100Y-109114100I263000J0D01*
G01*
G37*
G36*
G01*
X139094100Y-107389100D02*
X139620100Y-107389100D01*
G75*
G02*
X139883100Y-107652100I0J-263000D01*
G01*
X139883100Y-108303100D01*
G75*
G02*
X139620100Y-108566100I-263000J0D01*
G01*
X139094100Y-108566100D01*
G75*
G02*
X138831100Y-108303100I0J263000D01*
G01*
X138831100Y-107652100D01*
G75*
G02*
X139094100Y-107389100I263000J0D01*
G01*
G37*
G36*
G01*
X145078300Y-108174900D02*
X145078300Y-107648900D01*
G75*
G02*
X145341300Y-107385900I263000J0D01*
G01*
X145992300Y-107385900D01*
G75*
G02*
X146255300Y-107648900I0J-263000D01*
G01*
X146255300Y-108174900D01*
G75*
G02*
X145992300Y-108437900I-263000J0D01*
G01*
X145341300Y-108437900D01*
G75*
G02*
X145078300Y-108174900I0J263000D01*
G01*
G37*
G36*
G01*
X143353300Y-108174900D02*
X143353300Y-107648900D01*
G75*
G02*
X143616300Y-107385900I263000J0D01*
G01*
X144267300Y-107385900D01*
G75*
G02*
X144530300Y-107648900I0J-263000D01*
G01*
X144530300Y-108174900D01*
G75*
G02*
X144267300Y-108437900I-263000J0D01*
G01*
X143616300Y-108437900D01*
G75*
G02*
X143353300Y-108174900I0J263000D01*
G01*
G37*
G36*
G01*
X145080500Y-109673500D02*
X145080500Y-109147500D01*
G75*
G02*
X145343500Y-108884500I263000J0D01*
G01*
X145994500Y-108884500D01*
G75*
G02*
X146257500Y-109147500I0J-263000D01*
G01*
X146257500Y-109673500D01*
G75*
G02*
X145994500Y-109936500I-263000J0D01*
G01*
X145343500Y-109936500D01*
G75*
G02*
X145080500Y-109673500I0J263000D01*
G01*
G37*
G36*
G01*
X143355500Y-109673500D02*
X143355500Y-109147500D01*
G75*
G02*
X143618500Y-108884500I263000J0D01*
G01*
X144269500Y-108884500D01*
G75*
G02*
X144532500Y-109147500I0J-263000D01*
G01*
X144532500Y-109673500D01*
G75*
G02*
X144269500Y-109936500I-263000J0D01*
G01*
X143618500Y-109936500D01*
G75*
G02*
X143355500Y-109673500I0J263000D01*
G01*
G37*
G36*
G01*
X140988900Y-118766700D02*
X140988900Y-118240700D01*
G75*
G02*
X141251900Y-117977700I263000J0D01*
G01*
X141902900Y-117977700D01*
G75*
G02*
X142165900Y-118240700I0J-263000D01*
G01*
X142165900Y-118766700D01*
G75*
G02*
X141902900Y-119029700I-263000J0D01*
G01*
X141251900Y-119029700D01*
G75*
G02*
X140988900Y-118766700I0J263000D01*
G01*
G37*
G36*
G01*
X139263900Y-118766700D02*
X139263900Y-118240700D01*
G75*
G02*
X139526900Y-117977700I263000J0D01*
G01*
X140177900Y-117977700D01*
G75*
G02*
X140440900Y-118240700I0J-263000D01*
G01*
X140440900Y-118766700D01*
G75*
G02*
X140177900Y-119029700I-263000J0D01*
G01*
X139526900Y-119029700D01*
G75*
G02*
X139263900Y-118766700I0J263000D01*
G01*
G37*
G36*
G01*
X140990000Y-117242700D02*
X140990000Y-116716700D01*
G75*
G02*
X141253000Y-116453700I263000J0D01*
G01*
X141904000Y-116453700D01*
G75*
G02*
X142167000Y-116716700I0J-263000D01*
G01*
X142167000Y-117242700D01*
G75*
G02*
X141904000Y-117505700I-263000J0D01*
G01*
X141253000Y-117505700D01*
G75*
G02*
X140990000Y-117242700I0J263000D01*
G01*
G37*
G36*
G01*
X139265000Y-117242700D02*
X139265000Y-116716700D01*
G75*
G02*
X139528000Y-116453700I263000J0D01*
G01*
X140179000Y-116453700D01*
G75*
G02*
X140442000Y-116716700I0J-263000D01*
G01*
X140442000Y-117242700D01*
G75*
G02*
X140179000Y-117505700I-263000J0D01*
G01*
X139528000Y-117505700D01*
G75*
G02*
X139265000Y-117242700I0J263000D01*
G01*
G37*
G36*
G01*
X137534500Y-118754000D02*
X137534500Y-118228000D01*
G75*
G02*
X137797500Y-117965000I263000J0D01*
G01*
X138448500Y-117965000D01*
G75*
G02*
X138711500Y-118228000I0J-263000D01*
G01*
X138711500Y-118754000D01*
G75*
G02*
X138448500Y-119017000I-263000J0D01*
G01*
X137797500Y-119017000D01*
G75*
G02*
X137534500Y-118754000I0J263000D01*
G01*
G37*
G36*
G01*
X135809500Y-118754000D02*
X135809500Y-118228000D01*
G75*
G02*
X136072500Y-117965000I263000J0D01*
G01*
X136723500Y-117965000D01*
G75*
G02*
X136986500Y-118228000I0J-263000D01*
G01*
X136986500Y-118754000D01*
G75*
G02*
X136723500Y-119017000I-263000J0D01*
G01*
X136072500Y-119017000D01*
G75*
G02*
X135809500Y-118754000I0J263000D01*
G01*
G37*
G36*
G01*
X137534500Y-117230000D02*
X137534500Y-116704000D01*
G75*
G02*
X137797500Y-116441000I263000J0D01*
G01*
X138448500Y-116441000D01*
G75*
G02*
X138711500Y-116704000I0J-263000D01*
G01*
X138711500Y-117230000D01*
G75*
G02*
X138448500Y-117493000I-263000J0D01*
G01*
X137797500Y-117493000D01*
G75*
G02*
X137534500Y-117230000I0J263000D01*
G01*
G37*
G36*
G01*
X135809500Y-117230000D02*
X135809500Y-116704000D01*
G75*
G02*
X136072500Y-116441000I263000J0D01*
G01*
X136723500Y-116441000D01*
G75*
G02*
X136986500Y-116704000I0J-263000D01*
G01*
X136986500Y-117230000D01*
G75*
G02*
X136723500Y-117493000I-263000J0D01*
G01*
X136072500Y-117493000D01*
G75*
G02*
X135809500Y-117230000I0J263000D01*
G01*
G37*
G36*
G01*
X145689300Y-120684400D02*
X145689300Y-120158400D01*
G75*
G02*
X145952300Y-119895400I263000J0D01*
G01*
X146503300Y-119895400D01*
G75*
G02*
X146766300Y-120158400I0J-263000D01*
G01*
X146766300Y-120684400D01*
G75*
G02*
X146503300Y-120947400I-263000J0D01*
G01*
X145952300Y-120947400D01*
G75*
G02*
X145689300Y-120684400I0J263000D01*
G01*
G37*
G36*
G01*
X143864300Y-120684400D02*
X143864300Y-120158400D01*
G75*
G02*
X144127300Y-119895400I263000J0D01*
G01*
X144678300Y-119895400D01*
G75*
G02*
X144941300Y-120158400I0J-263000D01*
G01*
X144941300Y-120684400D01*
G75*
G02*
X144678300Y-120947400I-263000J0D01*
G01*
X144127300Y-120947400D01*
G75*
G02*
X143864300Y-120684400I0J263000D01*
G01*
G37*
G36*
G01*
X141800400Y-120941400D02*
X141800400Y-122441400D01*
G75*
G02*
X141749400Y-122492400I-51000J0D01*
G01*
X140749400Y-122492400D01*
G75*
G02*
X140698400Y-122441400I0J51000D01*
G01*
X140698400Y-120941400D01*
G75*
G02*
X140749400Y-120890400I51000J0D01*
G01*
X141749400Y-120890400D01*
G75*
G02*
X141800400Y-120941400I0J-51000D01*
G01*
G37*
G36*
G01*
X140500400Y-120941400D02*
X140500400Y-122441400D01*
G75*
G02*
X140449400Y-122492400I-51000J0D01*
G01*
X139449400Y-122492400D01*
G75*
G02*
X139398400Y-122441400I0J51000D01*
G01*
X139398400Y-120941400D01*
G75*
G02*
X139449400Y-120890400I51000J0D01*
G01*
X140449400Y-120890400D01*
G75*
G02*
X140500400Y-120941400I0J-51000D01*
G01*
G37*
D13*
X145072100Y-154393900D03*
X145072100Y-151853900D03*
X142532100Y-154393900D03*
X142532100Y-151853900D03*
X139992100Y-154393900D03*
X139992100Y-151853900D03*
X137452100Y-154393900D03*
X137452100Y-151853900D03*
X134912100Y-154393900D03*
G36*
G01*
X135762100Y-152754900D02*
X134062100Y-152754900D01*
G75*
G02*
X134011100Y-152703900I0J51000D01*
G01*
X134011100Y-151003900D01*
G75*
G02*
X134062100Y-150952900I51000J0D01*
G01*
X135762100Y-150952900D01*
G75*
G02*
X135813100Y-151003900I0J-51000D01*
G01*
X135813100Y-152703900D01*
G75*
G02*
X135762100Y-152754900I-51000J0D01*
G01*
G37*
X124802900Y-142290800D03*
X124802900Y-139750800D03*
X124802900Y-137210800D03*
X124802900Y-134670800D03*
X124802900Y-132130800D03*
G36*
G01*
X123901900Y-130440800D02*
X123901900Y-128740800D01*
G75*
G02*
X123952900Y-128689800I51000J0D01*
G01*
X125652900Y-128689800D01*
G75*
G02*
X125703900Y-128740800I0J-51000D01*
G01*
X125703900Y-130440800D01*
G75*
G02*
X125652900Y-130491800I-51000J0D01*
G01*
X123952900Y-130491800D01*
G75*
G02*
X123901900Y-130440800I0J51000D01*
G01*
G37*
G36*
G01*
X147159200Y-128351400D02*
X147760200Y-128351400D01*
G75*
G02*
X147985700Y-128576900I0J-225500D01*
G01*
X147985700Y-129027900D01*
G75*
G02*
X147760200Y-129253400I-225500J0D01*
G01*
X147159200Y-129253400D01*
G75*
G02*
X146933700Y-129027900I0J225500D01*
G01*
X146933700Y-128576900D01*
G75*
G02*
X147159200Y-128351400I225500J0D01*
G01*
G37*
G36*
G01*
X147159200Y-126701400D02*
X147760200Y-126701400D01*
G75*
G02*
X147985700Y-126926900I0J-225500D01*
G01*
X147985700Y-127377900D01*
G75*
G02*
X147760200Y-127603400I-225500J0D01*
G01*
X147159200Y-127603400D01*
G75*
G02*
X146933700Y-127377900I0J225500D01*
G01*
X146933700Y-126926900D01*
G75*
G02*
X147159200Y-126701400I225500J0D01*
G01*
G37*
G36*
G01*
X136638600Y-133162700D02*
X138138600Y-133162700D01*
G75*
G02*
X138189600Y-133213700I0J-51000D01*
G01*
X138189600Y-134213700D01*
G75*
G02*
X138138600Y-134264700I-51000J0D01*
G01*
X136638600Y-134264700D01*
G75*
G02*
X136587600Y-134213700I0J51000D01*
G01*
X136587600Y-133213700D01*
G75*
G02*
X136638600Y-133162700I51000J0D01*
G01*
G37*
G36*
G01*
X136638600Y-134462700D02*
X138138600Y-134462700D01*
G75*
G02*
X138189600Y-134513700I0J-51000D01*
G01*
X138189600Y-135513700D01*
G75*
G02*
X138138600Y-135564700I-51000J0D01*
G01*
X136638600Y-135564700D01*
G75*
G02*
X136587600Y-135513700I0J51000D01*
G01*
X136587600Y-134513700D01*
G75*
G02*
X136638600Y-134462700I51000J0D01*
G01*
G37*
G36*
G01*
X136638600Y-135762700D02*
X138138600Y-135762700D01*
G75*
G02*
X138189600Y-135813700I0J-51000D01*
G01*
X138189600Y-136813700D01*
G75*
G02*
X138138600Y-136864700I-51000J0D01*
G01*
X136638600Y-136864700D01*
G75*
G02*
X136587600Y-136813700I0J51000D01*
G01*
X136587600Y-135813700D01*
G75*
G02*
X136638600Y-135762700I51000J0D01*
G01*
G37*
G36*
G01*
X139483400Y-133162700D02*
X140983400Y-133162700D01*
G75*
G02*
X141034400Y-133213700I0J-51000D01*
G01*
X141034400Y-134213700D01*
G75*
G02*
X140983400Y-134264700I-51000J0D01*
G01*
X139483400Y-134264700D01*
G75*
G02*
X139432400Y-134213700I0J51000D01*
G01*
X139432400Y-133213700D01*
G75*
G02*
X139483400Y-133162700I51000J0D01*
G01*
G37*
G36*
G01*
X139483400Y-134462700D02*
X140983400Y-134462700D01*
G75*
G02*
X141034400Y-134513700I0J-51000D01*
G01*
X141034400Y-135513700D01*
G75*
G02*
X140983400Y-135564700I-51000J0D01*
G01*
X139483400Y-135564700D01*
G75*
G02*
X139432400Y-135513700I0J51000D01*
G01*
X139432400Y-134513700D01*
G75*
G02*
X139483400Y-134462700I51000J0D01*
G01*
G37*
G36*
G01*
X139483400Y-135762700D02*
X140983400Y-135762700D01*
G75*
G02*
X141034400Y-135813700I0J-51000D01*
G01*
X141034400Y-136813700D01*
G75*
G02*
X140983400Y-136864700I-51000J0D01*
G01*
X139483400Y-136864700D01*
G75*
G02*
X139432400Y-136813700I0J51000D01*
G01*
X139432400Y-135813700D01*
G75*
G02*
X139483400Y-135762700I51000J0D01*
G01*
G37*
G36*
G01*
X142328200Y-133167300D02*
X143828200Y-133167300D01*
G75*
G02*
X143879200Y-133218300I0J-51000D01*
G01*
X143879200Y-134218300D01*
G75*
G02*
X143828200Y-134269300I-51000J0D01*
G01*
X142328200Y-134269300D01*
G75*
G02*
X142277200Y-134218300I0J51000D01*
G01*
X142277200Y-133218300D01*
G75*
G02*
X142328200Y-133167300I51000J0D01*
G01*
G37*
G36*
G01*
X142328200Y-134467300D02*
X143828200Y-134467300D01*
G75*
G02*
X143879200Y-134518300I0J-51000D01*
G01*
X143879200Y-135518300D01*
G75*
G02*
X143828200Y-135569300I-51000J0D01*
G01*
X142328200Y-135569300D01*
G75*
G02*
X142277200Y-135518300I0J51000D01*
G01*
X142277200Y-134518300D01*
G75*
G02*
X142328200Y-134467300I51000J0D01*
G01*
G37*
G36*
G01*
X142328200Y-135767300D02*
X143828200Y-135767300D01*
G75*
G02*
X143879200Y-135818300I0J-51000D01*
G01*
X143879200Y-136818300D01*
G75*
G02*
X143828200Y-136869300I-51000J0D01*
G01*
X142328200Y-136869300D01*
G75*
G02*
X142277200Y-136818300I0J51000D01*
G01*
X142277200Y-135818300D01*
G75*
G02*
X142328200Y-135767300I51000J0D01*
G01*
G37*
G36*
G01*
X145931500Y-98142600D02*
X145730500Y-98142600D01*
G75*
G02*
X145630000Y-98042100I0J100500D01*
G01*
X145630000Y-96666100D01*
G75*
G02*
X145730500Y-96565600I100500J0D01*
G01*
X145931500Y-96565600D01*
G75*
G02*
X146032000Y-96666100I0J-100500D01*
G01*
X146032000Y-98042100D01*
G75*
G02*
X145931500Y-98142600I-100500J0D01*
G01*
G37*
G36*
G01*
X145431500Y-98142600D02*
X145230500Y-98142600D01*
G75*
G02*
X145130000Y-98042100I0J100500D01*
G01*
X145130000Y-96666100D01*
G75*
G02*
X145230500Y-96565600I100500J0D01*
G01*
X145431500Y-96565600D01*
G75*
G02*
X145532000Y-96666100I0J-100500D01*
G01*
X145532000Y-98042100D01*
G75*
G02*
X145431500Y-98142600I-100500J0D01*
G01*
G37*
G36*
G01*
X144931500Y-98142600D02*
X144730500Y-98142600D01*
G75*
G02*
X144630000Y-98042100I0J100500D01*
G01*
X144630000Y-96666100D01*
G75*
G02*
X144730500Y-96565600I100500J0D01*
G01*
X144931500Y-96565600D01*
G75*
G02*
X145032000Y-96666100I0J-100500D01*
G01*
X145032000Y-98042100D01*
G75*
G02*
X144931500Y-98142600I-100500J0D01*
G01*
G37*
G36*
G01*
X144431500Y-98142600D02*
X144230500Y-98142600D01*
G75*
G02*
X144130000Y-98042100I0J100500D01*
G01*
X144130000Y-96666100D01*
G75*
G02*
X144230500Y-96565600I100500J0D01*
G01*
X144431500Y-96565600D01*
G75*
G02*
X144532000Y-96666100I0J-100500D01*
G01*
X144532000Y-98042100D01*
G75*
G02*
X144431500Y-98142600I-100500J0D01*
G01*
G37*
G36*
G01*
X143931500Y-98142600D02*
X143730500Y-98142600D01*
G75*
G02*
X143630000Y-98042100I0J100500D01*
G01*
X143630000Y-96666100D01*
G75*
G02*
X143730500Y-96565600I100500J0D01*
G01*
X143931500Y-96565600D01*
G75*
G02*
X144032000Y-96666100I0J-100500D01*
G01*
X144032000Y-98042100D01*
G75*
G02*
X143931500Y-98142600I-100500J0D01*
G01*
G37*
G36*
G01*
X143431500Y-98142600D02*
X143230500Y-98142600D01*
G75*
G02*
X143130000Y-98042100I0J100500D01*
G01*
X143130000Y-96666100D01*
G75*
G02*
X143230500Y-96565600I100500J0D01*
G01*
X143431500Y-96565600D01*
G75*
G02*
X143532000Y-96666100I0J-100500D01*
G01*
X143532000Y-98042100D01*
G75*
G02*
X143431500Y-98142600I-100500J0D01*
G01*
G37*
G36*
G01*
X142931500Y-98142600D02*
X142730500Y-98142600D01*
G75*
G02*
X142630000Y-98042100I0J100500D01*
G01*
X142630000Y-96666100D01*
G75*
G02*
X142730500Y-96565600I100500J0D01*
G01*
X142931500Y-96565600D01*
G75*
G02*
X143032000Y-96666100I0J-100500D01*
G01*
X143032000Y-98042100D01*
G75*
G02*
X142931500Y-98142600I-100500J0D01*
G01*
G37*
G36*
G01*
X142431500Y-98142600D02*
X142230500Y-98142600D01*
G75*
G02*
X142130000Y-98042100I0J100500D01*
G01*
X142130000Y-96666100D01*
G75*
G02*
X142230500Y-96565600I100500J0D01*
G01*
X142431500Y-96565600D01*
G75*
G02*
X142532000Y-96666100I0J-100500D01*
G01*
X142532000Y-98042100D01*
G75*
G02*
X142431500Y-98142600I-100500J0D01*
G01*
G37*
G36*
G01*
X141931500Y-98142600D02*
X141730500Y-98142600D01*
G75*
G02*
X141630000Y-98042100I0J100500D01*
G01*
X141630000Y-96666100D01*
G75*
G02*
X141730500Y-96565600I100500J0D01*
G01*
X141931500Y-96565600D01*
G75*
G02*
X142032000Y-96666100I0J-100500D01*
G01*
X142032000Y-98042100D01*
G75*
G02*
X141931500Y-98142600I-100500J0D01*
G01*
G37*
G36*
G01*
X141431500Y-98142600D02*
X141230500Y-98142600D01*
G75*
G02*
X141130000Y-98042100I0J100500D01*
G01*
X141130000Y-96666100D01*
G75*
G02*
X141230500Y-96565600I100500J0D01*
G01*
X141431500Y-96565600D01*
G75*
G02*
X141532000Y-96666100I0J-100500D01*
G01*
X141532000Y-98042100D01*
G75*
G02*
X141431500Y-98142600I-100500J0D01*
G01*
G37*
G36*
G01*
X140931500Y-98142600D02*
X140730500Y-98142600D01*
G75*
G02*
X140630000Y-98042100I0J100500D01*
G01*
X140630000Y-96666100D01*
G75*
G02*
X140730500Y-96565600I100500J0D01*
G01*
X140931500Y-96565600D01*
G75*
G02*
X141032000Y-96666100I0J-100500D01*
G01*
X141032000Y-98042100D01*
G75*
G02*
X140931500Y-98142600I-100500J0D01*
G01*
G37*
G36*
G01*
X140431500Y-98142600D02*
X140230500Y-98142600D01*
G75*
G02*
X140130000Y-98042100I0J100500D01*
G01*
X140130000Y-96666100D01*
G75*
G02*
X140230500Y-96565600I100500J0D01*
G01*
X140431500Y-96565600D01*
G75*
G02*
X140532000Y-96666100I0J-100500D01*
G01*
X140532000Y-98042100D01*
G75*
G02*
X140431500Y-98142600I-100500J0D01*
G01*
G37*
G36*
G01*
X139931500Y-98142600D02*
X139730500Y-98142600D01*
G75*
G02*
X139630000Y-98042100I0J100500D01*
G01*
X139630000Y-96666100D01*
G75*
G02*
X139730500Y-96565600I100500J0D01*
G01*
X139931500Y-96565600D01*
G75*
G02*
X140032000Y-96666100I0J-100500D01*
G01*
X140032000Y-98042100D01*
G75*
G02*
X139931500Y-98142600I-100500J0D01*
G01*
G37*
G36*
G01*
X139431500Y-98142600D02*
X139230500Y-98142600D01*
G75*
G02*
X139130000Y-98042100I0J100500D01*
G01*
X139130000Y-96666100D01*
G75*
G02*
X139230500Y-96565600I100500J0D01*
G01*
X139431500Y-96565600D01*
G75*
G02*
X139532000Y-96666100I0J-100500D01*
G01*
X139532000Y-98042100D01*
G75*
G02*
X139431500Y-98142600I-100500J0D01*
G01*
G37*
G36*
G01*
X138931500Y-98142600D02*
X138730500Y-98142600D01*
G75*
G02*
X138630000Y-98042100I0J100500D01*
G01*
X138630000Y-96666100D01*
G75*
G02*
X138730500Y-96565600I100500J0D01*
G01*
X138931500Y-96565600D01*
G75*
G02*
X139032000Y-96666100I0J-100500D01*
G01*
X139032000Y-98042100D01*
G75*
G02*
X138931500Y-98142600I-100500J0D01*
G01*
G37*
G36*
G01*
X138431500Y-98142600D02*
X138230500Y-98142600D01*
G75*
G02*
X138130000Y-98042100I0J100500D01*
G01*
X138130000Y-96666100D01*
G75*
G02*
X138230500Y-96565600I100500J0D01*
G01*
X138431500Y-96565600D01*
G75*
G02*
X138532000Y-96666100I0J-100500D01*
G01*
X138532000Y-98042100D01*
G75*
G02*
X138431500Y-98142600I-100500J0D01*
G01*
G37*
G36*
G01*
X137931500Y-98142600D02*
X137730500Y-98142600D01*
G75*
G02*
X137630000Y-98042100I0J100500D01*
G01*
X137630000Y-96666100D01*
G75*
G02*
X137730500Y-96565600I100500J0D01*
G01*
X137931500Y-96565600D01*
G75*
G02*
X138032000Y-96666100I0J-100500D01*
G01*
X138032000Y-98042100D01*
G75*
G02*
X137931500Y-98142600I-100500J0D01*
G01*
G37*
G36*
G01*
X137431500Y-98142600D02*
X137230500Y-98142600D01*
G75*
G02*
X137130000Y-98042100I0J100500D01*
G01*
X137130000Y-96666100D01*
G75*
G02*
X137230500Y-96565600I100500J0D01*
G01*
X137431500Y-96565600D01*
G75*
G02*
X137532000Y-96666100I0J-100500D01*
G01*
X137532000Y-98042100D01*
G75*
G02*
X137431500Y-98142600I-100500J0D01*
G01*
G37*
G36*
G01*
X136931500Y-98142600D02*
X136730500Y-98142600D01*
G75*
G02*
X136630000Y-98042100I0J100500D01*
G01*
X136630000Y-96666100D01*
G75*
G02*
X136730500Y-96565600I100500J0D01*
G01*
X136931500Y-96565600D01*
G75*
G02*
X137032000Y-96666100I0J-100500D01*
G01*
X137032000Y-98042100D01*
G75*
G02*
X136931500Y-98142600I-100500J0D01*
G01*
G37*
G36*
G01*
X136431500Y-98142600D02*
X136230500Y-98142600D01*
G75*
G02*
X136130000Y-98042100I0J100500D01*
G01*
X136130000Y-96666100D01*
G75*
G02*
X136230500Y-96565600I100500J0D01*
G01*
X136431500Y-96565600D01*
G75*
G02*
X136532000Y-96666100I0J-100500D01*
G01*
X136532000Y-98042100D01*
G75*
G02*
X136431500Y-98142600I-100500J0D01*
G01*
G37*
G36*
G01*
X135931500Y-98142600D02*
X135730500Y-98142600D01*
G75*
G02*
X135630000Y-98042100I0J100500D01*
G01*
X135630000Y-96666100D01*
G75*
G02*
X135730500Y-96565600I100500J0D01*
G01*
X135931500Y-96565600D01*
G75*
G02*
X136032000Y-96666100I0J-100500D01*
G01*
X136032000Y-98042100D01*
G75*
G02*
X135931500Y-98142600I-100500J0D01*
G01*
G37*
G36*
G01*
X135431500Y-98142600D02*
X135230500Y-98142600D01*
G75*
G02*
X135130000Y-98042100I0J100500D01*
G01*
X135130000Y-96666100D01*
G75*
G02*
X135230500Y-96565600I100500J0D01*
G01*
X135431500Y-96565600D01*
G75*
G02*
X135532000Y-96666100I0J-100500D01*
G01*
X135532000Y-98042100D01*
G75*
G02*
X135431500Y-98142600I-100500J0D01*
G01*
G37*
G36*
G01*
X134931500Y-98142600D02*
X134730500Y-98142600D01*
G75*
G02*
X134630000Y-98042100I0J100500D01*
G01*
X134630000Y-96666100D01*
G75*
G02*
X134730500Y-96565600I100500J0D01*
G01*
X134931500Y-96565600D01*
G75*
G02*
X135032000Y-96666100I0J-100500D01*
G01*
X135032000Y-98042100D01*
G75*
G02*
X134931500Y-98142600I-100500J0D01*
G01*
G37*
G36*
G01*
X134431500Y-98142600D02*
X134230500Y-98142600D01*
G75*
G02*
X134130000Y-98042100I0J100500D01*
G01*
X134130000Y-96666100D01*
G75*
G02*
X134230500Y-96565600I100500J0D01*
G01*
X134431500Y-96565600D01*
G75*
G02*
X134532000Y-96666100I0J-100500D01*
G01*
X134532000Y-98042100D01*
G75*
G02*
X134431500Y-98142600I-100500J0D01*
G01*
G37*
G36*
G01*
X134431500Y-105567600D02*
X134230500Y-105567600D01*
G75*
G02*
X134130000Y-105467100I0J100500D01*
G01*
X134130000Y-104091100D01*
G75*
G02*
X134230500Y-103990600I100500J0D01*
G01*
X134431500Y-103990600D01*
G75*
G02*
X134532000Y-104091100I0J-100500D01*
G01*
X134532000Y-105467100D01*
G75*
G02*
X134431500Y-105567600I-100500J0D01*
G01*
G37*
G36*
G01*
X134931500Y-105567600D02*
X134730500Y-105567600D01*
G75*
G02*
X134630000Y-105467100I0J100500D01*
G01*
X134630000Y-104091100D01*
G75*
G02*
X134730500Y-103990600I100500J0D01*
G01*
X134931500Y-103990600D01*
G75*
G02*
X135032000Y-104091100I0J-100500D01*
G01*
X135032000Y-105467100D01*
G75*
G02*
X134931500Y-105567600I-100500J0D01*
G01*
G37*
G36*
G01*
X135431500Y-105567600D02*
X135230500Y-105567600D01*
G75*
G02*
X135130000Y-105467100I0J100500D01*
G01*
X135130000Y-104091100D01*
G75*
G02*
X135230500Y-103990600I100500J0D01*
G01*
X135431500Y-103990600D01*
G75*
G02*
X135532000Y-104091100I0J-100500D01*
G01*
X135532000Y-105467100D01*
G75*
G02*
X135431500Y-105567600I-100500J0D01*
G01*
G37*
G36*
G01*
X135931500Y-105567600D02*
X135730500Y-105567600D01*
G75*
G02*
X135630000Y-105467100I0J100500D01*
G01*
X135630000Y-104091100D01*
G75*
G02*
X135730500Y-103990600I100500J0D01*
G01*
X135931500Y-103990600D01*
G75*
G02*
X136032000Y-104091100I0J-100500D01*
G01*
X136032000Y-105467100D01*
G75*
G02*
X135931500Y-105567600I-100500J0D01*
G01*
G37*
G36*
G01*
X136431500Y-105567600D02*
X136230500Y-105567600D01*
G75*
G02*
X136130000Y-105467100I0J100500D01*
G01*
X136130000Y-104091100D01*
G75*
G02*
X136230500Y-103990600I100500J0D01*
G01*
X136431500Y-103990600D01*
G75*
G02*
X136532000Y-104091100I0J-100500D01*
G01*
X136532000Y-105467100D01*
G75*
G02*
X136431500Y-105567600I-100500J0D01*
G01*
G37*
G36*
G01*
X136931500Y-105567600D02*
X136730500Y-105567600D01*
G75*
G02*
X136630000Y-105467100I0J100500D01*
G01*
X136630000Y-104091100D01*
G75*
G02*
X136730500Y-103990600I100500J0D01*
G01*
X136931500Y-103990600D01*
G75*
G02*
X137032000Y-104091100I0J-100500D01*
G01*
X137032000Y-105467100D01*
G75*
G02*
X136931500Y-105567600I-100500J0D01*
G01*
G37*
G36*
G01*
X137431500Y-105567600D02*
X137230500Y-105567600D01*
G75*
G02*
X137130000Y-105467100I0J100500D01*
G01*
X137130000Y-104091100D01*
G75*
G02*
X137230500Y-103990600I100500J0D01*
G01*
X137431500Y-103990600D01*
G75*
G02*
X137532000Y-104091100I0J-100500D01*
G01*
X137532000Y-105467100D01*
G75*
G02*
X137431500Y-105567600I-100500J0D01*
G01*
G37*
G36*
G01*
X137931500Y-105567600D02*
X137730500Y-105567600D01*
G75*
G02*
X137630000Y-105467100I0J100500D01*
G01*
X137630000Y-104091100D01*
G75*
G02*
X137730500Y-103990600I100500J0D01*
G01*
X137931500Y-103990600D01*
G75*
G02*
X138032000Y-104091100I0J-100500D01*
G01*
X138032000Y-105467100D01*
G75*
G02*
X137931500Y-105567600I-100500J0D01*
G01*
G37*
G36*
G01*
X138431500Y-105567600D02*
X138230500Y-105567600D01*
G75*
G02*
X138130000Y-105467100I0J100500D01*
G01*
X138130000Y-104091100D01*
G75*
G02*
X138230500Y-103990600I100500J0D01*
G01*
X138431500Y-103990600D01*
G75*
G02*
X138532000Y-104091100I0J-100500D01*
G01*
X138532000Y-105467100D01*
G75*
G02*
X138431500Y-105567600I-100500J0D01*
G01*
G37*
G36*
G01*
X138931500Y-105567600D02*
X138730500Y-105567600D01*
G75*
G02*
X138630000Y-105467100I0J100500D01*
G01*
X138630000Y-104091100D01*
G75*
G02*
X138730500Y-103990600I100500J0D01*
G01*
X138931500Y-103990600D01*
G75*
G02*
X139032000Y-104091100I0J-100500D01*
G01*
X139032000Y-105467100D01*
G75*
G02*
X138931500Y-105567600I-100500J0D01*
G01*
G37*
G36*
G01*
X139431500Y-105567600D02*
X139230500Y-105567600D01*
G75*
G02*
X139130000Y-105467100I0J100500D01*
G01*
X139130000Y-104091100D01*
G75*
G02*
X139230500Y-103990600I100500J0D01*
G01*
X139431500Y-103990600D01*
G75*
G02*
X139532000Y-104091100I0J-100500D01*
G01*
X139532000Y-105467100D01*
G75*
G02*
X139431500Y-105567600I-100500J0D01*
G01*
G37*
G36*
G01*
X139931500Y-105567600D02*
X139730500Y-105567600D01*
G75*
G02*
X139630000Y-105467100I0J100500D01*
G01*
X139630000Y-104091100D01*
G75*
G02*
X139730500Y-103990600I100500J0D01*
G01*
X139931500Y-103990600D01*
G75*
G02*
X140032000Y-104091100I0J-100500D01*
G01*
X140032000Y-105467100D01*
G75*
G02*
X139931500Y-105567600I-100500J0D01*
G01*
G37*
G36*
G01*
X140431500Y-105567600D02*
X140230500Y-105567600D01*
G75*
G02*
X140130000Y-105467100I0J100500D01*
G01*
X140130000Y-104091100D01*
G75*
G02*
X140230500Y-103990600I100500J0D01*
G01*
X140431500Y-103990600D01*
G75*
G02*
X140532000Y-104091100I0J-100500D01*
G01*
X140532000Y-105467100D01*
G75*
G02*
X140431500Y-105567600I-100500J0D01*
G01*
G37*
G36*
G01*
X140931500Y-105567600D02*
X140730500Y-105567600D01*
G75*
G02*
X140630000Y-105467100I0J100500D01*
G01*
X140630000Y-104091100D01*
G75*
G02*
X140730500Y-103990600I100500J0D01*
G01*
X140931500Y-103990600D01*
G75*
G02*
X141032000Y-104091100I0J-100500D01*
G01*
X141032000Y-105467100D01*
G75*
G02*
X140931500Y-105567600I-100500J0D01*
G01*
G37*
G36*
G01*
X141431500Y-105567600D02*
X141230500Y-105567600D01*
G75*
G02*
X141130000Y-105467100I0J100500D01*
G01*
X141130000Y-104091100D01*
G75*
G02*
X141230500Y-103990600I100500J0D01*
G01*
X141431500Y-103990600D01*
G75*
G02*
X141532000Y-104091100I0J-100500D01*
G01*
X141532000Y-105467100D01*
G75*
G02*
X141431500Y-105567600I-100500J0D01*
G01*
G37*
G36*
G01*
X141931500Y-105567600D02*
X141730500Y-105567600D01*
G75*
G02*
X141630000Y-105467100I0J100500D01*
G01*
X141630000Y-104091100D01*
G75*
G02*
X141730500Y-103990600I100500J0D01*
G01*
X141931500Y-103990600D01*
G75*
G02*
X142032000Y-104091100I0J-100500D01*
G01*
X142032000Y-105467100D01*
G75*
G02*
X141931500Y-105567600I-100500J0D01*
G01*
G37*
G36*
G01*
X142431500Y-105567600D02*
X142230500Y-105567600D01*
G75*
G02*
X142130000Y-105467100I0J100500D01*
G01*
X142130000Y-104091100D01*
G75*
G02*
X142230500Y-103990600I100500J0D01*
G01*
X142431500Y-103990600D01*
G75*
G02*
X142532000Y-104091100I0J-100500D01*
G01*
X142532000Y-105467100D01*
G75*
G02*
X142431500Y-105567600I-100500J0D01*
G01*
G37*
G36*
G01*
X142931500Y-105567600D02*
X142730500Y-105567600D01*
G75*
G02*
X142630000Y-105467100I0J100500D01*
G01*
X142630000Y-104091100D01*
G75*
G02*
X142730500Y-103990600I100500J0D01*
G01*
X142931500Y-103990600D01*
G75*
G02*
X143032000Y-104091100I0J-100500D01*
G01*
X143032000Y-105467100D01*
G75*
G02*
X142931500Y-105567600I-100500J0D01*
G01*
G37*
G36*
G01*
X143431500Y-105567600D02*
X143230500Y-105567600D01*
G75*
G02*
X143130000Y-105467100I0J100500D01*
G01*
X143130000Y-104091100D01*
G75*
G02*
X143230500Y-103990600I100500J0D01*
G01*
X143431500Y-103990600D01*
G75*
G02*
X143532000Y-104091100I0J-100500D01*
G01*
X143532000Y-105467100D01*
G75*
G02*
X143431500Y-105567600I-100500J0D01*
G01*
G37*
G36*
G01*
X143931500Y-105567600D02*
X143730500Y-105567600D01*
G75*
G02*
X143630000Y-105467100I0J100500D01*
G01*
X143630000Y-104091100D01*
G75*
G02*
X143730500Y-103990600I100500J0D01*
G01*
X143931500Y-103990600D01*
G75*
G02*
X144032000Y-104091100I0J-100500D01*
G01*
X144032000Y-105467100D01*
G75*
G02*
X143931500Y-105567600I-100500J0D01*
G01*
G37*
G36*
G01*
X144431500Y-105567600D02*
X144230500Y-105567600D01*
G75*
G02*
X144130000Y-105467100I0J100500D01*
G01*
X144130000Y-104091100D01*
G75*
G02*
X144230500Y-103990600I100500J0D01*
G01*
X144431500Y-103990600D01*
G75*
G02*
X144532000Y-104091100I0J-100500D01*
G01*
X144532000Y-105467100D01*
G75*
G02*
X144431500Y-105567600I-100500J0D01*
G01*
G37*
G36*
G01*
X144931500Y-105567600D02*
X144730500Y-105567600D01*
G75*
G02*
X144630000Y-105467100I0J100500D01*
G01*
X144630000Y-104091100D01*
G75*
G02*
X144730500Y-103990600I100500J0D01*
G01*
X144931500Y-103990600D01*
G75*
G02*
X145032000Y-104091100I0J-100500D01*
G01*
X145032000Y-105467100D01*
G75*
G02*
X144931500Y-105567600I-100500J0D01*
G01*
G37*
G36*
G01*
X145431500Y-105567600D02*
X145230500Y-105567600D01*
G75*
G02*
X145130000Y-105467100I0J100500D01*
G01*
X145130000Y-104091100D01*
G75*
G02*
X145230500Y-103990600I100500J0D01*
G01*
X145431500Y-103990600D01*
G75*
G02*
X145532000Y-104091100I0J-100500D01*
G01*
X145532000Y-105467100D01*
G75*
G02*
X145431500Y-105567600I-100500J0D01*
G01*
G37*
G36*
G01*
X145931500Y-105567600D02*
X145730500Y-105567600D01*
G75*
G02*
X145630000Y-105467100I0J100500D01*
G01*
X145630000Y-104091100D01*
G75*
G02*
X145730500Y-103990600I100500J0D01*
G01*
X145931500Y-103990600D01*
G75*
G02*
X146032000Y-104091100I0J-100500D01*
G01*
X146032000Y-105467100D01*
G75*
G02*
X145931500Y-105567600I-100500J0D01*
G01*
G37*
G36*
G01*
X145902600Y-72111800D02*
X145902600Y-70211800D01*
G75*
G02*
X145953600Y-70160800I51000J0D01*
G01*
X147253600Y-70160800D01*
G75*
G02*
X147304600Y-70211800I0J-51000D01*
G01*
X147304600Y-72111800D01*
G75*
G02*
X147253600Y-72162800I-51000J0D01*
G01*
X145953600Y-72162800D01*
G75*
G02*
X145902600Y-72111800I0J51000D01*
G01*
G37*
G36*
G01*
X132552600Y-73011800D02*
X132552600Y-70211800D01*
G75*
G02*
X132603600Y-70160800I51000J0D01*
G01*
X133603600Y-70160800D01*
G75*
G02*
X133654600Y-70211800I0J-51000D01*
G01*
X133654600Y-73011800D01*
G75*
G02*
X133603600Y-73062800I-51000J0D01*
G01*
X132603600Y-73062800D01*
G75*
G02*
X132552600Y-73011800I0J51000D01*
G01*
G37*
G36*
G01*
X132552600Y-76161800D02*
X132552600Y-75361800D01*
G75*
G02*
X132603600Y-75310800I51000J0D01*
G01*
X133603600Y-75310800D01*
G75*
G02*
X133654600Y-75361800I0J-51000D01*
G01*
X133654600Y-76161800D01*
G75*
G02*
X133603600Y-76212800I-51000J0D01*
G01*
X132603600Y-76212800D01*
G75*
G02*
X132552600Y-76161800I0J51000D01*
G01*
G37*
G36*
G01*
X132552600Y-82561800D02*
X132552600Y-81361800D01*
G75*
G02*
X132603600Y-81310800I51000J0D01*
G01*
X133603600Y-81310800D01*
G75*
G02*
X133654600Y-81361800I0J-51000D01*
G01*
X133654600Y-82561800D01*
G75*
G02*
X133603600Y-82612800I-51000J0D01*
G01*
X132603600Y-82612800D01*
G75*
G02*
X132552600Y-82561800I0J51000D01*
G01*
G37*
G36*
G01*
X143702600Y-86861800D02*
X143702600Y-85661800D01*
G75*
G02*
X143753600Y-85610800I51000J0D01*
G01*
X144753600Y-85610800D01*
G75*
G02*
X144804600Y-85661800I0J-51000D01*
G01*
X144804600Y-86861800D01*
G75*
G02*
X144753600Y-86912800I-51000J0D01*
G01*
X143753600Y-86912800D01*
G75*
G02*
X143702600Y-86861800I0J51000D01*
G01*
G37*
G36*
G01*
X135702600Y-86861801D02*
X135702600Y-85661799D01*
G75*
G02*
X135753599Y-85610800I50999J0D01*
G01*
X136453601Y-85610800D01*
G75*
G02*
X136504600Y-85661799I0J-50999D01*
G01*
X136504600Y-86861801D01*
G75*
G02*
X136453601Y-86912800I-50999J0D01*
G01*
X135753599Y-86912800D01*
G75*
G02*
X135702600Y-86861801I0J50999D01*
G01*
G37*
G36*
G01*
X136802600Y-86861801D02*
X136802600Y-85661799D01*
G75*
G02*
X136853599Y-85610800I50999J0D01*
G01*
X137553601Y-85610800D01*
G75*
G02*
X137604600Y-85661799I0J-50999D01*
G01*
X137604600Y-86861801D01*
G75*
G02*
X137553601Y-86912800I-50999J0D01*
G01*
X136853599Y-86912800D01*
G75*
G02*
X136802600Y-86861801I0J50999D01*
G01*
G37*
G36*
G01*
X137902600Y-86861801D02*
X137902600Y-85661799D01*
G75*
G02*
X137953599Y-85610800I50999J0D01*
G01*
X138653601Y-85610800D01*
G75*
G02*
X138704600Y-85661799I0J-50999D01*
G01*
X138704600Y-86861801D01*
G75*
G02*
X138653601Y-86912800I-50999J0D01*
G01*
X137953599Y-86912800D01*
G75*
G02*
X137902600Y-86861801I0J50999D01*
G01*
G37*
G36*
G01*
X139002600Y-86861801D02*
X139002600Y-85661799D01*
G75*
G02*
X139053599Y-85610800I50999J0D01*
G01*
X139753601Y-85610800D01*
G75*
G02*
X139804600Y-85661799I0J-50999D01*
G01*
X139804600Y-86861801D01*
G75*
G02*
X139753601Y-86912800I-50999J0D01*
G01*
X139053599Y-86912800D01*
G75*
G02*
X139002600Y-86861801I0J50999D01*
G01*
G37*
G36*
G01*
X140102600Y-86861801D02*
X140102600Y-85661799D01*
G75*
G02*
X140153599Y-85610800I50999J0D01*
G01*
X140853601Y-85610800D01*
G75*
G02*
X140904600Y-85661799I0J-50999D01*
G01*
X140904600Y-86861801D01*
G75*
G02*
X140853601Y-86912800I-50999J0D01*
G01*
X140153599Y-86912800D01*
G75*
G02*
X140102600Y-86861801I0J50999D01*
G01*
G37*
G36*
G01*
X141202600Y-86861801D02*
X141202600Y-85661799D01*
G75*
G02*
X141253599Y-85610800I50999J0D01*
G01*
X141953601Y-85610800D01*
G75*
G02*
X142004600Y-85661799I0J-50999D01*
G01*
X142004600Y-86861801D01*
G75*
G02*
X141953601Y-86912800I-50999J0D01*
G01*
X141253599Y-86912800D01*
G75*
G02*
X141202600Y-86861801I0J50999D01*
G01*
G37*
G36*
G01*
X142302600Y-86861801D02*
X142302600Y-85661799D01*
G75*
G02*
X142353599Y-85610800I50999J0D01*
G01*
X143053601Y-85610800D01*
G75*
G02*
X143104600Y-85661799I0J-50999D01*
G01*
X143104600Y-86861801D01*
G75*
G02*
X143053601Y-86912800I-50999J0D01*
G01*
X142353599Y-86912800D01*
G75*
G02*
X142302600Y-86861801I0J50999D01*
G01*
G37*
G36*
G01*
X134602600Y-86861801D02*
X134602600Y-85661799D01*
G75*
G02*
X134653599Y-85610800I50999J0D01*
G01*
X135353601Y-85610800D01*
G75*
G02*
X135404600Y-85661799I0J-50999D01*
G01*
X135404600Y-86861801D01*
G75*
G02*
X135353601Y-86912800I-50999J0D01*
G01*
X134653599Y-86912800D01*
G75*
G02*
X134602600Y-86861801I0J50999D01*
G01*
G37*
G36*
G01*
X133652600Y-86861801D02*
X133652600Y-85661799D01*
G75*
G02*
X133703599Y-85610800I50999J0D01*
G01*
X134403601Y-85610800D01*
G75*
G02*
X134454600Y-85661799I0J-50999D01*
G01*
X134454600Y-86861801D01*
G75*
G02*
X134403601Y-86912800I-50999J0D01*
G01*
X133703599Y-86912800D01*
G75*
G02*
X133652600Y-86861801I0J50999D01*
G01*
G37*
X151367300Y-152158700D03*
X151367300Y-149618700D03*
X151367300Y-147078700D03*
X151367300Y-144538700D03*
X151367300Y-141998700D03*
X151367300Y-139458700D03*
X151367300Y-136918700D03*
X151367300Y-134378700D03*
X151367300Y-131838700D03*
X151367300Y-129298700D03*
X151367300Y-126758700D03*
X151367300Y-124218700D03*
X151367300Y-121678700D03*
X151367300Y-119138700D03*
X151367300Y-116598700D03*
X151367300Y-114058700D03*
X151367300Y-111518700D03*
X151367300Y-108978700D03*
X151367300Y-106438700D03*
X151367300Y-103898700D03*
X151367300Y-101358700D03*
X151367300Y-98818700D03*
X151367300Y-96278700D03*
X151367300Y-93738700D03*
X151367300Y-91198700D03*
X151367300Y-88658700D03*
X151367300Y-86118700D03*
X151367300Y-83578700D03*
X151367300Y-81038700D03*
X151367300Y-78498700D03*
X151367300Y-75958700D03*
G36*
G01*
X152268300Y-72568700D02*
X152268300Y-74268700D01*
G75*
G02*
X152217300Y-74319700I-51000J0D01*
G01*
X150517300Y-74319700D01*
G75*
G02*
X150466300Y-74268700I0J51000D01*
G01*
X150466300Y-72568700D01*
G75*
G02*
X150517300Y-72517700I51000J0D01*
G01*
X152217300Y-72517700D01*
G75*
G02*
X152268300Y-72568700I0J-51000D01*
G01*
G37*
X128507300Y-152158700D03*
X128507300Y-149618700D03*
X128507300Y-147078700D03*
X128507300Y-144538700D03*
X128507300Y-141998700D03*
X128507300Y-139458700D03*
X128507300Y-136918700D03*
X128507300Y-134378700D03*
X128507300Y-131838700D03*
X128507300Y-129298700D03*
X128507300Y-126758700D03*
X128507300Y-124218700D03*
X128507300Y-121678700D03*
X128507300Y-119138700D03*
X128507300Y-116598700D03*
X128507300Y-114058700D03*
X128507300Y-111518700D03*
X128507300Y-108978700D03*
X128507300Y-106438700D03*
X128507300Y-103898700D03*
X128507300Y-101358700D03*
X128507300Y-98818700D03*
X128507300Y-96278700D03*
X128507300Y-93738700D03*
X128507300Y-91198700D03*
X128507300Y-88658700D03*
X128507300Y-86118700D03*
X128507300Y-83578700D03*
X128507300Y-81038700D03*
X128507300Y-78498700D03*
X128507300Y-75958700D03*
G36*
G01*
X129408300Y-72568700D02*
X129408300Y-74268700D01*
G75*
G02*
X129357300Y-74319700I-51000J0D01*
G01*
X127657300Y-74319700D01*
G75*
G02*
X127606300Y-74268700I0J51000D01*
G01*
X127606300Y-72568700D01*
G75*
G02*
X127657300Y-72517700I51000J0D01*
G01*
X129357300Y-72517700D01*
G75*
G02*
X129408300Y-72568700I0J-51000D01*
G01*
G37*
X155041600Y-89992200D03*
G36*
G01*
X155942600Y-91682200D02*
X155942600Y-93382200D01*
G75*
G02*
X155891600Y-93433200I-51000J0D01*
G01*
X154191600Y-93433200D01*
G75*
G02*
X154140600Y-93382200I0J51000D01*
G01*
X154140600Y-91682200D01*
G75*
G02*
X154191600Y-91631200I51000J0D01*
G01*
X155891600Y-91631200D01*
G75*
G02*
X155942600Y-91682200I0J-51000D01*
G01*
G37*
G36*
G01*
X133443901Y-143148300D02*
X132793899Y-143148300D01*
G75*
G02*
X132742900Y-143097301I0J50999D01*
G01*
X132742900Y-142037299D01*
G75*
G02*
X132793899Y-141986300I50999J0D01*
G01*
X133443901Y-141986300D01*
G75*
G02*
X133494900Y-142037299I0J-50999D01*
G01*
X133494900Y-143097301D01*
G75*
G02*
X133443901Y-143148300I-50999J0D01*
G01*
G37*
G36*
G01*
X131543901Y-143148300D02*
X130893899Y-143148300D01*
G75*
G02*
X130842900Y-143097301I0J50999D01*
G01*
X130842900Y-142037299D01*
G75*
G02*
X130893899Y-141986300I50999J0D01*
G01*
X131543901Y-141986300D01*
G75*
G02*
X131594900Y-142037299I0J-50999D01*
G01*
X131594900Y-143097301D01*
G75*
G02*
X131543901Y-143148300I-50999J0D01*
G01*
G37*
G36*
G01*
X131543901Y-145348300D02*
X130893899Y-145348300D01*
G75*
G02*
X130842900Y-145297301I0J50999D01*
G01*
X130842900Y-144237299D01*
G75*
G02*
X130893899Y-144186300I50999J0D01*
G01*
X131543901Y-144186300D01*
G75*
G02*
X131594900Y-144237299I0J-50999D01*
G01*
X131594900Y-145297301D01*
G75*
G02*
X131543901Y-145348300I-50999J0D01*
G01*
G37*
G36*
G01*
X132493901Y-145348300D02*
X131843899Y-145348300D01*
G75*
G02*
X131792900Y-145297301I0J50999D01*
G01*
X131792900Y-144237299D01*
G75*
G02*
X131843899Y-144186300I50999J0D01*
G01*
X132493901Y-144186300D01*
G75*
G02*
X132544900Y-144237299I0J-50999D01*
G01*
X132544900Y-145297301D01*
G75*
G02*
X132493901Y-145348300I-50999J0D01*
G01*
G37*
G36*
G01*
X133443901Y-145348300D02*
X132793899Y-145348300D01*
G75*
G02*
X132742900Y-145297301I0J50999D01*
G01*
X132742900Y-144237299D01*
G75*
G02*
X132793899Y-144186300I50999J0D01*
G01*
X133443901Y-144186300D01*
G75*
G02*
X133494900Y-144237299I0J-50999D01*
G01*
X133494900Y-145297301D01*
G75*
G02*
X133443901Y-145348300I-50999J0D01*
G01*
G37*
G36*
G01*
X141234400Y-89760300D02*
X141234400Y-90210300D01*
G75*
G02*
X141183400Y-90261300I-51000J0D01*
G01*
X139733400Y-90261300D01*
G75*
G02*
X139682400Y-90210300I0J51000D01*
G01*
X139682400Y-89760300D01*
G75*
G02*
X139733400Y-89709300I51000J0D01*
G01*
X141183400Y-89709300D01*
G75*
G02*
X141234400Y-89760300I0J-51000D01*
G01*
G37*
G36*
G01*
X141234400Y-90410300D02*
X141234400Y-90860300D01*
G75*
G02*
X141183400Y-90911300I-51000J0D01*
G01*
X139733400Y-90911300D01*
G75*
G02*
X139682400Y-90860300I0J51000D01*
G01*
X139682400Y-90410300D01*
G75*
G02*
X139733400Y-90359300I51000J0D01*
G01*
X141183400Y-90359300D01*
G75*
G02*
X141234400Y-90410300I0J-51000D01*
G01*
G37*
G36*
G01*
X141234400Y-91060300D02*
X141234400Y-91510300D01*
G75*
G02*
X141183400Y-91561300I-51000J0D01*
G01*
X139733400Y-91561300D01*
G75*
G02*
X139682400Y-91510300I0J51000D01*
G01*
X139682400Y-91060300D01*
G75*
G02*
X139733400Y-91009300I51000J0D01*
G01*
X141183400Y-91009300D01*
G75*
G02*
X141234400Y-91060300I0J-51000D01*
G01*
G37*
G36*
G01*
X141234400Y-91710300D02*
X141234400Y-92160300D01*
G75*
G02*
X141183400Y-92211300I-51000J0D01*
G01*
X139733400Y-92211300D01*
G75*
G02*
X139682400Y-92160300I0J51000D01*
G01*
X139682400Y-91710300D01*
G75*
G02*
X139733400Y-91659300I51000J0D01*
G01*
X141183400Y-91659300D01*
G75*
G02*
X141234400Y-91710300I0J-51000D01*
G01*
G37*
G36*
G01*
X141234400Y-92360300D02*
X141234400Y-92810300D01*
G75*
G02*
X141183400Y-92861300I-51000J0D01*
G01*
X139733400Y-92861300D01*
G75*
G02*
X139682400Y-92810300I0J51000D01*
G01*
X139682400Y-92360300D01*
G75*
G02*
X139733400Y-92309300I51000J0D01*
G01*
X141183400Y-92309300D01*
G75*
G02*
X141234400Y-92360300I0J-51000D01*
G01*
G37*
G36*
G01*
X141234400Y-93010300D02*
X141234400Y-93460300D01*
G75*
G02*
X141183400Y-93511300I-51000J0D01*
G01*
X139733400Y-93511300D01*
G75*
G02*
X139682400Y-93460300I0J51000D01*
G01*
X139682400Y-93010300D01*
G75*
G02*
X139733400Y-92959300I51000J0D01*
G01*
X141183400Y-92959300D01*
G75*
G02*
X141234400Y-93010300I0J-51000D01*
G01*
G37*
G36*
G01*
X141234400Y-93660300D02*
X141234400Y-94110300D01*
G75*
G02*
X141183400Y-94161300I-51000J0D01*
G01*
X139733400Y-94161300D01*
G75*
G02*
X139682400Y-94110300I0J51000D01*
G01*
X139682400Y-93660300D01*
G75*
G02*
X139733400Y-93609300I51000J0D01*
G01*
X141183400Y-93609300D01*
G75*
G02*
X141234400Y-93660300I0J-51000D01*
G01*
G37*
G36*
G01*
X147134400Y-93660300D02*
X147134400Y-94110300D01*
G75*
G02*
X147083400Y-94161300I-51000J0D01*
G01*
X145633400Y-94161300D01*
G75*
G02*
X145582400Y-94110300I0J51000D01*
G01*
X145582400Y-93660300D01*
G75*
G02*
X145633400Y-93609300I51000J0D01*
G01*
X147083400Y-93609300D01*
G75*
G02*
X147134400Y-93660300I0J-51000D01*
G01*
G37*
G36*
G01*
X147134400Y-93010300D02*
X147134400Y-93460300D01*
G75*
G02*
X147083400Y-93511300I-51000J0D01*
G01*
X145633400Y-93511300D01*
G75*
G02*
X145582400Y-93460300I0J51000D01*
G01*
X145582400Y-93010300D01*
G75*
G02*
X145633400Y-92959300I51000J0D01*
G01*
X147083400Y-92959300D01*
G75*
G02*
X147134400Y-93010300I0J-51000D01*
G01*
G37*
G36*
G01*
X147134400Y-92360300D02*
X147134400Y-92810300D01*
G75*
G02*
X147083400Y-92861300I-51000J0D01*
G01*
X145633400Y-92861300D01*
G75*
G02*
X145582400Y-92810300I0J51000D01*
G01*
X145582400Y-92360300D01*
G75*
G02*
X145633400Y-92309300I51000J0D01*
G01*
X147083400Y-92309300D01*
G75*
G02*
X147134400Y-92360300I0J-51000D01*
G01*
G37*
G36*
G01*
X147134400Y-91710300D02*
X147134400Y-92160300D01*
G75*
G02*
X147083400Y-92211300I-51000J0D01*
G01*
X145633400Y-92211300D01*
G75*
G02*
X145582400Y-92160300I0J51000D01*
G01*
X145582400Y-91710300D01*
G75*
G02*
X145633400Y-91659300I51000J0D01*
G01*
X147083400Y-91659300D01*
G75*
G02*
X147134400Y-91710300I0J-51000D01*
G01*
G37*
G36*
G01*
X147134400Y-91060300D02*
X147134400Y-91510300D01*
G75*
G02*
X147083400Y-91561300I-51000J0D01*
G01*
X145633400Y-91561300D01*
G75*
G02*
X145582400Y-91510300I0J51000D01*
G01*
X145582400Y-91060300D01*
G75*
G02*
X145633400Y-91009300I51000J0D01*
G01*
X147083400Y-91009300D01*
G75*
G02*
X147134400Y-91060300I0J-51000D01*
G01*
G37*
G36*
G01*
X147134400Y-90410300D02*
X147134400Y-90860300D01*
G75*
G02*
X147083400Y-90911300I-51000J0D01*
G01*
X145633400Y-90911300D01*
G75*
G02*
X145582400Y-90860300I0J51000D01*
G01*
X145582400Y-90410300D01*
G75*
G02*
X145633400Y-90359300I51000J0D01*
G01*
X147083400Y-90359300D01*
G75*
G02*
X147134400Y-90410300I0J-51000D01*
G01*
G37*
G36*
G01*
X147134400Y-89760300D02*
X147134400Y-90210300D01*
G75*
G02*
X147083400Y-90261300I-51000J0D01*
G01*
X145633400Y-90261300D01*
G75*
G02*
X145582400Y-90210300I0J51000D01*
G01*
X145582400Y-89760300D01*
G75*
G02*
X145633400Y-89709300I51000J0D01*
G01*
X147083400Y-89709300D01*
G75*
G02*
X147134400Y-89760300I0J-51000D01*
G01*
G37*
G36*
G01*
X148117750Y-91446800D02*
X148681250Y-91446800D01*
G75*
G02*
X148925500Y-91691050I0J-244250D01*
G01*
X148925500Y-92179550D01*
G75*
G02*
X148681250Y-92423800I-244250J0D01*
G01*
X148117750Y-92423800D01*
G75*
G02*
X147873500Y-92179550I0J244250D01*
G01*
X147873500Y-91691050D01*
G75*
G02*
X148117750Y-91446800I244250J0D01*
G01*
G37*
G36*
G01*
X148117750Y-89871800D02*
X148681250Y-89871800D01*
G75*
G02*
X148925500Y-90116050I0J-244250D01*
G01*
X148925500Y-90604550D01*
G75*
G02*
X148681250Y-90848800I-244250J0D01*
G01*
X148117750Y-90848800D01*
G75*
G02*
X147873500Y-90604550I0J244250D01*
G01*
X147873500Y-90116050D01*
G75*
G02*
X148117750Y-89871800I244250J0D01*
G01*
G37*
G36*
G01*
X148485000Y-116345600D02*
X144885000Y-116345600D01*
G75*
G02*
X144834000Y-116294600I0J51000D01*
G01*
X144834000Y-114794600D01*
G75*
G02*
X144885000Y-114743600I51000J0D01*
G01*
X148485000Y-114743600D01*
G75*
G02*
X148536000Y-114794600I0J-51000D01*
G01*
X148536000Y-116294600D01*
G75*
G02*
X148485000Y-116345600I-51000J0D01*
G01*
G37*
G36*
G01*
X148485000Y-119395600D02*
X144885000Y-119395600D01*
G75*
G02*
X144834000Y-119344600I0J51000D01*
G01*
X144834000Y-117844600D01*
G75*
G02*
X144885000Y-117793600I51000J0D01*
G01*
X148485000Y-117793600D01*
G75*
G02*
X148536000Y-117844600I0J-51000D01*
G01*
X148536000Y-119344600D01*
G75*
G02*
X148485000Y-119395600I-51000J0D01*
G01*
G37*
X155092400Y-121793000D03*
X155092400Y-119253000D03*
X155092400Y-116713000D03*
X155092400Y-114173000D03*
X155092400Y-111633000D03*
X155092400Y-109093000D03*
X155092400Y-106553000D03*
G36*
G01*
X154191400Y-104863000D02*
X154191400Y-103163000D01*
G75*
G02*
X154242400Y-103112000I51000J0D01*
G01*
X155942400Y-103112000D01*
G75*
G02*
X155993400Y-103163000I0J-51000D01*
G01*
X155993400Y-104863000D01*
G75*
G02*
X155942400Y-104914000I-51000J0D01*
G01*
X154242400Y-104914000D01*
G75*
G02*
X154191400Y-104863000I0J51000D01*
G01*
G37*
M02*
