M48
; DRILL file {KiCad (5.1.12)-1} date 05/19/22 15:13:19
; FORMAT={-:-/ absolute / metric / decimal}
; #@! TF.CreationDate,2022-05-19T15:13:19-07:00
; #@! TF.GenerationSoftware,Kicad,Pcbnew,(5.1.12)-1
; #@! TF.FileFunction,Plated,1,4,PTH
FMAT,2
METRIC
T1C0.250
T2C0.400
T3C1.000
%
G90
G05
T1
X127.114Y-81.547
X130.897Y-95.299
X131.204Y-79.172
X131.394Y-124.181
X131.483Y-126.886
X131.864Y-103.784
X132.677Y-90.602
X132.715Y-89.929
X132.766Y-93.429
X132.791Y-91.479
X133.134Y-125.082
X133.655Y-113.17
X133.769Y-135.014
X133.934Y-92.773
X134.163Y-113.843
X134.226Y-95.783
X134.239Y-82.906
X134.328Y-117.589
X134.696Y-106.439
X134.81Y-99.276
X134.836Y-113.627
X135.42Y-110.96
X135.471Y-110.338
X135.506Y-106.08
X135.534Y-109.753
X135.56Y-109.106
X135.683Y-108.535
X135.727Y-111.448
X135.792Y-143.967
X135.904Y-142.759
X135.928Y-91.897
X135.953Y-92.545
X136.013Y-90.157
X136.5Y-84.709
X136.538Y-114.986
X136.563Y-139.852
X136.633Y-143.715
X136.665Y-132.423
X136.677Y-145.517
X136.703Y-144.903
X136.715Y-107.201
X136.736Y-144.283
X136.843Y-138.9
X136.855Y-126.39
X137.094Y-143.361
X137.122Y-115.583
X137.211Y-106.667
X137.274Y-137.643
X137.35Y-132.398
X137.592Y-143.07
X138.024Y-106.46
X138.087Y-145.478
X138.092Y-132.458
X138.557Y-95.872
X138.668Y-132.5
X138.684Y-106.502
X138.748Y-112.319
X138.811Y-89.992
X138.811Y-103.099
X138.862Y-145.466
X139.129Y-138.112
X139.268Y-103.416
X139.268Y-132.512
X139.395Y-84.658
X139.421Y-106.413
X139.433Y-115.735
X139.548Y-145.542
X140.005Y-145.936
X140.017Y-128.753
X140.119Y-106.324
X140.322Y-96.047
X140.335Y-115.481
X140.348Y-102.311
X140.373Y-132.448
X140.462Y-133.921
X140.576Y-145.758
X140.718Y-106.234
X140.754Y-112.56
X140.854Y-106.795
X140.912Y-115.467
X140.995Y-74.498
X141.072Y-76.441
X141.084Y-95.618
X141.097Y-72.619
X141.337Y-73.446
X141.453Y-142.345
X141.491Y-127.343
X141.707Y-111.392
X141.749Y-106.139
X141.846Y-92.57
X141.897Y-145.742
X142.024Y-141.897
X142.126Y-90.868
X142.354Y-106.743
X142.799Y-92.596
X142.824Y-106.401
X142.985Y-120.752
X143.167Y-132.22
X143.314Y-73.622
X143.32Y-106.705
X143.825Y-106.299
X143.882Y-107.912
X143.954Y-72.746
X144.043Y-102.845
X144.247Y-73.876
X144.259Y-141.135
X144.367Y-113.011
X144.367Y-112.424
X144.371Y-113.592
X144.374Y-139.103
X144.401Y-106.326
X144.412Y-111.849
X144.441Y-116.218
X144.454Y-117.742
X144.716Y-90.818
X144.729Y-123.943
X144.755Y-122.949
X144.786Y-108.613
X144.79Y-126.389
X144.793Y-126.98
X144.805Y-125.501
X144.945Y-93.256
X144.978Y-106.345
X145.3Y-110.782
X145.339Y-113.75
X145.402Y-133.693
X145.478Y-106.058
X145.923Y-110.973
X146.266Y-117.005
X146.393Y-89.052
X146.685Y-118.595
X147.269Y-106.058
X147.358Y-100.8
X147.371Y-107.01
X147.409Y-134.404
X147.422Y-122.428
X147.422Y-127.965
X147.447Y-125.451
X147.511Y-124.168
X147.739Y-102.933
X147.917Y-110.503
X148.113Y-122.359
X148.113Y-126.015
X148.129Y-105.677
X148.272Y-93.345
X148.412Y-89.116
X148.45Y-103.645
X148.666Y-104.521
X148.704Y-85.966
X149.123Y-101.74
X149.161Y-105.372
X149.187Y-114.859
X149.568Y-106.337
X149.619Y-100.52
X152.311Y-120.472
X152.375Y-122.999
X153.683Y-115.849
X155.727Y-115.506
X155.791Y-110.249
T2
X130.848Y-130.34
X131.255Y-149.885
X132.27Y-138.024
T3
X124.803Y-129.591
X124.803Y-132.131
X124.803Y-134.671
X124.803Y-137.211
X124.803Y-139.751
X124.803Y-142.291
X124.892Y-94.78
X128.507Y-73.419
X128.507Y-75.959
X128.507Y-78.499
X128.507Y-81.039
X128.507Y-83.579
X128.507Y-86.119
X128.507Y-88.659
X128.507Y-91.199
X128.507Y-93.739
X128.507Y-96.279
X128.507Y-98.819
X128.507Y-101.359
X128.507Y-103.899
X128.507Y-106.439
X128.507Y-108.979
X128.507Y-111.519
X128.507Y-114.059
X128.507Y-116.599
X128.507Y-119.139
X128.507Y-121.679
X128.507Y-124.219
X128.507Y-126.759
X128.507Y-129.299
X128.507Y-131.839
X128.507Y-134.379
X128.507Y-136.919
X128.507Y-139.459
X128.507Y-141.999
X128.507Y-144.539
X128.507Y-147.079
X128.507Y-149.619
X128.507Y-152.159
X134.912Y-151.854
X134.912Y-154.394
X137.452Y-151.854
X137.452Y-154.394
X139.992Y-151.854
X139.992Y-154.394
X142.532Y-151.854
X142.532Y-154.394
X145.072Y-151.854
X145.072Y-154.394
X151.367Y-73.419
X151.367Y-75.959
X151.367Y-78.499
X151.367Y-81.039
X151.367Y-83.579
X151.367Y-86.119
X151.367Y-88.659
X151.367Y-91.199
X151.367Y-93.739
X151.367Y-96.279
X151.367Y-98.819
X151.367Y-101.359
X151.367Y-103.899
X151.367Y-106.439
X151.367Y-108.979
X151.367Y-111.519
X151.367Y-114.059
X151.367Y-116.599
X151.367Y-119.139
X151.367Y-121.679
X151.367Y-124.219
X151.367Y-126.759
X151.367Y-129.299
X151.367Y-131.839
X151.367Y-134.379
X151.367Y-136.919
X151.367Y-139.459
X151.367Y-141.999
X151.367Y-144.539
X151.367Y-147.079
X151.367Y-149.619
X151.367Y-152.159
X155.042Y-89.992
X155.042Y-92.532
X155.092Y-104.013
X155.092Y-106.553
X155.092Y-109.093
X155.092Y-111.633
X155.092Y-114.173
X155.092Y-116.713
X155.092Y-119.253
X155.092Y-121.793
T0
M30
