M48
; DRILL file {KiCad (5.1.12)-1} date 08/10/22 22:12:21
; FORMAT={-:-/ absolute / metric / decimal}
; #@! TF.CreationDate,2022-08-10T22:12:21-07:00
; #@! TF.GenerationSoftware,Kicad,Pcbnew,(5.1.12)-1
; #@! TF.FileFunction,Plated,1,2,PTH
FMAT,2
METRIC
T1C0.400
T2C0.650
T3C0.700
T4C1.000
%
G90
G05
T1
X158.637Y-111.862
X161.417Y-110.312
X166.395Y-111.582
T2
X159.944Y-114.833
X159.944Y-116.103
X161.214Y-114.833
X161.214Y-116.103
X162.484Y-114.833
X162.484Y-116.103
X163.754Y-114.833
X163.754Y-116.103
X165.024Y-114.833
X165.024Y-116.103
T3
X177.775Y-95.123
X177.775Y-96.393
X177.775Y-97.663
X177.775Y-98.933
X177.775Y-100.203
X177.775Y-101.473
X177.775Y-102.743
X177.775Y-104.013
T4
X148.107Y-90.627
X148.107Y-93.167
X148.107Y-95.707
X148.107Y-98.247
X148.107Y-100.787
X148.107Y-103.327
X148.107Y-105.867
X148.107Y-108.407
X157.455Y-79.883
X157.455Y-82.423
X159.995Y-79.883
X159.995Y-82.423
X162.535Y-79.883
X162.535Y-82.423
X165.075Y-79.883
X165.075Y-82.423
X167.615Y-79.883
X167.615Y-82.423
T0
M30
