%TF.GenerationSoftware,KiCad,Pcbnew,(5.1.12)-1*%
%TF.CreationDate,2022-08-10T22:12:13-07:00*%
%TF.ProjectId,JTAGAdapter,4a544147-4164-4617-9074-65722e6b6963,rev?*%
%TF.SameCoordinates,Original*%
%TF.FileFunction,Copper,L1,Top*%
%TF.FilePolarity,Positive*%
%FSLAX46Y46*%
G04 Gerber Fmt 4.6, Leading zero omitted, Abs format (unit mm)*
G04 Created by KiCad (PCBNEW (5.1.12)-1) date 2022-08-10 22:12:13*
%MOMM*%
%LPD*%
G01*
G04 APERTURE LIST*
%TA.AperFunction,ComponentPad*%
%ADD10O,1.000000X1.000000*%
%TD*%
%TA.AperFunction,ComponentPad*%
%ADD11R,1.000000X1.000000*%
%TD*%
%TA.AperFunction,ComponentPad*%
%ADD12O,1.700000X1.700000*%
%TD*%
%TA.AperFunction,ComponentPad*%
%ADD13R,1.700000X1.700000*%
%TD*%
%TA.AperFunction,ViaPad*%
%ADD14C,0.800000*%
%TD*%
%TA.AperFunction,Conductor*%
%ADD15C,0.250000*%
%TD*%
G04 APERTURE END LIST*
D10*
%TO.P,J2,8*%
%TO.N,Net-(J1-Pad8)*%
X177774600Y-95123000D03*
%TO.P,J2,7*%
%TO.N,Net-(J1-Pad7)*%
X177774600Y-96393000D03*
%TO.P,J2,6*%
%TO.N,Net-(J1-Pad6)*%
X177774600Y-97663000D03*
%TO.P,J2,5*%
%TO.N,Net-(J1-Pad5)*%
X177774600Y-98933000D03*
%TO.P,J2,4*%
%TO.N,Net-(J1-Pad4)*%
X177774600Y-100203000D03*
%TO.P,J2,3*%
%TO.N,Net-(J1-Pad3)*%
X177774600Y-101473000D03*
%TO.P,J2,2*%
%TO.N,Net-(J1-Pad2)*%
X177774600Y-102743000D03*
D11*
%TO.P,J2,1*%
%TO.N,Net-(J1-Pad1)*%
X177774600Y-104013000D03*
%TD*%
D10*
%TO.P,J4,10*%
%TO.N,Net-(J3-Pad10)*%
X165023800Y-116103400D03*
%TO.P,J4,9*%
%TO.N,Net-(J3-Pad9)*%
X165023800Y-114833400D03*
%TO.P,J4,8*%
%TO.N,Net-(J3-Pad8)*%
X163753800Y-116103400D03*
%TO.P,J4,7*%
%TO.N,Net-(J3-Pad7)*%
X163753800Y-114833400D03*
%TO.P,J4,6*%
%TO.N,Net-(J3-Pad6)*%
X162483800Y-116103400D03*
%TO.P,J4,5*%
%TO.N,Net-(J3-Pad5)*%
X162483800Y-114833400D03*
%TO.P,J4,4*%
%TO.N,Net-(J3-Pad4)*%
X161213800Y-116103400D03*
%TO.P,J4,3*%
%TO.N,Net-(J3-Pad3)*%
X161213800Y-114833400D03*
%TO.P,J4,2*%
%TO.N,Net-(J3-Pad2)*%
X159943800Y-116103400D03*
D11*
%TO.P,J4,1*%
%TO.N,Net-(J3-Pad1)*%
X159943800Y-114833400D03*
%TD*%
D12*
%TO.P,J3,10*%
%TO.N,Net-(J3-Pad10)*%
X167614600Y-79883000D03*
%TO.P,J3,9*%
%TO.N,Net-(J3-Pad9)*%
X167614600Y-82423000D03*
%TO.P,J3,8*%
%TO.N,Net-(J3-Pad8)*%
X165074600Y-79883000D03*
%TO.P,J3,7*%
%TO.N,Net-(J3-Pad7)*%
X165074600Y-82423000D03*
%TO.P,J3,6*%
%TO.N,Net-(J3-Pad6)*%
X162534600Y-79883000D03*
%TO.P,J3,5*%
%TO.N,Net-(J3-Pad5)*%
X162534600Y-82423000D03*
%TO.P,J3,4*%
%TO.N,Net-(J3-Pad4)*%
X159994600Y-79883000D03*
%TO.P,J3,3*%
%TO.N,Net-(J3-Pad3)*%
X159994600Y-82423000D03*
%TO.P,J3,2*%
%TO.N,Net-(J3-Pad2)*%
X157454600Y-79883000D03*
D13*
%TO.P,J3,1*%
%TO.N,Net-(J3-Pad1)*%
X157454600Y-82423000D03*
%TD*%
D12*
%TO.P,J1,8*%
%TO.N,Net-(J1-Pad8)*%
X148107400Y-90627200D03*
%TO.P,J1,7*%
%TO.N,Net-(J1-Pad7)*%
X148107400Y-93167200D03*
%TO.P,J1,6*%
%TO.N,Net-(J1-Pad6)*%
X148107400Y-95707200D03*
%TO.P,J1,5*%
%TO.N,Net-(J1-Pad5)*%
X148107400Y-98247200D03*
%TO.P,J1,4*%
%TO.N,Net-(J1-Pad4)*%
X148107400Y-100787200D03*
%TO.P,J1,3*%
%TO.N,Net-(J1-Pad3)*%
X148107400Y-103327200D03*
%TO.P,J1,2*%
%TO.N,Net-(J1-Pad2)*%
X148107400Y-105867200D03*
D13*
%TO.P,J1,1*%
%TO.N,Net-(J1-Pad1)*%
X148107400Y-108407200D03*
%TD*%
D14*
%TO.N,Net-(J3-Pad8)*%
X166395400Y-111582200D03*
%TO.N,Net-(J3-Pad6)*%
X161417000Y-110312200D03*
%TO.N,Net-(J3-Pad4)*%
X158636810Y-111861600D03*
%TD*%
D15*
%TO.N,Net-(J1-Pad8)*%
X152603200Y-95123000D02*
X177774600Y-95123000D01*
X148107400Y-90627200D02*
X152603200Y-95123000D01*
%TO.N,Net-(J1-Pad7)*%
X151333200Y-96393000D02*
X177774600Y-96393000D01*
X148107400Y-93167200D02*
X151333200Y-96393000D01*
%TO.N,Net-(J1-Pad6)*%
X150063200Y-97663000D02*
X177774600Y-97663000D01*
X148107400Y-95707200D02*
X150063200Y-97663000D01*
%TO.N,Net-(J1-Pad5)*%
X148793200Y-98933000D02*
X177774600Y-98933000D01*
X148107400Y-98247200D02*
X148793200Y-98933000D01*
%TO.N,Net-(J1-Pad4)*%
X148691600Y-100203000D02*
X177774600Y-100203000D01*
X148107400Y-100787200D02*
X148691600Y-100203000D01*
%TO.N,Net-(J1-Pad3)*%
X149961600Y-101473000D02*
X177774600Y-101473000D01*
X148107400Y-103327200D02*
X149961600Y-101473000D01*
%TO.N,Net-(J1-Pad2)*%
X151231600Y-102743000D02*
X177774600Y-102743000D01*
X148107400Y-105867200D02*
X151231600Y-102743000D01*
%TO.N,Net-(J1-Pad1)*%
X152501600Y-104013000D02*
X177774600Y-104013000D01*
X148107400Y-108407200D02*
X152501600Y-104013000D01*
%TO.N,Net-(J3-Pad8)*%
X163753800Y-116382800D02*
X163753800Y-116103400D01*
X164490400Y-117119400D02*
X163753800Y-116382800D01*
X166395400Y-116357400D02*
X165633400Y-117119400D01*
X165633400Y-117119400D02*
X164490400Y-117119400D01*
X166395400Y-111582200D02*
X166395400Y-116357400D01*
%TO.N,Net-(J3-Pad6)*%
X157911800Y-116282610D02*
X159351000Y-117721810D01*
X157911800Y-111474398D02*
X157911800Y-116282610D01*
X159073998Y-110312200D02*
X157911800Y-111474398D01*
X161417000Y-110312200D02*
X159073998Y-110312200D01*
X160865390Y-117721810D02*
X162483800Y-116103400D01*
X159351000Y-117721810D02*
X160865390Y-117721810D01*
%TO.N,Net-(J3-Pad4)*%
X158636810Y-116371210D02*
X158636810Y-111861600D01*
X159537400Y-117271800D02*
X158636810Y-116371210D01*
X160223200Y-117271800D02*
X159537400Y-117271800D01*
X161213800Y-116281200D02*
X160223200Y-117271800D01*
X161213800Y-116103400D02*
X161213800Y-116281200D01*
%TD*%
M02*
