%TF.GenerationSoftware,KiCad,Pcbnew,(5.1.12)-1*%
%TF.CreationDate,2022-08-10T22:12:13-07:00*%
%TF.ProjectId,JTAGAdapter,4a544147-4164-4617-9074-65722e6b6963,rev?*%
%TF.SameCoordinates,Original*%
%TF.FileFunction,Legend,Top*%
%TF.FilePolarity,Positive*%
%FSLAX46Y46*%
G04 Gerber Fmt 4.6, Leading zero omitted, Abs format (unit mm)*
G04 Created by KiCad (PCBNEW (5.1.12)-1) date 2022-08-10 22:12:13*
%MOMM*%
%LPD*%
G01*
G04 APERTURE LIST*
%ADD10C,0.120000*%
%ADD11C,0.150000*%
%ADD12O,1.000000X1.000000*%
%ADD13R,1.000000X1.000000*%
%ADD14O,1.700000X1.700000*%
%ADD15R,1.700000X1.700000*%
G04 APERTURE END LIST*
D10*
%TO.C,J2*%
X177774600Y-104773000D02*
X176444600Y-104773000D01*
X176444600Y-104773000D02*
X176444600Y-104013000D01*
X176444600Y-103378000D02*
X176444600Y-94428000D01*
X177467070Y-94428000D02*
X176444600Y-94428000D01*
X179104600Y-94428000D02*
X178082130Y-94428000D01*
X179104600Y-103378000D02*
X179104600Y-94428000D01*
X177014600Y-103378000D02*
X176444600Y-103378000D01*
X179104600Y-103378000D02*
X178534600Y-103378000D01*
%TO.C,J4*%
X159183800Y-114833400D02*
X159183800Y-114073400D01*
X159183800Y-114073400D02*
X159943800Y-114073400D01*
X159248800Y-120713400D02*
X165718800Y-120713400D01*
X165718800Y-120713400D02*
X165718800Y-116410930D01*
X159248800Y-120713400D02*
X159248800Y-116410930D01*
X164388800Y-120713400D02*
X164388800Y-116520982D01*
X163118800Y-120713400D02*
X163118800Y-116520982D01*
X161848800Y-120713400D02*
X161848800Y-116520982D01*
X160578800Y-120713400D02*
X160578800Y-116520982D01*
X160468800Y-120713400D02*
X160468800Y-116652923D01*
X160358800Y-120713400D02*
X160358800Y-116740091D01*
X160248800Y-120713400D02*
X160248800Y-116799514D01*
X160138800Y-120713400D02*
X160138800Y-116837958D01*
X160028800Y-120713400D02*
X160028800Y-116858632D01*
X159918800Y-120713400D02*
X159918800Y-116862989D01*
X159808800Y-120713400D02*
X159808800Y-116851314D01*
X159698800Y-120713400D02*
X159698800Y-116822827D01*
X159588800Y-120713400D02*
X159588800Y-116775393D01*
X159478800Y-120713400D02*
X159478800Y-116704545D01*
X159368800Y-120713400D02*
X159368800Y-116600366D01*
%TO.C,J3*%
X156184600Y-83693000D02*
X156184600Y-82423000D01*
X157454600Y-83693000D02*
X156184600Y-83693000D01*
X167994600Y-81380071D02*
X167994600Y-80925929D01*
X167234600Y-81380071D02*
X167234600Y-80925929D01*
X167994600Y-78840071D02*
X167994600Y-78443000D01*
X167234600Y-78840071D02*
X167234600Y-78443000D01*
X167994600Y-69783000D02*
X167994600Y-75783000D01*
X167234600Y-69783000D02*
X167994600Y-69783000D01*
X167234600Y-75783000D02*
X167234600Y-69783000D01*
X166344600Y-78443000D02*
X166344600Y-75783000D01*
X165454600Y-81380071D02*
X165454600Y-80925929D01*
X164694600Y-81380071D02*
X164694600Y-80925929D01*
X165454600Y-78840071D02*
X165454600Y-78443000D01*
X164694600Y-78840071D02*
X164694600Y-78443000D01*
X165454600Y-69783000D02*
X165454600Y-75783000D01*
X164694600Y-69783000D02*
X165454600Y-69783000D01*
X164694600Y-75783000D02*
X164694600Y-69783000D01*
X163804600Y-78443000D02*
X163804600Y-75783000D01*
X162914600Y-81380071D02*
X162914600Y-80925929D01*
X162154600Y-81380071D02*
X162154600Y-80925929D01*
X162914600Y-78840071D02*
X162914600Y-78443000D01*
X162154600Y-78840071D02*
X162154600Y-78443000D01*
X162914600Y-69783000D02*
X162914600Y-75783000D01*
X162154600Y-69783000D02*
X162914600Y-69783000D01*
X162154600Y-75783000D02*
X162154600Y-69783000D01*
X161264600Y-78443000D02*
X161264600Y-75783000D01*
X160374600Y-81380071D02*
X160374600Y-80925929D01*
X159614600Y-81380071D02*
X159614600Y-80925929D01*
X160374600Y-78840071D02*
X160374600Y-78443000D01*
X159614600Y-78840071D02*
X159614600Y-78443000D01*
X160374600Y-69783000D02*
X160374600Y-75783000D01*
X159614600Y-69783000D02*
X160374600Y-69783000D01*
X159614600Y-75783000D02*
X159614600Y-69783000D01*
X158724600Y-78443000D02*
X158724600Y-75783000D01*
X157834600Y-81313000D02*
X157834600Y-80925929D01*
X157074600Y-81313000D02*
X157074600Y-80925929D01*
X157834600Y-78840071D02*
X157834600Y-78443000D01*
X157074600Y-78840071D02*
X157074600Y-78443000D01*
X157734600Y-75783000D02*
X157734600Y-69783000D01*
X157614600Y-75783000D02*
X157614600Y-69783000D01*
X157494600Y-75783000D02*
X157494600Y-69783000D01*
X157374600Y-75783000D02*
X157374600Y-69783000D01*
X157254600Y-75783000D02*
X157254600Y-69783000D01*
X157134600Y-75783000D02*
X157134600Y-69783000D01*
X157834600Y-69783000D02*
X157834600Y-75783000D01*
X157074600Y-69783000D02*
X157834600Y-69783000D01*
X157074600Y-75783000D02*
X157074600Y-69783000D01*
X156124600Y-75783000D02*
X156124600Y-78443000D01*
X168944600Y-75783000D02*
X156124600Y-75783000D01*
X168944600Y-78443000D02*
X168944600Y-75783000D01*
X156124600Y-78443000D02*
X168944600Y-78443000D01*
%TO.C,J1*%
X149377400Y-109677200D02*
X148107400Y-109677200D01*
X149377400Y-108407200D02*
X149377400Y-109677200D01*
X147064471Y-90247200D02*
X146667400Y-90247200D01*
X147064471Y-91007200D02*
X146667400Y-91007200D01*
X138007400Y-90247200D02*
X144007400Y-90247200D01*
X138007400Y-91007200D02*
X138007400Y-90247200D01*
X144007400Y-91007200D02*
X138007400Y-91007200D01*
X146667400Y-91897200D02*
X144007400Y-91897200D01*
X147064471Y-92787200D02*
X146667400Y-92787200D01*
X147064471Y-93547200D02*
X146667400Y-93547200D01*
X138007400Y-92787200D02*
X144007400Y-92787200D01*
X138007400Y-93547200D02*
X138007400Y-92787200D01*
X144007400Y-93547200D02*
X138007400Y-93547200D01*
X146667400Y-94437200D02*
X144007400Y-94437200D01*
X147064471Y-95327200D02*
X146667400Y-95327200D01*
X147064471Y-96087200D02*
X146667400Y-96087200D01*
X138007400Y-95327200D02*
X144007400Y-95327200D01*
X138007400Y-96087200D02*
X138007400Y-95327200D01*
X144007400Y-96087200D02*
X138007400Y-96087200D01*
X146667400Y-96977200D02*
X144007400Y-96977200D01*
X147064471Y-97867200D02*
X146667400Y-97867200D01*
X147064471Y-98627200D02*
X146667400Y-98627200D01*
X138007400Y-97867200D02*
X144007400Y-97867200D01*
X138007400Y-98627200D02*
X138007400Y-97867200D01*
X144007400Y-98627200D02*
X138007400Y-98627200D01*
X146667400Y-99517200D02*
X144007400Y-99517200D01*
X147064471Y-100407200D02*
X146667400Y-100407200D01*
X147064471Y-101167200D02*
X146667400Y-101167200D01*
X138007400Y-100407200D02*
X144007400Y-100407200D01*
X138007400Y-101167200D02*
X138007400Y-100407200D01*
X144007400Y-101167200D02*
X138007400Y-101167200D01*
X146667400Y-102057200D02*
X144007400Y-102057200D01*
X147064471Y-102947200D02*
X146667400Y-102947200D01*
X147064471Y-103707200D02*
X146667400Y-103707200D01*
X138007400Y-102947200D02*
X144007400Y-102947200D01*
X138007400Y-103707200D02*
X138007400Y-102947200D01*
X144007400Y-103707200D02*
X138007400Y-103707200D01*
X146667400Y-104597200D02*
X144007400Y-104597200D01*
X147064471Y-105487200D02*
X146667400Y-105487200D01*
X147064471Y-106247200D02*
X146667400Y-106247200D01*
X138007400Y-105487200D02*
X144007400Y-105487200D01*
X138007400Y-106247200D02*
X138007400Y-105487200D01*
X144007400Y-106247200D02*
X138007400Y-106247200D01*
X146667400Y-107137200D02*
X144007400Y-107137200D01*
X146997400Y-108027200D02*
X146667400Y-108027200D01*
X146997400Y-108787200D02*
X146667400Y-108787200D01*
X144007400Y-108127200D02*
X138007400Y-108127200D01*
X144007400Y-108247200D02*
X138007400Y-108247200D01*
X144007400Y-108367200D02*
X138007400Y-108367200D01*
X144007400Y-108487200D02*
X138007400Y-108487200D01*
X144007400Y-108607200D02*
X138007400Y-108607200D01*
X144007400Y-108727200D02*
X138007400Y-108727200D01*
X138007400Y-108027200D02*
X144007400Y-108027200D01*
X138007400Y-108787200D02*
X138007400Y-108027200D01*
X144007400Y-108787200D02*
X138007400Y-108787200D01*
X144007400Y-109737200D02*
X146667400Y-109737200D01*
X144007400Y-89297200D02*
X144007400Y-109737200D01*
X146667400Y-89297200D02*
X144007400Y-89297200D01*
X146667400Y-109737200D02*
X146667400Y-89297200D01*
%TO.C,J2*%
D11*
X177441266Y-105600380D02*
X177441266Y-106314666D01*
X177393647Y-106457523D01*
X177298409Y-106552761D01*
X177155552Y-106600380D01*
X177060314Y-106600380D01*
X177869838Y-105695619D02*
X177917457Y-105648000D01*
X178012695Y-105600380D01*
X178250790Y-105600380D01*
X178346028Y-105648000D01*
X178393647Y-105695619D01*
X178441266Y-105790857D01*
X178441266Y-105886095D01*
X178393647Y-106028952D01*
X177822219Y-106600380D01*
X178441266Y-106600380D01*
%TO.C,J4*%
X157261180Y-117759233D02*
X157975466Y-117759233D01*
X158118323Y-117806852D01*
X158213561Y-117902090D01*
X158261180Y-118044947D01*
X158261180Y-118140185D01*
X157594514Y-116854471D02*
X158261180Y-116854471D01*
X157213561Y-117092566D02*
X157927847Y-117330661D01*
X157927847Y-116711614D01*
%TO.C,J3*%
X154636980Y-77101333D02*
X155351266Y-77101333D01*
X155494123Y-77148952D01*
X155589361Y-77244190D01*
X155636980Y-77387047D01*
X155636980Y-77482285D01*
X154636980Y-76720380D02*
X154636980Y-76101333D01*
X155017933Y-76434666D01*
X155017933Y-76291809D01*
X155065552Y-76196571D01*
X155113171Y-76148952D01*
X155208409Y-76101333D01*
X155446504Y-76101333D01*
X155541742Y-76148952D01*
X155589361Y-76196571D01*
X155636980Y-76291809D01*
X155636980Y-76577523D01*
X155589361Y-76672761D01*
X155541742Y-76720380D01*
%TO.C,J1*%
X143389066Y-110129580D02*
X143389066Y-110843866D01*
X143341447Y-110986723D01*
X143246209Y-111081961D01*
X143103352Y-111129580D01*
X143008114Y-111129580D01*
X144389066Y-111129580D02*
X143817638Y-111129580D01*
X144103352Y-111129580D02*
X144103352Y-110129580D01*
X144008114Y-110272438D01*
X143912876Y-110367676D01*
X143817638Y-110415295D01*
%TD*%
%LPC*%
D12*
%TO.C,J2*%
X177774600Y-95123000D03*
X177774600Y-96393000D03*
X177774600Y-97663000D03*
X177774600Y-98933000D03*
X177774600Y-100203000D03*
X177774600Y-101473000D03*
X177774600Y-102743000D03*
D13*
X177774600Y-104013000D03*
%TD*%
D12*
%TO.C,J4*%
X165023800Y-116103400D03*
X165023800Y-114833400D03*
X163753800Y-116103400D03*
X163753800Y-114833400D03*
X162483800Y-116103400D03*
X162483800Y-114833400D03*
X161213800Y-116103400D03*
X161213800Y-114833400D03*
X159943800Y-116103400D03*
D13*
X159943800Y-114833400D03*
%TD*%
D14*
%TO.C,J3*%
X167614600Y-79883000D03*
X167614600Y-82423000D03*
X165074600Y-79883000D03*
X165074600Y-82423000D03*
X162534600Y-79883000D03*
X162534600Y-82423000D03*
X159994600Y-79883000D03*
X159994600Y-82423000D03*
X157454600Y-79883000D03*
D15*
X157454600Y-82423000D03*
%TD*%
D14*
%TO.C,J1*%
X148107400Y-90627200D03*
X148107400Y-93167200D03*
X148107400Y-95707200D03*
X148107400Y-98247200D03*
X148107400Y-100787200D03*
X148107400Y-103327200D03*
X148107400Y-105867200D03*
D15*
X148107400Y-108407200D03*
%TD*%
M02*
