G04 #@! TF.GenerationSoftware,KiCad,Pcbnew,(5.1.12)-1*
G04 #@! TF.CreationDate,2022-06-02T09:48:45-07:00*
G04 #@! TF.ProjectId,vera-module-rev4,76657261-2d6d-46f6-9475-6c652d726576,rev?*
G04 #@! TF.SameCoordinates,Original*
G04 #@! TF.FileFunction,Soldermask,Bot*
G04 #@! TF.FilePolarity,Negative*
%FSLAX46Y46*%
G04 Gerber Fmt 4.6, Leading zero omitted, Abs format (unit mm)*
G04 Created by KiCad (PCBNEW (5.1.12)-1) date 2022-06-02 09:48:45*
%MOMM*%
%LPD*%
G01*
G04 APERTURE LIST*
%ADD10C,2.800000*%
%ADD11R,1.500000X1.000000*%
%ADD12O,1.700000X1.700000*%
%ADD13R,1.700000X1.700000*%
%ADD14C,2.000000*%
%ADD15R,1.000000X1.500000*%
G04 APERTURE END LIST*
D10*
X113678300Y-105442000D03*
X108178300Y-105442000D03*
X105778300Y-107442000D03*
D11*
X195211700Y-135813800D03*
X195211700Y-134513800D03*
X195211700Y-137113800D03*
D12*
X101790500Y-155867100D03*
X101790500Y-153327100D03*
X104330500Y-155867100D03*
X104330500Y-153327100D03*
X106870500Y-155867100D03*
X106870500Y-153327100D03*
X109410500Y-155867100D03*
X109410500Y-153327100D03*
X111950500Y-155867100D03*
X111950500Y-153327100D03*
X114490500Y-155867100D03*
X114490500Y-153327100D03*
X117030500Y-155867100D03*
X117030500Y-153327100D03*
X119570500Y-155867100D03*
X119570500Y-153327100D03*
X122110500Y-155867100D03*
X122110500Y-153327100D03*
X124650500Y-155867100D03*
X124650500Y-153327100D03*
X127190500Y-155867100D03*
X127190500Y-153327100D03*
X129730500Y-155867100D03*
X129730500Y-153327100D03*
X132270500Y-155867100D03*
X132270500Y-153327100D03*
X134810500Y-155867100D03*
X134810500Y-153327100D03*
X137350500Y-155867100D03*
X137350500Y-153327100D03*
X139890500Y-155867100D03*
X139890500Y-153327100D03*
X142430500Y-155867100D03*
X142430500Y-153327100D03*
X144970500Y-155867100D03*
X144970500Y-153327100D03*
X147510500Y-155867100D03*
X147510500Y-153327100D03*
X150050500Y-155867100D03*
X150050500Y-153327100D03*
X152590500Y-155867100D03*
X152590500Y-153327100D03*
X155130500Y-155867100D03*
X155130500Y-153327100D03*
X157670500Y-155867100D03*
X157670500Y-153327100D03*
X160210500Y-155867100D03*
X160210500Y-153327100D03*
X162750500Y-155867100D03*
X162750500Y-153327100D03*
X165290500Y-155867100D03*
X165290500Y-153327100D03*
X167830500Y-155867100D03*
X167830500Y-153327100D03*
X170370500Y-155867100D03*
X170370500Y-153327100D03*
X172910500Y-155867100D03*
X172910500Y-153327100D03*
X175450500Y-155867100D03*
D13*
X175450500Y-153327100D03*
D12*
X156210000Y-113042700D03*
X153670000Y-113042700D03*
X151130000Y-113042700D03*
X148590000Y-113042700D03*
X146050000Y-113042700D03*
X143510000Y-113042700D03*
X140970000Y-113042700D03*
D13*
X138430000Y-113042700D03*
D12*
X110578900Y-119367300D03*
D13*
X110578900Y-121907300D03*
D14*
X197387800Y-139930000D03*
X197387800Y-124230000D03*
X192437800Y-139330000D03*
X192437800Y-124830000D03*
G36*
G01*
X180750200Y-105490200D02*
X181225200Y-105490200D01*
G75*
G02*
X181462700Y-105727700I0J-237500D01*
G01*
X181462700Y-106227700D01*
G75*
G02*
X181225200Y-106465200I-237500J0D01*
G01*
X180750200Y-106465200D01*
G75*
G02*
X180512700Y-106227700I0J237500D01*
G01*
X180512700Y-105727700D01*
G75*
G02*
X180750200Y-105490200I237500J0D01*
G01*
G37*
G36*
G01*
X180750200Y-103665200D02*
X181225200Y-103665200D01*
G75*
G02*
X181462700Y-103902700I0J-237500D01*
G01*
X181462700Y-104402700D01*
G75*
G02*
X181225200Y-104640200I-237500J0D01*
G01*
X180750200Y-104640200D01*
G75*
G02*
X180512700Y-104402700I0J237500D01*
G01*
X180512700Y-103902700D01*
G75*
G02*
X180750200Y-103665200I237500J0D01*
G01*
G37*
G36*
G01*
X188230500Y-105492100D02*
X188705500Y-105492100D01*
G75*
G02*
X188943000Y-105729600I0J-237500D01*
G01*
X188943000Y-106229600D01*
G75*
G02*
X188705500Y-106467100I-237500J0D01*
G01*
X188230500Y-106467100D01*
G75*
G02*
X187993000Y-106229600I0J237500D01*
G01*
X187993000Y-105729600D01*
G75*
G02*
X188230500Y-105492100I237500J0D01*
G01*
G37*
G36*
G01*
X188230500Y-103667100D02*
X188705500Y-103667100D01*
G75*
G02*
X188943000Y-103904600I0J-237500D01*
G01*
X188943000Y-104404600D01*
G75*
G02*
X188705500Y-104642100I-237500J0D01*
G01*
X188230500Y-104642100D01*
G75*
G02*
X187993000Y-104404600I0J237500D01*
G01*
X187993000Y-103904600D01*
G75*
G02*
X188230500Y-103667100I237500J0D01*
G01*
G37*
G36*
G01*
X179061100Y-105515600D02*
X179536100Y-105515600D01*
G75*
G02*
X179773600Y-105753100I0J-237500D01*
G01*
X179773600Y-106253100D01*
G75*
G02*
X179536100Y-106490600I-237500J0D01*
G01*
X179061100Y-106490600D01*
G75*
G02*
X178823600Y-106253100I0J237500D01*
G01*
X178823600Y-105753100D01*
G75*
G02*
X179061100Y-105515600I237500J0D01*
G01*
G37*
G36*
G01*
X179061100Y-103690600D02*
X179536100Y-103690600D01*
G75*
G02*
X179773600Y-103928100I0J-237500D01*
G01*
X179773600Y-104428100D01*
G75*
G02*
X179536100Y-104665600I-237500J0D01*
G01*
X179061100Y-104665600D01*
G75*
G02*
X178823600Y-104428100I0J237500D01*
G01*
X178823600Y-103928100D01*
G75*
G02*
X179061100Y-103690600I237500J0D01*
G01*
G37*
G36*
G01*
X184865000Y-105490200D02*
X185340000Y-105490200D01*
G75*
G02*
X185577500Y-105727700I0J-237500D01*
G01*
X185577500Y-106227700D01*
G75*
G02*
X185340000Y-106465200I-237500J0D01*
G01*
X184865000Y-106465200D01*
G75*
G02*
X184627500Y-106227700I0J237500D01*
G01*
X184627500Y-105727700D01*
G75*
G02*
X184865000Y-105490200I237500J0D01*
G01*
G37*
G36*
G01*
X184865000Y-103665200D02*
X185340000Y-103665200D01*
G75*
G02*
X185577500Y-103902700I0J-237500D01*
G01*
X185577500Y-104402700D01*
G75*
G02*
X185340000Y-104640200I-237500J0D01*
G01*
X184865000Y-104640200D01*
G75*
G02*
X184627500Y-104402700I0J237500D01*
G01*
X184627500Y-103902700D01*
G75*
G02*
X184865000Y-103665200I237500J0D01*
G01*
G37*
G36*
G01*
X186566800Y-105490200D02*
X187041800Y-105490200D01*
G75*
G02*
X187279300Y-105727700I0J-237500D01*
G01*
X187279300Y-106227700D01*
G75*
G02*
X187041800Y-106465200I-237500J0D01*
G01*
X186566800Y-106465200D01*
G75*
G02*
X186329300Y-106227700I0J237500D01*
G01*
X186329300Y-105727700D01*
G75*
G02*
X186566800Y-105490200I237500J0D01*
G01*
G37*
G36*
G01*
X186566800Y-103665200D02*
X187041800Y-103665200D01*
G75*
G02*
X187279300Y-103902700I0J-237500D01*
G01*
X187279300Y-104402700D01*
G75*
G02*
X187041800Y-104640200I-237500J0D01*
G01*
X186566800Y-104640200D01*
G75*
G02*
X186329300Y-104402700I0J237500D01*
G01*
X186329300Y-103902700D01*
G75*
G02*
X186566800Y-103665200I237500J0D01*
G01*
G37*
G36*
G01*
X189894200Y-105392100D02*
X190369200Y-105392100D01*
G75*
G02*
X190606700Y-105629600I0J-237500D01*
G01*
X190606700Y-106229600D01*
G75*
G02*
X190369200Y-106467100I-237500J0D01*
G01*
X189894200Y-106467100D01*
G75*
G02*
X189656700Y-106229600I0J237500D01*
G01*
X189656700Y-105629600D01*
G75*
G02*
X189894200Y-105392100I237500J0D01*
G01*
G37*
G36*
G01*
X189894200Y-103667100D02*
X190369200Y-103667100D01*
G75*
G02*
X190606700Y-103904600I0J-237500D01*
G01*
X190606700Y-104504600D01*
G75*
G02*
X190369200Y-104742100I-237500J0D01*
G01*
X189894200Y-104742100D01*
G75*
G02*
X189656700Y-104504600I0J237500D01*
G01*
X189656700Y-103904600D01*
G75*
G02*
X189894200Y-103667100I237500J0D01*
G01*
G37*
G36*
G01*
X155159700Y-138296700D02*
X155634700Y-138296700D01*
G75*
G02*
X155872200Y-138534200I0J-237500D01*
G01*
X155872200Y-139134200D01*
G75*
G02*
X155634700Y-139371700I-237500J0D01*
G01*
X155159700Y-139371700D01*
G75*
G02*
X154922200Y-139134200I0J237500D01*
G01*
X154922200Y-138534200D01*
G75*
G02*
X155159700Y-138296700I237500J0D01*
G01*
G37*
G36*
G01*
X155159700Y-136571700D02*
X155634700Y-136571700D01*
G75*
G02*
X155872200Y-136809200I0J-237500D01*
G01*
X155872200Y-137409200D01*
G75*
G02*
X155634700Y-137646700I-237500J0D01*
G01*
X155159700Y-137646700D01*
G75*
G02*
X154922200Y-137409200I0J237500D01*
G01*
X154922200Y-136809200D01*
G75*
G02*
X155159700Y-136571700I237500J0D01*
G01*
G37*
G36*
G01*
X153648400Y-138296700D02*
X154123400Y-138296700D01*
G75*
G02*
X154360900Y-138534200I0J-237500D01*
G01*
X154360900Y-139134200D01*
G75*
G02*
X154123400Y-139371700I-237500J0D01*
G01*
X153648400Y-139371700D01*
G75*
G02*
X153410900Y-139134200I0J237500D01*
G01*
X153410900Y-138534200D01*
G75*
G02*
X153648400Y-138296700I237500J0D01*
G01*
G37*
G36*
G01*
X153648400Y-136571700D02*
X154123400Y-136571700D01*
G75*
G02*
X154360900Y-136809200I0J-237500D01*
G01*
X154360900Y-137409200D01*
G75*
G02*
X154123400Y-137646700I-237500J0D01*
G01*
X153648400Y-137646700D01*
G75*
G02*
X153410900Y-137409200I0J237500D01*
G01*
X153410900Y-136809200D01*
G75*
G02*
X153648400Y-136571700I237500J0D01*
G01*
G37*
G36*
G01*
X157001200Y-138271300D02*
X157476200Y-138271300D01*
G75*
G02*
X157713700Y-138508800I0J-237500D01*
G01*
X157713700Y-139108800D01*
G75*
G02*
X157476200Y-139346300I-237500J0D01*
G01*
X157001200Y-139346300D01*
G75*
G02*
X156763700Y-139108800I0J237500D01*
G01*
X156763700Y-138508800D01*
G75*
G02*
X157001200Y-138271300I237500J0D01*
G01*
G37*
G36*
G01*
X157001200Y-136546300D02*
X157476200Y-136546300D01*
G75*
G02*
X157713700Y-136783800I0J-237500D01*
G01*
X157713700Y-137383800D01*
G75*
G02*
X157476200Y-137621300I-237500J0D01*
G01*
X157001200Y-137621300D01*
G75*
G02*
X156763700Y-137383800I0J237500D01*
G01*
X156763700Y-136783800D01*
G75*
G02*
X157001200Y-136546300I237500J0D01*
G01*
G37*
G36*
G01*
X158525200Y-138273500D02*
X159000200Y-138273500D01*
G75*
G02*
X159237700Y-138511000I0J-237500D01*
G01*
X159237700Y-139111000D01*
G75*
G02*
X159000200Y-139348500I-237500J0D01*
G01*
X158525200Y-139348500D01*
G75*
G02*
X158287700Y-139111000I0J237500D01*
G01*
X158287700Y-138511000D01*
G75*
G02*
X158525200Y-138273500I237500J0D01*
G01*
G37*
G36*
G01*
X158525200Y-136548500D02*
X159000200Y-136548500D01*
G75*
G02*
X159237700Y-136786000I0J-237500D01*
G01*
X159237700Y-137386000D01*
G75*
G02*
X159000200Y-137623500I-237500J0D01*
G01*
X158525200Y-137623500D01*
G75*
G02*
X158287700Y-137386000I0J237500D01*
G01*
X158287700Y-136786000D01*
G75*
G02*
X158525200Y-136548500I237500J0D01*
G01*
G37*
G36*
G01*
X148837600Y-133874500D02*
X148837600Y-134349500D01*
G75*
G02*
X148600100Y-134587000I-237500J0D01*
G01*
X148000100Y-134587000D01*
G75*
G02*
X147762600Y-134349500I0J237500D01*
G01*
X147762600Y-133874500D01*
G75*
G02*
X148000100Y-133637000I237500J0D01*
G01*
X148600100Y-133637000D01*
G75*
G02*
X148837600Y-133874500I0J-237500D01*
G01*
G37*
G36*
G01*
X150562600Y-133874500D02*
X150562600Y-134349500D01*
G75*
G02*
X150325100Y-134587000I-237500J0D01*
G01*
X149725100Y-134587000D01*
G75*
G02*
X149487600Y-134349500I0J237500D01*
G01*
X149487600Y-133874500D01*
G75*
G02*
X149725100Y-133637000I237500J0D01*
G01*
X150325100Y-133637000D01*
G75*
G02*
X150562600Y-133874500I0J-237500D01*
G01*
G37*
G36*
G01*
X148850300Y-132375900D02*
X148850300Y-132850900D01*
G75*
G02*
X148612800Y-133088400I-237500J0D01*
G01*
X148012800Y-133088400D01*
G75*
G02*
X147775300Y-132850900I0J237500D01*
G01*
X147775300Y-132375900D01*
G75*
G02*
X148012800Y-132138400I237500J0D01*
G01*
X148612800Y-132138400D01*
G75*
G02*
X148850300Y-132375900I0J-237500D01*
G01*
G37*
G36*
G01*
X150575300Y-132375900D02*
X150575300Y-132850900D01*
G75*
G02*
X150337800Y-133088400I-237500J0D01*
G01*
X149737800Y-133088400D01*
G75*
G02*
X149500300Y-132850900I0J237500D01*
G01*
X149500300Y-132375900D01*
G75*
G02*
X149737800Y-132138400I237500J0D01*
G01*
X150337800Y-132138400D01*
G75*
G02*
X150575300Y-132375900I0J-237500D01*
G01*
G37*
G36*
G01*
X159393900Y-123450300D02*
X158918900Y-123450300D01*
G75*
G02*
X158681400Y-123212800I0J237500D01*
G01*
X158681400Y-122612800D01*
G75*
G02*
X158918900Y-122375300I237500J0D01*
G01*
X159393900Y-122375300D01*
G75*
G02*
X159631400Y-122612800I0J-237500D01*
G01*
X159631400Y-123212800D01*
G75*
G02*
X159393900Y-123450300I-237500J0D01*
G01*
G37*
G36*
G01*
X159393900Y-125175300D02*
X158918900Y-125175300D01*
G75*
G02*
X158681400Y-124937800I0J237500D01*
G01*
X158681400Y-124337800D01*
G75*
G02*
X158918900Y-124100300I237500J0D01*
G01*
X159393900Y-124100300D01*
G75*
G02*
X159631400Y-124337800I0J-237500D01*
G01*
X159631400Y-124937800D01*
G75*
G02*
X159393900Y-125175300I-237500J0D01*
G01*
G37*
G36*
G01*
X157869900Y-123449200D02*
X157394900Y-123449200D01*
G75*
G02*
X157157400Y-123211700I0J237500D01*
G01*
X157157400Y-122611700D01*
G75*
G02*
X157394900Y-122374200I237500J0D01*
G01*
X157869900Y-122374200D01*
G75*
G02*
X158107400Y-122611700I0J-237500D01*
G01*
X158107400Y-123211700D01*
G75*
G02*
X157869900Y-123449200I-237500J0D01*
G01*
G37*
G36*
G01*
X157869900Y-125174200D02*
X157394900Y-125174200D01*
G75*
G02*
X157157400Y-124936700I0J237500D01*
G01*
X157157400Y-124336700D01*
G75*
G02*
X157394900Y-124099200I237500J0D01*
G01*
X157869900Y-124099200D01*
G75*
G02*
X158107400Y-124336700I0J-237500D01*
G01*
X158107400Y-124936700D01*
G75*
G02*
X157869900Y-125174200I-237500J0D01*
G01*
G37*
G36*
G01*
X162657800Y-126282400D02*
X162182800Y-126282400D01*
G75*
G02*
X161945300Y-126044900I0J237500D01*
G01*
X161945300Y-125444900D01*
G75*
G02*
X162182800Y-125207400I237500J0D01*
G01*
X162657800Y-125207400D01*
G75*
G02*
X162895300Y-125444900I0J-237500D01*
G01*
X162895300Y-126044900D01*
G75*
G02*
X162657800Y-126282400I-237500J0D01*
G01*
G37*
G36*
G01*
X162657800Y-128007400D02*
X162182800Y-128007400D01*
G75*
G02*
X161945300Y-127769900I0J237500D01*
G01*
X161945300Y-127169900D01*
G75*
G02*
X162182800Y-126932400I237500J0D01*
G01*
X162657800Y-126932400D01*
G75*
G02*
X162895300Y-127169900I0J-237500D01*
G01*
X162895300Y-127769900D01*
G75*
G02*
X162657800Y-128007400I-237500J0D01*
G01*
G37*
G36*
G01*
X161133800Y-126282400D02*
X160658800Y-126282400D01*
G75*
G02*
X160421300Y-126044900I0J237500D01*
G01*
X160421300Y-125444900D01*
G75*
G02*
X160658800Y-125207400I237500J0D01*
G01*
X161133800Y-125207400D01*
G75*
G02*
X161371300Y-125444900I0J-237500D01*
G01*
X161371300Y-126044900D01*
G75*
G02*
X161133800Y-126282400I-237500J0D01*
G01*
G37*
G36*
G01*
X161133800Y-128007400D02*
X160658800Y-128007400D01*
G75*
G02*
X160421300Y-127769900I0J237500D01*
G01*
X160421300Y-127169900D01*
G75*
G02*
X160658800Y-126932400I237500J0D01*
G01*
X161133800Y-126932400D01*
G75*
G02*
X161371300Y-127169900I0J-237500D01*
G01*
X161371300Y-127769900D01*
G75*
G02*
X161133800Y-128007400I-237500J0D01*
G01*
G37*
D15*
X179857400Y-121767600D03*
X178557400Y-121767600D03*
D12*
X104876600Y-136690100D03*
X102336600Y-136690100D03*
X104876600Y-139230100D03*
X102336600Y-139230100D03*
X104876600Y-141770100D03*
X102336600Y-141770100D03*
X104876600Y-144310100D03*
X102336600Y-144310100D03*
X104876600Y-146850100D03*
D13*
X102336600Y-146850100D03*
D11*
X173990000Y-140677900D03*
X173990000Y-141977900D03*
X173990000Y-143277900D03*
X176898300Y-140660600D03*
X176898300Y-141960600D03*
X176898300Y-143260600D03*
X179946300Y-140665200D03*
X179946300Y-141965200D03*
X179946300Y-143265200D03*
D12*
X131483100Y-113182400D03*
D13*
X131483100Y-110642400D03*
M02*
