M48
; DRILL file {KiCad (5.1.12)-1} date 06/02/22 09:48:48
; FORMAT={-:-/ absolute / metric / decimal}
; #@! TF.CreationDate,2022-06-02T09:48:48-07:00
; #@! TF.GenerationSoftware,Kicad,Pcbnew,(5.1.12)-1
; #@! TF.FileFunction,Plated,1,2,PTH
FMAT,2
METRIC
T1C0.250
T2C0.300
T3C1.000
T4C1.300
T5C2.000
%
G90
G05
T1
X103.302Y-154.584
X108.61Y-134.29
X114.402Y-134.747
X115.202Y-140.716
X115.253Y-139.985
X115.532Y-138.303
X115.683Y-139.041
X115.757Y-139.703
X116.332Y-138.29
X117.462Y-146.139
X117.958Y-138.125
X118.554Y-135.09
X119.164Y-116.891
X119.52Y-138.074
X120.612Y-138.1
X121.145Y-142.189
X121.272Y-121.031
X122.199Y-146.063
X122.25Y-138.049
X123.203Y-138.002
X123.215Y-134.607
X123.546Y-141.313
X123.546Y-146.482
X123.622Y-120.815
X123.673Y-143.815
X123.723Y-142.1
X124.384Y-121.78
X125.349Y-124.219
X126.428Y-116.205
X127.749Y-141.326
X127.749Y-149.504
X127.851Y-137.668
X128.511Y-141.287
X129.261Y-141.072
X129.35Y-146.253
X129.972Y-121.882
X130.594Y-122.644
X130.607Y-120.383
X131.267Y-123.304
X132.029Y-117.411
X132.08Y-149.492
X132.588Y-120.891
X133.109Y-138.201
X133.756Y-122.491
X134.239Y-147.155
X134.696Y-125.311
X135.09Y-134.302
X137.109Y-150.177
X137.171Y-141.429
X137.541Y-125.095
X137.714Y-134.277
X137.808Y-119.786
X137.935Y-122.009
X138.818Y-145.052
X138.844Y-141.165
X138.951Y-137.414
X139.433Y-117.551
X141.135Y-143.065
X141.618Y-141.402
X143.142Y-146.05
X144.335Y-146.558
X145.021Y-117.691
X145.174Y-148.082
X145.364Y-134.877
X145.834Y-140.208
X146.177Y-124.155
X146.279Y-148.018
X146.761Y-151.651
X147.168Y-142.189
X147.505Y-124.098
X147.599Y-151.105
X148.933Y-143.789
X148.984Y-151.155
X149.53Y-139.535
X149.593Y-120.447
X149.735Y-130.313
X150.317Y-151.194
X150.584Y-123.266
X150.597Y-125.387
X151.257Y-150.812
X151.288Y-129.813
X152.07Y-125.514
X152.26Y-121.082
X152.489Y-150.774
X152.945Y-122.451
X152.997Y-121.811
X153.022Y-125.349
X153.594Y-122.39
X153.695Y-150.762
X154.083Y-124.276
X154.33Y-135.496
X154.902Y-150.711
X154.978Y-130.124
X155.105Y-133.045
X155.334Y-126.594
X155.778Y-122.568
X155.88Y-126.073
X156.083Y-150.584
X156.108Y-123.634
X156.312Y-140.653
X156.54Y-125.374
X157.124Y-150.343
X158.001Y-129.019
X158.052Y-131.928
X158.331Y-135.504
X159.588Y-143.497
X159.766Y-120.057
X160.401Y-123.139
X160.947Y-119.456
X161.125Y-138.481
X161.176Y-117.856
X161.226Y-116.281
X161.517Y-130.875
X161.894Y-132.454
X162.496Y-150.673
X162.763Y-134.125
X162.852Y-136.258
X163.614Y-132.563
X163.766Y-150.609
X164.541Y-130.861
X165.176Y-127.787
X165.887Y-124.142
X166.078Y-133.515
X166.408Y-150.711
X166.419Y-130.761
X166.472Y-128.816
X167.132Y-118.783
X167.615Y-150.622
X167.957Y-139.446
X168.008Y-130.251
X168.859Y-150.635
X169.012Y-118.237
X169.062Y-132.702
X169.659Y-134.048
X170.091Y-150.558
X170.307Y-125.158
X170.955Y-114.96
X171.158Y-110.299
X171.298Y-150.508
X172.555Y-150.52
X173.025Y-118.974
X173.825Y-150.495
X173.99Y-141.978
X174.066Y-110.871
X174.269Y-127.66
X174.346Y-133.159
X175.006Y-122.784
X175.031Y-150.419
X175.12Y-113.182
X175.387Y-116.395
X175.768Y-109.982
X176.39Y-123.215
X176.898Y-141.961
X177.381Y-113.179
X177.711Y-109.986
X179.299Y-106.997
X179.845Y-123.444
X179.857Y-128.092
X179.946Y-141.965
X180.365Y-133.845
X180.988Y-106.959
X181.839Y-143.281
X184.683Y-110.045
X184.785Y-113.347
X184.95Y-115.532
X185.026Y-114.376
X185.026Y-129.781
X185.052Y-128.232
X185.09Y-131.28
X188.633Y-132.334
X189.128Y-129.299
X189.154Y-127.775
X189.179Y-130.848
T2
X121.863Y-122.739
X137.236Y-130.556
X141.897Y-121.895
X151.219Y-132.804
X151.219Y-133.916
X152.133Y-142.38
X155.41Y-135.674
X157.213Y-135.788
X157.239Y-126.187
X159.728Y-127.546
X163.043Y-138.328
X179.273Y-114.046
X180.353Y-111.912
X193.332Y-145.364
X193.345Y-135.814
X198.59Y-158.61
T3
X101.79Y-153.327
X101.79Y-155.867
X102.337Y-136.69
X102.337Y-139.23
X102.337Y-141.77
X102.337Y-144.31
X102.337Y-146.85
X104.331Y-153.327
X104.331Y-155.867
X104.877Y-136.69
X104.877Y-139.23
X104.877Y-141.77
X104.877Y-144.31
X104.877Y-146.85
X106.87Y-153.327
X106.87Y-155.867
X109.41Y-153.327
X109.41Y-155.867
X110.579Y-119.367
X110.579Y-121.907
X111.95Y-153.327
X111.95Y-155.867
X114.49Y-153.327
X114.49Y-155.867
X117.03Y-153.327
X117.03Y-155.867
X119.57Y-153.327
X119.57Y-155.867
X122.11Y-153.327
X122.11Y-155.867
X124.65Y-153.327
X124.65Y-155.867
X127.191Y-153.327
X127.191Y-155.867
X129.731Y-153.327
X129.731Y-155.867
X131.483Y-110.642
X131.483Y-113.182
X132.27Y-153.327
X132.27Y-155.867
X134.81Y-153.327
X134.81Y-155.867
X137.35Y-153.327
X137.35Y-155.867
X138.43Y-113.043
X139.891Y-153.327
X139.891Y-155.867
X140.97Y-113.043
X142.43Y-153.327
X142.43Y-155.867
X143.51Y-113.043
X144.97Y-153.327
X144.97Y-155.867
X146.05Y-113.043
X147.511Y-153.327
X147.511Y-155.867
X148.59Y-113.043
X150.05Y-153.327
X150.05Y-155.867
X151.13Y-113.043
X152.59Y-153.327
X152.59Y-155.867
X153.67Y-113.043
X155.13Y-153.327
X155.13Y-155.867
X156.21Y-113.043
X157.671Y-153.327
X157.671Y-155.867
X160.21Y-153.327
X160.21Y-155.867
X162.75Y-153.327
X162.75Y-155.867
X165.29Y-153.327
X165.29Y-155.867
X167.831Y-153.327
X167.831Y-155.867
X170.37Y-153.327
X170.37Y-155.867
X172.91Y-153.327
X172.91Y-155.867
X175.451Y-153.327
X175.451Y-155.867
T4
X192.438Y-124.83
X192.438Y-139.33
X197.388Y-124.23
X197.388Y-139.93
T5
X105.778Y-107.442
X108.178Y-105.442
X113.678Y-105.442
T0
M30
