G04 #@! TF.GenerationSoftware,KiCad,Pcbnew,(5.1.12)-1*
G04 #@! TF.CreationDate,2022-06-02T09:48:45-07:00*
G04 #@! TF.ProjectId,vera-module-rev4,76657261-2d6d-46f6-9475-6c652d726576,rev?*
G04 #@! TF.SameCoordinates,Original*
G04 #@! TF.FileFunction,Legend,Bot*
G04 #@! TF.FilePolarity,Positive*
%FSLAX46Y46*%
G04 Gerber Fmt 4.6, Leading zero omitted, Abs format (unit mm)*
G04 Created by KiCad (PCBNEW (5.1.12)-1) date 2022-06-02 09:48:45*
%MOMM*%
%LPD*%
G01*
G04 APERTURE LIST*
%ADD10C,0.120000*%
%ADD11C,0.100000*%
%ADD12C,0.150000*%
%ADD13C,2.800000*%
%ADD14R,1.500000X1.000000*%
%ADD15O,1.700000X1.700000*%
%ADD16R,1.700000X1.700000*%
%ADD17C,2.000000*%
%ADD18R,1.000000X1.500000*%
G04 APERTURE END LIST*
D10*
X194011700Y-137113800D02*
X193711700Y-136813800D01*
X193711700Y-137413800D02*
X193711700Y-136813800D01*
X194011700Y-137113800D02*
X193711700Y-137413800D01*
X194211700Y-137863800D02*
X196211700Y-137863800D01*
X194211700Y-133763800D02*
X194211700Y-137863800D01*
X196211700Y-133763800D02*
X194211700Y-133763800D01*
X196211700Y-137863800D02*
X196211700Y-133763800D01*
X181510200Y-104810476D02*
X181510200Y-105319924D01*
X180465200Y-104810476D02*
X180465200Y-105319924D01*
X188990500Y-104812376D02*
X188990500Y-105321824D01*
X187945500Y-104812376D02*
X187945500Y-105321824D01*
X179821100Y-104835876D02*
X179821100Y-105345324D01*
X178776100Y-104835876D02*
X178776100Y-105345324D01*
X185625000Y-104810476D02*
X185625000Y-105319924D01*
X184580000Y-104810476D02*
X184580000Y-105319924D01*
X187326800Y-104810476D02*
X187326800Y-105319924D01*
X186281800Y-104810476D02*
X186281800Y-105319924D01*
X190641700Y-104920833D02*
X190641700Y-105213367D01*
X189621700Y-104920833D02*
X189621700Y-105213367D01*
X155907200Y-137825433D02*
X155907200Y-138117967D01*
X154887200Y-137825433D02*
X154887200Y-138117967D01*
X154395900Y-137825433D02*
X154395900Y-138117967D01*
X153375900Y-137825433D02*
X153375900Y-138117967D01*
X157748700Y-137800033D02*
X157748700Y-138092567D01*
X156728700Y-137800033D02*
X156728700Y-138092567D01*
X159272700Y-137802233D02*
X159272700Y-138094767D01*
X158252700Y-137802233D02*
X158252700Y-138094767D01*
X149308867Y-134622000D02*
X149016333Y-134622000D01*
X149308867Y-133602000D02*
X149016333Y-133602000D01*
X149321567Y-133123400D02*
X149029033Y-133123400D01*
X149321567Y-132103400D02*
X149029033Y-132103400D01*
X158646400Y-123921567D02*
X158646400Y-123629033D01*
X159666400Y-123921567D02*
X159666400Y-123629033D01*
X157122400Y-123920467D02*
X157122400Y-123627933D01*
X158142400Y-123920467D02*
X158142400Y-123627933D01*
X161910300Y-126753667D02*
X161910300Y-126461133D01*
X162930300Y-126753667D02*
X162930300Y-126461133D01*
X160386300Y-126753667D02*
X160386300Y-126461133D01*
X161406300Y-126753667D02*
X161406300Y-126461133D01*
X180607400Y-122767600D02*
X180607400Y-120767600D01*
X177807400Y-122767600D02*
X180607400Y-122767600D01*
X177807400Y-120767600D02*
X177807400Y-122767600D01*
X180607400Y-120767600D02*
X177807400Y-120767600D01*
X175190000Y-140677900D02*
X175490000Y-140977900D01*
X175490000Y-140377900D02*
X175490000Y-140977900D01*
X175190000Y-140677900D02*
X175490000Y-140377900D01*
X174990000Y-139927900D02*
X172990000Y-139927900D01*
X174990000Y-144027900D02*
X174990000Y-139927900D01*
X172990000Y-144027900D02*
X174990000Y-144027900D01*
X172990000Y-139927900D02*
X172990000Y-144027900D01*
X178098300Y-140660600D02*
X178398300Y-140960600D01*
X178398300Y-140360600D02*
X178398300Y-140960600D01*
X178098300Y-140660600D02*
X178398300Y-140360600D01*
X177898300Y-139910600D02*
X175898300Y-139910600D01*
X177898300Y-144010600D02*
X177898300Y-139910600D01*
X175898300Y-144010600D02*
X177898300Y-144010600D01*
X175898300Y-139910600D02*
X175898300Y-144010600D01*
X181146300Y-140665200D02*
X181446300Y-140965200D01*
X181446300Y-140365200D02*
X181446300Y-140965200D01*
X181146300Y-140665200D02*
X181446300Y-140365200D01*
X180946300Y-139915200D02*
X178946300Y-139915200D01*
X180946300Y-144015200D02*
X180946300Y-139915200D01*
X178946300Y-144015200D02*
X180946300Y-144015200D01*
X178946300Y-139915200D02*
X178946300Y-144015200D01*
D11*
X196573604Y-135147133D02*
X197145033Y-135147133D01*
X197259319Y-135109038D01*
X197335509Y-135032847D01*
X197373604Y-134918561D01*
X197373604Y-134842371D01*
X197373604Y-135528085D02*
X196573604Y-135528085D01*
X196573604Y-135832847D01*
X196611700Y-135909038D01*
X196649795Y-135947133D01*
X196725985Y-135985228D01*
X196840271Y-135985228D01*
X196916461Y-135947133D01*
X196954557Y-135909038D01*
X196992652Y-135832847D01*
X196992652Y-135528085D01*
X196573604Y-136670942D02*
X196573604Y-136518561D01*
X196611700Y-136442371D01*
X196649795Y-136404276D01*
X196764080Y-136328085D01*
X196916461Y-136289990D01*
X197221223Y-136289990D01*
X197297414Y-136328085D01*
X197335509Y-136366180D01*
X197373604Y-136442371D01*
X197373604Y-136594752D01*
X197335509Y-136670942D01*
X197297414Y-136709038D01*
X197221223Y-136747133D01*
X197030747Y-136747133D01*
X196954557Y-136709038D01*
X196916461Y-136670942D01*
X196878366Y-136594752D01*
X196878366Y-136442371D01*
X196916461Y-136366180D01*
X196954557Y-136328085D01*
X197030747Y-136289990D01*
X181362304Y-107308666D02*
X180981352Y-107042000D01*
X181362304Y-106851523D02*
X180562304Y-106851523D01*
X180562304Y-107156285D01*
X180600400Y-107232476D01*
X180638495Y-107270571D01*
X180714685Y-107308666D01*
X180828971Y-107308666D01*
X180905161Y-107270571D01*
X180943257Y-107232476D01*
X180981352Y-107156285D01*
X180981352Y-106851523D01*
X180905161Y-107765809D02*
X180867066Y-107689619D01*
X180828971Y-107651523D01*
X180752780Y-107613428D01*
X180714685Y-107613428D01*
X180638495Y-107651523D01*
X180600400Y-107689619D01*
X180562304Y-107765809D01*
X180562304Y-107918190D01*
X180600400Y-107994380D01*
X180638495Y-108032476D01*
X180714685Y-108070571D01*
X180752780Y-108070571D01*
X180828971Y-108032476D01*
X180867066Y-107994380D01*
X180905161Y-107918190D01*
X180905161Y-107765809D01*
X180943257Y-107689619D01*
X180981352Y-107651523D01*
X181057542Y-107613428D01*
X181209923Y-107613428D01*
X181286114Y-107651523D01*
X181324209Y-107689619D01*
X181362304Y-107765809D01*
X181362304Y-107918190D01*
X181324209Y-107994380D01*
X181286114Y-108032476D01*
X181209923Y-108070571D01*
X181057542Y-108070571D01*
X180981352Y-108032476D01*
X180943257Y-107994380D01*
X180905161Y-107918190D01*
X188868004Y-107321366D02*
X188487052Y-107054700D01*
X188868004Y-106864223D02*
X188068004Y-106864223D01*
X188068004Y-107168985D01*
X188106100Y-107245176D01*
X188144195Y-107283271D01*
X188220385Y-107321366D01*
X188334671Y-107321366D01*
X188410861Y-107283271D01*
X188448957Y-107245176D01*
X188487052Y-107168985D01*
X188487052Y-106864223D01*
X188068004Y-107588033D02*
X188068004Y-108121366D01*
X188868004Y-107778509D01*
X179685904Y-107321366D02*
X179304952Y-107054700D01*
X179685904Y-106864223D02*
X178885904Y-106864223D01*
X178885904Y-107168985D01*
X178924000Y-107245176D01*
X178962095Y-107283271D01*
X179038285Y-107321366D01*
X179152571Y-107321366D01*
X179228761Y-107283271D01*
X179266857Y-107245176D01*
X179304952Y-107168985D01*
X179304952Y-106864223D01*
X178885904Y-108007080D02*
X178885904Y-107854700D01*
X178924000Y-107778509D01*
X178962095Y-107740414D01*
X179076380Y-107664223D01*
X179228761Y-107626128D01*
X179533523Y-107626128D01*
X179609714Y-107664223D01*
X179647809Y-107702319D01*
X179685904Y-107778509D01*
X179685904Y-107930890D01*
X179647809Y-108007080D01*
X179609714Y-108045176D01*
X179533523Y-108083271D01*
X179343047Y-108083271D01*
X179266857Y-108045176D01*
X179228761Y-108007080D01*
X179190666Y-107930890D01*
X179190666Y-107778509D01*
X179228761Y-107702319D01*
X179266857Y-107664223D01*
X179343047Y-107626128D01*
X185489804Y-107321366D02*
X185108852Y-107054700D01*
X185489804Y-106864223D02*
X184689804Y-106864223D01*
X184689804Y-107168985D01*
X184727900Y-107245176D01*
X184765995Y-107283271D01*
X184842185Y-107321366D01*
X184956471Y-107321366D01*
X185032661Y-107283271D01*
X185070757Y-107245176D01*
X185108852Y-107168985D01*
X185108852Y-106864223D01*
X184689804Y-108045176D02*
X184689804Y-107664223D01*
X185070757Y-107626128D01*
X185032661Y-107664223D01*
X184994566Y-107740414D01*
X184994566Y-107930890D01*
X185032661Y-108007080D01*
X185070757Y-108045176D01*
X185146947Y-108083271D01*
X185337423Y-108083271D01*
X185413614Y-108045176D01*
X185451709Y-108007080D01*
X185489804Y-107930890D01*
X185489804Y-107740414D01*
X185451709Y-107664223D01*
X185413614Y-107626128D01*
X187204304Y-107308666D02*
X186823352Y-107042000D01*
X187204304Y-106851523D02*
X186404304Y-106851523D01*
X186404304Y-107156285D01*
X186442400Y-107232476D01*
X186480495Y-107270571D01*
X186556685Y-107308666D01*
X186670971Y-107308666D01*
X186747161Y-107270571D01*
X186785257Y-107232476D01*
X186823352Y-107156285D01*
X186823352Y-106851523D01*
X186670971Y-107994380D02*
X187204304Y-107994380D01*
X186366209Y-107803904D02*
X186937638Y-107613428D01*
X186937638Y-108108666D01*
X190468214Y-107359466D02*
X190506309Y-107321371D01*
X190544404Y-107207085D01*
X190544404Y-107130895D01*
X190506309Y-107016609D01*
X190430119Y-106940419D01*
X190353928Y-106902323D01*
X190201547Y-106864228D01*
X190087261Y-106864228D01*
X189934880Y-106902323D01*
X189858690Y-106940419D01*
X189782500Y-107016609D01*
X189744404Y-107130895D01*
X189744404Y-107207085D01*
X189782500Y-107321371D01*
X189820595Y-107359466D01*
X189820595Y-107664228D02*
X189782500Y-107702323D01*
X189744404Y-107778514D01*
X189744404Y-107968990D01*
X189782500Y-108045180D01*
X189820595Y-108083276D01*
X189896785Y-108121371D01*
X189972976Y-108121371D01*
X190087261Y-108083276D01*
X190544404Y-107626133D01*
X190544404Y-108121371D01*
X155632114Y-140760514D02*
X155670209Y-140722419D01*
X155708304Y-140608133D01*
X155708304Y-140531942D01*
X155670209Y-140417657D01*
X155594019Y-140341466D01*
X155517828Y-140303371D01*
X155365447Y-140265276D01*
X155251161Y-140265276D01*
X155098780Y-140303371D01*
X155022590Y-140341466D01*
X154946400Y-140417657D01*
X154908304Y-140531942D01*
X154908304Y-140608133D01*
X154946400Y-140722419D01*
X154984495Y-140760514D01*
X155708304Y-141522419D02*
X155708304Y-141065276D01*
X155708304Y-141293847D02*
X154908304Y-141293847D01*
X155022590Y-141217657D01*
X155098780Y-141141466D01*
X155136876Y-141065276D01*
X154984495Y-141827180D02*
X154946400Y-141865276D01*
X154908304Y-141941466D01*
X154908304Y-142131942D01*
X154946400Y-142208133D01*
X154984495Y-142246228D01*
X155060685Y-142284323D01*
X155136876Y-142284323D01*
X155251161Y-142246228D01*
X155708304Y-141789085D01*
X155708304Y-142284323D01*
X154273214Y-140213314D02*
X154311309Y-140175219D01*
X154349404Y-140060933D01*
X154349404Y-139984742D01*
X154311309Y-139870457D01*
X154235119Y-139794266D01*
X154158928Y-139756171D01*
X154006547Y-139718076D01*
X153892261Y-139718076D01*
X153739880Y-139756171D01*
X153663690Y-139794266D01*
X153587500Y-139870457D01*
X153549404Y-139984742D01*
X153549404Y-140060933D01*
X153587500Y-140175219D01*
X153625595Y-140213314D01*
X154349404Y-140975219D02*
X154349404Y-140518076D01*
X154349404Y-140746647D02*
X153549404Y-140746647D01*
X153663690Y-140670457D01*
X153739880Y-140594266D01*
X153777976Y-140518076D01*
X153549404Y-141470457D02*
X153549404Y-141546647D01*
X153587500Y-141622838D01*
X153625595Y-141660933D01*
X153701785Y-141699028D01*
X153854166Y-141737123D01*
X154044642Y-141737123D01*
X154197023Y-141699028D01*
X154273214Y-141660933D01*
X154311309Y-141622838D01*
X154349404Y-141546647D01*
X154349404Y-141470457D01*
X154311309Y-141394266D01*
X154273214Y-141356171D01*
X154197023Y-141318076D01*
X154044642Y-141279980D01*
X153854166Y-141279980D01*
X153701785Y-141318076D01*
X153625595Y-141356171D01*
X153587500Y-141394266D01*
X153549404Y-141470457D01*
D12*
X157524414Y-140214366D02*
X157562509Y-140176271D01*
X157600604Y-140061985D01*
X157600604Y-139985795D01*
X157562509Y-139871509D01*
X157486319Y-139795319D01*
X157410128Y-139757223D01*
X157257747Y-139719128D01*
X157143461Y-139719128D01*
X156991080Y-139757223D01*
X156914890Y-139795319D01*
X156838700Y-139871509D01*
X156800604Y-139985795D01*
X156800604Y-140061985D01*
X156838700Y-140176271D01*
X156876795Y-140214366D01*
X157143461Y-140671509D02*
X157105366Y-140595319D01*
X157067271Y-140557223D01*
X156991080Y-140519128D01*
X156952985Y-140519128D01*
X156876795Y-140557223D01*
X156838700Y-140595319D01*
X156800604Y-140671509D01*
X156800604Y-140823890D01*
X156838700Y-140900080D01*
X156876795Y-140938176D01*
X156952985Y-140976271D01*
X156991080Y-140976271D01*
X157067271Y-140938176D01*
X157105366Y-140900080D01*
X157143461Y-140823890D01*
X157143461Y-140671509D01*
X157181557Y-140595319D01*
X157219652Y-140557223D01*
X157295842Y-140519128D01*
X157448223Y-140519128D01*
X157524414Y-140557223D01*
X157562509Y-140595319D01*
X157600604Y-140671509D01*
X157600604Y-140823890D01*
X157562509Y-140900080D01*
X157524414Y-140938176D01*
X157448223Y-140976271D01*
X157295842Y-140976271D01*
X157219652Y-140938176D01*
X157181557Y-140900080D01*
X157143461Y-140823890D01*
X159137314Y-140214366D02*
X159175409Y-140176271D01*
X159213504Y-140061985D01*
X159213504Y-139985795D01*
X159175409Y-139871509D01*
X159099219Y-139795319D01*
X159023028Y-139757223D01*
X158870647Y-139719128D01*
X158756361Y-139719128D01*
X158603980Y-139757223D01*
X158527790Y-139795319D01*
X158451600Y-139871509D01*
X158413504Y-139985795D01*
X158413504Y-140061985D01*
X158451600Y-140176271D01*
X158489695Y-140214366D01*
X158413504Y-140900080D02*
X158413504Y-140747700D01*
X158451600Y-140671509D01*
X158489695Y-140633414D01*
X158603980Y-140557223D01*
X158756361Y-140519128D01*
X159061123Y-140519128D01*
X159137314Y-140557223D01*
X159175409Y-140595319D01*
X159213504Y-140671509D01*
X159213504Y-140823890D01*
X159175409Y-140900080D01*
X159137314Y-140938176D01*
X159061123Y-140976271D01*
X158870647Y-140976271D01*
X158794457Y-140938176D01*
X158756361Y-140900080D01*
X158718266Y-140823890D01*
X158718266Y-140671509D01*
X158756361Y-140595319D01*
X158794457Y-140557223D01*
X158870647Y-140519128D01*
D11*
X146843733Y-134308814D02*
X146881828Y-134346909D01*
X146996114Y-134385004D01*
X147072304Y-134385004D01*
X147186590Y-134346909D01*
X147262780Y-134270719D01*
X147300876Y-134194528D01*
X147338971Y-134042147D01*
X147338971Y-133927861D01*
X147300876Y-133775480D01*
X147262780Y-133699290D01*
X147186590Y-133623100D01*
X147072304Y-133585004D01*
X146996114Y-133585004D01*
X146881828Y-133623100D01*
X146843733Y-133661195D01*
X146119923Y-133585004D02*
X146500876Y-133585004D01*
X146538971Y-133965957D01*
X146500876Y-133927861D01*
X146424685Y-133889766D01*
X146234209Y-133889766D01*
X146158019Y-133927861D01*
X146119923Y-133965957D01*
X146081828Y-134042147D01*
X146081828Y-134232623D01*
X146119923Y-134308814D01*
X146158019Y-134346909D01*
X146234209Y-134385004D01*
X146424685Y-134385004D01*
X146500876Y-134346909D01*
X146538971Y-134308814D01*
X146909433Y-132886414D02*
X146947528Y-132924509D01*
X147061814Y-132962604D01*
X147138004Y-132962604D01*
X147252290Y-132924509D01*
X147328480Y-132848319D01*
X147366576Y-132772128D01*
X147404671Y-132619747D01*
X147404671Y-132505461D01*
X147366576Y-132353080D01*
X147328480Y-132276890D01*
X147252290Y-132200700D01*
X147138004Y-132162604D01*
X147061814Y-132162604D01*
X146947528Y-132200700D01*
X146909433Y-132238795D01*
X146223719Y-132429271D02*
X146223719Y-132962604D01*
X146414195Y-132124509D02*
X146604671Y-132695938D01*
X146109433Y-132695938D01*
X159378614Y-120478614D02*
X159416709Y-120440519D01*
X159454804Y-120326233D01*
X159454804Y-120250042D01*
X159416709Y-120135757D01*
X159340519Y-120059566D01*
X159264328Y-120021471D01*
X159111947Y-119983376D01*
X158997661Y-119983376D01*
X158845280Y-120021471D01*
X158769090Y-120059566D01*
X158692900Y-120135757D01*
X158654804Y-120250042D01*
X158654804Y-120326233D01*
X158692900Y-120440519D01*
X158730995Y-120478614D01*
X159454804Y-121240519D02*
X159454804Y-120783376D01*
X159454804Y-121011947D02*
X158654804Y-121011947D01*
X158769090Y-120935757D01*
X158845280Y-120859566D01*
X158883376Y-120783376D01*
X159454804Y-122002423D02*
X159454804Y-121545280D01*
X159454804Y-121773852D02*
X158654804Y-121773852D01*
X158769090Y-121697661D01*
X158845280Y-121621471D01*
X158883376Y-121545280D01*
X157994314Y-121189766D02*
X158032409Y-121151671D01*
X158070504Y-121037385D01*
X158070504Y-120961195D01*
X158032409Y-120846909D01*
X157956219Y-120770719D01*
X157880028Y-120732623D01*
X157727647Y-120694528D01*
X157613361Y-120694528D01*
X157460980Y-120732623D01*
X157384790Y-120770719D01*
X157308600Y-120846909D01*
X157270504Y-120961195D01*
X157270504Y-121037385D01*
X157308600Y-121151671D01*
X157346695Y-121189766D01*
X158070504Y-121570719D02*
X158070504Y-121723100D01*
X158032409Y-121799290D01*
X157994314Y-121837385D01*
X157880028Y-121913576D01*
X157727647Y-121951671D01*
X157422885Y-121951671D01*
X157346695Y-121913576D01*
X157308600Y-121875480D01*
X157270504Y-121799290D01*
X157270504Y-121646909D01*
X157308600Y-121570719D01*
X157346695Y-121532623D01*
X157422885Y-121494528D01*
X157613361Y-121494528D01*
X157689552Y-121532623D01*
X157727647Y-121570719D01*
X157765742Y-121646909D01*
X157765742Y-121799290D01*
X157727647Y-121875480D01*
X157689552Y-121913576D01*
X157613361Y-121951671D01*
X162744114Y-128924066D02*
X162782209Y-128885971D01*
X162820304Y-128771685D01*
X162820304Y-128695495D01*
X162782209Y-128581209D01*
X162706019Y-128505019D01*
X162629828Y-128466923D01*
X162477447Y-128428828D01*
X162363161Y-128428828D01*
X162210780Y-128466923D01*
X162134590Y-128505019D01*
X162058400Y-128581209D01*
X162020304Y-128695495D01*
X162020304Y-128771685D01*
X162058400Y-128885971D01*
X162096495Y-128924066D01*
X162020304Y-129190733D02*
X162020304Y-129724066D01*
X162820304Y-129381209D01*
X161182014Y-128885966D02*
X161220109Y-128847871D01*
X161258204Y-128733585D01*
X161258204Y-128657395D01*
X161220109Y-128543109D01*
X161143919Y-128466919D01*
X161067728Y-128428823D01*
X160915347Y-128390728D01*
X160801061Y-128390728D01*
X160648680Y-128428823D01*
X160572490Y-128466919D01*
X160496300Y-128543109D01*
X160458204Y-128657395D01*
X160458204Y-128733585D01*
X160496300Y-128847871D01*
X160534395Y-128885966D01*
X160458204Y-129152633D02*
X160458204Y-129647871D01*
X160762966Y-129381204D01*
X160762966Y-129495490D01*
X160801061Y-129571680D01*
X160839157Y-129609776D01*
X160915347Y-129647871D01*
X161105823Y-129647871D01*
X161182014Y-129609776D01*
X161220109Y-129571680D01*
X161258204Y-129495490D01*
X161258204Y-129266919D01*
X161220109Y-129190728D01*
X161182014Y-129152633D01*
X182594166Y-121354904D02*
X182594166Y-121926333D01*
X182632261Y-122040619D01*
X182708452Y-122116809D01*
X182822738Y-122154904D01*
X182898928Y-122154904D01*
X182213214Y-122154904D02*
X182213214Y-121354904D01*
X181908452Y-121354904D01*
X181832261Y-121393000D01*
X181794166Y-121431095D01*
X181756071Y-121507285D01*
X181756071Y-121621571D01*
X181794166Y-121697761D01*
X181832261Y-121735857D01*
X181908452Y-121773952D01*
X182213214Y-121773952D01*
X181070357Y-121621571D02*
X181070357Y-122154904D01*
X181260833Y-121316809D02*
X181451309Y-121888238D01*
X180956071Y-121888238D01*
X173615404Y-137928433D02*
X174186833Y-137928433D01*
X174301119Y-137890338D01*
X174377309Y-137814147D01*
X174415404Y-137699861D01*
X174415404Y-137623671D01*
X174415404Y-138309385D02*
X173615404Y-138309385D01*
X173615404Y-138614147D01*
X173653500Y-138690338D01*
X173691595Y-138728433D01*
X173767785Y-138766528D01*
X173882071Y-138766528D01*
X173958261Y-138728433D01*
X173996357Y-138690338D01*
X174034452Y-138614147D01*
X174034452Y-138309385D01*
X173615404Y-139490338D02*
X173615404Y-139109385D01*
X173996357Y-139071290D01*
X173958261Y-139109385D01*
X173920166Y-139185576D01*
X173920166Y-139376052D01*
X173958261Y-139452242D01*
X173996357Y-139490338D01*
X174072547Y-139528433D01*
X174263023Y-139528433D01*
X174339214Y-139490338D01*
X174377309Y-139452242D01*
X174415404Y-139376052D01*
X174415404Y-139185576D01*
X174377309Y-139109385D01*
X174339214Y-139071290D01*
X176523704Y-137915733D02*
X177095133Y-137915733D01*
X177209419Y-137877638D01*
X177285609Y-137801447D01*
X177323704Y-137687161D01*
X177323704Y-137610971D01*
X177323704Y-138296685D02*
X176523704Y-138296685D01*
X176523704Y-138601447D01*
X176561800Y-138677638D01*
X176599895Y-138715733D01*
X176676085Y-138753828D01*
X176790371Y-138753828D01*
X176866561Y-138715733D01*
X176904657Y-138677638D01*
X176942752Y-138601447D01*
X176942752Y-138296685D01*
X176523704Y-139020495D02*
X176523704Y-139515733D01*
X176828466Y-139249066D01*
X176828466Y-139363352D01*
X176866561Y-139439542D01*
X176904657Y-139477638D01*
X176980847Y-139515733D01*
X177171323Y-139515733D01*
X177247514Y-139477638D01*
X177285609Y-139439542D01*
X177323704Y-139363352D01*
X177323704Y-139134780D01*
X177285609Y-139058590D01*
X177247514Y-139020495D01*
X179495504Y-137725233D02*
X180066933Y-137725233D01*
X180181219Y-137687138D01*
X180257409Y-137610947D01*
X180295504Y-137496661D01*
X180295504Y-137420471D01*
X180295504Y-138106185D02*
X179495504Y-138106185D01*
X179495504Y-138410947D01*
X179533600Y-138487138D01*
X179571695Y-138525233D01*
X179647885Y-138563328D01*
X179762171Y-138563328D01*
X179838361Y-138525233D01*
X179876457Y-138487138D01*
X179914552Y-138410947D01*
X179914552Y-138106185D01*
X179571695Y-138868090D02*
X179533600Y-138906185D01*
X179495504Y-138982376D01*
X179495504Y-139172852D01*
X179533600Y-139249042D01*
X179571695Y-139287138D01*
X179647885Y-139325233D01*
X179724076Y-139325233D01*
X179838361Y-139287138D01*
X180295504Y-138829995D01*
X180295504Y-139325233D01*
%LPC*%
D13*
X113678300Y-105442000D03*
X108178300Y-105442000D03*
X105778300Y-107442000D03*
D14*
X195211700Y-135813800D03*
X195211700Y-134513800D03*
X195211700Y-137113800D03*
D15*
X101790500Y-155867100D03*
X101790500Y-153327100D03*
X104330500Y-155867100D03*
X104330500Y-153327100D03*
X106870500Y-155867100D03*
X106870500Y-153327100D03*
X109410500Y-155867100D03*
X109410500Y-153327100D03*
X111950500Y-155867100D03*
X111950500Y-153327100D03*
X114490500Y-155867100D03*
X114490500Y-153327100D03*
X117030500Y-155867100D03*
X117030500Y-153327100D03*
X119570500Y-155867100D03*
X119570500Y-153327100D03*
X122110500Y-155867100D03*
X122110500Y-153327100D03*
X124650500Y-155867100D03*
X124650500Y-153327100D03*
X127190500Y-155867100D03*
X127190500Y-153327100D03*
X129730500Y-155867100D03*
X129730500Y-153327100D03*
X132270500Y-155867100D03*
X132270500Y-153327100D03*
X134810500Y-155867100D03*
X134810500Y-153327100D03*
X137350500Y-155867100D03*
X137350500Y-153327100D03*
X139890500Y-155867100D03*
X139890500Y-153327100D03*
X142430500Y-155867100D03*
X142430500Y-153327100D03*
X144970500Y-155867100D03*
X144970500Y-153327100D03*
X147510500Y-155867100D03*
X147510500Y-153327100D03*
X150050500Y-155867100D03*
X150050500Y-153327100D03*
X152590500Y-155867100D03*
X152590500Y-153327100D03*
X155130500Y-155867100D03*
X155130500Y-153327100D03*
X157670500Y-155867100D03*
X157670500Y-153327100D03*
X160210500Y-155867100D03*
X160210500Y-153327100D03*
X162750500Y-155867100D03*
X162750500Y-153327100D03*
X165290500Y-155867100D03*
X165290500Y-153327100D03*
X167830500Y-155867100D03*
X167830500Y-153327100D03*
X170370500Y-155867100D03*
X170370500Y-153327100D03*
X172910500Y-155867100D03*
X172910500Y-153327100D03*
X175450500Y-155867100D03*
D16*
X175450500Y-153327100D03*
D15*
X156210000Y-113042700D03*
X153670000Y-113042700D03*
X151130000Y-113042700D03*
X148590000Y-113042700D03*
X146050000Y-113042700D03*
X143510000Y-113042700D03*
X140970000Y-113042700D03*
D16*
X138430000Y-113042700D03*
D15*
X110578900Y-119367300D03*
D16*
X110578900Y-121907300D03*
D17*
X197387800Y-139930000D03*
X197387800Y-124230000D03*
X192437800Y-139330000D03*
X192437800Y-124830000D03*
G36*
G01*
X180750200Y-105490200D02*
X181225200Y-105490200D01*
G75*
G02*
X181462700Y-105727700I0J-237500D01*
G01*
X181462700Y-106227700D01*
G75*
G02*
X181225200Y-106465200I-237500J0D01*
G01*
X180750200Y-106465200D01*
G75*
G02*
X180512700Y-106227700I0J237500D01*
G01*
X180512700Y-105727700D01*
G75*
G02*
X180750200Y-105490200I237500J0D01*
G01*
G37*
G36*
G01*
X180750200Y-103665200D02*
X181225200Y-103665200D01*
G75*
G02*
X181462700Y-103902700I0J-237500D01*
G01*
X181462700Y-104402700D01*
G75*
G02*
X181225200Y-104640200I-237500J0D01*
G01*
X180750200Y-104640200D01*
G75*
G02*
X180512700Y-104402700I0J237500D01*
G01*
X180512700Y-103902700D01*
G75*
G02*
X180750200Y-103665200I237500J0D01*
G01*
G37*
G36*
G01*
X188230500Y-105492100D02*
X188705500Y-105492100D01*
G75*
G02*
X188943000Y-105729600I0J-237500D01*
G01*
X188943000Y-106229600D01*
G75*
G02*
X188705500Y-106467100I-237500J0D01*
G01*
X188230500Y-106467100D01*
G75*
G02*
X187993000Y-106229600I0J237500D01*
G01*
X187993000Y-105729600D01*
G75*
G02*
X188230500Y-105492100I237500J0D01*
G01*
G37*
G36*
G01*
X188230500Y-103667100D02*
X188705500Y-103667100D01*
G75*
G02*
X188943000Y-103904600I0J-237500D01*
G01*
X188943000Y-104404600D01*
G75*
G02*
X188705500Y-104642100I-237500J0D01*
G01*
X188230500Y-104642100D01*
G75*
G02*
X187993000Y-104404600I0J237500D01*
G01*
X187993000Y-103904600D01*
G75*
G02*
X188230500Y-103667100I237500J0D01*
G01*
G37*
G36*
G01*
X179061100Y-105515600D02*
X179536100Y-105515600D01*
G75*
G02*
X179773600Y-105753100I0J-237500D01*
G01*
X179773600Y-106253100D01*
G75*
G02*
X179536100Y-106490600I-237500J0D01*
G01*
X179061100Y-106490600D01*
G75*
G02*
X178823600Y-106253100I0J237500D01*
G01*
X178823600Y-105753100D01*
G75*
G02*
X179061100Y-105515600I237500J0D01*
G01*
G37*
G36*
G01*
X179061100Y-103690600D02*
X179536100Y-103690600D01*
G75*
G02*
X179773600Y-103928100I0J-237500D01*
G01*
X179773600Y-104428100D01*
G75*
G02*
X179536100Y-104665600I-237500J0D01*
G01*
X179061100Y-104665600D01*
G75*
G02*
X178823600Y-104428100I0J237500D01*
G01*
X178823600Y-103928100D01*
G75*
G02*
X179061100Y-103690600I237500J0D01*
G01*
G37*
G36*
G01*
X184865000Y-105490200D02*
X185340000Y-105490200D01*
G75*
G02*
X185577500Y-105727700I0J-237500D01*
G01*
X185577500Y-106227700D01*
G75*
G02*
X185340000Y-106465200I-237500J0D01*
G01*
X184865000Y-106465200D01*
G75*
G02*
X184627500Y-106227700I0J237500D01*
G01*
X184627500Y-105727700D01*
G75*
G02*
X184865000Y-105490200I237500J0D01*
G01*
G37*
G36*
G01*
X184865000Y-103665200D02*
X185340000Y-103665200D01*
G75*
G02*
X185577500Y-103902700I0J-237500D01*
G01*
X185577500Y-104402700D01*
G75*
G02*
X185340000Y-104640200I-237500J0D01*
G01*
X184865000Y-104640200D01*
G75*
G02*
X184627500Y-104402700I0J237500D01*
G01*
X184627500Y-103902700D01*
G75*
G02*
X184865000Y-103665200I237500J0D01*
G01*
G37*
G36*
G01*
X186566800Y-105490200D02*
X187041800Y-105490200D01*
G75*
G02*
X187279300Y-105727700I0J-237500D01*
G01*
X187279300Y-106227700D01*
G75*
G02*
X187041800Y-106465200I-237500J0D01*
G01*
X186566800Y-106465200D01*
G75*
G02*
X186329300Y-106227700I0J237500D01*
G01*
X186329300Y-105727700D01*
G75*
G02*
X186566800Y-105490200I237500J0D01*
G01*
G37*
G36*
G01*
X186566800Y-103665200D02*
X187041800Y-103665200D01*
G75*
G02*
X187279300Y-103902700I0J-237500D01*
G01*
X187279300Y-104402700D01*
G75*
G02*
X187041800Y-104640200I-237500J0D01*
G01*
X186566800Y-104640200D01*
G75*
G02*
X186329300Y-104402700I0J237500D01*
G01*
X186329300Y-103902700D01*
G75*
G02*
X186566800Y-103665200I237500J0D01*
G01*
G37*
G36*
G01*
X189894200Y-105392100D02*
X190369200Y-105392100D01*
G75*
G02*
X190606700Y-105629600I0J-237500D01*
G01*
X190606700Y-106229600D01*
G75*
G02*
X190369200Y-106467100I-237500J0D01*
G01*
X189894200Y-106467100D01*
G75*
G02*
X189656700Y-106229600I0J237500D01*
G01*
X189656700Y-105629600D01*
G75*
G02*
X189894200Y-105392100I237500J0D01*
G01*
G37*
G36*
G01*
X189894200Y-103667100D02*
X190369200Y-103667100D01*
G75*
G02*
X190606700Y-103904600I0J-237500D01*
G01*
X190606700Y-104504600D01*
G75*
G02*
X190369200Y-104742100I-237500J0D01*
G01*
X189894200Y-104742100D01*
G75*
G02*
X189656700Y-104504600I0J237500D01*
G01*
X189656700Y-103904600D01*
G75*
G02*
X189894200Y-103667100I237500J0D01*
G01*
G37*
G36*
G01*
X155159700Y-138296700D02*
X155634700Y-138296700D01*
G75*
G02*
X155872200Y-138534200I0J-237500D01*
G01*
X155872200Y-139134200D01*
G75*
G02*
X155634700Y-139371700I-237500J0D01*
G01*
X155159700Y-139371700D01*
G75*
G02*
X154922200Y-139134200I0J237500D01*
G01*
X154922200Y-138534200D01*
G75*
G02*
X155159700Y-138296700I237500J0D01*
G01*
G37*
G36*
G01*
X155159700Y-136571700D02*
X155634700Y-136571700D01*
G75*
G02*
X155872200Y-136809200I0J-237500D01*
G01*
X155872200Y-137409200D01*
G75*
G02*
X155634700Y-137646700I-237500J0D01*
G01*
X155159700Y-137646700D01*
G75*
G02*
X154922200Y-137409200I0J237500D01*
G01*
X154922200Y-136809200D01*
G75*
G02*
X155159700Y-136571700I237500J0D01*
G01*
G37*
G36*
G01*
X153648400Y-138296700D02*
X154123400Y-138296700D01*
G75*
G02*
X154360900Y-138534200I0J-237500D01*
G01*
X154360900Y-139134200D01*
G75*
G02*
X154123400Y-139371700I-237500J0D01*
G01*
X153648400Y-139371700D01*
G75*
G02*
X153410900Y-139134200I0J237500D01*
G01*
X153410900Y-138534200D01*
G75*
G02*
X153648400Y-138296700I237500J0D01*
G01*
G37*
G36*
G01*
X153648400Y-136571700D02*
X154123400Y-136571700D01*
G75*
G02*
X154360900Y-136809200I0J-237500D01*
G01*
X154360900Y-137409200D01*
G75*
G02*
X154123400Y-137646700I-237500J0D01*
G01*
X153648400Y-137646700D01*
G75*
G02*
X153410900Y-137409200I0J237500D01*
G01*
X153410900Y-136809200D01*
G75*
G02*
X153648400Y-136571700I237500J0D01*
G01*
G37*
G36*
G01*
X157001200Y-138271300D02*
X157476200Y-138271300D01*
G75*
G02*
X157713700Y-138508800I0J-237500D01*
G01*
X157713700Y-139108800D01*
G75*
G02*
X157476200Y-139346300I-237500J0D01*
G01*
X157001200Y-139346300D01*
G75*
G02*
X156763700Y-139108800I0J237500D01*
G01*
X156763700Y-138508800D01*
G75*
G02*
X157001200Y-138271300I237500J0D01*
G01*
G37*
G36*
G01*
X157001200Y-136546300D02*
X157476200Y-136546300D01*
G75*
G02*
X157713700Y-136783800I0J-237500D01*
G01*
X157713700Y-137383800D01*
G75*
G02*
X157476200Y-137621300I-237500J0D01*
G01*
X157001200Y-137621300D01*
G75*
G02*
X156763700Y-137383800I0J237500D01*
G01*
X156763700Y-136783800D01*
G75*
G02*
X157001200Y-136546300I237500J0D01*
G01*
G37*
G36*
G01*
X158525200Y-138273500D02*
X159000200Y-138273500D01*
G75*
G02*
X159237700Y-138511000I0J-237500D01*
G01*
X159237700Y-139111000D01*
G75*
G02*
X159000200Y-139348500I-237500J0D01*
G01*
X158525200Y-139348500D01*
G75*
G02*
X158287700Y-139111000I0J237500D01*
G01*
X158287700Y-138511000D01*
G75*
G02*
X158525200Y-138273500I237500J0D01*
G01*
G37*
G36*
G01*
X158525200Y-136548500D02*
X159000200Y-136548500D01*
G75*
G02*
X159237700Y-136786000I0J-237500D01*
G01*
X159237700Y-137386000D01*
G75*
G02*
X159000200Y-137623500I-237500J0D01*
G01*
X158525200Y-137623500D01*
G75*
G02*
X158287700Y-137386000I0J237500D01*
G01*
X158287700Y-136786000D01*
G75*
G02*
X158525200Y-136548500I237500J0D01*
G01*
G37*
G36*
G01*
X148837600Y-133874500D02*
X148837600Y-134349500D01*
G75*
G02*
X148600100Y-134587000I-237500J0D01*
G01*
X148000100Y-134587000D01*
G75*
G02*
X147762600Y-134349500I0J237500D01*
G01*
X147762600Y-133874500D01*
G75*
G02*
X148000100Y-133637000I237500J0D01*
G01*
X148600100Y-133637000D01*
G75*
G02*
X148837600Y-133874500I0J-237500D01*
G01*
G37*
G36*
G01*
X150562600Y-133874500D02*
X150562600Y-134349500D01*
G75*
G02*
X150325100Y-134587000I-237500J0D01*
G01*
X149725100Y-134587000D01*
G75*
G02*
X149487600Y-134349500I0J237500D01*
G01*
X149487600Y-133874500D01*
G75*
G02*
X149725100Y-133637000I237500J0D01*
G01*
X150325100Y-133637000D01*
G75*
G02*
X150562600Y-133874500I0J-237500D01*
G01*
G37*
G36*
G01*
X148850300Y-132375900D02*
X148850300Y-132850900D01*
G75*
G02*
X148612800Y-133088400I-237500J0D01*
G01*
X148012800Y-133088400D01*
G75*
G02*
X147775300Y-132850900I0J237500D01*
G01*
X147775300Y-132375900D01*
G75*
G02*
X148012800Y-132138400I237500J0D01*
G01*
X148612800Y-132138400D01*
G75*
G02*
X148850300Y-132375900I0J-237500D01*
G01*
G37*
G36*
G01*
X150575300Y-132375900D02*
X150575300Y-132850900D01*
G75*
G02*
X150337800Y-133088400I-237500J0D01*
G01*
X149737800Y-133088400D01*
G75*
G02*
X149500300Y-132850900I0J237500D01*
G01*
X149500300Y-132375900D01*
G75*
G02*
X149737800Y-132138400I237500J0D01*
G01*
X150337800Y-132138400D01*
G75*
G02*
X150575300Y-132375900I0J-237500D01*
G01*
G37*
G36*
G01*
X159393900Y-123450300D02*
X158918900Y-123450300D01*
G75*
G02*
X158681400Y-123212800I0J237500D01*
G01*
X158681400Y-122612800D01*
G75*
G02*
X158918900Y-122375300I237500J0D01*
G01*
X159393900Y-122375300D01*
G75*
G02*
X159631400Y-122612800I0J-237500D01*
G01*
X159631400Y-123212800D01*
G75*
G02*
X159393900Y-123450300I-237500J0D01*
G01*
G37*
G36*
G01*
X159393900Y-125175300D02*
X158918900Y-125175300D01*
G75*
G02*
X158681400Y-124937800I0J237500D01*
G01*
X158681400Y-124337800D01*
G75*
G02*
X158918900Y-124100300I237500J0D01*
G01*
X159393900Y-124100300D01*
G75*
G02*
X159631400Y-124337800I0J-237500D01*
G01*
X159631400Y-124937800D01*
G75*
G02*
X159393900Y-125175300I-237500J0D01*
G01*
G37*
G36*
G01*
X157869900Y-123449200D02*
X157394900Y-123449200D01*
G75*
G02*
X157157400Y-123211700I0J237500D01*
G01*
X157157400Y-122611700D01*
G75*
G02*
X157394900Y-122374200I237500J0D01*
G01*
X157869900Y-122374200D01*
G75*
G02*
X158107400Y-122611700I0J-237500D01*
G01*
X158107400Y-123211700D01*
G75*
G02*
X157869900Y-123449200I-237500J0D01*
G01*
G37*
G36*
G01*
X157869900Y-125174200D02*
X157394900Y-125174200D01*
G75*
G02*
X157157400Y-124936700I0J237500D01*
G01*
X157157400Y-124336700D01*
G75*
G02*
X157394900Y-124099200I237500J0D01*
G01*
X157869900Y-124099200D01*
G75*
G02*
X158107400Y-124336700I0J-237500D01*
G01*
X158107400Y-124936700D01*
G75*
G02*
X157869900Y-125174200I-237500J0D01*
G01*
G37*
G36*
G01*
X162657800Y-126282400D02*
X162182800Y-126282400D01*
G75*
G02*
X161945300Y-126044900I0J237500D01*
G01*
X161945300Y-125444900D01*
G75*
G02*
X162182800Y-125207400I237500J0D01*
G01*
X162657800Y-125207400D01*
G75*
G02*
X162895300Y-125444900I0J-237500D01*
G01*
X162895300Y-126044900D01*
G75*
G02*
X162657800Y-126282400I-237500J0D01*
G01*
G37*
G36*
G01*
X162657800Y-128007400D02*
X162182800Y-128007400D01*
G75*
G02*
X161945300Y-127769900I0J237500D01*
G01*
X161945300Y-127169900D01*
G75*
G02*
X162182800Y-126932400I237500J0D01*
G01*
X162657800Y-126932400D01*
G75*
G02*
X162895300Y-127169900I0J-237500D01*
G01*
X162895300Y-127769900D01*
G75*
G02*
X162657800Y-128007400I-237500J0D01*
G01*
G37*
G36*
G01*
X161133800Y-126282400D02*
X160658800Y-126282400D01*
G75*
G02*
X160421300Y-126044900I0J237500D01*
G01*
X160421300Y-125444900D01*
G75*
G02*
X160658800Y-125207400I237500J0D01*
G01*
X161133800Y-125207400D01*
G75*
G02*
X161371300Y-125444900I0J-237500D01*
G01*
X161371300Y-126044900D01*
G75*
G02*
X161133800Y-126282400I-237500J0D01*
G01*
G37*
G36*
G01*
X161133800Y-128007400D02*
X160658800Y-128007400D01*
G75*
G02*
X160421300Y-127769900I0J237500D01*
G01*
X160421300Y-127169900D01*
G75*
G02*
X160658800Y-126932400I237500J0D01*
G01*
X161133800Y-126932400D01*
G75*
G02*
X161371300Y-127169900I0J-237500D01*
G01*
X161371300Y-127769900D01*
G75*
G02*
X161133800Y-128007400I-237500J0D01*
G01*
G37*
D18*
X179857400Y-121767600D03*
X178557400Y-121767600D03*
D15*
X104876600Y-136690100D03*
X102336600Y-136690100D03*
X104876600Y-139230100D03*
X102336600Y-139230100D03*
X104876600Y-141770100D03*
X102336600Y-141770100D03*
X104876600Y-144310100D03*
X102336600Y-144310100D03*
X104876600Y-146850100D03*
D16*
X102336600Y-146850100D03*
D14*
X173990000Y-140677900D03*
X173990000Y-141977900D03*
X173990000Y-143277900D03*
X176898300Y-140660600D03*
X176898300Y-141960600D03*
X176898300Y-143260600D03*
X179946300Y-140665200D03*
X179946300Y-141965200D03*
X179946300Y-143265200D03*
D15*
X131483100Y-113182400D03*
D16*
X131483100Y-110642400D03*
M02*
