G04 #@! TF.GenerationSoftware,KiCad,Pcbnew,(5.1.12)-1*
G04 #@! TF.CreationDate,2022-06-02T09:48:45-07:00*
G04 #@! TF.ProjectId,vera-module-rev4,76657261-2d6d-46f6-9475-6c652d726576,rev?*
G04 #@! TF.SameCoordinates,Original*
G04 #@! TF.FileFunction,Legend,Top*
G04 #@! TF.FilePolarity,Positive*
%FSLAX46Y46*%
G04 Gerber Fmt 4.6, Leading zero omitted, Abs format (unit mm)*
G04 Created by KiCad (PCBNEW (5.1.12)-1) date 2022-06-02 09:48:45*
%MOMM*%
%LPD*%
G01*
G04 APERTURE LIST*
%ADD10C,0.300000*%
%ADD11C,0.120000*%
%ADD12C,0.150000*%
%ADD13C,0.100000*%
%ADD14C,0.140000*%
%ADD15C,2.800000*%
%ADD16O,1.700000X1.700000*%
%ADD17R,1.700000X1.700000*%
%ADD18C,2.000000*%
%ADD19R,1.900000X0.300000*%
%ADD20R,0.450000X1.500000*%
%ADD21R,8.000000X8.000000*%
%ADD22R,1.500000X0.300000*%
%ADD23R,0.300000X1.500000*%
%ADD24R,1.500000X0.550000*%
%ADD25R,0.550000X1.500000*%
%ADD26R,1.900000X1.300000*%
%ADD27R,2.800000X1.000000*%
%ADD28R,0.800000X1.000000*%
%ADD29R,1.200000X1.000000*%
%ADD30R,1.200000X0.700000*%
%ADD31R,1.600000X1.500000*%
%ADD32R,0.650000X1.060000*%
%ADD33R,1.060000X0.650000*%
%ADD34R,0.450000X1.450000*%
%ADD35R,3.600000X1.500000*%
G04 APERTURE END LIST*
D10*
X125355633Y-105111252D02*
X125922300Y-106561252D01*
X126488966Y-105111252D01*
X127055633Y-106561252D02*
X127055633Y-105111252D01*
X127460395Y-105111252D01*
X127703252Y-105180300D01*
X127865157Y-105318395D01*
X127946109Y-105456490D01*
X128027061Y-105732680D01*
X128027061Y-105939823D01*
X127946109Y-106216014D01*
X127865157Y-106354109D01*
X127703252Y-106492204D01*
X127460395Y-106561252D01*
X127055633Y-106561252D01*
X128755633Y-106561252D02*
X128755633Y-105111252D01*
X129403252Y-105111252D01*
X129565157Y-105180300D01*
X129646109Y-105249347D01*
X129727061Y-105387442D01*
X129727061Y-105594585D01*
X129646109Y-105732680D01*
X129565157Y-105801728D01*
X129403252Y-105870776D01*
X128755633Y-105870776D01*
D11*
X104458300Y-109662000D02*
X100458300Y-109662000D01*
X104458300Y-111562000D02*
X104458300Y-109662000D01*
X118698300Y-111562000D02*
X104458300Y-111562000D01*
X118698300Y-103122000D02*
X118698300Y-111562000D01*
X104458300Y-103122000D02*
X118698300Y-103122000D01*
X104458300Y-103422000D02*
X104458300Y-103122000D01*
X100458300Y-103422000D02*
X104458300Y-103422000D01*
X100458300Y-109662000D02*
X100458300Y-103422000D01*
X165379800Y-110215800D02*
X162519800Y-110215800D01*
X162519800Y-110215800D02*
X162519800Y-112135800D01*
X162519800Y-112135800D02*
X165379800Y-112135800D01*
X176720500Y-152057100D02*
X176720500Y-153327100D01*
X175450500Y-152057100D02*
X176720500Y-152057100D01*
X101410500Y-154370029D02*
X101410500Y-154824171D01*
X102170500Y-154370029D02*
X102170500Y-154824171D01*
X101410500Y-156910029D02*
X101410500Y-157307100D01*
X102170500Y-156910029D02*
X102170500Y-157307100D01*
X101410500Y-165967100D02*
X101410500Y-159967100D01*
X102170500Y-165967100D02*
X101410500Y-165967100D01*
X102170500Y-159967100D02*
X102170500Y-165967100D01*
X103060500Y-157307100D02*
X103060500Y-159967100D01*
X103950500Y-154370029D02*
X103950500Y-154824171D01*
X104710500Y-154370029D02*
X104710500Y-154824171D01*
X103950500Y-156910029D02*
X103950500Y-157307100D01*
X104710500Y-156910029D02*
X104710500Y-157307100D01*
X103950500Y-165967100D02*
X103950500Y-159967100D01*
X104710500Y-165967100D02*
X103950500Y-165967100D01*
X104710500Y-159967100D02*
X104710500Y-165967100D01*
X105600500Y-157307100D02*
X105600500Y-159967100D01*
X106490500Y-154370029D02*
X106490500Y-154824171D01*
X107250500Y-154370029D02*
X107250500Y-154824171D01*
X106490500Y-156910029D02*
X106490500Y-157307100D01*
X107250500Y-156910029D02*
X107250500Y-157307100D01*
X106490500Y-165967100D02*
X106490500Y-159967100D01*
X107250500Y-165967100D02*
X106490500Y-165967100D01*
X107250500Y-159967100D02*
X107250500Y-165967100D01*
X108140500Y-157307100D02*
X108140500Y-159967100D01*
X109030500Y-154370029D02*
X109030500Y-154824171D01*
X109790500Y-154370029D02*
X109790500Y-154824171D01*
X109030500Y-156910029D02*
X109030500Y-157307100D01*
X109790500Y-156910029D02*
X109790500Y-157307100D01*
X109030500Y-165967100D02*
X109030500Y-159967100D01*
X109790500Y-165967100D02*
X109030500Y-165967100D01*
X109790500Y-159967100D02*
X109790500Y-165967100D01*
X110680500Y-157307100D02*
X110680500Y-159967100D01*
X111570500Y-154370029D02*
X111570500Y-154824171D01*
X112330500Y-154370029D02*
X112330500Y-154824171D01*
X111570500Y-156910029D02*
X111570500Y-157307100D01*
X112330500Y-156910029D02*
X112330500Y-157307100D01*
X111570500Y-165967100D02*
X111570500Y-159967100D01*
X112330500Y-165967100D02*
X111570500Y-165967100D01*
X112330500Y-159967100D02*
X112330500Y-165967100D01*
X113220500Y-157307100D02*
X113220500Y-159967100D01*
X114110500Y-154370029D02*
X114110500Y-154824171D01*
X114870500Y-154370029D02*
X114870500Y-154824171D01*
X114110500Y-156910029D02*
X114110500Y-157307100D01*
X114870500Y-156910029D02*
X114870500Y-157307100D01*
X114110500Y-165967100D02*
X114110500Y-159967100D01*
X114870500Y-165967100D02*
X114110500Y-165967100D01*
X114870500Y-159967100D02*
X114870500Y-165967100D01*
X115760500Y-157307100D02*
X115760500Y-159967100D01*
X116650500Y-154370029D02*
X116650500Y-154824171D01*
X117410500Y-154370029D02*
X117410500Y-154824171D01*
X116650500Y-156910029D02*
X116650500Y-157307100D01*
X117410500Y-156910029D02*
X117410500Y-157307100D01*
X116650500Y-165967100D02*
X116650500Y-159967100D01*
X117410500Y-165967100D02*
X116650500Y-165967100D01*
X117410500Y-159967100D02*
X117410500Y-165967100D01*
X118300500Y-157307100D02*
X118300500Y-159967100D01*
X119190500Y-154370029D02*
X119190500Y-154824171D01*
X119950500Y-154370029D02*
X119950500Y-154824171D01*
X119190500Y-156910029D02*
X119190500Y-157307100D01*
X119950500Y-156910029D02*
X119950500Y-157307100D01*
X119190500Y-165967100D02*
X119190500Y-159967100D01*
X119950500Y-165967100D02*
X119190500Y-165967100D01*
X119950500Y-159967100D02*
X119950500Y-165967100D01*
X120840500Y-157307100D02*
X120840500Y-159967100D01*
X121730500Y-154370029D02*
X121730500Y-154824171D01*
X122490500Y-154370029D02*
X122490500Y-154824171D01*
X121730500Y-156910029D02*
X121730500Y-157307100D01*
X122490500Y-156910029D02*
X122490500Y-157307100D01*
X121730500Y-165967100D02*
X121730500Y-159967100D01*
X122490500Y-165967100D02*
X121730500Y-165967100D01*
X122490500Y-159967100D02*
X122490500Y-165967100D01*
X123380500Y-157307100D02*
X123380500Y-159967100D01*
X124270500Y-154370029D02*
X124270500Y-154824171D01*
X125030500Y-154370029D02*
X125030500Y-154824171D01*
X124270500Y-156910029D02*
X124270500Y-157307100D01*
X125030500Y-156910029D02*
X125030500Y-157307100D01*
X124270500Y-165967100D02*
X124270500Y-159967100D01*
X125030500Y-165967100D02*
X124270500Y-165967100D01*
X125030500Y-159967100D02*
X125030500Y-165967100D01*
X125920500Y-157307100D02*
X125920500Y-159967100D01*
X126810500Y-154370029D02*
X126810500Y-154824171D01*
X127570500Y-154370029D02*
X127570500Y-154824171D01*
X126810500Y-156910029D02*
X126810500Y-157307100D01*
X127570500Y-156910029D02*
X127570500Y-157307100D01*
X126810500Y-165967100D02*
X126810500Y-159967100D01*
X127570500Y-165967100D02*
X126810500Y-165967100D01*
X127570500Y-159967100D02*
X127570500Y-165967100D01*
X128460500Y-157307100D02*
X128460500Y-159967100D01*
X129350500Y-154370029D02*
X129350500Y-154824171D01*
X130110500Y-154370029D02*
X130110500Y-154824171D01*
X129350500Y-156910029D02*
X129350500Y-157307100D01*
X130110500Y-156910029D02*
X130110500Y-157307100D01*
X129350500Y-165967100D02*
X129350500Y-159967100D01*
X130110500Y-165967100D02*
X129350500Y-165967100D01*
X130110500Y-159967100D02*
X130110500Y-165967100D01*
X131000500Y-157307100D02*
X131000500Y-159967100D01*
X131890500Y-154370029D02*
X131890500Y-154824171D01*
X132650500Y-154370029D02*
X132650500Y-154824171D01*
X131890500Y-156910029D02*
X131890500Y-157307100D01*
X132650500Y-156910029D02*
X132650500Y-157307100D01*
X131890500Y-165967100D02*
X131890500Y-159967100D01*
X132650500Y-165967100D02*
X131890500Y-165967100D01*
X132650500Y-159967100D02*
X132650500Y-165967100D01*
X133540500Y-157307100D02*
X133540500Y-159967100D01*
X134430500Y-154370029D02*
X134430500Y-154824171D01*
X135190500Y-154370029D02*
X135190500Y-154824171D01*
X134430500Y-156910029D02*
X134430500Y-157307100D01*
X135190500Y-156910029D02*
X135190500Y-157307100D01*
X134430500Y-165967100D02*
X134430500Y-159967100D01*
X135190500Y-165967100D02*
X134430500Y-165967100D01*
X135190500Y-159967100D02*
X135190500Y-165967100D01*
X136080500Y-157307100D02*
X136080500Y-159967100D01*
X136970500Y-154370029D02*
X136970500Y-154824171D01*
X137730500Y-154370029D02*
X137730500Y-154824171D01*
X136970500Y-156910029D02*
X136970500Y-157307100D01*
X137730500Y-156910029D02*
X137730500Y-157307100D01*
X136970500Y-165967100D02*
X136970500Y-159967100D01*
X137730500Y-165967100D02*
X136970500Y-165967100D01*
X137730500Y-159967100D02*
X137730500Y-165967100D01*
X138620500Y-157307100D02*
X138620500Y-159967100D01*
X139510500Y-154370029D02*
X139510500Y-154824171D01*
X140270500Y-154370029D02*
X140270500Y-154824171D01*
X139510500Y-156910029D02*
X139510500Y-157307100D01*
X140270500Y-156910029D02*
X140270500Y-157307100D01*
X139510500Y-165967100D02*
X139510500Y-159967100D01*
X140270500Y-165967100D02*
X139510500Y-165967100D01*
X140270500Y-159967100D02*
X140270500Y-165967100D01*
X141160500Y-157307100D02*
X141160500Y-159967100D01*
X142050500Y-154370029D02*
X142050500Y-154824171D01*
X142810500Y-154370029D02*
X142810500Y-154824171D01*
X142050500Y-156910029D02*
X142050500Y-157307100D01*
X142810500Y-156910029D02*
X142810500Y-157307100D01*
X142050500Y-165967100D02*
X142050500Y-159967100D01*
X142810500Y-165967100D02*
X142050500Y-165967100D01*
X142810500Y-159967100D02*
X142810500Y-165967100D01*
X143700500Y-157307100D02*
X143700500Y-159967100D01*
X144590500Y-154370029D02*
X144590500Y-154824171D01*
X145350500Y-154370029D02*
X145350500Y-154824171D01*
X144590500Y-156910029D02*
X144590500Y-157307100D01*
X145350500Y-156910029D02*
X145350500Y-157307100D01*
X144590500Y-165967100D02*
X144590500Y-159967100D01*
X145350500Y-165967100D02*
X144590500Y-165967100D01*
X145350500Y-159967100D02*
X145350500Y-165967100D01*
X146240500Y-157307100D02*
X146240500Y-159967100D01*
X147130500Y-154370029D02*
X147130500Y-154824171D01*
X147890500Y-154370029D02*
X147890500Y-154824171D01*
X147130500Y-156910029D02*
X147130500Y-157307100D01*
X147890500Y-156910029D02*
X147890500Y-157307100D01*
X147130500Y-165967100D02*
X147130500Y-159967100D01*
X147890500Y-165967100D02*
X147130500Y-165967100D01*
X147890500Y-159967100D02*
X147890500Y-165967100D01*
X148780500Y-157307100D02*
X148780500Y-159967100D01*
X149670500Y-154370029D02*
X149670500Y-154824171D01*
X150430500Y-154370029D02*
X150430500Y-154824171D01*
X149670500Y-156910029D02*
X149670500Y-157307100D01*
X150430500Y-156910029D02*
X150430500Y-157307100D01*
X149670500Y-165967100D02*
X149670500Y-159967100D01*
X150430500Y-165967100D02*
X149670500Y-165967100D01*
X150430500Y-159967100D02*
X150430500Y-165967100D01*
X151320500Y-157307100D02*
X151320500Y-159967100D01*
X152210500Y-154370029D02*
X152210500Y-154824171D01*
X152970500Y-154370029D02*
X152970500Y-154824171D01*
X152210500Y-156910029D02*
X152210500Y-157307100D01*
X152970500Y-156910029D02*
X152970500Y-157307100D01*
X152210500Y-165967100D02*
X152210500Y-159967100D01*
X152970500Y-165967100D02*
X152210500Y-165967100D01*
X152970500Y-159967100D02*
X152970500Y-165967100D01*
X153860500Y-157307100D02*
X153860500Y-159967100D01*
X154750500Y-154370029D02*
X154750500Y-154824171D01*
X155510500Y-154370029D02*
X155510500Y-154824171D01*
X154750500Y-156910029D02*
X154750500Y-157307100D01*
X155510500Y-156910029D02*
X155510500Y-157307100D01*
X154750500Y-165967100D02*
X154750500Y-159967100D01*
X155510500Y-165967100D02*
X154750500Y-165967100D01*
X155510500Y-159967100D02*
X155510500Y-165967100D01*
X156400500Y-157307100D02*
X156400500Y-159967100D01*
X157290500Y-154370029D02*
X157290500Y-154824171D01*
X158050500Y-154370029D02*
X158050500Y-154824171D01*
X157290500Y-156910029D02*
X157290500Y-157307100D01*
X158050500Y-156910029D02*
X158050500Y-157307100D01*
X157290500Y-165967100D02*
X157290500Y-159967100D01*
X158050500Y-165967100D02*
X157290500Y-165967100D01*
X158050500Y-159967100D02*
X158050500Y-165967100D01*
X158940500Y-157307100D02*
X158940500Y-159967100D01*
X159830500Y-154370029D02*
X159830500Y-154824171D01*
X160590500Y-154370029D02*
X160590500Y-154824171D01*
X159830500Y-156910029D02*
X159830500Y-157307100D01*
X160590500Y-156910029D02*
X160590500Y-157307100D01*
X159830500Y-165967100D02*
X159830500Y-159967100D01*
X160590500Y-165967100D02*
X159830500Y-165967100D01*
X160590500Y-159967100D02*
X160590500Y-165967100D01*
X161480500Y-157307100D02*
X161480500Y-159967100D01*
X162370500Y-154370029D02*
X162370500Y-154824171D01*
X163130500Y-154370029D02*
X163130500Y-154824171D01*
X162370500Y-156910029D02*
X162370500Y-157307100D01*
X163130500Y-156910029D02*
X163130500Y-157307100D01*
X162370500Y-165967100D02*
X162370500Y-159967100D01*
X163130500Y-165967100D02*
X162370500Y-165967100D01*
X163130500Y-159967100D02*
X163130500Y-165967100D01*
X164020500Y-157307100D02*
X164020500Y-159967100D01*
X164910500Y-154370029D02*
X164910500Y-154824171D01*
X165670500Y-154370029D02*
X165670500Y-154824171D01*
X164910500Y-156910029D02*
X164910500Y-157307100D01*
X165670500Y-156910029D02*
X165670500Y-157307100D01*
X164910500Y-165967100D02*
X164910500Y-159967100D01*
X165670500Y-165967100D02*
X164910500Y-165967100D01*
X165670500Y-159967100D02*
X165670500Y-165967100D01*
X166560500Y-157307100D02*
X166560500Y-159967100D01*
X167450500Y-154370029D02*
X167450500Y-154824171D01*
X168210500Y-154370029D02*
X168210500Y-154824171D01*
X167450500Y-156910029D02*
X167450500Y-157307100D01*
X168210500Y-156910029D02*
X168210500Y-157307100D01*
X167450500Y-165967100D02*
X167450500Y-159967100D01*
X168210500Y-165967100D02*
X167450500Y-165967100D01*
X168210500Y-159967100D02*
X168210500Y-165967100D01*
X169100500Y-157307100D02*
X169100500Y-159967100D01*
X169990500Y-154370029D02*
X169990500Y-154824171D01*
X170750500Y-154370029D02*
X170750500Y-154824171D01*
X169990500Y-156910029D02*
X169990500Y-157307100D01*
X170750500Y-156910029D02*
X170750500Y-157307100D01*
X169990500Y-165967100D02*
X169990500Y-159967100D01*
X170750500Y-165967100D02*
X169990500Y-165967100D01*
X170750500Y-159967100D02*
X170750500Y-165967100D01*
X171640500Y-157307100D02*
X171640500Y-159967100D01*
X172530500Y-154370029D02*
X172530500Y-154824171D01*
X173290500Y-154370029D02*
X173290500Y-154824171D01*
X172530500Y-156910029D02*
X172530500Y-157307100D01*
X173290500Y-156910029D02*
X173290500Y-157307100D01*
X172530500Y-165967100D02*
X172530500Y-159967100D01*
X173290500Y-165967100D02*
X172530500Y-165967100D01*
X173290500Y-159967100D02*
X173290500Y-165967100D01*
X174180500Y-157307100D02*
X174180500Y-159967100D01*
X175070500Y-154437100D02*
X175070500Y-154824171D01*
X175830500Y-154437100D02*
X175830500Y-154824171D01*
X175070500Y-156910029D02*
X175070500Y-157307100D01*
X175830500Y-156910029D02*
X175830500Y-157307100D01*
X175170500Y-159967100D02*
X175170500Y-165967100D01*
X175290500Y-159967100D02*
X175290500Y-165967100D01*
X175410500Y-159967100D02*
X175410500Y-165967100D01*
X175530500Y-159967100D02*
X175530500Y-165967100D01*
X175650500Y-159967100D02*
X175650500Y-165967100D01*
X175770500Y-159967100D02*
X175770500Y-165967100D01*
X175070500Y-165967100D02*
X175070500Y-159967100D01*
X175830500Y-165967100D02*
X175070500Y-165967100D01*
X175830500Y-159967100D02*
X175830500Y-165967100D01*
X176780500Y-159967100D02*
X176780500Y-157307100D01*
X100460500Y-159967100D02*
X176780500Y-159967100D01*
X100460500Y-157307100D02*
X100460500Y-159967100D01*
X176780500Y-157307100D02*
X100460500Y-157307100D01*
X137160000Y-114312700D02*
X137160000Y-113042700D01*
X138430000Y-114312700D02*
X137160000Y-114312700D01*
X156590000Y-111999771D02*
X156590000Y-111602700D01*
X155830000Y-111999771D02*
X155830000Y-111602700D01*
X156590000Y-102942700D02*
X156590000Y-108942700D01*
X155830000Y-102942700D02*
X156590000Y-102942700D01*
X155830000Y-108942700D02*
X155830000Y-102942700D01*
X154940000Y-111602700D02*
X154940000Y-108942700D01*
X154050000Y-111999771D02*
X154050000Y-111602700D01*
X153290000Y-111999771D02*
X153290000Y-111602700D01*
X154050000Y-102942700D02*
X154050000Y-108942700D01*
X153290000Y-102942700D02*
X154050000Y-102942700D01*
X153290000Y-108942700D02*
X153290000Y-102942700D01*
X152400000Y-111602700D02*
X152400000Y-108942700D01*
X151510000Y-111999771D02*
X151510000Y-111602700D01*
X150750000Y-111999771D02*
X150750000Y-111602700D01*
X151510000Y-102942700D02*
X151510000Y-108942700D01*
X150750000Y-102942700D02*
X151510000Y-102942700D01*
X150750000Y-108942700D02*
X150750000Y-102942700D01*
X149860000Y-111602700D02*
X149860000Y-108942700D01*
X148970000Y-111999771D02*
X148970000Y-111602700D01*
X148210000Y-111999771D02*
X148210000Y-111602700D01*
X148970000Y-102942700D02*
X148970000Y-108942700D01*
X148210000Y-102942700D02*
X148970000Y-102942700D01*
X148210000Y-108942700D02*
X148210000Y-102942700D01*
X147320000Y-111602700D02*
X147320000Y-108942700D01*
X146430000Y-111999771D02*
X146430000Y-111602700D01*
X145670000Y-111999771D02*
X145670000Y-111602700D01*
X146430000Y-102942700D02*
X146430000Y-108942700D01*
X145670000Y-102942700D02*
X146430000Y-102942700D01*
X145670000Y-108942700D02*
X145670000Y-102942700D01*
X144780000Y-111602700D02*
X144780000Y-108942700D01*
X143890000Y-111999771D02*
X143890000Y-111602700D01*
X143130000Y-111999771D02*
X143130000Y-111602700D01*
X143890000Y-102942700D02*
X143890000Y-108942700D01*
X143130000Y-102942700D02*
X143890000Y-102942700D01*
X143130000Y-108942700D02*
X143130000Y-102942700D01*
X142240000Y-111602700D02*
X142240000Y-108942700D01*
X141350000Y-111999771D02*
X141350000Y-111602700D01*
X140590000Y-111999771D02*
X140590000Y-111602700D01*
X141350000Y-102942700D02*
X141350000Y-108942700D01*
X140590000Y-102942700D02*
X141350000Y-102942700D01*
X140590000Y-108942700D02*
X140590000Y-102942700D01*
X139700000Y-111602700D02*
X139700000Y-108942700D01*
X138810000Y-111932700D02*
X138810000Y-111602700D01*
X138050000Y-111932700D02*
X138050000Y-111602700D01*
X138710000Y-108942700D02*
X138710000Y-102942700D01*
X138590000Y-108942700D02*
X138590000Y-102942700D01*
X138470000Y-108942700D02*
X138470000Y-102942700D01*
X138350000Y-108942700D02*
X138350000Y-102942700D01*
X138230000Y-108942700D02*
X138230000Y-102942700D01*
X138110000Y-108942700D02*
X138110000Y-102942700D01*
X138810000Y-102942700D02*
X138810000Y-108942700D01*
X138050000Y-102942700D02*
X138810000Y-102942700D01*
X138050000Y-108942700D02*
X138050000Y-102942700D01*
X137100000Y-108942700D02*
X137100000Y-111602700D01*
X157540000Y-108942700D02*
X137100000Y-108942700D01*
X157540000Y-111602700D02*
X157540000Y-108942700D01*
X137100000Y-111602700D02*
X157540000Y-111602700D01*
X124051600Y-128033733D02*
X124051600Y-128326267D01*
X125071600Y-128033733D02*
X125071600Y-128326267D01*
X144653500Y-132539500D02*
X144653500Y-131249500D01*
X144853500Y-132539500D02*
X144653500Y-132539500D01*
X144853500Y-135699500D02*
X144853500Y-132539500D01*
X144853500Y-138859500D02*
X144653500Y-138859500D01*
X144853500Y-135699500D02*
X144853500Y-138859500D01*
X132133500Y-132539500D02*
X132333500Y-132539500D01*
X132133500Y-135699500D02*
X132133500Y-132539500D01*
X132133500Y-138859500D02*
X132333500Y-138859500D01*
X132133500Y-135699500D02*
X132133500Y-138859500D01*
X163946924Y-115758700D02*
X163437476Y-115758700D01*
X163946924Y-116803700D02*
X163437476Y-116803700D01*
X111908900Y-123237300D02*
X110578900Y-123237300D01*
X111908900Y-121907300D02*
X111908900Y-123237300D01*
X111908900Y-120637300D02*
X109248900Y-120637300D01*
X109248900Y-120637300D02*
X109248900Y-118037300D01*
X111908900Y-120637300D02*
X111908900Y-118037300D01*
X111908900Y-118037300D02*
X109248900Y-118037300D01*
X196187800Y-140280000D02*
X193187800Y-140280000D01*
X191087800Y-140280000D02*
X191087800Y-137080000D01*
X198687800Y-140280000D02*
X199687800Y-140280000D01*
X199687800Y-123880000D02*
X198687800Y-123880000D01*
X191087800Y-123880000D02*
X191687800Y-123880000D01*
X191087800Y-123880000D02*
X191087800Y-126580000D01*
X191087800Y-126580000D02*
X190437800Y-126580000D01*
X191087800Y-140280000D02*
X191687800Y-140280000D01*
X196187800Y-123880000D02*
X193187800Y-123880000D01*
D12*
X119107300Y-125758500D02*
X119107300Y-119783500D01*
X124632300Y-124183500D02*
X124632300Y-119783500D01*
D11*
X116787400Y-117869876D02*
X116787400Y-118379324D01*
X117832400Y-117869876D02*
X117832400Y-118379324D01*
X117832400Y-126099024D02*
X117832400Y-125589576D01*
X116787400Y-126099024D02*
X116787400Y-125589576D01*
X122362500Y-128046433D02*
X122362500Y-128338967D01*
X123382500Y-128046433D02*
X123382500Y-128338967D01*
X119784400Y-128136433D02*
X119784400Y-128428967D01*
X120804400Y-128136433D02*
X120804400Y-128428967D01*
X121660533Y-117337300D02*
X121953067Y-117337300D01*
X121660533Y-116317300D02*
X121953067Y-116317300D01*
X115021900Y-117990233D02*
X115021900Y-118282767D01*
X116041900Y-117990233D02*
X116041900Y-118282767D01*
X116312733Y-122252200D02*
X116605267Y-122252200D01*
X116312733Y-121232200D02*
X116605267Y-121232200D01*
X116041900Y-125990567D02*
X116041900Y-125698033D01*
X115021900Y-125990567D02*
X115021900Y-125698033D01*
X139964900Y-122488876D02*
X139964900Y-122998324D01*
X141009900Y-122488876D02*
X141009900Y-122998324D01*
X141035300Y-126935324D02*
X141035300Y-126425876D01*
X139990300Y-126935324D02*
X139990300Y-126425876D01*
X142438167Y-119187500D02*
X142145633Y-119187500D01*
X142438167Y-120207500D02*
X142145633Y-120207500D01*
X131205500Y-140575124D02*
X131205500Y-140065676D01*
X130160500Y-140575124D02*
X130160500Y-140065676D01*
X136507267Y-129030000D02*
X136214733Y-129030000D01*
X136507267Y-130050000D02*
X136214733Y-130050000D01*
X136400000Y-124617867D02*
X136400000Y-124325333D01*
X135380000Y-124617867D02*
X135380000Y-124325333D01*
X178378000Y-111544100D02*
X178378000Y-107944100D01*
X178378000Y-111544100D02*
X178378000Y-113744100D01*
X173158000Y-111544100D02*
X173158000Y-109344100D01*
X173158000Y-111544100D02*
X173158000Y-113744100D01*
X185357224Y-119403600D02*
X184847776Y-119403600D01*
X185357224Y-120448600D02*
X184847776Y-120448600D01*
X178453833Y-117388100D02*
X178746367Y-117388100D01*
X178453833Y-116368100D02*
X178746367Y-116368100D01*
X196502348Y-146048400D02*
X197024852Y-146048400D01*
X196502348Y-144578400D02*
X197024852Y-144578400D01*
X196519076Y-152389100D02*
X197028524Y-152389100D01*
X196519076Y-151344100D02*
X197028524Y-151344100D01*
X193851200Y-148940152D02*
X193851200Y-148417648D01*
X192381200Y-148940152D02*
X192381200Y-148417648D01*
X188049624Y-146734000D02*
X187540176Y-146734000D01*
X188049624Y-147779000D02*
X187540176Y-147779000D01*
X187540176Y-149303000D02*
X188049624Y-149303000D01*
X187540176Y-148258000D02*
X188049624Y-148258000D01*
X181374148Y-148512200D02*
X181896652Y-148512200D01*
X181374148Y-147042200D02*
X181896652Y-147042200D01*
X188049624Y-156474900D02*
X187540176Y-156474900D01*
X188049624Y-157519900D02*
X187540176Y-157519900D01*
X163946924Y-119966000D02*
X163437476Y-119966000D01*
X163946924Y-118921000D02*
X163437476Y-118921000D01*
X163946924Y-117333500D02*
X163437476Y-117333500D01*
X163946924Y-118378500D02*
X163437476Y-118378500D01*
X186044100Y-139472576D02*
X186044100Y-139982024D01*
X184999100Y-139472576D02*
X184999100Y-139982024D01*
X185024500Y-124114476D02*
X185024500Y-124623924D01*
X186069500Y-124114476D02*
X186069500Y-124623924D01*
X172869900Y-135686300D02*
X172869900Y-136961300D01*
X171919900Y-125336300D02*
X171919900Y-126386300D01*
X182269900Y-125336300D02*
X182269900Y-126386300D01*
X182269900Y-135686300D02*
X182269900Y-134636300D01*
X171919900Y-135686300D02*
X171919900Y-134636300D01*
X182269900Y-135686300D02*
X181219900Y-135686300D01*
X182269900Y-125336300D02*
X181219900Y-125336300D01*
X171919900Y-125336300D02*
X172969900Y-125336300D01*
X171919900Y-135686300D02*
X172869900Y-135686300D01*
X109933824Y-133732800D02*
X109424376Y-133732800D01*
X109933824Y-132687800D02*
X109424376Y-132687800D01*
X113208976Y-132713200D02*
X113718424Y-132713200D01*
X113208976Y-133758200D02*
X113718424Y-133758200D01*
X119665967Y-150789100D02*
X119373433Y-150789100D01*
X119665967Y-149769100D02*
X119373433Y-149769100D01*
X110610867Y-142864300D02*
X110318333Y-142864300D01*
X110610867Y-141844300D02*
X110318333Y-141844300D01*
X128465533Y-141857000D02*
X128758067Y-141857000D01*
X128465533Y-142877000D02*
X128758067Y-142877000D01*
X116622100Y-133369267D02*
X116622100Y-133076733D01*
X117642100Y-133369267D02*
X117642100Y-133076733D01*
X106206600Y-148180100D02*
X103606600Y-148180100D01*
X106206600Y-148180100D02*
X106206600Y-135360100D01*
X106206600Y-135360100D02*
X101006600Y-135360100D01*
X101006600Y-145580100D02*
X101006600Y-135360100D01*
X103606600Y-145580100D02*
X101006600Y-145580100D01*
X103606600Y-148180100D02*
X103606600Y-145580100D01*
X101006600Y-148180100D02*
X101006600Y-146850100D01*
X102336600Y-148180100D02*
X101006600Y-148180100D01*
X184973700Y-134348758D02*
X184973700Y-133874242D01*
X186018700Y-134348758D02*
X186018700Y-133874242D01*
X179402200Y-139718833D02*
X179402200Y-140011367D01*
X178382200Y-139718833D02*
X178382200Y-140011367D01*
X168624467Y-136044400D02*
X168331933Y-136044400D01*
X168624467Y-135024400D02*
X168331933Y-135024400D01*
X184367900Y-139565333D02*
X184367900Y-139857867D01*
X183347900Y-139565333D02*
X183347900Y-139857867D01*
D12*
X124132400Y-137179300D02*
X124132400Y-135904300D01*
X124707400Y-147529300D02*
X124707400Y-146854300D01*
X114357400Y-147529300D02*
X114357400Y-146854300D01*
X114357400Y-137179300D02*
X114357400Y-137854300D01*
X124707400Y-137179300D02*
X124707400Y-137854300D01*
X114357400Y-137179300D02*
X115032400Y-137179300D01*
X114357400Y-147529300D02*
X115032400Y-147529300D01*
X124707400Y-147529300D02*
X124032400Y-147529300D01*
X124707400Y-137179300D02*
X124132400Y-137179300D01*
D11*
X183173800Y-105554700D02*
X183173800Y-103634700D01*
X183173800Y-103634700D02*
X197183800Y-103634700D01*
X183173800Y-117154700D02*
X183173800Y-117604700D01*
X183173800Y-117604700D02*
X186783800Y-117604700D01*
X199443800Y-105314700D02*
X199443800Y-107624700D01*
X199443800Y-116574700D02*
X199443800Y-114714700D01*
X199443800Y-116574700D02*
X199243800Y-116774700D01*
X188483800Y-117604700D02*
X193183800Y-117604700D01*
X194483800Y-117604700D02*
X196283800Y-117604700D01*
X199093800Y-114504700D02*
X199093800Y-108134700D01*
X199093800Y-114504700D02*
X199243800Y-114504700D01*
X199443800Y-114714700D02*
X199243800Y-114504700D01*
X199443800Y-105314700D02*
X199243800Y-105114700D01*
X199243800Y-105114700D02*
X199243800Y-104854700D01*
X199443800Y-107624700D02*
X199093800Y-108134700D01*
X130153100Y-109312400D02*
X131483100Y-109312400D01*
X130153100Y-110642400D02*
X130153100Y-109312400D01*
X130153100Y-111912400D02*
X132813100Y-111912400D01*
X132813100Y-111912400D02*
X132813100Y-114512400D01*
X130153100Y-111912400D02*
X130153100Y-114512400D01*
X130153100Y-114512400D02*
X132813100Y-114512400D01*
X160411700Y-140947021D02*
X160411700Y-141272579D01*
X161431700Y-140947021D02*
X161431700Y-141272579D01*
X164626800Y-143222300D02*
X164626800Y-143472300D01*
X165166800Y-143222300D02*
X164626800Y-143222300D01*
X162196800Y-139622300D02*
X162626800Y-139622300D01*
X162196800Y-143222300D02*
X162196800Y-139622300D01*
X162626800Y-143222300D02*
X162196800Y-143222300D01*
X162626800Y-143472300D02*
X162626800Y-143222300D01*
X164626800Y-139622300D02*
X165166800Y-139622300D01*
X167596800Y-143222300D02*
X167166800Y-143222300D01*
X167596800Y-139622300D02*
X167596800Y-143222300D01*
X167166800Y-139622300D02*
X167596800Y-139622300D01*
X195138400Y-147690000D02*
X195138400Y-150140000D01*
X198358400Y-149490000D02*
X198358400Y-147690000D01*
X188504400Y-150878900D02*
X186054400Y-150878900D01*
X186704400Y-154098900D02*
X188504400Y-154098900D01*
X142664500Y-124637800D02*
X142664500Y-128087800D01*
X142664500Y-124637800D02*
X142664500Y-122687800D01*
X147784500Y-124637800D02*
X147784500Y-126587800D01*
X147784500Y-124637800D02*
X147784500Y-122687800D01*
D12*
X133767200Y-119658500D02*
X133767200Y-118308500D01*
X128642200Y-119658500D02*
X128642200Y-124308500D01*
X133892200Y-119658500D02*
X133892200Y-124308500D01*
X128642200Y-119658500D02*
X128867200Y-119658500D01*
X128642200Y-124308500D02*
X128867200Y-124308500D01*
X133892200Y-124308500D02*
X133667200Y-124308500D01*
X133892200Y-119658500D02*
X133767200Y-119658500D01*
D11*
X159679900Y-127927800D02*
X159679900Y-127452800D01*
X152459900Y-134672800D02*
X152934900Y-134672800D01*
X152459900Y-134197800D02*
X152459900Y-134672800D01*
X152459900Y-127452800D02*
X152934900Y-127452800D01*
X152459900Y-127927800D02*
X152459900Y-127452800D01*
X159679900Y-134672800D02*
X159204900Y-134672800D01*
X159679900Y-134197800D02*
X159679900Y-134672800D01*
X183783500Y-154265300D02*
X183783500Y-153240300D01*
X183783500Y-149495300D02*
X183783500Y-150520300D01*
X183783500Y-154265300D02*
X182758500Y-154265300D01*
X183783500Y-149495300D02*
X182758500Y-149495300D01*
X179563500Y-149495300D02*
X180588500Y-149495300D01*
X179563500Y-149495300D02*
X179563500Y-150520300D01*
X179563500Y-154265300D02*
X179563500Y-153240300D01*
X179563500Y-154265300D02*
X180588500Y-154265300D01*
X191123500Y-154133022D02*
X191123500Y-154650178D01*
X192543500Y-154133022D02*
X192543500Y-154650178D01*
D12*
X98780680Y-107675333D02*
X99494966Y-107675333D01*
X99637823Y-107722952D01*
X99733061Y-107818190D01*
X99780680Y-107961047D01*
X99780680Y-108056285D01*
X98780680Y-106722952D02*
X98780680Y-107199142D01*
X99256871Y-107246761D01*
X99209252Y-107199142D01*
X99161633Y-107103904D01*
X99161633Y-106865809D01*
X99209252Y-106770571D01*
X99256871Y-106722952D01*
X99352109Y-106675333D01*
X99590204Y-106675333D01*
X99685442Y-106722952D01*
X99733061Y-106770571D01*
X99780680Y-106865809D01*
X99780680Y-107103904D01*
X99733061Y-107199142D01*
X99685442Y-107246761D01*
X163641704Y-109978180D02*
X163641704Y-108978180D01*
X163879800Y-108978180D01*
X164022657Y-109025800D01*
X164117895Y-109121038D01*
X164165514Y-109216276D01*
X164213133Y-109406752D01*
X164213133Y-109549609D01*
X164165514Y-109740085D01*
X164117895Y-109835323D01*
X164022657Y-109930561D01*
X163879800Y-109978180D01*
X163641704Y-109978180D01*
X165165514Y-109978180D02*
X164594085Y-109978180D01*
X164879800Y-109978180D02*
X164879800Y-108978180D01*
X164784561Y-109121038D01*
X164689323Y-109216276D01*
X164594085Y-109263895D01*
X177172880Y-159315433D02*
X177887166Y-159315433D01*
X178030023Y-159363052D01*
X178125261Y-159458290D01*
X178172880Y-159601147D01*
X178172880Y-159696385D01*
X178172880Y-158315433D02*
X178172880Y-158886861D01*
X178172880Y-158601147D02*
X177172880Y-158601147D01*
X177315738Y-158696385D01*
X177410976Y-158791623D01*
X177458595Y-158886861D01*
X135612380Y-108991033D02*
X136326666Y-108991033D01*
X136469523Y-109038652D01*
X136564761Y-109133890D01*
X136612380Y-109276747D01*
X136612380Y-109371985D01*
X135707619Y-108562461D02*
X135660000Y-108514842D01*
X135612380Y-108419604D01*
X135612380Y-108181509D01*
X135660000Y-108086271D01*
X135707619Y-108038652D01*
X135802857Y-107991033D01*
X135898095Y-107991033D01*
X136040952Y-108038652D01*
X136612380Y-108610080D01*
X136612380Y-107991033D01*
D13*
X124961614Y-131552885D02*
X124999709Y-131590980D01*
X125037804Y-131705266D01*
X125037804Y-131781457D01*
X124999709Y-131895742D01*
X124923519Y-131971933D01*
X124847328Y-132010028D01*
X124694947Y-132048123D01*
X124580661Y-132048123D01*
X124428280Y-132010028D01*
X124352090Y-131971933D01*
X124275900Y-131895742D01*
X124237804Y-131781457D01*
X124237804Y-131705266D01*
X124275900Y-131590980D01*
X124313995Y-131552885D01*
X124237804Y-131286219D02*
X124237804Y-130790980D01*
X124542566Y-131057647D01*
X124542566Y-130943361D01*
X124580661Y-130867171D01*
X124618757Y-130829076D01*
X124694947Y-130790980D01*
X124885423Y-130790980D01*
X124961614Y-130829076D01*
X124999709Y-130867171D01*
X125037804Y-130943361D01*
X125037804Y-131171933D01*
X124999709Y-131248123D01*
X124961614Y-131286219D01*
X124237804Y-130524314D02*
X124237804Y-129990980D01*
X125037804Y-130333838D01*
D12*
X145145880Y-136937595D02*
X145955404Y-136937595D01*
X146050642Y-136889976D01*
X146098261Y-136842357D01*
X146145880Y-136747119D01*
X146145880Y-136556642D01*
X146098261Y-136461404D01*
X146050642Y-136413785D01*
X145955404Y-136366166D01*
X145145880Y-136366166D01*
X146145880Y-135366166D02*
X146145880Y-135937595D01*
X146145880Y-135651880D02*
X145145880Y-135651880D01*
X145288738Y-135747119D01*
X145383976Y-135842357D01*
X145431595Y-135937595D01*
X145241119Y-134985214D02*
X145193500Y-134937595D01*
X145145880Y-134842357D01*
X145145880Y-134604261D01*
X145193500Y-134509023D01*
X145241119Y-134461404D01*
X145336357Y-134413785D01*
X145431595Y-134413785D01*
X145574452Y-134461404D01*
X146145880Y-135032833D01*
X146145880Y-134413785D01*
D13*
X165959166Y-116706604D02*
X165692500Y-116325652D01*
X165502023Y-116706604D02*
X165502023Y-115906604D01*
X165806785Y-115906604D01*
X165882976Y-115944700D01*
X165921071Y-115982795D01*
X165959166Y-116058985D01*
X165959166Y-116173271D01*
X165921071Y-116249461D01*
X165882976Y-116287557D01*
X165806785Y-116325652D01*
X165502023Y-116325652D01*
X166225833Y-115906604D02*
X166721071Y-115906604D01*
X166454404Y-116211366D01*
X166568690Y-116211366D01*
X166644880Y-116249461D01*
X166682976Y-116287557D01*
X166721071Y-116363747D01*
X166721071Y-116554223D01*
X166682976Y-116630414D01*
X166644880Y-116668509D01*
X166568690Y-116706604D01*
X166340119Y-116706604D01*
X166263928Y-116668509D01*
X166225833Y-116630414D01*
D12*
X110245566Y-123689680D02*
X110245566Y-124403966D01*
X110197947Y-124546823D01*
X110102709Y-124642061D01*
X109959852Y-124689680D01*
X109864614Y-124689680D01*
X111150328Y-124023014D02*
X111150328Y-124689680D01*
X110912233Y-123642061D02*
X110674138Y-124356347D01*
X111293185Y-124356347D01*
X189140180Y-132413333D02*
X189854466Y-132413333D01*
X189997323Y-132460952D01*
X190092561Y-132556190D01*
X190140180Y-132699047D01*
X190140180Y-132794285D01*
X189140180Y-132032380D02*
X189140180Y-131413333D01*
X189521133Y-131746666D01*
X189521133Y-131603809D01*
X189568752Y-131508571D01*
X189616371Y-131460952D01*
X189711609Y-131413333D01*
X189949704Y-131413333D01*
X190044942Y-131460952D01*
X190092561Y-131508571D01*
X190140180Y-131603809D01*
X190140180Y-131889523D01*
X190092561Y-131984761D01*
X190044942Y-132032380D01*
D13*
X124819204Y-122593023D02*
X125466823Y-122593023D01*
X125543014Y-122554928D01*
X125581109Y-122516833D01*
X125619204Y-122440642D01*
X125619204Y-122288261D01*
X125581109Y-122212071D01*
X125543014Y-122173976D01*
X125466823Y-122135880D01*
X124819204Y-122135880D01*
X124819204Y-121412071D02*
X124819204Y-121564452D01*
X124857300Y-121640642D01*
X124895395Y-121678738D01*
X125009680Y-121754928D01*
X125162061Y-121793023D01*
X125466823Y-121793023D01*
X125543014Y-121754928D01*
X125581109Y-121716833D01*
X125619204Y-121640642D01*
X125619204Y-121488261D01*
X125581109Y-121412071D01*
X125543014Y-121373976D01*
X125466823Y-121335880D01*
X125276347Y-121335880D01*
X125200157Y-121373976D01*
X125162061Y-121412071D01*
X125123966Y-121488261D01*
X125123966Y-121640642D01*
X125162061Y-121716833D01*
X125200157Y-121754928D01*
X125276347Y-121793023D01*
X117659104Y-115846785D02*
X117278152Y-116113452D01*
X117659104Y-116303928D02*
X116859104Y-116303928D01*
X116859104Y-115999166D01*
X116897200Y-115922976D01*
X116935295Y-115884880D01*
X117011485Y-115846785D01*
X117125771Y-115846785D01*
X117201961Y-115884880D01*
X117240057Y-115922976D01*
X117278152Y-115999166D01*
X117278152Y-116303928D01*
X117659104Y-115084880D02*
X117659104Y-115542023D01*
X117659104Y-115313452D02*
X116859104Y-115313452D01*
X116973390Y-115389642D01*
X117049580Y-115465833D01*
X117087676Y-115542023D01*
X116859104Y-114361071D02*
X116859104Y-114742023D01*
X117240057Y-114780119D01*
X117201961Y-114742023D01*
X117163866Y-114665833D01*
X117163866Y-114475357D01*
X117201961Y-114399166D01*
X117240057Y-114361071D01*
X117316247Y-114322976D01*
X117506723Y-114322976D01*
X117582914Y-114361071D01*
X117621009Y-114399166D01*
X117659104Y-114475357D01*
X117659104Y-114665833D01*
X117621009Y-114742023D01*
X117582914Y-114780119D01*
X117608304Y-129201485D02*
X117227352Y-129468152D01*
X117608304Y-129658628D02*
X116808304Y-129658628D01*
X116808304Y-129353866D01*
X116846400Y-129277676D01*
X116884495Y-129239580D01*
X116960685Y-129201485D01*
X117074971Y-129201485D01*
X117151161Y-129239580D01*
X117189257Y-129277676D01*
X117227352Y-129353866D01*
X117227352Y-129658628D01*
X117608304Y-128439580D02*
X117608304Y-128896723D01*
X117608304Y-128668152D02*
X116808304Y-128668152D01*
X116922590Y-128744342D01*
X116998780Y-128820533D01*
X117036876Y-128896723D01*
X116808304Y-128172914D02*
X116808304Y-127677676D01*
X117113066Y-127944342D01*
X117113066Y-127830057D01*
X117151161Y-127753866D01*
X117189257Y-127715771D01*
X117265447Y-127677676D01*
X117455923Y-127677676D01*
X117532114Y-127715771D01*
X117570209Y-127753866D01*
X117608304Y-127830057D01*
X117608304Y-128058628D01*
X117570209Y-128134819D01*
X117532114Y-128172914D01*
X123183614Y-131489385D02*
X123221709Y-131527480D01*
X123259804Y-131641766D01*
X123259804Y-131717957D01*
X123221709Y-131832242D01*
X123145519Y-131908433D01*
X123069328Y-131946528D01*
X122916947Y-131984623D01*
X122802661Y-131984623D01*
X122650280Y-131946528D01*
X122574090Y-131908433D01*
X122497900Y-131832242D01*
X122459804Y-131717957D01*
X122459804Y-131641766D01*
X122497900Y-131527480D01*
X122535995Y-131489385D01*
X122535995Y-131184623D02*
X122497900Y-131146528D01*
X122459804Y-131070338D01*
X122459804Y-130879861D01*
X122497900Y-130803671D01*
X122535995Y-130765576D01*
X122612185Y-130727480D01*
X122688376Y-130727480D01*
X122802661Y-130765576D01*
X123259804Y-131222719D01*
X123259804Y-130727480D01*
X122535995Y-130422719D02*
X122497900Y-130384623D01*
X122459804Y-130308433D01*
X122459804Y-130117957D01*
X122497900Y-130041766D01*
X122535995Y-130003671D01*
X122612185Y-129965576D01*
X122688376Y-129965576D01*
X122802661Y-130003671D01*
X123259804Y-130460814D01*
X123259804Y-129965576D01*
X120630914Y-131539085D02*
X120669009Y-131577180D01*
X120707104Y-131691466D01*
X120707104Y-131767657D01*
X120669009Y-131881942D01*
X120592819Y-131958133D01*
X120516628Y-131996228D01*
X120364247Y-132034323D01*
X120249961Y-132034323D01*
X120097580Y-131996228D01*
X120021390Y-131958133D01*
X119945200Y-131881942D01*
X119907104Y-131767657D01*
X119907104Y-131691466D01*
X119945200Y-131577180D01*
X119983295Y-131539085D01*
X119983295Y-131234323D02*
X119945200Y-131196228D01*
X119907104Y-131120038D01*
X119907104Y-130929561D01*
X119945200Y-130853371D01*
X119983295Y-130815276D01*
X120059485Y-130777180D01*
X120135676Y-130777180D01*
X120249961Y-130815276D01*
X120707104Y-131272419D01*
X120707104Y-130777180D01*
X120707104Y-130015276D02*
X120707104Y-130472419D01*
X120707104Y-130243847D02*
X119907104Y-130243847D01*
X120021390Y-130320038D01*
X120097580Y-130396228D01*
X120135676Y-130472419D01*
X121393014Y-115779514D02*
X121354919Y-115817609D01*
X121240633Y-115855704D01*
X121164442Y-115855704D01*
X121050157Y-115817609D01*
X120973966Y-115741419D01*
X120935871Y-115665228D01*
X120897776Y-115512847D01*
X120897776Y-115398561D01*
X120935871Y-115246180D01*
X120973966Y-115169990D01*
X121050157Y-115093800D01*
X121164442Y-115055704D01*
X121240633Y-115055704D01*
X121354919Y-115093800D01*
X121393014Y-115131895D01*
X121697776Y-115131895D02*
X121735871Y-115093800D01*
X121812061Y-115055704D01*
X122002538Y-115055704D01*
X122078728Y-115093800D01*
X122116823Y-115131895D01*
X122154919Y-115208085D01*
X122154919Y-115284276D01*
X122116823Y-115398561D01*
X121659680Y-115855704D01*
X122154919Y-115855704D01*
X122650157Y-115055704D02*
X122726347Y-115055704D01*
X122802538Y-115093800D01*
X122840633Y-115131895D01*
X122878728Y-115208085D01*
X122916823Y-115360466D01*
X122916823Y-115550942D01*
X122878728Y-115703323D01*
X122840633Y-115779514D01*
X122802538Y-115817609D01*
X122726347Y-115855704D01*
X122650157Y-115855704D01*
X122573966Y-115817609D01*
X122535871Y-115779514D01*
X122497776Y-115703323D01*
X122459680Y-115550942D01*
X122459680Y-115360466D01*
X122497776Y-115208085D01*
X122535871Y-115131895D01*
X122573966Y-115093800D01*
X122650157Y-115055704D01*
X115843014Y-115842985D02*
X115881109Y-115881080D01*
X115919204Y-115995366D01*
X115919204Y-116071557D01*
X115881109Y-116185842D01*
X115804919Y-116262033D01*
X115728728Y-116300128D01*
X115576347Y-116338223D01*
X115462061Y-116338223D01*
X115309680Y-116300128D01*
X115233490Y-116262033D01*
X115157300Y-116185842D01*
X115119204Y-116071557D01*
X115119204Y-115995366D01*
X115157300Y-115881080D01*
X115195395Y-115842985D01*
X115919204Y-115081080D02*
X115919204Y-115538223D01*
X115919204Y-115309652D02*
X115119204Y-115309652D01*
X115233490Y-115385842D01*
X115309680Y-115462033D01*
X115347776Y-115538223D01*
X115119204Y-114357271D02*
X115119204Y-114738223D01*
X115500157Y-114776319D01*
X115462061Y-114738223D01*
X115423966Y-114662033D01*
X115423966Y-114471557D01*
X115462061Y-114395366D01*
X115500157Y-114357271D01*
X115576347Y-114319176D01*
X115766823Y-114319176D01*
X115843014Y-114357271D01*
X115881109Y-114395366D01*
X115919204Y-114471557D01*
X115919204Y-114662033D01*
X115881109Y-114738223D01*
X115843014Y-114776319D01*
X115945814Y-120770614D02*
X115907719Y-120808709D01*
X115793433Y-120846804D01*
X115717242Y-120846804D01*
X115602957Y-120808709D01*
X115526766Y-120732519D01*
X115488671Y-120656328D01*
X115450576Y-120503947D01*
X115450576Y-120389661D01*
X115488671Y-120237280D01*
X115526766Y-120161090D01*
X115602957Y-120084900D01*
X115717242Y-120046804D01*
X115793433Y-120046804D01*
X115907719Y-120084900D01*
X115945814Y-120122995D01*
X116707719Y-120846804D02*
X116250576Y-120846804D01*
X116479147Y-120846804D02*
X116479147Y-120046804D01*
X116402957Y-120161090D01*
X116326766Y-120237280D01*
X116250576Y-120275376D01*
X117393433Y-120313471D02*
X117393433Y-120846804D01*
X117202957Y-120008709D02*
X117012480Y-120580138D01*
X117507719Y-120580138D01*
X115855714Y-129189585D02*
X115893809Y-129227680D01*
X115931904Y-129341966D01*
X115931904Y-129418157D01*
X115893809Y-129532442D01*
X115817619Y-129608633D01*
X115741428Y-129646728D01*
X115589047Y-129684823D01*
X115474761Y-129684823D01*
X115322380Y-129646728D01*
X115246190Y-129608633D01*
X115170000Y-129532442D01*
X115131904Y-129418157D01*
X115131904Y-129341966D01*
X115170000Y-129227680D01*
X115208095Y-129189585D01*
X115931904Y-128427680D02*
X115931904Y-128884823D01*
X115931904Y-128656252D02*
X115131904Y-128656252D01*
X115246190Y-128732442D01*
X115322380Y-128808633D01*
X115360476Y-128884823D01*
X115131904Y-128161014D02*
X115131904Y-127665776D01*
X115436666Y-127932442D01*
X115436666Y-127818157D01*
X115474761Y-127741966D01*
X115512857Y-127703871D01*
X115589047Y-127665776D01*
X115779523Y-127665776D01*
X115855714Y-127703871D01*
X115893809Y-127741966D01*
X115931904Y-127818157D01*
X115931904Y-128046728D01*
X115893809Y-128122919D01*
X115855714Y-128161014D01*
X139617404Y-123283285D02*
X139236452Y-123549952D01*
X139617404Y-123740428D02*
X138817404Y-123740428D01*
X138817404Y-123435666D01*
X138855500Y-123359476D01*
X138893595Y-123321380D01*
X138969785Y-123283285D01*
X139084071Y-123283285D01*
X139160261Y-123321380D01*
X139198357Y-123359476D01*
X139236452Y-123435666D01*
X139236452Y-123740428D01*
X139617404Y-122521380D02*
X139617404Y-122978523D01*
X139617404Y-122749952D02*
X138817404Y-122749952D01*
X138931690Y-122826142D01*
X139007880Y-122902333D01*
X139045976Y-122978523D01*
X138817404Y-121835666D02*
X138817404Y-121988047D01*
X138855500Y-122064238D01*
X138893595Y-122102333D01*
X139007880Y-122178523D01*
X139160261Y-122216619D01*
X139465023Y-122216619D01*
X139541214Y-122178523D01*
X139579309Y-122140428D01*
X139617404Y-122064238D01*
X139617404Y-121911857D01*
X139579309Y-121835666D01*
X139541214Y-121797571D01*
X139465023Y-121759476D01*
X139274547Y-121759476D01*
X139198357Y-121797571D01*
X139160261Y-121835666D01*
X139122166Y-121911857D01*
X139122166Y-122064238D01*
X139160261Y-122140428D01*
X139198357Y-122178523D01*
X139274547Y-122216619D01*
D14*
X139579304Y-127171385D02*
X139198352Y-127438052D01*
X139579304Y-127628528D02*
X138779304Y-127628528D01*
X138779304Y-127323766D01*
X138817400Y-127247576D01*
X138855495Y-127209480D01*
X138931685Y-127171385D01*
X139045971Y-127171385D01*
X139122161Y-127209480D01*
X139160257Y-127247576D01*
X139198352Y-127323766D01*
X139198352Y-127628528D01*
X139579304Y-126409480D02*
X139579304Y-126866623D01*
X139579304Y-126638052D02*
X138779304Y-126638052D01*
X138893590Y-126714242D01*
X138969780Y-126790433D01*
X139007876Y-126866623D01*
X139045971Y-125723766D02*
X139579304Y-125723766D01*
X138741209Y-125914242D02*
X139312638Y-126104719D01*
X139312638Y-125609480D01*
D13*
X141713014Y-118649714D02*
X141674919Y-118687809D01*
X141560633Y-118725904D01*
X141484442Y-118725904D01*
X141370157Y-118687809D01*
X141293966Y-118611619D01*
X141255871Y-118535428D01*
X141217776Y-118383047D01*
X141217776Y-118268761D01*
X141255871Y-118116380D01*
X141293966Y-118040190D01*
X141370157Y-117964000D01*
X141484442Y-117925904D01*
X141560633Y-117925904D01*
X141674919Y-117964000D01*
X141713014Y-118002095D01*
X141979680Y-117925904D02*
X142474919Y-117925904D01*
X142208252Y-118230666D01*
X142322538Y-118230666D01*
X142398728Y-118268761D01*
X142436823Y-118306857D01*
X142474919Y-118383047D01*
X142474919Y-118573523D01*
X142436823Y-118649714D01*
X142398728Y-118687809D01*
X142322538Y-118725904D01*
X142093966Y-118725904D01*
X142017776Y-118687809D01*
X141979680Y-118649714D01*
X143198728Y-117925904D02*
X142817776Y-117925904D01*
X142779680Y-118306857D01*
X142817776Y-118268761D01*
X142893966Y-118230666D01*
X143084442Y-118230666D01*
X143160633Y-118268761D01*
X143198728Y-118306857D01*
X143236823Y-118383047D01*
X143236823Y-118573523D01*
X143198728Y-118649714D01*
X143160633Y-118687809D01*
X143084442Y-118725904D01*
X142893966Y-118725904D01*
X142817776Y-118687809D01*
X142779680Y-118649714D01*
X129787604Y-140646085D02*
X129406652Y-140912752D01*
X129787604Y-141103228D02*
X128987604Y-141103228D01*
X128987604Y-140798466D01*
X129025700Y-140722276D01*
X129063795Y-140684180D01*
X129139985Y-140646085D01*
X129254271Y-140646085D01*
X129330461Y-140684180D01*
X129368557Y-140722276D01*
X129406652Y-140798466D01*
X129406652Y-141103228D01*
X129787604Y-139884180D02*
X129787604Y-140341323D01*
X129787604Y-140112752D02*
X128987604Y-140112752D01*
X129101890Y-140188942D01*
X129178080Y-140265133D01*
X129216176Y-140341323D01*
X129063795Y-139579419D02*
X129025700Y-139541323D01*
X128987604Y-139465133D01*
X128987604Y-139274657D01*
X129025700Y-139198466D01*
X129063795Y-139160371D01*
X129139985Y-139122276D01*
X129216176Y-139122276D01*
X129330461Y-139160371D01*
X129787604Y-139617514D01*
X129787604Y-139122276D01*
X135845614Y-128593814D02*
X135807519Y-128631909D01*
X135693233Y-128670004D01*
X135617042Y-128670004D01*
X135502757Y-128631909D01*
X135426566Y-128555719D01*
X135388471Y-128479528D01*
X135350376Y-128327147D01*
X135350376Y-128212861D01*
X135388471Y-128060480D01*
X135426566Y-127984290D01*
X135502757Y-127908100D01*
X135617042Y-127870004D01*
X135693233Y-127870004D01*
X135807519Y-127908100D01*
X135845614Y-127946195D01*
X136607519Y-128670004D02*
X136150376Y-128670004D01*
X136378947Y-128670004D02*
X136378947Y-127870004D01*
X136302757Y-127984290D01*
X136226566Y-128060480D01*
X136150376Y-128098576D01*
X137293233Y-127870004D02*
X137140852Y-127870004D01*
X137064661Y-127908100D01*
X137026566Y-127946195D01*
X136950376Y-128060480D01*
X136912280Y-128212861D01*
X136912280Y-128517623D01*
X136950376Y-128593814D01*
X136988471Y-128631909D01*
X137064661Y-128670004D01*
X137217042Y-128670004D01*
X137293233Y-128631909D01*
X137331328Y-128593814D01*
X137369423Y-128517623D01*
X137369423Y-128327147D01*
X137331328Y-128250957D01*
X137293233Y-128212861D01*
X137217042Y-128174766D01*
X137064661Y-128174766D01*
X136988471Y-128212861D01*
X136950376Y-128250957D01*
X136912280Y-128327147D01*
X137496514Y-124631433D02*
X137534609Y-124669528D01*
X137572704Y-124783814D01*
X137572704Y-124860004D01*
X137534609Y-124974290D01*
X137458419Y-125050480D01*
X137382228Y-125088576D01*
X137229847Y-125126671D01*
X137115561Y-125126671D01*
X136963180Y-125088576D01*
X136886990Y-125050480D01*
X136810800Y-124974290D01*
X136772704Y-124860004D01*
X136772704Y-124783814D01*
X136810800Y-124669528D01*
X136848895Y-124631433D01*
X137572704Y-123869528D02*
X137572704Y-124326671D01*
X137572704Y-124098100D02*
X136772704Y-124098100D01*
X136886990Y-124174290D01*
X136963180Y-124250480D01*
X137001276Y-124326671D01*
X178829904Y-111753623D02*
X179477523Y-111753623D01*
X179553714Y-111715528D01*
X179591809Y-111677433D01*
X179629904Y-111601242D01*
X179629904Y-111448861D01*
X179591809Y-111372671D01*
X179553714Y-111334576D01*
X179477523Y-111296480D01*
X178829904Y-111296480D01*
X179096571Y-110572671D02*
X179629904Y-110572671D01*
X178791809Y-110763147D02*
X179363238Y-110953623D01*
X179363238Y-110458385D01*
X182519966Y-120275304D02*
X182253300Y-119894352D01*
X182062823Y-120275304D02*
X182062823Y-119475304D01*
X182367585Y-119475304D01*
X182443776Y-119513400D01*
X182481871Y-119551495D01*
X182519966Y-119627685D01*
X182519966Y-119741971D01*
X182481871Y-119818161D01*
X182443776Y-119856257D01*
X182367585Y-119894352D01*
X182062823Y-119894352D01*
X182900919Y-120275304D02*
X183053300Y-120275304D01*
X183129490Y-120237209D01*
X183167585Y-120199114D01*
X183243776Y-120084828D01*
X183281871Y-119932447D01*
X183281871Y-119627685D01*
X183243776Y-119551495D01*
X183205680Y-119513400D01*
X183129490Y-119475304D01*
X182977109Y-119475304D01*
X182900919Y-119513400D01*
X182862823Y-119551495D01*
X182824728Y-119627685D01*
X182824728Y-119818161D01*
X182862823Y-119894352D01*
X182900919Y-119932447D01*
X182977109Y-119970542D01*
X183129490Y-119970542D01*
X183205680Y-119932447D01*
X183243776Y-119894352D01*
X183281871Y-119818161D01*
X178060414Y-118535414D02*
X178022319Y-118573509D01*
X177908033Y-118611604D01*
X177831842Y-118611604D01*
X177717557Y-118573509D01*
X177641366Y-118497319D01*
X177603271Y-118421128D01*
X177565176Y-118268747D01*
X177565176Y-118154461D01*
X177603271Y-118002080D01*
X177641366Y-117925890D01*
X177717557Y-117849700D01*
X177831842Y-117811604D01*
X177908033Y-117811604D01*
X178022319Y-117849700D01*
X178060414Y-117887795D01*
X178365176Y-117887795D02*
X178403271Y-117849700D01*
X178479461Y-117811604D01*
X178669938Y-117811604D01*
X178746128Y-117849700D01*
X178784223Y-117887795D01*
X178822319Y-117963985D01*
X178822319Y-118040176D01*
X178784223Y-118154461D01*
X178327080Y-118611604D01*
X178822319Y-118611604D01*
X179088985Y-117811604D02*
X179622319Y-117811604D01*
X179279461Y-118611604D01*
X196120742Y-143990542D02*
X196073123Y-144038161D01*
X195930266Y-144085780D01*
X195835028Y-144085780D01*
X195692171Y-144038161D01*
X195596933Y-143942923D01*
X195549314Y-143847685D01*
X195501695Y-143657209D01*
X195501695Y-143514352D01*
X195549314Y-143323876D01*
X195596933Y-143228638D01*
X195692171Y-143133400D01*
X195835028Y-143085780D01*
X195930266Y-143085780D01*
X196073123Y-143133400D01*
X196120742Y-143181019D01*
X196501695Y-143181019D02*
X196549314Y-143133400D01*
X196644552Y-143085780D01*
X196882647Y-143085780D01*
X196977885Y-143133400D01*
X197025504Y-143181019D01*
X197073123Y-143276257D01*
X197073123Y-143371495D01*
X197025504Y-143514352D01*
X196454076Y-144085780D01*
X197073123Y-144085780D01*
X197930266Y-143085780D02*
X197739790Y-143085780D01*
X197644552Y-143133400D01*
X197596933Y-143181019D01*
X197501695Y-143323876D01*
X197454076Y-143514352D01*
X197454076Y-143895304D01*
X197501695Y-143990542D01*
X197549314Y-144038161D01*
X197644552Y-144085780D01*
X197835028Y-144085780D01*
X197930266Y-144038161D01*
X197977885Y-143990542D01*
X198025504Y-143895304D01*
X198025504Y-143657209D01*
X197977885Y-143561971D01*
X197930266Y-143514352D01*
X197835028Y-143466733D01*
X197644552Y-143466733D01*
X197549314Y-143514352D01*
X197501695Y-143561971D01*
X197454076Y-143657209D01*
X196274114Y-153574704D02*
X196007447Y-153193752D01*
X195816971Y-153574704D02*
X195816971Y-152774704D01*
X196121733Y-152774704D01*
X196197923Y-152812800D01*
X196236019Y-152850895D01*
X196274114Y-152927085D01*
X196274114Y-153041371D01*
X196236019Y-153117561D01*
X196197923Y-153155657D01*
X196121733Y-153193752D01*
X195816971Y-153193752D01*
X197036019Y-153574704D02*
X196578876Y-153574704D01*
X196807447Y-153574704D02*
X196807447Y-152774704D01*
X196731257Y-152888990D01*
X196655066Y-152965180D01*
X196578876Y-153003276D01*
X197493161Y-153117561D02*
X197416971Y-153079466D01*
X197378876Y-153041371D01*
X197340780Y-152965180D01*
X197340780Y-152927085D01*
X197378876Y-152850895D01*
X197416971Y-152812800D01*
X197493161Y-152774704D01*
X197645542Y-152774704D01*
X197721733Y-152812800D01*
X197759828Y-152850895D01*
X197797923Y-152927085D01*
X197797923Y-152965180D01*
X197759828Y-153041371D01*
X197721733Y-153079466D01*
X197645542Y-153117561D01*
X197493161Y-153117561D01*
X197416971Y-153155657D01*
X197378876Y-153193752D01*
X197340780Y-153269942D01*
X197340780Y-153422323D01*
X197378876Y-153498514D01*
X197416971Y-153536609D01*
X197493161Y-153574704D01*
X197645542Y-153574704D01*
X197721733Y-153536609D01*
X197759828Y-153498514D01*
X197797923Y-153422323D01*
X197797923Y-153269942D01*
X197759828Y-153193752D01*
X197721733Y-153155657D01*
X197645542Y-153117561D01*
X191750914Y-149078885D02*
X191789009Y-149116980D01*
X191827104Y-149231266D01*
X191827104Y-149307457D01*
X191789009Y-149421742D01*
X191712819Y-149497933D01*
X191636628Y-149536028D01*
X191484247Y-149574123D01*
X191369961Y-149574123D01*
X191217580Y-149536028D01*
X191141390Y-149497933D01*
X191065200Y-149421742D01*
X191027104Y-149307457D01*
X191027104Y-149231266D01*
X191065200Y-149116980D01*
X191103295Y-149078885D01*
X191103295Y-148774123D02*
X191065200Y-148736028D01*
X191027104Y-148659838D01*
X191027104Y-148469361D01*
X191065200Y-148393171D01*
X191103295Y-148355076D01*
X191179485Y-148316980D01*
X191255676Y-148316980D01*
X191369961Y-148355076D01*
X191827104Y-148812219D01*
X191827104Y-148316980D01*
X191027104Y-147593171D02*
X191027104Y-147974123D01*
X191408057Y-148012219D01*
X191369961Y-147974123D01*
X191331866Y-147897933D01*
X191331866Y-147707457D01*
X191369961Y-147631266D01*
X191408057Y-147593171D01*
X191484247Y-147555076D01*
X191674723Y-147555076D01*
X191750914Y-147593171D01*
X191789009Y-147631266D01*
X191827104Y-147707457D01*
X191827104Y-147897933D01*
X191789009Y-147974123D01*
X191750914Y-148012219D01*
X187293314Y-146335704D02*
X187026647Y-145954752D01*
X186836171Y-146335704D02*
X186836171Y-145535704D01*
X187140933Y-145535704D01*
X187217123Y-145573800D01*
X187255219Y-145611895D01*
X187293314Y-145688085D01*
X187293314Y-145802371D01*
X187255219Y-145878561D01*
X187217123Y-145916657D01*
X187140933Y-145954752D01*
X186836171Y-145954752D01*
X187598076Y-145611895D02*
X187636171Y-145573800D01*
X187712361Y-145535704D01*
X187902838Y-145535704D01*
X187979028Y-145573800D01*
X188017123Y-145611895D01*
X188055219Y-145688085D01*
X188055219Y-145764276D01*
X188017123Y-145878561D01*
X187559980Y-146335704D01*
X188055219Y-146335704D01*
X188550457Y-145535704D02*
X188626647Y-145535704D01*
X188702838Y-145573800D01*
X188740933Y-145611895D01*
X188779028Y-145688085D01*
X188817123Y-145840466D01*
X188817123Y-146030942D01*
X188779028Y-146183323D01*
X188740933Y-146259514D01*
X188702838Y-146297609D01*
X188626647Y-146335704D01*
X188550457Y-146335704D01*
X188474266Y-146297609D01*
X188436171Y-146259514D01*
X188398076Y-146183323D01*
X188359980Y-146030942D01*
X188359980Y-145840466D01*
X188398076Y-145688085D01*
X188436171Y-145611895D01*
X188474266Y-145573800D01*
X188550457Y-145535704D01*
X187217114Y-150425104D02*
X186950447Y-150044152D01*
X186759971Y-150425104D02*
X186759971Y-149625104D01*
X187064733Y-149625104D01*
X187140923Y-149663200D01*
X187179019Y-149701295D01*
X187217114Y-149777485D01*
X187217114Y-149891771D01*
X187179019Y-149967961D01*
X187140923Y-150006057D01*
X187064733Y-150044152D01*
X186759971Y-150044152D01*
X187979019Y-150425104D02*
X187521876Y-150425104D01*
X187750447Y-150425104D02*
X187750447Y-149625104D01*
X187674257Y-149739390D01*
X187598066Y-149815580D01*
X187521876Y-149853676D01*
X188359971Y-150425104D02*
X188512352Y-150425104D01*
X188588542Y-150387009D01*
X188626638Y-150348914D01*
X188702828Y-150234628D01*
X188740923Y-150082247D01*
X188740923Y-149777485D01*
X188702828Y-149701295D01*
X188664733Y-149663200D01*
X188588542Y-149625104D01*
X188436161Y-149625104D01*
X188359971Y-149663200D01*
X188321876Y-149701295D01*
X188283780Y-149777485D01*
X188283780Y-149967961D01*
X188321876Y-150044152D01*
X188359971Y-150082247D01*
X188436161Y-150120342D01*
X188588542Y-150120342D01*
X188664733Y-150082247D01*
X188702828Y-150044152D01*
X188740923Y-149967961D01*
X181133814Y-146589714D02*
X181095719Y-146627809D01*
X180981433Y-146665904D01*
X180905242Y-146665904D01*
X180790957Y-146627809D01*
X180714766Y-146551619D01*
X180676671Y-146475428D01*
X180638576Y-146323047D01*
X180638576Y-146208761D01*
X180676671Y-146056380D01*
X180714766Y-145980190D01*
X180790957Y-145904000D01*
X180905242Y-145865904D01*
X180981433Y-145865904D01*
X181095719Y-145904000D01*
X181133814Y-145942095D01*
X181438576Y-145942095D02*
X181476671Y-145904000D01*
X181552861Y-145865904D01*
X181743338Y-145865904D01*
X181819528Y-145904000D01*
X181857623Y-145942095D01*
X181895719Y-146018285D01*
X181895719Y-146094476D01*
X181857623Y-146208761D01*
X181400480Y-146665904D01*
X181895719Y-146665904D01*
X182581433Y-146132571D02*
X182581433Y-146665904D01*
X182390957Y-145827809D02*
X182200480Y-146399238D01*
X182695719Y-146399238D01*
X187500771Y-156131390D02*
X187334104Y-155893295D01*
X187215057Y-156131390D02*
X187215057Y-155631390D01*
X187405533Y-155631390D01*
X187453152Y-155655200D01*
X187476961Y-155679009D01*
X187500771Y-155726628D01*
X187500771Y-155798057D01*
X187476961Y-155845676D01*
X187453152Y-155869485D01*
X187405533Y-155893295D01*
X187215057Y-155893295D01*
X187976961Y-156131390D02*
X187691247Y-156131390D01*
X187834104Y-156131390D02*
X187834104Y-155631390D01*
X187786485Y-155702819D01*
X187738866Y-155750438D01*
X187691247Y-155774247D01*
X188143628Y-155631390D02*
X188476961Y-155631390D01*
X188262676Y-156131390D01*
X165969966Y-119792704D02*
X165703300Y-119411752D01*
X165512823Y-119792704D02*
X165512823Y-118992704D01*
X165817585Y-118992704D01*
X165893776Y-119030800D01*
X165931871Y-119068895D01*
X165969966Y-119145085D01*
X165969966Y-119259371D01*
X165931871Y-119335561D01*
X165893776Y-119373657D01*
X165817585Y-119411752D01*
X165512823Y-119411752D01*
X166274728Y-119068895D02*
X166312823Y-119030800D01*
X166389014Y-118992704D01*
X166579490Y-118992704D01*
X166655680Y-119030800D01*
X166693776Y-119068895D01*
X166731871Y-119145085D01*
X166731871Y-119221276D01*
X166693776Y-119335561D01*
X166236633Y-119792704D01*
X166731871Y-119792704D01*
X165982666Y-118294104D02*
X165716000Y-117913152D01*
X165525523Y-118294104D02*
X165525523Y-117494104D01*
X165830285Y-117494104D01*
X165906476Y-117532200D01*
X165944571Y-117570295D01*
X165982666Y-117646485D01*
X165982666Y-117760771D01*
X165944571Y-117836961D01*
X165906476Y-117875057D01*
X165830285Y-117913152D01*
X165525523Y-117913152D01*
X166744571Y-118294104D02*
X166287428Y-118294104D01*
X166516000Y-118294104D02*
X166516000Y-117494104D01*
X166439809Y-117608390D01*
X166363619Y-117684580D01*
X166287428Y-117722676D01*
X187026557Y-140442866D02*
X187026557Y-140709533D01*
X187445604Y-140709533D02*
X186645604Y-140709533D01*
X186645604Y-140328580D01*
X187026557Y-139757152D02*
X187064652Y-139642866D01*
X187102747Y-139604771D01*
X187178938Y-139566676D01*
X187293223Y-139566676D01*
X187369414Y-139604771D01*
X187407509Y-139642866D01*
X187445604Y-139719057D01*
X187445604Y-140023819D01*
X186645604Y-140023819D01*
X186645604Y-139757152D01*
X186683700Y-139680961D01*
X186721795Y-139642866D01*
X186797985Y-139604771D01*
X186874176Y-139604771D01*
X186950366Y-139642866D01*
X186988461Y-139680961D01*
X187026557Y-139757152D01*
X187026557Y-140023819D01*
X187445604Y-138804771D02*
X187445604Y-139261914D01*
X187445604Y-139033342D02*
X186645604Y-139033342D01*
X186759890Y-139109533D01*
X186836080Y-139185723D01*
X186874176Y-139261914D01*
X187610704Y-124872685D02*
X187229752Y-125139352D01*
X187610704Y-125329828D02*
X186810704Y-125329828D01*
X186810704Y-125025066D01*
X186848800Y-124948876D01*
X186886895Y-124910780D01*
X186963085Y-124872685D01*
X187077371Y-124872685D01*
X187153561Y-124910780D01*
X187191657Y-124948876D01*
X187229752Y-125025066D01*
X187229752Y-125329828D01*
X186886895Y-124567923D02*
X186848800Y-124529828D01*
X186810704Y-124453638D01*
X186810704Y-124263161D01*
X186848800Y-124186971D01*
X186886895Y-124148876D01*
X186963085Y-124110780D01*
X187039276Y-124110780D01*
X187153561Y-124148876D01*
X187610704Y-124606019D01*
X187610704Y-124110780D01*
X187610704Y-123348876D02*
X187610704Y-123806019D01*
X187610704Y-123577447D02*
X186810704Y-123577447D01*
X186924990Y-123653638D01*
X187001180Y-123729828D01*
X187039276Y-123806019D01*
X170656123Y-135902504D02*
X170656123Y-136550123D01*
X170694219Y-136626314D01*
X170732314Y-136664409D01*
X170808504Y-136702504D01*
X170960885Y-136702504D01*
X171037076Y-136664409D01*
X171075171Y-136626314D01*
X171113266Y-136550123D01*
X171113266Y-135902504D01*
X171913266Y-136702504D02*
X171456123Y-136702504D01*
X171684695Y-136702504D02*
X171684695Y-135902504D01*
X171608504Y-136016790D01*
X171532314Y-136092980D01*
X171456123Y-136131076D01*
X172675171Y-136702504D02*
X172218028Y-136702504D01*
X172446600Y-136702504D02*
X172446600Y-135902504D01*
X172370409Y-136016790D01*
X172294219Y-136092980D01*
X172218028Y-136131076D01*
X109154014Y-132226004D02*
X108887347Y-131845052D01*
X108696871Y-132226004D02*
X108696871Y-131426004D01*
X109001633Y-131426004D01*
X109077823Y-131464100D01*
X109115919Y-131502195D01*
X109154014Y-131578385D01*
X109154014Y-131692671D01*
X109115919Y-131768861D01*
X109077823Y-131806957D01*
X109001633Y-131845052D01*
X108696871Y-131845052D01*
X109915919Y-132226004D02*
X109458776Y-132226004D01*
X109687347Y-132226004D02*
X109687347Y-131426004D01*
X109611157Y-131540290D01*
X109534966Y-131616480D01*
X109458776Y-131654576D01*
X110677823Y-132226004D02*
X110220680Y-132226004D01*
X110449252Y-132226004D02*
X110449252Y-131426004D01*
X110373061Y-131540290D01*
X110296871Y-131616480D01*
X110220680Y-131654576D01*
X112934814Y-132289504D02*
X112668147Y-131908552D01*
X112477671Y-132289504D02*
X112477671Y-131489504D01*
X112782433Y-131489504D01*
X112858623Y-131527600D01*
X112896719Y-131565695D01*
X112934814Y-131641885D01*
X112934814Y-131756171D01*
X112896719Y-131832361D01*
X112858623Y-131870457D01*
X112782433Y-131908552D01*
X112477671Y-131908552D01*
X113696719Y-132289504D02*
X113239576Y-132289504D01*
X113468147Y-132289504D02*
X113468147Y-131489504D01*
X113391957Y-131603790D01*
X113315766Y-131679980D01*
X113239576Y-131718076D01*
X114191957Y-131489504D02*
X114268147Y-131489504D01*
X114344338Y-131527600D01*
X114382433Y-131565695D01*
X114420528Y-131641885D01*
X114458623Y-131794266D01*
X114458623Y-131984742D01*
X114420528Y-132137123D01*
X114382433Y-132213314D01*
X114344338Y-132251409D01*
X114268147Y-132289504D01*
X114191957Y-132289504D01*
X114115766Y-132251409D01*
X114077671Y-132213314D01*
X114039576Y-132137123D01*
X114001480Y-131984742D01*
X114001480Y-131794266D01*
X114039576Y-131641885D01*
X114077671Y-131565695D01*
X114115766Y-131527600D01*
X114191957Y-131489504D01*
X121813214Y-150564814D02*
X121775119Y-150602909D01*
X121660833Y-150641004D01*
X121584642Y-150641004D01*
X121470357Y-150602909D01*
X121394166Y-150526719D01*
X121356071Y-150450528D01*
X121317976Y-150298147D01*
X121317976Y-150183861D01*
X121356071Y-150031480D01*
X121394166Y-149955290D01*
X121470357Y-149879100D01*
X121584642Y-149841004D01*
X121660833Y-149841004D01*
X121775119Y-149879100D01*
X121813214Y-149917195D01*
X122079880Y-149841004D02*
X122575119Y-149841004D01*
X122308452Y-150145766D01*
X122422738Y-150145766D01*
X122498928Y-150183861D01*
X122537023Y-150221957D01*
X122575119Y-150298147D01*
X122575119Y-150488623D01*
X122537023Y-150564814D01*
X122498928Y-150602909D01*
X122422738Y-150641004D01*
X122194166Y-150641004D01*
X122117976Y-150602909D01*
X122079880Y-150564814D01*
X122879880Y-149917195D02*
X122917976Y-149879100D01*
X122994166Y-149841004D01*
X123184642Y-149841004D01*
X123260833Y-149879100D01*
X123298928Y-149917195D01*
X123337023Y-149993385D01*
X123337023Y-150069576D01*
X123298928Y-150183861D01*
X122841785Y-150641004D01*
X123337023Y-150641004D01*
X109886814Y-141382714D02*
X109848719Y-141420809D01*
X109734433Y-141458904D01*
X109658242Y-141458904D01*
X109543957Y-141420809D01*
X109467766Y-141344619D01*
X109429671Y-141268428D01*
X109391576Y-141116047D01*
X109391576Y-141001761D01*
X109429671Y-140849380D01*
X109467766Y-140773190D01*
X109543957Y-140697000D01*
X109658242Y-140658904D01*
X109734433Y-140658904D01*
X109848719Y-140697000D01*
X109886814Y-140735095D01*
X110153480Y-140658904D02*
X110648719Y-140658904D01*
X110382052Y-140963666D01*
X110496338Y-140963666D01*
X110572528Y-141001761D01*
X110610623Y-141039857D01*
X110648719Y-141116047D01*
X110648719Y-141306523D01*
X110610623Y-141382714D01*
X110572528Y-141420809D01*
X110496338Y-141458904D01*
X110267766Y-141458904D01*
X110191576Y-141420809D01*
X110153480Y-141382714D01*
X111410623Y-141458904D02*
X110953480Y-141458904D01*
X111182052Y-141458904D02*
X111182052Y-140658904D01*
X111105861Y-140773190D01*
X111029671Y-140849380D01*
X110953480Y-140887476D01*
X128047814Y-144049714D02*
X128009719Y-144087809D01*
X127895433Y-144125904D01*
X127819242Y-144125904D01*
X127704957Y-144087809D01*
X127628766Y-144011619D01*
X127590671Y-143935428D01*
X127552576Y-143783047D01*
X127552576Y-143668761D01*
X127590671Y-143516380D01*
X127628766Y-143440190D01*
X127704957Y-143364000D01*
X127819242Y-143325904D01*
X127895433Y-143325904D01*
X128009719Y-143364000D01*
X128047814Y-143402095D01*
X128809719Y-144125904D02*
X128352576Y-144125904D01*
X128581147Y-144125904D02*
X128581147Y-143325904D01*
X128504957Y-143440190D01*
X128428766Y-143516380D01*
X128352576Y-143554476D01*
X129266861Y-143668761D02*
X129190671Y-143630666D01*
X129152576Y-143592571D01*
X129114480Y-143516380D01*
X129114480Y-143478285D01*
X129152576Y-143402095D01*
X129190671Y-143364000D01*
X129266861Y-143325904D01*
X129419242Y-143325904D01*
X129495433Y-143364000D01*
X129533528Y-143402095D01*
X129571623Y-143478285D01*
X129571623Y-143516380D01*
X129533528Y-143592571D01*
X129495433Y-143630666D01*
X129419242Y-143668761D01*
X129266861Y-143668761D01*
X129190671Y-143706857D01*
X129152576Y-143744952D01*
X129114480Y-143821142D01*
X129114480Y-143973523D01*
X129152576Y-144049714D01*
X129190671Y-144087809D01*
X129266861Y-144125904D01*
X129419242Y-144125904D01*
X129495433Y-144087809D01*
X129533528Y-144049714D01*
X129571623Y-143973523D01*
X129571623Y-143821142D01*
X129533528Y-143744952D01*
X129495433Y-143706857D01*
X129419242Y-143668761D01*
X117405114Y-136545085D02*
X117443209Y-136583180D01*
X117481304Y-136697466D01*
X117481304Y-136773657D01*
X117443209Y-136887942D01*
X117367019Y-136964133D01*
X117290828Y-137002228D01*
X117138447Y-137040323D01*
X117024161Y-137040323D01*
X116871780Y-137002228D01*
X116795590Y-136964133D01*
X116719400Y-136887942D01*
X116681304Y-136773657D01*
X116681304Y-136697466D01*
X116719400Y-136583180D01*
X116757495Y-136545085D01*
X117481304Y-135783180D02*
X117481304Y-136240323D01*
X117481304Y-136011752D02*
X116681304Y-136011752D01*
X116795590Y-136087942D01*
X116871780Y-136164133D01*
X116909876Y-136240323D01*
X116681304Y-135516514D02*
X116681304Y-134983180D01*
X117481304Y-135326038D01*
D12*
X103273266Y-149072480D02*
X103273266Y-149786766D01*
X103225647Y-149929623D01*
X103130409Y-150024861D01*
X102987552Y-150072480D01*
X102892314Y-150072480D01*
X103654219Y-149072480D02*
X104320885Y-149072480D01*
X103892314Y-150072480D01*
D13*
X187356704Y-134714185D02*
X186975752Y-134980852D01*
X187356704Y-135171328D02*
X186556704Y-135171328D01*
X186556704Y-134866566D01*
X186594800Y-134790376D01*
X186632895Y-134752280D01*
X186709085Y-134714185D01*
X186823371Y-134714185D01*
X186899561Y-134752280D01*
X186937657Y-134790376D01*
X186975752Y-134866566D01*
X186975752Y-135171328D01*
X186632895Y-134409423D02*
X186594800Y-134371328D01*
X186556704Y-134295138D01*
X186556704Y-134104661D01*
X186594800Y-134028471D01*
X186632895Y-133990376D01*
X186709085Y-133952280D01*
X186785276Y-133952280D01*
X186899561Y-133990376D01*
X187356704Y-134447519D01*
X187356704Y-133952280D01*
X186632895Y-133647519D02*
X186594800Y-133609423D01*
X186556704Y-133533233D01*
X186556704Y-133342757D01*
X186594800Y-133266566D01*
X186632895Y-133228471D01*
X186709085Y-133190376D01*
X186785276Y-133190376D01*
X186899561Y-133228471D01*
X187356704Y-133685614D01*
X187356704Y-133190376D01*
X177869814Y-140353985D02*
X177907909Y-140392080D01*
X177946004Y-140506366D01*
X177946004Y-140582557D01*
X177907909Y-140696842D01*
X177831719Y-140773033D01*
X177755528Y-140811128D01*
X177603147Y-140849223D01*
X177488861Y-140849223D01*
X177336480Y-140811128D01*
X177260290Y-140773033D01*
X177184100Y-140696842D01*
X177146004Y-140582557D01*
X177146004Y-140506366D01*
X177184100Y-140392080D01*
X177222195Y-140353985D01*
X177146004Y-140087319D02*
X177146004Y-139592080D01*
X177450766Y-139858747D01*
X177450766Y-139744461D01*
X177488861Y-139668271D01*
X177526957Y-139630176D01*
X177603147Y-139592080D01*
X177793623Y-139592080D01*
X177869814Y-139630176D01*
X177907909Y-139668271D01*
X177946004Y-139744461D01*
X177946004Y-139973033D01*
X177907909Y-140049223D01*
X177869814Y-140087319D01*
X177146004Y-139096842D02*
X177146004Y-139020652D01*
X177184100Y-138944461D01*
X177222195Y-138906366D01*
X177298385Y-138868271D01*
X177450766Y-138830176D01*
X177641242Y-138830176D01*
X177793623Y-138868271D01*
X177869814Y-138906366D01*
X177907909Y-138944461D01*
X177946004Y-139020652D01*
X177946004Y-139096842D01*
X177907909Y-139173033D01*
X177869814Y-139211128D01*
X177793623Y-139249223D01*
X177641242Y-139287319D01*
X177450766Y-139287319D01*
X177298385Y-139249223D01*
X177222195Y-139211128D01*
X177184100Y-139173033D01*
X177146004Y-139096842D01*
X167836914Y-134512014D02*
X167798819Y-134550109D01*
X167684533Y-134588204D01*
X167608342Y-134588204D01*
X167494057Y-134550109D01*
X167417866Y-134473919D01*
X167379771Y-134397728D01*
X167341676Y-134245347D01*
X167341676Y-134131061D01*
X167379771Y-133978680D01*
X167417866Y-133902490D01*
X167494057Y-133826300D01*
X167608342Y-133788204D01*
X167684533Y-133788204D01*
X167798819Y-133826300D01*
X167836914Y-133864395D01*
X168141676Y-133864395D02*
X168179771Y-133826300D01*
X168255961Y-133788204D01*
X168446438Y-133788204D01*
X168522628Y-133826300D01*
X168560723Y-133864395D01*
X168598819Y-133940585D01*
X168598819Y-134016776D01*
X168560723Y-134131061D01*
X168103580Y-134588204D01*
X168598819Y-134588204D01*
X168979771Y-134588204D02*
X169132152Y-134588204D01*
X169208342Y-134550109D01*
X169246438Y-134512014D01*
X169322628Y-134397728D01*
X169360723Y-134245347D01*
X169360723Y-133940585D01*
X169322628Y-133864395D01*
X169284533Y-133826300D01*
X169208342Y-133788204D01*
X169055961Y-133788204D01*
X168979771Y-133826300D01*
X168941676Y-133864395D01*
X168903580Y-133940585D01*
X168903580Y-134131061D01*
X168941676Y-134207252D01*
X168979771Y-134245347D01*
X169055961Y-134283442D01*
X169208342Y-134283442D01*
X169284533Y-134245347D01*
X169322628Y-134207252D01*
X169360723Y-134131061D01*
X182733914Y-140328585D02*
X182772009Y-140366680D01*
X182810104Y-140480966D01*
X182810104Y-140557157D01*
X182772009Y-140671442D01*
X182695819Y-140747633D01*
X182619628Y-140785728D01*
X182467247Y-140823823D01*
X182352961Y-140823823D01*
X182200580Y-140785728D01*
X182124390Y-140747633D01*
X182048200Y-140671442D01*
X182010104Y-140557157D01*
X182010104Y-140480966D01*
X182048200Y-140366680D01*
X182086295Y-140328585D01*
X182086295Y-140023823D02*
X182048200Y-139985728D01*
X182010104Y-139909538D01*
X182010104Y-139719061D01*
X182048200Y-139642871D01*
X182086295Y-139604776D01*
X182162485Y-139566680D01*
X182238676Y-139566680D01*
X182352961Y-139604776D01*
X182810104Y-140061919D01*
X182810104Y-139566680D01*
X182352961Y-139109538D02*
X182314866Y-139185728D01*
X182276771Y-139223823D01*
X182200580Y-139261919D01*
X182162485Y-139261919D01*
X182086295Y-139223823D01*
X182048200Y-139185728D01*
X182010104Y-139109538D01*
X182010104Y-138957157D01*
X182048200Y-138880966D01*
X182086295Y-138842871D01*
X182162485Y-138804776D01*
X182200580Y-138804776D01*
X182276771Y-138842871D01*
X182314866Y-138880966D01*
X182352961Y-138957157D01*
X182352961Y-139109538D01*
X182391057Y-139185728D01*
X182429152Y-139223823D01*
X182505342Y-139261919D01*
X182657723Y-139261919D01*
X182733914Y-139223823D01*
X182772009Y-139185728D01*
X182810104Y-139109538D01*
X182810104Y-138957157D01*
X182772009Y-138880966D01*
X182733914Y-138842871D01*
X182657723Y-138804776D01*
X182505342Y-138804776D01*
X182429152Y-138842871D01*
X182391057Y-138880966D01*
X182352961Y-138957157D01*
X124999804Y-137439323D02*
X125647423Y-137439323D01*
X125723614Y-137401228D01*
X125761709Y-137363133D01*
X125799804Y-137286942D01*
X125799804Y-137134561D01*
X125761709Y-137058371D01*
X125723614Y-137020276D01*
X125647423Y-136982180D01*
X124999804Y-136982180D01*
X125342661Y-136486942D02*
X125304566Y-136563133D01*
X125266471Y-136601228D01*
X125190280Y-136639323D01*
X125152185Y-136639323D01*
X125075995Y-136601228D01*
X125037900Y-136563133D01*
X124999804Y-136486942D01*
X124999804Y-136334561D01*
X125037900Y-136258371D01*
X125075995Y-136220276D01*
X125152185Y-136182180D01*
X125190280Y-136182180D01*
X125266471Y-136220276D01*
X125304566Y-136258371D01*
X125342661Y-136334561D01*
X125342661Y-136486942D01*
X125380757Y-136563133D01*
X125418852Y-136601228D01*
X125495042Y-136639323D01*
X125647423Y-136639323D01*
X125723614Y-136601228D01*
X125761709Y-136563133D01*
X125799804Y-136486942D01*
X125799804Y-136334561D01*
X125761709Y-136258371D01*
X125723614Y-136220276D01*
X125647423Y-136182180D01*
X125495042Y-136182180D01*
X125418852Y-136220276D01*
X125380757Y-136258371D01*
X125342661Y-136334561D01*
D12*
X181700419Y-109978866D02*
X180986133Y-109978866D01*
X180843276Y-109931247D01*
X180748038Y-109836009D01*
X180700419Y-109693152D01*
X180700419Y-109597914D01*
X181700419Y-110883628D02*
X181700419Y-110693152D01*
X181652800Y-110597914D01*
X181605180Y-110550295D01*
X181462323Y-110455057D01*
X181271847Y-110407438D01*
X180890895Y-110407438D01*
X180795657Y-110455057D01*
X180748038Y-110502676D01*
X180700419Y-110597914D01*
X180700419Y-110788390D01*
X180748038Y-110883628D01*
X180795657Y-110931247D01*
X180890895Y-110978866D01*
X181128990Y-110978866D01*
X181224228Y-110931247D01*
X181271847Y-110883628D01*
X181319466Y-110788390D01*
X181319466Y-110597914D01*
X181271847Y-110502676D01*
X181224228Y-110455057D01*
X181128990Y-110407438D01*
D13*
X131070404Y-116833566D02*
X131641833Y-116833566D01*
X131756119Y-116871661D01*
X131832309Y-116947852D01*
X131870404Y-117062138D01*
X131870404Y-117138328D01*
X131870404Y-116452614D02*
X131070404Y-116452614D01*
X131070404Y-116147852D01*
X131108500Y-116071661D01*
X131146595Y-116033566D01*
X131222785Y-115995471D01*
X131337071Y-115995471D01*
X131413261Y-116033566D01*
X131451357Y-116071661D01*
X131489452Y-116147852D01*
X131489452Y-116452614D01*
X131870404Y-115233566D02*
X131870404Y-115690709D01*
X131870404Y-115462138D02*
X131070404Y-115462138D01*
X131184690Y-115538328D01*
X131260880Y-115614519D01*
X131298976Y-115690709D01*
X159937414Y-141598585D02*
X159975509Y-141636680D01*
X160013604Y-141750966D01*
X160013604Y-141827157D01*
X159975509Y-141941442D01*
X159899319Y-142017633D01*
X159823128Y-142055728D01*
X159670747Y-142093823D01*
X159556461Y-142093823D01*
X159404080Y-142055728D01*
X159327890Y-142017633D01*
X159251700Y-141941442D01*
X159213604Y-141827157D01*
X159213604Y-141750966D01*
X159251700Y-141636680D01*
X159289795Y-141598585D01*
X160013604Y-140836680D02*
X160013604Y-141293823D01*
X160013604Y-141065252D02*
X159213604Y-141065252D01*
X159327890Y-141141442D01*
X159404080Y-141217633D01*
X159442176Y-141293823D01*
X160013604Y-140455728D02*
X160013604Y-140303347D01*
X159975509Y-140227157D01*
X159937414Y-140189061D01*
X159823128Y-140112871D01*
X159670747Y-140074776D01*
X159365985Y-140074776D01*
X159289795Y-140112871D01*
X159251700Y-140150966D01*
X159213604Y-140227157D01*
X159213604Y-140379538D01*
X159251700Y-140455728D01*
X159289795Y-140493823D01*
X159365985Y-140531919D01*
X159556461Y-140531919D01*
X159632652Y-140493823D01*
X159670747Y-140455728D01*
X159708842Y-140379538D01*
X159708842Y-140227157D01*
X159670747Y-140150966D01*
X159632652Y-140112871D01*
X159556461Y-140074776D01*
X164249180Y-138314204D02*
X164782514Y-139114204D01*
X164782514Y-138314204D02*
X164249180Y-139114204D01*
X165506323Y-139114204D02*
X165049180Y-139114204D01*
X165277752Y-139114204D02*
X165277752Y-138314204D01*
X165201561Y-138428490D01*
X165125371Y-138504680D01*
X165049180Y-138542776D01*
X198964604Y-149516976D02*
X199612223Y-149516976D01*
X199688414Y-149478880D01*
X199726509Y-149440785D01*
X199764604Y-149364595D01*
X199764604Y-149212214D01*
X199726509Y-149136023D01*
X199688414Y-149097928D01*
X199612223Y-149059833D01*
X198964604Y-149059833D01*
X199764604Y-148259833D02*
X199764604Y-148716976D01*
X199764604Y-148488404D02*
X198964604Y-148488404D01*
X199078890Y-148564595D01*
X199155080Y-148640785D01*
X199193176Y-148716976D01*
X198964604Y-147764595D02*
X198964604Y-147688404D01*
X199002700Y-147612214D01*
X199040795Y-147574119D01*
X199116985Y-147536023D01*
X199269366Y-147497928D01*
X199459842Y-147497928D01*
X199612223Y-147536023D01*
X199688414Y-147574119D01*
X199726509Y-147612214D01*
X199764604Y-147688404D01*
X199764604Y-147764595D01*
X199726509Y-147840785D01*
X199688414Y-147878880D01*
X199612223Y-147916976D01*
X199459842Y-147955071D01*
X199269366Y-147955071D01*
X199116985Y-147916976D01*
X199040795Y-147878880D01*
X199002700Y-147840785D01*
X198964604Y-147764595D01*
X186982176Y-154400304D02*
X186982176Y-155047923D01*
X187020271Y-155124114D01*
X187058366Y-155162209D01*
X187134557Y-155200304D01*
X187286938Y-155200304D01*
X187363128Y-155162209D01*
X187401223Y-155124114D01*
X187439319Y-155047923D01*
X187439319Y-154400304D01*
X187858366Y-155200304D02*
X188010747Y-155200304D01*
X188086938Y-155162209D01*
X188125033Y-155124114D01*
X188201223Y-155009828D01*
X188239319Y-154857447D01*
X188239319Y-154552685D01*
X188201223Y-154476495D01*
X188163128Y-154438400D01*
X188086938Y-154400304D01*
X187934557Y-154400304D01*
X187858366Y-154438400D01*
X187820271Y-154476495D01*
X187782176Y-154552685D01*
X187782176Y-154743161D01*
X187820271Y-154819352D01*
X187858366Y-154857447D01*
X187934557Y-154895542D01*
X188086938Y-154895542D01*
X188163128Y-154857447D01*
X188201223Y-154819352D01*
X188239319Y-154743161D01*
X141536404Y-126297323D02*
X142184023Y-126297323D01*
X142260214Y-126259228D01*
X142298309Y-126221133D01*
X142336404Y-126144942D01*
X142336404Y-125992561D01*
X142298309Y-125916371D01*
X142260214Y-125878276D01*
X142184023Y-125840180D01*
X141536404Y-125840180D01*
X141536404Y-125535419D02*
X141536404Y-125002085D01*
X142336404Y-125344942D01*
X134189104Y-122043023D02*
X134836723Y-122043023D01*
X134912914Y-122004928D01*
X134951009Y-121966833D01*
X134989104Y-121890642D01*
X134989104Y-121738261D01*
X134951009Y-121662071D01*
X134912914Y-121623976D01*
X134836723Y-121585880D01*
X134189104Y-121585880D01*
X134265295Y-121243023D02*
X134227200Y-121204928D01*
X134189104Y-121128738D01*
X134189104Y-120938261D01*
X134227200Y-120862071D01*
X134265295Y-120823976D01*
X134341485Y-120785880D01*
X134417676Y-120785880D01*
X134531961Y-120823976D01*
X134989104Y-121281119D01*
X134989104Y-120785880D01*
X160431804Y-131672323D02*
X161079423Y-131672323D01*
X161155614Y-131634228D01*
X161193709Y-131596133D01*
X161231804Y-131519942D01*
X161231804Y-131367561D01*
X161193709Y-131291371D01*
X161155614Y-131253276D01*
X161079423Y-131215180D01*
X160431804Y-131215180D01*
X161231804Y-130415180D02*
X161231804Y-130872323D01*
X161231804Y-130643752D02*
X160431804Y-130643752D01*
X160546090Y-130719942D01*
X160622280Y-130796133D01*
X160660376Y-130872323D01*
X184461166Y-150260004D02*
X184080214Y-150260004D01*
X184080214Y-149460004D01*
X185146880Y-150260004D02*
X184689738Y-150260004D01*
X184918309Y-150260004D02*
X184918309Y-149460004D01*
X184842119Y-149574290D01*
X184765928Y-149650480D01*
X184689738Y-149688576D01*
X193770214Y-154857385D02*
X193808309Y-154895480D01*
X193846404Y-155009766D01*
X193846404Y-155085957D01*
X193808309Y-155200242D01*
X193732119Y-155276433D01*
X193655928Y-155314528D01*
X193503547Y-155352623D01*
X193389261Y-155352623D01*
X193236880Y-155314528D01*
X193160690Y-155276433D01*
X193084500Y-155200242D01*
X193046404Y-155085957D01*
X193046404Y-155009766D01*
X193084500Y-154895480D01*
X193122595Y-154857385D01*
X193122595Y-154552623D02*
X193084500Y-154514528D01*
X193046404Y-154438338D01*
X193046404Y-154247861D01*
X193084500Y-154171671D01*
X193122595Y-154133576D01*
X193198785Y-154095480D01*
X193274976Y-154095480D01*
X193389261Y-154133576D01*
X193846404Y-154590719D01*
X193846404Y-154095480D01*
X193046404Y-153828814D02*
X193046404Y-153333576D01*
X193351166Y-153600242D01*
X193351166Y-153485957D01*
X193389261Y-153409766D01*
X193427357Y-153371671D01*
X193503547Y-153333576D01*
X193694023Y-153333576D01*
X193770214Y-153371671D01*
X193808309Y-153409766D01*
X193846404Y-153485957D01*
X193846404Y-153714528D01*
X193808309Y-153790719D01*
X193770214Y-153828814D01*
%LPC*%
D15*
X113678300Y-105442000D03*
X108178300Y-105442000D03*
X105778300Y-107442000D03*
G36*
G01*
X164829800Y-111625801D02*
X164829800Y-110725799D01*
G75*
G02*
X165079799Y-110475800I249999J0D01*
G01*
X165729801Y-110475800D01*
G75*
G02*
X165979800Y-110725799I0J-249999D01*
G01*
X165979800Y-111625801D01*
G75*
G02*
X165729801Y-111875800I-249999J0D01*
G01*
X165079799Y-111875800D01*
G75*
G02*
X164829800Y-111625801I0J249999D01*
G01*
G37*
G36*
G01*
X162779800Y-111625801D02*
X162779800Y-110725799D01*
G75*
G02*
X163029799Y-110475800I249999J0D01*
G01*
X163679801Y-110475800D01*
G75*
G02*
X163929800Y-110725799I0J-249999D01*
G01*
X163929800Y-111625801D01*
G75*
G02*
X163679801Y-111875800I-249999J0D01*
G01*
X163029799Y-111875800D01*
G75*
G02*
X162779800Y-111625801I0J249999D01*
G01*
G37*
D16*
X101790500Y-155867100D03*
X101790500Y-153327100D03*
X104330500Y-155867100D03*
X104330500Y-153327100D03*
X106870500Y-155867100D03*
X106870500Y-153327100D03*
X109410500Y-155867100D03*
X109410500Y-153327100D03*
X111950500Y-155867100D03*
X111950500Y-153327100D03*
X114490500Y-155867100D03*
X114490500Y-153327100D03*
X117030500Y-155867100D03*
X117030500Y-153327100D03*
X119570500Y-155867100D03*
X119570500Y-153327100D03*
X122110500Y-155867100D03*
X122110500Y-153327100D03*
X124650500Y-155867100D03*
X124650500Y-153327100D03*
X127190500Y-155867100D03*
X127190500Y-153327100D03*
X129730500Y-155867100D03*
X129730500Y-153327100D03*
X132270500Y-155867100D03*
X132270500Y-153327100D03*
X134810500Y-155867100D03*
X134810500Y-153327100D03*
X137350500Y-155867100D03*
X137350500Y-153327100D03*
X139890500Y-155867100D03*
X139890500Y-153327100D03*
X142430500Y-155867100D03*
X142430500Y-153327100D03*
X144970500Y-155867100D03*
X144970500Y-153327100D03*
X147510500Y-155867100D03*
X147510500Y-153327100D03*
X150050500Y-155867100D03*
X150050500Y-153327100D03*
X152590500Y-155867100D03*
X152590500Y-153327100D03*
X155130500Y-155867100D03*
X155130500Y-153327100D03*
X157670500Y-155867100D03*
X157670500Y-153327100D03*
X160210500Y-155867100D03*
X160210500Y-153327100D03*
X162750500Y-155867100D03*
X162750500Y-153327100D03*
X165290500Y-155867100D03*
X165290500Y-153327100D03*
X167830500Y-155867100D03*
X167830500Y-153327100D03*
X170370500Y-155867100D03*
X170370500Y-153327100D03*
X172910500Y-155867100D03*
X172910500Y-153327100D03*
X175450500Y-155867100D03*
D17*
X175450500Y-153327100D03*
D16*
X156210000Y-113042700D03*
X153670000Y-113042700D03*
X151130000Y-113042700D03*
X148590000Y-113042700D03*
X146050000Y-113042700D03*
X143510000Y-113042700D03*
X140970000Y-113042700D03*
D17*
X138430000Y-113042700D03*
G36*
G01*
X124324100Y-128505000D02*
X124799100Y-128505000D01*
G75*
G02*
X125036600Y-128742500I0J-237500D01*
G01*
X125036600Y-129342500D01*
G75*
G02*
X124799100Y-129580000I-237500J0D01*
G01*
X124324100Y-129580000D01*
G75*
G02*
X124086600Y-129342500I0J237500D01*
G01*
X124086600Y-128742500D01*
G75*
G02*
X124324100Y-128505000I237500J0D01*
G01*
G37*
G36*
G01*
X124324100Y-126780000D02*
X124799100Y-126780000D01*
G75*
G02*
X125036600Y-127017500I0J-237500D01*
G01*
X125036600Y-127617500D01*
G75*
G02*
X124799100Y-127855000I-237500J0D01*
G01*
X124324100Y-127855000D01*
G75*
G02*
X124086600Y-127617500I0J237500D01*
G01*
X124086600Y-127017500D01*
G75*
G02*
X124324100Y-126780000I237500J0D01*
G01*
G37*
G36*
G01*
X144168500Y-138674500D02*
X144318500Y-138674500D01*
G75*
G02*
X144393500Y-138749500I0J-75000D01*
G01*
X144393500Y-140074500D01*
G75*
G02*
X144318500Y-140149500I-75000J0D01*
G01*
X144168500Y-140149500D01*
G75*
G02*
X144093500Y-140074500I0J75000D01*
G01*
X144093500Y-138749500D01*
G75*
G02*
X144168500Y-138674500I75000J0D01*
G01*
G37*
G36*
G01*
X143668500Y-138674500D02*
X143818500Y-138674500D01*
G75*
G02*
X143893500Y-138749500I0J-75000D01*
G01*
X143893500Y-140074500D01*
G75*
G02*
X143818500Y-140149500I-75000J0D01*
G01*
X143668500Y-140149500D01*
G75*
G02*
X143593500Y-140074500I0J75000D01*
G01*
X143593500Y-138749500D01*
G75*
G02*
X143668500Y-138674500I75000J0D01*
G01*
G37*
G36*
G01*
X143168500Y-138674500D02*
X143318500Y-138674500D01*
G75*
G02*
X143393500Y-138749500I0J-75000D01*
G01*
X143393500Y-140074500D01*
G75*
G02*
X143318500Y-140149500I-75000J0D01*
G01*
X143168500Y-140149500D01*
G75*
G02*
X143093500Y-140074500I0J75000D01*
G01*
X143093500Y-138749500D01*
G75*
G02*
X143168500Y-138674500I75000J0D01*
G01*
G37*
G36*
G01*
X142668500Y-138674500D02*
X142818500Y-138674500D01*
G75*
G02*
X142893500Y-138749500I0J-75000D01*
G01*
X142893500Y-140074500D01*
G75*
G02*
X142818500Y-140149500I-75000J0D01*
G01*
X142668500Y-140149500D01*
G75*
G02*
X142593500Y-140074500I0J75000D01*
G01*
X142593500Y-138749500D01*
G75*
G02*
X142668500Y-138674500I75000J0D01*
G01*
G37*
G36*
G01*
X142168500Y-138674500D02*
X142318500Y-138674500D01*
G75*
G02*
X142393500Y-138749500I0J-75000D01*
G01*
X142393500Y-140074500D01*
G75*
G02*
X142318500Y-140149500I-75000J0D01*
G01*
X142168500Y-140149500D01*
G75*
G02*
X142093500Y-140074500I0J75000D01*
G01*
X142093500Y-138749500D01*
G75*
G02*
X142168500Y-138674500I75000J0D01*
G01*
G37*
G36*
G01*
X141668500Y-138674500D02*
X141818500Y-138674500D01*
G75*
G02*
X141893500Y-138749500I0J-75000D01*
G01*
X141893500Y-140074500D01*
G75*
G02*
X141818500Y-140149500I-75000J0D01*
G01*
X141668500Y-140149500D01*
G75*
G02*
X141593500Y-140074500I0J75000D01*
G01*
X141593500Y-138749500D01*
G75*
G02*
X141668500Y-138674500I75000J0D01*
G01*
G37*
G36*
G01*
X141168500Y-138674500D02*
X141318500Y-138674500D01*
G75*
G02*
X141393500Y-138749500I0J-75000D01*
G01*
X141393500Y-140074500D01*
G75*
G02*
X141318500Y-140149500I-75000J0D01*
G01*
X141168500Y-140149500D01*
G75*
G02*
X141093500Y-140074500I0J75000D01*
G01*
X141093500Y-138749500D01*
G75*
G02*
X141168500Y-138674500I75000J0D01*
G01*
G37*
G36*
G01*
X140668500Y-138674500D02*
X140818500Y-138674500D01*
G75*
G02*
X140893500Y-138749500I0J-75000D01*
G01*
X140893500Y-140074500D01*
G75*
G02*
X140818500Y-140149500I-75000J0D01*
G01*
X140668500Y-140149500D01*
G75*
G02*
X140593500Y-140074500I0J75000D01*
G01*
X140593500Y-138749500D01*
G75*
G02*
X140668500Y-138674500I75000J0D01*
G01*
G37*
G36*
G01*
X140168500Y-138674500D02*
X140318500Y-138674500D01*
G75*
G02*
X140393500Y-138749500I0J-75000D01*
G01*
X140393500Y-140074500D01*
G75*
G02*
X140318500Y-140149500I-75000J0D01*
G01*
X140168500Y-140149500D01*
G75*
G02*
X140093500Y-140074500I0J75000D01*
G01*
X140093500Y-138749500D01*
G75*
G02*
X140168500Y-138674500I75000J0D01*
G01*
G37*
G36*
G01*
X139668500Y-138674500D02*
X139818500Y-138674500D01*
G75*
G02*
X139893500Y-138749500I0J-75000D01*
G01*
X139893500Y-140074500D01*
G75*
G02*
X139818500Y-140149500I-75000J0D01*
G01*
X139668500Y-140149500D01*
G75*
G02*
X139593500Y-140074500I0J75000D01*
G01*
X139593500Y-138749500D01*
G75*
G02*
X139668500Y-138674500I75000J0D01*
G01*
G37*
G36*
G01*
X139168500Y-138674500D02*
X139318500Y-138674500D01*
G75*
G02*
X139393500Y-138749500I0J-75000D01*
G01*
X139393500Y-140074500D01*
G75*
G02*
X139318500Y-140149500I-75000J0D01*
G01*
X139168500Y-140149500D01*
G75*
G02*
X139093500Y-140074500I0J75000D01*
G01*
X139093500Y-138749500D01*
G75*
G02*
X139168500Y-138674500I75000J0D01*
G01*
G37*
G36*
G01*
X138668500Y-138674500D02*
X138818500Y-138674500D01*
G75*
G02*
X138893500Y-138749500I0J-75000D01*
G01*
X138893500Y-140074500D01*
G75*
G02*
X138818500Y-140149500I-75000J0D01*
G01*
X138668500Y-140149500D01*
G75*
G02*
X138593500Y-140074500I0J75000D01*
G01*
X138593500Y-138749500D01*
G75*
G02*
X138668500Y-138674500I75000J0D01*
G01*
G37*
G36*
G01*
X138168500Y-138674500D02*
X138318500Y-138674500D01*
G75*
G02*
X138393500Y-138749500I0J-75000D01*
G01*
X138393500Y-140074500D01*
G75*
G02*
X138318500Y-140149500I-75000J0D01*
G01*
X138168500Y-140149500D01*
G75*
G02*
X138093500Y-140074500I0J75000D01*
G01*
X138093500Y-138749500D01*
G75*
G02*
X138168500Y-138674500I75000J0D01*
G01*
G37*
G36*
G01*
X137668500Y-138674500D02*
X137818500Y-138674500D01*
G75*
G02*
X137893500Y-138749500I0J-75000D01*
G01*
X137893500Y-140074500D01*
G75*
G02*
X137818500Y-140149500I-75000J0D01*
G01*
X137668500Y-140149500D01*
G75*
G02*
X137593500Y-140074500I0J75000D01*
G01*
X137593500Y-138749500D01*
G75*
G02*
X137668500Y-138674500I75000J0D01*
G01*
G37*
G36*
G01*
X137168500Y-138674500D02*
X137318500Y-138674500D01*
G75*
G02*
X137393500Y-138749500I0J-75000D01*
G01*
X137393500Y-140074500D01*
G75*
G02*
X137318500Y-140149500I-75000J0D01*
G01*
X137168500Y-140149500D01*
G75*
G02*
X137093500Y-140074500I0J75000D01*
G01*
X137093500Y-138749500D01*
G75*
G02*
X137168500Y-138674500I75000J0D01*
G01*
G37*
G36*
G01*
X136668500Y-138674500D02*
X136818500Y-138674500D01*
G75*
G02*
X136893500Y-138749500I0J-75000D01*
G01*
X136893500Y-140074500D01*
G75*
G02*
X136818500Y-140149500I-75000J0D01*
G01*
X136668500Y-140149500D01*
G75*
G02*
X136593500Y-140074500I0J75000D01*
G01*
X136593500Y-138749500D01*
G75*
G02*
X136668500Y-138674500I75000J0D01*
G01*
G37*
G36*
G01*
X136168500Y-138674500D02*
X136318500Y-138674500D01*
G75*
G02*
X136393500Y-138749500I0J-75000D01*
G01*
X136393500Y-140074500D01*
G75*
G02*
X136318500Y-140149500I-75000J0D01*
G01*
X136168500Y-140149500D01*
G75*
G02*
X136093500Y-140074500I0J75000D01*
G01*
X136093500Y-138749500D01*
G75*
G02*
X136168500Y-138674500I75000J0D01*
G01*
G37*
G36*
G01*
X135668500Y-138674500D02*
X135818500Y-138674500D01*
G75*
G02*
X135893500Y-138749500I0J-75000D01*
G01*
X135893500Y-140074500D01*
G75*
G02*
X135818500Y-140149500I-75000J0D01*
G01*
X135668500Y-140149500D01*
G75*
G02*
X135593500Y-140074500I0J75000D01*
G01*
X135593500Y-138749500D01*
G75*
G02*
X135668500Y-138674500I75000J0D01*
G01*
G37*
G36*
G01*
X135168500Y-138674500D02*
X135318500Y-138674500D01*
G75*
G02*
X135393500Y-138749500I0J-75000D01*
G01*
X135393500Y-140074500D01*
G75*
G02*
X135318500Y-140149500I-75000J0D01*
G01*
X135168500Y-140149500D01*
G75*
G02*
X135093500Y-140074500I0J75000D01*
G01*
X135093500Y-138749500D01*
G75*
G02*
X135168500Y-138674500I75000J0D01*
G01*
G37*
G36*
G01*
X134668500Y-138674500D02*
X134818500Y-138674500D01*
G75*
G02*
X134893500Y-138749500I0J-75000D01*
G01*
X134893500Y-140074500D01*
G75*
G02*
X134818500Y-140149500I-75000J0D01*
G01*
X134668500Y-140149500D01*
G75*
G02*
X134593500Y-140074500I0J75000D01*
G01*
X134593500Y-138749500D01*
G75*
G02*
X134668500Y-138674500I75000J0D01*
G01*
G37*
G36*
G01*
X134168500Y-138674500D02*
X134318500Y-138674500D01*
G75*
G02*
X134393500Y-138749500I0J-75000D01*
G01*
X134393500Y-140074500D01*
G75*
G02*
X134318500Y-140149500I-75000J0D01*
G01*
X134168500Y-140149500D01*
G75*
G02*
X134093500Y-140074500I0J75000D01*
G01*
X134093500Y-138749500D01*
G75*
G02*
X134168500Y-138674500I75000J0D01*
G01*
G37*
G36*
G01*
X133668500Y-138674500D02*
X133818500Y-138674500D01*
G75*
G02*
X133893500Y-138749500I0J-75000D01*
G01*
X133893500Y-140074500D01*
G75*
G02*
X133818500Y-140149500I-75000J0D01*
G01*
X133668500Y-140149500D01*
G75*
G02*
X133593500Y-140074500I0J75000D01*
G01*
X133593500Y-138749500D01*
G75*
G02*
X133668500Y-138674500I75000J0D01*
G01*
G37*
G36*
G01*
X133168500Y-138674500D02*
X133318500Y-138674500D01*
G75*
G02*
X133393500Y-138749500I0J-75000D01*
G01*
X133393500Y-140074500D01*
G75*
G02*
X133318500Y-140149500I-75000J0D01*
G01*
X133168500Y-140149500D01*
G75*
G02*
X133093500Y-140074500I0J75000D01*
G01*
X133093500Y-138749500D01*
G75*
G02*
X133168500Y-138674500I75000J0D01*
G01*
G37*
G36*
G01*
X132668500Y-138674500D02*
X132818500Y-138674500D01*
G75*
G02*
X132893500Y-138749500I0J-75000D01*
G01*
X132893500Y-140074500D01*
G75*
G02*
X132818500Y-140149500I-75000J0D01*
G01*
X132668500Y-140149500D01*
G75*
G02*
X132593500Y-140074500I0J75000D01*
G01*
X132593500Y-138749500D01*
G75*
G02*
X132668500Y-138674500I75000J0D01*
G01*
G37*
G36*
G01*
X132668500Y-131249500D02*
X132818500Y-131249500D01*
G75*
G02*
X132893500Y-131324500I0J-75000D01*
G01*
X132893500Y-132649500D01*
G75*
G02*
X132818500Y-132724500I-75000J0D01*
G01*
X132668500Y-132724500D01*
G75*
G02*
X132593500Y-132649500I0J75000D01*
G01*
X132593500Y-131324500D01*
G75*
G02*
X132668500Y-131249500I75000J0D01*
G01*
G37*
G36*
G01*
X133168500Y-131249500D02*
X133318500Y-131249500D01*
G75*
G02*
X133393500Y-131324500I0J-75000D01*
G01*
X133393500Y-132649500D01*
G75*
G02*
X133318500Y-132724500I-75000J0D01*
G01*
X133168500Y-132724500D01*
G75*
G02*
X133093500Y-132649500I0J75000D01*
G01*
X133093500Y-131324500D01*
G75*
G02*
X133168500Y-131249500I75000J0D01*
G01*
G37*
G36*
G01*
X133668500Y-131249500D02*
X133818500Y-131249500D01*
G75*
G02*
X133893500Y-131324500I0J-75000D01*
G01*
X133893500Y-132649500D01*
G75*
G02*
X133818500Y-132724500I-75000J0D01*
G01*
X133668500Y-132724500D01*
G75*
G02*
X133593500Y-132649500I0J75000D01*
G01*
X133593500Y-131324500D01*
G75*
G02*
X133668500Y-131249500I75000J0D01*
G01*
G37*
G36*
G01*
X134168500Y-131249500D02*
X134318500Y-131249500D01*
G75*
G02*
X134393500Y-131324500I0J-75000D01*
G01*
X134393500Y-132649500D01*
G75*
G02*
X134318500Y-132724500I-75000J0D01*
G01*
X134168500Y-132724500D01*
G75*
G02*
X134093500Y-132649500I0J75000D01*
G01*
X134093500Y-131324500D01*
G75*
G02*
X134168500Y-131249500I75000J0D01*
G01*
G37*
G36*
G01*
X134668500Y-131249500D02*
X134818500Y-131249500D01*
G75*
G02*
X134893500Y-131324500I0J-75000D01*
G01*
X134893500Y-132649500D01*
G75*
G02*
X134818500Y-132724500I-75000J0D01*
G01*
X134668500Y-132724500D01*
G75*
G02*
X134593500Y-132649500I0J75000D01*
G01*
X134593500Y-131324500D01*
G75*
G02*
X134668500Y-131249500I75000J0D01*
G01*
G37*
G36*
G01*
X135168500Y-131249500D02*
X135318500Y-131249500D01*
G75*
G02*
X135393500Y-131324500I0J-75000D01*
G01*
X135393500Y-132649500D01*
G75*
G02*
X135318500Y-132724500I-75000J0D01*
G01*
X135168500Y-132724500D01*
G75*
G02*
X135093500Y-132649500I0J75000D01*
G01*
X135093500Y-131324500D01*
G75*
G02*
X135168500Y-131249500I75000J0D01*
G01*
G37*
G36*
G01*
X135668500Y-131249500D02*
X135818500Y-131249500D01*
G75*
G02*
X135893500Y-131324500I0J-75000D01*
G01*
X135893500Y-132649500D01*
G75*
G02*
X135818500Y-132724500I-75000J0D01*
G01*
X135668500Y-132724500D01*
G75*
G02*
X135593500Y-132649500I0J75000D01*
G01*
X135593500Y-131324500D01*
G75*
G02*
X135668500Y-131249500I75000J0D01*
G01*
G37*
G36*
G01*
X136168500Y-131249500D02*
X136318500Y-131249500D01*
G75*
G02*
X136393500Y-131324500I0J-75000D01*
G01*
X136393500Y-132649500D01*
G75*
G02*
X136318500Y-132724500I-75000J0D01*
G01*
X136168500Y-132724500D01*
G75*
G02*
X136093500Y-132649500I0J75000D01*
G01*
X136093500Y-131324500D01*
G75*
G02*
X136168500Y-131249500I75000J0D01*
G01*
G37*
G36*
G01*
X136668500Y-131249500D02*
X136818500Y-131249500D01*
G75*
G02*
X136893500Y-131324500I0J-75000D01*
G01*
X136893500Y-132649500D01*
G75*
G02*
X136818500Y-132724500I-75000J0D01*
G01*
X136668500Y-132724500D01*
G75*
G02*
X136593500Y-132649500I0J75000D01*
G01*
X136593500Y-131324500D01*
G75*
G02*
X136668500Y-131249500I75000J0D01*
G01*
G37*
G36*
G01*
X137168500Y-131249500D02*
X137318500Y-131249500D01*
G75*
G02*
X137393500Y-131324500I0J-75000D01*
G01*
X137393500Y-132649500D01*
G75*
G02*
X137318500Y-132724500I-75000J0D01*
G01*
X137168500Y-132724500D01*
G75*
G02*
X137093500Y-132649500I0J75000D01*
G01*
X137093500Y-131324500D01*
G75*
G02*
X137168500Y-131249500I75000J0D01*
G01*
G37*
G36*
G01*
X137668500Y-131249500D02*
X137818500Y-131249500D01*
G75*
G02*
X137893500Y-131324500I0J-75000D01*
G01*
X137893500Y-132649500D01*
G75*
G02*
X137818500Y-132724500I-75000J0D01*
G01*
X137668500Y-132724500D01*
G75*
G02*
X137593500Y-132649500I0J75000D01*
G01*
X137593500Y-131324500D01*
G75*
G02*
X137668500Y-131249500I75000J0D01*
G01*
G37*
G36*
G01*
X138168500Y-131249500D02*
X138318500Y-131249500D01*
G75*
G02*
X138393500Y-131324500I0J-75000D01*
G01*
X138393500Y-132649500D01*
G75*
G02*
X138318500Y-132724500I-75000J0D01*
G01*
X138168500Y-132724500D01*
G75*
G02*
X138093500Y-132649500I0J75000D01*
G01*
X138093500Y-131324500D01*
G75*
G02*
X138168500Y-131249500I75000J0D01*
G01*
G37*
G36*
G01*
X138668500Y-131249500D02*
X138818500Y-131249500D01*
G75*
G02*
X138893500Y-131324500I0J-75000D01*
G01*
X138893500Y-132649500D01*
G75*
G02*
X138818500Y-132724500I-75000J0D01*
G01*
X138668500Y-132724500D01*
G75*
G02*
X138593500Y-132649500I0J75000D01*
G01*
X138593500Y-131324500D01*
G75*
G02*
X138668500Y-131249500I75000J0D01*
G01*
G37*
G36*
G01*
X139168500Y-131249500D02*
X139318500Y-131249500D01*
G75*
G02*
X139393500Y-131324500I0J-75000D01*
G01*
X139393500Y-132649500D01*
G75*
G02*
X139318500Y-132724500I-75000J0D01*
G01*
X139168500Y-132724500D01*
G75*
G02*
X139093500Y-132649500I0J75000D01*
G01*
X139093500Y-131324500D01*
G75*
G02*
X139168500Y-131249500I75000J0D01*
G01*
G37*
G36*
G01*
X139668500Y-131249500D02*
X139818500Y-131249500D01*
G75*
G02*
X139893500Y-131324500I0J-75000D01*
G01*
X139893500Y-132649500D01*
G75*
G02*
X139818500Y-132724500I-75000J0D01*
G01*
X139668500Y-132724500D01*
G75*
G02*
X139593500Y-132649500I0J75000D01*
G01*
X139593500Y-131324500D01*
G75*
G02*
X139668500Y-131249500I75000J0D01*
G01*
G37*
G36*
G01*
X140168500Y-131249500D02*
X140318500Y-131249500D01*
G75*
G02*
X140393500Y-131324500I0J-75000D01*
G01*
X140393500Y-132649500D01*
G75*
G02*
X140318500Y-132724500I-75000J0D01*
G01*
X140168500Y-132724500D01*
G75*
G02*
X140093500Y-132649500I0J75000D01*
G01*
X140093500Y-131324500D01*
G75*
G02*
X140168500Y-131249500I75000J0D01*
G01*
G37*
G36*
G01*
X140668500Y-131249500D02*
X140818500Y-131249500D01*
G75*
G02*
X140893500Y-131324500I0J-75000D01*
G01*
X140893500Y-132649500D01*
G75*
G02*
X140818500Y-132724500I-75000J0D01*
G01*
X140668500Y-132724500D01*
G75*
G02*
X140593500Y-132649500I0J75000D01*
G01*
X140593500Y-131324500D01*
G75*
G02*
X140668500Y-131249500I75000J0D01*
G01*
G37*
G36*
G01*
X141168500Y-131249500D02*
X141318500Y-131249500D01*
G75*
G02*
X141393500Y-131324500I0J-75000D01*
G01*
X141393500Y-132649500D01*
G75*
G02*
X141318500Y-132724500I-75000J0D01*
G01*
X141168500Y-132724500D01*
G75*
G02*
X141093500Y-132649500I0J75000D01*
G01*
X141093500Y-131324500D01*
G75*
G02*
X141168500Y-131249500I75000J0D01*
G01*
G37*
G36*
G01*
X141668500Y-131249500D02*
X141818500Y-131249500D01*
G75*
G02*
X141893500Y-131324500I0J-75000D01*
G01*
X141893500Y-132649500D01*
G75*
G02*
X141818500Y-132724500I-75000J0D01*
G01*
X141668500Y-132724500D01*
G75*
G02*
X141593500Y-132649500I0J75000D01*
G01*
X141593500Y-131324500D01*
G75*
G02*
X141668500Y-131249500I75000J0D01*
G01*
G37*
G36*
G01*
X142168500Y-131249500D02*
X142318500Y-131249500D01*
G75*
G02*
X142393500Y-131324500I0J-75000D01*
G01*
X142393500Y-132649500D01*
G75*
G02*
X142318500Y-132724500I-75000J0D01*
G01*
X142168500Y-132724500D01*
G75*
G02*
X142093500Y-132649500I0J75000D01*
G01*
X142093500Y-131324500D01*
G75*
G02*
X142168500Y-131249500I75000J0D01*
G01*
G37*
G36*
G01*
X142668500Y-131249500D02*
X142818500Y-131249500D01*
G75*
G02*
X142893500Y-131324500I0J-75000D01*
G01*
X142893500Y-132649500D01*
G75*
G02*
X142818500Y-132724500I-75000J0D01*
G01*
X142668500Y-132724500D01*
G75*
G02*
X142593500Y-132649500I0J75000D01*
G01*
X142593500Y-131324500D01*
G75*
G02*
X142668500Y-131249500I75000J0D01*
G01*
G37*
G36*
G01*
X143168500Y-131249500D02*
X143318500Y-131249500D01*
G75*
G02*
X143393500Y-131324500I0J-75000D01*
G01*
X143393500Y-132649500D01*
G75*
G02*
X143318500Y-132724500I-75000J0D01*
G01*
X143168500Y-132724500D01*
G75*
G02*
X143093500Y-132649500I0J75000D01*
G01*
X143093500Y-131324500D01*
G75*
G02*
X143168500Y-131249500I75000J0D01*
G01*
G37*
G36*
G01*
X143668500Y-131249500D02*
X143818500Y-131249500D01*
G75*
G02*
X143893500Y-131324500I0J-75000D01*
G01*
X143893500Y-132649500D01*
G75*
G02*
X143818500Y-132724500I-75000J0D01*
G01*
X143668500Y-132724500D01*
G75*
G02*
X143593500Y-132649500I0J75000D01*
G01*
X143593500Y-131324500D01*
G75*
G02*
X143668500Y-131249500I75000J0D01*
G01*
G37*
G36*
G01*
X144168500Y-131249500D02*
X144318500Y-131249500D01*
G75*
G02*
X144393500Y-131324500I0J-75000D01*
G01*
X144393500Y-132649500D01*
G75*
G02*
X144318500Y-132724500I-75000J0D01*
G01*
X144168500Y-132724500D01*
G75*
G02*
X144093500Y-132649500I0J75000D01*
G01*
X144093500Y-131324500D01*
G75*
G02*
X144168500Y-131249500I75000J0D01*
G01*
G37*
G36*
G01*
X163267200Y-116043700D02*
X163267200Y-116518700D01*
G75*
G02*
X163029700Y-116756200I-237500J0D01*
G01*
X162529700Y-116756200D01*
G75*
G02*
X162292200Y-116518700I0J237500D01*
G01*
X162292200Y-116043700D01*
G75*
G02*
X162529700Y-115806200I237500J0D01*
G01*
X163029700Y-115806200D01*
G75*
G02*
X163267200Y-116043700I0J-237500D01*
G01*
G37*
G36*
G01*
X165092200Y-116043700D02*
X165092200Y-116518700D01*
G75*
G02*
X164854700Y-116756200I-237500J0D01*
G01*
X164354700Y-116756200D01*
G75*
G02*
X164117200Y-116518700I0J237500D01*
G01*
X164117200Y-116043700D01*
G75*
G02*
X164354700Y-115806200I237500J0D01*
G01*
X164854700Y-115806200D01*
G75*
G02*
X165092200Y-116043700I0J-237500D01*
G01*
G37*
D16*
X110578900Y-119367300D03*
D17*
X110578900Y-121907300D03*
D18*
X197387800Y-139930000D03*
X197387800Y-124230000D03*
X192437800Y-139330000D03*
X192437800Y-124830000D03*
D19*
X191537800Y-136330000D03*
X191537800Y-135830000D03*
X191537800Y-135330000D03*
X191537800Y-134830000D03*
X191537800Y-134330000D03*
X191537800Y-133830000D03*
X191537800Y-133330000D03*
X191537800Y-132830000D03*
X191537800Y-132330000D03*
X191537800Y-131830000D03*
X191537800Y-131330000D03*
X191537800Y-130830000D03*
X191537800Y-130330000D03*
X191537800Y-129830000D03*
X191537800Y-129330000D03*
X191537800Y-128830000D03*
X191537800Y-128330000D03*
X191537800Y-127830000D03*
X191537800Y-127330000D03*
D20*
X119632300Y-119033500D03*
X120282300Y-119033500D03*
X120932300Y-119033500D03*
X121582300Y-119033500D03*
X122232300Y-119033500D03*
X122882300Y-119033500D03*
X123532300Y-119033500D03*
X124182300Y-119033500D03*
X124182300Y-124933500D03*
X123532300Y-124933500D03*
X122882300Y-124933500D03*
X122232300Y-124933500D03*
X121582300Y-124933500D03*
X120932300Y-124933500D03*
X120282300Y-124933500D03*
X119632300Y-124933500D03*
G36*
G01*
X117072400Y-118549600D02*
X117547400Y-118549600D01*
G75*
G02*
X117784900Y-118787100I0J-237500D01*
G01*
X117784900Y-119287100D01*
G75*
G02*
X117547400Y-119524600I-237500J0D01*
G01*
X117072400Y-119524600D01*
G75*
G02*
X116834900Y-119287100I0J237500D01*
G01*
X116834900Y-118787100D01*
G75*
G02*
X117072400Y-118549600I237500J0D01*
G01*
G37*
G36*
G01*
X117072400Y-116724600D02*
X117547400Y-116724600D01*
G75*
G02*
X117784900Y-116962100I0J-237500D01*
G01*
X117784900Y-117462100D01*
G75*
G02*
X117547400Y-117699600I-237500J0D01*
G01*
X117072400Y-117699600D01*
G75*
G02*
X116834900Y-117462100I0J237500D01*
G01*
X116834900Y-116962100D01*
G75*
G02*
X117072400Y-116724600I237500J0D01*
G01*
G37*
G36*
G01*
X117547400Y-125419300D02*
X117072400Y-125419300D01*
G75*
G02*
X116834900Y-125181800I0J237500D01*
G01*
X116834900Y-124681800D01*
G75*
G02*
X117072400Y-124444300I237500J0D01*
G01*
X117547400Y-124444300D01*
G75*
G02*
X117784900Y-124681800I0J-237500D01*
G01*
X117784900Y-125181800D01*
G75*
G02*
X117547400Y-125419300I-237500J0D01*
G01*
G37*
G36*
G01*
X117547400Y-127244300D02*
X117072400Y-127244300D01*
G75*
G02*
X116834900Y-127006800I0J237500D01*
G01*
X116834900Y-126506800D01*
G75*
G02*
X117072400Y-126269300I237500J0D01*
G01*
X117547400Y-126269300D01*
G75*
G02*
X117784900Y-126506800I0J-237500D01*
G01*
X117784900Y-127006800D01*
G75*
G02*
X117547400Y-127244300I-237500J0D01*
G01*
G37*
G36*
G01*
X122635000Y-128517700D02*
X123110000Y-128517700D01*
G75*
G02*
X123347500Y-128755200I0J-237500D01*
G01*
X123347500Y-129355200D01*
G75*
G02*
X123110000Y-129592700I-237500J0D01*
G01*
X122635000Y-129592700D01*
G75*
G02*
X122397500Y-129355200I0J237500D01*
G01*
X122397500Y-128755200D01*
G75*
G02*
X122635000Y-128517700I237500J0D01*
G01*
G37*
G36*
G01*
X122635000Y-126792700D02*
X123110000Y-126792700D01*
G75*
G02*
X123347500Y-127030200I0J-237500D01*
G01*
X123347500Y-127630200D01*
G75*
G02*
X123110000Y-127867700I-237500J0D01*
G01*
X122635000Y-127867700D01*
G75*
G02*
X122397500Y-127630200I0J237500D01*
G01*
X122397500Y-127030200D01*
G75*
G02*
X122635000Y-126792700I237500J0D01*
G01*
G37*
G36*
G01*
X120056900Y-128607700D02*
X120531900Y-128607700D01*
G75*
G02*
X120769400Y-128845200I0J-237500D01*
G01*
X120769400Y-129445200D01*
G75*
G02*
X120531900Y-129682700I-237500J0D01*
G01*
X120056900Y-129682700D01*
G75*
G02*
X119819400Y-129445200I0J237500D01*
G01*
X119819400Y-128845200D01*
G75*
G02*
X120056900Y-128607700I237500J0D01*
G01*
G37*
G36*
G01*
X120056900Y-126882700D02*
X120531900Y-126882700D01*
G75*
G02*
X120769400Y-127120200I0J-237500D01*
G01*
X120769400Y-127720200D01*
G75*
G02*
X120531900Y-127957700I-237500J0D01*
G01*
X120056900Y-127957700D01*
G75*
G02*
X119819400Y-127720200I0J237500D01*
G01*
X119819400Y-127120200D01*
G75*
G02*
X120056900Y-126882700I237500J0D01*
G01*
G37*
G36*
G01*
X122131800Y-117064800D02*
X122131800Y-116589800D01*
G75*
G02*
X122369300Y-116352300I237500J0D01*
G01*
X122969300Y-116352300D01*
G75*
G02*
X123206800Y-116589800I0J-237500D01*
G01*
X123206800Y-117064800D01*
G75*
G02*
X122969300Y-117302300I-237500J0D01*
G01*
X122369300Y-117302300D01*
G75*
G02*
X122131800Y-117064800I0J237500D01*
G01*
G37*
G36*
G01*
X120406800Y-117064800D02*
X120406800Y-116589800D01*
G75*
G02*
X120644300Y-116352300I237500J0D01*
G01*
X121244300Y-116352300D01*
G75*
G02*
X121481800Y-116589800I0J-237500D01*
G01*
X121481800Y-117064800D01*
G75*
G02*
X121244300Y-117302300I-237500J0D01*
G01*
X120644300Y-117302300D01*
G75*
G02*
X120406800Y-117064800I0J237500D01*
G01*
G37*
G36*
G01*
X115294400Y-118461500D02*
X115769400Y-118461500D01*
G75*
G02*
X116006900Y-118699000I0J-237500D01*
G01*
X116006900Y-119299000D01*
G75*
G02*
X115769400Y-119536500I-237500J0D01*
G01*
X115294400Y-119536500D01*
G75*
G02*
X115056900Y-119299000I0J237500D01*
G01*
X115056900Y-118699000D01*
G75*
G02*
X115294400Y-118461500I237500J0D01*
G01*
G37*
G36*
G01*
X115294400Y-116736500D02*
X115769400Y-116736500D01*
G75*
G02*
X116006900Y-116974000I0J-237500D01*
G01*
X116006900Y-117574000D01*
G75*
G02*
X115769400Y-117811500I-237500J0D01*
G01*
X115294400Y-117811500D01*
G75*
G02*
X115056900Y-117574000I0J237500D01*
G01*
X115056900Y-116974000D01*
G75*
G02*
X115294400Y-116736500I237500J0D01*
G01*
G37*
G36*
G01*
X116784000Y-121979700D02*
X116784000Y-121504700D01*
G75*
G02*
X117021500Y-121267200I237500J0D01*
G01*
X117621500Y-121267200D01*
G75*
G02*
X117859000Y-121504700I0J-237500D01*
G01*
X117859000Y-121979700D01*
G75*
G02*
X117621500Y-122217200I-237500J0D01*
G01*
X117021500Y-122217200D01*
G75*
G02*
X116784000Y-121979700I0J237500D01*
G01*
G37*
G36*
G01*
X115059000Y-121979700D02*
X115059000Y-121504700D01*
G75*
G02*
X115296500Y-121267200I237500J0D01*
G01*
X115896500Y-121267200D01*
G75*
G02*
X116134000Y-121504700I0J-237500D01*
G01*
X116134000Y-121979700D01*
G75*
G02*
X115896500Y-122217200I-237500J0D01*
G01*
X115296500Y-122217200D01*
G75*
G02*
X115059000Y-121979700I0J237500D01*
G01*
G37*
G36*
G01*
X115769400Y-125519300D02*
X115294400Y-125519300D01*
G75*
G02*
X115056900Y-125281800I0J237500D01*
G01*
X115056900Y-124681800D01*
G75*
G02*
X115294400Y-124444300I237500J0D01*
G01*
X115769400Y-124444300D01*
G75*
G02*
X116006900Y-124681800I0J-237500D01*
G01*
X116006900Y-125281800D01*
G75*
G02*
X115769400Y-125519300I-237500J0D01*
G01*
G37*
G36*
G01*
X115769400Y-127244300D02*
X115294400Y-127244300D01*
G75*
G02*
X115056900Y-127006800I0J237500D01*
G01*
X115056900Y-126406800D01*
G75*
G02*
X115294400Y-126169300I237500J0D01*
G01*
X115769400Y-126169300D01*
G75*
G02*
X116006900Y-126406800I0J-237500D01*
G01*
X116006900Y-127006800D01*
G75*
G02*
X115769400Y-127244300I-237500J0D01*
G01*
G37*
G36*
G01*
X140249900Y-123168600D02*
X140724900Y-123168600D01*
G75*
G02*
X140962400Y-123406100I0J-237500D01*
G01*
X140962400Y-123906100D01*
G75*
G02*
X140724900Y-124143600I-237500J0D01*
G01*
X140249900Y-124143600D01*
G75*
G02*
X140012400Y-123906100I0J237500D01*
G01*
X140012400Y-123406100D01*
G75*
G02*
X140249900Y-123168600I237500J0D01*
G01*
G37*
G36*
G01*
X140249900Y-121343600D02*
X140724900Y-121343600D01*
G75*
G02*
X140962400Y-121581100I0J-237500D01*
G01*
X140962400Y-122081100D01*
G75*
G02*
X140724900Y-122318600I-237500J0D01*
G01*
X140249900Y-122318600D01*
G75*
G02*
X140012400Y-122081100I0J237500D01*
G01*
X140012400Y-121581100D01*
G75*
G02*
X140249900Y-121343600I237500J0D01*
G01*
G37*
G36*
G01*
X140750300Y-126255600D02*
X140275300Y-126255600D01*
G75*
G02*
X140037800Y-126018100I0J237500D01*
G01*
X140037800Y-125518100D01*
G75*
G02*
X140275300Y-125280600I237500J0D01*
G01*
X140750300Y-125280600D01*
G75*
G02*
X140987800Y-125518100I0J-237500D01*
G01*
X140987800Y-126018100D01*
G75*
G02*
X140750300Y-126255600I-237500J0D01*
G01*
G37*
G36*
G01*
X140750300Y-128080600D02*
X140275300Y-128080600D01*
G75*
G02*
X140037800Y-127843100I0J237500D01*
G01*
X140037800Y-127343100D01*
G75*
G02*
X140275300Y-127105600I237500J0D01*
G01*
X140750300Y-127105600D01*
G75*
G02*
X140987800Y-127343100I0J-237500D01*
G01*
X140987800Y-127843100D01*
G75*
G02*
X140750300Y-128080600I-237500J0D01*
G01*
G37*
G36*
G01*
X141966900Y-119460000D02*
X141966900Y-119935000D01*
G75*
G02*
X141729400Y-120172500I-237500J0D01*
G01*
X141129400Y-120172500D01*
G75*
G02*
X140891900Y-119935000I0J237500D01*
G01*
X140891900Y-119460000D01*
G75*
G02*
X141129400Y-119222500I237500J0D01*
G01*
X141729400Y-119222500D01*
G75*
G02*
X141966900Y-119460000I0J-237500D01*
G01*
G37*
G36*
G01*
X143691900Y-119460000D02*
X143691900Y-119935000D01*
G75*
G02*
X143454400Y-120172500I-237500J0D01*
G01*
X142854400Y-120172500D01*
G75*
G02*
X142616900Y-119935000I0J237500D01*
G01*
X142616900Y-119460000D01*
G75*
G02*
X142854400Y-119222500I237500J0D01*
G01*
X143454400Y-119222500D01*
G75*
G02*
X143691900Y-119460000I0J-237500D01*
G01*
G37*
G36*
G01*
X130920500Y-139895400D02*
X130445500Y-139895400D01*
G75*
G02*
X130208000Y-139657900I0J237500D01*
G01*
X130208000Y-139157900D01*
G75*
G02*
X130445500Y-138920400I237500J0D01*
G01*
X130920500Y-138920400D01*
G75*
G02*
X131158000Y-139157900I0J-237500D01*
G01*
X131158000Y-139657900D01*
G75*
G02*
X130920500Y-139895400I-237500J0D01*
G01*
G37*
G36*
G01*
X130920500Y-141720400D02*
X130445500Y-141720400D01*
G75*
G02*
X130208000Y-141482900I0J237500D01*
G01*
X130208000Y-140982900D01*
G75*
G02*
X130445500Y-140745400I237500J0D01*
G01*
X130920500Y-140745400D01*
G75*
G02*
X131158000Y-140982900I0J-237500D01*
G01*
X131158000Y-141482900D01*
G75*
G02*
X130920500Y-141720400I-237500J0D01*
G01*
G37*
G36*
G01*
X136036000Y-129302500D02*
X136036000Y-129777500D01*
G75*
G02*
X135798500Y-130015000I-237500J0D01*
G01*
X135198500Y-130015000D01*
G75*
G02*
X134961000Y-129777500I0J237500D01*
G01*
X134961000Y-129302500D01*
G75*
G02*
X135198500Y-129065000I237500J0D01*
G01*
X135798500Y-129065000D01*
G75*
G02*
X136036000Y-129302500I0J-237500D01*
G01*
G37*
G36*
G01*
X137761000Y-129302500D02*
X137761000Y-129777500D01*
G75*
G02*
X137523500Y-130015000I-237500J0D01*
G01*
X136923500Y-130015000D01*
G75*
G02*
X136686000Y-129777500I0J237500D01*
G01*
X136686000Y-129302500D01*
G75*
G02*
X136923500Y-129065000I237500J0D01*
G01*
X137523500Y-129065000D01*
G75*
G02*
X137761000Y-129302500I0J-237500D01*
G01*
G37*
G36*
G01*
X136127500Y-124146600D02*
X135652500Y-124146600D01*
G75*
G02*
X135415000Y-123909100I0J237500D01*
G01*
X135415000Y-123309100D01*
G75*
G02*
X135652500Y-123071600I237500J0D01*
G01*
X136127500Y-123071600D01*
G75*
G02*
X136365000Y-123309100I0J-237500D01*
G01*
X136365000Y-123909100D01*
G75*
G02*
X136127500Y-124146600I-237500J0D01*
G01*
G37*
G36*
G01*
X136127500Y-125871600D02*
X135652500Y-125871600D01*
G75*
G02*
X135415000Y-125634100I0J237500D01*
G01*
X135415000Y-125034100D01*
G75*
G02*
X135652500Y-124796600I237500J0D01*
G01*
X136127500Y-124796600D01*
G75*
G02*
X136365000Y-125034100I0J-237500D01*
G01*
X136365000Y-125634100D01*
G75*
G02*
X136127500Y-125871600I-237500J0D01*
G01*
G37*
G36*
G01*
X177618000Y-113669100D02*
X177818000Y-113669100D01*
G75*
G02*
X177918000Y-113769100I0J-100000D01*
G01*
X177918000Y-115044100D01*
G75*
G02*
X177818000Y-115144100I-100000J0D01*
G01*
X177618000Y-115144100D01*
G75*
G02*
X177518000Y-115044100I0J100000D01*
G01*
X177518000Y-113769100D01*
G75*
G02*
X177618000Y-113669100I100000J0D01*
G01*
G37*
G36*
G01*
X176968000Y-113669100D02*
X177168000Y-113669100D01*
G75*
G02*
X177268000Y-113769100I0J-100000D01*
G01*
X177268000Y-115044100D01*
G75*
G02*
X177168000Y-115144100I-100000J0D01*
G01*
X176968000Y-115144100D01*
G75*
G02*
X176868000Y-115044100I0J100000D01*
G01*
X176868000Y-113769100D01*
G75*
G02*
X176968000Y-113669100I100000J0D01*
G01*
G37*
G36*
G01*
X176318000Y-113669100D02*
X176518000Y-113669100D01*
G75*
G02*
X176618000Y-113769100I0J-100000D01*
G01*
X176618000Y-115044100D01*
G75*
G02*
X176518000Y-115144100I-100000J0D01*
G01*
X176318000Y-115144100D01*
G75*
G02*
X176218000Y-115044100I0J100000D01*
G01*
X176218000Y-113769100D01*
G75*
G02*
X176318000Y-113669100I100000J0D01*
G01*
G37*
G36*
G01*
X175668000Y-113669100D02*
X175868000Y-113669100D01*
G75*
G02*
X175968000Y-113769100I0J-100000D01*
G01*
X175968000Y-115044100D01*
G75*
G02*
X175868000Y-115144100I-100000J0D01*
G01*
X175668000Y-115144100D01*
G75*
G02*
X175568000Y-115044100I0J100000D01*
G01*
X175568000Y-113769100D01*
G75*
G02*
X175668000Y-113669100I100000J0D01*
G01*
G37*
G36*
G01*
X175018000Y-113669100D02*
X175218000Y-113669100D01*
G75*
G02*
X175318000Y-113769100I0J-100000D01*
G01*
X175318000Y-115044100D01*
G75*
G02*
X175218000Y-115144100I-100000J0D01*
G01*
X175018000Y-115144100D01*
G75*
G02*
X174918000Y-115044100I0J100000D01*
G01*
X174918000Y-113769100D01*
G75*
G02*
X175018000Y-113669100I100000J0D01*
G01*
G37*
G36*
G01*
X174368000Y-113669100D02*
X174568000Y-113669100D01*
G75*
G02*
X174668000Y-113769100I0J-100000D01*
G01*
X174668000Y-115044100D01*
G75*
G02*
X174568000Y-115144100I-100000J0D01*
G01*
X174368000Y-115144100D01*
G75*
G02*
X174268000Y-115044100I0J100000D01*
G01*
X174268000Y-113769100D01*
G75*
G02*
X174368000Y-113669100I100000J0D01*
G01*
G37*
G36*
G01*
X173718000Y-113669100D02*
X173918000Y-113669100D01*
G75*
G02*
X174018000Y-113769100I0J-100000D01*
G01*
X174018000Y-115044100D01*
G75*
G02*
X173918000Y-115144100I-100000J0D01*
G01*
X173718000Y-115144100D01*
G75*
G02*
X173618000Y-115044100I0J100000D01*
G01*
X173618000Y-113769100D01*
G75*
G02*
X173718000Y-113669100I100000J0D01*
G01*
G37*
G36*
G01*
X173718000Y-107944100D02*
X173918000Y-107944100D01*
G75*
G02*
X174018000Y-108044100I0J-100000D01*
G01*
X174018000Y-109319100D01*
G75*
G02*
X173918000Y-109419100I-100000J0D01*
G01*
X173718000Y-109419100D01*
G75*
G02*
X173618000Y-109319100I0J100000D01*
G01*
X173618000Y-108044100D01*
G75*
G02*
X173718000Y-107944100I100000J0D01*
G01*
G37*
G36*
G01*
X174368000Y-107944100D02*
X174568000Y-107944100D01*
G75*
G02*
X174668000Y-108044100I0J-100000D01*
G01*
X174668000Y-109319100D01*
G75*
G02*
X174568000Y-109419100I-100000J0D01*
G01*
X174368000Y-109419100D01*
G75*
G02*
X174268000Y-109319100I0J100000D01*
G01*
X174268000Y-108044100D01*
G75*
G02*
X174368000Y-107944100I100000J0D01*
G01*
G37*
G36*
G01*
X175018000Y-107944100D02*
X175218000Y-107944100D01*
G75*
G02*
X175318000Y-108044100I0J-100000D01*
G01*
X175318000Y-109319100D01*
G75*
G02*
X175218000Y-109419100I-100000J0D01*
G01*
X175018000Y-109419100D01*
G75*
G02*
X174918000Y-109319100I0J100000D01*
G01*
X174918000Y-108044100D01*
G75*
G02*
X175018000Y-107944100I100000J0D01*
G01*
G37*
G36*
G01*
X175668000Y-107944100D02*
X175868000Y-107944100D01*
G75*
G02*
X175968000Y-108044100I0J-100000D01*
G01*
X175968000Y-109319100D01*
G75*
G02*
X175868000Y-109419100I-100000J0D01*
G01*
X175668000Y-109419100D01*
G75*
G02*
X175568000Y-109319100I0J100000D01*
G01*
X175568000Y-108044100D01*
G75*
G02*
X175668000Y-107944100I100000J0D01*
G01*
G37*
G36*
G01*
X176318000Y-107944100D02*
X176518000Y-107944100D01*
G75*
G02*
X176618000Y-108044100I0J-100000D01*
G01*
X176618000Y-109319100D01*
G75*
G02*
X176518000Y-109419100I-100000J0D01*
G01*
X176318000Y-109419100D01*
G75*
G02*
X176218000Y-109319100I0J100000D01*
G01*
X176218000Y-108044100D01*
G75*
G02*
X176318000Y-107944100I100000J0D01*
G01*
G37*
G36*
G01*
X176968000Y-107944100D02*
X177168000Y-107944100D01*
G75*
G02*
X177268000Y-108044100I0J-100000D01*
G01*
X177268000Y-109319100D01*
G75*
G02*
X177168000Y-109419100I-100000J0D01*
G01*
X176968000Y-109419100D01*
G75*
G02*
X176868000Y-109319100I0J100000D01*
G01*
X176868000Y-108044100D01*
G75*
G02*
X176968000Y-107944100I100000J0D01*
G01*
G37*
G36*
G01*
X177618000Y-107944100D02*
X177818000Y-107944100D01*
G75*
G02*
X177918000Y-108044100I0J-100000D01*
G01*
X177918000Y-109319100D01*
G75*
G02*
X177818000Y-109419100I-100000J0D01*
G01*
X177618000Y-109419100D01*
G75*
G02*
X177518000Y-109319100I0J100000D01*
G01*
X177518000Y-108044100D01*
G75*
G02*
X177618000Y-107944100I100000J0D01*
G01*
G37*
G36*
G01*
X184677500Y-119688600D02*
X184677500Y-120163600D01*
G75*
G02*
X184440000Y-120401100I-237500J0D01*
G01*
X183940000Y-120401100D01*
G75*
G02*
X183702500Y-120163600I0J237500D01*
G01*
X183702500Y-119688600D01*
G75*
G02*
X183940000Y-119451100I237500J0D01*
G01*
X184440000Y-119451100D01*
G75*
G02*
X184677500Y-119688600I0J-237500D01*
G01*
G37*
G36*
G01*
X186502500Y-119688600D02*
X186502500Y-120163600D01*
G75*
G02*
X186265000Y-120401100I-237500J0D01*
G01*
X185765000Y-120401100D01*
G75*
G02*
X185527500Y-120163600I0J237500D01*
G01*
X185527500Y-119688600D01*
G75*
G02*
X185765000Y-119451100I237500J0D01*
G01*
X186265000Y-119451100D01*
G75*
G02*
X186502500Y-119688600I0J-237500D01*
G01*
G37*
G36*
G01*
X178925100Y-117115600D02*
X178925100Y-116640600D01*
G75*
G02*
X179162600Y-116403100I237500J0D01*
G01*
X179762600Y-116403100D01*
G75*
G02*
X180000100Y-116640600I0J-237500D01*
G01*
X180000100Y-117115600D01*
G75*
G02*
X179762600Y-117353100I-237500J0D01*
G01*
X179162600Y-117353100D01*
G75*
G02*
X178925100Y-117115600I0J237500D01*
G01*
G37*
G36*
G01*
X177200100Y-117115600D02*
X177200100Y-116640600D01*
G75*
G02*
X177437600Y-116403100I237500J0D01*
G01*
X178037600Y-116403100D01*
G75*
G02*
X178275100Y-116640600I0J-237500D01*
G01*
X178275100Y-117115600D01*
G75*
G02*
X178037600Y-117353100I-237500J0D01*
G01*
X177437600Y-117353100D01*
G75*
G02*
X177200100Y-117115600I0J237500D01*
G01*
G37*
G36*
G01*
X197213600Y-145788400D02*
X197213600Y-144838400D01*
G75*
G02*
X197463600Y-144588400I250000J0D01*
G01*
X197963600Y-144588400D01*
G75*
G02*
X198213600Y-144838400I0J-250000D01*
G01*
X198213600Y-145788400D01*
G75*
G02*
X197963600Y-146038400I-250000J0D01*
G01*
X197463600Y-146038400D01*
G75*
G02*
X197213600Y-145788400I0J250000D01*
G01*
G37*
G36*
G01*
X195313600Y-145788400D02*
X195313600Y-144838400D01*
G75*
G02*
X195563600Y-144588400I250000J0D01*
G01*
X196063600Y-144588400D01*
G75*
G02*
X196313600Y-144838400I0J-250000D01*
G01*
X196313600Y-145788400D01*
G75*
G02*
X196063600Y-146038400I-250000J0D01*
G01*
X195563600Y-146038400D01*
G75*
G02*
X195313600Y-145788400I0J250000D01*
G01*
G37*
G36*
G01*
X197198800Y-152104100D02*
X197198800Y-151629100D01*
G75*
G02*
X197436300Y-151391600I237500J0D01*
G01*
X197936300Y-151391600D01*
G75*
G02*
X198173800Y-151629100I0J-237500D01*
G01*
X198173800Y-152104100D01*
G75*
G02*
X197936300Y-152341600I-237500J0D01*
G01*
X197436300Y-152341600D01*
G75*
G02*
X197198800Y-152104100I0J237500D01*
G01*
G37*
G36*
G01*
X195373800Y-152104100D02*
X195373800Y-151629100D01*
G75*
G02*
X195611300Y-151391600I237500J0D01*
G01*
X196111300Y-151391600D01*
G75*
G02*
X196348800Y-151629100I0J-237500D01*
G01*
X196348800Y-152104100D01*
G75*
G02*
X196111300Y-152341600I-237500J0D01*
G01*
X195611300Y-152341600D01*
G75*
G02*
X195373800Y-152104100I0J237500D01*
G01*
G37*
G36*
G01*
X193591200Y-148228900D02*
X192641200Y-148228900D01*
G75*
G02*
X192391200Y-147978900I0J250000D01*
G01*
X192391200Y-147303900D01*
G75*
G02*
X192641200Y-147053900I250000J0D01*
G01*
X193591200Y-147053900D01*
G75*
G02*
X193841200Y-147303900I0J-250000D01*
G01*
X193841200Y-147978900D01*
G75*
G02*
X193591200Y-148228900I-250000J0D01*
G01*
G37*
G36*
G01*
X193591200Y-150303900D02*
X192641200Y-150303900D01*
G75*
G02*
X192391200Y-150053900I0J250000D01*
G01*
X192391200Y-149378900D01*
G75*
G02*
X192641200Y-149128900I250000J0D01*
G01*
X193591200Y-149128900D01*
G75*
G02*
X193841200Y-149378900I0J-250000D01*
G01*
X193841200Y-150053900D01*
G75*
G02*
X193591200Y-150303900I-250000J0D01*
G01*
G37*
G36*
G01*
X187369900Y-147019000D02*
X187369900Y-147494000D01*
G75*
G02*
X187132400Y-147731500I-237500J0D01*
G01*
X186632400Y-147731500D01*
G75*
G02*
X186394900Y-147494000I0J237500D01*
G01*
X186394900Y-147019000D01*
G75*
G02*
X186632400Y-146781500I237500J0D01*
G01*
X187132400Y-146781500D01*
G75*
G02*
X187369900Y-147019000I0J-237500D01*
G01*
G37*
G36*
G01*
X189194900Y-147019000D02*
X189194900Y-147494000D01*
G75*
G02*
X188957400Y-147731500I-237500J0D01*
G01*
X188457400Y-147731500D01*
G75*
G02*
X188219900Y-147494000I0J237500D01*
G01*
X188219900Y-147019000D01*
G75*
G02*
X188457400Y-146781500I237500J0D01*
G01*
X188957400Y-146781500D01*
G75*
G02*
X189194900Y-147019000I0J-237500D01*
G01*
G37*
G36*
G01*
X188219900Y-149018000D02*
X188219900Y-148543000D01*
G75*
G02*
X188457400Y-148305500I237500J0D01*
G01*
X188957400Y-148305500D01*
G75*
G02*
X189194900Y-148543000I0J-237500D01*
G01*
X189194900Y-149018000D01*
G75*
G02*
X188957400Y-149255500I-237500J0D01*
G01*
X188457400Y-149255500D01*
G75*
G02*
X188219900Y-149018000I0J237500D01*
G01*
G37*
G36*
G01*
X186394900Y-149018000D02*
X186394900Y-148543000D01*
G75*
G02*
X186632400Y-148305500I237500J0D01*
G01*
X187132400Y-148305500D01*
G75*
G02*
X187369900Y-148543000I0J-237500D01*
G01*
X187369900Y-149018000D01*
G75*
G02*
X187132400Y-149255500I-237500J0D01*
G01*
X186632400Y-149255500D01*
G75*
G02*
X186394900Y-149018000I0J237500D01*
G01*
G37*
G36*
G01*
X182085400Y-148252200D02*
X182085400Y-147302200D01*
G75*
G02*
X182335400Y-147052200I250000J0D01*
G01*
X183010400Y-147052200D01*
G75*
G02*
X183260400Y-147302200I0J-250000D01*
G01*
X183260400Y-148252200D01*
G75*
G02*
X183010400Y-148502200I-250000J0D01*
G01*
X182335400Y-148502200D01*
G75*
G02*
X182085400Y-148252200I0J250000D01*
G01*
G37*
G36*
G01*
X180010400Y-148252200D02*
X180010400Y-147302200D01*
G75*
G02*
X180260400Y-147052200I250000J0D01*
G01*
X180935400Y-147052200D01*
G75*
G02*
X181185400Y-147302200I0J-250000D01*
G01*
X181185400Y-148252200D01*
G75*
G02*
X180935400Y-148502200I-250000J0D01*
G01*
X180260400Y-148502200D01*
G75*
G02*
X180010400Y-148252200I0J250000D01*
G01*
G37*
G36*
G01*
X187369900Y-156759900D02*
X187369900Y-157234900D01*
G75*
G02*
X187132400Y-157472400I-237500J0D01*
G01*
X186632400Y-157472400D01*
G75*
G02*
X186394900Y-157234900I0J237500D01*
G01*
X186394900Y-156759900D01*
G75*
G02*
X186632400Y-156522400I237500J0D01*
G01*
X187132400Y-156522400D01*
G75*
G02*
X187369900Y-156759900I0J-237500D01*
G01*
G37*
G36*
G01*
X189194900Y-156759900D02*
X189194900Y-157234900D01*
G75*
G02*
X188957400Y-157472400I-237500J0D01*
G01*
X188457400Y-157472400D01*
G75*
G02*
X188219900Y-157234900I0J237500D01*
G01*
X188219900Y-156759900D01*
G75*
G02*
X188457400Y-156522400I237500J0D01*
G01*
X188957400Y-156522400D01*
G75*
G02*
X189194900Y-156759900I0J-237500D01*
G01*
G37*
G36*
G01*
X165092200Y-119206000D02*
X165092200Y-119681000D01*
G75*
G02*
X164854700Y-119918500I-237500J0D01*
G01*
X164354700Y-119918500D01*
G75*
G02*
X164117200Y-119681000I0J237500D01*
G01*
X164117200Y-119206000D01*
G75*
G02*
X164354700Y-118968500I237500J0D01*
G01*
X164854700Y-118968500D01*
G75*
G02*
X165092200Y-119206000I0J-237500D01*
G01*
G37*
G36*
G01*
X163267200Y-119206000D02*
X163267200Y-119681000D01*
G75*
G02*
X163029700Y-119918500I-237500J0D01*
G01*
X162529700Y-119918500D01*
G75*
G02*
X162292200Y-119681000I0J237500D01*
G01*
X162292200Y-119206000D01*
G75*
G02*
X162529700Y-118968500I237500J0D01*
G01*
X163029700Y-118968500D01*
G75*
G02*
X163267200Y-119206000I0J-237500D01*
G01*
G37*
G36*
G01*
X163267200Y-117618500D02*
X163267200Y-118093500D01*
G75*
G02*
X163029700Y-118331000I-237500J0D01*
G01*
X162529700Y-118331000D01*
G75*
G02*
X162292200Y-118093500I0J237500D01*
G01*
X162292200Y-117618500D01*
G75*
G02*
X162529700Y-117381000I237500J0D01*
G01*
X163029700Y-117381000D01*
G75*
G02*
X163267200Y-117618500I0J-237500D01*
G01*
G37*
G36*
G01*
X165092200Y-117618500D02*
X165092200Y-118093500D01*
G75*
G02*
X164854700Y-118331000I-237500J0D01*
G01*
X164354700Y-118331000D01*
G75*
G02*
X164117200Y-118093500I0J237500D01*
G01*
X164117200Y-117618500D01*
G75*
G02*
X164354700Y-117381000I237500J0D01*
G01*
X164854700Y-117381000D01*
G75*
G02*
X165092200Y-117618500I0J-237500D01*
G01*
G37*
G36*
G01*
X185284100Y-140152300D02*
X185759100Y-140152300D01*
G75*
G02*
X185996600Y-140389800I0J-237500D01*
G01*
X185996600Y-140889800D01*
G75*
G02*
X185759100Y-141127300I-237500J0D01*
G01*
X185284100Y-141127300D01*
G75*
G02*
X185046600Y-140889800I0J237500D01*
G01*
X185046600Y-140389800D01*
G75*
G02*
X185284100Y-140152300I237500J0D01*
G01*
G37*
G36*
G01*
X185284100Y-138327300D02*
X185759100Y-138327300D01*
G75*
G02*
X185996600Y-138564800I0J-237500D01*
G01*
X185996600Y-139064800D01*
G75*
G02*
X185759100Y-139302300I-237500J0D01*
G01*
X185284100Y-139302300D01*
G75*
G02*
X185046600Y-139064800I0J237500D01*
G01*
X185046600Y-138564800D01*
G75*
G02*
X185284100Y-138327300I237500J0D01*
G01*
G37*
G36*
G01*
X185309500Y-124794200D02*
X185784500Y-124794200D01*
G75*
G02*
X186022000Y-125031700I0J-237500D01*
G01*
X186022000Y-125531700D01*
G75*
G02*
X185784500Y-125769200I-237500J0D01*
G01*
X185309500Y-125769200D01*
G75*
G02*
X185072000Y-125531700I0J237500D01*
G01*
X185072000Y-125031700D01*
G75*
G02*
X185309500Y-124794200I237500J0D01*
G01*
G37*
G36*
G01*
X185309500Y-122969200D02*
X185784500Y-122969200D01*
G75*
G02*
X186022000Y-123206700I0J-237500D01*
G01*
X186022000Y-123706700D01*
G75*
G02*
X185784500Y-123944200I-237500J0D01*
G01*
X185309500Y-123944200D01*
G75*
G02*
X185072000Y-123706700I0J237500D01*
G01*
X185072000Y-123206700D01*
G75*
G02*
X185309500Y-122969200I237500J0D01*
G01*
G37*
D21*
X177094900Y-130511300D03*
D22*
X171394900Y-134261300D03*
X171394900Y-133761300D03*
X171394900Y-133261300D03*
X171394900Y-132761300D03*
X171394900Y-132261300D03*
X171394900Y-131761300D03*
X171394900Y-131261300D03*
X171394900Y-130761300D03*
X171394900Y-130261300D03*
X171394900Y-129761300D03*
X171394900Y-129261300D03*
X171394900Y-128761300D03*
X171394900Y-128261300D03*
X171394900Y-127761300D03*
X171394900Y-127261300D03*
X171394900Y-126761300D03*
D23*
X173344900Y-124811300D03*
X173844900Y-124811300D03*
X174344900Y-124811300D03*
X174844900Y-124811300D03*
X175344900Y-124811300D03*
X175844900Y-124811300D03*
X176344900Y-124811300D03*
X176844900Y-124811300D03*
X177344900Y-124811300D03*
X177844900Y-124811300D03*
X178344900Y-124811300D03*
X178844900Y-124811300D03*
X179344900Y-124811300D03*
X179844900Y-124811300D03*
X180344900Y-124811300D03*
X180844900Y-124811300D03*
D22*
X182794900Y-126761300D03*
X182794900Y-127261300D03*
X182794900Y-127761300D03*
X182794900Y-128261300D03*
X182794900Y-128761300D03*
X182794900Y-129261300D03*
X182794900Y-129761300D03*
X182794900Y-130261300D03*
X182794900Y-130761300D03*
X182794900Y-131261300D03*
X182794900Y-131761300D03*
X182794900Y-132261300D03*
X182794900Y-132761300D03*
X182794900Y-133261300D03*
X182794900Y-133761300D03*
X182794900Y-134261300D03*
D23*
X180844900Y-136211300D03*
X180344900Y-136211300D03*
X179844900Y-136211300D03*
X179344900Y-136211300D03*
X178844900Y-136211300D03*
X178344900Y-136211300D03*
X177844900Y-136211300D03*
X177344900Y-136211300D03*
X176844900Y-136211300D03*
X176344900Y-136211300D03*
X175844900Y-136211300D03*
X175344900Y-136211300D03*
X174844900Y-136211300D03*
X174344900Y-136211300D03*
X173844900Y-136211300D03*
X173344900Y-136211300D03*
G36*
G01*
X109254100Y-132972800D02*
X109254100Y-133447800D01*
G75*
G02*
X109016600Y-133685300I-237500J0D01*
G01*
X108516600Y-133685300D01*
G75*
G02*
X108279100Y-133447800I0J237500D01*
G01*
X108279100Y-132972800D01*
G75*
G02*
X108516600Y-132735300I237500J0D01*
G01*
X109016600Y-132735300D01*
G75*
G02*
X109254100Y-132972800I0J-237500D01*
G01*
G37*
G36*
G01*
X111079100Y-132972800D02*
X111079100Y-133447800D01*
G75*
G02*
X110841600Y-133685300I-237500J0D01*
G01*
X110341600Y-133685300D01*
G75*
G02*
X110104100Y-133447800I0J237500D01*
G01*
X110104100Y-132972800D01*
G75*
G02*
X110341600Y-132735300I237500J0D01*
G01*
X110841600Y-132735300D01*
G75*
G02*
X111079100Y-132972800I0J-237500D01*
G01*
G37*
G36*
G01*
X113888700Y-133473200D02*
X113888700Y-132998200D01*
G75*
G02*
X114126200Y-132760700I237500J0D01*
G01*
X114626200Y-132760700D01*
G75*
G02*
X114863700Y-132998200I0J-237500D01*
G01*
X114863700Y-133473200D01*
G75*
G02*
X114626200Y-133710700I-237500J0D01*
G01*
X114126200Y-133710700D01*
G75*
G02*
X113888700Y-133473200I0J237500D01*
G01*
G37*
G36*
G01*
X112063700Y-133473200D02*
X112063700Y-132998200D01*
G75*
G02*
X112301200Y-132760700I237500J0D01*
G01*
X112801200Y-132760700D01*
G75*
G02*
X113038700Y-132998200I0J-237500D01*
G01*
X113038700Y-133473200D01*
G75*
G02*
X112801200Y-133710700I-237500J0D01*
G01*
X112301200Y-133710700D01*
G75*
G02*
X112063700Y-133473200I0J237500D01*
G01*
G37*
G36*
G01*
X119194700Y-150041600D02*
X119194700Y-150516600D01*
G75*
G02*
X118957200Y-150754100I-237500J0D01*
G01*
X118357200Y-150754100D01*
G75*
G02*
X118119700Y-150516600I0J237500D01*
G01*
X118119700Y-150041600D01*
G75*
G02*
X118357200Y-149804100I237500J0D01*
G01*
X118957200Y-149804100D01*
G75*
G02*
X119194700Y-150041600I0J-237500D01*
G01*
G37*
G36*
G01*
X120919700Y-150041600D02*
X120919700Y-150516600D01*
G75*
G02*
X120682200Y-150754100I-237500J0D01*
G01*
X120082200Y-150754100D01*
G75*
G02*
X119844700Y-150516600I0J237500D01*
G01*
X119844700Y-150041600D01*
G75*
G02*
X120082200Y-149804100I237500J0D01*
G01*
X120682200Y-149804100D01*
G75*
G02*
X120919700Y-150041600I0J-237500D01*
G01*
G37*
G36*
G01*
X110139600Y-142116800D02*
X110139600Y-142591800D01*
G75*
G02*
X109902100Y-142829300I-237500J0D01*
G01*
X109302100Y-142829300D01*
G75*
G02*
X109064600Y-142591800I0J237500D01*
G01*
X109064600Y-142116800D01*
G75*
G02*
X109302100Y-141879300I237500J0D01*
G01*
X109902100Y-141879300D01*
G75*
G02*
X110139600Y-142116800I0J-237500D01*
G01*
G37*
G36*
G01*
X111864600Y-142116800D02*
X111864600Y-142591800D01*
G75*
G02*
X111627100Y-142829300I-237500J0D01*
G01*
X111027100Y-142829300D01*
G75*
G02*
X110789600Y-142591800I0J237500D01*
G01*
X110789600Y-142116800D01*
G75*
G02*
X111027100Y-141879300I237500J0D01*
G01*
X111627100Y-141879300D01*
G75*
G02*
X111864600Y-142116800I0J-237500D01*
G01*
G37*
G36*
G01*
X128936800Y-142604500D02*
X128936800Y-142129500D01*
G75*
G02*
X129174300Y-141892000I237500J0D01*
G01*
X129774300Y-141892000D01*
G75*
G02*
X130011800Y-142129500I0J-237500D01*
G01*
X130011800Y-142604500D01*
G75*
G02*
X129774300Y-142842000I-237500J0D01*
G01*
X129174300Y-142842000D01*
G75*
G02*
X128936800Y-142604500I0J237500D01*
G01*
G37*
G36*
G01*
X127211800Y-142604500D02*
X127211800Y-142129500D01*
G75*
G02*
X127449300Y-141892000I237500J0D01*
G01*
X128049300Y-141892000D01*
G75*
G02*
X128286800Y-142129500I0J-237500D01*
G01*
X128286800Y-142604500D01*
G75*
G02*
X128049300Y-142842000I-237500J0D01*
G01*
X127449300Y-142842000D01*
G75*
G02*
X127211800Y-142604500I0J237500D01*
G01*
G37*
G36*
G01*
X117369600Y-132898000D02*
X116894600Y-132898000D01*
G75*
G02*
X116657100Y-132660500I0J237500D01*
G01*
X116657100Y-132060500D01*
G75*
G02*
X116894600Y-131823000I237500J0D01*
G01*
X117369600Y-131823000D01*
G75*
G02*
X117607100Y-132060500I0J-237500D01*
G01*
X117607100Y-132660500D01*
G75*
G02*
X117369600Y-132898000I-237500J0D01*
G01*
G37*
G36*
G01*
X117369600Y-134623000D02*
X116894600Y-134623000D01*
G75*
G02*
X116657100Y-134385500I0J237500D01*
G01*
X116657100Y-133785500D01*
G75*
G02*
X116894600Y-133548000I237500J0D01*
G01*
X117369600Y-133548000D01*
G75*
G02*
X117607100Y-133785500I0J-237500D01*
G01*
X117607100Y-134385500D01*
G75*
G02*
X117369600Y-134623000I-237500J0D01*
G01*
G37*
D16*
X104876600Y-136690100D03*
X102336600Y-136690100D03*
X104876600Y-139230100D03*
X102336600Y-139230100D03*
X104876600Y-141770100D03*
X102336600Y-141770100D03*
X104876600Y-144310100D03*
X102336600Y-144310100D03*
X104876600Y-146850100D03*
D17*
X102336600Y-146850100D03*
G36*
G01*
X185771200Y-133686500D02*
X185221200Y-133686500D01*
G75*
G02*
X185021200Y-133486500I0J200000D01*
G01*
X185021200Y-133086500D01*
G75*
G02*
X185221200Y-132886500I200000J0D01*
G01*
X185771200Y-132886500D01*
G75*
G02*
X185971200Y-133086500I0J-200000D01*
G01*
X185971200Y-133486500D01*
G75*
G02*
X185771200Y-133686500I-200000J0D01*
G01*
G37*
G36*
G01*
X185771200Y-135336500D02*
X185221200Y-135336500D01*
G75*
G02*
X185021200Y-135136500I0J200000D01*
G01*
X185021200Y-134736500D01*
G75*
G02*
X185221200Y-134536500I200000J0D01*
G01*
X185771200Y-134536500D01*
G75*
G02*
X185971200Y-134736500I0J-200000D01*
G01*
X185971200Y-135136500D01*
G75*
G02*
X185771200Y-135336500I-200000J0D01*
G01*
G37*
G36*
G01*
X178654700Y-140190100D02*
X179129700Y-140190100D01*
G75*
G02*
X179367200Y-140427600I0J-237500D01*
G01*
X179367200Y-141027600D01*
G75*
G02*
X179129700Y-141265100I-237500J0D01*
G01*
X178654700Y-141265100D01*
G75*
G02*
X178417200Y-141027600I0J237500D01*
G01*
X178417200Y-140427600D01*
G75*
G02*
X178654700Y-140190100I237500J0D01*
G01*
G37*
G36*
G01*
X178654700Y-138465100D02*
X179129700Y-138465100D01*
G75*
G02*
X179367200Y-138702600I0J-237500D01*
G01*
X179367200Y-139302600D01*
G75*
G02*
X179129700Y-139540100I-237500J0D01*
G01*
X178654700Y-139540100D01*
G75*
G02*
X178417200Y-139302600I0J237500D01*
G01*
X178417200Y-138702600D01*
G75*
G02*
X178654700Y-138465100I237500J0D01*
G01*
G37*
G36*
G01*
X168153200Y-135296900D02*
X168153200Y-135771900D01*
G75*
G02*
X167915700Y-136009400I-237500J0D01*
G01*
X167315700Y-136009400D01*
G75*
G02*
X167078200Y-135771900I0J237500D01*
G01*
X167078200Y-135296900D01*
G75*
G02*
X167315700Y-135059400I237500J0D01*
G01*
X167915700Y-135059400D01*
G75*
G02*
X168153200Y-135296900I0J-237500D01*
G01*
G37*
G36*
G01*
X169878200Y-135296900D02*
X169878200Y-135771900D01*
G75*
G02*
X169640700Y-136009400I-237500J0D01*
G01*
X169040700Y-136009400D01*
G75*
G02*
X168803200Y-135771900I0J237500D01*
G01*
X168803200Y-135296900D01*
G75*
G02*
X169040700Y-135059400I237500J0D01*
G01*
X169640700Y-135059400D01*
G75*
G02*
X169878200Y-135296900I0J-237500D01*
G01*
G37*
G36*
G01*
X183620400Y-140036600D02*
X184095400Y-140036600D01*
G75*
G02*
X184332900Y-140274100I0J-237500D01*
G01*
X184332900Y-140874100D01*
G75*
G02*
X184095400Y-141111600I-237500J0D01*
G01*
X183620400Y-141111600D01*
G75*
G02*
X183382900Y-140874100I0J237500D01*
G01*
X183382900Y-140274100D01*
G75*
G02*
X183620400Y-140036600I237500J0D01*
G01*
G37*
G36*
G01*
X183620400Y-138311600D02*
X184095400Y-138311600D01*
G75*
G02*
X184332900Y-138549100I0J-237500D01*
G01*
X184332900Y-139149100D01*
G75*
G02*
X184095400Y-139386600I-237500J0D01*
G01*
X183620400Y-139386600D01*
G75*
G02*
X183382900Y-139149100I0J237500D01*
G01*
X183382900Y-138549100D01*
G75*
G02*
X183620400Y-138311600I237500J0D01*
G01*
G37*
D24*
X125232400Y-138354300D03*
X125232400Y-139154300D03*
X125232400Y-139954300D03*
X125232400Y-140754300D03*
X125232400Y-141554300D03*
X125232400Y-142354300D03*
X125232400Y-143154300D03*
X125232400Y-143954300D03*
X125232400Y-144754300D03*
X125232400Y-145554300D03*
X125232400Y-146354300D03*
D25*
X123532400Y-148054300D03*
X122732400Y-148054300D03*
X121932400Y-148054300D03*
X121132400Y-148054300D03*
X120332400Y-148054300D03*
X119532400Y-148054300D03*
X118732400Y-148054300D03*
X117932400Y-148054300D03*
X117132400Y-148054300D03*
X116332400Y-148054300D03*
X115532400Y-148054300D03*
D24*
X113832400Y-146354300D03*
X113832400Y-145554300D03*
X113832400Y-144754300D03*
X113832400Y-143954300D03*
X113832400Y-143154300D03*
X113832400Y-142354300D03*
X113832400Y-141554300D03*
X113832400Y-140754300D03*
X113832400Y-139954300D03*
X113832400Y-139154300D03*
X113832400Y-138354300D03*
D25*
X115532400Y-136654300D03*
X116332400Y-136654300D03*
X117132400Y-136654300D03*
X117932400Y-136654300D03*
X118732400Y-136654300D03*
X119532400Y-136654300D03*
X120332400Y-136654300D03*
X121132400Y-136654300D03*
X121932400Y-136654300D03*
X122732400Y-136654300D03*
X123532400Y-136654300D03*
D26*
X198433800Y-103954700D03*
D27*
X197983800Y-117454700D03*
D28*
X193833800Y-117454700D03*
D29*
X187633800Y-117454700D03*
X183333800Y-106304700D03*
D30*
X183333800Y-114454700D03*
X183333800Y-113354700D03*
X183333800Y-112254700D03*
X183333800Y-111154700D03*
X183333800Y-110054700D03*
X183333800Y-108954700D03*
X183333800Y-107854700D03*
X183333800Y-115554700D03*
X183333800Y-116504700D03*
D16*
X131483100Y-113182400D03*
D17*
X131483100Y-110642400D03*
G36*
G01*
X160665450Y-141459800D02*
X161177950Y-141459800D01*
G75*
G02*
X161396700Y-141678550I0J-218750D01*
G01*
X161396700Y-142116050D01*
G75*
G02*
X161177950Y-142334800I-218750J0D01*
G01*
X160665450Y-142334800D01*
G75*
G02*
X160446700Y-142116050I0J218750D01*
G01*
X160446700Y-141678550D01*
G75*
G02*
X160665450Y-141459800I218750J0D01*
G01*
G37*
G36*
G01*
X160665450Y-139884800D02*
X161177950Y-139884800D01*
G75*
G02*
X161396700Y-140103550I0J-218750D01*
G01*
X161396700Y-140541050D01*
G75*
G02*
X161177950Y-140759800I-218750J0D01*
G01*
X160665450Y-140759800D01*
G75*
G02*
X160446700Y-140541050I0J218750D01*
G01*
X160446700Y-140103550D01*
G75*
G02*
X160665450Y-139884800I218750J0D01*
G01*
G37*
D31*
X163626800Y-140322300D03*
X166166800Y-140322300D03*
X166166800Y-142522300D03*
X163626800Y-142522300D03*
D32*
X195798400Y-147490000D03*
X197698400Y-147490000D03*
X197698400Y-149690000D03*
X196748400Y-149690000D03*
X195798400Y-149690000D03*
D33*
X188704400Y-151538900D03*
X188704400Y-153438900D03*
X186504400Y-153438900D03*
X186504400Y-152488900D03*
X186504400Y-151538900D03*
G36*
G01*
X143469500Y-123137800D02*
X143169500Y-123137800D01*
G75*
G02*
X143019500Y-122987800I0J150000D01*
G01*
X143019500Y-121337800D01*
G75*
G02*
X143169500Y-121187800I150000J0D01*
G01*
X143469500Y-121187800D01*
G75*
G02*
X143619500Y-121337800I0J-150000D01*
G01*
X143619500Y-122987800D01*
G75*
G02*
X143469500Y-123137800I-150000J0D01*
G01*
G37*
G36*
G01*
X144739500Y-123137800D02*
X144439500Y-123137800D01*
G75*
G02*
X144289500Y-122987800I0J150000D01*
G01*
X144289500Y-121337800D01*
G75*
G02*
X144439500Y-121187800I150000J0D01*
G01*
X144739500Y-121187800D01*
G75*
G02*
X144889500Y-121337800I0J-150000D01*
G01*
X144889500Y-122987800D01*
G75*
G02*
X144739500Y-123137800I-150000J0D01*
G01*
G37*
G36*
G01*
X146009500Y-123137800D02*
X145709500Y-123137800D01*
G75*
G02*
X145559500Y-122987800I0J150000D01*
G01*
X145559500Y-121337800D01*
G75*
G02*
X145709500Y-121187800I150000J0D01*
G01*
X146009500Y-121187800D01*
G75*
G02*
X146159500Y-121337800I0J-150000D01*
G01*
X146159500Y-122987800D01*
G75*
G02*
X146009500Y-123137800I-150000J0D01*
G01*
G37*
G36*
G01*
X147279500Y-123137800D02*
X146979500Y-123137800D01*
G75*
G02*
X146829500Y-122987800I0J150000D01*
G01*
X146829500Y-121337800D01*
G75*
G02*
X146979500Y-121187800I150000J0D01*
G01*
X147279500Y-121187800D01*
G75*
G02*
X147429500Y-121337800I0J-150000D01*
G01*
X147429500Y-122987800D01*
G75*
G02*
X147279500Y-123137800I-150000J0D01*
G01*
G37*
G36*
G01*
X147279500Y-128087800D02*
X146979500Y-128087800D01*
G75*
G02*
X146829500Y-127937800I0J150000D01*
G01*
X146829500Y-126287800D01*
G75*
G02*
X146979500Y-126137800I150000J0D01*
G01*
X147279500Y-126137800D01*
G75*
G02*
X147429500Y-126287800I0J-150000D01*
G01*
X147429500Y-127937800D01*
G75*
G02*
X147279500Y-128087800I-150000J0D01*
G01*
G37*
G36*
G01*
X146009500Y-128087800D02*
X145709500Y-128087800D01*
G75*
G02*
X145559500Y-127937800I0J150000D01*
G01*
X145559500Y-126287800D01*
G75*
G02*
X145709500Y-126137800I150000J0D01*
G01*
X146009500Y-126137800D01*
G75*
G02*
X146159500Y-126287800I0J-150000D01*
G01*
X146159500Y-127937800D01*
G75*
G02*
X146009500Y-128087800I-150000J0D01*
G01*
G37*
G36*
G01*
X144739500Y-128087800D02*
X144439500Y-128087800D01*
G75*
G02*
X144289500Y-127937800I0J150000D01*
G01*
X144289500Y-126287800D01*
G75*
G02*
X144439500Y-126137800I150000J0D01*
G01*
X144739500Y-126137800D01*
G75*
G02*
X144889500Y-126287800I0J-150000D01*
G01*
X144889500Y-127937800D01*
G75*
G02*
X144739500Y-128087800I-150000J0D01*
G01*
G37*
G36*
G01*
X143469500Y-128087800D02*
X143169500Y-128087800D01*
G75*
G02*
X143019500Y-127937800I0J150000D01*
G01*
X143019500Y-126287800D01*
G75*
G02*
X143169500Y-126137800I150000J0D01*
G01*
X143469500Y-126137800D01*
G75*
G02*
X143619500Y-126287800I0J-150000D01*
G01*
X143619500Y-127937800D01*
G75*
G02*
X143469500Y-128087800I-150000J0D01*
G01*
G37*
D34*
X133217200Y-124933500D03*
X132567200Y-124933500D03*
X131917200Y-124933500D03*
X131267200Y-124933500D03*
X130617200Y-124933500D03*
X129967200Y-124933500D03*
X129317200Y-124933500D03*
X129317200Y-119033500D03*
X129967200Y-119033500D03*
X130617200Y-119033500D03*
X131267200Y-119033500D03*
X131917200Y-119033500D03*
X132567200Y-119033500D03*
X133217200Y-119033500D03*
G36*
G01*
X159182400Y-128187800D02*
X159857400Y-128187800D01*
G75*
G02*
X159919900Y-128250300I0J-62500D01*
G01*
X159919900Y-128375300D01*
G75*
G02*
X159857400Y-128437800I-62500J0D01*
G01*
X159182400Y-128437800D01*
G75*
G02*
X159119900Y-128375300I0J62500D01*
G01*
X159119900Y-128250300D01*
G75*
G02*
X159182400Y-128187800I62500J0D01*
G01*
G37*
G36*
G01*
X159182400Y-128687800D02*
X159857400Y-128687800D01*
G75*
G02*
X159919900Y-128750300I0J-62500D01*
G01*
X159919900Y-128875300D01*
G75*
G02*
X159857400Y-128937800I-62500J0D01*
G01*
X159182400Y-128937800D01*
G75*
G02*
X159119900Y-128875300I0J62500D01*
G01*
X159119900Y-128750300D01*
G75*
G02*
X159182400Y-128687800I62500J0D01*
G01*
G37*
G36*
G01*
X159182400Y-129187800D02*
X159857400Y-129187800D01*
G75*
G02*
X159919900Y-129250300I0J-62500D01*
G01*
X159919900Y-129375300D01*
G75*
G02*
X159857400Y-129437800I-62500J0D01*
G01*
X159182400Y-129437800D01*
G75*
G02*
X159119900Y-129375300I0J62500D01*
G01*
X159119900Y-129250300D01*
G75*
G02*
X159182400Y-129187800I62500J0D01*
G01*
G37*
G36*
G01*
X159182400Y-129687800D02*
X159857400Y-129687800D01*
G75*
G02*
X159919900Y-129750300I0J-62500D01*
G01*
X159919900Y-129875300D01*
G75*
G02*
X159857400Y-129937800I-62500J0D01*
G01*
X159182400Y-129937800D01*
G75*
G02*
X159119900Y-129875300I0J62500D01*
G01*
X159119900Y-129750300D01*
G75*
G02*
X159182400Y-129687800I62500J0D01*
G01*
G37*
G36*
G01*
X159182400Y-130187800D02*
X159857400Y-130187800D01*
G75*
G02*
X159919900Y-130250300I0J-62500D01*
G01*
X159919900Y-130375300D01*
G75*
G02*
X159857400Y-130437800I-62500J0D01*
G01*
X159182400Y-130437800D01*
G75*
G02*
X159119900Y-130375300I0J62500D01*
G01*
X159119900Y-130250300D01*
G75*
G02*
X159182400Y-130187800I62500J0D01*
G01*
G37*
G36*
G01*
X159182400Y-130687800D02*
X159857400Y-130687800D01*
G75*
G02*
X159919900Y-130750300I0J-62500D01*
G01*
X159919900Y-130875300D01*
G75*
G02*
X159857400Y-130937800I-62500J0D01*
G01*
X159182400Y-130937800D01*
G75*
G02*
X159119900Y-130875300I0J62500D01*
G01*
X159119900Y-130750300D01*
G75*
G02*
X159182400Y-130687800I62500J0D01*
G01*
G37*
G36*
G01*
X159182400Y-131187800D02*
X159857400Y-131187800D01*
G75*
G02*
X159919900Y-131250300I0J-62500D01*
G01*
X159919900Y-131375300D01*
G75*
G02*
X159857400Y-131437800I-62500J0D01*
G01*
X159182400Y-131437800D01*
G75*
G02*
X159119900Y-131375300I0J62500D01*
G01*
X159119900Y-131250300D01*
G75*
G02*
X159182400Y-131187800I62500J0D01*
G01*
G37*
G36*
G01*
X159182400Y-131687800D02*
X159857400Y-131687800D01*
G75*
G02*
X159919900Y-131750300I0J-62500D01*
G01*
X159919900Y-131875300D01*
G75*
G02*
X159857400Y-131937800I-62500J0D01*
G01*
X159182400Y-131937800D01*
G75*
G02*
X159119900Y-131875300I0J62500D01*
G01*
X159119900Y-131750300D01*
G75*
G02*
X159182400Y-131687800I62500J0D01*
G01*
G37*
G36*
G01*
X159182400Y-132187800D02*
X159857400Y-132187800D01*
G75*
G02*
X159919900Y-132250300I0J-62500D01*
G01*
X159919900Y-132375300D01*
G75*
G02*
X159857400Y-132437800I-62500J0D01*
G01*
X159182400Y-132437800D01*
G75*
G02*
X159119900Y-132375300I0J62500D01*
G01*
X159119900Y-132250300D01*
G75*
G02*
X159182400Y-132187800I62500J0D01*
G01*
G37*
G36*
G01*
X159182400Y-132687800D02*
X159857400Y-132687800D01*
G75*
G02*
X159919900Y-132750300I0J-62500D01*
G01*
X159919900Y-132875300D01*
G75*
G02*
X159857400Y-132937800I-62500J0D01*
G01*
X159182400Y-132937800D01*
G75*
G02*
X159119900Y-132875300I0J62500D01*
G01*
X159119900Y-132750300D01*
G75*
G02*
X159182400Y-132687800I62500J0D01*
G01*
G37*
G36*
G01*
X159182400Y-133187800D02*
X159857400Y-133187800D01*
G75*
G02*
X159919900Y-133250300I0J-62500D01*
G01*
X159919900Y-133375300D01*
G75*
G02*
X159857400Y-133437800I-62500J0D01*
G01*
X159182400Y-133437800D01*
G75*
G02*
X159119900Y-133375300I0J62500D01*
G01*
X159119900Y-133250300D01*
G75*
G02*
X159182400Y-133187800I62500J0D01*
G01*
G37*
G36*
G01*
X159182400Y-133687800D02*
X159857400Y-133687800D01*
G75*
G02*
X159919900Y-133750300I0J-62500D01*
G01*
X159919900Y-133875300D01*
G75*
G02*
X159857400Y-133937800I-62500J0D01*
G01*
X159182400Y-133937800D01*
G75*
G02*
X159119900Y-133875300I0J62500D01*
G01*
X159119900Y-133750300D01*
G75*
G02*
X159182400Y-133687800I62500J0D01*
G01*
G37*
G36*
G01*
X158757400Y-134112800D02*
X158882400Y-134112800D01*
G75*
G02*
X158944900Y-134175300I0J-62500D01*
G01*
X158944900Y-134850300D01*
G75*
G02*
X158882400Y-134912800I-62500J0D01*
G01*
X158757400Y-134912800D01*
G75*
G02*
X158694900Y-134850300I0J62500D01*
G01*
X158694900Y-134175300D01*
G75*
G02*
X158757400Y-134112800I62500J0D01*
G01*
G37*
G36*
G01*
X158257400Y-134112800D02*
X158382400Y-134112800D01*
G75*
G02*
X158444900Y-134175300I0J-62500D01*
G01*
X158444900Y-134850300D01*
G75*
G02*
X158382400Y-134912800I-62500J0D01*
G01*
X158257400Y-134912800D01*
G75*
G02*
X158194900Y-134850300I0J62500D01*
G01*
X158194900Y-134175300D01*
G75*
G02*
X158257400Y-134112800I62500J0D01*
G01*
G37*
G36*
G01*
X157757400Y-134112800D02*
X157882400Y-134112800D01*
G75*
G02*
X157944900Y-134175300I0J-62500D01*
G01*
X157944900Y-134850300D01*
G75*
G02*
X157882400Y-134912800I-62500J0D01*
G01*
X157757400Y-134912800D01*
G75*
G02*
X157694900Y-134850300I0J62500D01*
G01*
X157694900Y-134175300D01*
G75*
G02*
X157757400Y-134112800I62500J0D01*
G01*
G37*
G36*
G01*
X157257400Y-134112800D02*
X157382400Y-134112800D01*
G75*
G02*
X157444900Y-134175300I0J-62500D01*
G01*
X157444900Y-134850300D01*
G75*
G02*
X157382400Y-134912800I-62500J0D01*
G01*
X157257400Y-134912800D01*
G75*
G02*
X157194900Y-134850300I0J62500D01*
G01*
X157194900Y-134175300D01*
G75*
G02*
X157257400Y-134112800I62500J0D01*
G01*
G37*
G36*
G01*
X156757400Y-134112800D02*
X156882400Y-134112800D01*
G75*
G02*
X156944900Y-134175300I0J-62500D01*
G01*
X156944900Y-134850300D01*
G75*
G02*
X156882400Y-134912800I-62500J0D01*
G01*
X156757400Y-134912800D01*
G75*
G02*
X156694900Y-134850300I0J62500D01*
G01*
X156694900Y-134175300D01*
G75*
G02*
X156757400Y-134112800I62500J0D01*
G01*
G37*
G36*
G01*
X156257400Y-134112800D02*
X156382400Y-134112800D01*
G75*
G02*
X156444900Y-134175300I0J-62500D01*
G01*
X156444900Y-134850300D01*
G75*
G02*
X156382400Y-134912800I-62500J0D01*
G01*
X156257400Y-134912800D01*
G75*
G02*
X156194900Y-134850300I0J62500D01*
G01*
X156194900Y-134175300D01*
G75*
G02*
X156257400Y-134112800I62500J0D01*
G01*
G37*
G36*
G01*
X155757400Y-134112800D02*
X155882400Y-134112800D01*
G75*
G02*
X155944900Y-134175300I0J-62500D01*
G01*
X155944900Y-134850300D01*
G75*
G02*
X155882400Y-134912800I-62500J0D01*
G01*
X155757400Y-134912800D01*
G75*
G02*
X155694900Y-134850300I0J62500D01*
G01*
X155694900Y-134175300D01*
G75*
G02*
X155757400Y-134112800I62500J0D01*
G01*
G37*
G36*
G01*
X155257400Y-134112800D02*
X155382400Y-134112800D01*
G75*
G02*
X155444900Y-134175300I0J-62500D01*
G01*
X155444900Y-134850300D01*
G75*
G02*
X155382400Y-134912800I-62500J0D01*
G01*
X155257400Y-134912800D01*
G75*
G02*
X155194900Y-134850300I0J62500D01*
G01*
X155194900Y-134175300D01*
G75*
G02*
X155257400Y-134112800I62500J0D01*
G01*
G37*
G36*
G01*
X154757400Y-134112800D02*
X154882400Y-134112800D01*
G75*
G02*
X154944900Y-134175300I0J-62500D01*
G01*
X154944900Y-134850300D01*
G75*
G02*
X154882400Y-134912800I-62500J0D01*
G01*
X154757400Y-134912800D01*
G75*
G02*
X154694900Y-134850300I0J62500D01*
G01*
X154694900Y-134175300D01*
G75*
G02*
X154757400Y-134112800I62500J0D01*
G01*
G37*
G36*
G01*
X154257400Y-134112800D02*
X154382400Y-134112800D01*
G75*
G02*
X154444900Y-134175300I0J-62500D01*
G01*
X154444900Y-134850300D01*
G75*
G02*
X154382400Y-134912800I-62500J0D01*
G01*
X154257400Y-134912800D01*
G75*
G02*
X154194900Y-134850300I0J62500D01*
G01*
X154194900Y-134175300D01*
G75*
G02*
X154257400Y-134112800I62500J0D01*
G01*
G37*
G36*
G01*
X153757400Y-134112800D02*
X153882400Y-134112800D01*
G75*
G02*
X153944900Y-134175300I0J-62500D01*
G01*
X153944900Y-134850300D01*
G75*
G02*
X153882400Y-134912800I-62500J0D01*
G01*
X153757400Y-134912800D01*
G75*
G02*
X153694900Y-134850300I0J62500D01*
G01*
X153694900Y-134175300D01*
G75*
G02*
X153757400Y-134112800I62500J0D01*
G01*
G37*
G36*
G01*
X153257400Y-134112800D02*
X153382400Y-134112800D01*
G75*
G02*
X153444900Y-134175300I0J-62500D01*
G01*
X153444900Y-134850300D01*
G75*
G02*
X153382400Y-134912800I-62500J0D01*
G01*
X153257400Y-134912800D01*
G75*
G02*
X153194900Y-134850300I0J62500D01*
G01*
X153194900Y-134175300D01*
G75*
G02*
X153257400Y-134112800I62500J0D01*
G01*
G37*
G36*
G01*
X152282400Y-133687800D02*
X152957400Y-133687800D01*
G75*
G02*
X153019900Y-133750300I0J-62500D01*
G01*
X153019900Y-133875300D01*
G75*
G02*
X152957400Y-133937800I-62500J0D01*
G01*
X152282400Y-133937800D01*
G75*
G02*
X152219900Y-133875300I0J62500D01*
G01*
X152219900Y-133750300D01*
G75*
G02*
X152282400Y-133687800I62500J0D01*
G01*
G37*
G36*
G01*
X152282400Y-133187800D02*
X152957400Y-133187800D01*
G75*
G02*
X153019900Y-133250300I0J-62500D01*
G01*
X153019900Y-133375300D01*
G75*
G02*
X152957400Y-133437800I-62500J0D01*
G01*
X152282400Y-133437800D01*
G75*
G02*
X152219900Y-133375300I0J62500D01*
G01*
X152219900Y-133250300D01*
G75*
G02*
X152282400Y-133187800I62500J0D01*
G01*
G37*
G36*
G01*
X152282400Y-132687800D02*
X152957400Y-132687800D01*
G75*
G02*
X153019900Y-132750300I0J-62500D01*
G01*
X153019900Y-132875300D01*
G75*
G02*
X152957400Y-132937800I-62500J0D01*
G01*
X152282400Y-132937800D01*
G75*
G02*
X152219900Y-132875300I0J62500D01*
G01*
X152219900Y-132750300D01*
G75*
G02*
X152282400Y-132687800I62500J0D01*
G01*
G37*
G36*
G01*
X152282400Y-132187800D02*
X152957400Y-132187800D01*
G75*
G02*
X153019900Y-132250300I0J-62500D01*
G01*
X153019900Y-132375300D01*
G75*
G02*
X152957400Y-132437800I-62500J0D01*
G01*
X152282400Y-132437800D01*
G75*
G02*
X152219900Y-132375300I0J62500D01*
G01*
X152219900Y-132250300D01*
G75*
G02*
X152282400Y-132187800I62500J0D01*
G01*
G37*
G36*
G01*
X152282400Y-131687800D02*
X152957400Y-131687800D01*
G75*
G02*
X153019900Y-131750300I0J-62500D01*
G01*
X153019900Y-131875300D01*
G75*
G02*
X152957400Y-131937800I-62500J0D01*
G01*
X152282400Y-131937800D01*
G75*
G02*
X152219900Y-131875300I0J62500D01*
G01*
X152219900Y-131750300D01*
G75*
G02*
X152282400Y-131687800I62500J0D01*
G01*
G37*
G36*
G01*
X152282400Y-131187800D02*
X152957400Y-131187800D01*
G75*
G02*
X153019900Y-131250300I0J-62500D01*
G01*
X153019900Y-131375300D01*
G75*
G02*
X152957400Y-131437800I-62500J0D01*
G01*
X152282400Y-131437800D01*
G75*
G02*
X152219900Y-131375300I0J62500D01*
G01*
X152219900Y-131250300D01*
G75*
G02*
X152282400Y-131187800I62500J0D01*
G01*
G37*
G36*
G01*
X152282400Y-130687800D02*
X152957400Y-130687800D01*
G75*
G02*
X153019900Y-130750300I0J-62500D01*
G01*
X153019900Y-130875300D01*
G75*
G02*
X152957400Y-130937800I-62500J0D01*
G01*
X152282400Y-130937800D01*
G75*
G02*
X152219900Y-130875300I0J62500D01*
G01*
X152219900Y-130750300D01*
G75*
G02*
X152282400Y-130687800I62500J0D01*
G01*
G37*
G36*
G01*
X152282400Y-130187800D02*
X152957400Y-130187800D01*
G75*
G02*
X153019900Y-130250300I0J-62500D01*
G01*
X153019900Y-130375300D01*
G75*
G02*
X152957400Y-130437800I-62500J0D01*
G01*
X152282400Y-130437800D01*
G75*
G02*
X152219900Y-130375300I0J62500D01*
G01*
X152219900Y-130250300D01*
G75*
G02*
X152282400Y-130187800I62500J0D01*
G01*
G37*
G36*
G01*
X152282400Y-129687800D02*
X152957400Y-129687800D01*
G75*
G02*
X153019900Y-129750300I0J-62500D01*
G01*
X153019900Y-129875300D01*
G75*
G02*
X152957400Y-129937800I-62500J0D01*
G01*
X152282400Y-129937800D01*
G75*
G02*
X152219900Y-129875300I0J62500D01*
G01*
X152219900Y-129750300D01*
G75*
G02*
X152282400Y-129687800I62500J0D01*
G01*
G37*
G36*
G01*
X152282400Y-129187800D02*
X152957400Y-129187800D01*
G75*
G02*
X153019900Y-129250300I0J-62500D01*
G01*
X153019900Y-129375300D01*
G75*
G02*
X152957400Y-129437800I-62500J0D01*
G01*
X152282400Y-129437800D01*
G75*
G02*
X152219900Y-129375300I0J62500D01*
G01*
X152219900Y-129250300D01*
G75*
G02*
X152282400Y-129187800I62500J0D01*
G01*
G37*
G36*
G01*
X152282400Y-128687800D02*
X152957400Y-128687800D01*
G75*
G02*
X153019900Y-128750300I0J-62500D01*
G01*
X153019900Y-128875300D01*
G75*
G02*
X152957400Y-128937800I-62500J0D01*
G01*
X152282400Y-128937800D01*
G75*
G02*
X152219900Y-128875300I0J62500D01*
G01*
X152219900Y-128750300D01*
G75*
G02*
X152282400Y-128687800I62500J0D01*
G01*
G37*
G36*
G01*
X152282400Y-128187800D02*
X152957400Y-128187800D01*
G75*
G02*
X153019900Y-128250300I0J-62500D01*
G01*
X153019900Y-128375300D01*
G75*
G02*
X152957400Y-128437800I-62500J0D01*
G01*
X152282400Y-128437800D01*
G75*
G02*
X152219900Y-128375300I0J62500D01*
G01*
X152219900Y-128250300D01*
G75*
G02*
X152282400Y-128187800I62500J0D01*
G01*
G37*
G36*
G01*
X153257400Y-127212800D02*
X153382400Y-127212800D01*
G75*
G02*
X153444900Y-127275300I0J-62500D01*
G01*
X153444900Y-127950300D01*
G75*
G02*
X153382400Y-128012800I-62500J0D01*
G01*
X153257400Y-128012800D01*
G75*
G02*
X153194900Y-127950300I0J62500D01*
G01*
X153194900Y-127275300D01*
G75*
G02*
X153257400Y-127212800I62500J0D01*
G01*
G37*
G36*
G01*
X153757400Y-127212800D02*
X153882400Y-127212800D01*
G75*
G02*
X153944900Y-127275300I0J-62500D01*
G01*
X153944900Y-127950300D01*
G75*
G02*
X153882400Y-128012800I-62500J0D01*
G01*
X153757400Y-128012800D01*
G75*
G02*
X153694900Y-127950300I0J62500D01*
G01*
X153694900Y-127275300D01*
G75*
G02*
X153757400Y-127212800I62500J0D01*
G01*
G37*
G36*
G01*
X154257400Y-127212800D02*
X154382400Y-127212800D01*
G75*
G02*
X154444900Y-127275300I0J-62500D01*
G01*
X154444900Y-127950300D01*
G75*
G02*
X154382400Y-128012800I-62500J0D01*
G01*
X154257400Y-128012800D01*
G75*
G02*
X154194900Y-127950300I0J62500D01*
G01*
X154194900Y-127275300D01*
G75*
G02*
X154257400Y-127212800I62500J0D01*
G01*
G37*
G36*
G01*
X154757400Y-127212800D02*
X154882400Y-127212800D01*
G75*
G02*
X154944900Y-127275300I0J-62500D01*
G01*
X154944900Y-127950300D01*
G75*
G02*
X154882400Y-128012800I-62500J0D01*
G01*
X154757400Y-128012800D01*
G75*
G02*
X154694900Y-127950300I0J62500D01*
G01*
X154694900Y-127275300D01*
G75*
G02*
X154757400Y-127212800I62500J0D01*
G01*
G37*
G36*
G01*
X155257400Y-127212800D02*
X155382400Y-127212800D01*
G75*
G02*
X155444900Y-127275300I0J-62500D01*
G01*
X155444900Y-127950300D01*
G75*
G02*
X155382400Y-128012800I-62500J0D01*
G01*
X155257400Y-128012800D01*
G75*
G02*
X155194900Y-127950300I0J62500D01*
G01*
X155194900Y-127275300D01*
G75*
G02*
X155257400Y-127212800I62500J0D01*
G01*
G37*
G36*
G01*
X155757400Y-127212800D02*
X155882400Y-127212800D01*
G75*
G02*
X155944900Y-127275300I0J-62500D01*
G01*
X155944900Y-127950300D01*
G75*
G02*
X155882400Y-128012800I-62500J0D01*
G01*
X155757400Y-128012800D01*
G75*
G02*
X155694900Y-127950300I0J62500D01*
G01*
X155694900Y-127275300D01*
G75*
G02*
X155757400Y-127212800I62500J0D01*
G01*
G37*
G36*
G01*
X156257400Y-127212800D02*
X156382400Y-127212800D01*
G75*
G02*
X156444900Y-127275300I0J-62500D01*
G01*
X156444900Y-127950300D01*
G75*
G02*
X156382400Y-128012800I-62500J0D01*
G01*
X156257400Y-128012800D01*
G75*
G02*
X156194900Y-127950300I0J62500D01*
G01*
X156194900Y-127275300D01*
G75*
G02*
X156257400Y-127212800I62500J0D01*
G01*
G37*
G36*
G01*
X156757400Y-127212800D02*
X156882400Y-127212800D01*
G75*
G02*
X156944900Y-127275300I0J-62500D01*
G01*
X156944900Y-127950300D01*
G75*
G02*
X156882400Y-128012800I-62500J0D01*
G01*
X156757400Y-128012800D01*
G75*
G02*
X156694900Y-127950300I0J62500D01*
G01*
X156694900Y-127275300D01*
G75*
G02*
X156757400Y-127212800I62500J0D01*
G01*
G37*
G36*
G01*
X157257400Y-127212800D02*
X157382400Y-127212800D01*
G75*
G02*
X157444900Y-127275300I0J-62500D01*
G01*
X157444900Y-127950300D01*
G75*
G02*
X157382400Y-128012800I-62500J0D01*
G01*
X157257400Y-128012800D01*
G75*
G02*
X157194900Y-127950300I0J62500D01*
G01*
X157194900Y-127275300D01*
G75*
G02*
X157257400Y-127212800I62500J0D01*
G01*
G37*
G36*
G01*
X157757400Y-127212800D02*
X157882400Y-127212800D01*
G75*
G02*
X157944900Y-127275300I0J-62500D01*
G01*
X157944900Y-127950300D01*
G75*
G02*
X157882400Y-128012800I-62500J0D01*
G01*
X157757400Y-128012800D01*
G75*
G02*
X157694900Y-127950300I0J62500D01*
G01*
X157694900Y-127275300D01*
G75*
G02*
X157757400Y-127212800I62500J0D01*
G01*
G37*
G36*
G01*
X158257400Y-127212800D02*
X158382400Y-127212800D01*
G75*
G02*
X158444900Y-127275300I0J-62500D01*
G01*
X158444900Y-127950300D01*
G75*
G02*
X158382400Y-128012800I-62500J0D01*
G01*
X158257400Y-128012800D01*
G75*
G02*
X158194900Y-127950300I0J62500D01*
G01*
X158194900Y-127275300D01*
G75*
G02*
X158257400Y-127212800I62500J0D01*
G01*
G37*
G36*
G01*
X158757400Y-127212800D02*
X158882400Y-127212800D01*
G75*
G02*
X158944900Y-127275300I0J-62500D01*
G01*
X158944900Y-127950300D01*
G75*
G02*
X158882400Y-128012800I-62500J0D01*
G01*
X158757400Y-128012800D01*
G75*
G02*
X158694900Y-127950300I0J62500D01*
G01*
X158694900Y-127275300D01*
G75*
G02*
X158757400Y-127212800I62500J0D01*
G01*
G37*
G36*
G01*
X153669900Y-128412800D02*
X158469900Y-128412800D01*
G75*
G02*
X158719900Y-128662800I0J-250000D01*
G01*
X158719900Y-133462800D01*
G75*
G02*
X158469900Y-133712800I-250000J0D01*
G01*
X153669900Y-133712800D01*
G75*
G02*
X153419900Y-133462800I0J250000D01*
G01*
X153419900Y-128662800D01*
G75*
G02*
X153669900Y-128412800I250000J0D01*
G01*
G37*
D35*
X181673500Y-150355300D03*
X181673500Y-153405300D03*
G36*
G01*
X191377250Y-154841600D02*
X192289750Y-154841600D01*
G75*
G02*
X192533500Y-155085350I0J-243750D01*
G01*
X192533500Y-155572850D01*
G75*
G02*
X192289750Y-155816600I-243750J0D01*
G01*
X191377250Y-155816600D01*
G75*
G02*
X191133500Y-155572850I0J243750D01*
G01*
X191133500Y-155085350D01*
G75*
G02*
X191377250Y-154841600I243750J0D01*
G01*
G37*
G36*
G01*
X191377250Y-152966600D02*
X192289750Y-152966600D01*
G75*
G02*
X192533500Y-153210350I0J-243750D01*
G01*
X192533500Y-153697850D01*
G75*
G02*
X192289750Y-153941600I-243750J0D01*
G01*
X191377250Y-153941600D01*
G75*
G02*
X191133500Y-153697850I0J243750D01*
G01*
X191133500Y-153210350D01*
G75*
G02*
X191377250Y-152966600I243750J0D01*
G01*
G37*
M02*
