M48
; DRILL file {KiCad (5.1.12)-1} date 10/04/22 21:51:29
; FORMAT={-:-/ absolute / metric / decimal}
; #@! TF.CreationDate,2022-10-04T21:51:29-07:00
; #@! TF.GenerationSoftware,Kicad,Pcbnew,(5.1.12)-1
; #@! TF.FileFunction,Plated,1,2,PTH
FMAT,2
METRIC
T1C0.200
T2C0.250
T3C0.800
%
G90
G05
T1
X127.267Y-110.249
X127.267Y-111.849
X128.867Y-110.249
X128.867Y-111.849
T2
X118.948Y-127.457
X118.948Y-134.29
X120.193Y-98.196
X120.193Y-103.022
X120.193Y-105.74
X120.193Y-115.621
X120.193Y-120.853
X121.488Y-117.094
X121.59Y-89.814
X121.641Y-112.014
X121.869Y-109.957
X122.193Y-114.42
X122.193Y-115.666
X125.171Y-116.891
X126.441Y-89.814
X127.025Y-134.29
X128.067Y-119.583
X129.362Y-104.013
X131.815Y-108.65
X132.055Y-107.391
X132.345Y-109.18
X132.424Y-113.727
X132.758Y-109.653
X132.955Y-113.197
X132.979Y-111.174
X132.979Y-111.924
X133.288Y-110.183
T3
X112.374Y-66.294
X112.374Y-68.834
X112.374Y-71.374
X112.374Y-73.914
X112.374Y-76.454
X112.374Y-78.994
X112.374Y-81.534
X112.374Y-84.074
X112.374Y-86.614
X112.374Y-89.154
X112.374Y-91.694
X112.374Y-94.234
X112.374Y-96.774
X112.374Y-99.314
X112.374Y-101.854
X112.374Y-104.394
X112.374Y-106.934
X112.374Y-109.474
X112.374Y-112.014
X112.374Y-114.554
X112.374Y-117.094
X112.374Y-119.634
X112.374Y-122.174
X112.374Y-124.714
X112.374Y-127.254
X112.374Y-129.794
X112.374Y-132.334
X112.374Y-134.874
X112.374Y-137.414
X112.374Y-139.954
X112.374Y-142.494
X112.374Y-145.034
X114.91Y-66.294
X114.91Y-68.834
X114.91Y-71.374
X114.91Y-73.914
X114.91Y-76.454
X114.91Y-78.994
X114.91Y-81.534
X114.91Y-84.074
X114.91Y-86.614
X114.91Y-89.154
X114.91Y-91.694
X114.91Y-94.234
X114.91Y-96.774
X114.91Y-99.314
X114.91Y-101.854
X114.91Y-104.394
X114.91Y-106.934
X114.91Y-109.474
X114.91Y-112.014
X114.91Y-114.554
X114.91Y-117.094
X114.91Y-119.634
X114.91Y-122.174
X114.91Y-124.714
X114.91Y-127.254
X114.91Y-129.794
X114.91Y-132.334
X114.91Y-134.874
X114.91Y-137.414
X114.91Y-139.954
X114.91Y-142.494
X114.91Y-145.034
X135.23Y-66.294
X135.23Y-68.834
X135.23Y-71.374
X135.23Y-73.914
X135.23Y-76.454
X135.23Y-78.994
X135.23Y-81.534
X135.23Y-84.074
X135.23Y-86.614
X135.23Y-89.154
X135.23Y-91.694
X135.23Y-94.234
X135.23Y-96.774
X135.23Y-99.314
X135.23Y-101.854
X135.23Y-104.394
X135.23Y-106.934
X135.23Y-109.474
X135.23Y-112.014
X135.23Y-114.554
X135.23Y-117.094
X135.23Y-119.634
X135.23Y-122.174
X135.23Y-124.714
X135.23Y-127.254
X135.23Y-129.794
X135.23Y-132.334
X135.23Y-134.874
X135.23Y-137.414
X135.23Y-139.954
X135.23Y-142.494
X135.23Y-145.034
X137.77Y-66.294
X137.77Y-68.834
X137.77Y-71.374
X137.77Y-73.914
X137.77Y-76.454
X137.77Y-78.994
X137.77Y-81.534
X137.77Y-84.074
X137.77Y-86.614
X137.77Y-89.154
X137.77Y-91.694
X137.77Y-94.234
X137.77Y-96.774
X137.77Y-99.314
X137.77Y-101.854
X137.77Y-104.394
X137.77Y-106.934
X137.77Y-109.474
X137.77Y-112.014
X137.77Y-114.554
X137.77Y-117.094
X137.77Y-119.634
X137.77Y-122.174
X137.77Y-124.714
X137.77Y-127.254
X137.77Y-129.794
X137.77Y-132.334
X137.77Y-134.874
X137.77Y-137.414
X137.77Y-139.954
X137.77Y-142.494
X137.77Y-145.034
T0
M30
