G04 #@! TF.GenerationSoftware,KiCad,Pcbnew,(5.1.12)-1*
G04 #@! TF.CreationDate,2022-10-04T21:51:07-07:00*
G04 #@! TF.ProjectId,HDMIBuffer,48444d49-4275-4666-9665-722e6b696361,rev?*
G04 #@! TF.SameCoordinates,Original*
G04 #@! TF.FileFunction,Paste,Top*
G04 #@! TF.FilePolarity,Positive*
%FSLAX46Y46*%
G04 Gerber Fmt 4.6, Leading zero omitted, Abs format (unit mm)*
G04 Created by KiCad (PCBNEW (5.1.12)-1) date 2022-10-04 21:51:07*
%MOMM*%
%LPD*%
G01*
G04 APERTURE LIST*
%ADD10C,0.100000*%
G04 APERTURE END LIST*
G36*
G01*
X129685600Y-100897700D02*
X129685600Y-100422700D01*
G75*
G02*
X129923100Y-100185200I237500J0D01*
G01*
X130423100Y-100185200D01*
G75*
G02*
X130660600Y-100422700I0J-237500D01*
G01*
X130660600Y-100897700D01*
G75*
G02*
X130423100Y-101135200I-237500J0D01*
G01*
X129923100Y-101135200D01*
G75*
G02*
X129685600Y-100897700I0J237500D01*
G01*
G37*
G36*
G01*
X127860600Y-100897700D02*
X127860600Y-100422700D01*
G75*
G02*
X128098100Y-100185200I237500J0D01*
G01*
X128598100Y-100185200D01*
G75*
G02*
X128835600Y-100422700I0J-237500D01*
G01*
X128835600Y-100897700D01*
G75*
G02*
X128598100Y-101135200I-237500J0D01*
G01*
X128098100Y-101135200D01*
G75*
G02*
X127860600Y-100897700I0J237500D01*
G01*
G37*
G36*
G01*
X129662100Y-99145100D02*
X129662100Y-98670100D01*
G75*
G02*
X129899600Y-98432600I237500J0D01*
G01*
X130399600Y-98432600D01*
G75*
G02*
X130637100Y-98670100I0J-237500D01*
G01*
X130637100Y-99145100D01*
G75*
G02*
X130399600Y-99382600I-237500J0D01*
G01*
X129899600Y-99382600D01*
G75*
G02*
X129662100Y-99145100I0J237500D01*
G01*
G37*
G36*
G01*
X127837100Y-99145100D02*
X127837100Y-98670100D01*
G75*
G02*
X128074600Y-98432600I237500J0D01*
G01*
X128574600Y-98432600D01*
G75*
G02*
X128812100Y-98670100I0J-237500D01*
G01*
X128812100Y-99145100D01*
G75*
G02*
X128574600Y-99382600I-237500J0D01*
G01*
X128074600Y-99382600D01*
G75*
G02*
X127837100Y-99145100I0J237500D01*
G01*
G37*
G36*
G01*
X128304300Y-115602200D02*
X127829300Y-115602200D01*
G75*
G02*
X127591800Y-115364700I0J237500D01*
G01*
X127591800Y-114864700D01*
G75*
G02*
X127829300Y-114627200I237500J0D01*
G01*
X128304300Y-114627200D01*
G75*
G02*
X128541800Y-114864700I0J-237500D01*
G01*
X128541800Y-115364700D01*
G75*
G02*
X128304300Y-115602200I-237500J0D01*
G01*
G37*
G36*
G01*
X128304300Y-117427200D02*
X127829300Y-117427200D01*
G75*
G02*
X127591800Y-117189700I0J237500D01*
G01*
X127591800Y-116689700D01*
G75*
G02*
X127829300Y-116452200I237500J0D01*
G01*
X128304300Y-116452200D01*
G75*
G02*
X128541800Y-116689700I0J-237500D01*
G01*
X128541800Y-117189700D01*
G75*
G02*
X128304300Y-117427200I-237500J0D01*
G01*
G37*
G36*
G01*
X128339400Y-123478300D02*
X128339400Y-123003300D01*
G75*
G02*
X128576900Y-122765800I237500J0D01*
G01*
X129076900Y-122765800D01*
G75*
G02*
X129314400Y-123003300I0J-237500D01*
G01*
X129314400Y-123478300D01*
G75*
G02*
X129076900Y-123715800I-237500J0D01*
G01*
X128576900Y-123715800D01*
G75*
G02*
X128339400Y-123478300I0J237500D01*
G01*
G37*
G36*
G01*
X126514400Y-123478300D02*
X126514400Y-123003300D01*
G75*
G02*
X126751900Y-122765800I237500J0D01*
G01*
X127251900Y-122765800D01*
G75*
G02*
X127489400Y-123003300I0J-237500D01*
G01*
X127489400Y-123478300D01*
G75*
G02*
X127251900Y-123715800I-237500J0D01*
G01*
X126751900Y-123715800D01*
G75*
G02*
X126514400Y-123478300I0J237500D01*
G01*
G37*
G36*
G01*
X128339400Y-121827300D02*
X128339400Y-121352300D01*
G75*
G02*
X128576900Y-121114800I237500J0D01*
G01*
X129076900Y-121114800D01*
G75*
G02*
X129314400Y-121352300I0J-237500D01*
G01*
X129314400Y-121827300D01*
G75*
G02*
X129076900Y-122064800I-237500J0D01*
G01*
X128576900Y-122064800D01*
G75*
G02*
X128339400Y-121827300I0J237500D01*
G01*
G37*
G36*
G01*
X126514400Y-121827300D02*
X126514400Y-121352300D01*
G75*
G02*
X126751900Y-121114800I237500J0D01*
G01*
X127251900Y-121114800D01*
G75*
G02*
X127489400Y-121352300I0J-237500D01*
G01*
X127489400Y-121827300D01*
G75*
G02*
X127251900Y-122064800I-237500J0D01*
G01*
X126751900Y-122064800D01*
G75*
G02*
X126514400Y-121827300I0J237500D01*
G01*
G37*
G36*
G01*
X131342450Y-66806900D02*
X130429950Y-66806900D01*
G75*
G02*
X130186200Y-66563150I0J243750D01*
G01*
X130186200Y-66075650D01*
G75*
G02*
X130429950Y-65831900I243750J0D01*
G01*
X131342450Y-65831900D01*
G75*
G02*
X131586200Y-66075650I0J-243750D01*
G01*
X131586200Y-66563150D01*
G75*
G02*
X131342450Y-66806900I-243750J0D01*
G01*
G37*
G36*
G01*
X131342450Y-68681900D02*
X130429950Y-68681900D01*
G75*
G02*
X130186200Y-68438150I0J243750D01*
G01*
X130186200Y-67950650D01*
G75*
G02*
X130429950Y-67706900I243750J0D01*
G01*
X131342450Y-67706900D01*
G75*
G02*
X131586200Y-67950650I0J-243750D01*
G01*
X131586200Y-68438150D01*
G75*
G02*
X131342450Y-68681900I-243750J0D01*
G01*
G37*
G36*
G01*
X129124700Y-106446200D02*
X129599700Y-106446200D01*
G75*
G02*
X129837200Y-106683700I0J-237500D01*
G01*
X129837200Y-107283700D01*
G75*
G02*
X129599700Y-107521200I-237500J0D01*
G01*
X129124700Y-107521200D01*
G75*
G02*
X128887200Y-107283700I0J237500D01*
G01*
X128887200Y-106683700D01*
G75*
G02*
X129124700Y-106446200I237500J0D01*
G01*
G37*
G36*
G01*
X129124700Y-104721200D02*
X129599700Y-104721200D01*
G75*
G02*
X129837200Y-104958700I0J-237500D01*
G01*
X129837200Y-105558700D01*
G75*
G02*
X129599700Y-105796200I-237500J0D01*
G01*
X129124700Y-105796200D01*
G75*
G02*
X128887200Y-105558700I0J237500D01*
G01*
X128887200Y-104958700D01*
G75*
G02*
X129124700Y-104721200I237500J0D01*
G01*
G37*
G36*
G01*
X126551700Y-115701100D02*
X126076700Y-115701100D01*
G75*
G02*
X125839200Y-115463600I0J237500D01*
G01*
X125839200Y-114863600D01*
G75*
G02*
X126076700Y-114626100I237500J0D01*
G01*
X126551700Y-114626100D01*
G75*
G02*
X126789200Y-114863600I0J-237500D01*
G01*
X126789200Y-115463600D01*
G75*
G02*
X126551700Y-115701100I-237500J0D01*
G01*
G37*
G36*
G01*
X126551700Y-117426100D02*
X126076700Y-117426100D01*
G75*
G02*
X125839200Y-117188600I0J237500D01*
G01*
X125839200Y-116588600D01*
G75*
G02*
X126076700Y-116351100I237500J0D01*
G01*
X126551700Y-116351100D01*
G75*
G02*
X126789200Y-116588600I0J-237500D01*
G01*
X126789200Y-117188600D01*
G75*
G02*
X126551700Y-117426100I-237500J0D01*
G01*
G37*
G36*
G01*
X118954500Y-101616500D02*
X118954500Y-102091500D01*
G75*
G02*
X118717000Y-102329000I-237500J0D01*
G01*
X118117000Y-102329000D01*
G75*
G02*
X117879500Y-102091500I0J237500D01*
G01*
X117879500Y-101616500D01*
G75*
G02*
X118117000Y-101379000I237500J0D01*
G01*
X118717000Y-101379000D01*
G75*
G02*
X118954500Y-101616500I0J-237500D01*
G01*
G37*
G36*
G01*
X120679500Y-101616500D02*
X120679500Y-102091500D01*
G75*
G02*
X120442000Y-102329000I-237500J0D01*
G01*
X119842000Y-102329000D01*
G75*
G02*
X119604500Y-102091500I0J237500D01*
G01*
X119604500Y-101616500D01*
G75*
G02*
X119842000Y-101379000I237500J0D01*
G01*
X120442000Y-101379000D01*
G75*
G02*
X120679500Y-101616500I0J-237500D01*
G01*
G37*
G36*
G01*
X118954500Y-109236500D02*
X118954500Y-109711500D01*
G75*
G02*
X118717000Y-109949000I-237500J0D01*
G01*
X118117000Y-109949000D01*
G75*
G02*
X117879500Y-109711500I0J237500D01*
G01*
X117879500Y-109236500D01*
G75*
G02*
X118117000Y-108999000I237500J0D01*
G01*
X118717000Y-108999000D01*
G75*
G02*
X118954500Y-109236500I0J-237500D01*
G01*
G37*
G36*
G01*
X120679500Y-109236500D02*
X120679500Y-109711500D01*
G75*
G02*
X120442000Y-109949000I-237500J0D01*
G01*
X119842000Y-109949000D01*
G75*
G02*
X119604500Y-109711500I0J237500D01*
G01*
X119604500Y-109236500D01*
G75*
G02*
X119842000Y-108999000I237500J0D01*
G01*
X120442000Y-108999000D01*
G75*
G02*
X120679500Y-109236500I0J-237500D01*
G01*
G37*
G36*
G01*
X118954500Y-114316500D02*
X118954500Y-114791500D01*
G75*
G02*
X118717000Y-115029000I-237500J0D01*
G01*
X118117000Y-115029000D01*
G75*
G02*
X117879500Y-114791500I0J237500D01*
G01*
X117879500Y-114316500D01*
G75*
G02*
X118117000Y-114079000I237500J0D01*
G01*
X118717000Y-114079000D01*
G75*
G02*
X118954500Y-114316500I0J-237500D01*
G01*
G37*
G36*
G01*
X120679500Y-114316500D02*
X120679500Y-114791500D01*
G75*
G02*
X120442000Y-115029000I-237500J0D01*
G01*
X119842000Y-115029000D01*
G75*
G02*
X119604500Y-114791500I0J237500D01*
G01*
X119604500Y-114316500D01*
G75*
G02*
X119842000Y-114079000I237500J0D01*
G01*
X120442000Y-114079000D01*
G75*
G02*
X120679500Y-114316500I0J-237500D01*
G01*
G37*
G36*
G01*
X118954500Y-99076500D02*
X118954500Y-99551500D01*
G75*
G02*
X118717000Y-99789000I-237500J0D01*
G01*
X118117000Y-99789000D01*
G75*
G02*
X117879500Y-99551500I0J237500D01*
G01*
X117879500Y-99076500D01*
G75*
G02*
X118117000Y-98839000I237500J0D01*
G01*
X118717000Y-98839000D01*
G75*
G02*
X118954500Y-99076500I0J-237500D01*
G01*
G37*
G36*
G01*
X120679500Y-99076500D02*
X120679500Y-99551500D01*
G75*
G02*
X120442000Y-99789000I-237500J0D01*
G01*
X119842000Y-99789000D01*
G75*
G02*
X119604500Y-99551500I0J237500D01*
G01*
X119604500Y-99076500D01*
G75*
G02*
X119842000Y-98839000I237500J0D01*
G01*
X120442000Y-98839000D01*
G75*
G02*
X120679500Y-99076500I0J-237500D01*
G01*
G37*
G36*
G01*
X118954500Y-106696500D02*
X118954500Y-107171500D01*
G75*
G02*
X118717000Y-107409000I-237500J0D01*
G01*
X118117000Y-107409000D01*
G75*
G02*
X117879500Y-107171500I0J237500D01*
G01*
X117879500Y-106696500D01*
G75*
G02*
X118117000Y-106459000I237500J0D01*
G01*
X118717000Y-106459000D01*
G75*
G02*
X118954500Y-106696500I0J-237500D01*
G01*
G37*
G36*
G01*
X120679500Y-106696500D02*
X120679500Y-107171500D01*
G75*
G02*
X120442000Y-107409000I-237500J0D01*
G01*
X119842000Y-107409000D01*
G75*
G02*
X119604500Y-107171500I0J237500D01*
G01*
X119604500Y-106696500D01*
G75*
G02*
X119842000Y-106459000I237500J0D01*
G01*
X120442000Y-106459000D01*
G75*
G02*
X120679500Y-106696500I0J-237500D01*
G01*
G37*
G36*
G01*
X118954500Y-111776500D02*
X118954500Y-112251500D01*
G75*
G02*
X118717000Y-112489000I-237500J0D01*
G01*
X118117000Y-112489000D01*
G75*
G02*
X117879500Y-112251500I0J237500D01*
G01*
X117879500Y-111776500D01*
G75*
G02*
X118117000Y-111539000I237500J0D01*
G01*
X118717000Y-111539000D01*
G75*
G02*
X118954500Y-111776500I0J-237500D01*
G01*
G37*
G36*
G01*
X120679500Y-111776500D02*
X120679500Y-112251500D01*
G75*
G02*
X120442000Y-112489000I-237500J0D01*
G01*
X119842000Y-112489000D01*
G75*
G02*
X119604500Y-112251500I0J237500D01*
G01*
X119604500Y-111776500D01*
G75*
G02*
X119842000Y-111539000I237500J0D01*
G01*
X120442000Y-111539000D01*
G75*
G02*
X120679500Y-111776500I0J-237500D01*
G01*
G37*
G36*
G01*
X118954500Y-119396500D02*
X118954500Y-119871500D01*
G75*
G02*
X118717000Y-120109000I-237500J0D01*
G01*
X118117000Y-120109000D01*
G75*
G02*
X117879500Y-119871500I0J237500D01*
G01*
X117879500Y-119396500D01*
G75*
G02*
X118117000Y-119159000I237500J0D01*
G01*
X118717000Y-119159000D01*
G75*
G02*
X118954500Y-119396500I0J-237500D01*
G01*
G37*
G36*
G01*
X120679500Y-119396500D02*
X120679500Y-119871500D01*
G75*
G02*
X120442000Y-120109000I-237500J0D01*
G01*
X119842000Y-120109000D01*
G75*
G02*
X119604500Y-119871500I0J237500D01*
G01*
X119604500Y-119396500D01*
G75*
G02*
X119842000Y-119159000I237500J0D01*
G01*
X120442000Y-119159000D01*
G75*
G02*
X120679500Y-119396500I0J-237500D01*
G01*
G37*
G36*
G01*
X118954500Y-116856500D02*
X118954500Y-117331500D01*
G75*
G02*
X118717000Y-117569000I-237500J0D01*
G01*
X118117000Y-117569000D01*
G75*
G02*
X117879500Y-117331500I0J237500D01*
G01*
X117879500Y-116856500D01*
G75*
G02*
X118117000Y-116619000I237500J0D01*
G01*
X118717000Y-116619000D01*
G75*
G02*
X118954500Y-116856500I0J-237500D01*
G01*
G37*
G36*
G01*
X120679500Y-116856500D02*
X120679500Y-117331500D01*
G75*
G02*
X120442000Y-117569000I-237500J0D01*
G01*
X119842000Y-117569000D01*
G75*
G02*
X119604500Y-117331500I0J237500D01*
G01*
X119604500Y-116856500D01*
G75*
G02*
X119842000Y-116619000I237500J0D01*
G01*
X120442000Y-116619000D01*
G75*
G02*
X120679500Y-116856500I0J-237500D01*
G01*
G37*
G36*
G01*
X128819300Y-110978800D02*
X128364300Y-110978800D01*
G75*
G02*
X128136800Y-110751300I0J227500D01*
G01*
X128136800Y-110296300D01*
G75*
G02*
X128364300Y-110068800I227500J0D01*
G01*
X128819300Y-110068800D01*
G75*
G02*
X129046800Y-110296300I0J-227500D01*
G01*
X129046800Y-110751300D01*
G75*
G02*
X128819300Y-110978800I-227500J0D01*
G01*
G37*
G36*
G01*
X127769300Y-110978800D02*
X127314300Y-110978800D01*
G75*
G02*
X127086800Y-110751300I0J227500D01*
G01*
X127086800Y-110296300D01*
G75*
G02*
X127314300Y-110068800I227500J0D01*
G01*
X127769300Y-110068800D01*
G75*
G02*
X127996800Y-110296300I0J-227500D01*
G01*
X127996800Y-110751300D01*
G75*
G02*
X127769300Y-110978800I-227500J0D01*
G01*
G37*
G36*
G01*
X128819300Y-112028800D02*
X128364300Y-112028800D01*
G75*
G02*
X128136800Y-111801300I0J227500D01*
G01*
X128136800Y-111346300D01*
G75*
G02*
X128364300Y-111118800I227500J0D01*
G01*
X128819300Y-111118800D01*
G75*
G02*
X129046800Y-111346300I0J-227500D01*
G01*
X129046800Y-111801300D01*
G75*
G02*
X128819300Y-112028800I-227500J0D01*
G01*
G37*
G36*
G01*
X127769300Y-112028800D02*
X127314300Y-112028800D01*
G75*
G02*
X127086800Y-111801300I0J227500D01*
G01*
X127086800Y-111346300D01*
G75*
G02*
X127314300Y-111118800I227500J0D01*
G01*
X127769300Y-111118800D01*
G75*
G02*
X127996800Y-111346300I0J-227500D01*
G01*
X127996800Y-111801300D01*
G75*
G02*
X127769300Y-112028800I-227500J0D01*
G01*
G37*
D10*
G36*
X125218001Y-112724107D02*
G01*
X125221558Y-112712382D01*
X125227333Y-112701577D01*
X125235106Y-112692106D01*
X125244577Y-112684333D01*
X125255382Y-112678558D01*
X125267107Y-112675001D01*
X125279300Y-112673800D01*
X125979300Y-112673800D01*
X125991493Y-112675001D01*
X126003218Y-112678558D01*
X126014023Y-112684333D01*
X126023494Y-112692106D01*
X126031267Y-112701577D01*
X126037042Y-112712382D01*
X126040599Y-112724107D01*
X126041800Y-112736300D01*
X126041800Y-112807912D01*
X126040599Y-112820105D01*
X126037042Y-112831830D01*
X126031267Y-112842635D01*
X126023494Y-112852106D01*
X125970106Y-112905494D01*
X125960635Y-112913267D01*
X125949830Y-112919042D01*
X125938105Y-112922599D01*
X125925912Y-112923800D01*
X125279300Y-112923800D01*
X125267107Y-112922599D01*
X125255382Y-112919042D01*
X125244577Y-112913267D01*
X125235106Y-112905494D01*
X125227333Y-112896023D01*
X125221558Y-112885218D01*
X125218001Y-112873493D01*
X125216800Y-112861300D01*
X125216800Y-112736300D01*
X125218001Y-112724107D01*
G37*
G36*
G01*
X125979300Y-112423800D02*
X125279300Y-112423800D01*
G75*
G02*
X125216800Y-112361300I0J62500D01*
G01*
X125216800Y-112236300D01*
G75*
G02*
X125279300Y-112173800I62500J0D01*
G01*
X125979300Y-112173800D01*
G75*
G02*
X126041800Y-112236300I0J-62500D01*
G01*
X126041800Y-112361300D01*
G75*
G02*
X125979300Y-112423800I-62500J0D01*
G01*
G37*
G36*
G01*
X125979300Y-111923800D02*
X125279300Y-111923800D01*
G75*
G02*
X125216800Y-111861300I0J62500D01*
G01*
X125216800Y-111736300D01*
G75*
G02*
X125279300Y-111673800I62500J0D01*
G01*
X125979300Y-111673800D01*
G75*
G02*
X126041800Y-111736300I0J-62500D01*
G01*
X126041800Y-111861300D01*
G75*
G02*
X125979300Y-111923800I-62500J0D01*
G01*
G37*
G36*
G01*
X125979300Y-111423800D02*
X125279300Y-111423800D01*
G75*
G02*
X125216800Y-111361300I0J62500D01*
G01*
X125216800Y-111236300D01*
G75*
G02*
X125279300Y-111173800I62500J0D01*
G01*
X125979300Y-111173800D01*
G75*
G02*
X126041800Y-111236300I0J-62500D01*
G01*
X126041800Y-111361300D01*
G75*
G02*
X125979300Y-111423800I-62500J0D01*
G01*
G37*
G36*
G01*
X125979300Y-110923800D02*
X125279300Y-110923800D01*
G75*
G02*
X125216800Y-110861300I0J62500D01*
G01*
X125216800Y-110736300D01*
G75*
G02*
X125279300Y-110673800I62500J0D01*
G01*
X125979300Y-110673800D01*
G75*
G02*
X126041800Y-110736300I0J-62500D01*
G01*
X126041800Y-110861300D01*
G75*
G02*
X125979300Y-110923800I-62500J0D01*
G01*
G37*
G36*
G01*
X125979300Y-110423800D02*
X125279300Y-110423800D01*
G75*
G02*
X125216800Y-110361300I0J62500D01*
G01*
X125216800Y-110236300D01*
G75*
G02*
X125279300Y-110173800I62500J0D01*
G01*
X125979300Y-110173800D01*
G75*
G02*
X126041800Y-110236300I0J-62500D01*
G01*
X126041800Y-110361300D01*
G75*
G02*
X125979300Y-110423800I-62500J0D01*
G01*
G37*
G36*
G01*
X125979300Y-109923800D02*
X125279300Y-109923800D01*
G75*
G02*
X125216800Y-109861300I0J62500D01*
G01*
X125216800Y-109736300D01*
G75*
G02*
X125279300Y-109673800I62500J0D01*
G01*
X125979300Y-109673800D01*
G75*
G02*
X126041800Y-109736300I0J-62500D01*
G01*
X126041800Y-109861300D01*
G75*
G02*
X125979300Y-109923800I-62500J0D01*
G01*
G37*
G36*
X125218001Y-109224107D02*
G01*
X125221558Y-109212382D01*
X125227333Y-109201577D01*
X125235106Y-109192106D01*
X125244577Y-109184333D01*
X125255382Y-109178558D01*
X125267107Y-109175001D01*
X125279300Y-109173800D01*
X125925912Y-109173800D01*
X125938105Y-109175001D01*
X125949830Y-109178558D01*
X125960635Y-109184333D01*
X125970106Y-109192106D01*
X126023494Y-109245494D01*
X126031267Y-109254965D01*
X126037042Y-109265770D01*
X126040599Y-109277495D01*
X126041800Y-109289688D01*
X126041800Y-109361300D01*
X126040599Y-109373493D01*
X126037042Y-109385218D01*
X126031267Y-109396023D01*
X126023494Y-109405494D01*
X126014023Y-109413267D01*
X126003218Y-109419042D01*
X125991493Y-109422599D01*
X125979300Y-109423800D01*
X125279300Y-109423800D01*
X125267107Y-109422599D01*
X125255382Y-109419042D01*
X125244577Y-109413267D01*
X125235106Y-109405494D01*
X125227333Y-109396023D01*
X125221558Y-109385218D01*
X125218001Y-109373493D01*
X125216800Y-109361300D01*
X125216800Y-109236300D01*
X125218001Y-109224107D01*
G37*
G36*
X126193001Y-108249107D02*
G01*
X126196558Y-108237382D01*
X126202333Y-108226577D01*
X126210106Y-108217106D01*
X126219577Y-108209333D01*
X126230382Y-108203558D01*
X126242107Y-108200001D01*
X126254300Y-108198800D01*
X126379300Y-108198800D01*
X126391493Y-108200001D01*
X126403218Y-108203558D01*
X126414023Y-108209333D01*
X126423494Y-108217106D01*
X126431267Y-108226577D01*
X126437042Y-108237382D01*
X126440599Y-108249107D01*
X126441800Y-108261300D01*
X126441800Y-108961300D01*
X126440599Y-108973493D01*
X126437042Y-108985218D01*
X126431267Y-108996023D01*
X126423494Y-109005494D01*
X126414023Y-109013267D01*
X126403218Y-109019042D01*
X126391493Y-109022599D01*
X126379300Y-109023800D01*
X126307688Y-109023800D01*
X126295495Y-109022599D01*
X126283770Y-109019042D01*
X126272965Y-109013267D01*
X126263494Y-109005494D01*
X126210106Y-108952106D01*
X126202333Y-108942635D01*
X126196558Y-108931830D01*
X126193001Y-108920105D01*
X126191800Y-108907912D01*
X126191800Y-108261300D01*
X126193001Y-108249107D01*
G37*
G36*
G01*
X126879300Y-109023800D02*
X126754300Y-109023800D01*
G75*
G02*
X126691800Y-108961300I0J62500D01*
G01*
X126691800Y-108261300D01*
G75*
G02*
X126754300Y-108198800I62500J0D01*
G01*
X126879300Y-108198800D01*
G75*
G02*
X126941800Y-108261300I0J-62500D01*
G01*
X126941800Y-108961300D01*
G75*
G02*
X126879300Y-109023800I-62500J0D01*
G01*
G37*
G36*
G01*
X127379300Y-109023800D02*
X127254300Y-109023800D01*
G75*
G02*
X127191800Y-108961300I0J62500D01*
G01*
X127191800Y-108261300D01*
G75*
G02*
X127254300Y-108198800I62500J0D01*
G01*
X127379300Y-108198800D01*
G75*
G02*
X127441800Y-108261300I0J-62500D01*
G01*
X127441800Y-108961300D01*
G75*
G02*
X127379300Y-109023800I-62500J0D01*
G01*
G37*
G36*
G01*
X127879300Y-109023800D02*
X127754300Y-109023800D01*
G75*
G02*
X127691800Y-108961300I0J62500D01*
G01*
X127691800Y-108261300D01*
G75*
G02*
X127754300Y-108198800I62500J0D01*
G01*
X127879300Y-108198800D01*
G75*
G02*
X127941800Y-108261300I0J-62500D01*
G01*
X127941800Y-108961300D01*
G75*
G02*
X127879300Y-109023800I-62500J0D01*
G01*
G37*
G36*
G01*
X128379300Y-109023800D02*
X128254300Y-109023800D01*
G75*
G02*
X128191800Y-108961300I0J62500D01*
G01*
X128191800Y-108261300D01*
G75*
G02*
X128254300Y-108198800I62500J0D01*
G01*
X128379300Y-108198800D01*
G75*
G02*
X128441800Y-108261300I0J-62500D01*
G01*
X128441800Y-108961300D01*
G75*
G02*
X128379300Y-109023800I-62500J0D01*
G01*
G37*
G36*
G01*
X128879300Y-109023800D02*
X128754300Y-109023800D01*
G75*
G02*
X128691800Y-108961300I0J62500D01*
G01*
X128691800Y-108261300D01*
G75*
G02*
X128754300Y-108198800I62500J0D01*
G01*
X128879300Y-108198800D01*
G75*
G02*
X128941800Y-108261300I0J-62500D01*
G01*
X128941800Y-108961300D01*
G75*
G02*
X128879300Y-109023800I-62500J0D01*
G01*
G37*
G36*
G01*
X129379300Y-109023800D02*
X129254300Y-109023800D01*
G75*
G02*
X129191800Y-108961300I0J62500D01*
G01*
X129191800Y-108261300D01*
G75*
G02*
X129254300Y-108198800I62500J0D01*
G01*
X129379300Y-108198800D01*
G75*
G02*
X129441800Y-108261300I0J-62500D01*
G01*
X129441800Y-108961300D01*
G75*
G02*
X129379300Y-109023800I-62500J0D01*
G01*
G37*
G36*
X129693001Y-108249107D02*
G01*
X129696558Y-108237382D01*
X129702333Y-108226577D01*
X129710106Y-108217106D01*
X129719577Y-108209333D01*
X129730382Y-108203558D01*
X129742107Y-108200001D01*
X129754300Y-108198800D01*
X129879300Y-108198800D01*
X129891493Y-108200001D01*
X129903218Y-108203558D01*
X129914023Y-108209333D01*
X129923494Y-108217106D01*
X129931267Y-108226577D01*
X129937042Y-108237382D01*
X129940599Y-108249107D01*
X129941800Y-108261300D01*
X129941800Y-108907912D01*
X129940599Y-108920105D01*
X129937042Y-108931830D01*
X129931267Y-108942635D01*
X129923494Y-108952106D01*
X129870106Y-109005494D01*
X129860635Y-109013267D01*
X129849830Y-109019042D01*
X129838105Y-109022599D01*
X129825912Y-109023800D01*
X129754300Y-109023800D01*
X129742107Y-109022599D01*
X129730382Y-109019042D01*
X129719577Y-109013267D01*
X129710106Y-109005494D01*
X129702333Y-108996023D01*
X129696558Y-108985218D01*
X129693001Y-108973493D01*
X129691800Y-108961300D01*
X129691800Y-108261300D01*
X129693001Y-108249107D01*
G37*
G36*
X130093001Y-109277495D02*
G01*
X130096558Y-109265770D01*
X130102333Y-109254965D01*
X130110106Y-109245494D01*
X130163494Y-109192106D01*
X130172965Y-109184333D01*
X130183770Y-109178558D01*
X130195495Y-109175001D01*
X130207688Y-109173800D01*
X130854300Y-109173800D01*
X130866493Y-109175001D01*
X130878218Y-109178558D01*
X130889023Y-109184333D01*
X130898494Y-109192106D01*
X130906267Y-109201577D01*
X130912042Y-109212382D01*
X130915599Y-109224107D01*
X130916800Y-109236300D01*
X130916800Y-109361300D01*
X130915599Y-109373493D01*
X130912042Y-109385218D01*
X130906267Y-109396023D01*
X130898494Y-109405494D01*
X130889023Y-109413267D01*
X130878218Y-109419042D01*
X130866493Y-109422599D01*
X130854300Y-109423800D01*
X130154300Y-109423800D01*
X130142107Y-109422599D01*
X130130382Y-109419042D01*
X130119577Y-109413267D01*
X130110106Y-109405494D01*
X130102333Y-109396023D01*
X130096558Y-109385218D01*
X130093001Y-109373493D01*
X130091800Y-109361300D01*
X130091800Y-109289688D01*
X130093001Y-109277495D01*
G37*
G36*
G01*
X130854300Y-109923800D02*
X130154300Y-109923800D01*
G75*
G02*
X130091800Y-109861300I0J62500D01*
G01*
X130091800Y-109736300D01*
G75*
G02*
X130154300Y-109673800I62500J0D01*
G01*
X130854300Y-109673800D01*
G75*
G02*
X130916800Y-109736300I0J-62500D01*
G01*
X130916800Y-109861300D01*
G75*
G02*
X130854300Y-109923800I-62500J0D01*
G01*
G37*
G36*
G01*
X130854300Y-110423800D02*
X130154300Y-110423800D01*
G75*
G02*
X130091800Y-110361300I0J62500D01*
G01*
X130091800Y-110236300D01*
G75*
G02*
X130154300Y-110173800I62500J0D01*
G01*
X130854300Y-110173800D01*
G75*
G02*
X130916800Y-110236300I0J-62500D01*
G01*
X130916800Y-110361300D01*
G75*
G02*
X130854300Y-110423800I-62500J0D01*
G01*
G37*
G36*
G01*
X130854300Y-110923800D02*
X130154300Y-110923800D01*
G75*
G02*
X130091800Y-110861300I0J62500D01*
G01*
X130091800Y-110736300D01*
G75*
G02*
X130154300Y-110673800I62500J0D01*
G01*
X130854300Y-110673800D01*
G75*
G02*
X130916800Y-110736300I0J-62500D01*
G01*
X130916800Y-110861300D01*
G75*
G02*
X130854300Y-110923800I-62500J0D01*
G01*
G37*
G36*
G01*
X130854300Y-111423800D02*
X130154300Y-111423800D01*
G75*
G02*
X130091800Y-111361300I0J62500D01*
G01*
X130091800Y-111236300D01*
G75*
G02*
X130154300Y-111173800I62500J0D01*
G01*
X130854300Y-111173800D01*
G75*
G02*
X130916800Y-111236300I0J-62500D01*
G01*
X130916800Y-111361300D01*
G75*
G02*
X130854300Y-111423800I-62500J0D01*
G01*
G37*
G36*
G01*
X130854300Y-111923800D02*
X130154300Y-111923800D01*
G75*
G02*
X130091800Y-111861300I0J62500D01*
G01*
X130091800Y-111736300D01*
G75*
G02*
X130154300Y-111673800I62500J0D01*
G01*
X130854300Y-111673800D01*
G75*
G02*
X130916800Y-111736300I0J-62500D01*
G01*
X130916800Y-111861300D01*
G75*
G02*
X130854300Y-111923800I-62500J0D01*
G01*
G37*
G36*
G01*
X130854300Y-112423800D02*
X130154300Y-112423800D01*
G75*
G02*
X130091800Y-112361300I0J62500D01*
G01*
X130091800Y-112236300D01*
G75*
G02*
X130154300Y-112173800I62500J0D01*
G01*
X130854300Y-112173800D01*
G75*
G02*
X130916800Y-112236300I0J-62500D01*
G01*
X130916800Y-112361300D01*
G75*
G02*
X130854300Y-112423800I-62500J0D01*
G01*
G37*
G36*
X130093001Y-112724107D02*
G01*
X130096558Y-112712382D01*
X130102333Y-112701577D01*
X130110106Y-112692106D01*
X130119577Y-112684333D01*
X130130382Y-112678558D01*
X130142107Y-112675001D01*
X130154300Y-112673800D01*
X130854300Y-112673800D01*
X130866493Y-112675001D01*
X130878218Y-112678558D01*
X130889023Y-112684333D01*
X130898494Y-112692106D01*
X130906267Y-112701577D01*
X130912042Y-112712382D01*
X130915599Y-112724107D01*
X130916800Y-112736300D01*
X130916800Y-112861300D01*
X130915599Y-112873493D01*
X130912042Y-112885218D01*
X130906267Y-112896023D01*
X130898494Y-112905494D01*
X130889023Y-112913267D01*
X130878218Y-112919042D01*
X130866493Y-112922599D01*
X130854300Y-112923800D01*
X130207688Y-112923800D01*
X130195495Y-112922599D01*
X130183770Y-112919042D01*
X130172965Y-112913267D01*
X130163494Y-112905494D01*
X130110106Y-112852106D01*
X130102333Y-112842635D01*
X130096558Y-112831830D01*
X130093001Y-112820105D01*
X130091800Y-112807912D01*
X130091800Y-112736300D01*
X130093001Y-112724107D01*
G37*
G36*
X129693001Y-113124107D02*
G01*
X129696558Y-113112382D01*
X129702333Y-113101577D01*
X129710106Y-113092106D01*
X129719577Y-113084333D01*
X129730382Y-113078558D01*
X129742107Y-113075001D01*
X129754300Y-113073800D01*
X129825912Y-113073800D01*
X129838105Y-113075001D01*
X129849830Y-113078558D01*
X129860635Y-113084333D01*
X129870106Y-113092106D01*
X129923494Y-113145494D01*
X129931267Y-113154965D01*
X129937042Y-113165770D01*
X129940599Y-113177495D01*
X129941800Y-113189688D01*
X129941800Y-113836300D01*
X129940599Y-113848493D01*
X129937042Y-113860218D01*
X129931267Y-113871023D01*
X129923494Y-113880494D01*
X129914023Y-113888267D01*
X129903218Y-113894042D01*
X129891493Y-113897599D01*
X129879300Y-113898800D01*
X129754300Y-113898800D01*
X129742107Y-113897599D01*
X129730382Y-113894042D01*
X129719577Y-113888267D01*
X129710106Y-113880494D01*
X129702333Y-113871023D01*
X129696558Y-113860218D01*
X129693001Y-113848493D01*
X129691800Y-113836300D01*
X129691800Y-113136300D01*
X129693001Y-113124107D01*
G37*
G36*
G01*
X129379300Y-113898800D02*
X129254300Y-113898800D01*
G75*
G02*
X129191800Y-113836300I0J62500D01*
G01*
X129191800Y-113136300D01*
G75*
G02*
X129254300Y-113073800I62500J0D01*
G01*
X129379300Y-113073800D01*
G75*
G02*
X129441800Y-113136300I0J-62500D01*
G01*
X129441800Y-113836300D01*
G75*
G02*
X129379300Y-113898800I-62500J0D01*
G01*
G37*
G36*
G01*
X128879300Y-113898800D02*
X128754300Y-113898800D01*
G75*
G02*
X128691800Y-113836300I0J62500D01*
G01*
X128691800Y-113136300D01*
G75*
G02*
X128754300Y-113073800I62500J0D01*
G01*
X128879300Y-113073800D01*
G75*
G02*
X128941800Y-113136300I0J-62500D01*
G01*
X128941800Y-113836300D01*
G75*
G02*
X128879300Y-113898800I-62500J0D01*
G01*
G37*
G36*
G01*
X128379300Y-113898800D02*
X128254300Y-113898800D01*
G75*
G02*
X128191800Y-113836300I0J62500D01*
G01*
X128191800Y-113136300D01*
G75*
G02*
X128254300Y-113073800I62500J0D01*
G01*
X128379300Y-113073800D01*
G75*
G02*
X128441800Y-113136300I0J-62500D01*
G01*
X128441800Y-113836300D01*
G75*
G02*
X128379300Y-113898800I-62500J0D01*
G01*
G37*
G36*
G01*
X127879300Y-113898800D02*
X127754300Y-113898800D01*
G75*
G02*
X127691800Y-113836300I0J62500D01*
G01*
X127691800Y-113136300D01*
G75*
G02*
X127754300Y-113073800I62500J0D01*
G01*
X127879300Y-113073800D01*
G75*
G02*
X127941800Y-113136300I0J-62500D01*
G01*
X127941800Y-113836300D01*
G75*
G02*
X127879300Y-113898800I-62500J0D01*
G01*
G37*
G36*
G01*
X127379300Y-113898800D02*
X127254300Y-113898800D01*
G75*
G02*
X127191800Y-113836300I0J62500D01*
G01*
X127191800Y-113136300D01*
G75*
G02*
X127254300Y-113073800I62500J0D01*
G01*
X127379300Y-113073800D01*
G75*
G02*
X127441800Y-113136300I0J-62500D01*
G01*
X127441800Y-113836300D01*
G75*
G02*
X127379300Y-113898800I-62500J0D01*
G01*
G37*
G36*
G01*
X126879300Y-113898800D02*
X126754300Y-113898800D01*
G75*
G02*
X126691800Y-113836300I0J62500D01*
G01*
X126691800Y-113136300D01*
G75*
G02*
X126754300Y-113073800I62500J0D01*
G01*
X126879300Y-113073800D01*
G75*
G02*
X126941800Y-113136300I0J-62500D01*
G01*
X126941800Y-113836300D01*
G75*
G02*
X126879300Y-113898800I-62500J0D01*
G01*
G37*
G36*
X126193001Y-113177495D02*
G01*
X126196558Y-113165770D01*
X126202333Y-113154965D01*
X126210106Y-113145494D01*
X126263494Y-113092106D01*
X126272965Y-113084333D01*
X126283770Y-113078558D01*
X126295495Y-113075001D01*
X126307688Y-113073800D01*
X126379300Y-113073800D01*
X126391493Y-113075001D01*
X126403218Y-113078558D01*
X126414023Y-113084333D01*
X126423494Y-113092106D01*
X126431267Y-113101577D01*
X126437042Y-113112382D01*
X126440599Y-113124107D01*
X126441800Y-113136300D01*
X126441800Y-113836300D01*
X126440599Y-113848493D01*
X126437042Y-113860218D01*
X126431267Y-113871023D01*
X126423494Y-113880494D01*
X126414023Y-113888267D01*
X126403218Y-113894042D01*
X126391493Y-113897599D01*
X126379300Y-113898800D01*
X126254300Y-113898800D01*
X126242107Y-113897599D01*
X126230382Y-113894042D01*
X126219577Y-113888267D01*
X126210106Y-113880494D01*
X126202333Y-113871023D01*
X126196558Y-113860218D01*
X126193001Y-113848493D01*
X126191800Y-113836300D01*
X126191800Y-113189688D01*
X126193001Y-113177495D01*
G37*
M02*
