G04 #@! TF.GenerationSoftware,KiCad,Pcbnew,(5.1.12)-1*
G04 #@! TF.CreationDate,2022-10-04T21:51:07-07:00*
G04 #@! TF.ProjectId,HDMIBuffer,48444d49-4275-4666-9665-722e6b696361,rev?*
G04 #@! TF.SameCoordinates,Original*
G04 #@! TF.FileFunction,Legend,Bot*
G04 #@! TF.FilePolarity,Positive*
%FSLAX46Y46*%
G04 Gerber Fmt 4.6, Leading zero omitted, Abs format (unit mm)*
G04 Created by KiCad (PCBNEW (5.1.12)-1) date 2022-10-04 21:51:07*
%MOMM*%
%LPD*%
G01*
G04 APERTURE LIST*
%ADD10C,0.120000*%
%ADD11O,1.600000X1.600000*%
%ADD12R,1.600000X1.600000*%
G04 APERTURE END LIST*
D10*
X119533124Y-116571500D02*
X119023676Y-116571500D01*
X119533124Y-117616500D02*
X119023676Y-117616500D01*
X119533124Y-119111500D02*
X119023676Y-119111500D01*
X119533124Y-120156500D02*
X119023676Y-120156500D01*
X119533124Y-114031500D02*
X119023676Y-114031500D01*
X119533124Y-115076500D02*
X119023676Y-115076500D01*
X119533124Y-111491500D02*
X119023676Y-111491500D01*
X119533124Y-112536500D02*
X119023676Y-112536500D01*
X119533124Y-108951500D02*
X119023676Y-108951500D01*
X119533124Y-109996500D02*
X119023676Y-109996500D01*
X119533124Y-106411500D02*
X119023676Y-106411500D01*
X119533124Y-107456500D02*
X119023676Y-107456500D01*
X119533124Y-101356900D02*
X119023676Y-101356900D01*
X119533124Y-102401900D02*
X119023676Y-102401900D01*
X119533124Y-98791500D02*
X119023676Y-98791500D01*
X119533124Y-99836500D02*
X119023676Y-99836500D01*
X136559600Y-64964000D02*
X135229600Y-64964000D01*
X136559600Y-66294000D02*
X136559600Y-64964000D01*
X136559600Y-67564000D02*
X133899600Y-67564000D01*
X133899600Y-67564000D02*
X133899600Y-146364000D01*
X136559600Y-67564000D02*
X136559600Y-146364000D01*
X136559600Y-146364000D02*
X133899600Y-146364000D01*
X113703601Y-64964000D02*
X112373601Y-64964000D01*
X113703601Y-66294000D02*
X113703601Y-64964000D01*
X113703601Y-67564000D02*
X111043601Y-67564000D01*
X111043601Y-67564000D02*
X111043601Y-146364000D01*
X113703601Y-67564000D02*
X113703601Y-146364000D01*
X113703601Y-146364000D02*
X111043601Y-146364000D01*
X121943400Y-117484085D02*
X122193400Y-117126942D01*
X122371971Y-117484085D02*
X122371971Y-116734085D01*
X122086257Y-116734085D01*
X122014828Y-116769800D01*
X121979114Y-116805514D01*
X121943400Y-116876942D01*
X121943400Y-116984085D01*
X121979114Y-117055514D01*
X122014828Y-117091228D01*
X122086257Y-117126942D01*
X122371971Y-117126942D01*
X121514828Y-117055514D02*
X121586257Y-117019800D01*
X121621971Y-116984085D01*
X121657685Y-116912657D01*
X121657685Y-116876942D01*
X121621971Y-116805514D01*
X121586257Y-116769800D01*
X121514828Y-116734085D01*
X121371971Y-116734085D01*
X121300542Y-116769800D01*
X121264828Y-116805514D01*
X121229114Y-116876942D01*
X121229114Y-116912657D01*
X121264828Y-116984085D01*
X121300542Y-117019800D01*
X121371971Y-117055514D01*
X121514828Y-117055514D01*
X121586257Y-117091228D01*
X121621971Y-117126942D01*
X121657685Y-117198371D01*
X121657685Y-117341228D01*
X121621971Y-117412657D01*
X121586257Y-117448371D01*
X121514828Y-117484085D01*
X121371971Y-117484085D01*
X121300542Y-117448371D01*
X121264828Y-117412657D01*
X121229114Y-117341228D01*
X121229114Y-117198371D01*
X121264828Y-117126942D01*
X121300542Y-117091228D01*
X121371971Y-117055514D01*
X121918000Y-119973285D02*
X122168000Y-119616142D01*
X122346571Y-119973285D02*
X122346571Y-119223285D01*
X122060857Y-119223285D01*
X121989428Y-119259000D01*
X121953714Y-119294714D01*
X121918000Y-119366142D01*
X121918000Y-119473285D01*
X121953714Y-119544714D01*
X121989428Y-119580428D01*
X122060857Y-119616142D01*
X122346571Y-119616142D01*
X121668000Y-119223285D02*
X121168000Y-119223285D01*
X121489428Y-119973285D01*
X119403400Y-113463285D02*
X119653400Y-113106142D01*
X119831971Y-113463285D02*
X119831971Y-112713285D01*
X119546257Y-112713285D01*
X119474828Y-112749000D01*
X119439114Y-112784714D01*
X119403400Y-112856142D01*
X119403400Y-112963285D01*
X119439114Y-113034714D01*
X119474828Y-113070428D01*
X119546257Y-113106142D01*
X119831971Y-113106142D01*
X118760542Y-112713285D02*
X118903400Y-112713285D01*
X118974828Y-112749000D01*
X119010542Y-112784714D01*
X119081971Y-112891857D01*
X119117685Y-113034714D01*
X119117685Y-113320428D01*
X119081971Y-113391857D01*
X119046257Y-113427571D01*
X118974828Y-113463285D01*
X118831971Y-113463285D01*
X118760542Y-113427571D01*
X118724828Y-113391857D01*
X118689114Y-113320428D01*
X118689114Y-113141857D01*
X118724828Y-113070428D01*
X118760542Y-113034714D01*
X118831971Y-112999000D01*
X118974828Y-112999000D01*
X119046257Y-113034714D01*
X119081971Y-113070428D01*
X119117685Y-113141857D01*
X121867200Y-112327885D02*
X122117200Y-111970742D01*
X122295771Y-112327885D02*
X122295771Y-111577885D01*
X122010057Y-111577885D01*
X121938628Y-111613600D01*
X121902914Y-111649314D01*
X121867200Y-111720742D01*
X121867200Y-111827885D01*
X121902914Y-111899314D01*
X121938628Y-111935028D01*
X122010057Y-111970742D01*
X122295771Y-111970742D01*
X121188628Y-111577885D02*
X121545771Y-111577885D01*
X121581485Y-111935028D01*
X121545771Y-111899314D01*
X121474342Y-111863600D01*
X121295771Y-111863600D01*
X121224342Y-111899314D01*
X121188628Y-111935028D01*
X121152914Y-112006457D01*
X121152914Y-112185028D01*
X121188628Y-112256457D01*
X121224342Y-112292171D01*
X121295771Y-112327885D01*
X121474342Y-112327885D01*
X121545771Y-112292171D01*
X121581485Y-112256457D01*
X121816400Y-109787885D02*
X122066400Y-109430742D01*
X122244971Y-109787885D02*
X122244971Y-109037885D01*
X121959257Y-109037885D01*
X121887828Y-109073600D01*
X121852114Y-109109314D01*
X121816400Y-109180742D01*
X121816400Y-109287885D01*
X121852114Y-109359314D01*
X121887828Y-109395028D01*
X121959257Y-109430742D01*
X122244971Y-109430742D01*
X121173542Y-109287885D02*
X121173542Y-109787885D01*
X121352114Y-109002171D02*
X121530685Y-109537885D01*
X121066400Y-109537885D01*
X121839900Y-107273285D02*
X122089900Y-106916142D01*
X122268471Y-107273285D02*
X122268471Y-106523285D01*
X121982757Y-106523285D01*
X121911328Y-106559000D01*
X121875614Y-106594714D01*
X121839900Y-106666142D01*
X121839900Y-106773285D01*
X121875614Y-106844714D01*
X121911328Y-106880428D01*
X121982757Y-106916142D01*
X122268471Y-106916142D01*
X121589900Y-106523285D02*
X121125614Y-106523285D01*
X121375614Y-106809000D01*
X121268471Y-106809000D01*
X121197042Y-106844714D01*
X121161328Y-106880428D01*
X121125614Y-106951857D01*
X121125614Y-107130428D01*
X121161328Y-107201857D01*
X121197042Y-107237571D01*
X121268471Y-107273285D01*
X121482757Y-107273285D01*
X121554185Y-107237571D01*
X121589900Y-107201857D01*
X121867200Y-102193285D02*
X122117200Y-101836142D01*
X122295771Y-102193285D02*
X122295771Y-101443285D01*
X122010057Y-101443285D01*
X121938628Y-101479000D01*
X121902914Y-101514714D01*
X121867200Y-101586142D01*
X121867200Y-101693285D01*
X121902914Y-101764714D01*
X121938628Y-101800428D01*
X122010057Y-101836142D01*
X122295771Y-101836142D01*
X121581485Y-101514714D02*
X121545771Y-101479000D01*
X121474342Y-101443285D01*
X121295771Y-101443285D01*
X121224342Y-101479000D01*
X121188628Y-101514714D01*
X121152914Y-101586142D01*
X121152914Y-101657571D01*
X121188628Y-101764714D01*
X121617200Y-102193285D01*
X121152914Y-102193285D01*
X121740200Y-99678685D02*
X121990200Y-99321542D01*
X122168771Y-99678685D02*
X122168771Y-98928685D01*
X121883057Y-98928685D01*
X121811628Y-98964400D01*
X121775914Y-99000114D01*
X121740200Y-99071542D01*
X121740200Y-99178685D01*
X121775914Y-99250114D01*
X121811628Y-99285828D01*
X121883057Y-99321542D01*
X122168771Y-99321542D01*
X121025914Y-99678685D02*
X121454485Y-99678685D01*
X121240200Y-99678685D02*
X121240200Y-98928685D01*
X121311628Y-99035828D01*
X121383057Y-99107257D01*
X121454485Y-99142971D01*
%LPC*%
G36*
G01*
X118853400Y-116856500D02*
X118853400Y-117331500D01*
G75*
G02*
X118615900Y-117569000I-237500J0D01*
G01*
X118115900Y-117569000D01*
G75*
G02*
X117878400Y-117331500I0J237500D01*
G01*
X117878400Y-116856500D01*
G75*
G02*
X118115900Y-116619000I237500J0D01*
G01*
X118615900Y-116619000D01*
G75*
G02*
X118853400Y-116856500I0J-237500D01*
G01*
G37*
G36*
G01*
X120678400Y-116856500D02*
X120678400Y-117331500D01*
G75*
G02*
X120440900Y-117569000I-237500J0D01*
G01*
X119940900Y-117569000D01*
G75*
G02*
X119703400Y-117331500I0J237500D01*
G01*
X119703400Y-116856500D01*
G75*
G02*
X119940900Y-116619000I237500J0D01*
G01*
X120440900Y-116619000D01*
G75*
G02*
X120678400Y-116856500I0J-237500D01*
G01*
G37*
G36*
G01*
X118853400Y-119396500D02*
X118853400Y-119871500D01*
G75*
G02*
X118615900Y-120109000I-237500J0D01*
G01*
X118115900Y-120109000D01*
G75*
G02*
X117878400Y-119871500I0J237500D01*
G01*
X117878400Y-119396500D01*
G75*
G02*
X118115900Y-119159000I237500J0D01*
G01*
X118615900Y-119159000D01*
G75*
G02*
X118853400Y-119396500I0J-237500D01*
G01*
G37*
G36*
G01*
X120678400Y-119396500D02*
X120678400Y-119871500D01*
G75*
G02*
X120440900Y-120109000I-237500J0D01*
G01*
X119940900Y-120109000D01*
G75*
G02*
X119703400Y-119871500I0J237500D01*
G01*
X119703400Y-119396500D01*
G75*
G02*
X119940900Y-119159000I237500J0D01*
G01*
X120440900Y-119159000D01*
G75*
G02*
X120678400Y-119396500I0J-237500D01*
G01*
G37*
G36*
G01*
X118853400Y-114316500D02*
X118853400Y-114791500D01*
G75*
G02*
X118615900Y-115029000I-237500J0D01*
G01*
X118115900Y-115029000D01*
G75*
G02*
X117878400Y-114791500I0J237500D01*
G01*
X117878400Y-114316500D01*
G75*
G02*
X118115900Y-114079000I237500J0D01*
G01*
X118615900Y-114079000D01*
G75*
G02*
X118853400Y-114316500I0J-237500D01*
G01*
G37*
G36*
G01*
X120678400Y-114316500D02*
X120678400Y-114791500D01*
G75*
G02*
X120440900Y-115029000I-237500J0D01*
G01*
X119940900Y-115029000D01*
G75*
G02*
X119703400Y-114791500I0J237500D01*
G01*
X119703400Y-114316500D01*
G75*
G02*
X119940900Y-114079000I237500J0D01*
G01*
X120440900Y-114079000D01*
G75*
G02*
X120678400Y-114316500I0J-237500D01*
G01*
G37*
G36*
G01*
X118853400Y-111776500D02*
X118853400Y-112251500D01*
G75*
G02*
X118615900Y-112489000I-237500J0D01*
G01*
X118115900Y-112489000D01*
G75*
G02*
X117878400Y-112251500I0J237500D01*
G01*
X117878400Y-111776500D01*
G75*
G02*
X118115900Y-111539000I237500J0D01*
G01*
X118615900Y-111539000D01*
G75*
G02*
X118853400Y-111776500I0J-237500D01*
G01*
G37*
G36*
G01*
X120678400Y-111776500D02*
X120678400Y-112251500D01*
G75*
G02*
X120440900Y-112489000I-237500J0D01*
G01*
X119940900Y-112489000D01*
G75*
G02*
X119703400Y-112251500I0J237500D01*
G01*
X119703400Y-111776500D01*
G75*
G02*
X119940900Y-111539000I237500J0D01*
G01*
X120440900Y-111539000D01*
G75*
G02*
X120678400Y-111776500I0J-237500D01*
G01*
G37*
G36*
G01*
X118853400Y-109236500D02*
X118853400Y-109711500D01*
G75*
G02*
X118615900Y-109949000I-237500J0D01*
G01*
X118115900Y-109949000D01*
G75*
G02*
X117878400Y-109711500I0J237500D01*
G01*
X117878400Y-109236500D01*
G75*
G02*
X118115900Y-108999000I237500J0D01*
G01*
X118615900Y-108999000D01*
G75*
G02*
X118853400Y-109236500I0J-237500D01*
G01*
G37*
G36*
G01*
X120678400Y-109236500D02*
X120678400Y-109711500D01*
G75*
G02*
X120440900Y-109949000I-237500J0D01*
G01*
X119940900Y-109949000D01*
G75*
G02*
X119703400Y-109711500I0J237500D01*
G01*
X119703400Y-109236500D01*
G75*
G02*
X119940900Y-108999000I237500J0D01*
G01*
X120440900Y-108999000D01*
G75*
G02*
X120678400Y-109236500I0J-237500D01*
G01*
G37*
G36*
G01*
X118853400Y-106696500D02*
X118853400Y-107171500D01*
G75*
G02*
X118615900Y-107409000I-237500J0D01*
G01*
X118115900Y-107409000D01*
G75*
G02*
X117878400Y-107171500I0J237500D01*
G01*
X117878400Y-106696500D01*
G75*
G02*
X118115900Y-106459000I237500J0D01*
G01*
X118615900Y-106459000D01*
G75*
G02*
X118853400Y-106696500I0J-237500D01*
G01*
G37*
G36*
G01*
X120678400Y-106696500D02*
X120678400Y-107171500D01*
G75*
G02*
X120440900Y-107409000I-237500J0D01*
G01*
X119940900Y-107409000D01*
G75*
G02*
X119703400Y-107171500I0J237500D01*
G01*
X119703400Y-106696500D01*
G75*
G02*
X119940900Y-106459000I237500J0D01*
G01*
X120440900Y-106459000D01*
G75*
G02*
X120678400Y-106696500I0J-237500D01*
G01*
G37*
G36*
G01*
X118853400Y-101641900D02*
X118853400Y-102116900D01*
G75*
G02*
X118615900Y-102354400I-237500J0D01*
G01*
X118115900Y-102354400D01*
G75*
G02*
X117878400Y-102116900I0J237500D01*
G01*
X117878400Y-101641900D01*
G75*
G02*
X118115900Y-101404400I237500J0D01*
G01*
X118615900Y-101404400D01*
G75*
G02*
X118853400Y-101641900I0J-237500D01*
G01*
G37*
G36*
G01*
X120678400Y-101641900D02*
X120678400Y-102116900D01*
G75*
G02*
X120440900Y-102354400I-237500J0D01*
G01*
X119940900Y-102354400D01*
G75*
G02*
X119703400Y-102116900I0J237500D01*
G01*
X119703400Y-101641900D01*
G75*
G02*
X119940900Y-101404400I237500J0D01*
G01*
X120440900Y-101404400D01*
G75*
G02*
X120678400Y-101641900I0J-237500D01*
G01*
G37*
G36*
G01*
X118853400Y-99076500D02*
X118853400Y-99551500D01*
G75*
G02*
X118615900Y-99789000I-237500J0D01*
G01*
X118115900Y-99789000D01*
G75*
G02*
X117878400Y-99551500I0J237500D01*
G01*
X117878400Y-99076500D01*
G75*
G02*
X118115900Y-98839000I237500J0D01*
G01*
X118615900Y-98839000D01*
G75*
G02*
X118853400Y-99076500I0J-237500D01*
G01*
G37*
G36*
G01*
X120678400Y-99076500D02*
X120678400Y-99551500D01*
G75*
G02*
X120440900Y-99789000I-237500J0D01*
G01*
X119940900Y-99789000D01*
G75*
G02*
X119703400Y-99551500I0J237500D01*
G01*
X119703400Y-99076500D01*
G75*
G02*
X119940900Y-98839000I237500J0D01*
G01*
X120440900Y-98839000D01*
G75*
G02*
X120678400Y-99076500I0J-237500D01*
G01*
G37*
D11*
X137769600Y-145034000D03*
X137769600Y-142494000D03*
X137769600Y-139954000D03*
X137769600Y-137414000D03*
X137769600Y-134874000D03*
X137769600Y-132334000D03*
X137769600Y-129794000D03*
X137769600Y-127254000D03*
X137769600Y-124714000D03*
X137769600Y-122174000D03*
X137769600Y-119634000D03*
X137769600Y-117094000D03*
X137769600Y-114554000D03*
X137769600Y-112014000D03*
X137769600Y-109474000D03*
X137769600Y-106934000D03*
X137769600Y-104394000D03*
X137769600Y-101854000D03*
X137769600Y-99314000D03*
X137769600Y-96774000D03*
X137769600Y-94234000D03*
X137769600Y-91694000D03*
X137769600Y-89154000D03*
X137769600Y-86614000D03*
X137769600Y-84074000D03*
X137769600Y-81534000D03*
X137769600Y-78994000D03*
X137769600Y-76454000D03*
X137769600Y-73914000D03*
X137769600Y-71374000D03*
X137769600Y-68834000D03*
X137769600Y-66294000D03*
X135229600Y-145034000D03*
X135229600Y-142494000D03*
X135229600Y-139954000D03*
X135229600Y-137414000D03*
X135229600Y-134874000D03*
X135229600Y-132334000D03*
X135229600Y-129794000D03*
X135229600Y-127254000D03*
X135229600Y-124714000D03*
X135229600Y-122174000D03*
X135229600Y-119634000D03*
X135229600Y-117094000D03*
X135229600Y-114554000D03*
X135229600Y-112014000D03*
X135229600Y-109474000D03*
X135229600Y-106934000D03*
X135229600Y-104394000D03*
X135229600Y-101854000D03*
X135229600Y-99314000D03*
X135229600Y-96774000D03*
X135229600Y-94234000D03*
X135229600Y-91694000D03*
X135229600Y-89154000D03*
X135229600Y-86614000D03*
X135229600Y-84074000D03*
X135229600Y-81534000D03*
X135229600Y-78994000D03*
X135229600Y-76454000D03*
X135229600Y-73914000D03*
X135229600Y-71374000D03*
X135229600Y-68834000D03*
X135229600Y-66294000D03*
X114909600Y-145034000D03*
X114909600Y-142494000D03*
X114909600Y-139954000D03*
X114909600Y-137414000D03*
X114909600Y-134874000D03*
X114909600Y-132334000D03*
X114909600Y-129794000D03*
X114909600Y-127254000D03*
X114909600Y-124714000D03*
X114909600Y-122174000D03*
X114909600Y-119634000D03*
X114909600Y-117094000D03*
X114909600Y-114554000D03*
X114909600Y-112014000D03*
X114909600Y-109474000D03*
X114909600Y-106934000D03*
X114909600Y-104394000D03*
X114909600Y-101854000D03*
X114909600Y-99314000D03*
X114909600Y-96774000D03*
X114909600Y-94234000D03*
X114909600Y-91694000D03*
X114909600Y-89154000D03*
X114909600Y-86614000D03*
X114909600Y-84074000D03*
X114909600Y-81534000D03*
X114909600Y-78994000D03*
X114909600Y-76454000D03*
X114909600Y-73914000D03*
X114909600Y-71374000D03*
X114909600Y-68834000D03*
D12*
X114909600Y-66294000D03*
D11*
X112373601Y-145034000D03*
X112373601Y-142494000D03*
X112373601Y-139954000D03*
X112373601Y-137414000D03*
X112373601Y-134874000D03*
X112373601Y-132334000D03*
X112373601Y-129794000D03*
X112373601Y-127254000D03*
X112373601Y-124714000D03*
X112373601Y-122174000D03*
X112373601Y-119634000D03*
X112373601Y-117094000D03*
X112373601Y-114554000D03*
X112373601Y-112014000D03*
X112373601Y-109474000D03*
X112373601Y-106934000D03*
X112373601Y-104394000D03*
X112373601Y-101854000D03*
X112373601Y-99314000D03*
X112373601Y-96774000D03*
X112373601Y-94234000D03*
X112373601Y-91694000D03*
X112373601Y-89154000D03*
X112373601Y-86614000D03*
X112373601Y-84074000D03*
X112373601Y-81534000D03*
X112373601Y-78994000D03*
X112373601Y-76454000D03*
X112373601Y-73914000D03*
X112373601Y-71374000D03*
X112373601Y-68834000D03*
D12*
X112373601Y-66294000D03*
M02*
