%FSLAX45Y45*%
G04 Gerber Fmt 4.5, Leading zero omitted, Abs format (unit mm)*
G04 Created by KiCad (PCBNEW (5.1.12)-1) date 2022-08-10 22:49:00*
%MOMM*%
%LPD*%
G01*
G04 APERTURE LIST*
%TA.AperFunction,Profile*%
%ADD10C,0.050000*%
%TD*%
%ADD11C,0.200000*%
%ADD12C,0.300000*%
G04 APERTURE END LIST*
D10*
X3440236Y-21000000D02*
X27840236Y-21000000D01*
X3440236Y-2665488D02*
X27840236Y-2665488D01*
X27840236Y-2665488D02*
X27840236Y-21000000D01*
X3440236Y-2665488D02*
X3440236Y-21000000D01*
D11*
X12261000Y-3331800D02*
X12431000Y-3501800D01*
X12431000Y-3331800D02*
X12261000Y-3501800D01*
X12611000Y-4656800D02*
X12781000Y-4826800D01*
X12781000Y-4656800D02*
X12611000Y-4826800D01*
D12*
X3724164Y-21468214D02*
X3724164Y-21168214D01*
X3795593Y-21168214D01*
X3838450Y-21182500D01*
X3867022Y-21211072D01*
X3881307Y-21239643D01*
X3895593Y-21296786D01*
X3895593Y-21339643D01*
X3881307Y-21396786D01*
X3867022Y-21425357D01*
X3838450Y-21453929D01*
X3795593Y-21468214D01*
X3724164Y-21468214D01*
X4024164Y-21468214D02*
X4024164Y-21268214D01*
X4024164Y-21325357D02*
X4038450Y-21296786D01*
X4052736Y-21282500D01*
X4081307Y-21268214D01*
X4109879Y-21268214D01*
X4209879Y-21468214D02*
X4209879Y-21268214D01*
X4209879Y-21168214D02*
X4195593Y-21182500D01*
X4209879Y-21196786D01*
X4224164Y-21182500D01*
X4209879Y-21168214D01*
X4209879Y-21196786D01*
X4395593Y-21468214D02*
X4367022Y-21453929D01*
X4352736Y-21425357D01*
X4352736Y-21168214D01*
X4552736Y-21468214D02*
X4524164Y-21453929D01*
X4509879Y-21425357D01*
X4509879Y-21168214D01*
X4895593Y-21468214D02*
X4895593Y-21168214D01*
X4995593Y-21382500D01*
X5095593Y-21168214D01*
X5095593Y-21468214D01*
X5367022Y-21468214D02*
X5367022Y-21311072D01*
X5352736Y-21282500D01*
X5324164Y-21268214D01*
X5267022Y-21268214D01*
X5238450Y-21282500D01*
X5367022Y-21453929D02*
X5338450Y-21468214D01*
X5267022Y-21468214D01*
X5238450Y-21453929D01*
X5224164Y-21425357D01*
X5224164Y-21396786D01*
X5238450Y-21368214D01*
X5267022Y-21353929D01*
X5338450Y-21353929D01*
X5367022Y-21339643D01*
X5509879Y-21268214D02*
X5509879Y-21568214D01*
X5509879Y-21282500D02*
X5538450Y-21268214D01*
X5595593Y-21268214D01*
X5624164Y-21282500D01*
X5638450Y-21296786D01*
X5652736Y-21325357D01*
X5652736Y-21411072D01*
X5638450Y-21439643D01*
X5624164Y-21453929D01*
X5595593Y-21468214D01*
X5538450Y-21468214D01*
X5509879Y-21453929D01*
X5781307Y-21439643D02*
X5795593Y-21453929D01*
X5781307Y-21468214D01*
X5767022Y-21453929D01*
X5781307Y-21439643D01*
X5781307Y-21468214D01*
X5781307Y-21282500D02*
X5795593Y-21296786D01*
X5781307Y-21311072D01*
X5767022Y-21296786D01*
X5781307Y-21282500D01*
X5781307Y-21311072D01*
X3267736Y-21877500D02*
X3437736Y-22047500D01*
X3437736Y-21877500D02*
X3267736Y-22047500D01*
X3881307Y-22098214D02*
X3709879Y-22098214D01*
X3795593Y-22098214D02*
X3795593Y-21798214D01*
X3767022Y-21841072D01*
X3738450Y-21869643D01*
X3709879Y-21883929D01*
X4009879Y-22069643D02*
X4024164Y-22083929D01*
X4009879Y-22098214D01*
X3995593Y-22083929D01*
X4009879Y-22069643D01*
X4009879Y-22098214D01*
X4124164Y-21798214D02*
X4324164Y-21798214D01*
X4195593Y-22098214D01*
X4495593Y-21798214D02*
X4524164Y-21798214D01*
X4552736Y-21812500D01*
X4567022Y-21826786D01*
X4581307Y-21855357D01*
X4595593Y-21912500D01*
X4595593Y-21983929D01*
X4581307Y-22041072D01*
X4567022Y-22069643D01*
X4552736Y-22083929D01*
X4524164Y-22098214D01*
X4495593Y-22098214D01*
X4467022Y-22083929D01*
X4452736Y-22069643D01*
X4438450Y-22041072D01*
X4424164Y-21983929D01*
X4424164Y-21912500D01*
X4438450Y-21855357D01*
X4452736Y-21826786D01*
X4467022Y-21812500D01*
X4495593Y-21798214D01*
X4781307Y-21798214D02*
X4809879Y-21798214D01*
X4838450Y-21812500D01*
X4852736Y-21826786D01*
X4867022Y-21855357D01*
X4881307Y-21912500D01*
X4881307Y-21983929D01*
X4867022Y-22041072D01*
X4852736Y-22069643D01*
X4838450Y-22083929D01*
X4809879Y-22098214D01*
X4781307Y-22098214D01*
X4752736Y-22083929D01*
X4738450Y-22069643D01*
X4724164Y-22041072D01*
X4709879Y-21983929D01*
X4709879Y-21912500D01*
X4724164Y-21855357D01*
X4738450Y-21826786D01*
X4752736Y-21812500D01*
X4781307Y-21798214D01*
X5009879Y-22098214D02*
X5009879Y-21898214D01*
X5009879Y-21926786D02*
X5024164Y-21912500D01*
X5052736Y-21898214D01*
X5095593Y-21898214D01*
X5124164Y-21912500D01*
X5138450Y-21941072D01*
X5138450Y-22098214D01*
X5138450Y-21941072D02*
X5152736Y-21912500D01*
X5181307Y-21898214D01*
X5224164Y-21898214D01*
X5252736Y-21912500D01*
X5267022Y-21941072D01*
X5267022Y-22098214D01*
X5409879Y-22098214D02*
X5409879Y-21898214D01*
X5409879Y-21926786D02*
X5424164Y-21912500D01*
X5452736Y-21898214D01*
X5495593Y-21898214D01*
X5524164Y-21912500D01*
X5538450Y-21941072D01*
X5538450Y-22098214D01*
X5538450Y-21941072D02*
X5552736Y-21912500D01*
X5581307Y-21898214D01*
X5624164Y-21898214D01*
X5652736Y-21912500D01*
X5667022Y-21941072D01*
X5667022Y-22098214D01*
X6252736Y-21783929D02*
X5995593Y-22169643D01*
X6638450Y-21798214D02*
X6667022Y-21798214D01*
X6695593Y-21812500D01*
X6709879Y-21826786D01*
X6724164Y-21855357D01*
X6738450Y-21912500D01*
X6738450Y-21983929D01*
X6724164Y-22041072D01*
X6709879Y-22069643D01*
X6695593Y-22083929D01*
X6667022Y-22098214D01*
X6638450Y-22098214D01*
X6609879Y-22083929D01*
X6595593Y-22069643D01*
X6581307Y-22041072D01*
X6567022Y-21983929D01*
X6567022Y-21912500D01*
X6581307Y-21855357D01*
X6595593Y-21826786D01*
X6609879Y-21812500D01*
X6638450Y-21798214D01*
X6867022Y-22069643D02*
X6881307Y-22083929D01*
X6867022Y-22098214D01*
X6852736Y-22083929D01*
X6867022Y-22069643D01*
X6867022Y-22098214D01*
X7067022Y-21798214D02*
X7095593Y-21798214D01*
X7124164Y-21812500D01*
X7138450Y-21826786D01*
X7152736Y-21855357D01*
X7167022Y-21912500D01*
X7167022Y-21983929D01*
X7152736Y-22041072D01*
X7138450Y-22069643D01*
X7124164Y-22083929D01*
X7095593Y-22098214D01*
X7067022Y-22098214D01*
X7038450Y-22083929D01*
X7024164Y-22069643D01*
X7009879Y-22041072D01*
X6995593Y-21983929D01*
X6995593Y-21912500D01*
X7009879Y-21855357D01*
X7024164Y-21826786D01*
X7038450Y-21812500D01*
X7067022Y-21798214D01*
X7424164Y-21798214D02*
X7367022Y-21798214D01*
X7338450Y-21812500D01*
X7324164Y-21826786D01*
X7295593Y-21869643D01*
X7281307Y-21926786D01*
X7281307Y-22041072D01*
X7295593Y-22069643D01*
X7309879Y-22083929D01*
X7338450Y-22098214D01*
X7395593Y-22098214D01*
X7424164Y-22083929D01*
X7438450Y-22069643D01*
X7452736Y-22041072D01*
X7452736Y-21969643D01*
X7438450Y-21941072D01*
X7424164Y-21926786D01*
X7395593Y-21912500D01*
X7338450Y-21912500D01*
X7309879Y-21926786D01*
X7295593Y-21941072D01*
X7281307Y-21969643D01*
X7709879Y-21798214D02*
X7652736Y-21798214D01*
X7624164Y-21812500D01*
X7609879Y-21826786D01*
X7581307Y-21869643D01*
X7567022Y-21926786D01*
X7567022Y-22041072D01*
X7581307Y-22069643D01*
X7595593Y-22083929D01*
X7624164Y-22098214D01*
X7681307Y-22098214D01*
X7709879Y-22083929D01*
X7724164Y-22069643D01*
X7738450Y-22041072D01*
X7738450Y-21969643D01*
X7724164Y-21941072D01*
X7709879Y-21926786D01*
X7681307Y-21912500D01*
X7624164Y-21912500D01*
X7595593Y-21926786D01*
X7581307Y-21941072D01*
X7567022Y-21969643D01*
X7881307Y-22098214D02*
X7938450Y-22098214D01*
X7967022Y-22083929D01*
X7981307Y-22069643D01*
X8009879Y-22026786D01*
X8024164Y-21969643D01*
X8024164Y-21855357D01*
X8009879Y-21826786D01*
X7995593Y-21812500D01*
X7967022Y-21798214D01*
X7909879Y-21798214D01*
X7881307Y-21812500D01*
X7867022Y-21826786D01*
X7852736Y-21855357D01*
X7852736Y-21926786D01*
X7867022Y-21955357D01*
X7881307Y-21969643D01*
X7909879Y-21983929D01*
X7967022Y-21983929D01*
X7995593Y-21969643D01*
X8009879Y-21955357D01*
X8024164Y-21926786D01*
X8138450Y-21798214D02*
X8138450Y-21855357D01*
X8252736Y-21798214D02*
X8252736Y-21855357D01*
X8695593Y-22212500D02*
X8681307Y-22198214D01*
X8652736Y-22155357D01*
X8638450Y-22126786D01*
X8624164Y-22083929D01*
X8609879Y-22012500D01*
X8609879Y-21955357D01*
X8624164Y-21883929D01*
X8638450Y-21841072D01*
X8652736Y-21812500D01*
X8681307Y-21769643D01*
X8695593Y-21755357D01*
X8795593Y-21826786D02*
X8809879Y-21812500D01*
X8838450Y-21798214D01*
X8909879Y-21798214D01*
X8938450Y-21812500D01*
X8952736Y-21826786D01*
X8967022Y-21855357D01*
X8967022Y-21883929D01*
X8952736Y-21926786D01*
X8781307Y-22098214D01*
X8967022Y-22098214D01*
X9324164Y-22098214D02*
X9324164Y-21798214D01*
X9452736Y-22098214D02*
X9452736Y-21941072D01*
X9438450Y-21912500D01*
X9409879Y-21898214D01*
X9367022Y-21898214D01*
X9338450Y-21912500D01*
X9324164Y-21926786D01*
X9638450Y-22098214D02*
X9609879Y-22083929D01*
X9595593Y-22069643D01*
X9581307Y-22041072D01*
X9581307Y-21955357D01*
X9595593Y-21926786D01*
X9609879Y-21912500D01*
X9638450Y-21898214D01*
X9681307Y-21898214D01*
X9709879Y-21912500D01*
X9724164Y-21926786D01*
X9738450Y-21955357D01*
X9738450Y-22041072D01*
X9724164Y-22069643D01*
X9709879Y-22083929D01*
X9681307Y-22098214D01*
X9638450Y-22098214D01*
X9909879Y-22098214D02*
X9881307Y-22083929D01*
X9867022Y-22055357D01*
X9867022Y-21798214D01*
X10138450Y-22083929D02*
X10109879Y-22098214D01*
X10052736Y-22098214D01*
X10024164Y-22083929D01*
X10009879Y-22055357D01*
X10009879Y-21941072D01*
X10024164Y-21912500D01*
X10052736Y-21898214D01*
X10109879Y-21898214D01*
X10138450Y-21912500D01*
X10152736Y-21941072D01*
X10152736Y-21969643D01*
X10009879Y-21998214D01*
X10267022Y-22083929D02*
X10295593Y-22098214D01*
X10352736Y-22098214D01*
X10381307Y-22083929D01*
X10395593Y-22055357D01*
X10395593Y-22041072D01*
X10381307Y-22012500D01*
X10352736Y-21998214D01*
X10309879Y-21998214D01*
X10281307Y-21983929D01*
X10267022Y-21955357D01*
X10267022Y-21941072D01*
X10281307Y-21912500D01*
X10309879Y-21898214D01*
X10352736Y-21898214D01*
X10381307Y-21912500D01*
X10495593Y-22212500D02*
X10509879Y-22198214D01*
X10538450Y-22155357D01*
X10552736Y-22126786D01*
X10567022Y-22083929D01*
X10581307Y-22012500D01*
X10581307Y-21955357D01*
X10567022Y-21883929D01*
X10552736Y-21841072D01*
X10538450Y-21812500D01*
X10509879Y-21769643D01*
X10495593Y-21755357D01*
X11038450Y-22212500D02*
X11024164Y-22198214D01*
X10995593Y-22155357D01*
X10981307Y-22126786D01*
X10967022Y-22083929D01*
X10952736Y-22012500D01*
X10952736Y-21955357D01*
X10967022Y-21883929D01*
X10981307Y-21841072D01*
X10995593Y-21812500D01*
X11024164Y-21769643D01*
X11038450Y-21755357D01*
X11152736Y-21898214D02*
X11152736Y-22098214D01*
X11152736Y-21926786D02*
X11167022Y-21912500D01*
X11195593Y-21898214D01*
X11238450Y-21898214D01*
X11267022Y-21912500D01*
X11281307Y-21941072D01*
X11281307Y-22098214D01*
X11467022Y-22098214D02*
X11438450Y-22083929D01*
X11424164Y-22069643D01*
X11409879Y-22041072D01*
X11409879Y-21955357D01*
X11424164Y-21926786D01*
X11438450Y-21912500D01*
X11467022Y-21898214D01*
X11509879Y-21898214D01*
X11538450Y-21912500D01*
X11552736Y-21926786D01*
X11567022Y-21955357D01*
X11567022Y-22041072D01*
X11552736Y-22069643D01*
X11538450Y-22083929D01*
X11509879Y-22098214D01*
X11467022Y-22098214D01*
X11652736Y-21898214D02*
X11767022Y-21898214D01*
X11695593Y-21798214D02*
X11695593Y-22055357D01*
X11709879Y-22083929D01*
X11738450Y-22098214D01*
X11767022Y-22098214D01*
X12095593Y-21898214D02*
X12095593Y-22198214D01*
X12095593Y-21912500D02*
X12124164Y-21898214D01*
X12181307Y-21898214D01*
X12209879Y-21912500D01*
X12224164Y-21926786D01*
X12238450Y-21955357D01*
X12238450Y-22041072D01*
X12224164Y-22069643D01*
X12209879Y-22083929D01*
X12181307Y-22098214D01*
X12124164Y-22098214D01*
X12095593Y-22083929D01*
X12409879Y-22098214D02*
X12381307Y-22083929D01*
X12367022Y-22055357D01*
X12367022Y-21798214D01*
X12652736Y-22098214D02*
X12652736Y-21941072D01*
X12638450Y-21912500D01*
X12609879Y-21898214D01*
X12552736Y-21898214D01*
X12524164Y-21912500D01*
X12652736Y-22083929D02*
X12624164Y-22098214D01*
X12552736Y-22098214D01*
X12524164Y-22083929D01*
X12509879Y-22055357D01*
X12509879Y-22026786D01*
X12524164Y-21998214D01*
X12552736Y-21983929D01*
X12624164Y-21983929D01*
X12652736Y-21969643D01*
X12752736Y-21898214D02*
X12867022Y-21898214D01*
X12795593Y-21798214D02*
X12795593Y-22055357D01*
X12809879Y-22083929D01*
X12838450Y-22098214D01*
X12867022Y-22098214D01*
X13081307Y-22083929D02*
X13052736Y-22098214D01*
X12995593Y-22098214D01*
X12967022Y-22083929D01*
X12952736Y-22055357D01*
X12952736Y-21941072D01*
X12967022Y-21912500D01*
X12995593Y-21898214D01*
X13052736Y-21898214D01*
X13081307Y-21912500D01*
X13095593Y-21941072D01*
X13095593Y-21969643D01*
X12952736Y-21998214D01*
X13352736Y-22098214D02*
X13352736Y-21798214D01*
X13352736Y-22083929D02*
X13324164Y-22098214D01*
X13267022Y-22098214D01*
X13238450Y-22083929D01*
X13224164Y-22069643D01*
X13209879Y-22041072D01*
X13209879Y-21955357D01*
X13224164Y-21926786D01*
X13238450Y-21912500D01*
X13267022Y-21898214D01*
X13324164Y-21898214D01*
X13352736Y-21912500D01*
X13467022Y-22212500D02*
X13481307Y-22198214D01*
X13509879Y-22155357D01*
X13524164Y-22126786D01*
X13538450Y-22083929D01*
X13552736Y-22012500D01*
X13552736Y-21955357D01*
X13538450Y-21883929D01*
X13524164Y-21841072D01*
X13509879Y-21812500D01*
X13481307Y-21769643D01*
X13467022Y-21755357D01*
M02*
