M48
; DRILL file {KiCad (5.1.12)-1} date 08/10/22 22:48:59
; FORMAT={-:-/ absolute / metric / decimal}
; #@! TF.CreationDate,2022-08-10T22:48:59-07:00
; #@! TF.GenerationSoftware,Kicad,Pcbnew,(5.1.12)-1
; #@! TF.FileFunction,Plated,1,4,PTH
FMAT,2
METRIC
T1C0.250
T2C0.300
T3C0.350
T4C0.400
T5C0.500
T6C0.550
T7C0.600
T8C0.700
T9C0.750
T10C0.800
T11C0.900
T12C1.000
T13C1.100
T14C1.300
T15C1.400
T16C2.000
T17C3.200
%
G90
G05
T1
X40.624Y-35.491
X40.665Y-130.175
X41.128Y-32.974
X41.128Y-129.139
X41.681Y-184.455
X43.612Y-184.937
X50.571Y-188.544
X54.728Y-42.935
X56.464Y-187.376
X57.926Y-96.734
X58.462Y-98.815
X63.271Y-184.531
X67.894Y-184.971
X69.215Y-154.187
X69.215Y-180.696
X69.656Y-154.64
X69.656Y-179.654
X70.333Y-113.106
X74.457Y-86.115
X74.473Y-122.961
X74.944Y-84.034
X74.955Y-113.03
X76.784Y-113.106
X79.248Y-154.627
X79.629Y-188.544
X79.807Y-153.746
X81.296Y-42.935
X81.331Y-113.03
X82.855Y-175.87
X85.039Y-187.376
X87.528Y-174.066
X87.958Y-45.441
X87.958Y-66.629
X87.993Y-103.861
X88.014Y-119.35
X88.4Y-43.439
X88.402Y-66.186
X88.867Y-48.021
X88.867Y-71.757
X89.307Y-45.974
X89.312Y-71.316
X89.754Y-76.791
X89.759Y-50.555
X90.2Y-76.351
X90.206Y-48.514
X90.651Y-53.095
X90.651Y-79.376
X91.091Y-78.888
X91.1Y-51.059
X91.537Y-86.953
X91.542Y-53.602
X91.984Y-55.635
X91.986Y-86.511
X92.433Y-89.096
X92.434Y-58.175
X92.884Y-60.715
X92.884Y-99.653
X93.323Y-56.094
X93.324Y-99.206
X93.776Y-58.634
X93.788Y-104.737
X94.228Y-61.174
X94.228Y-107.298
X94.669Y-63.255
X94.669Y-106.826
X95.123Y-42.885
X95.123Y-112.377
X95.123Y-124.968
X95.563Y-65.281
X95.563Y-111.906
X96.032Y-63.708
X96.032Y-114.446
X96.481Y-68.794
X96.481Y-121.88
X96.934Y-121.408
X96.937Y-69.837
X97.053Y-170.18
X97.379Y-124.49
X97.384Y-72.375
X97.832Y-73.415
X97.833Y-124.05
X98.272Y-121.034
X98.278Y-77.455
X98.72Y-79.995
X98.72Y-122.289
X99.198Y-81.494
X99.21Y-122.73
X99.751Y-107.935
X99.751Y-119.79
X100.178Y-126.289
X100.203Y-100.315
X100.647Y-67.282
X100.649Y-117.131
X101.089Y-96.784
X101.089Y-116.68
X101.194Y-167.665
X101.572Y-105.395
X101.577Y-101.748
X102.105Y-102.862
X102.105Y-104.301
X102.183Y-94.679
X102.189Y-87.615
X102.624Y-95.235
X102.629Y-94.126
X102.636Y-113.015
X102.636Y-125.899
X107.793Y-180.091
X108.183Y-98.579
X108.183Y-101.747
X108.626Y-114.415
X109.195Y-53.023
X109.294Y-85.075
X109.294Y-118.049
X109.734Y-90.157
X109.743Y-120.592
X109.822Y-39.36
X109.822Y-50.858
X110.175Y-95.247
X110.175Y-106.204
X110.175Y-110.475
X110.175Y-116.608
X110.615Y-97.772
X110.615Y-108.901
X111.135Y-175.651
X111.496Y-105.392
X111.496Y-109.627
X111.658Y-187.574
X111.963Y-126.348
X111.994Y-165.105
X114.239Y-100.305
X114.653Y-40.833
X115.12Y-113.015
X115.12Y-125.443
X116.44Y-81.407
X116.891Y-168.961
X117.19Y-81.407
X117.323Y-161.366
X117.348Y-114.707
X117.532Y-95.326
X117.843Y-175.577
X118.282Y-95.326
X118.609Y-79.987
X118.609Y-85.627
X119.444Y-175.577
X120.142Y-191.135
X120.98Y-201.295
X121.63Y-174.94
X121.768Y-74.469
X122.162Y-167.078
X122.162Y-167.959
X122.602Y-165.546
X122.698Y-77.467
X123.043Y-164.665
X123.138Y-73.913
X123.579Y-74.91
X124.181Y-76.911
X126.314Y-72.365
X126.41Y-67.24
X126.746Y-57.861
X126.885Y-122.73
X127.766Y-122.289
X127.965Y-60.9
X128.194Y-54.28
X128.647Y-121.032
X128.939Y-58.347
X129.383Y-58.791
X129.471Y-53.373
X130.001Y-188.822
X130.071Y-180.618
X130.358Y-105.364
X130.419Y-92.71
X130.635Y-188.618
X130.798Y-128.224
X131.569Y-179.125
X131.609Y-163.888
X131.609Y-166.431
X131.609Y-168.968
X131.609Y-171.506
X131.609Y-174.046
X131.609Y-176.586
X132.283Y-113.005
X132.324Y-141.671
X132.744Y-162.377
X132.872Y-167.305
X136.017Y-162.369
X136.275Y-192.409
X136.637Y-133.65
X137.305Y-126.939
X137.508Y-93.49
X137.789Y-122.709
X138.282Y-89.305
X138.292Y-128.224
X138.59Y-186.743
X138.722Y-84.597
X138.733Y-118.069
X138.733Y-129.169
X138.877Y-53.372
X138.897Y-78.837
X138.987Y-135.098
X139.234Y-173.055
X139.246Y-137.625
X139.395Y-85.049
X139.498Y-177.508
X139.5Y-140.175
X139.659Y-87.589
X139.752Y-178.135
X139.762Y-142.72
X139.868Y-90.109
X140.006Y-182.448
X140.016Y-145.263
X140.147Y-97.749
X140.246Y-147.798
X140.27Y-183.063
X140.381Y-100.289
X140.518Y-185.188
X140.524Y-150.335
X140.713Y-102.908
X140.934Y-105.364
X140.96Y-152.88
X141.194Y-107.894
X143.358Y-47.854
X144.115Y-191.968
X144.164Y-187.665
X144.625Y-191.575
X144.628Y-49.428
X145.015Y-102.004
X145.765Y-102.004
X146.686Y-90.925
X146.837Y-52.095
X147.006Y-126.31
X147.006Y-128.214
X147.183Y-188.138
X147.26Y-125.684
X147.278Y-45.838
X147.436Y-90.925
X147.514Y-121.236
X147.514Y-123.149
X147.768Y-120.609
X148.022Y-118.054
X148.133Y-53.365
X148.276Y-114.083
X148.276Y-115.519
X148.53Y-112.984
X148.785Y-110.449
X149.098Y-49.352
X149.098Y-54.458
X149.413Y-64.912
X149.713Y-177.695
X149.718Y-67.615
X149.896Y-190.673
X149.936Y-69.896
X150.139Y-49.327
X150.139Y-57.074
X150.154Y-173.223
X150.256Y-72.674
X150.338Y-190.205
X150.505Y-75.087
X150.594Y-170.698
X150.594Y-172.697
X150.617Y-187.863
X150.719Y-77.643
X150.967Y-80.152
X151.035Y-170.075
X151.215Y-82.728
X151.265Y-187.668
X151.469Y-129.357
X151.475Y-178.383
X151.475Y-165.546
X151.68Y-177.791
X151.897Y-191.113
X151.994Y-49.378
X154.838Y-49.149
X154.864Y-52.095
X155.089Y-97.309
X155.089Y-101.952
X155.089Y-109.897
X155.089Y-113.998
X155.321Y-173.843
X155.343Y-120.169
X155.563Y-171.318
X155.575Y-89.09
X155.616Y-122.709
X155.817Y-163.754
X155.992Y-96.964
X156.224Y-119.79
X156.235Y-129.86
X156.261Y-168.737
X156.855Y-176.449
X158.247Y-141.651
X160.083Y-88.587
X160.091Y-131.78
X160.52Y-114.524
X160.528Y-96.266
X162.814Y-198.526
X165.354Y-201.498
X165.415Y-53.076
X165.835Y-55.616
X166.089Y-58.156
X166.111Y-190.139
X166.172Y-167.178
X166.223Y-185.567
X166.343Y-60.706
X166.39Y-167.823
X166.478Y-102.84
X166.597Y-63.236
X166.68Y-172.171
X166.741Y-105.38
X166.851Y-65.781
X167.03Y-184.379
X167.105Y-68.321
X167.117Y-107.914
X167.306Y-172.201
X167.359Y-70.866
X167.596Y-125.7
X167.622Y-73.401
X167.622Y-87.584
X167.777Y-177.287
X167.894Y-200.127
X168.036Y-123.16
X168.051Y-130.774
X168.087Y-75.941
X168.512Y-78.471
X168.514Y-118.085
X168.953Y-110.449
X169.027Y-50.602
X169.767Y-158.021
X170.056Y-157.465
X170.17Y-176.418
X170.31Y-147.377
X170.409Y-173.787
X170.564Y-146.756
X170.656Y-171.353
X170.818Y-144.765
X170.937Y-168.778
X171.111Y-144.14
X171.293Y-166.202
X171.365Y-142.428
X171.491Y-163.566
X171.531Y-141.813
X171.699Y-161.168
X171.831Y-130.429
X171.831Y-137.224
X172.09Y-158.623
X172.471Y-128.229
X172.507Y-90.14
X173.829Y-90.974
X173.829Y-116.344
X174.269Y-120.62
X174.457Y-134.95
X174.71Y-113.0
X175.143Y-133.309
X175.472Y-106.954
X175.591Y-115.545
X175.726Y-106.324
X175.986Y-182.524
X176.06Y-108.746
X176.06Y-141.761
X176.423Y-182.997
X176.661Y-109.654
X176.661Y-130.856
X176.784Y-184.876
X177.099Y-131.34
X177.102Y-91.859
X177.102Y-109.187
X177.119Y-187.559
X177.542Y-104.288
X177.542Y-125.725
X177.571Y-94.132
X177.641Y-187.906
X177.983Y-102.06
X178.984Y-36.891
X179.288Y-190.5
X179.908Y-35.252
X181.417Y-36.444
X181.61Y-181.092
X181.696Y-145.425
X182.311Y-141.514
X184.596Y-115.545
X184.607Y-122.149
X185.024Y-95.143
X185.036Y-113.005
X185.142Y-121.693
X185.176Y-97.739
X185.39Y-50.145
X185.415Y-36.196
X185.477Y-110.465
X185.674Y-121.361
X187.355Y-127.056
X187.533Y-100.173
X187.681Y-146.837
X187.99Y-47.711
X188.016Y-102.829
X188.453Y-51.227
X188.468Y-136.906
X188.516Y-131.778
X189.768Y-187.838
X190.322Y-49.657
X190.683Y-120.452
X190.763Y-50.553
X193.025Y-96.191
X193.304Y-125.547
X193.611Y-190.627
X193.655Y-161.31
X193.906Y-122.804
X194.254Y-128.041
X194.574Y-134.833
X194.909Y-116.261
X194.911Y-99.309
X195.353Y-98.75
X195.478Y-112.429
X195.8Y-94.229
X196.027Y-111.181
X196.234Y-106.487
X196.241Y-93.67
X196.809Y-142.916
X196.85Y-160.289
X197.119Y-49.672
X197.297Y-161.092
X197.663Y-51.51
X197.767Y-142.888
X198.217Y-50.112
X198.578Y-175.011
X198.771Y-170.489
X198.819Y-69.278
X198.826Y-52.202
X198.953Y-164.851
X199.136Y-106.296
X199.542Y-175.91
X199.695Y-169.931
X200.457Y-51.764
X200.762Y-50.627
X201.344Y-52.299
X201.358Y-69.787
X202.387Y-59.258
X202.828Y-60.02
X202.828Y-91.914
X203.017Y-146.387
X203.265Y-178.135
X203.347Y-147.315
X206.009Y-177.551
X206.449Y-173.029
X206.872Y-172.471
X207.015Y-167.949
X207.442Y-167.391
X207.62Y-162.869
X207.97Y-162.311
X208.081Y-157.789
X208.229Y-144.165
X208.859Y-135.057
X209.098Y-160.211
X209.423Y-194.361
X209.845Y-141.363
X211.523Y-99.309
X211.582Y-160.211
X211.582Y-190.881
X212.725Y-57.836
X212.884Y-198.501
X213.296Y-200.152
X213.765Y-187.157
X214.046Y-60.02
X214.153Y-134.31
X214.346Y-157.231
X215.069Y-152.709
X215.28Y-52.527
X215.357Y-152.151
X215.579Y-149.729
X216.087Y-150.178
X216.235Y-154.691
X216.586Y-60.96
X216.606Y-155.196
X216.815Y-159.771
X217.101Y-146.355
X217.175Y-185.611
X217.614Y-44.133
X217.656Y-146.656
X218.066Y-103.532
X218.277Y-146.827
X219.116Y-66.589
X219.126Y-59.258
X221.188Y-112.429
X221.251Y-127.152
X221.407Y-131.364
X221.446Y-134.751
X221.539Y-132.309
X221.688Y-121.195
X221.717Y-120.543
X221.742Y-60.477
X222.152Y-123.784
X222.275Y-133.299
X222.316Y-114.361
X222.382Y-121.124
X222.391Y-124.393
X222.641Y-125.74
X222.899Y-126.361
X223.153Y-129.32
X223.153Y-130.965
X223.63Y-126.253
X223.657Y-35.942
X224.592Y-140.922
X224.866Y-134.798
X225.069Y-131.826
X226.003Y-94.234
X226.003Y-97.727
X226.462Y-121.475
X226.695Y-53.34
X227.94Y-89.078
X229.057Y-121.729
X229.098Y-65.796
X230.505Y-161.29
X230.505Y-190.69
X230.708Y-122.149
X230.708Y-138.303
X232.537Y-69.11
X233.238Y-112.859
X234.071Y-192.019
X234.52Y-191.576
X235.001Y-183.189
X235.114Y-111.907
X235.179Y-89.383
X235.368Y-175.129
X236.245Y-182.631
X237.211Y-200.787
X243.117Y-180.649
X243.18Y-185.171
X243.875Y-187.838
X243.94Y-128.784
X244.277Y-125.084
X245.221Y-157.231
X245.339Y-202.819
X245.385Y-152.709
X245.603Y-141.363
X247.355Y-140.904
X247.589Y-121.102
X248.351Y-50.883
X248.666Y-190.817
X249.258Y-115.265
X249.814Y-66.482
X249.999Y-160.211
X250.157Y-117.935
X251.511Y-193.929
X251.536Y-106.705
X252.588Y-125.084
X252.695Y-180.091
X253.834Y-149.729
X254.128Y-152.151
X254.863Y-159.771
X255.098Y-155.249
X255.291Y-150.178
X255.473Y-51.137
X257.404Y-192.71
X257.774Y-115.705
X257.785Y-160.211
X258.233Y-154.691
X260.081Y-142.25
X260.314Y-130.965
X261.518Y-203.302
X261.858Y-177.551
X262.194Y-173.029
X262.545Y-51.396
X262.647Y-172.471
X262.666Y-141.798
X264.105Y-167.949
X264.429Y-167.391
X264.734Y-162.869
X265.105Y-51.65
X265.938Y-161.353
X265.938Y-191.198
X266.213Y-157.789
X266.96Y-162.311
X267.599Y-51.904
X269.342Y-81.026
X270.263Y-52.432
X272.559Y-51.924
T2
X232.265Y-60.571
X238.455Y-27.617
X240.807Y-29.2
T3
X178.427Y-82.931
X178.446Y-54.916
T4
X126.936Y-189.865
X156.972Y-158.623
X158.547Y-201.041
X163.004Y-140.095
X200.343Y-189.421
X202.086Y-138.43
X206.819Y-193.104
X219.011Y-189.421
X237.109Y-189.421
X255.714Y-189.421
X262.128Y-193.04
T5
X69.055Y-134.468
X70.955Y-134.468
T6
X124.46Y-36.068
X124.46Y-37.223
X124.46Y-38.378
X124.46Y-39.533
X124.46Y-40.688
X124.46Y-41.843
X124.46Y-42.998
X124.46Y-44.153
X124.46Y-45.308
X124.46Y-46.463
X125.46Y-36.645
X125.46Y-37.8
X125.46Y-38.956
X125.46Y-40.11
X125.46Y-41.265
X125.46Y-42.42
X125.46Y-43.575
X125.46Y-44.73
X125.46Y-45.886
T8
X44.602Y-173.634
X44.602Y-178.714
X44.704Y-158.318
X44.704Y-163.398
X46.812Y-173.634
X46.812Y-178.714
X46.914Y-158.318
X46.914Y-163.398
X50.114Y-152.578
X55.194Y-152.578
X59.995Y-173.507
X59.995Y-178.587
X60.071Y-158.267
X60.071Y-163.347
X61.366Y-146.66
X62.23Y-173.507
X62.23Y-178.587
X62.306Y-158.267
X62.306Y-163.347
X66.446Y-146.66
X73.177Y-167.97
X73.177Y-173.05
X73.228Y-160.172
X73.228Y-165.252
X75.413Y-173.076
X75.413Y-178.156
X75.438Y-160.172
X75.438Y-165.252
X82.55Y-151.613
X82.575Y-135.941
X82.575Y-138.125
X82.575Y-140.31
X82.575Y-142.494
X82.575Y-145.009
X82.575Y-147.193
X82.575Y-149.403
X87.63Y-151.613
X87.655Y-135.941
X87.655Y-138.125
X87.655Y-140.31
X87.655Y-142.494
X87.655Y-145.009
X87.655Y-147.193
X87.655Y-149.403
X90.348Y-171.526
X90.348Y-176.606
X92.685Y-137.363
X92.685Y-142.443
X92.685Y-158.826
X92.685Y-163.906
X92.685Y-171.526
X92.685Y-176.606
X105.867Y-141.376
X105.867Y-146.456
X131.994Y-152.888
X131.994Y-157.968
X131.994Y-181.696
X131.994Y-186.776
X158.598Y-170.317
X158.598Y-175.397
X181.386Y-76.083
X181.386Y-81.163
X200.457Y-90.043
X200.457Y-95.123
X200.457Y-97.815
X200.457Y-102.895
X212.725Y-53.34
X217.805Y-53.34
X231.712Y-64.572
X233.009Y-105.395
X233.009Y-110.475
X236.791Y-64.572
X239.293Y-64.572
X243.54Y-47.005
X244.373Y-64.572
X246.39Y-64.562
X248.62Y-47.005
X250.642Y-47.005
X251.47Y-64.562
X255.722Y-47.005
X256.352Y-92.263
X256.362Y-90.053
X257.769Y-46.99
X261.432Y-92.263
X261.442Y-90.053
X262.849Y-46.99
X270.332Y-54.356
X274.777Y-91.719
X274.777Y-96.799
X275.412Y-54.356
T9
X70.307Y-117.043
X71.577Y-117.043
X72.847Y-117.043
X76.835Y-117.043
X78.105Y-117.043
X78.613Y-125.298
X78.613Y-126.568
X78.613Y-127.838
X79.375Y-117.043
X219.266Y-193.865
X219.266Y-195.135
X219.266Y-196.405
X244.704Y-193.929
X244.704Y-195.199
X244.704Y-196.469
X268.097Y-91.719
X269.367Y-91.719
X270.637Y-91.719
X274.98Y-47.701
X274.98Y-48.971
X274.98Y-50.241
T10
X42.393Y-176.113
X42.393Y-178.613
X42.393Y-180.797
X42.443Y-158.409
X42.443Y-160.909
X43.228Y-29.195
X43.228Y-31.735
X43.228Y-34.275
X43.228Y-36.815
X43.228Y-39.355
X43.228Y-41.895
X43.228Y-44.435
X43.228Y-46.975
X43.228Y-49.515
X43.228Y-52.055
X43.228Y-54.595
X43.228Y-57.135
X43.228Y-59.675
X43.228Y-62.215
X43.228Y-64.755
X43.228Y-67.295
X43.228Y-69.835
X43.228Y-72.375
X43.228Y-74.915
X43.228Y-77.455
X43.228Y-79.995
X43.228Y-82.535
X43.228Y-85.075
X43.228Y-87.615
X43.228Y-90.155
X43.228Y-92.695
X43.228Y-95.235
X43.228Y-97.775
X43.228Y-100.315
X43.228Y-102.855
X43.228Y-105.395
X43.228Y-107.935
X43.228Y-110.475
X43.228Y-113.015
X43.228Y-115.555
X43.228Y-118.095
X44.893Y-180.797
X45.768Y-29.195
X45.768Y-31.735
X45.768Y-34.275
X45.768Y-36.815
X45.768Y-39.355
X45.768Y-41.895
X45.768Y-44.435
X45.768Y-46.975
X45.768Y-49.515
X45.768Y-52.055
X45.768Y-54.595
X45.768Y-57.135
X45.768Y-59.675
X45.768Y-62.215
X45.768Y-64.755
X45.768Y-67.295
X45.768Y-69.835
X45.768Y-72.375
X45.768Y-74.915
X45.768Y-77.455
X45.768Y-79.995
X45.768Y-82.535
X45.768Y-85.075
X45.768Y-87.615
X45.768Y-90.155
X45.768Y-92.695
X45.768Y-95.235
X45.768Y-97.775
X45.768Y-100.315
X45.768Y-102.855
X45.768Y-105.395
X45.768Y-107.935
X45.768Y-110.475
X45.768Y-113.015
X45.768Y-115.555
X45.768Y-118.095
X46.914Y-165.953
X46.914Y-168.453
X48.514Y-182.291
X49.621Y-158.09
X49.632Y-160.833
X49.632Y-163.373
X49.632Y-165.913
X49.632Y-168.453
X49.632Y-170.993
X49.632Y-173.533
X49.632Y-176.073
X50.514Y-182.291
X52.121Y-158.09
X54.762Y-158.09
X56.617Y-182.291
X57.252Y-160.833
X57.252Y-163.373
X57.252Y-165.913
X57.252Y-168.453
X57.252Y-170.993
X57.252Y-173.533
X57.252Y-176.073
X57.262Y-158.09
X58.617Y-182.291
X59.995Y-165.927
X59.995Y-168.427
X61.965Y-180.67
X63.543Y-44.435
X63.543Y-46.975
X63.543Y-49.515
X63.543Y-52.055
X63.543Y-54.595
X63.543Y-57.135
X63.543Y-59.675
X63.543Y-62.215
X63.543Y-64.755
X63.543Y-67.295
X63.543Y-69.835
X63.543Y-72.375
X63.543Y-74.915
X63.543Y-77.455
X63.543Y-79.995
X63.543Y-82.535
X63.543Y-85.075
X63.543Y-87.615
X63.543Y-90.155
X63.543Y-92.695
X63.543Y-95.235
X63.543Y-97.775
X63.543Y-100.315
X63.543Y-102.855
X63.543Y-105.395
X63.543Y-107.935
X63.543Y-110.475
X63.543Y-113.015
X63.543Y-115.555
X63.543Y-118.095
X63.589Y-136.817
X63.589Y-144.437
X64.465Y-175.986
X64.465Y-178.486
X64.465Y-180.67
X64.541Y-158.369
X64.541Y-160.869
X66.083Y-44.435
X66.083Y-46.975
X66.083Y-49.515
X66.083Y-52.055
X66.083Y-54.595
X66.083Y-57.135
X66.083Y-59.675
X66.083Y-62.215
X66.083Y-64.755
X66.083Y-67.295
X66.083Y-69.835
X66.083Y-72.375
X66.083Y-74.915
X66.083Y-77.455
X66.083Y-79.995
X66.083Y-82.535
X66.083Y-85.075
X66.083Y-87.615
X66.083Y-90.155
X66.083Y-92.695
X66.083Y-95.235
X66.083Y-97.775
X66.083Y-100.315
X66.083Y-102.855
X66.083Y-105.395
X66.083Y-107.935
X66.083Y-110.475
X66.083Y-113.015
X66.083Y-115.555
X66.083Y-118.095
X66.129Y-136.817
X66.129Y-144.437
X67.018Y-131.928
X67.018Y-134.428
X68.669Y-136.817
X68.669Y-144.437
X68.772Y-146.66
X70.942Y-168.072
X70.942Y-170.572
X70.993Y-160.274
X70.993Y-162.774
X71.209Y-136.817
X71.209Y-144.437
X71.272Y-146.66
X72.987Y-131.968
X72.987Y-134.468
X75.438Y-168.453
X75.438Y-170.953
X77.622Y-182.291
X78.156Y-157.963
X78.156Y-160.833
X78.156Y-163.373
X78.156Y-165.913
X78.156Y-168.453
X78.156Y-170.993
X78.156Y-173.533
X78.156Y-176.073
X79.622Y-182.291
X80.656Y-157.963
X83.047Y-157.937
X83.863Y-29.195
X83.863Y-31.735
X83.863Y-34.275
X83.863Y-36.815
X83.863Y-39.355
X83.863Y-41.895
X83.863Y-44.435
X83.863Y-46.975
X83.863Y-49.515
X83.863Y-52.055
X83.863Y-54.595
X83.863Y-57.135
X83.863Y-59.675
X83.863Y-62.215
X83.863Y-64.755
X83.863Y-67.295
X83.863Y-69.835
X83.863Y-72.375
X83.863Y-74.915
X83.863Y-77.455
X83.863Y-79.995
X83.863Y-82.535
X83.863Y-85.075
X83.863Y-87.615
X83.863Y-90.155
X83.863Y-92.695
X83.863Y-95.235
X83.863Y-97.775
X83.863Y-100.315
X83.863Y-102.855
X83.863Y-105.395
X83.863Y-107.935
X83.863Y-110.475
X83.863Y-113.015
X83.863Y-115.555
X83.863Y-118.095
X85.039Y-182.291
X85.547Y-157.937
X85.776Y-160.833
X85.776Y-163.373
X85.776Y-165.913
X85.776Y-168.453
X85.776Y-170.993
X85.776Y-173.533
X85.776Y-176.073
X86.403Y-29.195
X86.403Y-31.735
X86.403Y-34.275
X86.403Y-36.815
X86.403Y-39.355
X86.403Y-41.895
X86.403Y-44.435
X86.403Y-46.975
X86.403Y-49.515
X86.403Y-52.055
X86.403Y-54.595
X86.403Y-57.135
X86.403Y-59.675
X86.403Y-62.215
X86.403Y-64.755
X86.403Y-67.295
X86.403Y-69.835
X86.403Y-72.375
X86.403Y-74.915
X86.403Y-77.455
X86.403Y-79.995
X86.403Y-82.535
X86.403Y-85.075
X86.403Y-87.615
X86.403Y-90.155
X86.403Y-92.695
X86.403Y-95.235
X86.403Y-97.775
X86.403Y-100.315
X86.403Y-102.855
X86.403Y-105.395
X86.403Y-107.935
X86.403Y-110.475
X86.403Y-113.015
X86.403Y-115.555
X86.403Y-118.095
X87.039Y-182.291
X88.722Y-165.938
X88.722Y-168.438
X90.297Y-187.833
X90.449Y-139.878
X90.449Y-142.378
X92.659Y-144.983
X92.659Y-147.483
X94.799Y-182.291
X95.003Y-152.908
X95.402Y-139.827
X95.402Y-142.367
X95.402Y-144.907
X95.402Y-147.447
X95.407Y-158.826
X95.407Y-161.366
X95.407Y-163.906
X95.407Y-166.446
X95.407Y-168.986
X95.407Y-171.526
X95.407Y-174.066
X95.407Y-176.606
X95.89Y-132.267
X95.89Y-134.767
X96.799Y-182.291
X97.003Y-152.908
X98.115Y-132.278
X98.115Y-134.778
X100.497Y-137.033
X101.038Y-182.291
X101.93Y-152.908
X102.997Y-137.033
X102.997Y-187.833
X103.022Y-139.827
X103.022Y-142.367
X103.022Y-144.907
X103.022Y-147.447
X103.027Y-158.826
X103.027Y-161.366
X103.027Y-163.906
X103.027Y-166.446
X103.027Y-168.986
X103.027Y-171.526
X103.027Y-174.066
X103.027Y-176.606
X103.038Y-182.291
X103.93Y-152.908
X104.183Y-29.195
X104.183Y-31.735
X104.183Y-34.275
X104.183Y-36.815
X104.183Y-39.355
X104.183Y-41.895
X104.183Y-44.435
X104.183Y-46.975
X104.183Y-49.515
X104.183Y-52.055
X104.183Y-54.595
X104.183Y-57.135
X104.183Y-59.675
X104.183Y-62.215
X104.183Y-64.755
X104.183Y-67.295
X104.183Y-69.835
X104.183Y-72.375
X104.183Y-74.915
X104.183Y-77.455
X104.183Y-79.995
X104.183Y-82.535
X104.183Y-85.075
X104.183Y-87.615
X104.183Y-90.155
X104.183Y-92.695
X104.183Y-95.235
X104.183Y-97.775
X104.183Y-100.315
X104.183Y-102.855
X104.183Y-105.395
X104.183Y-107.935
X104.183Y-110.475
X104.183Y-113.015
X104.183Y-115.555
X104.183Y-118.095
X105.816Y-173.863
X105.816Y-176.363
X106.723Y-29.195
X106.723Y-31.735
X106.723Y-34.275
X106.723Y-36.815
X106.723Y-39.355
X106.723Y-41.895
X106.723Y-44.435
X106.723Y-46.975
X106.723Y-49.515
X106.723Y-52.055
X106.723Y-54.595
X106.723Y-57.135
X106.723Y-59.675
X106.723Y-62.215
X106.723Y-64.755
X106.723Y-67.295
X106.723Y-69.835
X106.723Y-72.375
X106.723Y-74.915
X106.723Y-77.455
X106.723Y-79.995
X106.723Y-82.535
X106.723Y-85.075
X106.723Y-87.615
X106.723Y-90.155
X106.723Y-92.695
X106.723Y-95.235
X106.723Y-97.775
X106.723Y-100.315
X106.723Y-102.855
X106.723Y-105.395
X106.723Y-107.935
X106.723Y-110.475
X106.723Y-113.015
X106.723Y-115.555
X106.723Y-118.095
X108.153Y-142.875
X108.153Y-145.375
X109.433Y-158.821
X109.433Y-161.361
X109.433Y-163.901
X109.433Y-166.441
X109.433Y-168.981
X109.433Y-171.521
X109.433Y-174.061
X109.433Y-176.601
X109.433Y-179.141
X109.433Y-181.681
X109.433Y-184.221
X109.433Y-186.761
X114.066Y-141.727
X114.066Y-149.347
X121.641Y-59.893
X121.641Y-62.433
X121.641Y-64.973
X121.641Y-67.513
X121.641Y-70.053
X121.686Y-141.727
X121.686Y-149.347
X124.181Y-59.893
X124.181Y-62.433
X124.181Y-64.973
X124.181Y-67.513
X124.181Y-70.053
X124.673Y-158.821
X124.673Y-161.361
X124.673Y-163.901
X124.673Y-166.441
X124.673Y-168.981
X124.673Y-171.521
X124.673Y-174.061
X124.673Y-176.601
X124.673Y-179.141
X124.673Y-181.681
X124.673Y-184.221
X124.673Y-186.761
X125.75Y-141.696
X125.75Y-144.196
X127.406Y-163.901
X127.406Y-166.401
X134.833Y-160.675
X134.833Y-135.098
X134.833Y-137.638
X134.833Y-140.178
X134.833Y-142.718
X134.833Y-145.258
X134.833Y-147.798
X134.833Y-150.338
X134.833Y-152.878
X134.833Y-155.418
X134.833Y-157.958
X134.833Y-163.886
X134.833Y-166.426
X134.833Y-168.966
X134.833Y-171.506
X134.833Y-174.046
X134.833Y-176.586
X134.833Y-179.126
X134.833Y-181.666
X134.833Y-184.206
X134.833Y-186.746
X134.859Y-189.484
X135.108Y-49.484
X135.108Y-52.024
X135.108Y-54.564
X135.108Y-57.104
X135.108Y-59.644
X135.108Y-62.184
X135.108Y-64.724
X135.108Y-67.264
X135.108Y-69.804
X135.108Y-72.344
X135.108Y-74.884
X135.108Y-77.424
X135.108Y-79.964
X135.108Y-82.504
X135.108Y-85.044
X135.108Y-87.584
X135.108Y-90.124
X135.108Y-92.664
X135.108Y-95.204
X135.108Y-97.744
X135.108Y-100.284
X135.108Y-102.824
X135.108Y-105.364
X135.108Y-107.904
X135.108Y-110.444
X135.108Y-112.984
X135.108Y-115.524
X135.108Y-118.064
X135.108Y-120.604
X135.108Y-123.144
X135.108Y-125.684
X135.108Y-128.224
X137.333Y-160.675
X137.359Y-189.484
X142.453Y-135.098
X142.453Y-137.638
X142.453Y-140.178
X142.453Y-142.718
X142.453Y-145.258
X142.453Y-147.798
X142.453Y-150.338
X142.453Y-152.878
X142.453Y-155.418
X142.453Y-157.958
X142.453Y-163.886
X142.453Y-166.426
X142.453Y-168.966
X142.453Y-171.506
X142.453Y-174.046
X142.453Y-176.586
X142.453Y-179.126
X142.453Y-181.666
X142.453Y-184.206
X142.453Y-186.746
X145.252Y-160.67
X145.715Y-135.098
X145.715Y-137.638
X145.715Y-140.178
X145.715Y-142.718
X145.715Y-145.258
X145.715Y-147.798
X145.715Y-150.338
X145.715Y-152.878
X145.715Y-155.418
X145.715Y-157.958
X145.715Y-163.886
X145.715Y-166.426
X145.715Y-168.966
X145.715Y-171.506
X145.715Y-174.046
X145.715Y-176.586
X145.715Y-179.126
X145.715Y-181.666
X145.715Y-184.206
X145.715Y-186.746
X145.75Y-189.454
X147.752Y-160.67
X148.25Y-189.454
X153.335Y-135.098
X153.335Y-137.638
X153.335Y-140.178
X153.335Y-142.718
X153.335Y-145.258
X153.335Y-147.798
X153.335Y-150.338
X153.335Y-152.878
X153.335Y-155.418
X153.335Y-157.958
X153.335Y-163.886
X153.335Y-166.426
X153.335Y-168.966
X153.335Y-171.506
X153.335Y-174.046
X153.335Y-176.586
X153.335Y-179.126
X153.335Y-181.666
X153.335Y-184.206
X153.335Y-186.746
X157.968Y-49.484
X157.968Y-52.024
X157.968Y-54.564
X157.968Y-57.104
X157.968Y-59.644
X157.968Y-62.184
X157.968Y-64.724
X157.968Y-67.264
X157.968Y-69.804
X157.968Y-72.344
X157.968Y-74.884
X157.968Y-77.424
X157.968Y-79.964
X157.968Y-82.504
X157.968Y-85.044
X157.968Y-87.584
X157.968Y-90.124
X157.968Y-92.664
X157.968Y-95.204
X157.968Y-97.744
X157.968Y-100.284
X157.968Y-102.824
X157.968Y-105.364
X157.968Y-107.904
X157.968Y-110.444
X157.968Y-112.984
X157.968Y-115.524
X157.968Y-118.064
X157.968Y-120.604
X157.968Y-123.144
X157.968Y-125.684
X157.968Y-128.224
X158.74Y-186.726
X158.74Y-189.226
X161.584Y-57.594
X161.584Y-59.753
X161.584Y-70.993
X161.584Y-73.406
X161.584Y-76.01
X161.584Y-78.486
X164.084Y-57.594
X164.084Y-59.753
X164.084Y-70.993
X164.084Y-73.406
X164.084Y-76.01
X164.084Y-78.486
X164.125Y-87.6
X164.125Y-90.14
X164.125Y-92.68
X164.125Y-95.22
X164.125Y-97.76
X164.125Y-100.3
X164.125Y-102.84
X164.125Y-105.38
X164.125Y-107.92
X164.125Y-110.46
X164.125Y-113.0
X164.125Y-115.54
X164.125Y-118.08
X164.125Y-120.62
X164.125Y-123.16
X164.125Y-125.7
X164.125Y-128.24
X164.125Y-130.78
X164.125Y-133.32
X164.125Y-135.86
X164.134Y-138.562
X166.634Y-138.562
X170.029Y-47.498
X172.506Y-83.947
X172.529Y-47.498
X175.006Y-83.947
X175.046Y-47.498
X175.122Y-42.545
X177.546Y-47.498
X177.622Y-42.545
X179.365Y-87.6
X179.365Y-90.14
X179.365Y-92.68
X179.365Y-95.22
X179.365Y-97.76
X179.365Y-100.3
X179.365Y-102.84
X179.365Y-105.38
X179.365Y-107.92
X179.365Y-110.46
X179.365Y-113.0
X179.365Y-115.54
X179.365Y-118.08
X179.365Y-120.62
X179.365Y-123.16
X179.365Y-125.7
X179.365Y-128.24
X179.365Y-130.78
X179.365Y-133.32
X179.365Y-135.86
X179.935Y-53.149
X179.935Y-55.308
X179.935Y-57.467
X179.935Y-59.627
X179.935Y-61.785
X179.935Y-63.944
X179.935Y-66.103
X179.959Y-68.326
X179.959Y-70.826
X180.217Y-42.545
X182.435Y-53.149
X182.435Y-55.308
X182.435Y-57.467
X182.435Y-59.627
X182.435Y-61.785
X182.435Y-63.944
X182.435Y-66.103
X182.554Y-138.557
X182.565Y-87.6
X182.565Y-90.14
X182.565Y-92.68
X182.565Y-95.22
X182.565Y-97.76
X182.565Y-100.3
X182.565Y-102.84
X182.565Y-105.38
X182.565Y-107.92
X182.565Y-110.46
X182.565Y-113.0
X182.565Y-115.54
X182.565Y-118.08
X182.565Y-120.62
X182.565Y-123.16
X182.565Y-125.7
X182.565Y-128.24
X182.565Y-130.78
X182.565Y-133.32
X182.565Y-135.86
X182.717Y-42.545
X184.134Y-70.272
X184.155Y-72.928
X184.155Y-80.548
X185.054Y-138.557
X186.054Y-189.446
X186.068Y-148.62
X186.068Y-151.16
X186.068Y-153.7
X186.068Y-156.24
X186.068Y-158.78
X186.068Y-161.32
X186.068Y-163.86
X186.068Y-166.4
X186.068Y-168.94
X186.068Y-171.48
X186.068Y-174.02
X186.068Y-176.56
X186.068Y-179.1
X186.068Y-181.64
X186.068Y-184.18
X186.068Y-186.72
X186.634Y-70.272
X186.695Y-72.928
X186.695Y-80.548
X188.011Y-42.545
X188.554Y-189.446
X189.235Y-72.928
X189.235Y-80.548
X190.511Y-42.545
X191.775Y-72.928
X191.775Y-80.548
X192.141Y-45.166
X192.141Y-47.666
X194.315Y-72.928
X194.315Y-80.548
X196.251Y-56.571
X196.251Y-64.191
X196.855Y-72.928
X196.855Y-80.548
X197.805Y-87.6
X197.805Y-90.14
X197.805Y-92.68
X197.805Y-95.22
X197.805Y-97.76
X197.805Y-100.3
X197.805Y-102.84
X197.805Y-105.38
X197.805Y-107.92
X197.805Y-110.46
X197.805Y-113.0
X197.805Y-115.54
X197.805Y-118.08
X197.805Y-120.62
X197.805Y-123.16
X197.805Y-125.7
X197.805Y-128.24
X197.805Y-130.78
X197.805Y-133.32
X197.805Y-135.86
X198.791Y-56.571
X198.791Y-64.191
X199.395Y-72.928
X199.395Y-80.548
X201.308Y-148.62
X201.308Y-151.16
X201.308Y-153.7
X201.308Y-156.24
X201.308Y-158.78
X201.308Y-161.32
X201.308Y-163.86
X201.308Y-166.4
X201.308Y-168.94
X201.308Y-171.48
X201.308Y-174.02
X201.308Y-176.56
X201.308Y-179.1
X201.308Y-181.64
X201.308Y-184.18
X201.308Y-186.72
X201.331Y-56.571
X201.331Y-64.191
X201.874Y-105.43
X201.874Y-107.93
X203.871Y-56.571
X203.871Y-64.191
X204.485Y-189.446
X204.488Y-148.62
X204.488Y-151.16
X204.488Y-153.7
X204.488Y-156.24
X204.488Y-158.78
X204.488Y-161.32
X204.488Y-163.86
X204.488Y-166.4
X204.488Y-168.94
X204.488Y-171.48
X204.488Y-174.02
X204.488Y-176.56
X204.488Y-179.1
X204.488Y-181.64
X204.488Y-184.18
X204.488Y-186.72
X204.541Y-87.6
X204.541Y-90.14
X204.541Y-92.68
X204.541Y-95.22
X204.541Y-97.76
X204.541Y-100.3
X204.541Y-102.84
X204.541Y-105.38
X204.541Y-107.92
X204.541Y-110.46
X204.541Y-113.0
X204.541Y-115.54
X204.541Y-118.08
X204.541Y-120.62
X204.541Y-123.16
X204.541Y-125.7
X204.541Y-128.24
X204.541Y-130.78
X204.541Y-133.32
X204.541Y-135.86
X204.673Y-45.319
X204.688Y-47.518
X204.703Y-49.672
X206.411Y-56.571
X206.411Y-64.191
X206.471Y-53.899
X206.985Y-189.446
X207.173Y-45.319
X207.188Y-47.518
X207.203Y-49.672
X208.951Y-56.571
X208.951Y-64.191
X208.971Y-53.899
X209.006Y-73.96
X209.006Y-81.58
X211.491Y-56.571
X211.491Y-64.191
X214.031Y-56.571
X214.031Y-64.191
X216.571Y-56.571
X216.571Y-64.191
X216.626Y-73.96
X216.626Y-81.58
X217.597Y-48.509
X218.963Y-42.545
X219.111Y-56.571
X219.111Y-64.191
X219.728Y-148.62
X219.728Y-151.16
X219.728Y-153.7
X219.728Y-156.24
X219.728Y-158.78
X219.728Y-161.32
X219.728Y-163.86
X219.728Y-166.4
X219.728Y-168.94
X219.728Y-171.48
X219.728Y-174.02
X219.728Y-176.56
X219.728Y-179.1
X219.728Y-181.64
X219.728Y-184.18
X219.728Y-186.72
X219.781Y-87.6
X219.781Y-90.14
X219.781Y-92.68
X219.781Y-95.22
X219.781Y-97.76
X219.781Y-100.3
X219.781Y-102.84
X219.781Y-105.38
X219.781Y-107.92
X219.781Y-110.46
X219.781Y-113.0
X219.781Y-115.54
X219.781Y-118.08
X219.781Y-120.62
X219.781Y-123.16
X219.781Y-125.7
X219.781Y-128.24
X219.781Y-130.78
X219.781Y-133.32
X219.781Y-135.86
X220.137Y-48.509
X220.662Y-71.438
X220.662Y-73.938
X221.463Y-42.545
X222.677Y-48.509
X222.908Y-148.62
X222.908Y-151.16
X222.908Y-153.7
X222.908Y-156.24
X222.908Y-158.78
X222.908Y-161.32
X222.908Y-163.86
X222.908Y-166.4
X222.908Y-168.94
X222.908Y-171.48
X222.908Y-174.02
X222.908Y-176.56
X222.908Y-179.1
X222.908Y-181.64
X222.908Y-184.18
X222.908Y-186.72
X222.912Y-189.446
X223.083Y-87.6
X223.083Y-90.14
X223.083Y-92.68
X223.083Y-95.22
X223.083Y-97.76
X223.083Y-100.3
X224.749Y-42.545
X225.217Y-48.509
X225.412Y-189.446
X227.249Y-42.545
X227.757Y-48.509
X229.443Y-42.545
X230.297Y-48.509
X231.943Y-42.545
X233.022Y-116.713
X233.022Y-119.213
X233.05Y-100.136
X233.05Y-102.636
X237.454Y-101.661
X237.454Y-104.201
X237.454Y-106.741
X237.454Y-109.281
X237.454Y-111.821
X237.454Y-114.361
X237.454Y-116.901
X237.454Y-119.441
X237.454Y-121.981
X237.454Y-124.521
X237.454Y-127.061
X238.148Y-148.62
X238.148Y-151.16
X238.148Y-153.7
X238.148Y-156.24
X238.148Y-158.78
X238.148Y-161.32
X238.148Y-163.86
X238.148Y-166.4
X238.148Y-168.94
X238.148Y-171.48
X238.148Y-174.02
X238.148Y-176.56
X238.148Y-179.1
X238.148Y-181.64
X238.148Y-184.18
X238.148Y-186.72
X238.577Y-134.198
X238.577Y-136.698
X239.994Y-99.121
X239.994Y-101.661
X239.994Y-104.201
X239.994Y-106.741
X239.994Y-109.281
X239.994Y-111.821
X239.994Y-114.361
X239.994Y-116.901
X239.994Y-119.441
X239.994Y-121.981
X239.994Y-124.521
X239.994Y-127.061
X239.994Y-129.601
X241.32Y-189.446
X241.328Y-148.62
X241.328Y-151.16
X241.328Y-153.7
X241.328Y-156.24
X241.328Y-158.78
X241.328Y-161.32
X241.328Y-163.86
X241.328Y-166.4
X241.328Y-168.94
X241.328Y-171.48
X241.328Y-174.02
X241.328Y-176.56
X241.328Y-179.1
X241.328Y-181.64
X241.328Y-184.18
X241.328Y-186.72
X242.534Y-99.121
X242.534Y-101.661
X242.534Y-127.061
X242.534Y-129.601
X243.82Y-189.446
X245.074Y-99.121
X245.074Y-101.661
X245.074Y-127.061
X245.074Y-129.601
X247.614Y-99.121
X247.614Y-101.661
X247.614Y-127.061
X247.614Y-129.601
X250.154Y-99.121
X250.154Y-101.661
X250.154Y-127.061
X250.154Y-129.601
X252.694Y-99.121
X252.694Y-101.661
X252.694Y-127.061
X252.694Y-129.601
X255.234Y-99.121
X255.234Y-101.661
X255.234Y-127.061
X255.234Y-129.601
X256.519Y-94.752
X256.568Y-148.62
X256.568Y-151.16
X256.568Y-153.7
X256.568Y-156.24
X256.568Y-158.78
X256.568Y-161.32
X256.568Y-163.86
X256.568Y-166.4
X256.568Y-168.94
X256.568Y-171.48
X256.568Y-174.02
X256.568Y-176.56
X256.568Y-179.1
X256.568Y-181.64
X256.568Y-184.18
X256.568Y-186.72
X256.921Y-64.668
X257.493Y-134.048
X257.493Y-136.548
X257.774Y-99.121
X257.774Y-101.661
X257.774Y-127.061
X257.774Y-129.601
X259.019Y-94.752
X259.421Y-64.668
X259.748Y-148.62
X259.748Y-151.16
X259.748Y-153.7
X259.748Y-156.24
X259.748Y-158.78
X259.748Y-161.32
X259.748Y-163.86
X259.748Y-166.4
X259.748Y-168.94
X259.748Y-171.48
X259.748Y-174.02
X259.748Y-176.56
X259.748Y-179.1
X259.748Y-181.64
X259.748Y-184.18
X259.748Y-186.72
X259.755Y-189.446
X260.314Y-99.121
X260.314Y-101.661
X260.314Y-127.061
X260.314Y-129.601
X262.255Y-189.446
X262.854Y-99.121
X262.854Y-101.661
X262.854Y-127.061
X262.854Y-129.601
X265.394Y-99.121
X265.394Y-101.661
X265.394Y-104.201
X265.394Y-106.741
X265.394Y-109.281
X265.394Y-111.821
X265.394Y-114.361
X265.394Y-116.901
X265.394Y-119.441
X265.394Y-121.981
X265.394Y-124.521
X265.394Y-127.061
X265.394Y-129.601
X265.572Y-41.946
X267.934Y-101.661
X267.934Y-104.201
X267.934Y-106.741
X267.934Y-109.281
X267.934Y-111.821
X267.934Y-114.361
X267.934Y-116.901
X267.934Y-119.441
X267.934Y-121.981
X267.934Y-124.521
X267.934Y-127.061
X268.112Y-41.946
X270.652Y-41.946
X272.303Y-114.36
X272.303Y-116.86
X272.303Y-120.665
X272.303Y-123.165
X272.318Y-101.67
X272.318Y-104.17
X273.192Y-41.946
X274.988Y-148.62
X274.988Y-151.16
X274.988Y-153.7
X274.988Y-156.24
X274.988Y-158.78
X274.988Y-161.32
X274.988Y-163.86
X274.988Y-166.4
X274.988Y-168.94
X274.988Y-171.48
X274.988Y-174.02
X274.988Y-176.56
X274.988Y-179.1
X274.988Y-181.64
X274.988Y-184.18
X274.988Y-186.72
X275.732Y-41.946
T12
X39.04Y-165.964
X39.04Y-168.504
X39.04Y-171.044
X41.58Y-165.964
X41.58Y-168.504
X41.58Y-171.044
X57.15Y-144.374
X57.15Y-149.454
X65.354Y-165.862
X65.354Y-168.402
X65.354Y-170.942
X67.894Y-165.862
X67.894Y-168.402
X67.894Y-170.942
X82.829Y-132.842
X85.369Y-132.842
X87.909Y-132.842
X125.41Y-78.829
X127.95Y-78.829
X130.49Y-78.829
X157.907Y-178.831
X157.907Y-181.371
X162.789Y-204.724
X162.789Y-207.264
X162.834Y-52.019
X162.834Y-54.559
X164.206Y-148.62
X164.206Y-151.16
X164.206Y-153.7
X164.206Y-156.24
X164.206Y-158.78
X164.206Y-161.32
X164.206Y-163.86
X164.206Y-166.4
X164.206Y-168.94
X164.206Y-171.48
X164.206Y-174.02
X164.206Y-176.56
X164.206Y-179.1
X164.206Y-181.64
X164.206Y-184.18
X164.206Y-186.72
X165.329Y-204.724
X165.329Y-207.264
X167.869Y-204.724
X167.869Y-207.264
X170.409Y-204.724
X170.409Y-207.264
X172.496Y-50.541
X172.496Y-53.081
X172.496Y-55.621
X172.496Y-58.161
X172.496Y-60.701
X172.496Y-63.241
X172.496Y-65.781
X172.496Y-68.321
X172.496Y-70.861
X172.496Y-73.401
X172.496Y-75.941
X172.496Y-78.481
X172.496Y-81.021
X172.949Y-204.724
X172.949Y-207.264
X174.264Y-139.04
X175.036Y-50.541
X175.036Y-53.081
X175.036Y-55.621
X175.036Y-58.161
X175.036Y-60.701
X175.036Y-63.241
X175.036Y-65.781
X175.036Y-68.321
X175.036Y-70.861
X175.036Y-73.401
X175.036Y-75.941
X175.036Y-78.481
X175.036Y-81.021
X179.344Y-139.04
X179.446Y-148.62
X179.446Y-151.16
X179.446Y-153.7
X179.446Y-156.24
X179.446Y-158.78
X179.446Y-161.32
X179.446Y-163.86
X179.446Y-166.4
X179.446Y-168.94
X179.446Y-171.48
X179.446Y-174.02
X179.446Y-176.56
X179.446Y-179.1
X179.446Y-181.64
X179.446Y-184.18
X179.446Y-186.72
X187.528Y-143.276
X190.068Y-143.276
X192.608Y-143.276
X192.72Y-139.065
X193.01Y-59.446
X193.01Y-64.526
X195.687Y-45.156
X195.687Y-47.696
X197.8Y-139.065
X198.227Y-45.156
X198.227Y-47.696
X200.767Y-45.156
X200.767Y-47.696
X211.511Y-67.366
X216.591Y-67.366
X222.684Y-82.931
X222.694Y-77.851
X224.211Y-57.831
X224.211Y-60.371
X224.211Y-62.911
X226.568Y-103.734
X226.568Y-106.274
X226.568Y-108.814
X226.568Y-111.354
X226.751Y-57.831
X226.751Y-60.371
X226.751Y-62.911
X229.108Y-103.734
X229.108Y-106.274
X229.108Y-108.814
X229.108Y-111.354
X232.954Y-83.967
X236.398Y-55.753
X238.034Y-83.977
X240.264Y-90.399
X240.264Y-92.939
X241.398Y-55.753
X242.804Y-90.399
X242.804Y-92.939
X245.344Y-90.399
X245.344Y-92.939
X247.833Y-56.032
X247.884Y-90.399
X247.884Y-92.939
X250.424Y-90.399
X250.424Y-92.939
X252.833Y-56.032
X256.845Y-67.615
X259.552Y-56.175
X261.859Y-83.861
X261.925Y-67.615
X264.552Y-56.175
X265.283Y-67.142
X266.939Y-83.871
X267.092Y-35.174
X267.092Y-37.674
X269.042Y-35.174
X270.363Y-67.152
X271.642Y-35.174
X273.592Y-35.174
X273.592Y-37.674
T13
X203.004Y-200.134
X203.004Y-204.634
X209.504Y-200.134
X209.504Y-204.634
X223.837Y-200.134
X223.837Y-204.634
X230.337Y-200.134
X230.337Y-204.634
X243.522Y-200.152
X243.522Y-204.652
X250.022Y-200.152
X250.022Y-204.652
T14
X162.882Y-39.233
X166.882Y-39.233
X170.882Y-39.233
X177.382Y-39.233
X181.382Y-39.233
X185.382Y-39.233
X189.382Y-39.233
X206.967Y-39.192
X210.967Y-39.192
X214.967Y-39.192
X221.467Y-39.192
X225.467Y-39.192
X229.467Y-39.192
X233.467Y-39.192
T15
X228.286Y-72.304
X228.286Y-77.804
X232.486Y-72.304
X232.486Y-77.804
X236.686Y-72.304
X236.686Y-77.804
X240.886Y-72.304
X240.886Y-77.804
X245.086Y-72.304
X245.086Y-77.804
X249.286Y-72.304
X249.286Y-77.804
X253.486Y-72.304
X253.486Y-77.804
X257.686Y-72.304
X257.686Y-77.804
X261.886Y-72.304
X261.886Y-77.804
X266.086Y-72.304
X266.086Y-77.804
X270.286Y-72.304
X270.286Y-77.804
X274.486Y-72.304
X274.486Y-77.804
T16
X135.738Y-32.355
X137.738Y-34.755
X137.738Y-40.255
T17
X68.852Y-36.815
X68.852Y-192.165
X114.572Y-36.815
X114.572Y-192.165
X272.052Y-59.675
X272.052Y-192.165
T7
X245.489Y-39.536G85X245.489Y-38.936
G05
X247.989Y-42.036G85X247.989Y-41.436
G05
X250.789Y-29.276G85X250.189Y-29.276
G05
X252.989Y-39.536G85X252.989Y-38.936
G05
X252.989Y-44.536G85X252.989Y-43.936
G05
X255.789Y-29.276G85X255.189Y-29.276
G05
X257.989Y-42.036G85X257.989Y-41.436
G05
X260.489Y-39.536G85X260.489Y-38.936
G05
T10
X263.542Y-31.674G85X263.542Y-32.874
G05
X277.142Y-31.674G85X277.142Y-32.874
G05
T11
X121.71Y-38.818G85X121.71Y-37.018
G05
X121.71Y-48.318G85X121.71Y-46.518
G05
X128.21Y-36.218G85X128.21Y-34.418
G05
X128.21Y-45.218G85X128.21Y-43.418
G05
T12
X271.092Y-31.374G85X269.592Y-31.374
G05
T0
M30
